<?xml version="1.0" encoding="utf-8" ?><svg version="1.1" xmlns = 'http://www.w3.org/2000/svg'><defs><font id='web' horiz-adv-x="1000">
<font-face font-family="web" descent="-252" cap-height="658" units-per-em="1000" bbox="-155,-324,1211,1000" x-height="464" ascent="748" />
<missing-glyph horiz-adv-x="500" d="M 50 -252 L 450 -252 L 450 748 L 50 748 L 50 -252 Z M 100 -202 L 100 698 L 400 698 L 400 -202 L 100 -202 Z" /><glyph horiz-adv-x="200" d="" unicode=" " />
<glyph horiz-adv-x="190" d="M 94 177 L 168 712 L 222 712 L 147 177 L 94 177 Z M 64 0 L 73 61 L 134 61 L 125 0 L 64 0 Z" unicode="!" />
<glyph horiz-adv-x="283" d="M 139 536 L 165 722 L 215 722 L 189 536 L 139 536 Z M 244 536 L 270 722 L 321 722 L 295 536 L 244 536 Z" unicode="&#x22;" />
<glyph horiz-adv-x="535" d="M 120 -33 L 160 120 L 56 120 L 64 172 L 174 172 L 209 306 L 98 306 L 106 358 L 223 358 L 263 509 L 313 509 L 273 358 L 386 358 L 426 509 L 476 509 L 436 358 L 536 358 L 529 306 L 422 306 L 387 172 L 496 172 L 488 120 L 373 120 L 333 -33 L 284 -33 L 324 120 L 210 120 L 169 -33 L 120 -33 Z M 223 172 L 338 172 L 373 306 L 259 306 L 223 172 Z" unicode="#" />
<glyph horiz-adv-x="488" d="M 281 345 L 337 740 L 388 740 L 332 345 L 281 345 Z M 222 -87 L 280 335 L 331 335 L 272 -87 L 222 -87 Z M 262 -16 C 226 -16 192 -11 160 -2 C 127 7 97 20 71 38 L 80 102 C 102 81 130 65 162 54 C 194 43 228 38 264 38 C 302 38 338 49 370 73 C 402 97 418 131 418 177 C 418 203 408 227 390 249 C 371 271 340 291 297 309 L 285 314 C 233 335 195 359 173 387 C 150 415 139 448 139 486 C 139 537 156 581 192 618 C 227 655 277 674 343 674 C 375 674 406 669 436 661 C 465 653 491 640 515 624 L 507 559 C 484 580 459 595 431 605 C 403 615 374 620 342 620 C 300 620 265 608 238 584 C 211 560 198 528 198 490 C 198 464 207 440 226 420 C 244 399 275 380 317 363 L 330 358 C 382 337 419 312 442 282 C 464 252 476 219 476 182 C 476 124 455 76 415 39 C 375 2 324 -16 262 -16 Z" unicode="$" />
<glyph horiz-adv-x="832" d="M 653 -8 C 608 -8 573 7 549 37 C 524 67 512 105 512 152 C 512 214 527 266 558 307 C 589 347 632 368 688 368 C 734 368 769 353 793 323 C 817 293 830 256 830 210 C 830 146 814 94 783 53 C 751 12 708 -8 653 -8 Z M 655 37 C 693 37 723 52 745 83 C 767 113 779 155 779 207 C 779 243 770 271 754 292 C 737 312 714 323 686 323 C 648 323 618 307 596 277 C 573 247 562 206 562 155 C 562 119 570 90 587 69 C 603 47 626 37 655 37 Z M 261 0 L 639 722 L 687 722 L 309 0 L 261 0 Z M 244 344 C 199 344 164 359 140 389 C 115 419 103 457 103 504 C 103 566 118 618 149 659 C 180 699 223 720 279 720 C 325 720 360 705 384 675 C 408 645 421 608 421 562 C 421 498 405 446 374 405 C 342 364 299 344 244 344 Z M 246 389 C 284 389 314 404 336 435 C 358 465 370 507 370 559 C 370 595 361 623 345 644 C 328 664 305 675 277 675 C 239 675 209 659 187 629 C 164 599 153 558 153 507 C 153 471 161 442 178 421 C 194 399 217 389 246 389 Z" unicode="%" />
<glyph horiz-adv-x="606" d="M 491 -111 C 462 -111 439 -102 422 -85 C 405 -68 399 -45 404 -16 L 413 52 L 426 106 C 408 68 383 38 351 18 C 319 -1 285 -12 250 -12 C 203 -12 163 2 130 30 C 96 58 80 98 80 151 C 80 193 94 233 122 269 C 150 305 190 329 242 341 C 210 352 185 371 167 397 C 149 423 140 453 140 488 C 140 547 160 594 201 628 C 242 662 294 679 358 679 C 382 679 407 676 434 671 C 461 665 488 656 516 644 L 509 589 C 485 601 460 611 434 618 C 408 624 383 628 358 628 C 307 628 267 614 239 587 C 210 560 196 526 196 486 C 196 451 208 422 233 398 C 257 374 291 362 333 362 L 458 362 L 478 506 L 533 506 L 513 362 L 633 362 L 626 313 L 506 313 L 462 2 C 459 -16 462 -31 470 -43 C 478 -55 491 -61 508 -61 C 519 -61 531 -58 544 -54 C 556 -50 567 -44 576 -38 L 569 -90 C 558 -96 545 -101 531 -105 C 516 -109 503 -111 491 -111 Z M 264 40 C 306 40 344 56 377 90 C 410 123 430 168 438 224 L 451 313 L 321 313 C 263 313 219 298 187 269 C 155 240 139 203 139 159 C 139 125 150 96 172 74 C 194 51 224 40 264 40 Z" unicode="&#x26;" />
<glyph horiz-adv-x="179" d="M 139 535 L 165 722 L 217 722 L 191 535 L 139 535 Z" unicode="'" />
<glyph horiz-adv-x="318" d="M 216 -218 C 179 -154 150 -87 130 -19 C 110 49 100 120 100 192 C 100 290 120 386 161 480 C 201 574 259 654 335 722 L 397 722 C 320 652 261 570 219 477 C 177 384 156 289 156 193 C 156 123 166 54 187 -14 C 207 -82 238 -150 278 -218 L 216 -218 Z" unicode="(" />
<glyph horiz-adv-x="318" d="M 113 508 L 117 508 C 165 476 202 444 227 411 C 252 377 265 344 265 312 C 265 274 257 236 241 198 C 225 160 202 124 174 92 C 162 78 149 65 135 53 C 121 41 105 29 89 19 C 83 15 77 11 71 7 C 65 3 58 0 52 -3 L 49 -3 C 55 0 62 3 69 7 C 76 11 83 15 89 19 C 105 29 121 41 135 53 C 149 65 162 78 174 92 C 200 123 221 158 236 197 C 250 235 258 274 258 312 C 258 346 245 380 220 414 C 195 448 159 479 113 508 Z" unicode=")" />
<glyph horiz-adv-x="548" d="M 165 56 L 121 92 L 275 259 L 83 315 L 110 373 L 294 301 L 314 508 L 375 508 L 337 300 L 542 373 L 553 315 L 345 259 L 453 92 L 398 56 L 307 234 L 165 56 Z" unicode="*" />
<glyph horiz-adv-x="493" d="M 219 71 L 246 264 L 60 264 L 67 313 L 254 313 L 281 506 L 331 506 L 304 313 L 489 313 L 482 264 L 296 264 L 269 71 L 219 71 Z" unicode="+" />
<glyph horiz-adv-x="142" d="M 25 -135 L -10 -115 C 6 -95 18 -75 27 -55 C 35 -35 41 -14 45 10 L 55 77 L 108 77 L 99 12 C 95 -14 87 -40 75 -66 C 63 -91 46 -114 25 -135 Z" unicode="," />
<glyph horiz-adv-x="351" d="M 65 206 L 72 255 L 352 255 L 345 206 L 65 206 Z" unicode="-" />
<glyph horiz-adv-x="153" d="M 45 0 L 54 63 L 117 63 L 108 0 L 45 0 Z" unicode="." />
<glyph horiz-adv-x="384" d="M 18 0 L 409 722 L 468 722 L 77 0 L 18 0 Z" unicode="/" />
<glyph horiz-adv-x="563" d="M 296 -13 C 237 -13 188 7 149 47 C 110 87 91 152 91 242 C 91 350 114 449 160 538 C 206 626 274 671 362 671 C 421 671 470 650 509 609 C 547 567 567 503 567 416 C 567 307 544 208 498 120 C 452 31 384 -13 296 -13 Z M 296 39 C 365 39 418 78 454 157 C 490 236 509 321 509 413 C 509 483 495 535 467 568 C 439 601 404 618 362 618 C 292 618 239 578 203 499 C 167 419 150 334 150 244 C 150 174 163 122 191 89 C 219 55 254 39 296 39 Z" unicode="0" />
<glyph horiz-adv-x="354" d="M 161 0 L 247 612 L 114 588 L 121 640 L 312 672 L 218 0 L 161 0 Z" unicode="1" />
<glyph horiz-adv-x="474" d="M 43 0 L 54 78 L 182 171 C 268 229 331 282 370 331 C 408 379 428 430 428 482 C 428 521 416 553 393 579 C 370 605 339 618 299 618 C 265 618 234 612 206 602 C 178 591 151 575 123 555 L 131 617 C 159 635 187 649 215 657 C 243 665 272 670 304 670 C 358 670 402 653 436 620 C 470 587 488 543 488 487 C 488 426 467 368 425 314 C 383 259 318 202 229 142 L 108 57 L 439 57 L 431 0 L 43 0 Z" unicode="2" />
<glyph horiz-adv-x="471" d="M 231 -12 C 190 -12 154 -6 124 4 C 94 14 66 31 42 53 L 51 116 C 73 90 100 71 131 59 C 161 46 195 40 231 40 C 278 40 317 52 347 78 C 377 104 392 138 392 181 C 392 222 377 254 349 276 C 321 298 280 310 226 310 L 196 310 L 203 363 L 230 363 C 284 363 330 376 368 403 C 406 430 425 466 425 511 C 425 546 414 573 394 591 C 374 609 345 618 308 618 C 278 618 248 612 220 602 C 191 591 164 576 138 556 L 146 617 C 173 634 201 647 229 656 C 257 665 286 670 316 670 C 370 670 411 656 440 630 C 468 604 483 566 483 518 C 483 476 467 438 437 404 C 407 370 367 347 319 337 C 357 331 388 314 412 287 C 436 259 449 224 449 180 C 449 124 429 78 390 42 C 350 6 297 -12 231 -12 Z" unicode="3" />
<glyph horiz-adv-x="535" d="M 340 0 L 366 183 L 69 183 L 75 226 L 430 670 L 491 670 L 430 234 L 530 234 L 523 183 L 423 183 L 397 0 L 340 0 Z M 373 234 L 422 581 L 145 234 L 373 234 Z" unicode="4" />
<glyph horiz-adv-x="480" d="M 216 -12 C 180 -12 148 -6 120 4 C 92 14 66 31 44 53 L 53 116 C 73 91 97 72 125 60 C 152 47 184 41 220 41 C 272 41 314 56 348 87 C 381 117 398 156 398 204 C 398 246 384 280 357 304 C 330 328 293 341 247 341 C 222 341 196 339 170 335 C 143 331 118 325 96 319 L 167 658 L 491 658 L 483 603 L 209 603 L 163 381 C 177 385 193 388 211 390 C 229 392 245 393 261 393 C 321 393 368 376 404 343 C 440 310 458 266 458 210 C 458 145 435 92 390 50 C 344 8 286 -12 216 -12 Z" unicode="5" />
<glyph horiz-adv-x="509" d="M 267 -12 C 207 -12 159 7 125 46 C 90 84 73 138 73 207 C 73 347 103 460 164 544 C 225 628 302 670 395 670 C 417 670 439 667 462 662 C 484 657 505 651 523 644 L 515 586 C 498 594 478 602 456 608 C 434 614 413 618 394 618 C 326 618 270 589 224 533 C 178 476 149 401 137 308 C 155 342 180 368 214 388 C 247 407 282 417 319 417 C 371 417 413 400 447 367 C 480 334 497 289 497 232 C 497 161 475 103 431 57 C 387 11 333 -12 267 -12 Z M 268 39 C 317 39 358 57 390 93 C 422 129 439 173 439 227 C 439 267 427 301 404 327 C 380 353 349 367 310 367 C 268 367 228 350 190 318 C 152 285 132 244 130 194 C 129 150 141 113 167 83 C 193 53 226 39 268 39 Z" unicode="6" />
<glyph horiz-adv-x="459" d="M 131 0 L 438 603 L 122 603 L 129 658 L 511 658 L 506 620 L 191 0 L 131 0 Z" unicode="7" />
<glyph horiz-adv-x="509" d="M 267 -13 C 209 -13 163 2 131 32 C 98 62 82 100 82 146 C 81 188 95 226 123 260 C 151 294 190 321 238 340 C 205 357 179 378 161 404 C 142 430 133 458 133 490 C 132 542 151 586 190 620 C 228 654 277 671 335 671 C 387 671 429 656 460 627 C 490 597 506 563 506 524 C 506 485 493 450 468 420 C 442 389 405 364 357 346 C 397 326 427 301 447 273 C 467 245 478 214 478 180 C 478 124 458 77 418 41 C 378 5 327 -13 267 -13 Z M 294 373 L 306 368 C 353 384 388 404 412 430 C 435 456 447 485 447 518 C 446 546 435 570 415 590 C 394 610 366 620 332 620 C 292 620 258 607 231 583 C 204 559 191 529 192 493 C 192 467 201 444 220 423 C 238 402 263 385 294 373 Z M 143 152 C 143 118 154 90 178 69 C 201 48 232 38 270 38 C 312 38 348 51 376 77 C 404 103 419 137 419 177 C 419 207 408 233 388 256 C 368 278 338 297 300 313 L 290 317 C 246 302 210 280 183 250 C 156 220 143 188 143 152 Z" unicode="8" />
<glyph horiz-adv-x="526" d="M 203 -12 C 181 -12 159 -9 136 -4 C 113 0 93 6 75 14 L 83 73 C 99 63 119 55 141 49 C 163 43 185 40 205 40 C 272 40 329 68 375 125 C 421 181 450 256 462 350 C 444 315 418 288 385 269 C 351 250 316 241 279 241 C 227 241 184 257 151 290 C 117 323 101 368 101 425 C 101 494 123 552 168 599 C 212 646 268 670 336 670 C 394 670 440 650 474 612 C 508 573 525 519 525 451 C 525 310 494 198 434 114 C 373 30 296 -12 203 -12 Z M 288 292 C 330 292 369 308 407 340 C 445 372 465 414 468 464 C 468 508 456 544 432 574 C 407 604 375 619 335 619 C 285 619 243 601 210 565 C 176 529 160 484 160 430 C 160 390 171 357 194 331 C 217 305 248 292 288 292 Z" unicode="9" />
<glyph horiz-adv-x="154" d="M 45 0 L 54 63 L 117 63 L 108 0 L 45 0 Z M 90 309 L 99 372 L 162 372 L 153 309 L 90 309 Z" unicode=":" />
<glyph horiz-adv-x="151" d="M 25 -135 L -10 -115 C 6 -95 18 -75 27 -55 C 35 -35 41 -14 45 10 L 55 77 L 108 77 L 99 12 C 95 -14 87 -40 75 -66 C 63 -91 46 -114 25 -135 Z M 88 309 L 97 372 L 160 372 L 151 309 L 88 309 Z" unicode=";" />
<glyph horiz-adv-x="446" d="M 313 81 L 104 283 L 371 485 L 450 485 L 180 282 L 389 81 L 313 81 Z" unicode="&#x3C;" />
<glyph horiz-adv-x="502" d="M 71 334 L 78 383 L 507 383 L 500 334 L 71 334 Z M 50 189 L 57 237 L 486 237 L 479 189 L 50 189 Z" unicode="=" />
<glyph horiz-adv-x="359" d="M 27 81 L 296 283 L 88 485 L 163 485 L 373 283 L 106 81 L 27 81 Z" unicode="&#x3E;" />
<glyph horiz-adv-x="405" d="M 180 177 C 186 226 199 267 217 301 C 235 335 264 370 302 406 C 335 438 359 467 375 495 C 391 522 399 549 399 576 C 399 608 389 633 369 652 C 349 670 321 680 283 680 C 255 680 226 675 198 666 C 170 656 144 643 122 625 L 132 687 C 154 700 180 711 208 719 C 236 727 264 731 293 731 C 343 731 382 718 412 692 C 442 666 457 630 457 583 C 457 549 446 515 426 481 C 406 447 378 413 342 378 C 308 344 282 313 266 284 C 249 254 238 219 232 177 L 180 177 Z M 151 0 L 160 61 L 221 61 L 212 0 L 151 0 Z" unicode="?" />
<glyph horiz-adv-x="777" d="M 375 -70 C 289 -70 218 -41 161 14 C 103 70 75 142 75 230 C 75 351 112 447 188 518 C 264 589 358 625 471 625 C 559 625 632 599 691 547 C 750 495 780 426 780 341 C 780 267 765 210 735 169 C 705 127 668 107 624 107 C 596 107 571 114 551 130 C 531 146 517 172 511 208 C 496 170 475 143 448 129 C 421 114 396 107 374 107 C 337 107 307 119 285 143 C 263 167 252 199 252 240 C 252 303 272 355 314 396 C 355 437 407 458 469 458 C 483 458 499 456 517 454 C 535 452 552 449 569 445 L 547 272 C 542 234 546 203 560 181 C 573 158 595 147 626 147 C 659 147 686 165 706 201 C 726 237 736 283 736 340 C 736 407 712 464 664 512 C 616 560 552 584 471 584 C 362 584 276 550 213 482 C 150 414 119 330 119 230 C 119 156 143 95 191 45 C 239 -4 301 -29 375 -29 C 407 -29 438 -25 469 -18 C 499 -10 528 0 556 13 L 553 -33 C 524 -45 495 -55 465 -61 C 435 -67 405 -70 375 -70 Z M 380 148 C 403 148 428 159 455 182 C 481 205 501 264 514 358 L 521 412 C 513 414 504 415 495 416 C 485 417 475 418 465 418 C 416 418 376 401 344 368 C 312 334 296 293 296 243 C 296 214 303 191 318 174 C 333 156 354 148 380 148 Z" unicode="@" />
<glyph horiz-adv-x="614" d="M 18 0 L 373 667 L 428 667 L 596 0 L 537 0 L 482 224 L 194 224 L 76 0 L 18 0 Z M 364 545 L 221 275 L 469 275 L 402 545 L 390 597 L 364 545 Z" unicode="A" />
<glyph horiz-adv-x="523" d="M 79 0 L 171 658 L 330 658 C 392 658 438 643 468 615 C 498 587 513 550 513 506 C 513 467 501 431 479 398 C 456 364 418 343 365 335 C 413 328 448 311 468 283 C 488 255 498 225 498 192 C 498 136 478 90 438 54 C 398 18 339 0 261 0 L 79 0 Z M 186 359 L 287 359 C 339 359 380 370 410 394 C 440 418 455 452 455 497 C 455 532 443 559 421 578 C 399 597 367 607 325 607 L 221 607 L 186 359 Z M 143 51 L 267 51 C 321 51 364 63 394 88 C 424 113 440 147 440 191 C 440 228 427 257 402 278 C 376 299 339 310 290 310 L 179 310 L 143 51 Z" unicode="B" />
<glyph horiz-adv-x="669" d="M 419 -13 C 319 -13 241 15 183 73 C 125 131 97 203 97 289 C 97 397 134 488 208 561 C 282 634 377 671 492 671 C 527 671 563 666 599 657 C 635 648 670 635 705 618 L 698 560 C 666 578 632 593 597 603 C 562 613 526 619 489 619 C 392 619 312 587 250 525 C 187 463 156 385 156 291 C 156 216 180 155 230 109 C 279 63 343 40 423 40 C 461 40 498 45 534 55 C 570 65 605 81 641 101 L 632 41 C 596 22 561 8 526 0 C 490 -8 455 -13 419 -13 Z" unicode="C" />
<glyph horiz-adv-x="696" d="M 79 0 L 171 658 L 362 658 C 463 658 543 631 603 578 C 662 524 692 456 692 374 C 692 266 653 177 576 106 C 499 35 396 0 268 0 L 79 0 Z M 144 53 L 273 53 C 383 53 471 83 536 144 C 600 204 633 280 633 372 C 633 440 608 495 559 539 C 509 583 443 605 360 605 L 221 605 L 144 53 Z" unicode="D" />
<glyph horiz-adv-x="492" d="M 79 0 L 171 658 L 510 658 L 502 605 L 220 605 L 186 360 L 461 360 L 453 307 L 179 307 L 143 53 L 443 53 L 435 0 L 79 0 Z" unicode="E" />
<glyph horiz-adv-x="448" d="M 79 0 L 171 658 L 505 658 L 497 605 L 220 605 L 186 360 L 452 360 L 444 307 L 179 307 L 136 0 L 79 0 Z" unicode="F" />
<glyph horiz-adv-x="687" d="M 411 -13 C 314 -13 237 15 181 72 C 125 128 97 200 97 287 C 97 401 133 494 207 565 C 281 635 372 671 482 671 C 520 671 556 667 590 659 C 624 651 656 639 687 625 L 680 569 C 649 585 617 598 584 606 C 551 614 516 619 480 619 C 386 619 308 588 247 527 C 186 466 156 387 156 289 C 156 215 180 155 229 109 C 277 63 339 40 414 40 C 442 40 471 42 499 48 C 527 53 554 63 580 77 L 606 268 L 467 268 L 474 321 L 671 321 L 632 41 C 594 21 556 7 517 -1 C 477 -9 442 -13 411 -13 Z" unicode="G" />
<glyph horiz-adv-x="684" d="M 79 0 L 171 658 L 228 658 L 187 364 L 598 364 L 639 658 L 697 658 L 605 0 L 547 0 L 592 312 L 180 312 L 136 0 L 79 0 Z" unicode="H" />
<glyph horiz-adv-x="215" d="M 79 0 L 171 658 L 228 658 L 136 0 L 79 0 Z" unicode="I" />
<glyph horiz-adv-x="227" d="M -34 -218 L -42 -218 L -35 -165 L -27 -165 C 2 -165 26 -156 45 -140 C 64 -124 76 -99 81 -66 L 183 658 L 240 658 L 139 -66 C 131 -117 112 -155 81 -180 C 50 -205 12 -218 -34 -218 Z" unicode="J" />
<glyph horiz-adv-x="531" d="M 79 0 L 171 658 L 228 658 L 185 353 L 523 658 L 596 658 L 238 335 L 515 0 L 443 0 L 181 320 L 136 0 L 79 0 Z" unicode="K" />
<glyph horiz-adv-x="451" d="M 79 0 L 171 658 L 228 658 L 144 53 L 438 53 L 431 0 L 79 0 Z" unicode="L" />
<glyph horiz-adv-x="751" d="M 79 0 L 171 658 L 251 658 L 384 246 L 399 189 L 430 246 L 680 658 L 764 658 L 672 0 L 615 0 L 690 537 L 699 593 L 667 537 L 418 125 L 364 125 L 230 537 L 214 593 L 207 537 L 132 0 L 79 0 Z" unicode="M" />
<glyph horiz-adv-x="707" d="M 79 0 L 171 658 L 233 658 L 560 123 L 586 77 L 592 123 L 667 658 L 720 658 L 628 0 L 567 0 L 239 537 L 213 582 L 207 537 L 132 0 L 79 0 Z" unicode="N" />
<glyph horiz-adv-x="770" d="M 401 -14 C 308 -14 234 14 179 71 C 124 127 97 199 97 287 C 97 395 130 486 196 560 C 262 634 350 672 461 672 C 553 672 627 643 683 587 C 738 530 766 458 766 370 C 766 263 732 172 666 98 C 599 23 511 -14 401 -14 Z M 402 38 C 491 38 564 69 621 132 C 678 194 707 273 707 369 C 707 439 685 498 641 547 C 597 595 537 620 461 620 C 371 620 297 588 241 526 C 184 464 156 385 156 289 C 156 219 177 159 221 111 C 265 62 325 38 402 38 Z" unicode="O" />
<glyph horiz-adv-x="470" d="M 79 0 L 171 658 L 281 658 C 345 658 396 641 434 609 C 472 576 491 530 491 472 C 491 405 468 351 424 310 C 379 268 318 248 242 248 L 170 248 L 136 0 L 79 0 Z M 177 300 L 245 300 C 302 300 348 315 382 346 C 416 376 433 417 433 468 C 433 509 419 542 393 568 C 367 593 328 606 278 606 L 220 606 L 177 300 Z" unicode="P" />
<glyph horiz-adv-x="772" d="M 676 -137 C 622 -122 573 -102 530 -78 C 486 -54 449 -25 419 8 L 474 38 C 500 11 530 -11 565 -31 C 599 -50 641 -67 689 -81 L 676 -137 Z M 401 -14 C 308 -14 234 14 179 71 C 124 127 97 199 97 287 C 97 395 130 486 196 560 C 262 634 350 672 461 672 C 553 672 627 643 683 587 C 738 530 766 458 766 370 C 766 263 732 172 666 98 C 599 23 511 -14 401 -14 Z M 402 38 C 491 38 564 69 621 132 C 678 194 707 273 707 369 C 707 439 685 498 641 547 C 597 595 537 620 461 620 C 371 620 297 588 241 526 C 184 464 156 385 156 289 C 156 219 177 159 221 111 C 265 62 325 38 402 38 Z" unicode="Q" />
<glyph horiz-adv-x="504" d="M 80 0 L 171 658 L 308 658 C 362 658 404 644 435 617 C 465 589 481 552 481 505 C 481 455 465 413 435 381 C 405 348 366 328 318 321 C 336 314 350 304 362 290 C 373 276 382 259 389 239 L 480 0 L 420 0 L 335 225 C 326 249 314 268 300 282 C 285 296 266 303 242 303 L 179 303 L 136 0 L 80 0 Z M 185 353 L 269 353 C 315 353 351 366 379 394 C 406 422 420 456 420 497 C 420 530 409 557 389 577 C 368 597 340 607 304 607 L 221 607 L 185 353 Z" unicode="R" />
<glyph horiz-adv-x="506" d="M 257 -16 C 221 -16 187 -11 155 -2 C 122 7 92 20 66 38 L 75 102 C 97 81 125 65 157 54 C 189 43 223 38 259 38 C 297 38 333 49 365 73 C 397 97 413 131 413 177 C 413 203 403 227 385 249 C 366 271 335 291 292 309 L 280 314 C 228 335 190 359 168 387 C 145 415 134 448 134 486 C 134 537 151 581 187 618 C 222 655 272 674 338 674 C 370 674 401 669 431 661 C 460 653 486 640 510 624 L 502 559 C 479 580 454 595 426 605 C 398 615 369 620 337 620 C 295 620 260 608 233 584 C 206 560 193 528 193 490 C 193 464 202 440 221 420 C 239 399 270 380 312 363 L 325 358 C 377 337 414 312 437 282 C 459 252 471 219 471 182 C 471 124 450 76 410 39 C 370 2 319 -16 257 -16 Z" unicode="S" />
<glyph horiz-adv-x="543" d="M 243 0 L 328 605 L 105 605 L 112 658 L 615 658 L 607 605 L 385 605 L 300 0 L 243 0 Z" unicode="T" />
<glyph horiz-adv-x="670" d="M 346 -12 C 260 -12 196 11 154 59 C 112 106 97 169 109 249 L 166 658 L 223 658 L 166 248 C 157 183 168 132 200 96 C 231 60 280 42 348 42 C 408 42 459 60 501 98 C 543 136 568 186 577 248 L 635 658 L 687 658 L 630 247 C 618 165 586 102 534 56 C 482 10 419 -12 346 -12 Z" unicode="U" />
<glyph horiz-adv-x="604" d="M 274 0 L 100 658 L 160 658 L 300 121 L 312 71 L 338 121 L 630 658 L 688 658 L 329 0 L 274 0 Z" unicode="V" />
<glyph horiz-adv-x="907" d="M 215 0 L 100 658 L 158 658 L 250 121 L 256 75 L 275 121 L 517 658 L 577 658 L 668 121 L 673 77 L 691 121 L 933 658 L 991 658 L 691 0 L 633 0 L 541 538 L 535 580 L 518 538 L 275 0 L 215 0 Z" unicode="W" />
<glyph horiz-adv-x="563" d="M 16 0 L 294 339 L 120 658 L 186 658 L 313 423 L 334 382 L 366 423 L 558 658 L 626 658 L 361 337 L 547 0 L 481 0 L 343 256 L 323 293 L 292 256 L 85 0 L 16 0 Z" unicode="X" />
<glyph horiz-adv-x="561" d="M 251 0 L 292 294 L 104 658 L 168 658 L 308 390 L 328 345 L 362 390 L 575 658 L 641 658 L 349 291 L 308 0 L 251 0 Z" unicode="Y" />
<glyph horiz-adv-x="575" d="M 52 0 L 57 32 L 490 567 L 522 605 L 137 605 L 145 658 L 616 658 L 612 628 L 177 91 L 146 53 L 532 53 L 525 0 L 52 0 Z" unicode="Z" />
<glyph horiz-adv-x="331" d="M 50 -218 L 183 722 L 372 722 L 365 674 L 231 674 L 112 -169 L 247 -169 L 240 -218 L 50 -218 Z" unicode="[" />
<glyph horiz-adv-x="458" d="M 389 0 L 117 722 L 171 722 L 443 0 L 389 0 Z" unicode="\" />
<glyph horiz-adv-x="323" d="M 22 -218 L 29 -169 L 163 -169 L 282 674 L 147 674 L 154 722 L 344 722 L 211 -218 L 22 -218 Z" unicode="]" />
<glyph horiz-adv-x="377" d="M 139 524 L 257 650 L 300 650 L 382 524 L 328 524 L 273 606 L 196 524 L 139 524 Z" unicode="^" />
<glyph horiz-adv-x="385" d="M -31 -218 L -24 -168 L 361 -168 L 354 -218 L -31 -218 Z" unicode="_" />
<glyph horiz-adv-x="238" d="M 217 736 L 122 867 L 186 867 L 277 736 L 217 736 Z" unicode="`" />
<glyph horiz-adv-x="513" d="M 232 -10 C 185 -10 146 7 114 42 C 82 76 67 121 67 177 C 67 259 95 329 151 387 C 207 445 274 474 354 474 C 377 474 401 472 426 468 C 451 464 476 459 502 451 L 455 118 C 452 97 450 77 448 58 C 446 39 445 20 445 0 L 391 0 C 391 14 391 30 393 46 C 394 62 395 78 397 93 L 401 125 C 383 75 358 40 326 20 C 294 0 263 -10 232 -10 Z M 242 40 C 273 40 308 57 346 92 C 384 126 412 208 430 337 L 440 412 C 426 416 411 419 396 421 C 381 423 365 424 349 424 C 287 424 233 400 189 352 C 145 304 123 247 123 181 C 123 135 135 100 159 76 C 183 52 211 40 242 40 Z" unicode="a" />
<glyph horiz-adv-x="516" d="M 233 -10 C 208 -10 182 -8 156 -5 C 129 -2 101 2 73 9 L 173 722 L 229 722 L 180 381 L 170 327 C 188 383 214 421 246 442 C 278 463 310 474 344 474 C 390 474 429 456 461 422 C 492 388 508 344 508 290 C 508 206 481 135 427 77 C 373 19 308 -10 233 -10 Z M 237 40 C 295 40 345 63 388 111 C 430 159 452 216 452 284 C 452 324 440 358 418 384 C 396 410 367 424 332 424 C 299 424 264 406 228 372 C 191 337 163 255 145 127 L 134 50 C 148 47 165 45 183 43 C 201 41 219 40 237 40 Z" unicode="b" />
<glyph horiz-adv-x="471" d="M 285 -10 C 221 -10 170 8 133 46 C 95 83 77 132 77 194 C 77 275 101 342 150 395 C 198 447 260 474 336 474 C 364 474 390 470 414 463 C 437 455 460 445 484 433 L 476 375 C 453 391 431 403 409 411 C 387 419 361 423 333 423 C 273 423 224 401 187 359 C 150 317 132 263 132 198 C 132 150 146 112 175 84 C 203 55 242 41 290 41 C 316 41 342 45 366 53 C 390 61 414 73 436 90 L 428 32 C 405 17 382 6 358 0 C 334 -6 309 -10 285 -10 Z" unicode="c" />
<glyph horiz-adv-x="520" d="M 239 -10 C 191 -10 152 7 121 42 C 89 76 74 121 74 177 C 74 259 101 329 156 387 C 210 445 275 474 350 474 C 366 474 383 472 401 468 C 418 464 435 457 452 449 L 491 722 L 547 722 L 462 118 C 459 97 457 77 455 58 C 453 39 452 20 452 0 L 397 0 C 397 14 397 30 399 46 C 401 62 402 77 404 93 L 407 125 C 389 75 365 40 333 20 C 301 0 269 -10 239 -10 Z M 249 40 C 279 40 314 57 352 91 C 390 125 418 207 437 337 L 445 397 C 430 405 414 412 397 417 C 380 421 362 424 344 424 C 287 424 237 400 194 352 C 150 304 129 247 129 181 C 129 135 141 100 166 76 C 190 52 218 40 249 40 Z" unicode="d" />
<glyph horiz-adv-x="479" d="M 281 -10 C 217 -10 167 9 131 48 C 95 87 78 139 78 205 C 78 281 101 345 147 397 C 193 448 250 474 319 474 C 363 474 398 463 424 441 C 450 419 464 392 464 358 C 464 310 444 275 404 252 C 364 228 300 214 212 208 L 135 204 C 134 152 147 111 174 82 C 200 53 238 39 286 39 C 315 39 342 44 368 54 C 394 64 419 80 444 102 L 435 40 C 411 22 386 9 362 1 C 337 -6 310 -10 281 -10 Z M 315 425 C 268 425 228 407 195 372 C 162 336 143 295 137 247 L 214 252 C 281 256 330 267 361 283 C 391 299 407 323 407 356 C 407 376 398 393 382 406 C 366 418 343 425 315 425 Z" unicode="e" />
<glyph horiz-adv-x="253" d="M 92 0 L 151 414 L 76 414 L 83 464 L 158 464 L 172 567 C 178 616 197 656 228 686 C 258 716 297 732 343 732 C 359 732 376 729 395 725 C 414 720 431 714 445 706 L 437 651 C 424 659 409 666 392 672 C 374 677 358 680 344 680 C 312 680 285 669 265 649 C 244 628 231 601 227 567 L 213 464 L 301 464 L 294 414 L 206 414 L 147 0 L 92 0 Z" unicode="f" />
<glyph horiz-adv-x="513" d="M 211 -226 C 179 -226 150 -222 122 -216 C 94 -209 67 -199 41 -187 L 49 -130 C 73 -145 98 -156 126 -164 C 154 -172 182 -176 211 -176 C 255 -176 293 -162 326 -135 C 359 -107 380 -60 390 8 L 407 125 C 388 74 363 39 332 19 C 300 0 269 -10 238 -10 C 191 -10 152 7 120 42 C 88 76 73 121 73 177 C 73 259 101 329 157 387 C 213 445 280 474 360 474 C 383 474 407 472 432 468 C 457 464 482 459 508 451 L 446 11 C 434 -73 407 -133 365 -170 C 323 -207 271 -226 211 -226 Z M 248 40 C 279 40 313 57 351 91 C 389 125 417 207 436 337 L 447 412 C 433 416 418 419 403 421 C 387 423 371 424 355 424 C 293 424 239 400 195 352 C 151 304 129 247 129 181 C 129 135 141 100 165 76 C 189 52 217 40 248 40 Z" unicode="g" />
<glyph horiz-adv-x="502" d="M 71 0 L 173 722 L 229 722 L 192 463 C 189 443 186 422 183 400 C 179 378 176 357 172 336 C 191 387 216 423 248 443 C 279 463 310 474 340 474 C 386 474 422 458 449 426 C 475 394 484 352 475 298 L 443 127 C 439 104 436 83 435 63 C 433 43 433 22 433 0 L 377 0 C 377 21 377 42 379 63 C 381 83 384 105 388 127 L 418 288 C 426 332 421 365 402 389 C 383 412 357 424 325 424 C 296 424 263 407 227 374 C 190 340 163 259 145 131 L 127 0 L 71 0 Z" unicode="h" />
<glyph horiz-adv-x="206" d="M 159 618 L 167 678 L 228 678 L 220 618 L 159 618 Z M 82 0 C 82 21 83 42 85 64 C 87 86 89 106 92 126 L 140 464 L 195 464 L 147 126 C 144 106 142 85 140 63 C 138 41 137 20 137 0 L 82 0 Z" unicode="i" />
<glyph horiz-adv-x="195" d="M 153 635 L 161 695 L 222 695 L 214 635 L 153 635 Z M -57 -218 L -65 -218 L -58 -167 L -50 -167 C -20 -167 4 -157 24 -137 C 44 -117 56 -90 61 -56 L 134 464 L 189 464 L 116 -56 C 108 -110 89 -150 59 -177 C 28 -204 -10 -218 -57 -218 Z" unicode="j" />
<glyph horiz-adv-x="444" d="M 71 0 L 173 722 L 229 722 L 163 256 C 212 288 257 321 299 355 C 341 389 378 426 410 464 L 474 464 C 435 416 396 375 356 341 C 316 306 271 273 221 242 L 427 0 L 359 0 L 160 236 L 127 0 L 71 0 Z" unicode="k" />
<glyph horiz-adv-x="202" d="M 81 0 C 81 21 81 44 83 68 C 85 92 87 113 90 133 L 174 722 L 229 722 L 146 127 C 143 106 140 85 138 64 C 136 42 135 21 136 0 L 81 0 Z" unicode="l" />
<glyph horiz-adv-x="809" d="M 75 0 L 124 353 C 127 373 129 393 131 411 C 133 429 134 447 134 464 L 188 464 C 188 450 187 434 187 417 C 186 400 184 384 182 370 L 176 336 C 195 387 220 423 251 443 C 281 463 312 474 342 474 C 376 474 406 463 434 442 C 461 421 475 387 476 339 C 498 392 526 428 559 446 C 592 464 622 474 648 474 C 694 474 730 458 756 427 C 782 396 790 353 781 298 L 752 127 C 748 104 745 82 743 62 C 741 42 740 21 740 0 L 686 0 C 686 21 686 42 688 63 C 690 83 693 105 697 127 L 724 288 C 731 329 726 362 710 386 C 693 410 667 423 633 423 C 587 423 548 398 517 349 C 486 300 464 227 452 131 L 433 0 L 378 0 L 418 288 C 424 330 418 363 402 387 C 385 411 360 423 326 423 C 280 423 242 398 212 349 C 182 300 161 227 148 131 L 130 0 L 75 0 Z" unicode="m" />
<glyph horiz-adv-x="496" d="M 75 0 L 124 353 C 127 373 129 393 131 411 C 133 429 134 447 134 464 L 188 464 C 188 450 187 434 186 416 C 185 398 184 382 182 370 L 177 336 C 195 387 219 423 249 443 C 278 463 307 474 336 474 C 385 474 421 457 445 424 C 469 390 476 348 468 298 L 438 127 C 434 104 431 83 430 63 C 428 43 428 22 428 0 L 373 0 C 373 21 373 42 374 63 C 375 83 378 105 382 127 L 411 288 C 418 329 413 362 396 386 C 378 410 353 423 321 423 C 292 423 260 405 226 371 C 191 336 165 256 148 131 L 130 0 L 75 0 Z" unicode="n" />
<glyph horiz-adv-x="534" d="M 284 -10 C 223 -10 173 9 135 47 C 96 85 77 135 77 199 C 77 276 100 341 146 394 C 192 447 248 474 316 474 C 377 474 427 455 465 417 C 503 379 523 328 523 265 C 523 187 500 122 454 69 C 408 16 351 -10 284 -10 Z M 285 40 C 336 40 379 61 414 104 C 449 146 467 199 467 262 C 467 311 453 350 425 380 C 397 409 361 424 315 424 C 263 424 219 402 184 360 C 149 317 132 264 132 202 C 132 152 146 113 174 84 C 202 54 239 40 285 40 Z" unicode="o" />
<glyph horiz-adv-x="521" d="M 45 -218 L 125 350 C 127 372 129 392 131 410 C 133 428 134 446 134 464 L 188 464 C 188 449 187 433 186 417 C 185 400 183 384 181 370 L 175 326 C 193 383 218 422 250 443 C 282 463 315 474 348 474 C 394 474 433 456 465 422 C 496 387 512 342 512 286 C 512 204 486 134 436 76 C 385 18 320 -10 241 -10 C 220 -10 201 -8 184 -5 C 166 -1 149 4 133 12 L 101 -218 L 45 -218 Z M 244 39 C 306 39 357 62 397 110 C 437 158 457 215 457 281 C 457 327 444 362 420 387 C 396 411 368 424 337 424 C 306 424 272 407 234 375 C 196 343 168 260 150 126 L 141 61 C 157 53 173 47 190 44 C 206 40 224 39 244 39 Z" unicode="p" />
<glyph horiz-adv-x="507" d="M 359 -218 L 407 125 C 389 75 365 40 333 20 C 301 0 270 -10 239 -10 C 191 -10 152 7 121 42 C 89 76 74 121 74 177 C 74 259 102 329 158 387 C 214 445 281 474 361 474 C 383 474 407 472 432 468 C 456 464 482 458 508 451 L 414 -218 L 359 -218 Z M 249 40 C 279 40 314 57 353 92 C 391 126 419 208 437 337 L 447 411 C 430 415 415 419 401 421 C 387 423 372 424 356 424 C 294 424 240 400 196 352 C 151 304 129 247 129 181 C 129 135 141 100 166 76 C 190 52 218 40 249 40 Z" unicode="q" />
<glyph horiz-adv-x="318" d="M 75 0 L 124 353 C 126 371 129 390 131 408 C 133 426 134 445 134 464 L 188 464 C 188 450 187 434 187 418 C 186 401 184 385 182 370 L 177 336 C 195 388 217 424 243 444 C 269 464 295 474 320 474 C 328 474 336 473 346 471 C 356 469 365 467 374 465 L 366 407 C 357 410 348 413 339 415 C 329 417 320 418 312 418 C 293 418 266 403 230 374 C 194 345 166 264 148 131 L 130 0 L 75 0 Z" unicode="r" />
<glyph horiz-adv-x="381" d="M 188 -10 C 167 -10 144 -6 118 0 C 92 6 70 15 52 26 L 60 80 C 76 67 97 57 121 49 C 145 41 168 37 190 38 C 220 38 246 45 266 60 C 286 74 296 95 296 122 C 296 141 289 158 276 172 C 262 186 240 199 210 212 L 196 218 C 162 231 137 248 121 268 C 105 288 97 313 97 343 C 97 381 111 412 139 437 C 167 461 206 474 254 474 C 272 474 294 471 318 465 C 342 459 363 452 381 444 L 373 390 C 358 400 339 409 316 416 C 293 422 272 426 254 426 C 225 426 201 419 181 405 C 161 391 152 372 152 348 C 152 329 157 313 169 301 C 180 288 199 277 225 267 L 238 261 C 277 245 306 226 324 205 C 342 184 351 158 351 128 C 351 88 336 55 307 29 C 277 3 238 -10 188 -10 Z" unicode="s" />
<glyph horiz-adv-x="297" d="M 189 -9 C 157 -9 133 0 118 19 C 102 38 97 65 102 101 L 146 413 L 74 413 L 81 464 L 154 464 L 175 617 L 231 617 L 209 464 L 328 464 L 321 413 L 201 413 L 158 105 C 155 83 158 67 166 57 C 174 47 186 42 204 42 C 215 42 226 43 238 47 C 249 51 260 56 272 64 L 265 12 C 253 5 240 0 227 -3 C 214 -7 201 -9 189 -9 Z" unicode="t" />
<glyph horiz-adv-x="504" d="M 228 -12 C 182 -12 146 4 120 36 C 94 68 85 111 94 166 L 122 340 C 126 363 129 384 131 404 C 133 423 134 443 134 464 L 189 464 C 189 442 188 422 186 402 C 184 382 181 361 178 339 L 151 176 C 143 131 149 97 167 74 C 185 50 210 39 243 39 C 272 39 304 56 340 90 C 376 124 403 205 421 333 L 439 464 L 495 464 L 445 112 C 442 91 440 71 439 53 C 437 34 437 16 437 0 L 382 0 C 382 14 382 29 383 46 C 383 62 385 78 388 93 L 393 127 C 374 75 349 39 318 19 C 287 -1 257 -12 228 -12 Z" unicode="u" />
<glyph horiz-adv-x="424" d="M 184 0 L 86 464 L 144 464 L 217 110 L 224 64 C 259 118 292 177 323 242 C 354 306 384 380 412 464 L 468 464 C 431 362 394 274 356 200 C 318 126 278 59 237 0 L 184 0 Z" unicode="v" />
<glyph horiz-adv-x="709" d="M 176 0 L 86 464 L 143 464 L 212 110 L 218 65 C 249 123 280 185 310 252 C 340 318 370 389 398 464 L 453 464 L 524 110 L 531 66 C 563 126 593 189 621 256 C 649 323 676 392 700 464 L 753 464 C 725 380 694 299 659 221 C 623 143 586 69 546 0 L 491 0 L 422 344 L 416 384 C 388 312 358 244 327 180 C 296 116 264 56 232 0 L 176 0 Z" unicode="w" />
<glyph horiz-adv-x="423" d="M 17 0 L 218 239 L 99 464 L 160 464 L 236 321 L 254 282 L 285 321 L 404 464 L 467 464 L 279 239 L 406 0 L 344 0 L 259 162 L 243 196 L 216 162 L 81 0 L 17 0 Z" unicode="x" />
<glyph horiz-adv-x="472" d="M -27 -218 L -35 -218 L -28 -167 L -20 -167 C 28 -167 74 -153 119 -126 C 164 -99 202 -65 232 -23 L 113 464 L 172 464 L 257 110 L 274 26 C 310 87 343 155 374 230 C 404 304 432 382 456 464 L 513 464 C 437 225 356 52 269 -56 C 182 -164 83 -218 -27 -218 Z" unicode="y" />
<glyph horiz-adv-x="428" d="M 43 0 L 47 35 L 335 383 L 361 413 L 106 413 L 113 464 L 447 464 L 442 428 L 155 80 L 129 51 L 393 51 L 386 0 L 43 0 Z" unicode="z" />
<glyph horiz-adv-x="410" d="M 321 -218 C 255 -218 206 -202 176 -171 C 146 -139 137 -92 151 -28 L 175 90 C 182 128 176 159 157 181 C 138 203 108 218 66 225 L 74 280 C 118 286 152 301 178 323 C 203 345 217 376 220 415 L 228 532 C 232 596 254 643 293 675 C 332 706 385 722 451 722 L 478 722 L 471 673 L 443 673 C 395 673 358 661 330 637 C 302 613 287 576 284 527 L 276 415 C 273 370 259 334 235 308 C 210 281 178 263 138 253 L 138 252 C 174 240 200 220 218 193 C 235 166 239 132 231 90 L 208 -23 C 197 -72 202 -109 224 -133 C 245 -157 279 -169 327 -169 L 355 -169 L 348 -218 L 321 -218 Z" unicode="{" />
<glyph horiz-adv-x="161" d="M 25 -218 L 157 722 L 207 722 L 75 -218 L 25 -218 Z" unicode="|" />
<glyph horiz-adv-x="410" d="M 1 -218 L 8 -169 L 36 -169 C 83 -169 120 -157 148 -133 C 176 -109 191 -72 195 -23 L 203 90 C 205 132 219 167 244 194 C 268 221 301 240 341 252 L 341 253 C 304 263 277 282 260 309 C 242 335 238 371 248 415 L 271 527 C 281 576 276 613 255 637 C 233 661 199 673 152 673 L 124 673 L 131 722 L 158 722 C 224 722 272 706 302 675 C 332 643 341 596 328 532 L 304 415 C 296 376 301 345 321 323 C 340 301 371 286 413 280 L 405 225 C 361 218 326 203 301 181 C 275 159 261 128 259 90 L 251 -28 C 246 -92 224 -139 185 -171 C 146 -202 94 -218 28 -218 L 1 -218 Z" unicode="}" />
<glyph horiz-adv-x="349" d="M 89 146 L 49 146 C 55 178 66 202 81 218 C 96 234 116 242 141 242 C 153 242 166 239 178 234 C 190 228 202 220 215 209 C 225 199 234 193 242 189 C 249 185 256 183 263 183 C 275 183 285 187 294 196 C 302 204 309 217 314 234 L 354 234 C 347 202 336 178 321 162 C 305 146 286 138 263 138 C 249 138 236 140 225 146 C 213 151 201 159 189 171 C 179 180 170 187 162 191 C 154 195 147 197 140 197 C 127 197 116 192 108 184 C 100 175 93 162 89 146 Z" unicode="~" />
<glyph horiz-adv-x="188" d="M 126 449 L 135 510 L 197 510 L 188 449 L 126 449 Z M 44 -182 L 115 330 L 168 330 L 97 -182 L 44 -182 Z" unicode="¡" />
<glyph horiz-adv-x="462" d="M 302 456 L 317 567 L 365 567 L 350 456 L 302 456 Z M 223 -102 L 300 443 L 348 443 L 272 -102 L 223 -102 Z M 284 -10 C 220 -10 169 8 132 46 C 94 83 76 132 76 194 C 76 275 100 342 149 395 C 197 447 259 474 335 474 C 363 474 389 470 413 463 C 436 455 459 445 483 433 L 475 375 C 452 391 430 403 408 411 C 386 419 360 423 332 423 C 272 423 223 401 186 359 C 149 317 131 263 131 198 C 131 150 145 112 174 84 C 202 55 241 41 289 41 C 315 41 341 45 365 53 C 389 61 413 73 435 90 L 427 32 C 404 17 381 6 357 0 C 333 -6 308 -10 284 -10 Z" unicode="¢" />
<glyph horiz-adv-x="516" d="M 59 0 L 67 54 C 108 78 140 111 163 154 C 186 197 196 248 192 306 L 192 311 L 95 311 L 102 362 L 187 362 L 184 401 C 177 484 192 550 230 599 C 267 647 323 672 399 672 C 428 672 456 668 483 661 C 509 653 534 643 557 631 L 548 573 C 526 589 502 601 476 609 C 450 617 425 621 399 621 C 345 621 303 601 275 563 C 246 525 234 472 239 404 L 243 362 L 420 362 L 413 311 L 247 311 L 247 309 C 251 257 244 209 227 165 C 210 121 182 84 142 55 L 464 55 L 456 0 L 59 0 Z" unicode="£" />
<glyph horiz-adv-x="586" d="M 96 47 L 59 90 L 175 191 C 168 203 163 215 159 229 C 155 243 154 257 154 272 C 154 298 157 323 165 345 C 173 367 183 387 197 404 L 116 499 L 164 541 L 246 445 C 260 453 276 460 293 465 C 310 469 328 472 347 472 C 367 472 387 468 406 462 C 424 456 441 447 456 436 L 574 539 L 611 497 L 494 394 C 501 382 507 368 511 354 C 515 340 517 325 517 310 C 517 283 513 259 505 237 C 497 215 487 195 474 179 L 551 89 L 503 47 L 426 138 C 411 129 395 122 378 118 C 360 113 342 111 324 111 C 302 111 282 114 263 121 C 243 127 226 137 212 149 L 96 47 Z M 329 161 C 367 161 400 174 426 202 C 452 229 465 263 465 303 C 465 336 453 364 430 387 C 406 409 377 421 342 421 C 303 421 271 407 245 380 C 219 352 207 319 207 279 C 207 245 218 217 241 195 C 264 172 293 161 329 161 Z" unicode="¤" />
<glyph horiz-adv-x="565" d="M 184 238 L 190 282 L 454 282 L 448 238 L 184 238 Z M 170 135 L 176 178 L 440 178 L 434 135 L 170 135 Z M 249 0 L 290 294 L 102 658 L 166 658 L 306 390 L 326 345 L 360 390 L 573 658 L 639 658 L 347 291 L 306 0 L 249 0 Z" unicode="¥" />
<glyph horiz-adv-x="162" d="M 100 314 L 157 722 L 207 722 L 150 314 L 100 314 Z M 25 -218 L 82 190 L 132 190 L 75 -218 L 25 -218 Z" unicode="¦" />
<glyph horiz-adv-x="374" d="M 188 -12 C 162 -12 138 -8 116 -2 C 94 4 73 14 54 27 L 62 80 C 80 64 99 53 120 45 C 140 37 163 33 189 33 C 223 33 249 41 269 58 C 288 75 298 98 298 128 C 298 148 291 165 277 180 C 263 195 240 209 210 221 L 196 226 C 164 237 140 252 124 270 C 107 288 99 312 99 341 C 99 363 104 384 115 404 C 125 424 141 439 162 450 C 150 460 141 472 135 486 C 129 499 126 514 126 531 C 126 573 139 606 167 632 C 194 657 232 670 282 670 C 305 670 327 667 348 662 C 369 657 389 649 408 638 L 401 586 C 383 599 365 609 345 615 C 325 621 304 625 282 625 C 250 625 225 617 207 601 C 189 585 180 564 180 538 C 180 521 185 506 197 494 C 208 482 227 470 254 460 L 268 455 C 304 441 331 424 351 404 C 370 383 380 357 380 327 C 380 303 374 281 364 263 C 354 245 338 230 318 219 C 329 208 337 196 343 182 C 349 168 352 153 352 137 C 352 91 337 55 309 28 C 280 1 240 -12 188 -12 Z M 239 266 C 247 263 254 260 262 256 C 269 252 276 249 283 246 C 297 253 307 263 314 276 C 321 288 325 303 325 320 C 325 338 318 355 305 370 C 291 385 269 398 239 410 L 224 415 C 219 416 215 418 211 420 C 207 422 203 423 200 425 C 185 417 173 407 165 393 C 157 379 153 364 153 348 C 153 331 158 316 170 304 C 181 291 199 280 225 271 L 239 266 Z" unicode="§" />
<glyph horiz-adv-x="262" d="M 106 544 L 114 605 L 175 605 L 167 544 L 106 544 Z M 245 544 L 253 605 L 314 605 L 306 544 L 245 544 Z" unicode="¨" />
<glyph horiz-adv-x="646" d="M 361 120 C 287 120 226 144 177 194 C 128 243 104 304 104 378 C 104 461 131 533 187 595 C 242 656 312 687 398 687 C 471 687 532 662 582 613 C 631 563 656 502 656 429 C 656 343 628 270 574 210 C 519 150 448 120 361 120 Z M 362 157 C 432 157 492 182 542 233 C 592 283 617 348 617 428 C 617 492 595 545 553 587 C 510 629 458 650 398 650 C 329 650 269 624 218 573 C 167 522 142 457 142 379 C 142 315 163 262 206 220 C 248 178 300 157 362 157 Z M 369 230 C 324 230 288 244 261 273 C 233 301 220 337 220 379 C 220 436 237 483 273 521 C 308 559 353 578 409 578 C 427 578 445 575 462 571 C 479 567 495 560 510 552 L 504 507 C 489 517 473 525 457 531 C 441 536 424 539 407 539 C 363 539 327 524 301 494 C 275 464 262 427 262 381 C 262 349 272 322 292 301 C 312 279 339 269 371 269 C 389 269 408 272 426 278 C 444 284 460 292 476 304 L 470 260 C 454 250 437 242 419 237 C 401 232 384 230 369 230 Z" unicode="©" />
<glyph horiz-adv-x="388" d="M 71 245 L 77 291 L 386 291 L 379 245 L 71 245 Z M 238 354 C 202 354 172 367 148 394 C 124 420 113 456 113 500 C 113 564 134 618 178 664 C 221 709 273 732 333 732 C 353 732 373 730 393 727 C 412 723 431 718 451 712 L 415 458 C 413 441 411 425 409 410 C 407 394 407 379 407 363 L 360 363 C 360 373 360 385 361 398 C 362 410 363 422 365 433 L 367 457 C 353 419 334 392 310 377 C 286 361 262 354 238 354 Z M 248 398 C 270 398 296 410 325 435 C 353 459 375 522 390 623 L 398 678 C 386 682 374 684 363 686 C 352 688 340 689 328 689 C 284 689 245 670 211 634 C 177 597 161 554 161 504 C 161 470 169 443 187 425 C 205 407 225 398 248 398 Z" unicode="ª" />
<glyph horiz-adv-x="460" d="M 363 69 L 231 226 L 407 384 L 472 384 L 298 226 L 428 69 L 363 69 Z M 204 69 L 73 226 L 248 384 L 314 384 L 140 226 L 270 69 L 204 69 Z" unicode="«" />
<glyph horiz-adv-x="391" d="M 329 174 L 342 268 L 67 268 L 74 317 L 395 317 L 375 174 L 329 174 Z" unicode="¬" />
<glyph horiz-adv-x="351" d="M 65 206 L 72 255 L 352 255 L 345 206 L 65 206 Z" unicode="­" />
<glyph horiz-adv-x="641" d="M 359 120 C 285 120 224 144 175 194 C 125 243 101 304 101 378 C 101 461 128 533 184 595 C 239 656 309 687 395 687 C 468 687 529 662 579 613 C 628 563 653 502 653 429 C 653 343 625 270 571 210 C 516 150 445 120 359 120 Z M 359 157 C 429 157 489 182 539 233 C 589 283 614 348 614 428 C 614 492 592 545 550 587 C 508 629 456 650 395 650 C 326 650 266 624 215 573 C 164 522 139 457 139 379 C 139 315 160 262 203 220 C 245 178 297 157 359 157 Z M 260 229 L 310 582 L 397 582 C 425 582 449 574 467 558 C 485 542 494 523 494 500 C 494 474 485 451 467 432 C 449 412 427 401 401 399 C 409 396 417 390 425 382 C 433 373 439 363 444 353 L 498 229 L 451 229 L 402 340 C 396 353 388 364 379 372 C 369 380 358 385 346 385 L 324 385 L 302 229 L 260 229 Z M 329 423 L 374 423 C 397 423 415 429 429 442 C 443 455 450 471 450 491 C 450 506 444 519 434 529 C 423 539 409 544 391 544 L 346 544 L 329 423 Z" unicode="®" />
<glyph horiz-adv-x="382" d="M 161 532 L 167 578 L 378 578 L 371 532 L 161 532 Z" unicode="¯" />
<glyph horiz-adv-x="320" d="M 241 485 C 207 485 181 495 162 516 C 142 537 133 563 133 593 C 133 632 146 664 172 690 C 198 715 229 728 265 728 C 298 728 324 717 344 696 C 363 675 373 650 373 620 C 373 581 359 549 333 523 C 307 497 276 485 241 485 Z M 243 526 C 267 526 288 535 305 553 C 322 571 331 592 331 617 C 331 637 324 654 311 668 C 297 681 281 688 263 688 C 238 688 217 678 200 660 C 183 642 175 621 175 597 C 175 576 181 559 194 546 C 207 532 223 526 243 526 Z" unicode="°" />
<glyph horiz-adv-x="498" d="M 14 -49 L 21 0 L 450 0 L 443 -49 L 14 -49 Z M 219 71 L 246 264 L 60 264 L 67 313 L 254 313 L 281 506 L 331 506 L 304 313 L 489 313 L 482 264 L 296 264 L 269 71 L 219 71 Z" unicode="±" />
<glyph horiz-adv-x="300" d="M 82 360 L 90 422 C 170 465 227 501 259 531 C 291 560 308 588 308 616 C 308 636 301 653 289 665 C 276 677 257 683 233 683 C 216 683 198 680 180 674 C 162 668 144 660 128 650 L 135 701 C 151 709 168 716 186 721 C 204 725 223 728 243 728 C 279 728 307 719 328 701 C 349 683 360 658 360 624 C 360 586 341 551 304 517 C 266 483 208 446 130 407 L 332 407 L 326 360 L 82 360 Z" unicode="²" />
<glyph horiz-adv-x="294" d="M 194 352 C 172 352 153 354 135 360 C 117 365 101 374 85 387 L 93 438 C 105 424 120 413 137 406 C 154 399 173 396 193 396 C 219 396 240 402 254 415 C 268 427 276 443 276 462 C 276 480 268 495 254 507 C 239 518 218 524 192 524 L 175 524 L 180 567 L 195 567 C 226 567 250 573 266 586 C 282 599 291 615 291 634 C 291 649 286 661 276 670 C 266 679 252 684 235 684 C 217 684 199 681 183 675 C 167 669 151 661 137 651 L 144 699 C 160 709 176 716 193 721 C 209 725 226 728 243 728 C 277 728 302 720 320 704 C 337 688 346 667 346 642 C 346 620 338 601 323 583 C 307 565 286 553 260 546 C 281 541 298 531 310 516 C 322 500 328 483 328 463 C 328 431 316 404 292 383 C 268 362 236 352 194 352 Z" unicode="³" />
<glyph horiz-adv-x="238" d="M 166 736 L 276 867 L 341 867 L 227 736 L 166 736 Z" unicode="´" />
<glyph horiz-adv-x="504" d="M 30 -214 L 96 186 L 137 186 L 84 -214 L 30 -214 Z M 227 -12 C 181 -12 145 4 119 36 C 93 68 84 111 93 166 L 121 340 C 125 363 128 384 130 404 C 132 423 133 443 133 464 L 188 464 C 188 442 187 422 185 402 C 183 382 180 361 177 339 L 150 176 C 142 131 148 97 166 74 C 184 50 209 39 242 39 C 271 39 303 56 339 90 C 375 124 402 205 420 333 L 438 464 L 494 464 L 444 112 C 441 91 439 71 438 53 C 436 34 436 16 436 0 L 381 0 C 381 14 381 29 382 46 C 382 62 384 78 387 93 L 392 127 C 373 75 348 39 317 19 C 286 -1 256 -12 227 -12 Z" unicode="µ" />
<glyph horiz-adv-x="372" d="M 116 0 L 182 471 C 155 471 134 478 118 494 C 102 509 95 529 95 553 C 95 582 106 607 128 627 C 150 647 179 658 217 658 L 410 658 L 318 0 L 263 0 L 348 608 L 257 608 L 172 0 L 116 0 Z" unicode="¶" />
<glyph horiz-adv-x="151" d="M 71 191 L 80 252 L 142 252 L 133 191 L 71 191 Z" unicode="·" />
<glyph horiz-adv-x="227" d="M 94 -197 C 83 -197 73 -195 63 -193 C 53 -190 43 -186 35 -182 L 40 -142 C 46 -148 54 -152 64 -155 C 74 -158 83 -160 93 -160 C 107 -160 118 -156 126 -149 C 134 -142 138 -132 138 -120 C 138 -109 134 -100 127 -93 C 119 -86 109 -83 97 -83 L 91 -83 L 96 -46 L 102 -46 C 126 -46 145 -52 159 -66 C 173 -79 180 -96 180 -118 C 180 -142 172 -161 156 -175 C 140 -189 119 -197 94 -197 Z" unicode="¸" />
<glyph horiz-adv-x="275" d="M 88 360 L 93 404 L 174 404 L 213 679 L 120 662 L 127 710 L 271 735 L 224 404 L 306 404 L 300 360 L 88 360 Z" unicode="¹" />
<glyph horiz-adv-x="421" d="M 78 244 L 84 291 L 402 291 L 396 244 L 78 244 Z M 266 355 C 219 355 182 369 155 399 C 127 429 114 469 114 519 C 114 573 130 622 163 666 C 195 710 243 733 305 733 C 351 733 388 718 416 688 C 443 658 457 619 457 569 C 457 515 440 465 408 421 C 375 377 328 355 266 355 Z M 269 400 C 311 400 345 415 370 447 C 394 479 407 518 407 565 C 407 603 397 633 379 655 C 360 677 334 688 302 688 C 259 688 225 672 201 640 C 176 608 164 569 164 523 C 164 485 173 455 192 433 C 210 411 236 400 269 400 Z" unicode="º" />
<glyph horiz-adv-x="458" d="M 43 69 L 218 226 L 87 384 L 153 384 L 285 226 L 109 69 L 43 69 Z M 202 69 L 376 226 L 245 384 L 311 384 L 443 226 L 268 69 L 202 69 Z" unicode="»" />
<glyph horiz-adv-x="673" d="M 548 0 L 561 92 L 395 92 L 400 126 L 583 360 L 648 360 L 616 135 L 672 135 L 666 92 L 610 92 L 596 0 L 548 0 Z M 567 135 L 591 308 L 455 135 L 567 135 Z M 88 360 L 93 404 L 174 404 L 213 679 L 120 662 L 127 710 L 271 735 L 224 404 L 306 404 L 300 360 L 88 360 Z M 146 0 L 524 722 L 572 722 L 194 0 L 146 0 Z" unicode="¼" />
<glyph horiz-adv-x="673" d="M 406 0 L 414 62 C 494 105 551 141 583 171 C 615 200 632 228 632 256 C 632 276 625 293 613 305 C 600 317 581 323 557 323 C 540 323 522 320 504 314 C 486 308 468 300 452 290 L 459 341 C 475 349 492 356 510 361 C 528 365 547 368 567 368 C 603 368 631 359 652 341 C 673 323 684 298 684 264 C 684 226 665 191 628 157 C 590 123 532 86 454 47 L 656 47 L 650 0 L 406 0 Z M 88 360 L 93 404 L 174 404 L 213 679 L 120 662 L 127 710 L 271 735 L 224 404 L 306 404 L 300 360 L 88 360 Z M 142 0 L 520 722 L 568 722 L 190 0 L 142 0 Z" unicode="½" />
<glyph horiz-adv-x="653" d="M 528 0 L 541 92 L 375 92 L 380 126 L 563 360 L 628 360 L 596 135 L 652 135 L 646 92 L 590 92 L 576 0 L 528 0 Z M 547 135 L 571 308 L 435 135 L 547 135 Z M 194 352 C 172 352 153 354 135 360 C 117 365 101 374 85 387 L 93 438 C 105 424 120 413 137 406 C 154 399 173 396 193 396 C 219 396 240 402 254 415 C 268 427 276 443 276 462 C 276 480 268 495 254 507 C 239 518 218 524 192 524 L 175 524 L 180 567 L 195 567 C 226 567 250 573 266 586 C 282 599 291 615 291 634 C 291 649 286 661 276 670 C 266 679 252 684 235 684 C 217 684 199 681 183 675 C 167 669 151 661 137 651 L 144 699 C 160 709 176 716 193 721 C 209 725 226 728 243 728 C 277 728 302 720 320 704 C 337 688 346 667 346 642 C 346 620 338 601 323 583 C 307 565 286 553 260 546 C 281 541 298 531 310 516 C 322 500 328 483 328 463 C 328 431 316 404 292 383 C 268 362 236 352 194 352 Z M 138 0 L 516 722 L 564 722 L 186 0 L 138 0 Z" unicode="¾" />
<glyph horiz-adv-x="420" d="M 272 455 L 281 516 L 342 516 L 333 455 L 272 455 Z M 198 -215 C 148 -215 109 -201 80 -174 C 50 -146 36 -111 36 -67 C 36 -33 46 0 66 34 C 86 68 115 102 152 138 C 186 171 211 202 227 232 C 243 261 255 297 261 339 L 313 339 C 306 289 293 248 275 214 C 257 180 229 146 191 110 C 157 78 133 48 117 21 C 101 -6 94 -33 94 -60 C 94 -89 103 -114 123 -134 C 143 -154 171 -164 208 -164 C 236 -164 265 -159 294 -150 C 322 -140 348 -127 371 -109 L 362 -171 C 339 -184 313 -195 285 -203 C 257 -211 228 -215 198 -215 Z" unicode="¿" />
<glyph horiz-adv-x="614" d="M 18 0 L 373 667 L 428 667 L 596 0 L 537 0 L 482 224 L 194 224 L 76 0 L 18 0 Z M 364 545 L 221 275 L 469 275 L 402 545 L 390 597 L 364 545 Z M 391 720 L 299 847 L 359 847 L 448 720 L 391 720 Z" unicode="À" />
<glyph horiz-adv-x="614" d="M 18 0 L 373 667 L 428 667 L 596 0 L 537 0 L 482 224 L 194 224 L 76 0 L 18 0 Z M 364 545 L 221 275 L 469 275 L 402 545 L 390 597 L 364 545 Z M 362 720 L 469 847 L 532 847 L 421 720 L 362 720 Z" unicode="Á" />
<glyph horiz-adv-x="614" d="M 18 0 L 373 667 L 428 667 L 596 0 L 537 0 L 482 224 L 194 224 L 76 0 L 18 0 Z M 364 545 L 221 275 L 469 275 L 402 545 L 390 597 L 364 545 Z M 285 720 L 400 843 L 440 843 L 521 720 L 471 720 L 416 801 L 339 720 L 285 720 Z" unicode="Â" />
<glyph horiz-adv-x="614" d="M 18 0 L 373 667 L 428 667 L 596 0 L 537 0 L 482 224 L 194 224 L 76 0 L 18 0 Z M 364 545 L 221 275 L 469 275 L 402 545 L 390 597 L 364 545 Z M 297 720 L 261 720 C 267 750 277 773 292 789 C 306 804 326 812 350 812 C 362 812 374 809 386 804 C 397 799 409 791 422 780 C 432 771 440 764 448 760 C 455 756 462 754 469 754 C 481 754 491 758 500 767 C 509 775 516 788 521 805 L 557 805 C 550 774 539 751 525 735 C 510 719 491 712 469 712 C 455 712 443 714 432 720 C 420 725 408 733 396 745 C 386 753 378 760 371 764 C 363 768 356 770 349 770 C 336 770 325 765 317 757 C 308 749 301 736 297 720 Z" unicode="Ã" />
<glyph horiz-adv-x="614" d="M 18 0 L 373 667 L 428 667 L 596 0 L 537 0 L 482 224 L 194 224 L 76 0 L 18 0 Z M 364 545 L 221 275 L 469 275 L 402 545 L 390 597 L 364 545 Z M 308 720 L 316 778 L 375 778 L 366 720 L 308 720 Z M 443 720 L 451 778 L 510 778 L 501 720 L 443 720 Z" unicode="Ä" />
<glyph horiz-adv-x="614" d="M 18 0 L 373 667 L 428 667 L 596 0 L 537 0 L 482 224 L 194 224 L 76 0 L 18 0 Z M 364 545 L 221 275 L 469 275 L 402 545 L 390 597 L 364 545 Z M 400 632 C 377 632 359 639 345 653 C 331 667 325 684 325 705 C 325 729 333 750 349 767 C 365 783 386 792 411 792 C 433 792 451 784 465 770 C 478 756 485 739 485 719 C 485 694 477 673 461 657 C 445 640 424 632 400 632 Z M 401 667 C 414 667 425 671 435 681 C 444 690 449 702 449 717 C 449 729 445 738 437 746 C 429 753 419 757 409 757 C 396 757 385 752 376 742 C 366 732 362 721 362 707 C 362 695 365 685 373 678 C 381 670 390 667 401 667 Z" unicode="Å" />
<glyph horiz-adv-x="819" d="M 10 0 L 464 658 L 836 658 L 829 605 L 547 605 L 513 360 L 787 360 L 780 307 L 505 307 L 470 53 L 769 53 L 762 0 L 405 0 L 437 225 L 228 225 L 71 0 L 10 0 Z M 457 554 L 264 277 L 444 277 L 490 606 L 457 554 Z" unicode="Æ" />
<glyph horiz-adv-x="669" d="M 418 -13 C 318 -13 240 15 182 73 C 124 131 96 203 96 289 C 96 397 133 488 207 561 C 281 634 376 671 491 671 C 526 671 562 666 598 657 C 634 648 669 635 704 618 L 697 560 C 665 578 631 593 596 603 C 561 613 525 619 488 619 C 391 619 311 587 249 525 C 186 463 155 385 155 291 C 155 216 179 155 229 109 C 278 63 342 40 422 40 C 460 40 497 45 533 55 C 569 65 604 81 640 101 L 631 41 C 595 22 560 8 525 0 C 489 -8 454 -13 418 -13 Z M 392 -195 C 382 -195 372 -193 362 -190 C 352 -187 343 -183 335 -179 L 340 -141 C 346 -147 354 -151 363 -154 C 372 -157 382 -159 392 -159 C 405 -159 416 -155 424 -148 C 432 -141 436 -132 436 -120 C 436 -109 432 -100 424 -94 C 416 -87 406 -84 394 -84 L 388 -84 L 393 -48 L 399 -48 C 421 -48 440 -54 454 -67 C 468 -79 476 -96 476 -117 C 476 -140 468 -159 452 -173 C 436 -187 416 -195 392 -195 Z" unicode="Ç" />
<glyph horiz-adv-x="492" d="M 342 720 L 250 847 L 310 847 L 399 720 L 342 720 Z M 79 0 L 171 658 L 510 658 L 502 605 L 220 605 L 186 360 L 461 360 L 453 307 L 179 307 L 143 53 L 443 53 L 435 0 L 79 0 Z" unicode="È" />
<glyph horiz-adv-x="492" d="M 79 0 L 171 658 L 510 658 L 502 605 L 220 605 L 186 360 L 461 360 L 453 307 L 179 307 L 143 53 L 443 53 L 435 0 L 79 0 Z M 313 720 L 420 847 L 483 847 L 372 720 L 313 720 Z" unicode="É" />
<glyph horiz-adv-x="492" d="M 236 720 L 351 843 L 391 843 L 472 720 L 422 720 L 367 801 L 290 720 L 236 720 Z M 79 0 L 171 658 L 510 658 L 502 605 L 220 605 L 186 360 L 461 360 L 453 307 L 179 307 L 143 53 L 443 53 L 435 0 L 79 0 Z" unicode="Ê" />
<glyph horiz-adv-x="492" d="M 79 0 L 171 658 L 510 658 L 502 605 L 220 605 L 186 360 L 461 360 L 453 307 L 179 307 L 143 53 L 443 53 L 435 0 L 79 0 Z M 259 720 L 267 778 L 326 778 L 317 720 L 259 720 Z M 394 720 L 402 778 L 461 778 L 452 720 L 394 720 Z" unicode="Ë" />
<glyph horiz-adv-x="215" d="M 79 0 L 171 658 L 228 658 L 136 0 L 79 0 Z M 195 720 L 103 847 L 163 847 L 252 720 L 195 720 Z" unicode="Ì" />
<glyph horiz-adv-x="215" d="M 79 0 L 171 658 L 228 658 L 136 0 L 79 0 Z M 166 720 L 273 847 L 336 847 L 225 720 L 166 720 Z" unicode="Í" />
<glyph horiz-adv-x="215" d="M 79 0 L 171 658 L 228 658 L 136 0 L 79 0 Z M 89 720 L 204 843 L 244 843 L 325 720 L 275 720 L 220 801 L 143 720 L 89 720 Z" unicode="Î" />
<glyph horiz-adv-x="215" d="M 79 0 L 171 658 L 228 658 L 136 0 L 79 0 Z M 112 720 L 120 778 L 179 778 L 170 720 L 112 720 Z M 247 720 L 255 778 L 314 778 L 305 720 L 247 720 Z" unicode="Ï" />
<glyph horiz-adv-x="705" d="M 71 307 L 78 357 L 324 357 L 317 307 L 71 307 Z M 89 0 L 181 658 L 372 658 C 473 658 553 631 613 578 C 672 524 702 456 702 374 C 702 266 663 177 586 106 C 509 35 406 0 278 0 L 89 0 Z M 154 53 L 283 53 C 393 53 481 83 546 144 C 610 204 643 280 643 372 C 643 440 618 495 569 539 C 519 583 453 605 370 605 L 231 605 L 154 53 Z" unicode="Ð" />
<glyph horiz-adv-x="707" d="M 338 720 L 302 720 C 308 750 318 773 333 789 C 347 804 367 812 391 812 C 403 812 415 809 427 804 C 438 799 450 791 463 780 C 473 771 481 764 489 760 C 496 756 503 754 510 754 C 522 754 532 758 541 767 C 550 775 557 788 562 805 L 598 805 C 591 774 580 751 566 735 C 551 719 532 712 510 712 C 496 712 484 714 473 720 C 461 725 449 733 437 745 C 427 753 419 760 412 764 C 404 768 397 770 390 770 C 377 770 366 765 358 757 C 349 749 342 736 338 720 Z M 79 0 L 171 658 L 233 658 L 560 123 L 586 77 L 592 123 L 667 658 L 720 658 L 628 0 L 567 0 L 239 537 L 213 582 L 207 537 L 132 0 L 79 0 Z" unicode="Ñ" />
<glyph horiz-adv-x="770" d="M 451 722 L 359 849 L 419 849 L 508 722 L 451 722 Z M 401 -14 C 308 -14 234 14 179 71 C 124 127 97 199 97 287 C 97 395 130 486 196 560 C 262 634 350 672 461 672 C 553 672 627 643 683 587 C 738 530 766 458 766 370 C 766 263 732 172 666 98 C 599 23 511 -14 401 -14 Z M 402 38 C 491 38 564 69 621 132 C 678 194 707 273 707 369 C 707 439 685 498 641 547 C 597 595 537 620 461 620 C 371 620 297 588 241 526 C 184 464 156 385 156 289 C 156 219 177 159 221 111 C 265 62 325 38 402 38 Z" unicode="Ò" />
<glyph horiz-adv-x="770" d="M 401 -14 C 308 -14 234 14 179 71 C 124 127 97 199 97 287 C 97 395 130 486 196 560 C 262 634 350 672 461 672 C 553 672 627 643 683 587 C 738 530 766 458 766 370 C 766 263 732 172 666 98 C 599 23 511 -14 401 -14 Z M 402 38 C 491 38 564 69 621 132 C 678 194 707 273 707 369 C 707 439 685 498 641 547 C 597 595 537 620 461 620 C 371 620 297 588 241 526 C 184 464 156 385 156 289 C 156 219 177 159 221 111 C 265 62 325 38 402 38 Z M 422 722 L 529 849 L 592 849 L 481 722 L 422 722 Z" unicode="Ó" />
<glyph horiz-adv-x="770" d="M 345 722 L 460 845 L 500 845 L 581 722 L 531 722 L 476 803 L 399 722 L 345 722 Z M 401 -14 C 308 -14 234 14 179 71 C 124 127 97 199 97 287 C 97 395 130 486 196 560 C 262 634 350 672 461 672 C 553 672 627 643 683 587 C 738 530 766 458 766 370 C 766 263 732 172 666 98 C 599 23 511 -14 401 -14 Z M 402 38 C 491 38 564 69 621 132 C 678 194 707 273 707 369 C 707 439 685 498 641 547 C 597 595 537 620 461 620 C 371 620 297 588 241 526 C 184 464 156 385 156 289 C 156 219 177 159 221 111 C 265 62 325 38 402 38 Z" unicode="Ô" />
<glyph horiz-adv-x="770" d="M 357 722 L 321 722 C 327 752 337 775 352 791 C 366 806 386 814 410 814 C 422 814 434 811 446 806 C 457 801 469 793 482 782 C 492 773 500 766 508 762 C 515 758 522 756 529 756 C 541 756 551 760 560 769 C 569 777 576 790 581 807 L 617 807 C 610 776 599 753 585 737 C 570 721 551 714 529 714 C 515 714 503 716 492 722 C 480 727 468 735 456 747 C 446 755 438 762 431 766 C 423 770 416 772 409 772 C 396 772 385 767 377 759 C 368 751 361 738 357 722 Z M 401 -14 C 308 -14 234 14 179 71 C 124 127 97 199 97 287 C 97 395 130 486 196 560 C 262 634 350 672 461 672 C 553 672 627 643 683 587 C 738 530 766 458 766 370 C 766 263 732 172 666 98 C 599 23 511 -14 401 -14 Z M 402 38 C 491 38 564 69 621 132 C 678 194 707 273 707 369 C 707 439 685 498 641 547 C 597 595 537 620 461 620 C 371 620 297 588 241 526 C 184 464 156 385 156 289 C 156 219 177 159 221 111 C 265 62 325 38 402 38 Z" unicode="Õ" />
<glyph horiz-adv-x="770" d="M 401 -14 C 308 -14 234 14 179 71 C 124 127 97 199 97 287 C 97 395 130 486 196 560 C 262 634 350 672 461 672 C 553 672 627 643 683 587 C 738 530 766 458 766 370 C 766 263 732 172 666 98 C 599 23 511 -14 401 -14 Z M 402 38 C 491 38 564 69 621 132 C 678 194 707 273 707 369 C 707 439 685 498 641 547 C 597 595 537 620 461 620 C 371 620 297 588 241 526 C 184 464 156 385 156 289 C 156 219 177 159 221 111 C 265 62 325 38 402 38 Z M 368 722 L 376 780 L 435 780 L 426 722 L 368 722 Z M 503 722 L 511 780 L 570 780 L 561 722 L 503 722 Z" unicode="Ö" />
<glyph horiz-adv-x="494" d="M 108 105 L 74 144 L 237 288 L 110 437 L 148 471 L 277 322 L 444 468 L 478 429 L 311 283 L 437 135 L 399 101 L 272 248 L 108 105 Z" unicode="×" />
<glyph horiz-adv-x="769" d="M 172 -65 L 233 40 L 247 61 L 556 619 L 568 640 L 616 725 L 672 725 L 613 620 L 599 599 L 290 41 L 278 20 L 229 -65 L 172 -65 Z M 400 -14 C 307 -14 233 14 178 71 C 123 127 96 199 96 287 C 96 395 129 486 195 560 C 261 634 349 672 460 672 C 552 672 626 643 682 587 C 737 530 765 458 765 370 C 765 263 731 172 665 98 C 598 23 510 -14 400 -14 Z M 401 38 C 490 38 563 69 620 132 C 677 194 706 273 706 369 C 706 439 684 498 640 547 C 596 595 536 620 460 620 C 370 620 296 588 240 526 C 183 464 155 385 155 289 C 155 219 176 159 220 111 C 264 62 324 38 401 38 Z" unicode="Ø" />
<glyph horiz-adv-x="670" d="M 425 720 L 333 847 L 393 847 L 482 720 L 425 720 Z M 346 -12 C 260 -12 196 11 154 59 C 112 106 97 169 109 249 L 166 658 L 223 658 L 166 248 C 157 183 168 132 200 96 C 231 60 280 42 348 42 C 408 42 459 60 501 98 C 543 136 568 186 577 248 L 635 658 L 687 658 L 630 247 C 618 165 586 102 534 56 C 482 10 419 -12 346 -12 Z" unicode="Ù" />
<glyph horiz-adv-x="670" d="M 346 -12 C 260 -12 196 11 154 59 C 112 106 97 169 109 249 L 166 658 L 223 658 L 166 248 C 157 183 168 132 200 96 C 231 60 280 42 348 42 C 408 42 459 60 501 98 C 543 136 568 186 577 248 L 635 658 L 687 658 L 630 247 C 618 165 586 102 534 56 C 482 10 419 -12 346 -12 Z M 396 720 L 503 847 L 566 847 L 455 720 L 396 720 Z" unicode="Ú" />
<glyph horiz-adv-x="670" d="M 319 720 L 434 843 L 474 843 L 555 720 L 505 720 L 450 801 L 373 720 L 319 720 Z M 346 -12 C 260 -12 196 11 154 59 C 112 106 97 169 109 249 L 166 658 L 223 658 L 166 248 C 157 183 168 132 200 96 C 231 60 280 42 348 42 C 408 42 459 60 501 98 C 543 136 568 186 577 248 L 635 658 L 687 658 L 630 247 C 618 165 586 102 534 56 C 482 10 419 -12 346 -12 Z" unicode="Û" />
<glyph horiz-adv-x="670" d="M 346 -12 C 260 -12 196 11 154 59 C 112 106 97 169 109 249 L 166 658 L 223 658 L 166 248 C 157 183 168 132 200 96 C 231 60 280 42 348 42 C 408 42 459 60 501 98 C 543 136 568 186 577 248 L 635 658 L 687 658 L 630 247 C 618 165 586 102 534 56 C 482 10 419 -12 346 -12 Z M 342 720 L 350 778 L 409 778 L 400 720 L 342 720 Z M 477 720 L 485 778 L 544 778 L 535 720 L 477 720 Z" unicode="Ü" />
<glyph horiz-adv-x="560" d="M 251 0 L 292 294 L 104 658 L 168 658 L 308 390 L 328 345 L 362 390 L 575 658 L 641 658 L 349 291 L 308 0 L 251 0 Z M 318 720 L 425 847 L 488 847 L 377 720 L 318 720 Z" unicode="Ý" />
<glyph horiz-adv-x="473" d="M 79 0 L 171 658 L 228 658 L 211 536 L 266 536 C 330 536 381 520 419 490 C 457 460 476 417 476 361 C 476 292 452 237 405 195 C 358 153 298 133 226 133 L 154 133 L 136 0 L 79 0 Z M 162 185 L 229 185 C 286 185 332 201 366 233 C 400 265 418 305 418 353 C 418 393 404 424 378 448 C 351 472 313 484 263 484 L 205 484 L 162 185 Z" unicode="Þ" />
<glyph horiz-adv-x="527" d="M 64 0 L 136 512 C 146 585 169 640 205 678 C 241 715 288 734 347 734 C 401 734 445 714 477 676 C 509 637 525 584 525 517 C 525 497 524 477 521 455 C 518 433 515 413 512 397 C 493 406 474 413 456 418 C 438 423 418 426 398 426 C 368 426 344 419 327 405 C 309 391 301 371 301 347 C 301 327 306 310 318 298 C 330 286 347 275 370 267 L 385 261 C 423 246 451 228 469 207 C 487 185 497 159 497 129 C 497 87 482 54 453 28 C 424 2 385 -10 335 -10 C 315 -10 292 -6 267 0 C 242 5 221 14 203 24 L 210 79 C 226 66 245 56 269 49 C 293 41 315 38 336 38 C 368 38 393 45 413 60 C 433 74 443 95 443 122 C 443 142 435 160 421 174 C 406 188 385 201 357 212 L 343 218 C 310 230 286 246 270 266 C 254 285 247 310 247 340 C 247 381 260 414 286 438 C 312 462 348 474 392 474 C 406 474 421 472 435 470 C 449 468 461 464 472 460 C 482 534 474 590 449 628 C 424 666 390 685 346 685 C 302 685 267 670 241 640 C 215 610 199 567 191 510 L 119 0 L 64 0 Z" unicode="ß" />
<glyph horiz-adv-x="513" d="M 232 -10 C 185 -10 146 7 114 42 C 82 76 67 121 67 177 C 67 259 95 329 151 387 C 207 445 274 474 354 474 C 377 474 401 472 426 468 C 451 464 476 459 502 451 L 455 118 C 452 97 450 77 448 58 C 446 39 445 20 445 0 L 391 0 C 391 14 391 30 393 46 C 394 62 395 78 397 93 L 401 125 C 383 75 358 40 326 20 C 294 0 263 -10 232 -10 Z M 242 40 C 273 40 308 57 346 92 C 384 126 412 208 430 337 L 440 412 C 426 416 411 419 396 421 C 381 423 365 424 349 424 C 287 424 233 400 189 352 C 145 304 123 247 123 181 C 123 135 135 100 159 76 C 183 52 211 40 242 40 Z M 354 516 C 318 516 290 528 271 552 C 252 576 244 607 247 643 L 289 643 C 288 616 293 595 304 580 C 315 565 332 558 356 558 C 376 558 393 565 407 580 C 421 595 428 616 430 643 L 472 643 C 468 601 455 569 433 548 C 411 526 384 516 354 516 Z" unicode="à" />
<glyph horiz-adv-x="513" d="M 232 -10 C 185 -10 146 7 114 42 C 82 76 67 121 67 177 C 67 259 95 329 151 387 C 207 445 274 474 354 474 C 377 474 401 472 426 468 C 451 464 476 459 502 451 L 455 118 C 452 97 450 77 448 58 C 446 39 445 20 445 0 L 391 0 C 391 14 391 30 393 46 C 394 62 395 78 397 93 L 401 125 C 383 75 358 40 326 20 C 294 0 263 -10 232 -10 Z M 242 40 C 273 40 308 57 346 92 C 384 126 412 208 430 337 L 440 412 C 426 416 411 419 396 421 C 381 423 365 424 349 424 C 287 424 233 400 189 352 C 145 304 123 247 123 181 C 123 135 135 100 159 76 C 183 52 211 40 242 40 Z M 308 524 L 418 655 L 483 655 L 369 524 L 308 524 Z" unicode="á" />
<glyph horiz-adv-x="513" d="M 232 -10 C 185 -10 146 7 114 42 C 82 76 67 121 67 177 C 67 259 95 329 151 387 C 207 445 274 474 354 474 C 377 474 401 472 426 468 C 451 464 476 459 502 451 L 455 118 C 452 97 450 77 448 58 C 446 39 445 20 445 0 L 391 0 C 391 14 391 30 393 46 C 394 62 395 78 397 93 L 401 125 C 383 75 358 40 326 20 C 294 0 263 -10 232 -10 Z M 242 40 C 273 40 308 57 346 92 C 384 126 412 208 430 337 L 440 412 C 426 416 411 419 396 421 C 381 423 365 424 349 424 C 287 424 233 400 189 352 C 145 304 123 247 123 181 C 123 135 135 100 159 76 C 183 52 211 40 242 40 Z M 231 524 L 349 650 L 392 650 L 474 524 L 420 524 L 365 606 L 288 524 L 231 524 Z" unicode="â" />
<glyph horiz-adv-x="513" d="M 232 -10 C 185 -10 146 7 114 42 C 82 76 67 121 67 177 C 67 259 95 329 151 387 C 207 445 274 474 354 474 C 377 474 401 472 426 468 C 451 464 476 459 502 451 L 455 118 C 452 97 450 77 448 58 C 446 39 445 20 445 0 L 391 0 C 391 14 391 30 393 46 C 394 62 395 78 397 93 L 401 125 C 383 75 358 40 326 20 C 294 0 263 -10 232 -10 Z M 242 40 C 273 40 308 57 346 92 C 384 126 412 208 430 337 L 440 412 C 426 416 411 419 396 421 C 381 423 365 424 349 424 C 287 424 233 400 189 352 C 145 304 123 247 123 181 C 123 135 135 100 159 76 C 183 52 211 40 242 40 Z M 248 524 L 208 524 C 214 556 225 580 240 596 C 255 612 275 620 300 620 C 312 620 325 617 337 612 C 349 606 361 598 374 587 C 384 577 393 571 401 567 C 408 563 415 561 422 561 C 434 561 444 565 453 574 C 461 582 468 595 473 612 L 513 612 C 506 580 495 556 480 540 C 464 524 445 516 422 516 C 408 516 395 518 384 524 C 372 529 360 537 348 549 C 338 558 329 565 321 569 C 313 573 306 575 299 575 C 286 575 275 570 267 562 C 259 553 252 540 248 524 Z" unicode="ã" />
<glyph horiz-adv-x="513" d="M 232 -10 C 185 -10 146 7 114 42 C 82 76 67 121 67 177 C 67 259 95 329 151 387 C 207 445 274 474 354 474 C 377 474 401 472 426 468 C 451 464 476 459 502 451 L 455 118 C 452 97 450 77 448 58 C 446 39 445 20 445 0 L 391 0 C 391 14 391 30 393 46 C 394 62 395 78 397 93 L 401 125 C 383 75 358 40 326 20 C 294 0 263 -10 232 -10 Z M 242 40 C 273 40 308 57 346 92 C 384 126 412 208 430 337 L 440 412 C 426 416 411 419 396 421 C 381 423 365 424 349 424 C 287 424 233 400 189 352 C 145 304 123 247 123 181 C 123 135 135 100 159 76 C 183 52 211 40 242 40 Z M 255 536 L 263 597 L 324 597 L 316 536 L 255 536 Z M 394 536 L 402 597 L 463 597 L 455 536 L 394 536 Z" unicode="ä" />
<glyph horiz-adv-x="513" d="M 232 -10 C 185 -10 146 7 114 42 C 82 76 67 121 67 177 C 67 259 95 329 151 387 C 207 445 274 474 354 474 C 377 474 401 472 426 468 C 451 464 476 459 502 451 L 455 118 C 452 97 450 77 448 58 C 446 39 445 20 445 0 L 391 0 C 391 14 391 30 393 46 C 394 62 395 78 397 93 L 401 125 C 383 75 358 40 326 20 C 294 0 263 -10 232 -10 Z M 242 40 C 273 40 308 57 346 92 C 384 126 412 208 430 337 L 440 412 C 426 416 411 419 396 421 C 381 423 365 424 349 424 C 287 424 233 400 189 352 C 145 304 123 247 123 181 C 123 135 135 100 159 76 C 183 52 211 40 242 40 Z M 348 442 C 325 442 307 449 293 464 C 279 478 272 496 272 517 C 272 542 280 563 297 580 C 314 597 335 606 361 606 C 383 606 402 598 416 584 C 430 569 437 551 437 531 C 437 506 428 485 412 468 C 395 450 374 442 348 442 Z M 350 478 C 364 478 375 482 384 492 C 393 502 398 514 398 529 C 398 541 394 551 386 559 C 378 566 369 570 358 570 C 344 570 333 565 324 555 C 314 545 310 533 310 519 C 310 506 313 496 321 489 C 329 481 338 478 350 478 Z" unicode="å" />
<glyph horiz-adv-x="815" d="M 236 -10 C 187 -10 147 7 115 42 C 83 76 67 122 67 178 C 67 260 94 329 149 387 C 204 445 269 474 344 474 C 374 474 401 468 426 458 C 450 447 473 431 493 411 C 514 431 539 446 567 457 C 595 468 624 474 654 474 C 698 474 733 463 760 443 C 786 422 800 395 800 361 C 800 313 780 276 740 252 C 700 228 636 213 548 208 L 472 203 C 472 152 485 112 511 83 C 536 53 573 39 621 39 C 651 39 679 44 705 54 C 730 64 755 80 781 102 L 772 40 C 747 22 722 10 697 2 C 672 -6 645 -10 617 -10 C 555 -10 510 6 481 38 C 451 70 432 103 424 138 C 408 95 384 60 351 32 C 317 4 279 -10 236 -10 Z M 476 256 L 475 248 L 550 252 C 617 256 666 267 697 284 C 728 301 744 326 744 359 C 744 379 735 395 719 407 C 702 419 680 425 652 425 C 607 425 568 409 534 378 C 500 346 480 306 476 256 Z M 123 182 C 123 136 135 100 159 76 C 183 52 211 40 243 40 C 281 40 316 57 349 91 C 381 125 405 183 420 265 L 423 280 C 425 296 429 311 435 326 C 441 340 448 354 457 367 C 443 385 426 399 407 409 C 387 419 365 424 341 424 C 283 424 232 400 188 352 C 144 304 123 248 123 182 Z" unicode="æ" />
<glyph horiz-adv-x="471" d="M 285 -10 C 221 -10 170 8 133 46 C 95 83 77 132 77 194 C 77 275 101 342 150 395 C 198 447 260 474 336 474 C 364 474 390 470 414 463 C 437 455 460 445 484 433 L 476 375 C 453 391 431 403 409 411 C 387 419 361 423 333 423 C 273 423 224 401 187 359 C 150 317 132 263 132 198 C 132 150 146 112 175 84 C 203 55 242 41 290 41 C 316 41 342 45 366 53 C 390 61 414 73 436 90 L 428 32 C 405 17 382 6 358 0 C 334 -6 309 -10 285 -10 Z M 220 -209 C 209 -209 199 -207 189 -205 C 179 -202 169 -198 161 -194 L 166 -154 C 172 -160 180 -164 190 -167 C 200 -170 209 -172 219 -172 C 233 -172 244 -168 252 -161 C 260 -154 264 -144 264 -132 C 264 -121 260 -112 253 -105 C 245 -98 235 -95 223 -95 L 217 -95 L 222 -58 L 228 -58 C 252 -58 271 -64 285 -78 C 299 -91 306 -108 306 -130 C 306 -154 298 -173 282 -187 C 266 -201 245 -209 220 -209 Z" unicode="ç" />
<glyph horiz-adv-x="479" d="M 295 524 L 200 655 L 264 655 L 355 524 L 295 524 Z M 281 -10 C 217 -10 167 9 131 48 C 95 87 78 139 78 205 C 78 281 101 345 147 397 C 193 448 250 474 319 474 C 363 474 398 463 424 441 C 450 419 464 392 464 358 C 464 310 444 275 404 252 C 364 228 300 214 212 208 L 135 204 C 134 152 147 111 174 82 C 200 53 238 39 286 39 C 315 39 342 44 368 54 C 394 64 419 80 444 102 L 435 40 C 411 22 386 9 362 1 C 337 -6 310 -10 281 -10 Z M 315 425 C 268 425 228 407 195 372 C 162 336 143 295 137 247 L 214 252 C 281 256 330 267 361 283 C 391 299 407 323 407 356 C 407 376 398 393 382 406 C 366 418 343 425 315 425 Z" unicode="è" />
<glyph horiz-adv-x="479" d="M 265 524 L 375 655 L 440 655 L 326 524 L 265 524 Z M 281 -10 C 217 -10 167 9 131 48 C 95 87 78 139 78 205 C 78 281 101 345 147 397 C 193 448 250 474 319 474 C 363 474 398 463 424 441 C 450 419 464 392 464 358 C 464 310 444 275 404 252 C 364 228 300 214 212 208 L 135 204 C 134 152 147 111 174 82 C 200 53 238 39 286 39 C 315 39 342 44 368 54 C 394 64 419 80 444 102 L 435 40 C 411 22 386 9 362 1 C 337 -6 310 -10 281 -10 Z M 315 425 C 268 425 228 407 195 372 C 162 336 143 295 137 247 L 214 252 C 281 256 330 267 361 283 C 391 299 407 323 407 356 C 407 376 398 393 382 406 C 366 418 343 425 315 425 Z" unicode="é" />
<glyph horiz-adv-x="479" d="M 188 524 L 306 650 L 349 650 L 431 524 L 377 524 L 322 606 L 245 524 L 188 524 Z M 281 -10 C 217 -10 167 9 131 48 C 95 87 78 139 78 205 C 78 281 101 345 147 397 C 193 448 250 474 319 474 C 363 474 398 463 424 441 C 450 419 464 392 464 358 C 464 310 444 275 404 252 C 364 228 300 214 212 208 L 135 204 C 134 152 147 111 174 82 C 200 53 238 39 286 39 C 315 39 342 44 368 54 C 394 64 419 80 444 102 L 435 40 C 411 22 386 9 362 1 C 337 -6 310 -10 281 -10 Z M 315 425 C 268 425 228 407 195 372 C 162 336 143 295 137 247 L 214 252 C 281 256 330 267 361 283 C 391 299 407 323 407 356 C 407 376 398 393 382 406 C 366 418 343 425 315 425 Z" unicode="ê" />
<glyph horiz-adv-x="479" d="M 281 -10 C 217 -10 167 9 131 48 C 95 87 78 139 78 205 C 78 281 101 345 147 397 C 193 448 250 474 319 474 C 363 474 398 463 424 441 C 450 419 464 392 464 358 C 464 310 444 275 404 252 C 364 228 300 214 212 208 L 135 204 C 134 152 147 111 174 82 C 200 53 238 39 286 39 C 315 39 342 44 368 54 C 394 64 419 80 444 102 L 435 40 C 411 22 386 9 362 1 C 337 -6 310 -10 281 -10 Z M 315 425 C 268 425 228 407 195 372 C 162 336 143 295 137 247 L 214 252 C 281 256 330 267 361 283 C 391 299 407 323 407 356 C 407 376 398 393 382 406 C 366 418 343 425 315 425 Z M 212 536 L 220 597 L 281 597 L 273 536 L 212 536 Z M 351 536 L 359 597 L 420 597 L 412 536 L 351 536 Z" unicode="ë" />
<glyph horiz-adv-x="204" d="M 161 524 L 66 655 L 130 655 L 221 524 L 161 524 Z M 80 0 C 80 18 81 39 83 61 C 85 83 87 104 90 126 L 137 464 L 193 464 L 145 126 C 142 105 139 83 137 61 C 135 39 134 18 135 0 L 80 0 Z" unicode="ì" />
<glyph horiz-adv-x="204" d="M 131 524 L 241 655 L 306 655 L 192 524 L 131 524 Z M 80 0 C 80 18 81 39 83 61 C 85 83 87 104 90 126 L 137 464 L 193 464 L 145 126 C 142 105 139 83 137 61 C 135 39 134 18 135 0 L 80 0 Z" unicode="í" />
<glyph horiz-adv-x="204" d="M 51 524 L 169 650 L 212 650 L 294 524 L 240 524 L 185 606 L 108 524 L 51 524 Z M 80 0 C 80 18 81 39 83 61 C 85 83 87 104 90 126 L 137 464 L 193 464 L 145 126 C 142 105 139 83 137 61 C 135 39 134 18 135 0 L 80 0 Z" unicode="î" />
<glyph horiz-adv-x="204" d="M 80 0 C 80 18 81 39 83 61 C 85 83 87 104 90 126 L 137 464 L 193 464 L 145 126 C 142 105 139 83 137 61 C 135 39 134 18 135 0 L 80 0 Z M 78 536 L 86 597 L 147 597 L 139 536 L 78 536 Z M 217 536 L 225 597 L 286 597 L 278 536 L 217 536 Z" unicode="ï" />
<glyph horiz-adv-x="546" d="M 289 -10 C 223 -10 172 11 134 53 C 96 95 78 146 78 204 C 78 281 102 345 150 397 C 198 448 258 474 330 474 C 365 474 396 467 424 453 C 451 439 472 419 487 392 C 480 432 467 470 449 508 C 430 546 405 582 375 616 L 274 584 L 270 631 L 338 652 C 324 664 309 677 293 690 C 277 702 259 714 241 726 L 300 746 C 318 734 334 721 350 709 C 366 696 380 683 394 670 L 486 699 L 491 652 L 429 632 C 468 584 497 533 516 477 C 534 421 544 362 544 300 C 544 209 520 135 472 77 C 424 19 363 -10 289 -10 Z M 290 41 C 346 41 392 62 429 106 C 465 150 484 204 484 270 C 478 324 461 363 433 387 C 404 411 370 423 332 423 C 276 423 229 402 191 361 C 153 319 134 268 134 206 C 134 158 148 119 177 88 C 206 56 244 41 290 41 Z" unicode="ð" />
<glyph horiz-adv-x="496" d="M 234 524 L 194 524 C 200 556 211 580 226 596 C 241 612 261 620 286 620 C 298 620 311 617 323 612 C 335 606 347 598 360 587 C 370 577 379 571 387 567 C 394 563 401 561 408 561 C 420 561 430 565 439 574 C 447 582 454 595 459 612 L 499 612 C 492 580 481 556 466 540 C 450 524 431 516 408 516 C 394 516 381 518 370 524 C 358 529 346 537 334 549 C 324 558 315 565 307 569 C 299 573 292 575 285 575 C 272 575 261 570 253 562 C 245 553 238 540 234 524 Z M 75 0 L 124 353 C 127 373 129 393 131 411 C 133 429 134 447 134 464 L 188 464 C 188 450 187 434 186 416 C 185 398 184 382 182 370 L 177 336 C 195 387 219 423 249 443 C 278 463 307 474 336 474 C 385 474 421 457 445 424 C 469 390 476 348 468 298 L 438 127 C 434 104 431 83 430 63 C 428 43 428 22 428 0 L 373 0 C 373 21 373 42 374 63 C 375 83 378 105 382 127 L 411 288 C 418 329 413 362 396 386 C 378 410 353 423 321 423 C 292 423 260 405 226 371 C 191 336 165 256 148 131 L 130 0 L 75 0 Z" unicode="ñ" />
<glyph horiz-adv-x="534" d="M 303 524 L 208 655 L 272 655 L 363 524 L 303 524 Z M 284 -10 C 223 -10 173 9 135 47 C 96 85 77 135 77 199 C 77 276 100 341 146 394 C 192 447 248 474 316 474 C 377 474 427 455 465 417 C 503 379 523 328 523 265 C 523 187 500 122 454 69 C 408 16 351 -10 284 -10 Z M 285 40 C 336 40 379 61 414 104 C 449 146 467 199 467 262 C 467 311 453 350 425 380 C 397 409 361 424 315 424 C 263 424 219 402 184 360 C 149 317 132 264 132 202 C 132 152 146 113 174 84 C 202 54 239 40 285 40 Z" unicode="ò" />
<glyph horiz-adv-x="534" d="M 273 524 L 383 655 L 448 655 L 334 524 L 273 524 Z M 284 -10 C 223 -10 173 9 135 47 C 96 85 77 135 77 199 C 77 276 100 341 146 394 C 192 447 248 474 316 474 C 377 474 427 455 465 417 C 503 379 523 328 523 265 C 523 187 500 122 454 69 C 408 16 351 -10 284 -10 Z M 285 40 C 336 40 379 61 414 104 C 449 146 467 199 467 262 C 467 311 453 350 425 380 C 397 409 361 424 315 424 C 263 424 219 402 184 360 C 149 317 132 264 132 202 C 132 152 146 113 174 84 C 202 54 239 40 285 40 Z" unicode="ó" />
<glyph horiz-adv-x="534" d="M 196 524 L 314 650 L 357 650 L 439 524 L 385 524 L 330 606 L 253 524 L 196 524 Z M 284 -10 C 223 -10 173 9 135 47 C 96 85 77 135 77 199 C 77 276 100 341 146 394 C 192 447 248 474 316 474 C 377 474 427 455 465 417 C 503 379 523 328 523 265 C 523 187 500 122 454 69 C 408 16 351 -10 284 -10 Z M 285 40 C 336 40 379 61 414 104 C 449 146 467 199 467 262 C 467 311 453 350 425 380 C 397 409 361 424 315 424 C 263 424 219 402 184 360 C 149 317 132 264 132 202 C 132 152 146 113 174 84 C 202 54 239 40 285 40 Z" unicode="ô" />
<glyph horiz-adv-x="534" d="M 213 524 L 173 524 C 179 556 190 580 205 596 C 220 612 240 620 265 620 C 277 620 290 617 302 612 C 314 606 326 598 339 587 C 349 577 358 571 366 567 C 373 563 380 561 387 561 C 399 561 409 565 418 574 C 426 582 433 595 438 612 L 478 612 C 471 580 460 556 445 540 C 429 524 410 516 387 516 C 373 516 360 518 349 524 C 337 529 325 537 313 549 C 303 558 294 565 286 569 C 278 573 271 575 264 575 C 251 575 240 570 232 562 C 224 553 217 540 213 524 Z M 284 -10 C 223 -10 173 9 135 47 C 96 85 77 135 77 199 C 77 276 100 341 146 394 C 192 447 248 474 316 474 C 377 474 427 455 465 417 C 503 379 523 328 523 265 C 523 187 500 122 454 69 C 408 16 351 -10 284 -10 Z M 285 40 C 336 40 379 61 414 104 C 449 146 467 199 467 262 C 467 311 453 350 425 380 C 397 409 361 424 315 424 C 263 424 219 402 184 360 C 149 317 132 264 132 202 C 132 152 146 113 174 84 C 202 54 239 40 285 40 Z" unicode="õ" />
<glyph horiz-adv-x="534" d="M 220 536 L 228 597 L 289 597 L 281 536 L 220 536 Z M 359 536 L 367 597 L 428 597 L 420 536 L 359 536 Z M 284 -10 C 223 -10 173 9 135 47 C 96 85 77 135 77 199 C 77 276 100 341 146 394 C 192 447 248 474 316 474 C 377 474 427 455 465 417 C 503 379 523 328 523 265 C 523 187 500 122 454 69 C 408 16 351 -10 284 -10 Z M 285 40 C 336 40 379 61 414 104 C 449 146 467 199 467 262 C 467 311 453 350 425 380 C 397 409 361 424 315 424 C 263 424 219 402 184 360 C 149 317 132 264 132 202 C 132 152 146 113 174 84 C 202 54 239 40 285 40 Z" unicode="ö" />
<glyph horiz-adv-x="500" d="M 259 427 L 267 485 L 325 485 L 317 427 L 259 427 Z M 66 264 L 73 313 L 502 313 L 495 264 L 66 264 Z M 222 92 L 231 150 L 289 150 L 280 92 L 222 92 Z" unicode="÷" />
<glyph horiz-adv-x="534" d="M 102 -73 L 171 39 L 181 56 L 396 426 L 408 445 L 462 534 L 512 534 L 445 425 L 433 408 L 218 34 L 207 18 L 152 -73 L 102 -73 Z M 284 -10 C 223 -10 173 9 135 47 C 96 85 77 135 77 199 C 77 276 100 341 146 394 C 192 447 248 474 316 474 C 377 474 427 455 465 417 C 503 379 523 328 523 265 C 523 187 500 122 454 69 C 408 16 351 -10 284 -10 Z M 285 40 C 336 40 379 61 414 104 C 449 146 467 199 467 262 C 467 311 453 350 425 380 C 397 409 361 424 315 424 C 263 424 219 402 184 360 C 149 317 132 264 132 202 C 132 152 146 113 174 84 C 202 54 239 40 285 40 Z" unicode="ø" />
<glyph horiz-adv-x="504" d="M 305 525 L 210 656 L 274 656 L 365 525 L 305 525 Z M 228 -12 C 182 -12 146 4 120 36 C 94 68 85 111 94 166 L 122 340 C 126 363 129 384 131 404 C 133 423 134 443 134 464 L 189 464 C 189 442 188 422 186 402 C 184 382 181 361 178 339 L 151 176 C 143 131 149 97 167 74 C 185 50 210 39 243 39 C 272 39 304 56 340 90 C 376 124 403 205 421 333 L 439 464 L 495 464 L 445 112 C 442 91 440 71 439 53 C 437 34 437 16 437 0 L 382 0 C 382 14 382 29 383 46 C 383 62 385 78 388 93 L 393 127 C 374 75 349 39 318 19 C 287 -1 257 -12 228 -12 Z" unicode="ù" />
<glyph horiz-adv-x="504" d="M 275 525 L 385 656 L 450 656 L 336 525 L 275 525 Z M 228 -12 C 182 -12 146 4 120 36 C 94 68 85 111 94 166 L 122 340 C 126 363 129 384 131 404 C 133 423 134 443 134 464 L 189 464 C 189 442 188 422 186 402 C 184 382 181 361 178 339 L 151 176 C 143 131 149 97 167 74 C 185 50 210 39 243 39 C 272 39 304 56 340 90 C 376 124 403 205 421 333 L 439 464 L 495 464 L 445 112 C 442 91 440 71 439 53 C 437 34 437 16 437 0 L 382 0 C 382 14 382 29 383 46 C 383 62 385 78 388 93 L 393 127 C 374 75 349 39 318 19 C 287 -1 257 -12 228 -12 Z" unicode="ú" />
<glyph horiz-adv-x="504" d="M 198 525 L 316 651 L 359 651 L 441 525 L 387 525 L 332 607 L 255 525 L 198 525 Z M 228 -12 C 182 -12 146 4 120 36 C 94 68 85 111 94 166 L 122 340 C 126 363 129 384 131 404 C 133 423 134 443 134 464 L 189 464 C 189 442 188 422 186 402 C 184 382 181 361 178 339 L 151 176 C 143 131 149 97 167 74 C 185 50 210 39 243 39 C 272 39 304 56 340 90 C 376 124 403 205 421 333 L 439 464 L 495 464 L 445 112 C 442 91 440 71 439 53 C 437 34 437 16 437 0 L 382 0 C 382 14 382 29 383 46 C 383 62 385 78 388 93 L 393 127 C 374 75 349 39 318 19 C 287 -1 257 -12 228 -12 Z" unicode="û" />
<glyph horiz-adv-x="504" d="M 228 -12 C 182 -12 146 4 120 36 C 94 68 85 111 94 166 L 122 340 C 126 363 129 384 131 404 C 133 423 134 443 134 464 L 189 464 C 189 442 188 422 186 402 C 184 382 181 361 178 339 L 151 176 C 143 131 149 97 167 74 C 185 50 210 39 243 39 C 272 39 304 56 340 90 C 376 124 403 205 421 333 L 439 464 L 495 464 L 445 112 C 442 91 440 71 439 53 C 437 34 437 16 437 0 L 382 0 C 382 14 382 29 383 46 C 383 62 385 78 388 93 L 393 127 C 374 75 349 39 318 19 C 287 -1 257 -12 228 -12 Z M 222 537 L 230 598 L 291 598 L 283 537 L 222 537 Z M 361 537 L 369 598 L 430 598 L 422 537 L 361 537 Z" unicode="ü" />
<glyph horiz-adv-x="472" d="M -27 -218 L -35 -218 L -28 -167 L -20 -167 C 28 -167 74 -153 119 -126 C 164 -99 202 -65 232 -23 L 113 464 L 172 464 L 257 110 L 274 26 C 310 87 343 155 374 230 C 404 304 432 382 456 464 L 513 464 C 437 225 356 52 269 -56 C 182 -164 83 -218 -27 -218 Z M 267 524 L 377 655 L 442 655 L 328 524 L 267 524 Z" unicode="ý" />
<glyph horiz-adv-x="517" d="M 41 -218 L 173 722 L 229 722 L 181 383 C 179 373 178 364 176 354 C 174 344 172 335 170 326 C 188 383 214 422 246 443 C 278 463 310 474 343 474 C 390 474 429 456 461 422 C 492 387 508 342 508 286 C 508 204 482 134 431 76 C 380 18 315 -10 236 -10 C 215 -10 196 -8 179 -5 C 162 -1 145 4 129 12 L 96 -218 L 41 -218 Z M 239 39 C 301 39 353 62 393 110 C 433 158 453 215 453 281 C 453 327 440 362 416 386 C 391 410 363 423 333 423 C 302 423 267 407 229 375 C 191 343 163 260 145 126 L 137 61 C 152 53 168 47 185 44 C 202 40 220 39 239 39 Z" unicode="þ" />
<glyph horiz-adv-x="472" d="M -27 -218 L -35 -218 L -28 -167 L -20 -167 C 28 -167 74 -153 119 -126 C 164 -99 202 -65 232 -23 L 113 464 L 172 464 L 257 110 L 274 26 C 310 87 343 155 374 230 C 404 304 432 382 456 464 L 513 464 C 437 225 356 52 269 -56 C 182 -164 83 -218 -27 -218 Z M 214 536 L 222 597 L 283 597 L 275 536 L 214 536 Z M 353 536 L 361 597 L 422 597 L 414 536 L 353 536 Z" unicode="ÿ" />
<glyph horiz-adv-x="614" d="M 18 0 L 373 667 L 428 667 L 596 0 L 537 0 L 482 224 L 194 224 L 76 0 L 18 0 Z M 364 545 L 221 275 L 469 275 L 402 545 L 390 597 L 364 545 Z M 304 720 L 310 764 L 514 764 L 508 720 L 304 720 Z" unicode="Ā" />
<glyph horiz-adv-x="513" d="M 232 -10 C 185 -10 146 7 114 42 C 82 76 67 121 67 177 C 67 259 95 329 151 387 C 207 445 274 474 354 474 C 377 474 401 472 426 468 C 451 464 476 459 502 451 L 455 118 C 452 97 450 77 448 58 C 446 39 445 20 445 0 L 391 0 C 391 14 391 30 393 46 C 394 62 395 78 397 93 L 401 125 C 383 75 358 40 326 20 C 294 0 263 -10 232 -10 Z M 242 40 C 273 40 308 57 346 92 C 384 126 412 208 430 337 L 440 412 C 426 416 411 419 396 421 C 381 423 365 424 349 424 C 287 424 233 400 189 352 C 145 304 123 247 123 181 C 123 135 135 100 159 76 C 183 52 211 40 242 40 Z M 249 532 L 255 578 L 466 578 L 459 532 L 249 532 Z" unicode="ā" />
<glyph horiz-adv-x="614" d="M 18 0 L 373 667 L 428 667 L 596 0 L 537 0 L 482 224 L 194 224 L 76 0 L 18 0 Z M 364 545 L 221 275 L 469 275 L 402 545 L 390 597 L 364 545 Z M 407 710 C 371 710 343 722 325 746 C 307 770 299 799 302 834 L 342 834 C 341 807 346 786 357 772 C 367 757 384 750 408 750 C 428 750 445 757 459 772 C 472 786 479 807 481 834 L 521 834 C 517 793 504 762 483 741 C 461 720 436 710 407 710 Z" unicode="Ă" />
<glyph horiz-adv-x="614" d="M 18 0 L 373 667 L 428 667 L 596 0 L 537 0 L 482 224 L 194 224 L 76 0 L 18 0 Z M 364 545 L 221 275 L 469 275 L 402 545 L 390 597 L 364 545 Z M 570 -220 C 529 -220 497 -209 473 -188 C 449 -166 437 -139 437 -107 C 437 -68 451 -36 480 -10 C 508 15 542 28 581 30 L 592 0 C 562 0 537 -9 517 -27 C 497 -45 487 -69 487 -98 C 487 -122 495 -140 512 -153 C 528 -166 550 -173 576 -173 L 570 -220 Z" unicode="Ą" />
<glyph horiz-adv-x="513" d="M 232 -10 C 185 -10 146 7 114 42 C 82 76 67 121 67 177 C 67 259 95 329 151 387 C 207 445 274 474 354 474 C 377 474 401 472 426 468 C 451 464 476 459 502 451 L 455 118 C 452 97 450 77 448 58 C 446 39 445 20 445 0 L 391 0 C 391 14 391 30 393 46 C 394 62 395 78 397 93 L 401 125 C 383 75 358 40 326 20 C 294 0 263 -10 232 -10 Z M 242 40 C 273 40 308 57 346 92 C 384 126 412 208 430 337 L 440 412 C 426 416 411 419 396 421 C 381 423 365 424 349 424 C 287 424 233 400 189 352 C 145 304 123 247 123 181 C 123 135 135 100 159 76 C 183 52 211 40 242 40 Z M 423 -218 C 380 -218 347 -210 324 -194 C 301 -178 290 -155 290 -123 C 290 -95 300 -68 322 -44 C 343 -20 379 6 431 35 L 444 0 C 403 -22 376 -42 362 -58 C 348 -74 341 -91 341 -111 C 341 -129 348 -144 363 -154 C 378 -164 400 -170 430 -170 L 423 -218 Z" unicode="ą" />
<glyph horiz-adv-x="669" d="M 419 -13 C 319 -13 241 15 183 73 C 125 131 97 203 97 289 C 97 397 134 488 208 561 C 282 634 377 671 492 671 C 527 671 563 666 599 657 C 635 648 670 635 705 618 L 698 560 C 666 578 632 593 597 603 C 562 613 526 619 489 619 C 392 619 312 587 250 525 C 187 463 156 385 156 291 C 156 216 180 155 230 109 C 279 63 343 40 423 40 C 461 40 498 45 534 55 C 570 65 605 81 641 101 L 632 41 C 596 22 561 8 526 0 C 490 -8 455 -13 419 -13 Z M 453 722 L 560 849 L 623 849 L 512 722 L 453 722 Z" unicode="Ć" />
<glyph horiz-adv-x="471" d="M 285 -10 C 221 -10 170 8 133 46 C 95 83 77 132 77 194 C 77 275 101 342 150 395 C 198 447 260 474 336 474 C 364 474 390 470 414 463 C 437 455 460 445 484 433 L 476 375 C 453 391 431 403 409 411 C 387 419 361 423 333 423 C 273 423 224 401 187 359 C 150 317 132 263 132 198 C 132 150 146 112 175 84 C 203 55 242 41 290 41 C 316 41 342 45 366 53 C 390 61 414 73 436 90 L 428 32 C 405 17 382 6 358 0 C 334 -6 309 -10 285 -10 Z M 278 528 L 388 659 L 453 659 L 339 528 L 278 528 Z" unicode="ć" />
<glyph horiz-adv-x="669" d="M 419 -13 C 319 -13 241 15 183 73 C 125 131 97 203 97 289 C 97 397 134 488 208 561 C 282 634 377 671 492 671 C 527 671 563 666 599 657 C 635 648 670 635 705 618 L 698 560 C 666 578 632 593 597 603 C 562 613 526 619 489 619 C 392 619 312 587 250 525 C 187 463 156 385 156 291 C 156 216 180 155 230 109 C 279 63 343 40 423 40 C 461 40 498 45 534 55 C 570 65 605 81 641 101 L 632 41 C 596 22 561 8 526 0 C 490 -8 455 -13 419 -13 Z M 376 722 L 491 845 L 531 845 L 612 722 L 562 722 L 507 803 L 430 722 L 376 722 Z" unicode="Ĉ" />
<glyph horiz-adv-x="471" d="M 201 528 L 319 654 L 362 654 L 444 528 L 390 528 L 335 610 L 258 528 L 201 528 Z M 285 -10 C 221 -10 170 8 133 46 C 95 83 77 132 77 194 C 77 275 101 342 150 395 C 198 447 260 474 336 474 C 364 474 390 470 414 463 C 437 455 460 445 484 433 L 476 375 C 453 391 431 403 409 411 C 387 419 361 423 333 423 C 273 423 224 401 187 359 C 150 317 132 263 132 198 C 132 150 146 112 175 84 C 203 55 242 41 290 41 C 316 41 342 45 366 53 C 390 61 414 73 436 90 L 428 32 C 405 17 382 6 358 0 C 334 -6 309 -10 285 -10 Z" unicode="ĉ" />
<glyph horiz-adv-x="669" d="M 464 722 L 473 785 L 536 785 L 527 722 L 464 722 Z M 419 -13 C 319 -13 241 15 183 73 C 125 131 97 203 97 289 C 97 397 134 488 208 561 C 282 634 377 671 492 671 C 527 671 563 666 599 657 C 635 648 670 635 705 618 L 698 560 C 666 578 632 593 597 603 C 562 613 526 619 489 619 C 392 619 312 587 250 525 C 187 463 156 385 156 291 C 156 216 180 155 230 109 C 279 63 343 40 423 40 C 461 40 498 45 534 55 C 570 65 605 81 641 101 L 632 41 C 596 22 561 8 526 0 C 490 -8 455 -13 419 -13 Z" unicode="Ċ" />
<glyph horiz-adv-x="471" d="M 285 -10 C 221 -10 170 8 133 46 C 95 83 77 132 77 194 C 77 275 101 342 150 395 C 198 447 260 474 336 474 C 364 474 390 470 414 463 C 437 455 460 445 484 433 L 476 375 C 453 391 431 403 409 411 C 387 419 361 423 333 423 C 273 423 224 401 187 359 C 150 317 132 263 132 198 C 132 150 146 112 175 84 C 203 55 242 41 290 41 C 316 41 342 45 366 53 C 390 61 414 73 436 90 L 428 32 C 405 17 382 6 358 0 C 334 -6 309 -10 285 -10 Z M 293 540 L 302 606 L 368 606 L 358 540 L 293 540 Z" unicode="ċ" />
<glyph horiz-adv-x="669" d="M 418 -13 C 318 -13 240 15 182 73 C 124 131 96 203 96 289 C 96 397 133 488 207 561 C 281 634 376 671 491 671 C 526 671 562 666 598 657 C 634 648 669 635 704 618 L 697 560 C 665 578 631 593 596 603 C 561 613 525 619 488 619 C 391 619 311 587 249 525 C 186 463 155 385 155 291 C 155 216 179 155 229 109 C 278 63 342 40 422 40 C 460 40 497 45 533 55 C 569 65 604 81 640 101 L 631 41 C 595 22 560 8 525 0 C 489 -8 454 -13 418 -13 Z M 477 714 L 396 837 L 446 837 L 500 756 L 577 837 L 631 837 L 517 714 L 477 714 Z" unicode="Č" />
<glyph horiz-adv-x="471" d="M 302 528 L 219 654 L 272 654 L 327 571 L 405 654 L 462 654 L 345 528 L 302 528 Z M 285 -10 C 221 -10 170 8 133 46 C 95 83 77 132 77 194 C 77 275 101 342 150 395 C 198 447 260 474 336 474 C 364 474 390 470 414 463 C 437 455 460 445 484 433 L 476 375 C 453 391 431 403 409 411 C 387 419 361 423 333 423 C 273 423 224 401 187 359 C 150 317 132 263 132 198 C 132 150 146 112 175 84 C 203 55 242 41 290 41 C 316 41 342 45 366 53 C 390 61 414 73 436 90 L 428 32 C 405 17 382 6 358 0 C 334 -6 309 -10 285 -10 Z" unicode="č" />
<glyph horiz-adv-x="696" d="M 79 0 L 171 658 L 362 658 C 463 658 543 631 603 578 C 662 524 692 456 692 374 C 692 266 653 177 576 106 C 499 35 396 0 268 0 L 79 0 Z M 144 53 L 273 53 C 383 53 471 83 536 144 C 600 204 633 280 633 372 C 633 440 608 495 559 539 C 509 583 443 605 360 605 L 221 605 L 144 53 Z M 349 712 L 268 835 L 318 835 L 372 754 L 449 835 L 503 835 L 389 712 L 349 712 Z" unicode="Ď" />
<glyph horiz-adv-x="599" d="M 616 546 L 579 567 C 594 586 605 605 613 623 C 621 641 626 661 629 682 L 634 722 L 685 722 L 680 682 C 676 657 670 634 661 612 C 651 590 636 568 616 546 Z M 239 -10 C 191 -10 152 7 121 42 C 89 76 74 121 74 177 C 74 259 101 329 156 387 C 210 445 275 474 350 474 C 366 474 383 472 401 468 C 418 464 435 457 452 449 L 491 722 L 547 722 L 462 118 C 459 97 457 77 455 58 C 453 39 452 20 452 0 L 397 0 C 397 14 397 30 399 46 C 401 62 402 77 404 93 L 407 125 C 389 75 365 40 333 20 C 301 0 269 -10 239 -10 Z M 249 40 C 279 40 314 57 352 91 C 390 125 418 207 437 337 L 445 397 C 430 405 414 412 397 417 C 380 421 362 424 344 424 C 287 424 237 400 194 352 C 150 304 129 247 129 181 C 129 135 141 100 166 76 C 190 52 218 40 249 40 Z" unicode="ď" />
<glyph horiz-adv-x="705" d="M 71 307 L 78 357 L 324 357 L 317 307 L 71 307 Z M 89 0 L 181 658 L 372 658 C 473 658 553 631 613 578 C 672 524 702 456 702 374 C 702 266 663 177 586 106 C 509 35 406 0 278 0 L 89 0 Z M 154 53 L 283 53 C 393 53 481 83 546 144 C 610 204 643 280 643 372 C 643 440 618 495 569 539 C 519 583 453 605 370 605 L 231 605 L 154 53 Z" unicode="Đ" />
<glyph horiz-adv-x="509" d="M 398 575 L 405 623 L 610 630 L 603 583 L 398 575 Z M 239 -10 C 191 -10 152 7 121 42 C 89 76 74 121 74 177 C 74 259 101 329 156 387 C 210 445 275 474 350 474 C 366 474 383 472 401 468 C 418 464 435 457 452 449 L 491 722 L 547 722 L 462 118 C 459 97 457 77 455 58 C 453 39 452 20 452 0 L 397 0 C 397 14 397 30 399 46 C 401 62 402 77 404 93 L 407 125 C 389 75 365 40 333 20 C 301 0 269 -10 239 -10 Z M 249 40 C 279 40 314 57 352 91 C 390 125 418 207 437 337 L 445 397 C 430 405 414 412 397 417 C 380 421 362 424 344 424 C 287 424 237 400 194 352 C 150 304 129 247 129 181 C 129 135 141 100 166 76 C 190 52 218 40 249 40 Z" unicode="đ" />
<glyph horiz-adv-x="492" d="M 79 0 L 171 658 L 510 658 L 502 605 L 220 605 L 186 360 L 461 360 L 453 307 L 179 307 L 143 53 L 443 53 L 435 0 L 79 0 Z M 255 720 L 261 764 L 465 764 L 459 720 L 255 720 Z" unicode="Ē" />
<glyph horiz-adv-x="479" d="M 281 -10 C 217 -10 167 9 131 48 C 95 87 78 139 78 205 C 78 281 101 345 147 397 C 193 448 250 474 319 474 C 363 474 398 463 424 441 C 450 419 464 392 464 358 C 464 310 444 275 404 252 C 364 228 300 214 212 208 L 135 204 C 134 152 147 111 174 82 C 200 53 238 39 286 39 C 315 39 342 44 368 54 C 394 64 419 80 444 102 L 435 40 C 411 22 386 9 362 1 C 337 -6 310 -10 281 -10 Z M 315 425 C 268 425 228 407 195 372 C 162 336 143 295 137 247 L 214 252 C 281 256 330 267 361 283 C 391 299 407 323 407 356 C 407 376 398 393 382 406 C 366 418 343 425 315 425 Z M 207 532 L 213 578 L 424 578 L 417 532 L 207 532 Z" unicode="ē" />
<glyph horiz-adv-x="492" d="M 358 710 C 322 710 294 722 276 746 C 258 770 250 799 253 834 L 293 834 C 292 807 297 786 308 772 C 318 757 335 750 359 750 C 379 750 396 757 410 772 C 423 786 430 807 432 834 L 472 834 C 468 793 455 762 434 741 C 412 720 387 710 358 710 Z M 79 0 L 171 658 L 510 658 L 502 605 L 220 605 L 186 360 L 461 360 L 453 307 L 179 307 L 143 53 L 443 53 L 435 0 L 79 0 Z" unicode="Ĕ" />
<glyph horiz-adv-x="479" d="M 281 -10 C 217 -10 167 9 131 48 C 95 87 78 139 78 205 C 78 281 101 345 147 397 C 193 448 250 474 319 474 C 363 474 398 463 424 441 C 450 419 464 392 464 358 C 464 310 444 275 404 252 C 364 228 300 214 212 208 L 135 204 C 134 152 147 111 174 82 C 200 53 238 39 286 39 C 315 39 342 44 368 54 C 394 64 419 80 444 102 L 435 40 C 411 22 386 9 362 1 C 337 -6 310 -10 281 -10 Z M 315 425 C 268 425 228 407 195 372 C 162 336 143 295 137 247 L 214 252 C 281 256 330 267 361 283 C 391 299 407 323 407 356 C 407 376 398 393 382 406 C 366 418 343 425 315 425 Z M 311 516 C 275 516 247 528 228 552 C 209 576 201 607 204 643 L 246 643 C 245 616 250 595 261 580 C 272 565 289 558 313 558 C 333 558 350 565 364 580 C 378 595 385 616 387 643 L 429 643 C 425 601 412 569 390 548 C 368 526 341 516 311 516 Z" unicode="ĕ" />
<glyph horiz-adv-x="492" d="M 325 720 L 334 783 L 397 783 L 388 720 L 325 720 Z M 79 0 L 171 658 L 510 658 L 502 605 L 220 605 L 186 360 L 461 360 L 453 307 L 179 307 L 143 53 L 443 53 L 435 0 L 79 0 Z" unicode="Ė" />
<glyph horiz-adv-x="479" d="M 280 536 L 289 602 L 355 602 L 345 536 L 280 536 Z M 281 -10 C 217 -10 167 9 131 48 C 95 87 78 139 78 205 C 78 281 101 345 147 397 C 193 448 250 474 319 474 C 363 474 398 463 424 441 C 450 419 464 392 464 358 C 464 310 444 275 404 252 C 364 228 300 214 212 208 L 135 204 C 134 152 147 111 174 82 C 200 53 238 39 286 39 C 315 39 342 44 368 54 C 394 64 419 80 444 102 L 435 40 C 411 22 386 9 362 1 C 337 -6 310 -10 281 -10 Z M 315 425 C 268 425 228 407 195 372 C 162 336 143 295 137 247 L 214 252 C 281 256 330 267 361 283 C 391 299 407 323 407 356 C 407 376 398 393 382 406 C 366 418 343 425 315 425 Z" unicode="ė" />
<glyph horiz-adv-x="492" d="M 410 -220 C 369 -220 337 -209 313 -188 C 289 -166 277 -139 277 -107 C 277 -68 291 -36 320 -10 C 348 15 382 28 421 30 L 432 0 C 402 0 377 -9 357 -27 C 337 -45 327 -69 327 -98 C 327 -122 335 -140 352 -153 C 368 -166 390 -173 416 -173 L 410 -220 Z M 79 0 L 171 658 L 510 658 L 502 605 L 220 605 L 186 360 L 461 360 L 453 307 L 179 307 L 143 53 L 443 53 L 435 0 L 79 0 Z" unicode="Ę" />
<glyph horiz-adv-x="479" d="M 409 -218 C 365 -218 330 -206 304 -183 C 278 -160 265 -131 265 -97 C 265 -64 275 -35 296 -11 C 316 12 342 29 374 39 L 384 9 C 363 0 346 -12 334 -30 C 322 -48 316 -67 316 -89 C 316 -115 325 -135 344 -150 C 362 -164 386 -172 415 -172 L 409 -218 Z M 281 -10 C 217 -10 167 9 131 48 C 95 87 78 139 78 205 C 78 281 101 345 147 397 C 193 448 250 474 319 474 C 363 474 398 463 424 441 C 450 419 464 392 464 358 C 464 310 444 275 404 252 C 364 228 300 214 212 208 L 135 204 C 134 152 147 111 174 82 C 200 53 238 39 286 39 C 315 39 342 44 368 54 C 394 64 419 80 444 102 L 435 40 C 411 22 386 9 362 1 C 337 -6 310 -10 281 -10 Z M 315 425 C 268 425 228 407 195 372 C 162 336 143 295 137 247 L 214 252 C 281 256 330 267 361 283 C 391 299 407 323 407 356 C 407 376 398 393 382 406 C 366 418 343 425 315 425 Z" unicode="ę" />
<glyph horiz-adv-x="493" d="M 79 0 L 171 658 L 510 658 L 502 605 L 220 605 L 186 360 L 461 360 L 453 307 L 179 307 L 143 53 L 443 53 L 435 0 L 79 0 Z M 336 712 L 255 835 L 305 835 L 359 754 L 436 835 L 490 835 L 376 712 L 336 712 Z" unicode="Ě" />
<glyph horiz-adv-x="479" d="M 289 524 L 206 650 L 259 650 L 314 567 L 392 650 L 449 650 L 332 524 L 289 524 Z M 281 -10 C 217 -10 167 9 131 48 C 95 87 78 139 78 205 C 78 281 101 345 147 397 C 193 448 250 474 319 474 C 363 474 398 463 424 441 C 450 419 464 392 464 358 C 464 310 444 275 404 252 C 364 228 300 214 212 208 L 135 204 C 134 152 147 111 174 82 C 200 53 238 39 286 39 C 315 39 342 44 368 54 C 394 64 419 80 444 102 L 435 40 C 411 22 386 9 362 1 C 337 -6 310 -10 281 -10 Z M 315 425 C 268 425 228 407 195 372 C 162 336 143 295 137 247 L 214 252 C 281 256 330 267 361 283 C 391 299 407 323 407 356 C 407 376 398 393 382 406 C 366 418 343 425 315 425 Z" unicode="ě" />
<glyph horiz-adv-x="687" d="M 364 722 L 479 845 L 519 845 L 600 722 L 550 722 L 495 803 L 418 722 L 364 722 Z M 411 -13 C 314 -13 237 15 181 72 C 125 128 97 200 97 287 C 97 401 133 494 207 565 C 281 635 372 671 482 671 C 520 671 556 667 590 659 C 624 651 656 639 687 625 L 680 569 C 649 585 617 598 584 606 C 551 614 516 619 480 619 C 386 619 308 588 247 527 C 186 466 156 387 156 289 C 156 215 180 155 229 109 C 277 63 339 40 414 40 C 442 40 471 42 499 48 C 527 53 554 63 580 77 L 606 268 L 467 268 L 474 321 L 671 321 L 632 41 C 594 21 556 7 517 -1 C 477 -9 442 -13 411 -13 Z" unicode="Ĝ" />
<glyph horiz-adv-x="513" d="M 207 524 L 325 650 L 368 650 L 450 524 L 396 524 L 341 606 L 264 524 L 207 524 Z M 211 -226 C 179 -226 150 -222 122 -216 C 94 -209 67 -199 41 -187 L 49 -130 C 73 -145 98 -156 126 -164 C 154 -172 182 -176 211 -176 C 255 -176 293 -162 326 -135 C 359 -107 380 -60 390 8 L 407 125 C 388 74 363 39 332 19 C 300 0 269 -10 238 -10 C 191 -10 152 7 120 42 C 88 76 73 121 73 177 C 73 259 101 329 157 387 C 213 445 280 474 360 474 C 383 474 407 472 432 468 C 457 464 482 459 508 451 L 446 11 C 434 -73 407 -133 365 -170 C 323 -207 271 -226 211 -226 Z M 248 40 C 279 40 313 57 351 91 C 389 125 417 207 436 337 L 447 412 C 433 416 418 419 403 421 C 387 423 371 424 355 424 C 293 424 239 400 195 352 C 151 304 129 247 129 181 C 129 135 141 100 165 76 C 189 52 217 40 248 40 Z" unicode="ĝ" />
<glyph horiz-adv-x="687" d="M 486 712 C 450 712 422 724 404 748 C 386 772 378 801 381 836 L 421 836 C 420 809 425 788 436 774 C 446 759 463 752 487 752 C 507 752 524 759 538 774 C 551 788 558 809 560 836 L 600 836 C 596 795 583 764 562 743 C 540 722 515 712 486 712 Z M 411 -13 C 314 -13 237 15 181 72 C 125 128 97 200 97 287 C 97 401 133 494 207 565 C 281 635 372 671 482 671 C 520 671 556 667 590 659 C 624 651 656 639 687 625 L 680 569 C 649 585 617 598 584 606 C 551 614 516 619 480 619 C 386 619 308 588 247 527 C 186 466 156 387 156 289 C 156 215 180 155 229 109 C 277 63 339 40 414 40 C 442 40 471 42 499 48 C 527 53 554 63 580 77 L 606 268 L 467 268 L 474 321 L 671 321 L 632 41 C 594 21 556 7 517 -1 C 477 -9 442 -13 411 -13 Z" unicode="Ğ" />
<glyph horiz-adv-x="513" d="M 330 516 C 294 516 266 528 247 552 C 228 576 220 607 223 643 L 265 643 C 264 616 269 595 280 580 C 291 565 308 558 332 558 C 352 558 369 565 383 580 C 397 595 404 616 406 643 L 448 643 C 444 601 431 569 409 548 C 387 526 360 516 330 516 Z M 211 -226 C 179 -226 150 -222 122 -216 C 94 -209 67 -199 41 -187 L 49 -130 C 73 -145 98 -156 126 -164 C 154 -172 182 -176 211 -176 C 255 -176 293 -162 326 -135 C 359 -107 380 -60 390 8 L 407 125 C 388 74 363 39 332 19 C 300 0 269 -10 238 -10 C 191 -10 152 7 120 42 C 88 76 73 121 73 177 C 73 259 101 329 157 387 C 213 445 280 474 360 474 C 383 474 407 472 432 468 C 457 464 482 459 508 451 L 446 11 C 434 -73 407 -133 365 -170 C 323 -207 271 -226 211 -226 Z M 248 40 C 279 40 313 57 351 91 C 389 125 417 207 436 337 L 447 412 C 433 416 418 419 403 421 C 387 423 371 424 355 424 C 293 424 239 400 195 352 C 151 304 129 247 129 181 C 129 135 141 100 165 76 C 189 52 217 40 248 40 Z" unicode="ğ" />
<glyph horiz-adv-x="687" d="M 452 722 L 461 785 L 524 785 L 515 722 L 452 722 Z M 411 -13 C 314 -13 237 15 181 72 C 125 128 97 200 97 287 C 97 401 133 494 207 565 C 281 635 372 671 482 671 C 520 671 556 667 590 659 C 624 651 656 639 687 625 L 680 569 C 649 585 617 598 584 606 C 551 614 516 619 480 619 C 386 619 308 588 247 527 C 186 466 156 387 156 289 C 156 215 180 155 229 109 C 277 63 339 40 414 40 C 442 40 471 42 499 48 C 527 53 554 63 580 77 L 606 268 L 467 268 L 474 321 L 671 321 L 632 41 C 594 21 556 7 517 -1 C 477 -9 442 -13 411 -13 Z" unicode="Ġ" />
<glyph horiz-adv-x="513" d="M 299 536 L 308 602 L 374 602 L 364 536 L 299 536 Z M 211 -226 C 179 -226 150 -222 122 -216 C 94 -209 67 -199 41 -187 L 49 -130 C 73 -145 98 -156 126 -164 C 154 -172 182 -176 211 -176 C 255 -176 293 -162 326 -135 C 359 -107 380 -60 390 8 L 407 125 C 388 74 363 39 332 19 C 300 0 269 -10 238 -10 C 191 -10 152 7 120 42 C 88 76 73 121 73 177 C 73 259 101 329 157 387 C 213 445 280 474 360 474 C 383 474 407 472 432 468 C 457 464 482 459 508 451 L 446 11 C 434 -73 407 -133 365 -170 C 323 -207 271 -226 211 -226 Z M 248 40 C 279 40 313 57 351 91 C 389 125 417 207 436 337 L 447 412 C 433 416 418 419 403 421 C 387 423 371 424 355 424 C 293 424 239 400 195 352 C 151 304 129 247 129 181 C 129 135 141 100 165 76 C 189 52 217 40 248 40 Z" unicode="ġ" />
<glyph horiz-adv-x="688" d="M 363 -227 L 328 -207 C 343 -188 354 -170 362 -152 C 369 -134 374 -115 377 -95 L 382 -56 L 430 -56 L 425 -95 C 422 -118 416 -140 406 -162 C 396 -184 382 -205 363 -227 Z M 411 -13 C 314 -13 237 15 181 72 C 125 128 97 200 97 287 C 97 401 133 494 207 565 C 281 635 372 671 482 671 C 520 671 556 667 590 659 C 624 651 656 639 687 625 L 680 569 C 649 585 617 598 584 606 C 551 614 516 619 480 619 C 386 619 308 588 247 527 C 186 466 156 387 156 289 C 156 215 180 155 229 109 C 277 63 339 40 414 40 C 442 40 471 42 499 48 C 527 53 554 63 580 77 L 606 268 L 467 268 L 474 321 L 671 321 L 632 41 C 594 21 556 7 517 -1 C 477 -9 442 -13 411 -13 Z" unicode="Ģ" />
<glyph horiz-adv-x="513" d="M 211 -226 C 179 -226 150 -222 122 -216 C 94 -209 67 -199 41 -187 L 49 -130 C 73 -145 98 -156 126 -164 C 154 -172 182 -176 211 -176 C 255 -176 293 -162 326 -135 C 359 -107 380 -60 390 8 L 407 125 C 388 74 363 39 332 19 C 300 0 269 -10 238 -10 C 191 -10 152 7 120 42 C 88 76 73 121 73 177 C 73 259 101 329 157 387 C 213 445 280 474 360 474 C 383 474 407 472 432 468 C 457 464 482 459 508 451 L 446 11 C 434 -73 407 -133 365 -170 C 323 -207 271 -226 211 -226 Z M 248 40 C 279 40 313 57 351 91 C 389 125 417 207 436 337 L 447 412 C 433 416 418 419 403 421 C 387 423 371 424 355 424 C 293 424 239 400 195 352 C 151 304 129 247 129 181 C 129 135 141 100 165 76 C 189 52 217 40 248 40 Z M 372 693 L 409 672 C 393 652 382 633 374 615 C 366 597 361 577 359 557 L 354 517 L 303 517 L 308 557 C 311 581 317 605 327 627 C 336 649 351 671 372 693 Z" unicode="ģ" />
<glyph horiz-adv-x="684" d="M 79 0 L 171 658 L 228 658 L 187 364 L 598 364 L 639 658 L 697 658 L 605 0 L 547 0 L 592 312 L 180 312 L 136 0 L 79 0 Z M 315 720 L 430 843 L 470 843 L 551 720 L 501 720 L 446 801 L 369 720 L 315 720 Z" unicode="Ĥ" />
<glyph horiz-adv-x="502" d="M 71 0 L 173 722 L 229 722 L 192 463 C 189 443 186 422 183 400 C 179 378 176 357 172 336 C 191 387 216 423 248 443 C 279 463 310 474 340 474 C 386 474 422 458 449 426 C 475 394 484 352 475 298 L 443 127 C 439 104 436 83 435 63 C 433 43 433 22 433 0 L 377 0 C 377 21 377 42 379 63 C 381 83 384 105 388 127 L 418 288 C 426 332 421 365 402 389 C 383 412 357 424 325 424 C 296 424 263 407 227 374 C 190 340 163 259 145 131 L 127 0 L 71 0 Z M 79 730 L 197 856 L 240 856 L 322 730 L 268 730 L 213 812 L 136 730 L 79 730 Z" unicode="ĥ" />
<glyph horiz-adv-x="678" d="M 76 0 L 143 480 L 93 480 L 100 530 L 150 530 L 168 658 L 226 658 L 208 530 L 619 530 L 637 658 L 694 658 L 676 530 L 726 530 L 719 480 L 669 480 L 602 0 L 545 0 L 588 310 L 177 310 L 134 0 L 76 0 Z M 184 363 L 595 363 L 612 480 L 201 480 L 184 363 Z" unicode="Ħ" />
<glyph horiz-adv-x="502" d="M 98 577 L 104 626 L 300 626 L 294 577 L 98 577 Z M 71 0 L 173 722 L 229 722 L 192 463 C 189 443 186 422 183 400 C 179 378 176 357 172 336 C 191 387 216 423 248 443 C 279 463 310 474 340 474 C 386 474 422 458 449 426 C 475 394 484 352 475 298 L 443 127 C 439 104 436 83 435 63 C 433 43 433 22 433 0 L 377 0 C 377 21 377 42 379 63 C 381 83 384 105 388 127 L 418 288 C 426 332 421 365 402 389 C 383 412 357 424 325 424 C 296 424 263 407 227 374 C 190 340 163 259 145 131 L 127 0 L 71 0 Z" unicode="ħ" />
<glyph horiz-adv-x="215" d="M 79 0 L 171 658 L 228 658 L 136 0 L 79 0 Z M 101 720 L 65 720 C 71 750 81 773 96 789 C 110 804 130 812 154 812 C 166 812 178 809 190 804 C 201 799 213 791 226 780 C 236 771 244 764 252 760 C 259 756 266 754 273 754 C 285 754 295 758 304 767 C 313 775 320 788 325 805 L 361 805 C 354 774 343 751 329 735 C 314 719 295 712 273 712 C 259 712 247 714 236 720 C 224 725 212 733 200 745 C 190 753 182 760 175 764 C 167 768 160 770 153 770 C 140 770 129 765 121 757 C 112 749 105 736 101 720 Z" unicode="Ĩ" />
<glyph horiz-adv-x="204" d="M 80 0 C 80 18 81 39 83 61 C 85 83 87 104 90 126 L 137 464 L 193 464 L 145 126 C 142 105 139 83 137 61 C 135 39 134 18 135 0 L 80 0 Z M 71 524 L 31 524 C 37 556 48 580 63 596 C 78 612 98 620 123 620 C 135 620 148 617 160 612 C 172 606 184 598 197 587 C 207 577 216 571 224 567 C 231 563 238 561 245 561 C 257 561 267 565 276 574 C 284 582 291 595 296 612 L 336 612 C 329 580 318 556 303 540 C 287 524 268 516 245 516 C 231 516 218 518 207 524 C 195 529 183 537 171 549 C 161 558 152 565 144 569 C 136 573 129 575 122 575 C 109 575 98 570 90 562 C 82 553 75 540 71 524 Z" unicode="ĩ" />
<glyph horiz-adv-x="215" d="M 79 0 L 171 658 L 228 658 L 136 0 L 79 0 Z M 108 720 L 114 764 L 318 764 L 312 720 L 108 720 Z" unicode="Ī" />
<glyph horiz-adv-x="204" d="M 80 0 C 80 18 81 39 83 61 C 85 83 87 104 90 126 L 137 464 L 193 464 L 145 126 C 142 105 139 83 137 61 C 135 39 134 18 135 0 L 80 0 Z M 72 532 L 78 578 L 289 578 L 282 532 L 72 532 Z" unicode="ī" />
<glyph horiz-adv-x="215" d="M 79 0 L 171 658 L 228 658 L 136 0 L 79 0 Z M 211 710 C 175 710 147 722 129 746 C 111 770 103 799 106 834 L 146 834 C 145 807 150 786 161 772 C 171 757 188 750 212 750 C 232 750 249 757 263 772 C 276 786 283 807 285 834 L 325 834 C 321 793 308 762 287 741 C 265 720 240 710 211 710 Z" unicode="Ĭ" />
<glyph horiz-adv-x="204" d="M 80 0 C 80 18 81 39 83 61 C 85 83 87 104 90 126 L 137 464 L 193 464 L 145 126 C 142 105 139 83 137 61 C 135 39 134 18 135 0 L 80 0 Z M 177 516 C 141 516 113 528 94 552 C 75 576 67 607 70 643 L 112 643 C 111 616 116 595 127 580 C 138 565 155 558 179 558 C 199 558 216 565 230 580 C 244 595 251 616 253 643 L 295 643 C 291 601 278 569 256 548 C 234 526 207 516 177 516 Z" unicode="ĭ" />
<glyph horiz-adv-x="215" d="M 79 0 L 171 658 L 228 658 L 136 0 L 79 0 Z M 113 -218 C 70 -218 37 -210 14 -194 C -8 -178 -20 -155 -20 -123 C -20 -95 -9 -68 12 -44 C 33 -20 69 6 121 35 L 134 0 C 93 -22 66 -42 52 -58 C 38 -74 31 -91 31 -111 C 31 -129 38 -144 53 -154 C 68 -164 90 -170 120 -170 L 113 -218 Z" unicode="Į" />
<glyph horiz-adv-x="206" d="M 159 618 L 167 678 L 228 678 L 220 618 L 159 618 Z M 82 0 C 82 21 83 42 85 64 C 87 86 89 106 92 126 L 140 464 L 195 464 L 147 126 C 144 106 142 85 140 63 C 138 41 137 20 137 0 L 82 0 Z" unicode="į" />
<glyph horiz-adv-x="215" d="M 79 0 L 171 658 L 228 658 L 136 0 L 79 0 Z M 177 720 L 186 783 L 249 783 L 240 720 L 177 720 Z" unicode="İ" />
<glyph horiz-adv-x="204" d="M 80 0 C 80 18 81 39 83 61 C 85 83 87 104 90 126 L 137 464 L 193 464 L 145 126 C 142 105 139 83 137 61 C 135 39 134 18 135 0 L 80 0 Z" unicode="ı" />
<glyph horiz-adv-x="227" d="M 79 0 L 171 658 L 228 658 L 136 0 L 79 0 Z M -34 -218 L -42 -218 L -35 -165 L -27 -165 C 2 -165 26 -156 45 -140 C 64 -124 76 -99 81 -66 L 183 658 L 240 658 L 139 -66 C 131 -117 112 -155 81 -180 C 50 -205 12 -218 -34 -218 Z" unicode="Ĳ" />
<glyph horiz-adv-x="195" d="M 159 618 L 167 678 L 228 678 L 220 618 L 159 618 Z M 82 0 C 82 21 83 42 85 64 C 87 86 89 106 92 126 L 140 464 L 195 464 L 147 126 C 144 106 142 85 140 63 C 138 41 137 20 137 0 L 82 0 Z M 153 635 L 161 695 L 222 695 L 214 635 L 153 635 Z M -57 -218 L -65 -218 L -58 -167 L -50 -167 C -20 -167 4 -157 24 -137 C 44 -117 56 -90 61 -56 L 134 464 L 189 464 L 116 -56 C 108 -110 89 -150 59 -177 C 28 -204 -10 -218 -57 -218 Z" unicode="ĳ" />
<glyph horiz-adv-x="227" d="M 101 720 L 216 843 L 256 843 L 337 720 L 287 720 L 232 801 L 155 720 L 101 720 Z M -34 -218 L -42 -218 L -35 -165 L -27 -165 C 2 -165 26 -156 45 -140 C 64 -124 76 -99 81 -66 L 183 658 L 240 658 L 139 -66 C 131 -117 112 -155 81 -180 C 50 -205 12 -218 -34 -218 Z" unicode="Ĵ" />
<glyph horiz-adv-x="194" d="M -57 -218 L -65 -218 L -58 -167 L -50 -167 C -20 -167 4 -157 24 -137 C 44 -117 56 -90 61 -56 L 134 464 L 189 464 L 116 -56 C 108 -106 89 -145 59 -174 C 28 -203 -10 -218 -57 -218 Z M 47 524 L 165 650 L 208 650 L 290 524 L 236 524 L 181 606 L 104 524 L 47 524 Z" unicode="ĵ" />
<glyph horiz-adv-x="532" d="M 235 -219 L 200 -199 C 215 -180 226 -162 234 -144 C 241 -126 246 -107 249 -87 L 254 -48 L 302 -48 L 297 -87 C 294 -110 288 -132 278 -154 C 268 -176 254 -197 235 -219 Z M 79 0 L 171 658 L 228 658 L 185 353 L 523 658 L 596 658 L 238 335 L 515 0 L 443 0 L 181 320 L 136 0 L 79 0 Z" unicode="Ķ" />
<glyph horiz-adv-x="444" d="M 71 0 L 173 722 L 229 722 L 163 256 C 212 288 257 321 299 355 C 341 389 378 426 410 464 L 474 464 C 435 416 396 375 356 341 C 316 306 271 273 221 242 L 427 0 L 359 0 L 160 236 L 127 0 L 71 0 Z M 166 -238 L 129 -217 C 144 -197 155 -178 163 -160 C 171 -142 176 -122 179 -102 L 184 -62 L 235 -62 L 230 -102 C 226 -126 220 -150 211 -172 C 201 -194 186 -216 166 -238 Z" unicode="ķ" />
<glyph horiz-adv-x="451" d="M 79 0 L 171 658 L 228 658 L 144 53 L 438 53 L 431 0 L 79 0 Z M 178 720 L 285 847 L 348 847 L 237 720 L 178 720 Z" unicode="Ĺ" />
<glyph horiz-adv-x="198" d="M 163 782 L 273 913 L 338 913 L 224 782 L 163 782 Z M 81 0 C 81 21 81 44 83 68 C 85 92 87 113 90 133 L 174 722 L 229 722 L 146 127 C 143 106 140 85 138 64 C 136 42 135 21 136 0 L 81 0 Z" unicode="ĺ" />
<glyph horiz-adv-x="451" d="M 217 -219 L 182 -199 C 197 -180 208 -162 216 -144 C 223 -126 228 -107 231 -87 L 236 -48 L 284 -48 L 279 -87 C 276 -110 270 -132 260 -154 C 250 -176 236 -197 217 -219 Z M 79 0 L 171 658 L 228 658 L 144 53 L 438 53 L 431 0 L 79 0 Z" unicode="Ļ" />
<glyph horiz-adv-x="192" d="M 58 -222 L 21 -201 C 36 -181 47 -162 55 -144 C 63 -126 68 -106 71 -86 L 76 -46 L 127 -46 L 122 -86 C 118 -110 112 -134 103 -156 C 93 -178 78 -200 58 -222 Z M 81 0 C 81 21 81 44 83 68 C 85 92 87 113 90 133 L 174 722 L 229 722 L 146 127 C 143 106 140 85 138 64 C 136 42 135 21 136 0 L 81 0 Z" unicode="ļ" />
<glyph horiz-adv-x="451" d="M 349 487 L 315 507 C 330 525 341 544 349 562 C 356 580 361 599 364 619 L 369 658 L 417 658 L 412 619 C 408 595 402 572 393 551 C 383 529 369 508 349 487 Z M 79 0 L 171 658 L 228 658 L 144 53 L 438 53 L 431 0 L 79 0 Z" unicode="Ľ" />
<glyph horiz-adv-x="269" d="M 286 546 L 249 567 C 264 586 275 605 283 623 C 291 641 296 661 299 682 L 304 722 L 355 722 L 350 682 C 346 657 340 634 331 612 C 321 590 306 568 286 546 Z M 81 0 C 81 21 81 44 83 68 C 85 92 87 113 90 133 L 174 722 L 229 722 L 146 127 C 143 106 140 85 138 64 C 136 42 135 21 136 0 L 81 0 Z" unicode="ľ" />
<glyph horiz-adv-x="454" d="M 356 321 L 365 382 L 427 382 L 418 321 L 356 321 Z M 79 0 L 171 658 L 228 658 L 144 53 L 438 53 L 431 0 L 79 0 Z" unicode="Ŀ" />
<glyph horiz-adv-x="214" d="M 221 324 L 230 385 L 292 385 L 283 324 L 221 324 Z M 80 0 C 80 21 80 44 82 68 C 84 92 86 113 89 133 L 173 722 L 228 722 L 145 127 C 142 106 139 85 137 64 C 135 42 134 21 135 0 L 80 0 Z" unicode="ŀ" />
<glyph horiz-adv-x="449" d="M 41 282 L 48 335 L 280 417 L 273 364 L 41 282 Z M 79 0 L 171 658 L 228 658 L 144 53 L 438 53 L 431 0 L 79 0 Z" unicode="Ł" />
<glyph horiz-adv-x="203" d="M 62 317 L 69 369 L 256 419 L 249 368 L 62 317 Z M 87 0 C 87 21 87 44 89 68 C 91 92 93 113 96 133 L 180 722 L 235 722 L 152 127 C 149 106 146 85 144 64 C 142 42 141 21 142 0 L 87 0 Z" unicode="ł" />
<glyph horiz-adv-x="707" d="M 79 0 L 171 658 L 233 658 L 560 123 L 586 77 L 592 123 L 667 658 L 720 658 L 628 0 L 567 0 L 239 537 L 213 582 L 207 537 L 132 0 L 79 0 Z M 403 720 L 510 847 L 573 847 L 462 720 L 403 720 Z" unicode="Ń" />
<glyph horiz-adv-x="496" d="M 294 524 L 404 655 L 469 655 L 355 524 L 294 524 Z M 75 0 L 124 353 C 127 373 129 393 131 411 C 133 429 134 447 134 464 L 188 464 C 188 450 187 434 186 416 C 185 398 184 382 182 370 L 177 336 C 195 387 219 423 249 443 C 278 463 307 474 336 474 C 385 474 421 457 445 424 C 469 390 476 348 468 298 L 438 127 C 434 104 431 83 430 63 C 428 43 428 22 428 0 L 373 0 C 373 21 373 42 374 63 C 375 83 378 105 382 127 L 411 288 C 418 329 413 362 396 386 C 378 410 353 423 321 423 C 292 423 260 405 226 371 C 191 336 165 256 148 131 L 130 0 L 75 0 Z" unicode="ń" />
<glyph horiz-adv-x="708" d="M 309 -231 L 274 -211 C 289 -192 300 -174 308 -156 C 315 -138 320 -119 323 -99 L 328 -60 L 376 -60 L 371 -99 C 368 -122 362 -144 352 -166 C 342 -188 328 -209 309 -231 Z M 79 0 L 171 658 L 233 658 L 560 123 L 586 77 L 592 123 L 667 658 L 720 658 L 628 0 L 567 0 L 239 537 L 213 582 L 207 537 L 132 0 L 79 0 Z" unicode="Ņ" />
<glyph horiz-adv-x="496" d="M 206 -234 L 169 -213 C 184 -193 195 -174 203 -156 C 211 -138 216 -118 219 -98 L 224 -58 L 275 -58 L 270 -98 C 266 -122 260 -146 251 -168 C 241 -190 226 -212 206 -234 Z M 75 0 L 124 353 C 127 373 129 393 131 411 C 133 429 134 447 134 464 L 188 464 C 188 450 187 434 186 416 C 185 398 184 382 182 370 L 177 336 C 195 387 219 423 249 443 C 278 463 307 474 336 474 C 385 474 421 457 445 424 C 469 390 476 348 468 298 L 438 127 C 434 104 431 83 430 63 C 428 43 428 22 428 0 L 373 0 C 373 21 373 42 374 63 C 375 83 378 105 382 127 L 411 288 C 418 329 413 362 396 386 C 378 410 353 423 321 423 C 292 423 260 405 226 371 C 191 336 165 256 148 131 L 130 0 L 75 0 Z" unicode="ņ" />
<glyph horiz-adv-x="708" d="M 426 712 L 345 835 L 395 835 L 449 754 L 526 835 L 580 835 L 466 712 L 426 712 Z M 79 0 L 171 658 L 233 658 L 560 123 L 586 77 L 592 123 L 667 658 L 720 658 L 628 0 L 567 0 L 239 537 L 213 582 L 207 537 L 132 0 L 79 0 Z" unicode="Ň" />
<glyph horiz-adv-x="496" d="M 318 524 L 235 650 L 288 650 L 343 567 L 421 650 L 478 650 L 361 524 L 318 524 Z M 75 0 L 124 353 C 127 373 129 393 131 411 C 133 429 134 447 134 464 L 188 464 C 188 450 187 434 186 416 C 185 398 184 382 182 370 L 177 336 C 195 387 219 423 249 443 C 278 463 307 474 336 474 C 385 474 421 457 445 424 C 469 390 476 348 468 298 L 438 127 C 434 104 431 83 430 63 C 428 43 428 22 428 0 L 373 0 C 373 21 373 42 374 63 C 375 83 378 105 382 127 L 411 288 C 418 329 413 362 396 386 C 378 410 353 423 321 423 C 292 423 260 405 226 371 C 191 336 165 256 148 131 L 130 0 L 75 0 Z" unicode="ň" />
<glyph horiz-adv-x="708" d="M 576 0 L 239 535 L 213 581 L 207 535 L 132 0 L 79 0 L 171 658 L 231 658 L 566 126 L 587 85 L 592 126 L 667 658 L 720 658 L 619 -73 C 612 -118 593 -153 563 -179 C 533 -205 494 -218 448 -218 L 440 -218 L 447 -167 L 455 -167 C 483 -167 508 -158 528 -142 C 548 -125 561 -102 566 -73 L 576 0 Z" unicode="Ŋ" />
<glyph horiz-adv-x="505" d="M 253 -218 L 245 -218 L 252 -167 L 260 -167 C 290 -167 315 -157 335 -137 C 355 -117 368 -90 373 -56 L 421 288 C 427 332 421 365 403 388 C 385 410 360 422 328 422 C 300 422 267 405 231 373 C 194 340 166 259 148 131 L 130 0 L 75 0 L 124 353 C 127 373 129 393 131 411 C 133 429 134 447 134 464 L 188 464 C 188 450 187 434 186 416 C 185 398 184 383 182 370 L 176 336 C 195 387 220 423 252 443 C 283 463 313 474 343 474 C 389 474 425 458 451 427 C 477 395 486 353 478 299 L 428 -57 C 421 -107 402 -146 371 -175 C 339 -203 300 -218 253 -218 Z" unicode="ŋ" />
<glyph horiz-adv-x="770" d="M 401 -14 C 308 -14 234 14 179 71 C 124 127 97 199 97 287 C 97 395 130 486 196 560 C 262 634 350 672 461 672 C 553 672 627 643 683 587 C 738 530 766 458 766 370 C 766 263 732 172 666 98 C 599 23 511 -14 401 -14 Z M 402 38 C 491 38 564 69 621 132 C 678 194 707 273 707 369 C 707 439 685 498 641 547 C 597 595 537 620 461 620 C 371 620 297 588 241 526 C 184 464 156 385 156 289 C 156 219 177 159 221 111 C 265 62 325 38 402 38 Z M 364 722 L 370 766 L 574 766 L 568 722 L 364 722 Z" unicode="Ō" />
<glyph horiz-adv-x="534" d="M 214 532 L 220 578 L 431 578 L 424 532 L 214 532 Z M 284 -10 C 223 -10 173 9 135 47 C 96 85 77 135 77 199 C 77 276 100 341 146 394 C 192 447 248 474 316 474 C 377 474 427 455 465 417 C 503 379 523 328 523 265 C 523 187 500 122 454 69 C 408 16 351 -10 284 -10 Z M 285 40 C 336 40 379 61 414 104 C 449 146 467 199 467 262 C 467 311 453 350 425 380 C 397 409 361 424 315 424 C 263 424 219 402 184 360 C 149 317 132 264 132 202 C 132 152 146 113 174 84 C 202 54 239 40 285 40 Z" unicode="ō" />
<glyph horiz-adv-x="770" d="M 467 712 C 431 712 403 724 385 748 C 367 772 359 801 362 836 L 402 836 C 401 809 406 788 417 774 C 427 759 444 752 468 752 C 488 752 505 759 519 774 C 532 788 539 809 541 836 L 581 836 C 577 795 564 764 543 743 C 521 722 496 712 467 712 Z M 401 -14 C 308 -14 234 14 179 71 C 124 127 97 199 97 287 C 97 395 130 486 196 560 C 262 634 350 672 461 672 C 553 672 627 643 683 587 C 738 530 766 458 766 370 C 766 263 732 172 666 98 C 599 23 511 -14 401 -14 Z M 402 38 C 491 38 564 69 621 132 C 678 194 707 273 707 369 C 707 439 685 498 641 547 C 597 595 537 620 461 620 C 371 620 297 588 241 526 C 184 464 156 385 156 289 C 156 219 177 159 221 111 C 265 62 325 38 402 38 Z" unicode="Ŏ" />
<glyph horiz-adv-x="534" d="M 319 516 C 283 516 255 528 236 552 C 217 576 209 607 212 643 L 254 643 C 253 616 258 595 269 580 C 280 565 297 558 321 558 C 341 558 358 565 372 580 C 386 595 393 616 395 643 L 437 643 C 433 601 420 569 398 548 C 376 526 349 516 319 516 Z M 284 -10 C 223 -10 173 9 135 47 C 96 85 77 135 77 199 C 77 276 100 341 146 394 C 192 447 248 474 316 474 C 377 474 427 455 465 417 C 503 379 523 328 523 265 C 523 187 500 122 454 69 C 408 16 351 -10 284 -10 Z M 285 40 C 336 40 379 61 414 104 C 449 146 467 199 467 262 C 467 311 453 350 425 380 C 397 409 361 424 315 424 C 263 424 219 402 184 360 C 149 317 132 264 132 202 C 132 152 146 113 174 84 C 202 54 239 40 285 40 Z" unicode="ŏ" />
<glyph horiz-adv-x="770" d="M 374 722 L 473 844 L 527 844 L 426 722 L 374 722 Z M 497 722 L 598 844 L 653 844 L 550 722 L 497 722 Z M 401 -14 C 308 -14 234 14 179 71 C 124 127 97 199 97 287 C 97 395 130 486 196 560 C 262 634 350 672 461 672 C 553 672 627 643 683 587 C 738 530 766 458 766 370 C 766 263 732 172 666 98 C 599 23 511 -14 401 -14 Z M 402 38 C 491 38 564 69 621 132 C 678 194 707 273 707 369 C 707 439 685 498 641 547 C 597 595 537 620 461 620 C 371 620 297 588 241 526 C 184 464 156 385 156 289 C 156 219 177 159 221 111 C 265 62 325 38 402 38 Z" unicode="Ő" />
<glyph horiz-adv-x="534" d="M 224 524 L 325 650 L 382 650 L 278 524 L 224 524 Z M 351 524 L 455 650 L 513 650 L 406 524 L 351 524 Z M 284 -10 C 223 -10 173 9 135 47 C 96 85 77 135 77 199 C 77 276 100 341 146 394 C 192 447 248 474 316 474 C 377 474 427 455 465 417 C 503 379 523 328 523 265 C 523 187 500 122 454 69 C 408 16 351 -10 284 -10 Z M 285 40 C 336 40 379 61 414 104 C 449 146 467 199 467 262 C 467 311 453 350 425 380 C 397 409 361 424 315 424 C 263 424 219 402 184 360 C 149 317 132 264 132 202 C 132 152 146 113 174 84 C 202 54 239 40 285 40 Z" unicode="ő" />
<glyph horiz-adv-x="894" d="M 416 0 C 314 0 236 27 181 83 C 125 139 98 208 98 290 C 98 398 133 486 205 555 C 277 623 374 658 497 658 L 912 658 L 904 605 L 621 605 L 587 360 L 863 360 L 855 307 L 580 307 L 545 53 L 845 53 L 837 0 L 416 0 Z M 417 53 L 488 53 L 564 605 L 489 605 C 386 605 305 575 245 517 C 185 459 156 384 156 292 C 156 223 179 166 225 121 C 271 75 335 53 417 53 Z" unicode="Œ" />
<glyph horiz-adv-x="874" d="M 676 -10 C 612 -10 562 9 526 48 C 490 87 473 139 473 205 C 473 281 496 345 542 397 C 588 448 645 474 714 474 C 758 474 793 463 819 441 C 845 419 859 392 859 358 C 859 310 839 275 799 252 C 759 228 695 214 607 208 L 530 204 C 529 152 542 111 569 82 C 595 53 633 39 681 39 C 710 39 737 44 763 54 C 789 64 814 80 839 102 L 830 40 C 806 22 781 9 757 1 C 732 -6 705 -10 676 -10 Z M 710 425 C 663 425 623 407 590 372 C 557 336 538 295 532 247 L 609 252 C 676 256 725 267 756 283 C 786 299 802 323 802 356 C 802 376 793 393 777 406 C 761 418 738 425 710 425 Z M 284 -10 C 223 -10 173 9 135 47 C 96 85 77 135 77 199 C 77 276 100 341 146 394 C 192 447 248 474 316 474 C 377 474 427 455 465 417 C 503 379 523 328 523 265 C 523 187 500 122 454 69 C 408 16 351 -10 284 -10 Z M 285 40 C 336 40 379 61 414 104 C 449 146 467 199 467 262 C 467 311 453 350 425 380 C 397 409 361 424 315 424 C 263 424 219 402 184 360 C 149 317 132 264 132 202 C 132 152 146 113 174 84 C 202 54 239 40 285 40 Z" unicode="œ" />
<glyph horiz-adv-x="504" d="M 80 0 L 171 658 L 308 658 C 362 658 404 644 435 617 C 465 589 481 552 481 505 C 481 455 465 413 435 381 C 405 348 366 328 318 321 C 336 314 350 304 362 290 C 373 276 382 259 389 239 L 480 0 L 420 0 L 335 225 C 326 249 314 268 300 282 C 285 296 266 303 242 303 L 179 303 L 136 0 L 80 0 Z M 185 353 L 269 353 C 315 353 351 366 379 394 C 406 422 420 456 420 497 C 420 530 409 557 389 577 C 368 597 340 607 304 607 L 221 607 L 185 353 Z M 291 720 L 398 847 L 461 847 L 350 720 L 291 720 Z" unicode="Ŕ" />
<glyph horiz-adv-x="318" d="M 205 524 L 315 655 L 380 655 L 266 524 L 205 524 Z M 75 0 L 124 353 C 126 371 129 390 131 408 C 133 426 134 445 134 464 L 188 464 C 188 450 187 434 187 418 C 186 401 184 385 182 370 L 177 336 C 195 388 217 424 243 444 C 269 464 295 474 320 474 C 328 474 336 473 346 471 C 356 469 365 467 374 465 L 366 407 C 357 410 348 413 339 415 C 329 417 320 418 312 418 C 293 418 266 403 230 374 C 194 345 166 264 148 131 L 130 0 L 75 0 Z" unicode="ŕ" />
<glyph horiz-adv-x="504" d="M 232 -219 L 197 -199 C 212 -180 223 -162 231 -144 C 238 -126 243 -107 246 -87 L 251 -48 L 299 -48 L 294 -87 C 291 -110 285 -132 275 -154 C 265 -176 251 -197 232 -219 Z M 80 0 L 171 658 L 308 658 C 362 658 404 644 435 617 C 465 589 481 552 481 505 C 481 455 465 413 435 381 C 405 348 366 328 318 321 C 336 314 350 304 362 290 C 373 276 382 259 389 239 L 480 0 L 420 0 L 335 225 C 326 249 314 268 300 282 C 285 296 266 303 242 303 L 179 303 L 136 0 L 80 0 Z M 185 353 L 269 353 C 315 353 351 366 379 394 C 406 422 420 456 420 497 C 420 530 409 557 389 577 C 368 597 340 607 304 607 L 221 607 L 185 353 Z" unicode="Ŗ" />
<glyph horiz-adv-x="318" d="M 75 0 L 124 353 C 126 371 129 390 131 408 C 133 426 134 445 134 464 L 188 464 C 188 450 187 434 187 418 C 186 401 184 385 182 370 L 177 336 C 195 388 217 424 243 444 C 269 464 295 474 320 474 C 328 474 336 473 346 471 C 356 469 365 467 374 465 L 366 407 C 357 410 348 413 339 415 C 329 417 320 418 312 418 C 293 418 266 403 230 374 C 194 345 166 264 148 131 L 130 0 L 75 0 Z M 117 -238 L 80 -217 C 95 -197 106 -178 114 -160 C 122 -142 127 -122 130 -102 L 135 -62 L 186 -62 L 181 -102 C 177 -126 171 -150 162 -172 C 152 -194 137 -216 117 -238 Z" unicode="ŗ" />
<glyph horiz-adv-x="504" d="M 80 0 L 171 658 L 308 658 C 362 658 404 644 435 617 C 465 589 481 552 481 505 C 481 455 465 413 435 381 C 405 348 366 328 318 321 C 336 314 350 304 362 290 C 373 276 382 259 389 239 L 480 0 L 420 0 L 335 225 C 326 249 314 268 300 282 C 285 296 266 303 242 303 L 179 303 L 136 0 L 80 0 Z M 185 353 L 269 353 C 315 353 351 366 379 394 C 406 422 420 456 420 497 C 420 530 409 557 389 577 C 368 597 340 607 304 607 L 221 607 L 185 353 Z M 313 712 L 232 835 L 282 835 L 336 754 L 413 835 L 467 835 L 353 712 L 313 712 Z" unicode="Ř" />
<glyph horiz-adv-x="318" d="M 229 524 L 146 650 L 199 650 L 254 567 L 332 650 L 389 650 L 272 524 L 229 524 Z M 75 0 L 124 353 C 126 371 129 390 131 408 C 133 426 134 445 134 464 L 188 464 C 188 450 187 434 187 418 C 186 401 184 385 182 370 L 177 336 C 195 388 217 424 243 444 C 269 464 295 474 320 474 C 328 474 336 473 346 471 C 356 469 365 467 374 465 L 366 407 C 357 410 348 413 339 415 C 329 417 320 418 312 418 C 293 418 266 403 230 374 C 194 345 166 264 148 131 L 130 0 L 75 0 Z" unicode="ř" />
<glyph horiz-adv-x="506" d="M 257 -16 C 221 -16 187 -11 155 -2 C 122 7 92 20 66 38 L 75 102 C 97 81 125 65 157 54 C 189 43 223 38 259 38 C 297 38 333 49 365 73 C 397 97 413 131 413 177 C 413 203 403 227 385 249 C 366 271 335 291 292 309 L 280 314 C 228 335 190 359 168 387 C 145 415 134 448 134 486 C 134 537 151 581 187 618 C 222 655 272 674 338 674 C 370 674 401 669 431 661 C 460 653 486 640 510 624 L 502 559 C 479 580 454 595 426 605 C 398 615 369 620 337 620 C 295 620 260 608 233 584 C 206 560 193 528 193 490 C 193 464 202 440 221 420 C 239 399 270 380 312 363 L 325 358 C 377 337 414 312 437 282 C 459 252 471 219 471 182 C 471 124 450 76 410 39 C 370 2 319 -16 257 -16 Z M 300 722 L 407 849 L 470 849 L 359 722 L 300 722 Z" unicode="Ś" />
<glyph horiz-adv-x="381" d="M 188 -10 C 167 -10 144 -6 118 0 C 92 6 70 15 52 26 L 60 80 C 76 67 97 57 121 49 C 145 41 168 37 190 38 C 220 38 246 45 266 60 C 286 74 296 95 296 122 C 296 141 289 158 276 172 C 262 186 240 199 210 212 L 196 218 C 162 231 137 248 121 268 C 105 288 97 313 97 343 C 97 381 111 412 139 437 C 167 461 206 474 254 474 C 272 474 294 471 318 465 C 342 459 363 452 381 444 L 373 390 C 358 400 339 409 316 416 C 293 422 272 426 254 426 C 225 426 201 419 181 405 C 161 391 152 372 152 348 C 152 329 157 313 169 301 C 180 288 199 277 225 267 L 238 261 C 277 245 306 226 324 205 C 342 184 351 158 351 128 C 351 88 336 55 307 29 C 277 3 238 -10 188 -10 Z M 206 524 L 316 655 L 381 655 L 267 524 L 206 524 Z" unicode="ś" />
<glyph horiz-adv-x="506" d="M 257 -16 C 221 -16 187 -11 155 -2 C 122 7 92 20 66 38 L 75 102 C 97 81 125 65 157 54 C 189 43 223 38 259 38 C 297 38 333 49 365 73 C 397 97 413 131 413 177 C 413 203 403 227 385 249 C 366 271 335 291 292 309 L 280 314 C 228 335 190 359 168 387 C 145 415 134 448 134 486 C 134 537 151 581 187 618 C 222 655 272 674 338 674 C 370 674 401 669 431 661 C 460 653 486 640 510 624 L 502 559 C 479 580 454 595 426 605 C 398 615 369 620 337 620 C 295 620 260 608 233 584 C 206 560 193 528 193 490 C 193 464 202 440 221 420 C 239 399 270 380 312 363 L 325 358 C 377 337 414 312 437 282 C 459 252 471 219 471 182 C 471 124 450 76 410 39 C 370 2 319 -16 257 -16 Z M 223 722 L 338 845 L 378 845 L 459 722 L 409 722 L 354 803 L 277 722 L 223 722 Z" unicode="Ŝ" />
<glyph horiz-adv-x="381" d="M 129 524 L 247 650 L 290 650 L 372 524 L 318 524 L 263 606 L 186 524 L 129 524 Z M 188 -10 C 167 -10 144 -6 118 0 C 92 6 70 15 52 26 L 60 80 C 76 67 97 57 121 49 C 145 41 168 37 190 38 C 220 38 246 45 266 60 C 286 74 296 95 296 122 C 296 141 289 158 276 172 C 262 186 240 199 210 212 L 196 218 C 162 231 137 248 121 268 C 105 288 97 313 97 343 C 97 381 111 412 139 437 C 167 461 206 474 254 474 C 272 474 294 471 318 465 C 342 459 363 452 381 444 L 373 390 C 358 400 339 409 316 416 C 293 422 272 426 254 426 C 225 426 201 419 181 405 C 161 391 152 372 152 348 C 152 329 157 313 169 301 C 180 288 199 277 225 267 L 238 261 C 277 245 306 226 324 205 C 342 184 351 158 351 128 C 351 88 336 55 307 29 C 277 3 238 -10 188 -10 Z" unicode="ŝ" />
<glyph horiz-adv-x="506" d="M 257 -16 C 221 -16 187 -11 155 -2 C 122 7 92 20 66 38 L 75 102 C 97 81 125 65 157 54 C 189 43 223 38 259 38 C 297 38 333 49 365 73 C 397 97 413 131 413 177 C 413 203 403 227 385 249 C 366 271 335 291 292 309 L 280 314 C 228 335 190 359 168 387 C 145 415 134 448 134 486 C 134 537 151 581 187 618 C 222 655 272 674 338 674 C 370 674 401 669 431 661 C 460 653 486 640 510 624 L 502 559 C 479 580 454 595 426 605 C 398 615 369 620 337 620 C 295 620 260 608 233 584 C 206 560 193 528 193 490 C 193 464 202 440 221 420 C 239 399 270 380 312 363 L 325 358 C 377 337 414 312 437 282 C 459 252 471 219 471 182 C 471 124 450 76 410 39 C 370 2 319 -16 257 -16 Z M 250 -195 C 240 -195 230 -193 220 -190 C 210 -187 201 -183 193 -179 L 198 -141 C 204 -147 212 -151 221 -154 C 230 -157 240 -159 250 -159 C 263 -159 274 -155 282 -148 C 290 -141 294 -132 294 -120 C 294 -109 290 -100 282 -94 C 274 -87 264 -84 252 -84 L 246 -84 L 251 -48 L 257 -48 C 279 -48 298 -54 312 -67 C 326 -79 334 -96 334 -117 C 334 -140 326 -159 310 -173 C 294 -187 274 -195 250 -195 Z" unicode="Ş" />
<glyph horiz-adv-x="381" d="M 188 -10 C 167 -10 144 -6 118 0 C 92 6 70 15 52 26 L 60 80 C 76 67 97 57 121 49 C 145 41 168 37 190 38 C 220 38 246 45 266 60 C 286 74 296 95 296 122 C 296 141 289 158 276 172 C 262 186 240 199 210 212 L 196 218 C 162 231 137 248 121 268 C 105 288 97 313 97 343 C 97 381 111 412 139 437 C 167 461 206 474 254 474 C 272 474 294 471 318 465 C 342 459 363 452 381 444 L 373 390 C 358 400 339 409 316 416 C 293 422 272 426 254 426 C 225 426 201 419 181 405 C 161 391 152 372 152 348 C 152 329 157 313 169 301 C 180 288 199 277 225 267 L 238 261 C 277 245 306 226 324 205 C 342 184 351 158 351 128 C 351 88 336 55 307 29 C 277 3 238 -10 188 -10 Z M 169 -213 C 158 -213 148 -211 138 -209 C 128 -206 118 -202 110 -198 L 115 -158 C 121 -164 129 -168 139 -171 C 149 -174 158 -176 168 -176 C 182 -176 193 -172 201 -165 C 209 -158 213 -148 213 -136 C 213 -125 209 -116 202 -109 C 194 -102 184 -99 172 -99 L 166 -99 L 171 -62 L 177 -62 C 201 -62 220 -68 234 -82 C 248 -95 255 -112 255 -134 C 255 -158 247 -177 231 -191 C 215 -205 194 -213 169 -213 Z" unicode="ş" />
<glyph horiz-adv-x="506" d="M 257 -16 C 221 -16 187 -11 155 -2 C 122 7 92 20 66 38 L 75 102 C 97 81 125 65 157 54 C 189 43 223 38 259 38 C 297 38 333 49 365 73 C 397 97 413 131 413 177 C 413 203 403 227 385 249 C 366 271 335 291 292 309 L 280 314 C 228 335 190 359 168 387 C 145 415 134 448 134 486 C 134 537 151 581 187 618 C 222 655 272 674 338 674 C 370 674 401 669 431 661 C 460 653 486 640 510 624 L 502 559 C 479 580 454 595 426 605 C 398 615 369 620 337 620 C 295 620 260 608 233 584 C 206 560 193 528 193 490 C 193 464 202 440 221 420 C 239 399 270 380 312 363 L 325 358 C 377 337 414 312 437 282 C 459 252 471 219 471 182 C 471 124 450 76 410 39 C 370 2 319 -16 257 -16 Z M 323 714 L 242 837 L 292 837 L 346 756 L 423 837 L 477 837 L 363 714 L 323 714 Z" unicode="Š" />
<glyph horiz-adv-x="381" d="M 230 524 L 147 650 L 200 650 L 255 567 L 333 650 L 390 650 L 273 524 L 230 524 Z M 188 -10 C 167 -10 144 -6 118 0 C 92 6 70 15 52 26 L 60 80 C 76 67 97 57 121 49 C 145 41 168 37 190 38 C 220 38 246 45 266 60 C 286 74 296 95 296 122 C 296 141 289 158 276 172 C 262 186 240 199 210 212 L 196 218 C 162 231 137 248 121 268 C 105 288 97 313 97 343 C 97 381 111 412 139 437 C 167 461 206 474 254 474 C 272 474 294 471 318 465 C 342 459 363 452 381 444 L 373 390 C 358 400 339 409 316 416 C 293 422 272 426 254 426 C 225 426 201 419 181 405 C 161 391 152 372 152 348 C 152 329 157 313 169 301 C 180 288 199 277 225 267 L 238 261 C 277 245 306 226 324 205 C 342 184 351 158 351 128 C 351 88 336 55 307 29 C 277 3 238 -10 188 -10 Z" unicode="š" />
<glyph horiz-adv-x="543" d="M 243 0 L 328 605 L 105 605 L 112 658 L 615 658 L 607 605 L 385 605 L 300 0 L 243 0 Z M 258 -193 C 248 -193 238 -191 228 -188 C 218 -185 209 -181 201 -177 L 206 -139 C 212 -145 220 -149 229 -152 C 238 -155 248 -157 258 -157 C 271 -157 282 -153 290 -146 C 298 -139 302 -130 302 -118 C 302 -107 298 -98 290 -92 C 282 -85 272 -82 260 -82 L 254 -82 L 259 -46 L 265 -46 C 287 -46 306 -52 320 -65 C 334 -77 342 -94 342 -115 C 342 -138 334 -157 318 -171 C 302 -185 282 -193 258 -193 Z" unicode="Ţ" />
<glyph horiz-adv-x="297" d="M 189 -9 C 157 -9 133 0 118 19 C 102 38 97 65 102 101 L 146 413 L 74 413 L 81 464 L 154 464 L 175 617 L 231 617 L 209 464 L 328 464 L 321 413 L 201 413 L 158 105 C 155 83 158 67 166 57 C 174 47 186 42 204 42 C 215 42 226 43 238 47 C 249 51 260 56 272 64 L 265 12 C 253 5 240 0 227 -3 C 214 -7 201 -9 189 -9 Z M 165 -199 C 154 -199 144 -197 134 -195 C 124 -192 114 -188 106 -184 L 111 -144 C 117 -150 125 -154 135 -157 C 145 -160 154 -162 164 -162 C 178 -162 189 -158 197 -151 C 205 -144 209 -134 209 -122 C 209 -111 205 -102 198 -95 C 190 -88 180 -85 168 -85 L 162 -85 L 167 -48 L 173 -48 C 197 -48 216 -54 230 -68 C 244 -81 251 -98 251 -120 C 251 -144 243 -163 227 -177 C 211 -191 190 -199 165 -199 Z" unicode="ţ" />
<glyph horiz-adv-x="543" d="M 243 0 L 328 605 L 105 605 L 112 658 L 615 658 L 607 605 L 385 605 L 300 0 L 243 0 Z M 351 712 L 270 835 L 320 835 L 374 754 L 451 835 L 505 835 L 391 712 L 351 712 Z" unicode="Ť" />
<glyph horiz-adv-x="315" d="M 329 547 L 292 568 C 307 587 318 606 326 624 C 334 642 339 662 342 683 L 347 723 L 398 723 L 393 683 C 389 658 383 635 374 613 C 364 591 349 569 329 547 Z M 189 -9 C 157 -9 133 0 118 19 C 102 38 97 65 102 101 L 146 413 L 74 413 L 81 464 L 154 464 L 175 617 L 231 617 L 209 464 L 328 464 L 321 413 L 201 413 L 158 105 C 155 83 158 67 166 57 C 174 47 186 42 204 42 C 215 42 226 43 238 47 C 249 51 260 56 272 64 L 265 12 C 253 5 240 0 227 -3 C 214 -7 201 -9 189 -9 Z" unicode="ť" />
<glyph horiz-adv-x="543" d="M 162 332 L 169 382 L 484 382 L 477 332 L 162 332 Z M 243 0 L 328 605 L 105 605 L 112 658 L 615 658 L 607 605 L 385 605 L 300 0 L 243 0 Z" unicode="Ŧ" />
<glyph horiz-adv-x="297" d="M 66 263 L 72 310 L 275 310 L 268 263 L 66 263 Z M 189 -9 C 157 -9 133 0 118 19 C 102 38 97 65 102 101 L 146 413 L 74 413 L 81 464 L 154 464 L 175 617 L 231 617 L 209 464 L 328 464 L 321 413 L 201 413 L 158 105 C 155 83 158 67 166 57 C 174 47 186 42 204 42 C 215 42 226 43 238 47 C 249 51 260 56 272 64 L 265 12 C 253 5 240 0 227 -3 C 214 -7 201 -9 189 -9 Z" unicode="ŧ" />
<glyph horiz-adv-x="670" d="M 331 720 L 295 720 C 301 750 311 773 326 789 C 340 804 360 812 384 812 C 396 812 408 809 420 804 C 431 799 443 791 456 780 C 466 771 474 764 482 760 C 489 756 496 754 503 754 C 515 754 525 758 534 767 C 543 775 550 788 555 805 L 591 805 C 584 774 573 751 559 735 C 544 719 525 712 503 712 C 489 712 477 714 466 720 C 454 725 442 733 430 745 C 420 753 412 760 405 764 C 397 768 390 770 383 770 C 370 770 359 765 351 757 C 342 749 335 736 331 720 Z M 346 -12 C 260 -12 196 11 154 59 C 112 106 97 169 109 249 L 166 658 L 223 658 L 166 248 C 157 183 168 132 200 96 C 231 60 280 42 348 42 C 408 42 459 60 501 98 C 543 136 568 186 577 248 L 635 658 L 687 658 L 630 247 C 618 165 586 102 534 56 C 482 10 419 -12 346 -12 Z" unicode="Ũ" />
<glyph horiz-adv-x="504" d="M 228 -12 C 182 -12 146 4 120 36 C 94 68 85 111 94 166 L 122 340 C 126 363 129 384 131 404 C 133 423 134 443 134 464 L 189 464 C 189 442 188 422 186 402 C 184 382 181 361 178 339 L 151 176 C 143 131 149 97 167 74 C 185 50 210 39 243 39 C 272 39 304 56 340 90 C 376 124 403 205 421 333 L 439 464 L 495 464 L 445 112 C 442 91 440 71 439 53 C 437 34 437 16 437 0 L 382 0 C 382 14 382 29 383 46 C 383 62 385 78 388 93 L 393 127 C 374 75 349 39 318 19 C 287 -1 257 -12 228 -12 Z M 215 525 L 175 525 C 181 557 192 581 207 597 C 222 613 242 621 267 621 C 279 621 292 618 304 613 C 316 607 328 599 341 588 C 351 578 360 572 368 568 C 375 564 382 562 389 562 C 401 562 411 566 420 575 C 428 583 435 596 440 613 L 480 613 C 473 581 462 557 447 541 C 431 525 412 517 389 517 C 375 517 362 519 351 525 C 339 530 327 538 315 550 C 305 559 296 566 288 570 C 280 574 273 576 266 576 C 253 576 242 571 234 563 C 226 554 219 541 215 525 Z" unicode="ũ" />
<glyph horiz-adv-x="670" d="M 346 -12 C 260 -12 196 11 154 59 C 112 106 97 169 109 249 L 166 658 L 223 658 L 166 248 C 157 183 168 132 200 96 C 231 60 280 42 348 42 C 408 42 459 60 501 98 C 543 136 568 186 577 248 L 635 658 L 687 658 L 630 247 C 618 165 586 102 534 56 C 482 10 419 -12 346 -12 Z M 338 720 L 344 764 L 548 764 L 542 720 L 338 720 Z" unicode="Ū" />
<glyph horiz-adv-x="504" d="M 228 -12 C 182 -12 146 4 120 36 C 94 68 85 111 94 166 L 122 340 C 126 363 129 384 131 404 C 133 423 134 443 134 464 L 189 464 C 189 442 188 422 186 402 C 184 382 181 361 178 339 L 151 176 C 143 131 149 97 167 74 C 185 50 210 39 243 39 C 272 39 304 56 340 90 C 376 124 403 205 421 333 L 439 464 L 495 464 L 445 112 C 442 91 440 71 439 53 C 437 34 437 16 437 0 L 382 0 C 382 14 382 29 383 46 C 383 62 385 78 388 93 L 393 127 C 374 75 349 39 318 19 C 287 -1 257 -12 228 -12 Z M 216 533 L 222 579 L 433 579 L 426 533 L 216 533 Z" unicode="ū" />
<glyph horiz-adv-x="670" d="M 441 710 C 405 710 377 722 359 746 C 341 770 333 799 336 834 L 376 834 C 375 807 380 786 391 772 C 401 757 418 750 442 750 C 462 750 479 757 493 772 C 506 786 513 807 515 834 L 555 834 C 551 793 538 762 517 741 C 495 720 470 710 441 710 Z M 346 -12 C 260 -12 196 11 154 59 C 112 106 97 169 109 249 L 166 658 L 223 658 L 166 248 C 157 183 168 132 200 96 C 231 60 280 42 348 42 C 408 42 459 60 501 98 C 543 136 568 186 577 248 L 635 658 L 687 658 L 630 247 C 618 165 586 102 534 56 C 482 10 419 -12 346 -12 Z" unicode="Ŭ" />
<glyph horiz-adv-x="504" d="M 228 -12 C 182 -12 146 4 120 36 C 94 68 85 111 94 166 L 122 340 C 126 363 129 384 131 404 C 133 423 134 443 134 464 L 189 464 C 189 442 188 422 186 402 C 184 382 181 361 178 339 L 151 176 C 143 131 149 97 167 74 C 185 50 210 39 243 39 C 272 39 304 56 340 90 C 376 124 403 205 421 333 L 439 464 L 495 464 L 445 112 C 442 91 440 71 439 53 C 437 34 437 16 437 0 L 382 0 C 382 14 382 29 383 46 C 383 62 385 78 388 93 L 393 127 C 374 75 349 39 318 19 C 287 -1 257 -12 228 -12 Z M 321 517 C 285 517 257 529 238 553 C 219 577 211 608 214 644 L 256 644 C 255 617 260 596 271 581 C 282 566 299 559 323 559 C 343 559 360 566 374 581 C 388 596 395 617 397 644 L 439 644 C 435 602 422 570 400 549 C 378 527 351 517 321 517 Z" unicode="ŭ" />
<glyph horiz-adv-x="670" d="M 346 -12 C 260 -12 196 11 154 59 C 112 106 97 169 109 249 L 166 658 L 223 658 L 166 248 C 157 183 168 132 200 96 C 231 60 280 42 348 42 C 408 42 459 60 501 98 C 543 136 568 186 577 248 L 635 658 L 687 658 L 630 247 C 618 165 586 102 534 56 C 482 10 419 -12 346 -12 Z M 422 634 C 399 634 381 641 367 655 C 353 669 347 686 347 707 C 347 731 355 752 371 769 C 387 785 408 794 433 794 C 455 794 473 786 487 772 C 500 758 507 741 507 721 C 507 696 499 675 483 659 C 467 642 446 634 422 634 Z M 423 669 C 436 669 447 673 457 683 C 466 692 471 704 471 719 C 471 731 467 740 459 748 C 451 755 441 759 431 759 C 418 759 407 754 398 744 C 388 734 384 723 384 709 C 384 697 387 687 395 680 C 403 672 412 669 423 669 Z" unicode="Ů" />
<glyph horiz-adv-x="504" d="M 228 -12 C 182 -12 146 4 120 36 C 94 68 85 111 94 166 L 122 340 C 126 363 129 384 131 404 C 133 423 134 443 134 464 L 189 464 C 189 442 188 422 186 402 C 184 382 181 361 178 339 L 151 176 C 143 131 149 97 167 74 C 185 50 210 39 243 39 C 272 39 304 56 340 90 C 376 124 403 205 421 333 L 439 464 L 495 464 L 445 112 C 442 91 440 71 439 53 C 437 34 437 16 437 0 L 382 0 C 382 14 382 29 383 46 C 383 62 385 78 388 93 L 393 127 C 374 75 349 39 318 19 C 287 -1 257 -12 228 -12 Z M 316 459 C 293 459 275 466 261 481 C 247 495 240 513 240 534 C 240 559 248 580 265 597 C 282 614 303 623 329 623 C 351 623 370 615 384 601 C 398 586 405 568 405 548 C 405 523 396 502 380 485 C 363 467 342 459 316 459 Z M 318 495 C 332 495 343 499 352 509 C 361 519 366 531 366 546 C 366 558 362 568 354 576 C 346 583 337 587 326 587 C 312 587 301 582 292 572 C 282 562 278 550 278 536 C 278 523 281 513 289 506 C 297 498 306 495 318 495 Z" unicode="ů" />
<glyph horiz-adv-x="670" d="M 348 720 L 447 842 L 501 842 L 400 720 L 348 720 Z M 471 720 L 572 842 L 627 842 L 524 720 L 471 720 Z M 346 -12 C 260 -12 196 11 154 59 C 112 106 97 169 109 249 L 166 658 L 223 658 L 166 248 C 157 183 168 132 200 96 C 231 60 280 42 348 42 C 408 42 459 60 501 98 C 543 136 568 186 577 248 L 635 658 L 687 658 L 630 247 C 618 165 586 102 534 56 C 482 10 419 -12 346 -12 Z" unicode="Ű" />
<glyph horiz-adv-x="504" d="M 226 525 L 327 651 L 384 651 L 280 525 L 226 525 Z M 353 525 L 457 651 L 515 651 L 408 525 L 353 525 Z M 228 -12 C 182 -12 146 4 120 36 C 94 68 85 111 94 166 L 122 340 C 126 363 129 384 131 404 C 133 423 134 443 134 464 L 189 464 C 189 442 188 422 186 402 C 184 382 181 361 178 339 L 151 176 C 143 131 149 97 167 74 C 185 50 210 39 243 39 C 272 39 304 56 340 90 C 376 124 403 205 421 333 L 439 464 L 495 464 L 445 112 C 442 91 440 71 439 53 C 437 34 437 16 437 0 L 382 0 C 382 14 382 29 383 46 C 383 62 385 78 388 93 L 393 127 C 374 75 349 39 318 19 C 287 -1 257 -12 228 -12 Z" unicode="ű" />
<glyph horiz-adv-x="670" d="M 462 -220 C 418 -220 384 -208 359 -186 C 333 -164 321 -136 321 -102 C 321 -69 331 -40 353 -15 C 375 9 402 26 435 35 L 446 5 C 424 -2 406 -14 392 -32 C 378 -50 371 -70 371 -93 C 371 -117 380 -137 398 -151 C 416 -165 440 -173 469 -173 L 462 -220 Z M 346 -12 C 260 -12 196 11 154 59 C 112 106 97 169 109 249 L 166 658 L 223 658 L 166 248 C 157 183 168 132 200 96 C 231 60 280 42 348 42 C 408 42 459 60 501 98 C 543 136 568 186 577 248 L 635 658 L 687 658 L 630 247 C 618 165 586 102 534 56 C 482 10 419 -12 346 -12 Z" unicode="Ų" />
<glyph horiz-adv-x="504" d="M 228 -12 C 182 -12 146 4 120 36 C 94 68 85 111 94 166 L 122 340 C 126 363 129 384 131 404 C 133 423 134 443 134 464 L 189 464 C 189 442 188 422 186 402 C 184 382 181 361 178 339 L 151 176 C 143 131 149 97 167 74 C 185 50 210 39 243 39 C 272 39 304 56 340 90 C 376 124 403 205 421 333 L 439 464 L 495 464 L 445 112 C 442 91 440 71 439 53 C 437 34 437 16 437 0 L 382 0 C 382 14 382 29 383 46 C 383 62 385 78 388 93 L 393 127 C 374 75 349 39 318 19 C 287 -1 257 -12 228 -12 Z M 414 -218 C 371 -218 338 -210 315 -194 C 292 -178 281 -155 281 -123 C 281 -95 291 -68 313 -44 C 334 -20 370 6 422 35 L 435 0 C 394 -22 367 -42 353 -58 C 339 -74 332 -91 332 -111 C 332 -129 339 -144 354 -154 C 369 -164 391 -170 421 -170 L 414 -218 Z" unicode="ų" />
<glyph horiz-adv-x="907" d="M 418 720 L 533 843 L 573 843 L 654 720 L 604 720 L 549 801 L 472 720 L 418 720 Z M 215 0 L 100 658 L 158 658 L 250 121 L 256 75 L 275 121 L 517 658 L 577 658 L 668 121 L 673 77 L 691 121 L 933 658 L 991 658 L 691 0 L 633 0 L 541 538 L 535 580 L 518 538 L 275 0 L 215 0 Z" unicode="Ŵ" />
<glyph horiz-adv-x="709" d="M 288 524 L 406 650 L 449 650 L 531 524 L 477 524 L 422 606 L 345 524 L 288 524 Z M 176 0 L 86 464 L 143 464 L 212 110 L 218 65 C 249 123 280 185 310 252 C 340 318 370 389 398 464 L 453 464 L 524 110 L 531 66 C 563 126 593 189 621 256 C 649 323 676 392 700 464 L 753 464 C 725 380 694 299 659 221 C 623 143 586 69 546 0 L 491 0 L 422 344 L 416 384 C 388 312 358 244 327 180 C 296 116 264 56 232 0 L 176 0 Z" unicode="ŵ" />
<glyph horiz-adv-x="560" d="M 251 0 L 292 294 L 104 658 L 168 658 L 308 390 L 328 345 L 362 390 L 575 658 L 641 658 L 349 291 L 308 0 L 251 0 Z M 241 720 L 356 843 L 396 843 L 477 720 L 427 720 L 372 801 L 295 720 L 241 720 Z" unicode="Ŷ" />
<glyph horiz-adv-x="472" d="M -27 -218 L -35 -218 L -28 -167 L -20 -167 C 28 -167 74 -153 119 -126 C 164 -99 202 -65 232 -23 L 113 464 L 172 464 L 257 110 L 274 26 C 310 87 343 155 374 230 C 404 304 432 382 456 464 L 513 464 C 437 225 356 52 269 -56 C 182 -164 83 -218 -27 -218 Z M 190 524 L 308 650 L 351 650 L 433 524 L 379 524 L 324 606 L 247 524 L 190 524 Z" unicode="ŷ" />
<glyph horiz-adv-x="560" d="M 251 0 L 292 294 L 104 658 L 168 658 L 308 390 L 328 345 L 362 390 L 575 658 L 641 658 L 349 291 L 308 0 L 251 0 Z M 264 720 L 272 778 L 331 778 L 322 720 L 264 720 Z M 399 720 L 407 778 L 466 778 L 457 720 L 399 720 Z" unicode="Ÿ" />
<glyph horiz-adv-x="575" d="M 52 0 L 57 32 L 490 567 L 522 605 L 137 605 L 145 658 L 616 658 L 612 628 L 177 91 L 146 53 L 532 53 L 525 0 L 52 0 Z M 335 720 L 442 847 L 505 847 L 394 720 L 335 720 Z" unicode="Ź" />
<glyph horiz-adv-x="428" d="M 225 524 L 335 655 L 400 655 L 286 524 L 225 524 Z M 43 0 L 47 35 L 335 383 L 361 413 L 106 413 L 113 464 L 447 464 L 442 428 L 155 80 L 129 51 L 393 51 L 386 0 L 43 0 Z" unicode="ź" />
<glyph horiz-adv-x="575" d="M 347 720 L 356 783 L 419 783 L 410 720 L 347 720 Z M 52 0 L 57 32 L 490 567 L 522 605 L 137 605 L 145 658 L 616 658 L 612 628 L 177 91 L 146 53 L 532 53 L 525 0 L 52 0 Z" unicode="Ż" />
<glyph horiz-adv-x="428" d="M 240 536 L 249 602 L 315 602 L 305 536 L 240 536 Z M 43 0 L 47 35 L 335 383 L 361 413 L 106 413 L 113 464 L 447 464 L 442 428 L 155 80 L 129 51 L 393 51 L 386 0 L 43 0 Z" unicode="ż" />
<glyph horiz-adv-x="574" d="M 52 0 L 57 32 L 490 567 L 522 605 L 137 605 L 145 658 L 616 658 L 612 628 L 177 91 L 146 53 L 532 53 L 525 0 L 52 0 Z M 357 712 L 276 835 L 326 835 L 380 754 L 457 835 L 511 835 L 397 712 L 357 712 Z" unicode="Ž" />
<glyph horiz-adv-x="428" d="M 249 524 L 166 650 L 219 650 L 274 567 L 352 650 L 409 650 L 292 524 L 249 524 Z M 43 0 L 47 35 L 335 383 L 361 413 L 106 413 L 113 464 L 447 464 L 442 428 L 155 80 L 129 51 L 393 51 L 386 0 L 43 0 Z" unicode="ž" />
<glyph horiz-adv-x="429" d="M 48 -226 C 33 -226 18 -224 4 -220 C -9 -216 -23 -211 -36 -203 L -36 -149 C -23 -157 -9 -164 4 -168 C 18 -172 34 -174 51 -174 C 79 -174 102 -163 119 -142 C 136 -120 147 -92 152 -56 L 218 416 L 106 416 L 110 466 L 225 466 L 238 560 C 246 618 264 661 293 689 C 322 717 358 732 400 732 C 416 732 431 730 447 726 C 463 722 478 717 493 711 L 493 655 C 478 663 463 670 447 674 C 431 678 415 680 399 680 C 369 680 345 669 327 648 C 309 627 298 598 293 560 L 280 466 L 419 466 L 415 416 L 273 416 L 208 -56 C 200 -113 181 -156 153 -184 C 125 -212 90 -226 48 -226 Z" unicode="ƒ" />
<glyph horiz-adv-x="688" d="M 411 -13 C 314 -13 237 15 181 72 C 125 128 97 200 97 287 C 97 401 133 494 207 565 C 281 635 372 671 482 671 C 520 671 556 667 590 659 C 624 651 656 639 687 625 L 680 569 C 649 585 617 598 584 606 C 551 614 516 619 480 619 C 386 619 308 588 247 527 C 186 466 156 387 156 289 C 156 215 180 155 229 109 C 277 63 339 40 414 40 C 442 40 471 42 499 48 C 527 53 554 63 580 77 L 606 268 L 467 268 L 474 321 L 671 321 L 632 41 C 594 21 556 7 517 -1 C 477 -9 442 -13 411 -13 Z M 466 714 L 385 837 L 435 837 L 489 756 L 566 837 L 620 837 L 506 714 L 466 714 Z" unicode="Ǧ" />
<glyph horiz-adv-x="513" d="M 308 524 L 225 650 L 278 650 L 333 567 L 411 650 L 468 650 L 351 524 L 308 524 Z M 211 -226 C 179 -226 150 -222 122 -216 C 94 -209 67 -199 41 -187 L 49 -130 C 73 -145 98 -156 126 -164 C 154 -172 182 -176 211 -176 C 255 -176 293 -162 326 -135 C 359 -107 380 -60 390 8 L 407 125 C 388 74 363 39 332 19 C 300 0 269 -10 238 -10 C 191 -10 152 7 120 42 C 88 76 73 121 73 177 C 73 259 101 329 157 387 C 213 445 280 474 360 474 C 383 474 407 472 432 468 C 457 464 482 459 508 451 L 446 11 C 434 -73 407 -133 365 -170 C 323 -207 271 -226 211 -226 Z M 248 40 C 279 40 313 57 351 91 C 389 125 417 207 436 337 L 447 412 C 433 416 418 419 403 421 C 387 423 371 424 355 424 C 293 424 239 400 195 352 C 151 304 129 247 129 181 C 129 135 141 100 165 76 C 189 52 217 40 248 40 Z" unicode="ǧ" />
<glyph horiz-adv-x="614" d="M 18 0 L 373 667 L 428 667 L 596 0 L 537 0 L 482 224 L 194 224 L 76 0 L 18 0 Z M 364 545 L 221 275 L 469 275 L 402 545 L 390 597 L 364 545 Z M 387 809 L 454 889 L 504 889 L 435 809 L 387 809 Z M 396 632 C 375 632 358 638 346 651 C 333 664 327 681 327 701 C 327 725 335 745 351 761 C 367 777 388 785 413 785 C 433 785 450 778 463 765 C 475 752 482 736 482 717 C 482 692 473 672 457 656 C 441 640 420 632 396 632 Z M 398 667 C 411 667 422 671 431 681 C 440 690 445 702 445 716 C 445 726 441 735 435 741 C 429 747 421 751 411 751 C 397 751 386 746 377 737 C 368 727 364 716 364 702 C 364 691 367 682 373 676 C 379 670 388 667 398 667 Z" unicode="Ǻ" />
<glyph horiz-adv-x="513" d="M 232 -10 C 185 -10 146 7 114 42 C 82 76 67 121 67 177 C 67 259 95 329 151 387 C 207 445 274 474 354 474 C 377 474 401 472 426 468 C 451 464 476 459 502 451 L 455 118 C 452 97 450 77 448 58 C 446 39 445 20 445 0 L 391 0 C 391 14 391 30 393 46 C 394 62 395 78 397 93 L 401 125 C 383 75 358 40 326 20 C 294 0 263 -10 232 -10 Z M 242 40 C 273 40 308 57 346 92 C 384 126 412 208 430 337 L 440 412 C 426 416 411 419 396 421 C 381 423 365 424 349 424 C 287 424 233 400 189 352 C 145 304 123 247 123 181 C 123 135 135 100 159 76 C 183 52 211 40 242 40 Z M 336 625 L 405 707 L 457 707 L 386 625 L 336 625 Z M 345 443 C 323 443 306 449 293 463 C 280 476 274 493 274 514 C 274 538 282 559 299 576 C 316 592 337 601 362 601 C 384 601 401 594 414 581 C 427 567 434 550 434 530 C 434 505 425 484 408 468 C 391 451 370 443 345 443 Z M 347 479 C 361 479 372 483 382 493 C 391 502 396 514 396 528 C 396 538 392 547 386 554 C 379 560 371 564 361 564 C 347 564 335 559 326 550 C 316 540 312 529 312 515 C 312 504 315 495 322 489 C 328 482 337 479 347 479 Z" unicode="ǻ" />
<glyph horiz-adv-x="819" d="M 10 0 L 464 658 L 836 658 L 829 605 L 547 605 L 513 360 L 787 360 L 780 307 L 505 307 L 470 53 L 769 53 L 762 0 L 405 0 L 437 225 L 228 225 L 71 0 L 10 0 Z M 457 554 L 264 277 L 444 277 L 490 606 L 457 554 Z M 553 720 L 660 847 L 723 847 L 612 720 L 553 720 Z" unicode="Ǽ" />
<glyph horiz-adv-x="815" d="M 462 524 L 572 655 L 637 655 L 523 524 L 462 524 Z M 236 -10 C 187 -10 147 7 115 42 C 83 76 67 122 67 178 C 67 260 94 329 149 387 C 204 445 269 474 344 474 C 374 474 401 468 426 458 C 450 447 473 431 493 411 C 514 431 539 446 567 457 C 595 468 624 474 654 474 C 698 474 733 463 760 443 C 786 422 800 395 800 361 C 800 313 780 276 740 252 C 700 228 636 213 548 208 L 472 203 C 472 152 485 112 511 83 C 536 53 573 39 621 39 C 651 39 679 44 705 54 C 730 64 755 80 781 102 L 772 40 C 747 22 722 10 697 2 C 672 -6 645 -10 617 -10 C 555 -10 510 6 481 38 C 451 70 432 103 424 138 C 408 95 384 60 351 32 C 317 4 279 -10 236 -10 Z M 476 256 L 475 248 L 550 252 C 617 256 666 267 697 284 C 728 301 744 326 744 359 C 744 379 735 395 719 407 C 702 419 680 425 652 425 C 607 425 568 409 534 378 C 500 346 480 306 476 256 Z M 123 182 C 123 136 135 100 159 76 C 183 52 211 40 243 40 C 281 40 316 57 349 91 C 381 125 405 183 420 265 L 423 280 C 425 296 429 311 435 326 C 441 340 448 354 457 367 C 443 385 426 399 407 409 C 387 419 365 424 341 424 C 283 424 232 400 188 352 C 144 304 123 248 123 182 Z" unicode="ǽ" />
<glyph horiz-adv-x="769" d="M 172 -65 L 233 40 L 247 61 L 556 619 L 568 640 L 616 725 L 672 725 L 613 620 L 599 599 L 290 41 L 278 20 L 229 -65 L 172 -65 Z M 400 -14 C 307 -14 233 14 178 71 C 123 127 96 199 96 287 C 96 395 129 486 195 560 C 261 634 349 672 460 672 C 552 672 626 643 682 587 C 737 530 765 458 765 370 C 765 263 731 172 665 98 C 598 23 510 -14 400 -14 Z M 401 38 C 490 38 563 69 620 132 C 677 194 706 273 706 369 C 706 439 684 498 640 547 C 596 595 536 620 460 620 C 370 620 296 588 240 526 C 183 464 155 385 155 289 C 155 219 176 159 220 111 C 264 62 324 38 401 38 Z M 447 724 L 554 851 L 617 851 L 506 724 L 447 724 Z" unicode="Ǿ" />
<glyph horiz-adv-x="534" d="M 102 -73 L 171 39 L 181 56 L 396 426 L 408 445 L 462 534 L 512 534 L 445 425 L 433 408 L 218 34 L 207 18 L 152 -73 L 102 -73 Z M 284 -10 C 223 -10 173 9 135 47 C 96 85 77 135 77 199 C 77 276 100 341 146 394 C 192 447 248 474 316 474 C 377 474 427 455 465 417 C 503 379 523 328 523 265 C 523 187 500 122 454 69 C 408 16 351 -10 284 -10 Z M 285 40 C 336 40 379 61 414 104 C 449 146 467 199 467 262 C 467 311 453 350 425 380 C 397 409 361 424 315 424 C 263 424 219 402 184 360 C 149 317 132 264 132 202 C 132 152 146 113 174 84 C 202 54 239 40 285 40 Z M 298 536 L 408 667 L 473 667 L 359 536 L 298 536 Z" unicode="ǿ" />
<glyph horiz-adv-x="506" d="M 215 -221 L 180 -201 C 195 -182 206 -164 214 -146 C 221 -128 226 -109 229 -89 L 234 -50 L 282 -50 L 277 -89 C 274 -112 268 -134 258 -156 C 248 -178 234 -199 215 -221 Z M 257 -16 C 221 -16 187 -11 155 -2 C 122 7 92 20 66 38 L 75 102 C 97 81 125 65 157 54 C 189 43 223 38 259 38 C 297 38 333 49 365 73 C 397 97 413 131 413 177 C 413 203 403 227 385 249 C 366 271 335 291 292 309 L 280 314 C 228 335 190 359 168 387 C 145 415 134 448 134 486 C 134 537 151 581 187 618 C 222 655 272 674 338 674 C 370 674 401 669 431 661 C 460 653 486 640 510 624 L 502 559 C 479 580 454 595 426 605 C 398 615 369 620 337 620 C 295 620 260 608 233 584 C 206 560 193 528 193 490 C 193 464 202 440 221 420 C 239 399 270 380 312 363 L 325 358 C 377 337 414 312 437 282 C 459 252 471 219 471 182 C 471 124 450 76 410 39 C 370 2 319 -16 257 -16 Z" unicode="Ș" />
<glyph horiz-adv-x="381" d="M 188 -10 C 167 -10 144 -6 118 0 C 92 6 70 15 52 26 L 60 80 C 76 67 97 57 121 49 C 145 41 168 37 190 38 C 220 38 246 45 266 60 C 286 74 296 95 296 122 C 296 141 289 158 276 172 C 262 186 240 199 210 212 L 196 218 C 162 231 137 248 121 268 C 105 288 97 313 97 343 C 97 381 111 412 139 437 C 167 461 206 474 254 474 C 272 474 294 471 318 465 C 342 459 363 452 381 444 L 373 390 C 358 400 339 409 316 416 C 293 422 272 426 254 426 C 225 426 201 419 181 405 C 161 391 152 372 152 348 C 152 329 157 313 169 301 C 180 288 199 277 225 267 L 238 261 C 277 245 306 226 324 205 C 342 184 351 158 351 128 C 351 88 336 55 307 29 C 277 3 238 -10 188 -10 Z M 138 -238 L 101 -217 C 116 -197 127 -178 135 -160 C 143 -142 148 -122 151 -102 L 156 -62 L 207 -62 L 202 -102 C 198 -126 192 -150 183 -172 C 173 -194 158 -216 138 -238 Z" unicode="ș" />
<glyph horiz-adv-x="543" d="M 223 -219 L 188 -199 C 203 -180 214 -162 222 -144 C 229 -126 234 -107 237 -87 L 242 -48 L 290 -48 L 285 -87 C 282 -110 276 -132 266 -154 C 256 -176 242 -197 223 -219 Z M 243 0 L 328 605 L 105 605 L 112 658 L 615 658 L 607 605 L 385 605 L 300 0 L 243 0 Z" unicode="Ț" />
<glyph horiz-adv-x="297" d="M 134 -224 L 97 -203 C 112 -183 123 -164 131 -146 C 139 -128 144 -108 147 -88 L 152 -48 L 203 -48 L 198 -88 C 194 -112 188 -136 179 -158 C 169 -180 154 -202 134 -224 Z M 189 -9 C 157 -9 133 0 118 19 C 102 38 97 65 102 101 L 146 413 L 74 413 L 81 464 L 154 464 L 175 617 L 231 617 L 209 464 L 328 464 L 321 413 L 201 413 L 158 105 C 155 83 158 67 166 57 C 174 47 186 42 204 42 C 215 42 226 43 238 47 C 249 51 260 56 272 64 L 265 12 C 253 5 240 0 227 -3 C 214 -7 201 -9 189 -9 Z" unicode="ț" />
<glyph horiz-adv-x="194" d="M -57 -218 L -65 -218 L -58 -167 L -50 -167 C -20 -167 4 -157 24 -137 C 44 -117 56 -90 61 -56 L 134 464 L 189 464 L 116 -56 C 108 -106 89 -145 59 -174 C 28 -203 -10 -218 -57 -218 Z" unicode="ȷ" />
<glyph horiz-adv-x="473" d="M 220 -10 C 176 -10 140 0 114 22 C 87 43 74 71 74 106 C 74 153 93 188 133 212 C 172 235 236 249 326 255 L 403 260 C 403 312 389 353 363 381 C 337 409 300 424 253 424 C 222 424 194 419 169 409 C 143 399 118 383 93 362 L 102 424 C 127 442 152 454 178 462 C 204 470 230 474 257 474 C 321 474 370 454 406 415 C 441 376 459 324 459 259 C 459 181 436 117 392 66 C 347 15 290 -10 220 -10 Z M 130 108 C 130 86 138 69 155 57 C 171 44 194 38 222 38 C 268 38 308 55 341 91 C 374 126 393 168 399 216 L 324 211 C 256 207 207 196 176 180 C 145 164 130 140 130 108 Z" unicode="ə" />
<glyph horiz-adv-x="318" d="M 140 736 L 258 862 L 301 862 L 383 736 L 329 736 L 274 818 L 197 736 L 140 736 Z" unicode="ˆ" />
<glyph horiz-adv-x="318" d="M 211 524 L 128 650 L 181 650 L 236 567 L 314 650 L 371 650 L 254 524 L 211 524 Z" unicode="ˇ" />
<glyph horiz-adv-x="358" d="M 253 516 C 217 516 189 528 170 552 C 151 576 143 607 146 643 L 188 643 C 187 616 192 595 203 580 C 214 565 231 558 255 558 C 275 558 292 565 306 580 C 320 595 327 616 329 643 L 371 643 C 367 601 354 569 332 548 C 310 526 283 516 253 516 Z" unicode="˘" />
<glyph horiz-adv-x="146" d="M 115 536 L 124 602 L 190 602 L 180 536 L 115 536 Z" unicode="˙" />
<glyph horiz-adv-x="222" d="M 208 646 C 185 646 167 653 153 668 C 139 682 132 700 132 721 C 132 746 140 767 157 784 C 174 801 195 810 221 810 C 243 810 262 802 276 788 C 290 773 297 755 297 735 C 297 710 288 689 272 672 C 255 654 234 646 208 646 Z M 210 682 C 224 682 235 686 244 696 C 253 706 258 718 258 733 C 258 745 254 755 246 763 C 238 770 229 774 218 774 C 204 774 193 769 184 759 C 174 749 170 737 170 723 C 170 710 173 700 181 693 C 189 685 198 682 210 682 Z" unicode="˚" />
<glyph horiz-adv-x="240" d="M 277 -218 C 236 -218 204 -207 180 -186 C 156 -165 144 -138 144 -106 C 144 -68 158 -36 187 -10 C 215 15 249 28 288 29 L 299 0 C 269 0 244 -9 224 -27 C 204 -45 194 -68 194 -97 C 194 -121 202 -139 219 -152 C 235 -165 257 -172 283 -172 L 277 -218 Z" unicode="˛" />
<glyph horiz-adv-x="327" d="M 161 736 L 121 736 C 127 768 138 792 153 808 C 168 824 188 832 213 832 C 225 832 238 829 250 824 C 262 818 274 810 287 799 C 297 789 306 783 314 779 C 321 775 328 773 335 773 C 347 773 357 777 366 786 C 374 794 381 807 386 824 L 426 824 C 419 792 408 768 393 752 C 377 736 358 728 335 728 C 321 728 308 730 297 736 C 285 741 273 749 261 761 C 251 770 242 777 234 781 C 226 785 219 787 212 787 C 199 787 188 782 180 774 C 172 765 165 752 161 736 Z" unicode="˜" />
<glyph horiz-adv-x="392" d="M 216 736 L 317 862 L 374 862 L 270 736 L 216 736 Z M 343 736 L 447 862 L 505 862 L 398 736 L 343 736 Z" unicode="˝" />
<glyph horiz-adv-x="0" d="M 58 524 L -37 655 L 27 655 L 118 524 L 58 524 Z" unicode="̀" />
<glyph horiz-adv-x="0" d="M 28 524 L 138 655 L 203 655 L 89 524 L 28 524 Z" unicode="́" />
<glyph horiz-adv-x="0" d="M -49 524 L 69 650 L 112 650 L 194 524 L 140 524 L 85 606 L 8 524 L -49 524 Z" unicode="̂" />
<glyph horiz-adv-x="0" d="M -32 524 L -72 524 C -65 556 -54 580 -39 596 C -24 612 -4 620 20 620 C 32 620 45 617 57 612 C 69 606 81 598 94 587 C 104 577 113 571 121 567 C 128 563 135 561 142 561 C 154 561 164 565 173 574 C 181 582 188 595 193 612 L 233 612 C 226 580 215 556 200 540 C 184 524 165 516 142 516 C 128 516 115 518 104 524 C 92 529 80 537 68 549 C 58 558 49 565 41 569 C 33 573 26 575 19 575 C 6 575 -4 570 -12 562 C -20 553 -27 540 -32 524 Z" unicode="̃" />
<glyph horiz-adv-x="0" d="M -30 532 L -24 578 L 187 578 L 180 532 L -30 532 Z" unicode="̄" />
<glyph horiz-adv-x="0" d="M 73 516 C 37 516 9 528 -9 552 C -28 576 -36 607 -34 643 L 8 643 C 7 616 12 595 23 580 C 34 565 51 558 75 558 C 95 558 112 565 126 580 C 140 595 147 616 149 643 L 191 643 C 187 601 174 569 152 548 C 130 526 103 516 73 516 Z" unicode="̆" />
<glyph horiz-adv-x="0" d="M 43 536 L 52 602 L 118 602 L 108 536 L 43 536 Z" unicode="̇" />
<glyph horiz-adv-x="0" d="M -25 536 L -17 597 L 44 597 L 36 536 L -25 536 Z M 114 536 L 122 597 L 183 597 L 175 536 L 114 536 Z" unicode="̈" />
<glyph horiz-adv-x="0" d="M 68 442 C 45 442 27 449 13 464 C -1 478 -8 496 -8 517 C -8 542 0 563 17 580 C 34 597 55 606 81 606 C 103 606 122 598 136 584 C 150 569 157 551 157 531 C 157 506 148 485 132 468 C 115 450 94 442 68 442 Z M 70 478 C 84 478 95 482 104 492 C 113 502 118 514 118 529 C 118 541 114 551 106 559 C 98 566 89 570 78 570 C 64 570 53 565 44 555 C 34 545 30 533 30 519 C 30 506 33 496 41 489 C 49 481 58 478 70 478 Z" unicode="̊" />
<glyph horiz-adv-x="0" d="M -20 524 L 81 650 L 138 650 L 34 524 L -20 524 Z M 107 524 L 211 650 L 269 650 L 162 524 L 107 524 Z" unicode="̋" />
<glyph horiz-adv-x="0" d="M 52 524 L -31 650 L 22 650 L 77 567 L 155 650 L 212 650 L 95 524 L 52 524 Z" unicode="̌" />
<glyph horiz-adv-x="0" d="M 116 693 L 153 672 C 137 652 126 633 118 615 C 110 597 105 577 103 557 L 98 517 L 47 517 L 52 557 C 55 581 61 605 71 627 C 80 649 95 671 116 693 Z" unicode="̒" />
<glyph horiz-adv-x="0" d="M -49 -216 L -86 -195 C -70 -175 -58 -156 -51 -138 C -43 -120 -38 -100 -36 -80 L -30 -40 L 20 -40 L 15 -80 C 11 -104 5 -128 -4 -150 C -13 -172 -28 -194 -49 -216 Z" unicode="̦" />
<glyph horiz-adv-x="0" d="M -19 -197 C -29 -197 -40 -195 -50 -193 C -60 -190 -69 -186 -78 -182 L -73 -142 C -66 -148 -58 -152 -48 -155 C -38 -158 -29 -160 -20 -160 C -6 -160 5 -156 13 -149 C 21 -142 25 -132 25 -120 C 25 -109 21 -100 14 -93 C 6 -86 -3 -83 -16 -83 L -22 -83 L -17 -46 L -11 -46 C 13 -46 32 -52 46 -66 C 60 -79 67 -96 67 -118 C 67 -142 59 -161 43 -175 C 27 -189 6 -197 -19 -197 Z" unicode="̧" />
<glyph horiz-adv-x="0" d="M -22 -218 C -62 -218 -95 -207 -119 -186 C -143 -165 -155 -138 -155 -106 C -155 -68 -140 -36 -112 -10 C -83 15 -49 28 -11 29 L 0 0 C -29 0 -54 -9 -74 -27 C -94 -45 -105 -68 -105 -97 C -105 -121 -96 -139 -80 -152 C -63 -165 -42 -172 -16 -172 L -22 -218 Z" unicode="̨" />
<glyph horiz-adv-x="578" d="M 32 0 L 357 676 L 416 676 L 549 0 L 32 0 Z M 112 52 L 480 52 L 373 594 L 112 52 Z" unicode="Δ" />
<glyph horiz-adv-x="495" d="M 108 0 L 167 413 L 96 413 L 103 464 L 522 464 L 515 413 L 445 413 L 406 138 C 402 112 399 87 397 64 C 395 40 395 19 395 0 L 340 0 C 340 20 340 42 342 64 C 344 86 347 110 351 138 L 389 413 L 222 413 L 164 0 L 108 0 Z" unicode="π" />
<glyph horiz-adv-x="907" d="M 524 720 L 432 847 L 492 847 L 581 720 L 524 720 Z M 215 0 L 100 658 L 158 658 L 250 121 L 256 75 L 275 121 L 517 658 L 577 658 L 668 121 L 673 77 L 691 121 L 933 658 L 991 658 L 691 0 L 633 0 L 541 538 L 535 580 L 518 538 L 275 0 L 215 0 Z" unicode="Ẁ" />
<glyph horiz-adv-x="709" d="M 395 524 L 300 655 L 364 655 L 455 524 L 395 524 Z M 176 0 L 86 464 L 143 464 L 212 110 L 218 65 C 249 123 280 185 310 252 C 340 318 370 389 398 464 L 453 464 L 524 110 L 531 66 C 563 126 593 189 621 256 C 649 323 676 392 700 464 L 753 464 C 725 380 694 299 659 221 C 623 143 586 69 546 0 L 491 0 L 422 344 L 416 384 C 388 312 358 244 327 180 C 296 116 264 56 232 0 L 176 0 Z" unicode="ẁ" />
<glyph horiz-adv-x="907" d="M 215 0 L 100 658 L 158 658 L 250 121 L 256 75 L 275 121 L 517 658 L 577 658 L 668 121 L 673 77 L 691 121 L 933 658 L 991 658 L 691 0 L 633 0 L 541 538 L 535 580 L 518 538 L 275 0 L 215 0 Z M 495 720 L 602 847 L 665 847 L 554 720 L 495 720 Z" unicode="Ẃ" />
<glyph horiz-adv-x="709" d="M 365 524 L 475 655 L 540 655 L 426 524 L 365 524 Z M 176 0 L 86 464 L 143 464 L 212 110 L 218 65 C 249 123 280 185 310 252 C 340 318 370 389 398 464 L 453 464 L 524 110 L 531 66 C 563 126 593 189 621 256 C 649 323 676 392 700 464 L 753 464 C 725 380 694 299 659 221 C 623 143 586 69 546 0 L 491 0 L 422 344 L 416 384 C 388 312 358 244 327 180 C 296 116 264 56 232 0 L 176 0 Z" unicode="ẃ" />
<glyph horiz-adv-x="907" d="M 215 0 L 100 658 L 158 658 L 250 121 L 256 75 L 275 121 L 517 658 L 577 658 L 668 121 L 673 77 L 691 121 L 933 658 L 991 658 L 691 0 L 633 0 L 541 538 L 535 580 L 518 538 L 275 0 L 215 0 Z M 441 720 L 449 778 L 508 778 L 499 720 L 441 720 Z M 576 720 L 584 778 L 643 778 L 634 720 L 576 720 Z" unicode="Ẅ" />
<glyph horiz-adv-x="709" d="M 312 536 L 320 597 L 381 597 L 373 536 L 312 536 Z M 451 536 L 459 597 L 520 597 L 512 536 L 451 536 Z M 176 0 L 86 464 L 143 464 L 212 110 L 218 65 C 249 123 280 185 310 252 C 340 318 370 389 398 464 L 453 464 L 524 110 L 531 66 C 563 126 593 189 621 256 C 649 323 676 392 700 464 L 753 464 C 725 380 694 299 659 221 C 623 143 586 69 546 0 L 491 0 L 422 344 L 416 384 C 388 312 358 244 327 180 C 296 116 264 56 232 0 L 176 0 Z" unicode="ẅ" />
<glyph horiz-adv-x="560" d="M 251 0 L 292 294 L 104 658 L 168 658 L 308 390 L 328 345 L 362 390 L 575 658 L 641 658 L 349 291 L 308 0 L 251 0 Z M 347 720 L 255 847 L 315 847 L 404 720 L 347 720 Z" unicode="Ỳ" />
<glyph horiz-adv-x="472" d="M -27 -218 L -35 -218 L -28 -167 L -20 -167 C 28 -167 74 -153 119 -126 C 164 -99 202 -65 232 -23 L 113 464 L 172 464 L 257 110 L 274 26 C 310 87 343 155 374 230 C 404 304 432 382 456 464 L 513 464 C 437 225 356 52 269 -56 C 182 -164 83 -218 -27 -218 Z M 297 524 L 202 655 L 266 655 L 357 524 L 297 524 Z" unicode="ỳ" />
<glyph horiz-adv-x="500" d="" unicode=" " />
<glyph horiz-adv-x="1000" d="" unicode=" " />
<glyph horiz-adv-x="650" d="" unicode=" " />
<glyph horiz-adv-x="200" d="" unicode=" " />
<glyph horiz-adv-x="650" d="M 140 206 L 147 255 L 575 255 L 568 206 L 140 206 Z" unicode="‒" />
<glyph horiz-adv-x="500" d="M 65 206 L 72 255 L 500 255 L 493 206 L 65 206 Z" unicode="–" />
<glyph horiz-adv-x="1000" d="M 65 206 L 72 255 L 1000 255 L 993 206 L 65 206 Z" unicode="—" />
<glyph horiz-adv-x="360" d="M 73 206 L 80 255 L 360 255 L 353 206 L 73 206 Z" unicode="―" />
<glyph horiz-adv-x="180" d="M 136 523 L 146 588 C 149 614 157 640 169 665 C 181 689 197 712 218 733 L 257 713 C 241 693 228 673 219 654 C 210 634 204 613 202 590 L 192 523 L 136 523 Z" unicode="‘" />
<glyph horiz-adv-x="142" d="M 116 510 L 80 529 C 96 549 108 569 117 589 C 126 609 132 631 136 655 L 145 722 L 199 722 L 189 657 C 185 630 177 604 165 579 C 153 553 136 530 116 510 Z" unicode="’" />
<glyph horiz-adv-x="142" d="M 25 -135 L -10 -115 C 6 -95 18 -75 27 -55 C 35 -35 41 -14 45 10 L 55 77 L 108 77 L 99 12 C 95 -14 87 -40 75 -66 C 63 -91 46 -114 25 -135 Z" unicode="‚" />
<glyph horiz-adv-x="295" d="M 137 526 L 146 588 C 149 614 157 640 169 665 C 181 689 197 712 218 733 L 257 714 C 241 693 228 673 219 654 C 210 634 204 613 202 590 L 193 526 L 137 526 Z M 252 526 L 261 588 C 265 614 272 640 284 665 C 296 689 312 712 334 733 L 372 714 C 356 693 343 673 335 654 C 326 634 320 613 317 590 L 308 526 L 252 526 Z" unicode="“" />
<glyph horiz-adv-x="252" d="M 116 510 L 80 529 C 96 549 108 569 117 589 C 126 609 132 631 136 655 L 145 722 L 199 722 L 189 657 C 185 630 177 604 165 579 C 153 553 136 530 116 510 Z M 226 510 L 191 529 C 207 549 219 569 228 589 C 236 609 242 631 246 655 L 256 722 L 309 722 L 300 657 C 296 630 288 604 276 579 C 264 553 247 530 226 510 Z" unicode="”" />
<glyph horiz-adv-x="251" d="M 25 -135 L -10 -115 C 6 -95 18 -75 27 -55 C 35 -35 41 -14 45 10 L 55 77 L 108 77 L 99 12 C 95 -14 87 -40 75 -66 C 63 -91 46 -114 25 -135 Z M 134 -135 L 99 -115 C 115 -95 127 -75 136 -55 C 145 -35 151 -14 154 10 L 164 77 L 217 77 L 208 12 C 204 -14 196 -40 184 -66 C 172 -91 155 -114 134 -135 Z" unicode="„" />
<glyph horiz-adv-x="464" d="M 205 0 L 273 470 L 121 469 L 128 520 L 279 518 L 306 722 L 361 722 L 331 518 L 483 520 L 476 469 L 325 470 L 261 0 L 205 0 Z" unicode="†" />
<glyph horiz-adv-x="465" d="M 205 0 L 236 212 L 85 210 L 92 261 L 243 259 L 273 470 L 121 469 L 128 520 L 279 518 L 306 722 L 361 722 L 331 518 L 483 520 L 476 469 L 325 470 L 295 259 L 446 261 L 439 210 L 288 212 L 261 0 L 205 0 Z" unicode="‡" />
<glyph horiz-adv-x="257" d="M 90 183 L 108 311 L 237 311 L 219 183 L 90 183 Z" unicode="•" />
<glyph horiz-adv-x="501" d="M 45 0 L 54 61 L 116 61 L 107 0 L 45 0 Z M 220 0 L 229 61 L 291 61 L 282 0 L 220 0 Z M 395 0 L 404 61 L 466 61 L 457 0 L 395 0 Z" unicode="…" />
<glyph horiz-adv-x="1213" d="M 653 -8 C 608 -8 573 7 549 37 C 524 67 512 105 512 152 C 512 214 527 266 558 307 C 589 347 632 368 688 368 C 734 368 769 353 793 323 C 817 293 830 256 830 210 C 830 146 814 94 783 53 C 751 12 708 -8 653 -8 Z M 655 37 C 693 37 723 52 745 83 C 767 113 779 155 779 207 C 779 243 770 271 754 292 C 737 312 714 323 686 323 C 648 323 618 307 596 277 C 573 247 562 206 562 155 C 562 119 570 90 587 69 C 603 47 626 37 655 37 Z M 1034 -8 C 989 -8 954 7 930 37 C 905 67 893 105 893 152 C 893 214 908 266 939 307 C 970 347 1013 368 1069 368 C 1115 368 1150 353 1174 323 C 1198 293 1211 256 1211 210 C 1211 146 1195 94 1164 53 C 1132 12 1089 -8 1034 -8 Z M 1036 37 C 1074 37 1104 52 1126 83 C 1148 113 1160 155 1160 207 C 1160 243 1151 271 1135 292 C 1118 312 1095 323 1067 323 C 1029 323 999 307 977 277 C 954 247 943 206 943 155 C 943 119 951 90 968 69 C 984 47 1007 37 1036 37 Z M 261 0 L 639 722 L 687 722 L 309 0 L 261 0 Z M 244 344 C 199 344 164 359 140 389 C 115 419 103 457 103 504 C 103 566 118 618 149 659 C 180 699 223 720 279 720 C 325 720 360 705 384 675 C 408 645 421 608 421 562 C 421 498 405 446 374 405 C 342 364 299 344 244 344 Z M 246 389 C 284 389 314 404 336 435 C 358 465 370 507 370 559 C 370 595 361 623 345 644 C 328 664 305 675 277 675 C 239 675 209 659 187 629 C 164 599 153 558 153 507 C 153 471 161 442 178 421 C 194 399 217 389 246 389 Z" unicode="‰" />
<glyph horiz-adv-x="140" d="M 119 533 L 145 720 L 198 720 L 171 533 L 119 533 Z" unicode="′" />
<glyph horiz-adv-x="244" d="M 119 533 L 145 720 L 196 720 L 169 533 L 119 533 Z M 225 533 L 251 720 L 301 720 L 275 533 L 225 533 Z" unicode="″" />
<glyph horiz-adv-x="301" d="M 204 69 L 73 226 L 248 384 L 314 384 L 140 226 L 270 69 L 204 69 Z" unicode="‹" />
<glyph horiz-adv-x="300" d="M 43 69 L 217 226 L 87 384 L 153 384 L 284 226 L 109 69 L 43 69 Z" unicode="›" />
<glyph horiz-adv-x="138" d="M -93 0 L 285 722 L 333 722 L -45 0 L -93 0 Z" unicode="⁄" />
<glyph horiz-adv-x="373" d="M 256 432 C 211 432 176 447 152 477 C 127 507 115 545 115 592 C 115 654 130 706 161 747 C 192 787 235 808 291 808 C 337 808 372 793 396 763 C 420 733 433 696 433 650 C 433 586 417 534 386 493 C 354 452 311 432 256 432 Z M 258 477 C 296 477 326 492 348 523 C 370 553 382 595 382 647 C 382 683 373 711 357 732 C 340 752 317 763 289 763 C 251 763 221 747 199 717 C 176 687 165 646 165 595 C 165 559 173 530 190 509 C 206 487 229 477 258 477 Z" unicode="⁰" />
<glyph horiz-adv-x="318" d="M 251 440 L 264 532 L 98 532 L 103 566 L 286 800 L 351 800 L 319 575 L 375 575 L 369 532 L 313 532 L 299 440 L 251 440 Z M 270 575 L 294 748 L 158 575 L 270 575 Z" unicode="⁴" />
<glyph horiz-adv-x="290" d="M 201 432 C 180 432 161 435 143 441 C 125 447 110 455 96 467 L 104 518 C 116 505 130 495 147 487 C 163 479 181 476 200 476 C 225 476 246 483 262 497 C 278 511 286 529 286 551 C 286 571 279 588 266 600 C 252 612 234 619 212 619 C 198 619 185 617 171 615 C 157 613 141 609 123 603 L 163 800 L 351 800 L 345 753 L 195 753 L 175 655 C 183 657 192 658 200 659 C 208 660 216 661 224 661 C 260 661 287 651 307 631 C 326 611 336 586 336 555 C 336 521 324 492 300 468 C 276 444 243 432 201 432 Z" unicode="⁵" />
<glyph horiz-adv-x="328" d="M 239 432 C 201 432 170 444 148 470 C 125 495 114 530 114 574 C 114 641 130 697 164 741 C 198 785 243 808 299 808 C 313 808 327 806 342 804 C 357 801 370 797 382 793 L 376 746 C 364 751 352 755 338 759 C 324 763 310 765 297 765 C 260 765 230 751 207 725 C 183 698 169 662 164 616 C 174 634 188 649 207 661 C 225 672 245 678 267 678 C 301 678 327 668 347 648 C 367 628 377 602 377 569 C 377 529 363 496 335 470 C 307 444 275 432 239 432 Z M 240 475 C 264 475 285 483 302 500 C 319 516 328 538 328 565 C 328 587 321 605 309 618 C 296 631 279 638 258 638 C 235 638 215 630 198 615 C 181 600 170 580 164 556 C 164 534 170 515 182 499 C 194 483 213 475 240 475 Z" unicode="⁶" />
<glyph horiz-adv-x="299" d="M 142 440 L 321 753 L 137 753 L 143 800 L 382 800 L 376 759 L 196 440 L 142 440 Z" unicode="⁷" />
<glyph horiz-adv-x="300" d="M 218 432 C 184 432 156 440 135 457 C 114 473 104 495 104 521 C 104 542 111 561 126 579 C 141 597 162 612 189 624 C 170 634 156 646 147 660 C 137 674 133 690 133 708 C 133 736 144 760 168 779 C 191 798 220 808 254 808 C 286 808 312 800 330 785 C 348 770 358 750 358 724 C 358 705 352 688 340 672 C 328 656 309 641 283 629 C 303 618 319 605 329 590 C 339 574 344 557 344 537 C 344 505 332 479 308 460 C 284 441 254 432 218 432 Z M 236 649 L 242 647 C 264 654 281 664 293 677 C 304 690 310 704 310 719 C 310 733 304 745 294 754 C 283 763 269 768 253 768 C 232 768 215 762 202 751 C 188 740 182 726 182 710 C 182 696 186 684 196 674 C 205 664 218 655 236 649 Z M 153 525 C 153 509 159 496 172 486 C 184 476 200 472 219 472 C 242 472 261 478 275 490 C 289 502 296 517 296 535 C 296 551 290 564 280 575 C 269 586 253 596 233 604 L 228 606 C 206 598 188 586 174 572 C 160 558 153 542 153 525 Z" unicode="⁸" />
<glyph horiz-adv-x="328" d="M 204 432 C 190 432 175 433 160 436 C 145 438 132 442 121 447 L 127 494 C 137 488 150 484 164 480 C 178 476 192 475 205 475 C 241 475 271 488 295 514 C 318 540 332 577 338 623 C 328 604 314 589 295 578 C 276 566 256 561 234 561 C 200 561 174 570 155 590 C 135 610 126 637 126 671 C 126 711 140 743 168 769 C 196 795 228 808 264 808 C 302 808 332 795 354 770 C 376 744 388 710 388 666 C 388 598 371 542 337 498 C 303 454 259 432 204 432 Z M 245 600 C 267 600 287 607 304 622 C 321 637 332 657 338 683 C 338 704 332 723 320 740 C 308 756 288 765 262 765 C 237 765 216 756 199 740 C 182 723 174 701 174 675 C 174 652 180 634 193 620 C 206 606 223 600 245 600 Z" unicode="⁹" />
<glyph horiz-adv-x="378" d="M 111 440 L 149 710 C 151 724 153 740 154 756 C 155 772 156 787 156 800 L 203 800 C 203 788 202 775 201 762 C 200 748 199 737 198 728 L 194 703 C 209 742 229 769 254 785 C 278 801 302 809 325 809 C 363 809 392 796 411 772 C 430 747 436 714 430 672 L 408 539 C 405 521 403 504 401 488 C 399 472 399 456 399 440 L 352 440 C 352 458 352 475 353 491 C 354 507 356 523 359 539 L 380 661 C 385 693 381 718 368 736 C 355 754 335 763 309 763 C 275 763 247 745 224 709 C 201 673 184 617 174 541 L 159 440 L 111 440 Z" unicode="ⁿ" />
<glyph horiz-adv-x="372" d="M 170 -176 C 125 -176 90 -161 66 -131 C 41 -101 29 -62 29 -16 C 29 46 44 98 75 139 C 106 179 149 200 205 200 C 251 200 286 185 310 155 C 334 125 347 88 347 42 C 347 -21 331 -73 300 -114 C 268 -155 225 -176 170 -176 Z M 172 -131 C 210 -131 240 -115 262 -85 C 284 -54 296 -13 296 39 C 296 75 287 103 271 124 C 254 144 231 155 203 155 C 165 155 135 139 113 109 C 90 79 79 38 79 -13 C 79 -49 87 -77 104 -99 C 120 -120 143 -131 172 -131 Z" unicode="₀" />
<glyph horiz-adv-x="275" d="M 13 -170 L 18 -126 L 99 -126 L 138 149 L 45 132 L 52 180 L 196 205 L 149 -126 L 231 -126 L 225 -170 L 13 -170 Z" unicode="₁" />
<glyph horiz-adv-x="305" d="M 7 -170 L 15 -108 C 95 -64 152 -28 184 1 C 216 30 233 58 233 86 C 233 106 226 123 214 135 C 201 147 182 153 158 153 C 141 153 123 150 105 144 C 87 138 69 130 53 120 L 60 171 C 76 179 93 186 111 191 C 129 195 148 198 168 198 C 204 198 232 189 253 171 C 274 153 285 128 285 94 C 285 56 266 21 229 -13 C 191 -47 133 -83 55 -123 L 257 -123 L 251 -170 L 7 -170 Z" unicode="₂" />
<glyph horiz-adv-x="294" d="M 119 -178 C 97 -178 78 -175 60 -170 C 42 -164 26 -155 10 -143 L 18 -92 C 30 -106 45 -116 62 -123 C 79 -130 98 -134 118 -134 C 144 -134 165 -127 179 -115 C 193 -102 201 -86 201 -68 C 201 -49 193 -34 179 -23 C 164 -11 143 -6 117 -6 L 100 -6 L 105 37 L 120 37 C 151 37 175 43 191 56 C 207 69 216 85 216 104 C 216 119 211 131 201 140 C 191 149 177 154 160 154 C 142 154 124 151 108 145 C 92 139 76 131 62 121 L 69 169 C 85 179 101 186 118 191 C 134 195 151 198 168 198 C 202 198 227 190 245 174 C 262 158 271 137 271 112 C 271 90 263 71 248 53 C 232 35 211 23 185 16 C 206 11 223 1 235 -14 C 247 -29 253 -47 253 -67 C 253 -99 241 -125 217 -146 C 193 -167 161 -178 119 -178 Z" unicode="₃" />
<glyph horiz-adv-x="317" d="M 165 -170 L 178 -78 L 12 -78 L 17 -44 L 200 190 L 265 190 L 233 -35 L 289 -35 L 283 -78 L 227 -78 L 213 -170 L 165 -170 Z M 184 -35 L 208 138 L 72 -35 L 184 -35 Z" unicode="₄" />
<glyph horiz-adv-x="290" d="M 115 -178 C 94 -178 75 -175 57 -169 C 39 -163 24 -154 10 -143 L 18 -92 C 30 -104 44 -114 61 -122 C 77 -130 95 -134 114 -134 C 139 -134 160 -126 176 -112 C 192 -98 200 -80 200 -59 C 200 -38 193 -21 180 -9 C 166 2 148 9 126 9 C 112 9 99 7 85 5 C 71 3 55 -1 37 -7 L 77 190 L 265 190 L 259 143 L 109 143 L 89 45 C 97 47 106 48 114 49 C 122 50 130 51 138 51 C 174 51 201 41 221 21 C 240 1 250 -23 250 -55 C 250 -89 238 -118 214 -142 C 190 -166 157 -178 115 -178 Z" unicode="₅" />
<glyph horiz-adv-x="328" d="M 153 -178 C 115 -178 84 -165 62 -140 C 39 -114 28 -80 28 -36 C 28 31 44 87 78 131 C 112 175 157 198 213 198 C 227 198 241 196 256 194 C 271 191 284 187 296 183 L 290 136 C 278 141 266 145 252 149 C 238 153 224 155 211 155 C 174 155 144 141 121 115 C 97 88 83 52 78 6 C 88 24 102 39 121 51 C 139 62 159 68 181 68 C 215 68 241 58 261 38 C 281 18 291 -7 291 -41 C 291 -81 277 -113 249 -139 C 221 -165 189 -178 153 -178 Z M 154 -135 C 178 -135 199 -126 216 -110 C 233 -93 242 -71 242 -45 C 242 -22 235 -4 223 8 C 210 21 193 28 172 28 C 149 28 129 20 112 5 C 95 -9 84 -29 78 -54 C 78 -75 84 -94 96 -110 C 108 -126 127 -135 154 -135 Z" unicode="₆" />
<glyph horiz-adv-x="299" d="M 56 -170 L 235 143 L 51 143 L 57 190 L 296 190 L 290 149 L 110 -170 L 56 -170 Z" unicode="₇" />
<glyph horiz-adv-x="300" d="M 132 -178 C 98 -178 70 -169 49 -153 C 28 -136 18 -115 18 -89 C 18 -67 25 -48 40 -30 C 55 -12 76 2 103 14 C 84 24 70 36 61 50 C 51 64 47 80 47 98 C 47 126 58 150 82 169 C 105 188 134 198 168 198 C 200 198 226 190 244 175 C 262 160 272 140 272 114 C 272 95 266 78 254 62 C 242 46 223 31 197 19 C 217 8 233 -4 243 -20 C 253 -35 258 -53 258 -73 C 258 -105 246 -130 222 -149 C 198 -168 168 -178 132 -178 Z M 150 39 L 156 37 C 178 44 195 54 207 67 C 218 80 224 94 224 109 C 224 123 218 135 208 144 C 197 153 183 158 167 158 C 146 158 129 152 116 141 C 102 130 96 116 96 100 C 96 86 100 74 110 64 C 119 54 132 45 150 39 Z M 67 -85 C 67 -101 73 -113 86 -123 C 98 -133 114 -138 133 -138 C 156 -138 175 -132 189 -120 C 203 -108 210 -93 210 -75 C 210 -59 204 -45 194 -34 C 183 -23 167 -14 147 -6 L 142 -4 C 120 -12 102 -23 88 -37 C 74 -51 67 -67 67 -85 Z" unicode="₈" />
<glyph horiz-adv-x="328" d="M 118 -178 C 104 -178 89 -176 74 -174 C 59 -171 46 -167 35 -163 L 41 -116 C 51 -121 64 -125 78 -129 C 92 -133 106 -135 119 -135 C 155 -135 185 -121 209 -95 C 232 -69 246 -33 252 13 C 242 -5 228 -20 209 -32 C 190 -43 170 -49 148 -49 C 114 -49 88 -39 69 -19 C 49 0 40 27 40 61 C 40 101 54 133 82 159 C 110 185 142 198 178 198 C 216 198 246 185 268 160 C 290 134 302 100 302 56 C 302 -11 285 -67 251 -111 C 217 -155 173 -178 118 -178 Z M 159 -10 C 181 -10 201 -2 218 12 C 235 27 246 47 252 73 C 252 94 246 113 234 130 C 222 146 202 155 176 155 C 151 155 130 146 113 130 C 96 113 88 91 88 65 C 88 42 94 24 107 10 C 120 -3 137 -10 159 -10 Z" unicode="₉" />
<glyph horiz-adv-x="701" d="M 73 361 L 79 405 L 375 405 L 369 361 L 73 361 Z M 58 258 L 64 301 L 361 301 L 354 258 L 58 258 Z M 461 -13 C 361 -13 283 15 225 73 C 167 131 139 203 139 289 C 139 397 176 488 250 561 C 324 634 419 671 534 671 C 569 671 605 666 641 657 C 677 648 712 635 747 618 L 740 560 C 708 578 674 593 639 603 C 604 613 568 619 531 619 C 434 619 354 587 292 525 C 229 463 198 385 198 291 C 198 216 222 155 272 109 C 321 63 385 40 465 40 C 503 40 540 45 576 55 C 612 65 647 81 683 101 L 674 41 C 638 22 603 8 568 0 C 532 -8 497 -13 461 -13 Z" unicode="€" />
<glyph horiz-adv-x="641" d="M 359 120 C 285 120 224 144 175 194 C 125 243 101 304 101 378 C 101 461 128 533 184 595 C 239 656 309 687 395 687 C 468 687 529 662 579 613 C 628 563 653 502 653 429 C 653 343 625 270 571 210 C 516 150 445 120 359 120 Z M 359 157 C 429 157 489 182 539 233 C 589 283 614 348 614 428 C 614 492 592 545 550 587 C 508 629 456 650 395 650 C 326 650 266 624 215 573 C 164 522 139 457 139 379 C 139 315 160 262 203 220 C 245 178 297 157 359 157 Z M 269 229 L 319 582 L 402 582 C 435 582 462 573 483 557 C 503 541 514 519 514 492 C 514 451 500 419 474 395 C 447 371 412 360 370 360 L 329 360 L 310 229 L 269 229 Z M 334 399 L 375 399 C 407 399 432 407 448 423 C 464 439 472 459 472 483 C 472 499 465 513 452 525 C 439 537 420 543 395 543 L 354 543 L 334 399 Z" unicode="℗" />
<glyph horiz-adv-x="557" d="M 166 460 L 197 684 L 117 684 L 123 722 L 326 722 L 321 684 L 241 684 L 209 460 L 166 460 Z M 318 460 L 355 722 L 421 722 L 469 568 L 560 722 L 627 722 L 590 460 L 547 460 L 578 680 L 474 508 L 444 508 L 387 682 L 356 460 L 318 460 Z" unicode="™" />
<glyph horiz-adv-x="514" d="M 266 -12 C 208 -12 160 5 123 42 C 86 78 68 128 68 190 C 68 258 89 316 133 362 C 176 408 229 431 293 431 C 334 431 369 421 399 401 C 428 381 448 354 459 321 C 461 415 438 489 389 541 C 340 593 265 620 163 620 L 171 675 C 304 675 395 639 443 567 C 491 495 515 420 515 340 C 515 233 491 148 445 84 C 399 20 339 -11 266 -12 Z M 268 39 C 314 39 354 57 388 94 C 421 131 441 181 448 243 C 447 281 433 314 405 340 C 377 366 342 380 300 380 C 250 380 209 362 176 326 C 143 290 127 246 127 192 C 127 148 140 111 166 82 C 192 53 226 39 268 39 Z" unicode="∂" />
<glyph horiz-adv-x="487" d="M 64 0 L 156 658 L 515 658 L 422 0 L 365 0 L 452 606 L 206 606 L 121 0 L 64 0 Z" unicode="∏" />
<glyph horiz-adv-x="480" d="M 42 0 L 49 50 L 337 338 L 128 611 L 135 658 L 530 658 L 522 606 L 206 606 L 407 339 L 129 57 L 446 57 L 439 0 L 42 0 Z" unicode="∑" />
<glyph horiz-adv-x="500" d="M 60 264 L 67 313 L 496 313 L 489 264 L 60 264 Z" unicode="−" />
<glyph horiz-adv-x="549" d="M 198 -8 L 78 483 L 136 483 L 237 62 L 582 723 L 636 723 L 254 -8 L 198 -8 Z" unicode="√" />
<glyph horiz-adv-x="805" d="M 217 47 C 174 47 140 61 114 90 C 88 118 75 158 75 208 C 75 265 92 312 128 349 C 164 385 208 404 262 404 C 302 404 337 393 366 372 C 394 350 420 318 443 275 C 477 317 510 349 543 371 C 575 392 610 403 646 403 C 690 403 726 388 753 360 C 780 332 794 294 794 246 C 794 188 776 140 741 103 C 706 65 662 47 610 47 C 568 47 534 57 506 79 C 478 101 451 135 427 183 C 391 137 356 102 322 80 C 288 58 253 47 217 47 Z M 129 212 C 129 177 137 149 155 128 C 172 107 196 97 227 97 C 255 97 283 106 311 126 C 339 146 370 179 405 227 L 404 229 C 381 275 358 307 335 326 C 311 344 285 354 257 354 C 220 354 189 340 165 313 C 141 285 129 252 129 212 Z M 466 229 C 490 179 514 144 536 125 C 558 106 584 97 616 97 C 652 97 681 110 705 138 C 728 166 740 200 740 241 C 740 275 730 302 712 322 C 694 342 669 353 638 353 C 611 353 584 343 557 324 C 530 305 500 274 466 230 L 466 229 Z" unicode="∞" />
<glyph horiz-adv-x="472" d="M 47 -226 C 31 -226 16 -224 2 -220 C -11 -216 -25 -211 -38 -203 L -38 -149 C -25 -157 -11 -164 2 -168 C 16 -172 32 -174 49 -174 C 77 -174 100 -163 118 -142 C 135 -120 146 -92 151 -56 L 232 560 C 239 618 257 661 287 689 C 316 717 352 732 394 732 C 410 732 425 730 441 726 C 456 722 471 717 487 711 L 487 655 C 472 663 457 670 441 674 C 425 678 409 680 393 680 C 363 680 339 669 321 648 C 303 627 291 598 287 560 L 206 -56 C 199 -113 181 -156 152 -184 C 123 -212 88 -226 47 -226 Z" unicode="∫" />
<glyph horiz-adv-x="351" d="M 90 294 L 82 336 C 91 349 103 359 119 367 C 134 374 148 378 162 378 C 173 378 184 375 194 371 C 204 367 213 362 223 358 C 233 352 242 347 251 343 C 259 339 270 337 282 337 C 293 337 304 340 315 347 C 325 353 335 361 344 370 L 353 328 C 343 314 330 304 316 297 C 301 289 287 286 274 286 C 263 286 252 288 242 293 C 232 297 222 302 213 307 C 204 311 195 316 186 320 C 177 324 166 327 154 327 C 143 327 132 324 121 318 C 110 312 100 304 90 294 Z M 68 138 L 59 180 C 68 193 80 203 96 211 C 112 218 126 222 140 222 C 151 222 162 219 172 215 C 182 211 192 206 202 202 C 211 197 220 192 229 188 C 238 183 248 181 260 181 C 271 181 282 184 293 191 C 303 197 313 205 322 215 L 331 172 C 321 158 308 148 294 141 C 279 133 265 130 252 130 C 241 130 230 132 220 137 C 209 141 199 146 191 151 C 181 155 172 160 164 164 C 155 168 144 171 132 171 C 120 171 109 168 99 162 C 88 156 78 148 68 138 Z" unicode="≈" />
<glyph horiz-adv-x="489" d="M 83 69 L 393 489 L 450 489 L 139 69 L 83 69 Z M 72 334 L 79 383 L 508 383 L 501 334 L 72 334 Z M 51 189 L 58 237 L 487 237 L 480 189 L 51 189 Z" unicode="≠" />
<glyph horiz-adv-x="446" d="M 313 81 L 104 283 L 371 485 L 450 485 L 180 282 L 389 81 L 313 81 Z M 65 -49 L 72 0 L 370 0 L 363 -49 L 65 -49 Z" unicode="≤" />
<glyph horiz-adv-x="445" d="M 75 81 L 345 283 L 136 485 L 211 485 L 421 283 L 154 81 L 75 81 Z M 66 -49 L 73 0 L 373 0 L 366 -49 L 66 -49 Z" unicode="≥" />
<glyph horiz-adv-x="610" d="M 303 -18 L 93 327 L 401 672 L 610 327 L 303 -18 Z M 311 63 L 548 330 L 391 590 L 155 323 L 311 63 Z" unicode="◊" />
<glyph horiz-adv-x="549" d="M 198 -8 L 79 483 L 136 483 L 237 62 L 582 727 L 636 727 L 254 -8 L 198 -8 Z" unicode="✓" />
<glyph horiz-adv-x="696" d="M 58 0 L 66 55 L 277 55 L 283 95 C 229 109 184 139 146 185 C 108 230 90 286 90 354 C 90 447 122 523 187 583 C 252 642 329 672 418 672 C 502 672 571 646 625 596 C 679 546 707 477 707 390 C 707 314 681 249 629 194 C 577 138 514 104 438 92 L 433 55 L 643 55 L 635 0 L 380 0 L 399 133 C 477 141 538 170 582 219 C 626 267 649 324 649 388 C 649 453 628 508 588 552 C 547 596 490 619 417 619 C 338 619 274 592 224 539 C 174 486 149 425 149 356 C 149 300 165 251 199 210 C 233 169 277 144 333 135 L 314 0 L 58 0 Z" unicode="Ꞷ" />
<glyph horiz-adv-x="145" d="M 22 -216 L -15 -195 C 1 -175 12 -156 20 -138 C 27 -120 32 -100 35 -80 L 41 -40 L 91 -40 L 86 -80 C 82 -104 76 -128 67 -150 C 57 -172 42 -194 22 -216 Z" unicode="" />
<glyph horiz-adv-x="693" d="M 15 0 L 107 658 L 770 658 L 678 0 L 15 0 Z M 225 77 L 272 77 L 337 541 L 432 541 L 366 77 L 413 77 L 446 309 L 483 309 C 537 309 581 323 614 352 C 646 380 663 418 663 465 C 663 497 650 525 625 548 C 600 570 564 582 516 582 L 191 582 L 185 541 L 290 541 L 225 77 Z" unicode="" />
<glyph horiz-adv-x="641" d="M 93 0 L 151 414 L 76 414 L 83 464 L 158 464 L 173 567 C 179 616 198 656 229 686 C 259 716 298 732 344 732 C 360 732 377 730 397 726 C 416 722 433 716 448 708 L 440 653 C 426 661 410 668 393 673 C 375 677 359 680 345 680 C 313 680 286 669 266 649 C 245 628 232 601 228 567 L 214 464 L 301 464 L 294 414 L 207 414 L 148 0 L 93 0 Z M 326 0 C 326 18 327 39 329 61 C 331 83 333 104 336 126 L 383 464 L 439 464 L 391 126 C 388 105 385 83 383 61 C 381 39 380 18 381 0 L 326 0 Z" unicode="ﬁ" />
<glyph horiz-adv-x="653" d="M 93 0 L 151 414 L 76 414 L 83 464 L 158 464 L 173 567 C 179 616 198 656 229 686 C 259 716 298 732 344 732 C 360 732 377 730 397 726 C 416 722 433 716 448 708 L 440 653 C 426 661 410 668 393 673 C 375 677 359 680 345 680 C 313 680 286 669 266 649 C 245 628 232 601 228 567 L 214 464 L 301 464 L 294 414 L 207 414 L 148 0 L 93 0 Z M 324 0 C 324 21 324 44 326 68 C 328 92 330 113 333 133 L 417 722 L 472 722 L 389 127 C 386 106 383 85 381 64 C 379 42 378 21 379 0 L 324 0 Z" unicode="ﬂ" />
</font>
</defs>
</svg>
