<?xml version="1.0" encoding="utf-8" ?><svg version="1.1" xmlns = 'http://www.w3.org/2000/svg'><defs><font id='web' horiz-adv-x="1000">
<font-face font-family="web" descent="-252" cap-height="658" units-per-em="1000" bbox="-178,-333,1224,993" x-height="468" ascent="748" />
<missing-glyph horiz-adv-x="500" d="M 50 -252 L 450 -252 L 450 748 L 50 748 L 50 -252 Z M 100 -202 L 100 698 L 400 698 L 400 -202 L 100 -202 Z" /><glyph horiz-adv-x="200" d="" unicode=" " />
<glyph horiz-adv-x="248" d="M 98 206 L 167 703 L 278 703 L 209 206 L 98 206 Z M 67 0 L 83 113 L 197 113 L 180 0 L 67 0 Z" unicode="!" />
<glyph horiz-adv-x="366" d="M 128 476 L 162 718 L 258 718 L 224 476 L 128 476 Z M 276 476 L 311 718 L 406 718 L 372 476 L 276 476 Z" unicode="&#x22;" />
<glyph horiz-adv-x="587" d="M 63 82 L 77 183 L 164 183 L 197 302 L 108 302 L 123 402 L 225 402 L 258 522 L 358 522 L 325 402 L 417 402 L 450 522 L 550 522 L 517 402 L 590 402 L 575 302 L 489 302 L 456 183 L 545 183 L 531 82 L 428 82 L 395 -38 L 295 -38 L 328 82 L 236 82 L 203 -38 L 103 -38 L 136 82 L 63 82 Z M 264 183 L 356 183 L 389 302 L 297 302 L 264 183 Z" unicode="#" />
<glyph horiz-adv-x="514" d="M 281 615 L 301 758 L 406 758 L 386 615 L 281 615 Z M 180 -100 L 200 43 L 304 43 L 285 -100 L 180 -100 Z M 249 -15 C 215 -15 182 -11 151 -4 C 120 3 91 14 65 30 L 82 153 C 106 134 133 120 163 110 C 192 100 223 95 256 95 C 290 95 317 103 338 119 C 359 135 370 157 370 186 C 370 206 362 224 348 240 C 333 256 309 270 276 283 L 263 288 C 215 306 179 330 155 360 C 131 389 120 423 120 463 C 120 522 141 572 184 612 C 226 652 281 672 348 672 C 379 672 410 668 440 662 C 470 655 498 644 526 630 L 509 506 C 483 525 456 539 429 549 C 402 558 374 563 346 563 C 314 563 290 555 272 540 C 254 524 245 504 245 479 C 245 460 252 443 268 429 C 284 414 309 400 343 386 L 356 381 C 402 362 437 338 460 309 C 483 279 495 245 495 205 C 495 141 471 89 424 47 C 377 5 319 -15 249 -15 Z" unicode="$" />
<glyph horiz-adv-x="852" d="M 668 -8 C 621 -8 584 6 557 35 C 529 64 516 103 516 152 C 516 218 533 270 567 309 C 601 348 645 368 698 368 C 746 368 783 353 810 324 C 836 295 850 257 850 209 C 850 143 832 90 798 51 C 764 11 720 -8 668 -8 Z M 673 78 C 697 78 716 89 730 111 C 744 133 751 164 751 203 C 751 227 745 247 735 261 C 725 275 711 282 693 282 C 669 282 650 270 636 248 C 622 226 615 196 615 158 C 615 131 620 111 631 98 C 641 84 655 78 673 78 Z M 238 0 L 632 718 L 722 718 L 327 0 L 238 0 Z M 255 350 C 208 350 171 364 144 393 C 116 422 103 461 103 510 C 103 576 120 628 154 667 C 188 706 232 726 285 726 C 333 726 370 711 397 682 C 423 653 437 615 437 567 C 437 501 419 448 385 409 C 351 369 307 350 255 350 Z M 260 436 C 284 436 303 447 317 469 C 331 491 338 522 338 561 C 338 585 332 605 322 619 C 312 633 298 640 280 640 C 256 640 237 628 223 606 C 209 584 202 554 202 516 C 202 489 207 469 218 456 C 228 442 242 436 260 436 Z" unicode="%" />
<glyph horiz-adv-x="632" d="M 488 -97 C 456 -97 430 -89 410 -73 C 389 -57 381 -33 386 -3 L 392 34 L 408 91 C 385 53 359 26 331 10 C 303 -6 273 -14 242 -14 C 202 -14 164 -1 129 25 C 94 51 77 93 77 151 C 77 185 88 219 111 255 C 133 291 173 316 229 331 C 191 343 163 363 145 389 C 127 415 118 446 118 482 C 118 543 139 590 183 624 C 226 658 284 675 357 675 C 383 675 410 672 439 666 C 467 660 494 653 519 643 L 503 531 C 481 543 458 553 433 560 C 407 567 382 571 358 571 C 316 571 285 561 266 543 C 246 525 237 501 237 471 C 237 447 247 426 268 409 C 288 391 318 383 357 383 L 440 383 L 456 495 L 571 495 L 556 383 L 649 383 L 635 280 L 541 280 L 510 59 C 507 43 509 30 517 22 C 524 13 534 9 548 9 C 555 9 563 10 572 12 C 580 14 589 18 598 22 L 585 -77 C 570 -83 554 -88 537 -92 C 519 -95 503 -97 488 -97 Z M 292 96 C 316 96 342 106 369 126 C 396 146 413 182 420 233 L 426 280 L 346 280 C 298 280 262 271 239 253 C 215 235 204 210 204 178 C 204 155 211 136 226 120 C 240 104 262 96 292 96 Z" unicode="&#x26;" />
<glyph horiz-adv-x="227" d="M 128 476 L 162 718 L 267 718 L 233 476 L 128 476 Z" unicode="'" />
<glyph horiz-adv-x="380" d="M 226 -212 C 188 -144 160 -75 141 -7 C 121 60 112 130 112 202 C 112 297 130 388 168 474 C 205 560 264 642 344 718 L 465 718 C 383 639 323 557 285 472 C 246 387 227 298 227 204 C 227 138 236 70 255 2 C 274 -65 305 -137 347 -212 L 226 -212 Z" unicode="(" />
<glyph horiz-adv-x="380" d="M 18 -20 C 90 32 144 83 179 135 C 213 187 231 242 231 302 C 231 333 219 366 196 401 C 172 435 136 477 87 525 L 192 525 C 238 483 273 444 297 410 C 321 376 333 340 333 303 C 333 242 316 185 283 133 C 249 81 196 30 124 -20 L 18 -20 Z" unicode=")" />
<glyph horiz-adv-x="581" d="M 200 -3 L 103 77 L 251 214 L 71 247 L 131 376 L 288 295 L 288 480 L 424 480 L 373 293 L 555 376 L 579 247 L 390 214 L 501 77 L 379 -2 L 314 163 L 200 -3 Z" unicode="*" />
<glyph horiz-adv-x="499" d="M 206 83 L 228 243 L 76 243 L 91 342 L 244 342 L 267 502 L 371 502 L 349 342 L 499 342 L 485 243 L 333 243 L 310 83 L 206 83 Z" unicode="+" />
<glyph horiz-adv-x="222" d="M 60 -175 L -13 -145 C 3 -120 18 -95 31 -70 C 43 -44 52 -14 58 22 L 71 118 L 182 118 L 170 29 C 163 -13 149 -53 128 -89 C 106 -125 84 -154 60 -175 Z" unicode="," />
<glyph horiz-adv-x="369" d="M 72 193 L 86 293 L 366 293 L 352 193 L 72 193 Z" unicode="-" />
<glyph horiz-adv-x="209" d="M 47 0 L 64 114 L 177 114 L 161 0 L 47 0 Z" unicode="." />
<glyph horiz-adv-x="466" d="M 22 0 L 419 718 L 545 718 L 148 0 L 22 0 Z" unicode="/" />
<glyph horiz-adv-x="626" d="M 331 -15 C 258 -15 200 8 156 55 C 112 102 91 169 91 255 C 91 371 118 470 173 551 C 228 632 300 673 388 673 C 461 673 519 648 563 599 C 606 549 628 484 628 403 C 628 286 600 187 546 106 C 491 25 419 -15 331 -15 Z M 330 96 C 382 96 424 124 456 181 C 488 238 505 309 505 394 C 505 448 494 489 473 518 C 451 546 424 561 390 561 C 334 561 291 531 261 472 C 230 413 215 343 215 263 C 215 209 225 168 246 139 C 267 110 295 96 330 96 Z" unicode="0" />
<glyph horiz-adv-x="374" d="M 152 0 L 229 550 L 98 531 L 113 642 L 365 674 L 270 0 L 152 0 Z" unicode="1" />
<glyph horiz-adv-x="522" d="M 47 0 L 70 162 L 145 201 C 227 237 293 278 342 324 C 390 370 415 418 415 466 C 415 494 405 517 387 535 C 369 552 344 561 314 561 C 280 561 248 555 218 545 C 188 535 158 520 130 500 L 147 623 C 175 639 205 651 237 659 C 268 667 299 672 330 672 C 394 672 444 654 482 620 C 520 585 539 538 539 478 C 539 416 514 356 466 300 C 418 243 350 195 263 155 L 190 118 L 488 118 L 472 0 L 47 0 Z" unicode="2" />
<glyph horiz-adv-x="509" d="M 246 -14 C 206 -14 170 -10 139 -2 C 107 6 77 18 49 35 L 67 156 C 92 136 120 121 151 111 C 181 101 213 97 246 97 C 284 97 314 105 336 121 C 357 137 368 159 368 189 C 368 215 357 236 335 252 C 313 267 281 275 239 275 L 196 275 L 211 387 L 248 387 C 295 387 332 396 358 414 C 384 432 397 457 397 489 C 397 512 389 530 373 542 C 357 554 333 561 303 561 C 275 561 247 556 219 547 C 191 538 162 525 134 508 L 150 624 C 181 640 211 651 240 659 C 268 666 299 670 332 670 C 386 670 431 657 467 632 C 502 606 520 566 520 510 C 520 470 505 433 477 399 C 449 365 411 343 363 333 C 401 325 431 309 453 283 C 475 257 486 224 486 185 C 486 123 464 74 421 39 C 378 3 320 -14 246 -14 Z" unicode="3" />
<glyph horiz-adv-x="594" d="M 344 0 L 366 157 L 69 157 L 80 237 L 398 661 L 554 661 L 498 262 L 586 262 L 571 157 L 484 157 L 462 0 L 344 0 Z M 380 262 L 417 522 L 223 262 L 380 262 Z" unicode="4" />
<glyph horiz-adv-x="523" d="M 222 -12 C 189 -12 158 -8 130 0 C 102 7 75 19 50 35 L 66 153 C 89 135 115 121 143 112 C 171 103 202 99 235 99 C 279 99 313 108 337 127 C 361 146 373 173 373 207 C 373 237 362 259 341 275 C 319 291 289 299 249 299 C 222 299 195 297 168 294 C 140 291 115 287 92 283 L 166 658 L 533 658 L 517 546 L 259 546 L 230 401 C 239 403 250 405 262 406 C 274 406 285 407 296 407 C 360 407 410 390 447 357 C 484 323 503 279 503 223 C 503 151 477 94 426 52 C 375 9 307 -12 222 -12 Z" unicode="5" />
<glyph horiz-adv-x="567" d="M 302 -12 C 234 -12 181 8 142 50 C 102 92 83 152 83 232 C 83 362 117 468 185 550 C 253 631 335 672 433 672 C 457 672 480 670 502 666 C 523 662 545 655 567 647 L 550 531 C 532 539 511 547 489 553 C 467 559 446 562 428 562 C 382 562 339 545 300 513 C 260 480 233 430 217 363 C 235 387 257 405 283 418 C 309 431 337 438 368 438 C 424 438 468 420 501 385 C 534 349 551 302 551 242 C 551 165 527 103 480 57 C 432 11 373 -12 302 -12 Z M 306 93 C 343 93 373 106 396 132 C 419 158 431 190 431 229 C 431 261 422 287 405 306 C 387 325 365 335 337 335 C 306 335 278 325 252 305 C 226 285 209 259 201 227 C 198 189 206 157 225 131 C 243 105 270 93 306 93 Z" unicode="6" />
<glyph horiz-adv-x="515" d="M 129 0 L 407 546 L 122 546 L 138 658 L 561 658 L 549 572 L 256 0 L 129 0 Z" unicode="7" />
<glyph horiz-adv-x="563" d="M 290 -15 C 227 -15 175 0 135 31 C 94 62 74 104 74 156 C 74 196 86 231 111 263 C 135 294 169 319 213 338 C 187 354 167 375 153 399 C 139 423 132 449 132 478 C 132 537 154 584 198 620 C 242 656 298 674 364 674 C 422 674 469 659 506 631 C 543 602 562 565 562 519 C 562 484 551 453 529 426 C 507 398 476 376 437 359 C 471 339 496 315 514 288 C 531 260 540 231 540 201 C 540 135 516 82 468 43 C 420 4 361 -15 290 -15 Z M 334 401 L 345 397 C 376 407 399 422 415 440 C 431 458 439 478 439 500 C 439 519 431 535 417 549 C 402 562 382 569 356 569 C 325 569 300 561 282 545 C 264 529 255 510 255 486 C 255 467 262 450 276 435 C 290 420 309 409 334 401 Z M 201 173 C 201 148 210 128 228 112 C 246 96 270 89 300 89 C 334 89 361 98 382 118 C 403 137 414 161 414 190 C 414 212 405 232 388 250 C 371 268 347 282 317 293 L 307 296 C 274 285 248 268 229 246 C 210 223 201 199 201 173 Z" unicode="8" />
<glyph horiz-adv-x="571" d="M 226 -12 C 202 -12 179 -9 156 -5 C 133 -1 111 5 91 13 L 108 129 C 127 118 147 110 169 105 C 190 99 211 97 231 97 C 277 97 319 113 359 146 C 398 179 425 229 441 297 C 423 273 401 254 375 241 C 349 228 320 222 290 222 C 234 222 190 239 157 273 C 123 307 107 354 107 414 C 107 487 131 548 179 598 C 227 647 286 672 358 672 C 424 672 477 651 516 609 C 555 567 575 507 575 428 C 575 297 541 191 473 110 C 405 28 322 -12 226 -12 Z M 321 325 C 351 325 379 334 405 354 C 431 374 448 400 457 432 C 459 470 451 502 433 528 C 415 554 388 567 354 567 C 318 567 288 553 264 527 C 240 501 228 468 228 428 C 228 396 236 371 254 353 C 271 334 293 325 321 325 Z" unicode="9" />
<glyph horiz-adv-x="209" d="M 47 0 L 64 114 L 177 114 L 161 0 L 47 0 Z M 88 291 L 105 405 L 218 405 L 202 291 L 88 291 Z" unicode=":" />
<glyph horiz-adv-x="225" d="M 61 -175 L -12 -145 C 4 -120 19 -95 32 -70 C 44 -44 53 -14 59 22 L 72 118 L 183 118 L 171 29 C 164 -13 150 -53 129 -89 C 107 -125 85 -154 61 -175 Z M 97 291 L 114 405 L 227 405 L 211 291 L 97 291 Z" unicode=";" />
<glyph horiz-adv-x="510" d="M 300 85 L 105 296 L 361 509 L 518 509 L 261 296 L 457 85 L 300 85 Z" unicode="&#x3C;" />
<glyph horiz-adv-x="528" d="M 92 337 L 107 437 L 538 437 L 523 337 L 92 337 Z M 65 148 L 80 248 L 511 248 L 497 148 L 65 148 Z" unicode="=" />
<glyph horiz-adv-x="486" d="M 63 85 L 319 296 L 124 509 L 279 509 L 474 296 L 221 85 L 63 85 Z" unicode="&#x3E;" />
<glyph horiz-adv-x="463" d="M 191 206 C 196 247 207 283 225 314 C 242 344 268 375 303 407 C 333 435 353 458 365 477 C 376 496 382 515 382 534 C 382 558 372 578 353 593 C 334 607 308 615 275 615 C 249 615 222 611 194 603 C 166 595 140 585 118 571 L 136 685 C 160 695 187 704 218 710 C 249 716 280 720 310 720 C 369 720 416 705 451 675 C 485 645 503 606 503 558 C 503 525 493 493 474 461 C 455 429 428 397 392 365 C 362 338 340 312 326 288 C 312 263 303 236 299 206 L 191 206 Z M 161 0 L 177 113 L 290 113 L 275 0 L 161 0 Z" unicode="?" />
<glyph horiz-adv-x="806" d="M 393 -73 C 305 -73 232 -44 174 11 C 115 67 86 143 86 237 C 86 357 124 453 201 523 C 278 593 374 629 489 629 C 578 629 652 603 712 553 C 771 503 801 435 801 350 C 801 275 784 216 752 173 C 719 129 678 108 630 108 C 604 108 580 113 559 125 C 537 136 521 156 511 186 C 497 157 478 137 454 125 C 430 113 407 108 385 108 C 351 108 322 119 300 143 C 278 167 267 199 267 240 C 267 302 286 351 324 389 C 362 426 411 445 469 445 C 486 445 506 443 529 439 C 552 435 573 429 593 423 L 573 274 C 569 245 572 221 583 203 C 594 185 611 176 635 176 C 662 176 684 192 700 225 C 716 257 725 299 725 349 C 725 407 703 456 661 496 C 619 536 561 556 489 556 C 388 556 308 525 250 465 C 191 404 162 329 162 239 C 162 171 183 114 225 68 C 267 22 323 0 393 0 C 421 0 451 4 484 12 C 517 20 546 30 572 43 L 571 -36 C 545 -46 515 -55 483 -62 C 450 -69 420 -73 393 -73 Z M 406 179 C 426 179 444 190 462 212 C 480 234 492 269 499 317 L 506 369 C 500 371 493 372 484 374 C 475 376 466 377 456 377 C 423 377 396 364 376 340 C 356 316 346 286 346 250 C 346 229 351 212 362 199 C 372 185 387 179 406 179 Z" unicode="@" />
<glyph horiz-adv-x="662" d="M 14 0 L 368 660 L 479 660 L 648 0 L 524 0 L 485 162 L 220 162 L 136 0 L 14 0 Z M 352 416 L 275 267 L 459 267 L 423 416 L 401 517 L 352 416 Z" unicode="A" />
<glyph horiz-adv-x="563" d="M 77 0 L 169 658 L 349 658 C 417 658 467 644 500 617 C 533 589 550 552 550 504 C 550 464 539 429 517 398 C 495 367 461 346 416 334 C 455 325 484 308 504 284 C 524 260 534 230 534 196 C 534 136 512 88 469 53 C 425 17 359 0 271 0 L 77 0 Z M 249 381 L 321 381 C 357 381 384 389 402 406 C 420 422 430 446 430 477 C 430 501 422 520 408 534 C 393 548 371 555 342 555 L 273 555 L 249 381 Z M 210 103 L 293 103 C 333 103 363 111 383 129 C 403 146 414 170 414 202 C 414 227 405 247 388 261 C 370 275 344 283 310 283 L 235 283 L 210 103 Z" unicode="B" />
<glyph horiz-adv-x="651" d="M 408 -15 C 308 -15 229 14 173 72 C 116 130 88 201 88 287 C 88 397 124 489 196 563 C 268 636 365 673 485 673 C 521 673 556 668 590 660 C 624 652 657 639 689 623 L 672 505 C 641 523 609 538 577 548 C 544 558 510 564 474 564 C 394 564 330 539 282 489 C 234 439 210 374 210 295 C 210 237 228 189 266 151 C 304 113 355 94 419 94 C 457 94 493 99 528 110 C 562 121 597 137 632 158 L 615 37 C 581 19 546 5 511 -2 C 476 -10 442 -15 408 -15 Z" unicode="C" />
<glyph horiz-adv-x="702" d="M 77 0 L 169 658 L 388 658 C 486 658 563 631 620 577 C 677 523 706 454 706 369 C 706 260 668 171 594 103 C 519 34 419 0 293 0 L 77 0 Z M 211 111 L 308 111 C 393 111 460 134 510 181 C 560 228 585 289 585 363 C 585 416 566 460 529 495 C 492 529 442 547 378 547 L 272 547 L 211 111 Z" unicode="D" />
<glyph horiz-adv-x="529" d="M 77 0 L 169 658 L 550 658 L 534 547 L 271 547 L 249 389 L 504 389 L 488 278 L 234 278 L 211 111 L 486 111 L 470 0 L 77 0 Z" unicode="E" />
<glyph horiz-adv-x="479" d="M 77 0 L 169 658 L 529 658 L 513 547 L 271 547 L 248 381 L 478 381 L 462 270 L 233 270 L 195 0 L 77 0 Z" unicode="F" />
<glyph horiz-adv-x="693" d="M 404 -15 C 305 -15 227 13 171 70 C 115 126 87 197 87 281 C 87 393 123 487 196 561 C 268 635 364 673 483 673 C 521 673 558 669 596 661 C 634 653 667 642 696 628 L 680 512 C 652 528 619 540 583 550 C 547 559 511 564 475 564 C 395 564 331 538 282 487 C 233 435 209 370 209 291 C 209 233 227 186 265 150 C 303 113 352 95 412 95 C 435 95 457 96 477 100 C 497 103 516 109 533 117 L 551 246 L 417 246 L 433 357 L 686 357 L 642 42 C 602 22 562 7 522 -1 C 481 -10 442 -15 404 -15 Z" unicode="G" />
<glyph horiz-adv-x="707" d="M 77 0 L 169 658 L 288 658 L 250 390 L 566 390 L 604 658 L 723 658 L 631 0 L 512 0 L 551 279 L 235 279 L 196 0 L 77 0 Z" unicode="H" />
<glyph horiz-adv-x="272" d="M 77 0 L 169 658 L 288 658 L 196 0 L 77 0 Z" unicode="I" />
<glyph horiz-adv-x="282" d="M -31 -212 L -39 -212 L -24 -103 L -16 -103 C 11 -103 33 -96 51 -83 C 68 -70 79 -47 84 -13 L 179 658 L 297 658 L 204 -12 C 194 -83 167 -134 124 -165 C 81 -196 29 -212 -31 -212 Z" unicode="J" />
<glyph horiz-adv-x="629" d="M 77 0 L 169 658 L 288 658 L 246 361 L 546 658 L 692 658 L 364 335 L 613 0 L 466 0 L 239 314 L 195 0 L 77 0 Z" unicode="K" />
<glyph horiz-adv-x="479" d="M 77 0 L 169 658 L 288 658 L 212 111 L 475 111 L 459 0 L 77 0 Z" unicode="L" />
<glyph horiz-adv-x="824" d="M 77 0 L 169 658 L 338 658 L 419 372 L 444 255 L 502 372 L 662 658 L 839 658 L 747 0 L 631 0 L 689 414 L 710 536 L 646 414 L 485 129 L 371 129 L 288 414 L 260 529 L 248 414 L 189 0 L 77 0 Z" unicode="M" />
<glyph horiz-adv-x="731" d="M 77 0 L 169 658 L 290 658 L 528 249 L 567 174 L 576 249 L 633 658 L 746 658 L 654 0 L 535 0 L 294 414 L 256 485 L 248 414 L 189 0 L 77 0 Z" unicode="N" />
<glyph horiz-adv-x="766" d="M 401 -16 C 310 -16 235 11 176 67 C 117 122 88 195 88 287 C 88 397 122 489 190 563 C 258 637 347 674 455 674 C 546 674 621 646 681 590 C 740 534 770 461 770 369 C 770 258 735 166 666 93 C 597 20 509 -16 401 -16 Z M 404 95 C 476 95 534 120 580 170 C 625 220 648 285 648 364 C 648 420 630 467 595 505 C 560 543 513 563 453 563 C 381 563 322 538 277 488 C 232 438 210 373 210 294 C 210 238 227 190 262 152 C 296 114 344 95 404 95 Z" unicode="O" />
<glyph horiz-adv-x="526" d="M 77 0 L 169 658 L 329 658 C 396 658 450 640 490 605 C 530 569 551 522 551 463 C 551 395 526 337 477 291 C 428 245 362 222 278 222 L 227 222 L 195 0 L 77 0 Z M 241 328 L 288 328 C 330 328 364 339 391 362 C 417 384 431 414 431 452 C 431 481 421 504 401 522 C 381 540 354 549 319 549 L 272 549 L 241 328 Z" unicode="P" />
<glyph horiz-adv-x="766" d="M 675 -153 C 619 -137 567 -115 518 -87 C 469 -59 428 -24 396 18 L 499 95 C 522 64 552 37 589 14 C 626 -9 666 -27 709 -39 L 675 -153 Z M 401 -16 C 310 -16 235 11 176 67 C 117 122 88 195 88 287 C 88 397 122 489 190 563 C 258 637 347 674 455 674 C 546 674 621 646 681 590 C 740 534 770 461 770 369 C 770 258 735 166 666 93 C 597 20 509 -16 401 -16 Z M 404 95 C 476 95 534 120 580 170 C 625 220 648 285 648 364 C 648 420 630 467 595 505 C 560 543 513 563 453 563 C 381 563 322 538 277 488 C 232 438 210 373 210 294 C 210 238 227 190 262 152 C 296 114 344 95 404 95 Z" unicode="Q" />
<glyph horiz-adv-x="565" d="M 77 0 L 170 658 L 358 658 C 420 658 467 644 501 616 C 535 588 552 551 552 503 C 552 453 538 412 510 378 C 482 344 445 322 398 312 C 422 305 442 294 457 278 C 471 262 482 241 488 217 L 541 0 L 419 0 L 373 193 C 367 217 357 236 343 249 C 328 261 310 268 288 268 L 233 268 L 196 0 L 77 0 Z M 248 368 L 317 368 C 347 368 373 378 393 398 C 413 418 423 444 423 474 C 423 497 415 516 401 530 C 386 544 366 552 342 552 L 273 552 L 248 368 Z" unicode="R" />
<glyph horiz-adv-x="524" d="M 251 -15 C 217 -15 184 -11 153 -4 C 122 3 93 14 67 30 L 84 153 C 108 134 135 120 165 110 C 194 100 225 95 258 95 C 292 95 319 103 340 119 C 361 135 372 157 372 186 C 372 206 364 224 350 240 C 335 256 311 270 278 283 L 265 288 C 217 306 181 330 157 360 C 133 389 122 423 122 463 C 122 522 143 572 186 612 C 228 652 283 672 350 672 C 381 672 412 668 442 662 C 472 655 500 644 528 630 L 511 506 C 485 525 458 539 431 549 C 404 558 376 563 348 563 C 316 563 292 555 274 540 C 256 524 247 504 247 479 C 247 460 254 443 270 429 C 286 414 311 400 345 386 L 358 381 C 404 362 439 338 462 309 C 485 279 497 245 497 205 C 497 141 473 89 426 47 C 379 5 321 -15 251 -15 Z" unicode="S" />
<glyph horiz-adv-x="559" d="M 220 0 L 297 547 L 97 547 L 113 658 L 631 658 L 615 547 L 415 547 L 338 0 L 220 0 Z" unicode="T" />
<glyph horiz-adv-x="690" d="M 351 -12 C 264 -12 198 12 154 61 C 110 109 94 175 106 258 L 162 658 L 280 658 L 224 255 C 217 207 225 169 249 141 C 272 113 308 99 357 99 C 407 99 449 113 483 141 C 517 169 538 206 545 254 L 602 658 L 713 658 L 656 251 C 643 165 609 100 555 55 C 500 10 432 -12 351 -12 Z" unicode="U" />
<glyph horiz-adv-x="654" d="M 275 0 L 100 658 L 225 658 L 329 244 L 348 152 L 394 244 L 615 658 L 738 658 L 379 0 L 275 0 Z" unicode="V" />
<glyph horiz-adv-x="952" d="M 211 0 L 100 658 L 222 658 L 283 244 L 293 147 L 330 244 L 508 658 L 632 658 L 694 244 L 703 148 L 738 244 L 915 658 L 1036 658 L 741 0 L 618 0 L 557 414 L 548 506 L 513 414 L 335 0 L 211 0 Z" unicode="W" />
<glyph horiz-adv-x="637" d="M 16 0 L 298 341 L 124 658 L 260 658 L 351 485 L 378 428 L 421 485 L 562 658 L 705 658 L 435 335 L 621 0 L 484 0 L 380 194 L 355 244 L 315 194 L 159 0 L 16 0 Z" unicode="X" />
<glyph horiz-adv-x="623" d="M 253 0 L 291 265 L 104 658 L 237 658 L 336 444 L 364 372 L 413 444 L 570 658 L 703 658 L 408 266 L 371 0 L 253 0 Z" unicode="Y" />
<glyph horiz-adv-x="590" d="M 46 0 L 55 66 L 398 493 L 443 547 L 130 547 L 146 658 L 636 658 L 628 593 L 284 165 L 240 111 L 560 111 L 544 0 L 46 0 Z" unicode="Z" />
<glyph horiz-adv-x="364" d="M 54 -212 L 184 718 L 404 718 L 391 620 L 282 620 L 178 -114 L 287 -114 L 274 -212 L 54 -212 Z" unicode="[" />
<glyph horiz-adv-x="474" d="M 346 0 L 114 718 L 228 718 L 461 0 L 346 0 Z" unicode="\" />
<glyph horiz-adv-x="362" d="M 29 -212 L 42 -114 L 151 -114 L 255 620 L 146 620 L 159 718 L 379 718 L 249 -212 L 29 -212 Z" unicode="]" />
<glyph horiz-adv-x="377" d="M 118 524 L 233 668 L 330 668 L 405 524 L 310 524 L 271 593 L 214 524 L 118 524 Z" unicode="^" />
<glyph horiz-adv-x="469" d="M -30 -212 L -16 -112 L 454 -112 L 439 -212 L -30 -212 Z" unicode="_" />
<glyph horiz-adv-x="238" d="M 170 580 L 68 725 L 201 725 L 289 580 L 170 580 Z" unicode="`" />
<glyph horiz-adv-x="545" d="M 232 -10 C 184 -10 144 6 113 40 C 81 73 66 120 66 180 C 66 266 93 337 149 393 C 205 449 274 478 356 478 C 384 478 415 474 449 468 C 483 462 513 453 540 443 L 499 150 C 496 125 493 100 491 76 C 489 52 488 26 488 0 L 373 0 C 373 10 373 20 373 31 C 373 42 374 52 375 62 L 376 85 C 358 50 337 25 311 11 C 285 -2 259 -10 232 -10 Z M 266 91 C 296 91 323 106 349 137 C 375 167 393 218 404 290 L 414 366 C 402 370 390 374 378 376 C 366 378 353 379 339 379 C 296 379 259 360 227 324 C 195 287 180 244 180 194 C 180 160 187 134 203 117 C 219 99 240 91 266 91 Z" unicode="a" />
<glyph horiz-adv-x="542" d="M 251 -10 C 224 -10 193 -8 158 -4 C 123 0 91 5 62 12 L 161 718 L 277 718 L 237 440 L 227 379 C 243 413 263 438 289 454 C 315 470 344 478 377 478 C 423 478 461 460 492 426 C 523 391 539 344 539 286 C 539 201 512 130 458 74 C 404 18 335 -10 251 -10 Z M 265 90 C 309 90 347 107 378 142 C 408 177 424 220 424 271 C 424 304 416 330 401 349 C 385 367 364 377 336 377 C 305 377 278 362 254 332 C 230 302 212 251 202 177 L 190 98 C 200 95 212 93 226 92 C 240 90 253 90 265 90 Z" unicode="b" />
<glyph horiz-adv-x="472" d="M 289 -10 C 223 -10 171 9 131 49 C 91 88 72 138 72 198 C 72 280 97 348 148 400 C 198 452 265 478 349 478 C 374 478 398 475 421 469 C 444 463 467 454 490 443 L 474 332 C 451 346 429 357 409 364 C 389 371 365 375 339 375 C 293 375 256 359 228 328 C 200 297 186 258 186 210 C 186 174 196 145 218 124 C 240 103 269 93 306 93 C 333 93 358 97 382 105 C 405 113 428 126 451 142 L 435 30 C 412 16 389 6 365 0 C 341 -6 315 -10 289 -10 Z" unicode="c" />
<glyph horiz-adv-x="549" d="M 235 -10 C 187 -10 148 6 116 40 C 84 73 69 120 69 180 C 69 266 96 337 152 393 C 207 449 275 478 357 478 C 368 478 380 477 393 475 C 406 473 419 471 432 467 L 467 718 L 582 718 L 502 150 C 499 125 496 100 494 76 C 492 52 491 26 491 0 L 377 0 C 377 8 377 18 377 28 C 377 38 377 50 378 62 L 379 85 C 361 50 340 25 314 11 C 288 -2 262 -10 235 -10 Z M 269 91 C 299 91 326 106 352 137 C 378 167 396 218 407 290 L 417 362 C 406 367 394 371 380 374 C 366 377 353 379 340 379 C 298 379 261 360 230 324 C 198 288 183 244 183 194 C 183 160 190 134 206 117 C 222 99 243 91 269 91 Z" unicode="d" />
<glyph horiz-adv-x="492" d="M 292 -10 C 221 -10 166 9 128 49 C 90 88 71 139 71 201 C 71 280 95 346 145 399 C 194 451 255 478 329 478 C 377 478 416 465 447 439 C 477 413 493 381 493 342 C 493 292 473 254 434 229 C 394 204 331 189 243 185 L 187 182 C 189 152 201 129 222 113 C 243 97 271 89 306 89 C 334 89 362 93 389 102 C 416 110 442 123 468 140 L 451 29 C 426 16 400 6 374 0 C 348 -6 320 -10 292 -10 Z M 316 382 C 285 382 258 370 236 348 C 213 325 199 297 194 263 L 253 267 C 295 269 326 276 346 288 C 366 300 376 316 376 338 C 376 351 370 362 360 370 C 349 378 334 382 316 382 Z" unicode="e" />
<glyph horiz-adv-x="293" d="M 83 0 L 135 366 L 71 366 L 85 468 L 149 468 L 157 528 C 165 589 187 638 225 674 C 262 710 308 728 364 728 C 382 728 402 725 422 721 C 442 716 460 710 478 702 L 463 594 C 448 602 433 609 417 615 C 401 620 384 623 368 623 C 340 623 318 614 302 598 C 286 581 275 557 271 527 L 263 468 L 341 468 L 327 366 L 249 366 L 197 0 L 83 0 Z" unicode="f" />
<glyph horiz-adv-x="539" d="M 218 -222 C 191 -222 163 -219 133 -213 C 103 -207 76 -198 51 -188 L 66 -77 C 86 -89 111 -99 139 -107 C 167 -115 193 -119 217 -119 C 259 -119 293 -109 318 -90 C 343 -71 359 -40 365 4 L 376 85 C 359 50 338 25 312 11 C 286 -2 260 -10 234 -10 C 186 -10 146 6 114 39 C 82 72 67 119 67 180 C 67 265 95 336 151 393 C 207 449 276 478 358 478 C 386 478 417 474 451 468 C 485 462 515 453 542 443 L 482 20 C 470 -63 442 -124 399 -163 C 355 -202 295 -222 218 -222 Z M 268 91 C 298 91 325 106 351 137 C 376 167 394 218 405 290 L 416 366 C 405 370 393 373 380 375 C 367 377 354 379 341 379 C 298 379 261 360 229 324 C 197 287 182 243 182 193 C 182 159 189 133 205 116 C 220 99 241 91 268 91 Z" unicode="g" />
<glyph horiz-adv-x="528" d="M 60 0 L 161 718 L 277 718 L 241 467 C 239 452 236 437 233 421 C 230 405 227 389 225 375 C 243 410 265 436 293 453 C 321 469 349 478 379 478 C 425 478 460 462 486 432 C 511 401 519 360 510 308 L 478 134 C 474 112 471 90 470 68 C 469 45 469 22 469 0 L 354 0 C 354 22 354 45 355 68 C 356 91 359 113 363 134 L 391 273 C 397 305 394 329 381 347 C 367 365 349 374 326 374 C 302 374 278 360 254 332 C 229 304 210 243 196 149 L 175 0 L 60 0 Z" unicode="h" />
<glyph horiz-adv-x="244" d="M 141 574 L 157 687 L 274 687 L 257 574 L 141 574 Z M 70 0 C 70 22 70 44 72 66 C 74 88 76 110 79 132 L 127 468 L 242 468 L 195 132 C 192 112 190 90 188 66 C 186 42 185 20 185 0 L 70 0 Z" unicode="i" />
<glyph horiz-adv-x="230" d="M 134 578 L 150 691 L 267 691 L 251 578 L 134 578 Z M -54 -212 L -62 -212 L -48 -107 L -40 -107 C -14 -107 6 -99 22 -85 C 38 -70 48 -49 52 -21 L 121 468 L 235 468 L 167 -21 C 158 -84 135 -132 97 -164 C 59 -196 9 -212 -54 -212 Z" unicode="j" />
<glyph horiz-adv-x="498" d="M 60 0 L 161 718 L 277 718 L 213 269 C 256 299 296 332 332 367 C 368 401 398 435 420 468 L 545 468 C 512 418 477 374 441 337 C 405 299 368 268 332 243 L 488 0 L 355 0 L 209 238 L 175 0 L 60 0 Z" unicode="k" />
<glyph horiz-adv-x="240" d="M 72 0 C 71 22 71 44 73 68 C 75 91 77 113 80 135 L 162 718 L 278 718 L 195 134 C 192 112 190 89 188 67 C 186 45 186 22 188 0 L 72 0 Z" unicode="l" />
<glyph horiz-adv-x="825" d="M 67 0 L 115 344 C 118 366 120 388 122 409 C 124 429 125 449 125 468 L 239 468 C 239 458 238 447 238 435 C 238 423 237 412 237 403 L 235 377 C 253 411 275 437 301 453 C 327 469 355 478 385 478 C 413 478 439 470 465 454 C 491 438 507 411 514 373 C 536 416 562 444 593 458 C 624 471 652 478 677 478 C 723 478 758 462 784 432 C 810 401 818 360 809 308 L 777 134 C 773 111 770 88 768 66 C 766 44 766 22 766 0 L 651 0 C 651 22 651 44 653 66 C 654 88 657 111 662 134 L 689 273 C 695 304 691 329 679 347 C 666 365 648 374 624 374 C 591 374 564 355 543 317 C 521 279 505 223 495 149 L 474 0 L 358 0 L 397 273 C 401 305 397 329 385 347 C 373 365 355 374 332 374 C 299 374 272 355 251 317 C 229 279 213 223 203 149 L 182 0 L 67 0 Z" unicode="m" />
<glyph horiz-adv-x="533" d="M 67 0 L 115 344 C 118 366 120 388 122 409 C 124 429 125 449 125 468 L 239 468 C 239 458 238 446 238 434 C 238 422 237 411 237 403 L 235 377 C 253 411 275 437 301 453 C 327 469 355 478 384 478 C 430 478 465 462 490 431 C 515 399 523 358 514 308 L 483 134 C 479 112 476 90 475 68 C 474 45 474 22 474 0 L 358 0 C 358 22 358 45 359 68 C 360 91 363 113 367 134 L 395 273 C 401 304 398 329 385 347 C 372 365 354 374 331 374 C 303 374 278 356 255 322 C 231 288 214 230 203 149 L 182 0 L 67 0 Z" unicode="n" />
<glyph horiz-adv-x="550" d="M 290 -12 C 223 -12 170 7 131 45 C 91 83 72 135 72 201 C 72 280 96 346 145 400 C 193 453 254 480 327 480 C 393 480 445 460 484 422 C 523 384 543 332 543 267 C 543 187 518 121 470 68 C 422 14 362 -12 290 -12 Z M 295 91 C 333 91 364 107 390 140 C 416 172 429 213 429 261 C 429 295 418 323 398 345 C 378 367 352 378 321 378 C 282 378 250 361 224 329 C 198 296 186 256 186 208 C 186 174 196 146 216 124 C 236 102 263 91 295 91 Z" unicode="o" />
<glyph horiz-adv-x="550" d="M 38 -212 L 117 344 C 120 368 122 389 123 408 C 124 427 125 447 125 468 L 238 468 C 238 457 237 446 237 434 C 237 422 236 412 236 402 L 234 374 C 250 412 272 438 298 454 C 324 470 352 478 381 478 C 429 478 468 461 500 428 C 531 395 547 347 547 285 C 547 201 521 131 469 75 C 417 18 350 -10 270 -10 C 255 -10 240 -8 226 -6 C 211 -4 197 -1 184 3 L 154 -212 L 38 -212 Z M 279 87 C 324 87 361 105 390 141 C 418 177 433 220 433 268 C 433 303 425 330 409 348 C 393 366 371 376 345 376 C 321 376 295 364 268 342 C 241 319 222 264 210 177 L 200 100 C 212 95 224 92 237 90 C 250 88 264 87 279 87 Z" unicode="p" />
<glyph horiz-adv-x="536" d="M 336 -212 L 378 85 C 362 52 341 28 316 13 C 290 -2 263 -10 235 -10 C 187 -10 148 6 116 39 C 84 72 69 119 69 180 C 69 264 96 334 152 392 C 208 449 277 478 359 478 C 387 478 418 474 452 468 C 486 462 516 453 543 443 L 452 -212 L 336 -212 Z M 269 91 C 299 91 327 106 353 137 C 379 167 397 218 407 290 L 418 366 C 405 370 393 374 381 376 C 369 378 356 379 343 379 C 299 379 261 360 230 324 C 198 288 183 244 183 194 C 183 160 190 134 206 117 C 222 99 243 91 269 91 Z" unicode="q" />
<glyph horiz-adv-x="353" d="M 67 0 L 115 344 C 118 366 120 388 122 409 C 124 429 125 449 125 468 L 239 468 C 239 458 239 448 239 436 C 239 424 238 413 238 402 L 236 377 C 250 411 267 436 287 453 C 307 469 330 478 355 478 C 363 478 372 477 382 475 C 392 473 402 471 411 468 L 393 341 C 383 346 373 350 361 353 C 349 356 339 358 329 358 C 302 358 277 344 255 318 C 233 292 215 235 203 149 L 182 0 L 67 0 Z" unicode="r" />
<glyph horiz-adv-x="414" d="M 197 -10 C 174 -10 149 -7 123 -1 C 97 4 73 11 51 20 L 66 121 C 84 109 106 99 131 92 C 156 85 180 82 203 83 C 224 83 242 87 256 95 C 270 103 277 115 277 132 C 277 144 271 155 261 163 C 250 171 233 178 211 186 L 198 191 C 161 202 133 219 115 242 C 97 265 88 294 88 330 C 88 374 104 409 138 437 C 171 464 216 478 272 478 C 292 478 315 475 342 471 C 369 467 393 460 414 452 L 400 353 C 382 363 361 371 337 377 C 313 383 290 386 270 386 C 250 386 234 382 222 374 C 210 366 204 355 204 341 C 204 329 208 318 217 310 C 226 302 241 294 262 287 L 276 283 C 315 269 344 252 364 230 C 383 208 393 181 393 149 C 393 101 375 63 340 34 C 305 4 257 -10 197 -10 Z" unicode="s" />
<glyph horiz-adv-x="326" d="M 205 -10 C 165 -10 136 2 117 27 C 97 52 91 87 98 131 L 131 365 L 67 365 L 82 468 L 145 468 L 163 599 L 279 599 L 260 468 L 354 468 L 339 365 L 246 365 L 215 146 C 212 128 214 115 220 107 C 226 99 235 95 249 95 C 258 95 267 96 276 98 C 285 100 294 103 303 108 L 288 6 C 275 1 261 -2 247 -5 C 233 -8 219 -10 205 -10 Z" unicode="t" />
<glyph horiz-adv-x="534" d="M 214 -10 C 168 -10 132 5 107 36 C 81 66 73 108 82 160 L 111 345 C 115 369 118 391 120 411 C 122 431 123 450 123 468 L 239 468 C 239 447 238 426 236 405 C 234 383 231 362 227 340 L 202 196 C 196 162 198 137 210 120 C 221 102 240 94 266 94 C 295 94 321 110 343 142 C 365 174 383 234 396 320 L 417 468 L 532 468 L 485 130 C 482 108 480 86 478 64 C 476 42 476 20 476 0 L 361 0 C 361 10 361 21 361 31 C 361 41 362 52 363 62 L 364 92 C 346 56 323 30 297 14 C 271 -1 243 -10 214 -10 Z" unicode="u" />
<glyph horiz-adv-x="472" d="M 173 0 L 80 468 L 199 468 L 247 204 L 258 117 C 286 167 312 222 337 281 C 361 339 385 402 407 468 L 523 468 C 490 376 455 291 418 213 C 380 135 341 64 301 0 L 173 0 Z" unicode="v" />
<glyph horiz-adv-x="744" d="M 155 0 L 80 468 L 195 468 L 235 204 L 242 122 C 266 176 291 231 315 289 C 339 347 362 406 384 468 L 491 468 L 536 204 L 547 122 C 573 178 598 236 622 294 C 645 352 666 410 685 468 L 795 468 C 769 388 738 308 704 229 C 669 150 631 74 589 0 L 465 0 L 428 231 L 419 312 C 398 260 376 207 352 155 C 328 102 303 50 278 0 L 155 0 Z" unicode="w" />
<glyph horiz-adv-x="472" d="M 10 0 L 208 240 L 86 468 L 212 468 L 262 370 L 280 327 L 311 369 L 389 468 L 519 468 L 333 242 L 462 0 L 335 0 L 279 110 L 260 152 L 228 110 L 140 0 L 10 0 Z" unicode="x" />
<glyph horiz-adv-x="512" d="M -9 -212 L -16 -212 L -2 -107 L 6 -107 C 44 -107 80 -98 114 -82 C 148 -66 179 -43 205 -14 L 93 468 L 220 468 L 273 205 L 291 84 C 315 130 339 185 362 247 C 385 309 408 383 432 468 L 550 468 C 480 228 400 55 309 -51 C 217 -158 111 -212 -9 -212 Z" unicode="y" />
<glyph horiz-adv-x="449" d="M 39 0 L 51 83 L 258 318 L 302 365 L 95 365 L 109 468 L 470 468 L 459 385 L 251 150 L 207 103 L 424 103 L 409 0 L 39 0 Z" unicode="z" />
<glyph horiz-adv-x="469" d="M 372 -212 C 292 -212 233 -195 197 -162 C 160 -129 149 -79 164 -13 L 186 94 C 192 124 186 149 166 167 C 146 185 115 197 73 204 L 87 301 C 131 307 165 320 190 338 C 215 356 228 381 230 412 L 236 519 C 240 585 264 635 310 668 C 356 701 419 718 499 718 L 518 718 L 503 617 L 484 617 C 441 617 408 607 386 588 C 363 569 351 540 349 501 L 345 412 C 343 368 328 334 302 308 C 275 282 241 264 200 254 L 200 253 C 238 240 266 221 285 195 C 304 169 309 135 301 94 L 282 5 C 273 -34 277 -63 295 -83 C 312 -102 342 -112 385 -112 L 404 -112 L 390 -212 L 372 -212 Z" unicode="{" />
<glyph horiz-adv-x="218" d="M 29 -212 L 160 718 L 258 718 L 127 -212 L 29 -212 Z" unicode="|" />
<glyph horiz-adv-x="469" d="M 22 -212 L 37 -112 L 56 -112 C 98 -112 131 -102 154 -83 C 176 -63 189 -34 191 5 L 195 94 C 196 136 210 171 237 197 C 264 223 298 241 339 252 L 339 253 C 301 265 273 284 254 310 C 235 336 230 370 239 412 L 258 501 C 266 540 262 569 245 588 C 227 607 197 617 155 617 L 136 617 L 150 718 L 168 718 C 248 718 306 701 343 668 C 379 635 390 585 376 519 L 354 412 C 347 381 354 356 374 338 C 394 320 425 307 467 301 L 453 204 C 409 197 374 185 349 167 C 324 149 311 124 310 94 L 304 -13 C 300 -79 275 -129 229 -162 C 183 -195 121 -212 41 -212 L 22 -212 Z" unicode="}" />
<glyph horiz-adv-x="397" d="M 134 146 L 64 146 C 70 187 82 218 100 239 C 118 260 142 271 172 271 C 184 271 196 269 208 265 C 219 261 230 254 242 246 C 251 239 259 234 265 231 C 271 227 278 226 285 226 C 294 226 302 229 309 236 C 315 243 320 253 323 266 L 392 266 C 385 224 373 193 355 172 C 337 151 313 141 284 141 C 269 141 256 142 246 146 C 235 150 224 156 214 165 C 205 172 197 177 191 181 C 184 184 177 186 171 186 C 161 186 153 182 147 175 C 140 168 136 158 134 146 Z" unicode="~" />
<glyph horiz-adv-x="241" d="M 120 401 L 137 514 L 250 514 L 234 401 L 120 401 Z M 38 -197 L 108 307 L 219 307 L 149 -197 L 38 -197 Z" unicode="¡" />
<glyph horiz-adv-x="461" d="M 274 427 L 296 578 L 391 578 L 369 427 L 274 427 Z M 199 -111 L 221 44 L 316 44 L 294 -111 L 199 -111 Z M 284 -10 C 218 -10 166 9 126 49 C 86 88 67 138 67 198 C 67 280 92 348 143 400 C 193 452 260 478 344 478 C 369 478 393 475 416 469 C 439 463 462 454 485 443 L 469 332 C 446 346 424 357 404 364 C 384 371 360 375 334 375 C 288 375 251 359 223 328 C 195 297 181 258 181 210 C 181 174 191 145 213 124 C 235 103 264 93 301 93 C 328 93 353 97 377 105 C 400 113 423 126 446 142 L 430 30 C 407 16 384 6 360 0 C 336 -6 310 -10 284 -10 Z" unicode="¢" />
<glyph horiz-adv-x="536" d="M 63 0 L 79 113 C 109 129 134 152 152 181 C 170 209 179 243 180 282 L 93 282 L 108 387 L 172 387 L 170 405 C 163 487 180 552 220 601 C 260 649 326 674 416 674 C 446 674 475 670 503 663 C 531 656 557 646 583 633 L 566 522 C 544 538 520 551 495 559 C 470 567 443 571 415 571 C 371 571 338 557 315 530 C 291 502 282 462 287 408 L 289 387 L 425 387 L 411 282 L 296 282 C 296 249 289 218 275 189 C 261 159 241 134 215 112 L 506 112 L 491 0 L 63 0 Z" unicode="£" />
<glyph horiz-adv-x="669" d="M 142 23 L 61 118 L 190 231 C 187 239 185 249 183 259 C 181 269 180 279 180 290 C 180 310 182 330 187 349 C 192 368 199 386 208 402 L 111 515 L 218 609 L 314 497 C 328 503 342 507 357 510 C 372 513 388 515 404 515 C 420 515 435 513 450 509 C 464 505 478 500 491 494 L 622 609 L 703 515 L 571 399 C 573 391 575 382 577 373 C 579 363 580 354 580 345 C 580 322 577 300 571 280 C 565 260 558 241 548 225 L 641 116 L 534 22 L 437 135 C 424 130 411 126 398 124 C 384 122 370 121 356 121 C 341 121 327 122 313 125 C 299 128 287 133 275 139 L 142 23 Z M 370 225 C 400 225 425 235 445 256 C 464 276 474 301 474 329 C 474 351 466 370 450 386 C 434 402 414 410 390 410 C 359 410 334 399 315 379 C 296 358 287 334 287 306 C 287 284 294 265 310 249 C 325 233 345 225 370 225 Z" unicode="¤" />
<glyph horiz-adv-x="644" d="M 194 237 L 205 316 L 528 316 L 516 237 L 194 237 Z M 174 104 L 186 183 L 508 183 L 497 104 L 174 104 Z M 253 0 L 291 265 L 104 658 L 237 658 L 336 444 L 364 372 L 413 444 L 570 658 L 703 658 L 408 266 L 371 0 L 253 0 Z" unicode="¥" />
<glyph horiz-adv-x="219" d="M 102 310 L 159 718 L 258 718 L 201 310 L 102 310 Z M 29 -212 L 86 196 L 185 196 L 127 -212 L 29 -212 Z" unicode="¦" />
<glyph horiz-adv-x="415" d="M 198 -12 C 171 -12 146 -9 122 -4 C 98 0 75 8 53 18 L 66 113 C 86 100 107 90 129 84 C 150 78 173 75 199 75 C 225 75 245 80 259 90 C 273 100 280 114 280 133 C 280 145 274 156 263 166 C 252 175 235 183 211 190 L 197 194 C 164 204 138 217 118 235 C 98 253 88 278 88 312 C 88 332 93 353 105 374 C 117 395 134 413 157 427 C 143 439 133 452 127 468 C 120 483 117 500 117 518 C 117 562 132 599 163 627 C 193 655 239 670 299 670 C 324 670 348 667 372 663 C 396 659 418 652 440 643 L 427 550 C 408 560 388 569 367 575 C 346 581 324 584 301 584 C 278 584 261 579 249 570 C 237 560 231 547 231 531 C 231 520 235 511 245 503 C 254 495 269 487 291 481 L 303 477 C 340 465 369 450 391 431 C 413 411 424 386 424 356 C 424 333 418 311 407 290 C 395 269 378 251 355 237 C 368 225 378 211 385 197 C 391 183 395 167 395 151 C 395 103 378 63 345 33 C 312 3 263 -12 198 -12 Z M 274 279 L 278 278 C 288 283 296 290 301 300 C 305 310 308 320 308 332 C 308 344 302 355 291 364 C 280 373 263 381 239 388 L 236 389 C 225 383 217 374 211 364 C 205 354 203 343 203 333 C 203 322 207 313 217 305 C 226 297 241 289 263 283 L 274 279 Z" unicode="§" />
<glyph horiz-adv-x="262" d="M 63 529 L 78 637 L 185 637 L 171 529 L 63 529 Z M 240 529 L 255 637 L 362 637 L 347 529 L 240 529 Z" unicode="¨" />
<glyph horiz-adv-x="711" d="M 379 91 C 299 91 233 117 180 170 C 126 222 100 288 100 367 C 100 465 134 547 203 614 C 271 680 352 714 444 714 C 524 714 590 687 644 635 C 697 583 724 517 724 439 C 724 334 691 250 626 186 C 560 122 478 91 379 91 Z M 381 153 C 464 153 531 179 582 233 C 633 286 659 353 659 435 C 659 497 638 548 596 590 C 554 631 503 652 443 652 C 365 652 299 623 245 567 C 191 511 165 445 165 369 C 165 307 186 256 228 215 C 270 173 321 153 381 153 Z M 407 223 C 361 223 322 238 292 268 C 262 298 247 335 247 380 C 247 438 266 486 305 524 C 344 562 393 582 452 582 C 468 582 486 579 504 575 C 522 570 537 564 551 556 L 541 487 C 528 495 513 502 496 508 C 478 513 461 516 445 516 C 406 516 375 504 353 480 C 330 456 319 424 319 385 C 319 358 327 335 345 317 C 362 299 385 290 414 290 C 431 290 449 292 469 298 C 488 304 505 311 521 321 L 511 251 C 495 242 477 235 458 230 C 439 225 422 223 407 223 Z" unicode="©" />
<glyph horiz-adv-x="434" d="M 75 218 L 88 309 L 415 309 L 403 218 L 75 218 Z M 240 362 C 206 362 178 374 156 399 C 134 423 123 459 123 505 C 123 571 144 626 188 671 C 232 715 285 738 349 738 C 369 738 392 735 417 731 C 442 727 464 720 483 712 L 451 489 C 448 469 446 450 444 430 C 442 410 442 390 442 370 L 351 370 C 351 378 351 386 351 394 C 351 402 351 411 352 419 L 352 436 C 338 409 321 390 301 379 C 281 367 260 362 240 362 Z M 269 443 C 287 443 307 452 327 470 C 347 488 363 531 374 599 L 382 650 C 374 652 366 654 358 656 C 350 657 341 658 333 658 C 302 658 275 644 251 616 C 227 588 216 556 216 518 C 216 493 220 474 230 462 C 240 449 253 443 269 443 Z" unicode="ª" />
<glyph horiz-adv-x="578" d="M 415 65 L 288 226 L 459 388 L 588 388 L 419 226 L 544 65 L 415 65 Z M 202 65 L 75 226 L 246 388 L 375 388 L 205 226 L 331 65 L 202 65 Z" unicode="«" />
<glyph horiz-adv-x="477" d="M 357 133 L 372 244 L 80 244 L 95 343 L 477 343 L 447 133 L 357 133 Z" unicode="¬" />
<glyph horiz-adv-x="369" d="M 72 193 L 86 293 L 366 293 L 352 193 L 72 193 Z" unicode="­" />
<glyph horiz-adv-x="692" d="M 370 91 C 290 91 224 117 171 170 C 117 222 91 288 91 367 C 91 465 125 547 193 614 C 261 680 342 714 435 714 C 514 714 580 687 634 635 C 687 583 714 517 714 439 C 714 334 681 250 616 186 C 550 122 468 91 370 91 Z M 372 153 C 455 153 522 179 573 233 C 623 286 649 353 649 435 C 649 497 628 548 586 590 C 544 631 493 652 433 652 C 355 652 289 623 235 567 C 181 511 155 445 155 369 C 155 307 176 256 218 215 C 260 173 312 153 372 153 Z M 264 223 L 317 583 L 426 583 C 460 583 486 575 504 561 C 522 547 531 528 531 506 C 531 477 522 453 506 433 C 489 413 467 402 440 400 C 452 397 464 391 474 383 C 484 375 492 364 497 352 L 541 223 L 464 223 L 431 323 C 426 337 419 348 409 356 C 399 364 388 368 378 368 L 355 368 L 334 223 L 264 223 Z M 364 432 L 402 432 C 419 432 433 436 443 445 C 453 454 458 466 458 482 C 458 493 454 502 446 510 C 438 517 427 521 414 521 L 376 521 L 364 432 Z" unicode="®" />
<glyph horiz-adv-x="382" d="M 141 532 L 154 623 L 404 623 L 391 532 L 141 532 Z" unicode="¯" />
<glyph horiz-adv-x="339" d="M 243 459 C 203 459 173 471 151 495 C 129 519 118 547 118 579 C 118 623 132 660 161 688 C 190 716 225 730 267 730 C 306 730 337 717 359 693 C 381 669 392 640 392 608 C 392 564 377 528 349 500 C 320 472 285 459 243 459 Z M 248 533 C 266 533 282 539 295 552 C 308 564 315 580 315 599 C 315 615 309 629 299 639 C 288 649 275 655 261 655 C 242 655 226 648 214 636 C 201 623 195 607 195 589 C 195 572 200 558 210 548 C 220 538 233 533 248 533 Z" unicode="°" />
<glyph horiz-adv-x="514" d="M 21 -101 L 35 -1 L 465 -1 L 451 -101 L 21 -101 Z M 206 83 L 228 243 L 76 243 L 91 342 L 244 342 L 267 502 L 371 502 L 349 342 L 499 342 L 485 243 L 333 243 L 310 83 L 206 83 Z" unicode="±" />
<glyph horiz-adv-x="305" d="M 77 361 L 91 464 C 152 490 197 515 227 537 C 256 559 271 581 271 602 C 271 616 265 627 255 634 C 244 641 230 645 213 645 C 198 645 183 642 167 637 C 151 632 134 625 118 616 L 131 709 C 149 715 168 720 186 724 C 204 727 223 729 245 729 C 285 729 316 720 339 702 C 361 684 373 659 373 625 C 373 587 355 552 321 522 C 287 492 238 466 176 445 L 349 445 L 337 361 L 77 361 Z" unicode="²" />
<glyph horiz-adv-x="308" d="M 198 352 C 177 352 157 353 138 357 C 118 360 99 366 79 375 L 91 462 C 107 452 123 445 139 441 C 155 436 173 434 192 434 C 210 434 224 437 234 444 C 244 450 250 459 250 469 C 250 479 244 488 234 494 C 223 500 206 503 183 503 L 159 503 L 169 579 L 190 579 C 212 579 230 582 243 590 C 256 598 263 607 263 618 C 263 626 259 633 251 638 C 243 643 232 646 216 646 C 200 646 184 644 169 640 C 153 636 138 631 123 623 L 135 707 C 153 713 172 718 190 722 C 208 726 225 728 243 728 C 281 728 311 719 333 703 C 354 686 365 664 365 638 C 365 615 357 595 342 578 C 326 561 305 549 278 543 C 300 538 317 529 329 515 C 341 501 347 486 347 468 C 347 432 333 404 307 383 C 281 362 244 352 198 352 Z" unicode="³" />
<glyph horiz-adv-x="238" d="M 110 580 L 234 725 L 368 725 L 229 580 L 110 580 Z" unicode="´" />
<glyph horiz-adv-x="534" d="M 26 -205 L 86 193 L 168 193 L 132 -205 L 26 -205 Z M 214 -10 C 168 -10 132 5 107 36 C 81 66 73 108 82 160 L 111 345 C 115 369 118 391 120 411 C 122 431 123 450 123 468 L 239 468 C 239 447 238 426 236 405 C 234 383 231 362 227 340 L 202 196 C 196 162 198 137 210 120 C 221 102 240 94 266 94 C 295 94 321 110 343 142 C 365 174 383 234 396 320 L 417 468 L 532 468 L 485 130 C 482 108 480 86 478 64 C 476 42 476 20 476 0 L 361 0 C 361 10 361 21 361 31 C 361 41 362 52 363 62 L 364 92 C 346 56 323 30 297 14 C 271 -1 243 -10 214 -10 Z" unicode="µ" />
<glyph horiz-adv-x="494" d="M 134 0 L 195 435 C 163 435 138 444 120 462 C 101 480 92 502 92 530 C 92 566 105 596 131 621 C 157 645 191 658 235 658 L 528 658 L 436 0 L 324 0 L 402 558 L 325 558 L 246 0 L 134 0 Z" unicode="¶" />
<glyph horiz-adv-x="207" d="M 72 184 L 88 297 L 202 297 L 186 184 L 72 184 Z" unicode="·" />
<glyph horiz-adv-x="227" d="M 99 -230 C 86 -230 74 -228 62 -226 C 50 -224 38 -220 28 -216 L 36 -150 C 44 -155 53 -159 63 -162 C 72 -164 82 -166 92 -166 C 102 -166 111 -163 118 -157 C 125 -151 129 -143 129 -133 C 129 -124 126 -117 120 -112 C 114 -106 106 -104 96 -104 L 90 -104 L 98 -42 L 104 -42 C 134 -42 159 -49 177 -65 C 195 -81 205 -102 205 -129 C 205 -158 194 -182 174 -201 C 153 -220 128 -230 99 -230 Z" unicode="¸" />
<glyph horiz-adv-x="298" d="M 82 360 L 93 441 L 167 441 L 195 636 L 110 627 L 122 708 L 306 730 L 265 441 L 339 441 L 328 360 L 82 360 Z" unicode="¹" />
<glyph horiz-adv-x="450" d="M 88 214 L 101 309 L 437 309 L 423 214 L 88 214 Z M 280 360 C 231 360 192 375 164 406 C 136 437 122 476 122 524 C 122 585 140 636 176 678 C 212 719 261 740 325 740 C 373 740 411 724 440 694 C 468 664 483 625 483 577 C 483 517 464 465 428 423 C 392 381 342 360 280 360 Z M 291 443 C 319 443 342 454 360 477 C 377 500 386 530 386 566 C 386 592 379 614 366 631 C 353 648 336 657 314 657 C 284 657 260 645 244 621 C 227 597 219 568 219 534 C 219 506 225 484 238 468 C 250 451 268 443 291 443 Z" unicode="º" />
<glyph horiz-adv-x="578" d="M 52 65 L 222 226 L 96 388 L 225 388 L 352 226 L 181 65 L 52 65 Z M 265 65 L 435 226 L 309 388 L 438 388 L 565 226 L 394 65 L 265 65 Z" unicode="»" />
<glyph horiz-adv-x="756" d="M 595 0 L 606 74 L 442 74 L 450 139 L 608 360 L 739 360 L 709 152 L 758 152 L 747 74 L 698 74 L 688 0 L 595 0 Z M 617 152 L 635 286 L 540 152 L 617 152 Z M 82 360 L 93 441 L 167 441 L 195 636 L 110 627 L 122 708 L 306 730 L 265 441 L 339 441 L 328 360 L 82 360 Z M 185 0 L 579 718 L 669 718 L 274 0 L 185 0 Z" unicode="¼" />
<glyph horiz-adv-x="744" d="M 460 0 L 474 103 C 535 129 580 154 610 176 C 639 198 654 220 654 241 C 654 255 648 266 638 273 C 627 280 613 284 596 284 C 581 284 566 281 550 276 C 534 271 517 264 501 255 L 514 348 C 532 354 551 359 569 363 C 587 366 606 368 628 368 C 668 368 699 359 722 341 C 744 323 756 298 756 264 C 756 226 738 191 704 161 C 670 131 621 105 559 84 L 732 84 L 720 0 L 460 0 Z M 82 360 L 93 441 L 167 441 L 195 636 L 110 627 L 122 708 L 306 730 L 265 441 L 339 441 L 328 360 L 82 360 Z M 172 0 L 566 718 L 656 718 L 261 0 L 172 0 Z" unicode="½" />
<glyph horiz-adv-x="730" d="M 569 0 L 580 74 L 416 74 L 424 139 L 582 360 L 713 360 L 683 152 L 732 152 L 721 74 L 672 74 L 662 0 L 569 0 Z M 591 152 L 609 286 L 514 152 L 591 152 Z M 198 352 C 177 352 157 353 138 357 C 118 360 99 366 79 375 L 91 462 C 107 452 123 445 139 441 C 155 436 173 434 192 434 C 210 434 224 437 234 444 C 244 450 250 459 250 469 C 250 479 244 488 234 494 C 223 500 206 503 183 503 L 159 503 L 169 579 L 190 579 C 212 579 230 582 243 590 C 256 598 263 607 263 618 C 263 626 259 633 251 638 C 243 643 232 646 216 646 C 200 646 184 644 169 640 C 153 636 138 631 123 623 L 135 707 C 153 713 172 718 190 722 C 208 726 225 728 243 728 C 281 728 311 719 333 703 C 354 686 365 664 365 638 C 365 615 357 595 342 578 C 326 561 305 549 278 543 C 300 538 317 529 329 515 C 341 501 347 486 347 468 C 347 432 333 404 307 383 C 281 362 244 352 198 352 Z M 167 0 L 561 718 L 651 718 L 256 0 L 167 0 Z" unicode="¾" />
<glyph horiz-adv-x="468" d="M 250 403 L 266 516 L 379 516 L 363 403 L 250 403 Z M 230 -204 C 170 -204 123 -189 89 -159 C 54 -129 37 -90 37 -42 C 37 -10 46 22 65 54 C 84 86 112 118 148 151 C 178 177 200 203 214 228 C 228 252 237 280 241 310 L 349 310 C 343 268 332 232 315 202 C 297 171 271 140 237 109 C 207 81 186 57 175 38 C 163 19 158 0 158 -18 C 158 -42 167 -62 186 -77 C 205 -91 231 -99 265 -99 C 291 -99 318 -95 346 -87 C 374 -79 399 -69 422 -55 L 405 -169 C 380 -179 352 -188 321 -194 C 290 -200 260 -204 230 -204 Z" unicode="¿" />
<glyph horiz-adv-x="662" d="M 14 0 L 368 660 L 479 660 L 648 0 L 524 0 L 485 162 L 220 162 L 136 0 L 14 0 Z M 352 416 L 275 267 L 459 267 L 423 416 L 401 517 L 352 416 Z M 377 710 L 283 843 L 401 843 L 482 710 L 377 710 Z" unicode="À" />
<glyph horiz-adv-x="662" d="M 14 0 L 368 660 L 479 660 L 648 0 L 524 0 L 485 162 L 220 162 L 136 0 L 14 0 Z M 352 416 L 275 267 L 459 267 L 423 416 L 401 517 L 352 416 Z M 367 710 L 481 843 L 605 843 L 478 710 L 367 710 Z" unicode="Á" />
<glyph horiz-adv-x="662" d="M 14 0 L 368 660 L 479 660 L 648 0 L 524 0 L 485 162 L 220 162 L 136 0 L 14 0 Z M 352 416 L 275 267 L 459 267 L 423 416 L 401 517 L 352 416 Z M 293 710 L 399 841 L 487 841 L 556 710 L 470 710 L 434 774 L 381 710 L 293 710 Z" unicode="Â" />
<glyph horiz-adv-x="662" d="M 14 0 L 368 660 L 479 660 L 648 0 L 524 0 L 485 162 L 220 162 L 136 0 L 14 0 Z M 352 416 L 275 267 L 459 267 L 423 416 L 401 517 L 352 416 Z M 343 710 L 280 710 C 286 748 297 776 314 795 C 330 813 352 823 380 823 C 391 823 402 821 412 818 C 422 814 433 808 444 800 C 452 794 460 789 466 786 C 472 782 477 781 483 781 C 491 781 499 784 506 791 C 512 797 517 807 519 819 L 582 819 C 575 781 563 752 547 733 C 531 714 509 705 483 705 C 469 705 458 706 448 710 C 438 714 428 719 419 727 C 410 733 403 738 397 742 C 391 745 385 747 379 747 C 370 747 362 743 356 737 C 350 730 345 721 343 710 Z" unicode="Ã" />
<glyph horiz-adv-x="662" d="M 14 0 L 368 660 L 479 660 L 648 0 L 524 0 L 485 162 L 220 162 L 136 0 L 14 0 Z M 352 416 L 275 267 L 459 267 L 423 416 L 401 517 L 352 416 Z M 295 710 L 309 807 L 407 807 L 393 710 L 295 710 Z M 457 710 L 471 807 L 568 807 L 554 710 L 457 710 Z" unicode="Ä" />
<glyph horiz-adv-x="662" d="M 14 0 L 368 660 L 479 660 L 648 0 L 524 0 L 485 162 L 220 162 L 136 0 L 14 0 Z M 352 416 L 275 267 L 459 267 L 423 416 L 401 517 L 352 416 Z M 419 604 C 392 604 370 612 354 628 C 338 644 330 665 330 690 C 330 718 339 742 359 761 C 378 780 402 790 430 790 C 456 790 478 781 494 765 C 510 749 519 729 519 705 C 519 677 510 653 492 633 C 474 613 449 604 419 604 Z M 421 660 C 433 660 442 663 450 671 C 457 679 461 688 461 700 C 461 710 457 718 451 724 C 444 730 436 734 427 734 C 416 734 407 730 399 722 C 391 714 387 704 387 694 C 387 684 390 676 397 670 C 403 663 411 660 421 660 Z" unicode="Å" />
<glyph horiz-adv-x="870" d="M 8 0 L 439 658 L 891 658 L 875 547 L 612 547 L 590 389 L 844 389 L 828 278 L 575 278 L 551 111 L 826 111 L 810 0 L 418 0 L 443 177 L 254 177 L 138 0 L 8 0 Z M 432 447 L 327 288 L 458 288 L 495 548 L 432 447 Z" unicode="Æ" />
<glyph horiz-adv-x="651" d="M 408 -15 C 308 -15 229 14 173 72 C 116 130 88 201 88 287 C 88 397 124 489 196 563 C 268 636 365 673 485 673 C 521 673 556 668 590 660 C 624 652 657 639 689 623 L 672 505 C 641 523 609 538 577 548 C 544 558 510 564 474 564 C 394 564 330 539 282 489 C 234 439 210 374 210 295 C 210 237 228 189 266 151 C 304 113 355 94 419 94 C 457 94 493 99 528 110 C 562 121 597 137 632 158 L 615 37 C 581 19 546 5 511 -2 C 476 -10 442 -15 408 -15 Z M 381 -220 C 369 -220 358 -219 347 -217 C 335 -215 325 -211 316 -207 L 324 -147 C 332 -151 340 -155 348 -158 C 356 -160 365 -162 374 -162 C 384 -162 393 -159 400 -153 C 406 -147 410 -140 410 -131 C 410 -123 407 -116 401 -111 C 395 -106 387 -104 378 -104 L 368 -104 L 376 -48 L 386 -48 C 414 -48 436 -55 453 -69 C 469 -83 478 -103 478 -127 C 478 -153 468 -175 449 -193 C 430 -211 407 -220 381 -220 Z" unicode="Ç" />
<glyph horiz-adv-x="529" d="M 322 710 L 228 843 L 346 843 L 427 710 L 322 710 Z M 77 0 L 169 658 L 550 658 L 534 547 L 271 547 L 249 389 L 504 389 L 488 278 L 234 278 L 211 111 L 486 111 L 470 0 L 77 0 Z" unicode="È" />
<glyph horiz-adv-x="529" d="M 77 0 L 169 658 L 550 658 L 534 547 L 271 547 L 249 389 L 504 389 L 488 278 L 234 278 L 211 111 L 486 111 L 470 0 L 77 0 Z M 312 710 L 426 843 L 550 843 L 423 710 L 312 710 Z" unicode="É" />
<glyph horiz-adv-x="529" d="M 238 710 L 344 841 L 432 841 L 501 710 L 415 710 L 379 774 L 326 710 L 238 710 Z M 77 0 L 169 658 L 550 658 L 534 547 L 271 547 L 249 389 L 504 389 L 488 278 L 234 278 L 211 111 L 486 111 L 470 0 L 77 0 Z" unicode="Ê" />
<glyph horiz-adv-x="529" d="M 77 0 L 169 658 L 550 658 L 534 547 L 271 547 L 249 389 L 504 389 L 488 278 L 234 278 L 211 111 L 486 111 L 470 0 L 77 0 Z M 240 710 L 254 807 L 352 807 L 338 710 L 240 710 Z M 402 710 L 416 807 L 513 807 L 499 710 L 402 710 Z" unicode="Ë" />
<glyph horiz-adv-x="272" d="M 77 0 L 169 658 L 288 658 L 196 0 L 77 0 Z M 191 710 L 97 843 L 215 843 L 296 710 L 191 710 Z" unicode="Ì" />
<glyph horiz-adv-x="272" d="M 77 0 L 169 658 L 288 658 L 196 0 L 77 0 Z M 181 710 L 295 843 L 419 843 L 292 710 L 181 710 Z" unicode="Í" />
<glyph horiz-adv-x="272" d="M 77 0 L 169 658 L 288 658 L 196 0 L 77 0 Z M 107 710 L 213 841 L 301 841 L 370 710 L 284 710 L 248 774 L 195 710 L 107 710 Z" unicode="Î" />
<glyph horiz-adv-x="272" d="M 77 0 L 169 658 L 288 658 L 196 0 L 77 0 Z M 109 710 L 123 807 L 221 807 L 207 710 L 109 710 Z M 271 710 L 285 807 L 382 807 L 368 710 L 271 710 Z" unicode="Ï" />
<glyph horiz-adv-x="735" d="M 84 276 L 98 377 L 369 377 L 354 276 L 84 276 Z M 110 0 L 202 658 L 421 658 C 519 658 596 631 653 577 C 710 523 739 454 739 369 C 739 260 701 171 627 103 C 552 34 452 0 326 0 L 110 0 Z M 244 111 L 341 111 C 426 111 493 134 543 181 C 593 228 618 289 618 363 C 618 416 599 460 562 495 C 525 529 475 547 411 547 L 305 547 L 244 111 Z" unicode="Ð" />
<glyph horiz-adv-x="731" d="M 381 710 L 318 710 C 324 748 335 776 352 795 C 368 813 390 823 418 823 C 429 823 440 821 450 818 C 460 814 471 808 482 800 C 490 794 498 789 504 786 C 510 782 515 781 521 781 C 529 781 537 784 544 791 C 550 797 555 807 557 819 L 620 819 C 613 781 601 752 585 733 C 569 714 547 705 521 705 C 507 705 496 706 486 710 C 476 714 466 719 457 727 C 448 733 441 738 435 742 C 429 745 423 747 417 747 C 408 747 400 743 394 737 C 388 730 383 721 381 710 Z M 77 0 L 169 658 L 290 658 L 528 249 L 567 174 L 576 249 L 633 658 L 746 658 L 654 0 L 535 0 L 294 414 L 256 485 L 248 414 L 189 0 L 77 0 Z" unicode="Ñ" />
<glyph horiz-adv-x="766" d="M 417 716 L 323 849 L 441 849 L 522 716 L 417 716 Z M 401 -16 C 310 -16 235 11 176 67 C 117 122 88 195 88 287 C 88 397 122 489 190 563 C 258 637 347 674 455 674 C 546 674 621 646 681 590 C 740 534 770 461 770 369 C 770 258 735 166 666 93 C 597 20 509 -16 401 -16 Z M 404 95 C 476 95 534 120 580 170 C 625 220 648 285 648 364 C 648 420 630 467 595 505 C 560 543 513 563 453 563 C 381 563 322 538 277 488 C 232 438 210 373 210 294 C 210 238 227 190 262 152 C 296 114 344 95 404 95 Z" unicode="Ò" />
<glyph horiz-adv-x="766" d="M 401 -16 C 310 -16 235 11 176 67 C 117 122 88 195 88 287 C 88 397 122 489 190 563 C 258 637 347 674 455 674 C 546 674 621 646 681 590 C 740 534 770 461 770 369 C 770 258 735 166 666 93 C 597 20 509 -16 401 -16 Z M 404 95 C 476 95 534 120 580 170 C 625 220 648 285 648 364 C 648 420 630 467 595 505 C 560 543 513 563 453 563 C 381 563 322 538 277 488 C 232 438 210 373 210 294 C 210 238 227 190 262 152 C 296 114 344 95 404 95 Z M 407 716 L 521 849 L 645 849 L 518 716 L 407 716 Z" unicode="Ó" />
<glyph horiz-adv-x="766" d="M 333 716 L 439 847 L 527 847 L 596 716 L 510 716 L 474 780 L 421 716 L 333 716 Z M 401 -16 C 310 -16 235 11 176 67 C 117 122 88 195 88 287 C 88 397 122 489 190 563 C 258 637 347 674 455 674 C 546 674 621 646 681 590 C 740 534 770 461 770 369 C 770 258 735 166 666 93 C 597 20 509 -16 401 -16 Z M 404 95 C 476 95 534 120 580 170 C 625 220 648 285 648 364 C 648 420 630 467 595 505 C 560 543 513 563 453 563 C 381 563 322 538 277 488 C 232 438 210 373 210 294 C 210 238 227 190 262 152 C 296 114 344 95 404 95 Z" unicode="Ô" />
<glyph horiz-adv-x="766" d="M 383 716 L 320 716 C 326 754 337 782 354 801 C 370 819 392 829 420 829 C 431 829 442 827 452 824 C 462 820 473 814 484 806 C 492 800 500 795 506 792 C 512 788 517 787 523 787 C 531 787 539 790 546 797 C 552 803 557 813 559 825 L 622 825 C 615 787 603 758 587 739 C 571 720 549 711 523 711 C 509 711 498 712 488 716 C 478 720 468 725 459 733 C 450 739 443 744 437 748 C 431 751 425 753 419 753 C 410 753 402 749 396 743 C 390 736 385 727 383 716 Z M 401 -16 C 310 -16 235 11 176 67 C 117 122 88 195 88 287 C 88 397 122 489 190 563 C 258 637 347 674 455 674 C 546 674 621 646 681 590 C 740 534 770 461 770 369 C 770 258 735 166 666 93 C 597 20 509 -16 401 -16 Z M 404 95 C 476 95 534 120 580 170 C 625 220 648 285 648 364 C 648 420 630 467 595 505 C 560 543 513 563 453 563 C 381 563 322 538 277 488 C 232 438 210 373 210 294 C 210 238 227 190 262 152 C 296 114 344 95 404 95 Z" unicode="Õ" />
<glyph horiz-adv-x="766" d="M 401 -16 C 310 -16 235 11 176 67 C 117 122 88 195 88 287 C 88 397 122 489 190 563 C 258 637 347 674 455 674 C 546 674 621 646 681 590 C 740 534 770 461 770 369 C 770 258 735 166 666 93 C 597 20 509 -16 401 -16 Z M 404 95 C 476 95 534 120 580 170 C 625 220 648 285 648 364 C 648 420 630 467 595 505 C 560 543 513 563 453 563 C 381 563 322 538 277 488 C 232 438 210 373 210 294 C 210 238 227 190 262 152 C 296 114 344 95 404 95 Z M 335 716 L 349 813 L 447 813 L 433 716 L 335 716 Z M 497 716 L 511 813 L 608 813 L 594 716 L 497 716 Z" unicode="Ö" />
<glyph horiz-adv-x="502" d="M 146 82 L 73 165 L 211 286 L 98 416 L 181 489 L 294 359 L 440 486 L 513 403 L 366 276 L 472 153 L 389 80 L 284 203 L 146 82 Z" unicode="×" />
<glyph horiz-adv-x="765" d="M 120 -65 L 212 76 L 242 117 L 543 593 L 566 633 L 627 729 L 746 729 L 656 588 L 626 547 L 325 71 L 301 31 L 239 -65 L 120 -65 Z M 401 -16 C 310 -16 235 11 176 67 C 117 122 88 195 88 287 C 88 397 122 489 190 563 C 258 637 347 674 455 674 C 546 674 621 646 681 590 C 740 534 770 461 770 369 C 770 258 735 166 666 93 C 597 20 509 -16 401 -16 Z M 404 95 C 476 95 534 120 580 170 C 625 220 648 285 648 364 C 648 420 630 467 595 505 C 560 543 513 563 453 563 C 381 563 322 538 277 488 C 232 438 210 373 210 294 C 210 238 227 190 262 152 C 296 114 344 95 404 95 Z" unicode="Ø" />
<glyph horiz-adv-x="690" d="M 397 710 L 303 843 L 421 843 L 502 710 L 397 710 Z M 351 -12 C 264 -12 198 12 154 61 C 110 109 94 175 106 258 L 162 658 L 280 658 L 224 255 C 217 207 225 169 249 141 C 272 113 308 99 357 99 C 407 99 449 113 483 141 C 517 169 538 206 545 254 L 602 658 L 713 658 L 656 251 C 643 165 609 100 555 55 C 500 10 432 -12 351 -12 Z" unicode="Ù" />
<glyph horiz-adv-x="690" d="M 351 -12 C 264 -12 198 12 154 61 C 110 109 94 175 106 258 L 162 658 L 280 658 L 224 255 C 217 207 225 169 249 141 C 272 113 308 99 357 99 C 407 99 449 113 483 141 C 517 169 538 206 545 254 L 602 658 L 713 658 L 656 251 C 643 165 609 100 555 55 C 500 10 432 -12 351 -12 Z M 387 710 L 501 843 L 625 843 L 498 710 L 387 710 Z" unicode="Ú" />
<glyph horiz-adv-x="690" d="M 313 710 L 419 841 L 507 841 L 576 710 L 490 710 L 454 774 L 401 710 L 313 710 Z M 351 -12 C 264 -12 198 12 154 61 C 110 109 94 175 106 258 L 162 658 L 280 658 L 224 255 C 217 207 225 169 249 141 C 272 113 308 99 357 99 C 407 99 449 113 483 141 C 517 169 538 206 545 254 L 602 658 L 713 658 L 656 251 C 643 165 609 100 555 55 C 500 10 432 -12 351 -12 Z" unicode="Û" />
<glyph horiz-adv-x="690" d="M 351 -12 C 264 -12 198 12 154 61 C 110 109 94 175 106 258 L 162 658 L 280 658 L 224 255 C 217 207 225 169 249 141 C 272 113 308 99 357 99 C 407 99 449 113 483 141 C 517 169 538 206 545 254 L 602 658 L 713 658 L 656 251 C 643 165 609 100 555 55 C 500 10 432 -12 351 -12 Z M 315 710 L 329 807 L 427 807 L 413 710 L 315 710 Z M 477 710 L 491 807 L 588 807 L 574 710 L 477 710 Z" unicode="Ü" />
<glyph horiz-adv-x="623" d="M 253 0 L 291 265 L 104 658 L 237 658 L 336 444 L 364 372 L 413 444 L 570 658 L 703 658 L 408 266 L 371 0 L 253 0 Z M 345 710 L 459 843 L 583 843 L 456 710 L 345 710 Z" unicode="Ý" />
<glyph horiz-adv-x="526" d="M 77 0 L 169 658 L 288 658 L 273 552 L 314 552 C 382 552 436 535 476 501 C 516 467 536 422 536 367 C 536 294 511 234 461 186 C 411 138 345 115 263 115 L 211 115 L 195 0 L 77 0 Z M 227 224 L 273 224 C 315 224 349 235 376 257 C 402 279 416 309 416 346 C 416 375 406 398 386 416 C 366 434 339 443 304 443 L 258 443 L 227 224 Z" unicode="Þ" />
<glyph horiz-adv-x="595" d="M 58 0 L 123 464 C 135 552 164 618 210 662 C 256 706 315 728 388 728 C 453 728 505 707 543 667 C 581 626 599 570 599 499 C 599 473 597 448 593 422 C 588 396 582 375 576 359 C 558 367 539 373 521 378 C 503 383 485 386 469 386 C 445 386 426 381 414 373 C 401 364 395 352 395 337 C 395 324 399 314 407 306 C 415 298 428 291 444 287 L 459 283 C 495 272 523 255 543 232 C 563 209 574 182 574 152 C 574 101 556 61 522 33 C 487 4 441 -10 383 -10 C 360 -10 336 -7 311 -3 C 285 1 263 7 243 14 L 258 114 C 274 104 294 97 318 91 C 342 85 364 83 386 83 C 410 83 429 87 441 96 C 453 104 460 116 460 132 C 460 144 454 154 444 163 C 433 171 417 179 397 186 L 383 191 C 349 201 323 217 306 238 C 289 259 281 286 281 319 C 281 368 296 407 326 435 C 356 463 395 478 443 478 C 451 478 460 477 469 476 C 478 475 487 474 495 472 C 503 523 496 562 474 588 C 452 614 421 628 383 628 C 341 628 309 613 285 585 C 261 556 245 514 238 459 L 173 0 L 58 0 Z" unicode="ß" />
<glyph horiz-adv-x="545" d="M 232 -10 C 184 -10 144 6 113 40 C 81 73 66 120 66 180 C 66 266 93 337 149 393 C 205 449 274 478 356 478 C 384 478 415 474 449 468 C 483 462 513 453 540 443 L 499 150 C 496 125 493 100 491 76 C 489 52 488 26 488 0 L 373 0 C 373 10 373 20 373 31 C 373 42 374 52 375 62 L 376 85 C 358 50 337 25 311 11 C 285 -2 259 -10 232 -10 Z M 266 91 C 296 91 323 106 349 137 C 375 167 393 218 404 290 L 414 366 C 402 370 390 374 378 376 C 366 378 353 379 339 379 C 296 379 259 360 227 324 C 195 287 180 244 180 194 C 180 160 187 134 203 117 C 219 99 240 91 266 91 Z M 350 516 C 307 516 275 529 254 555 C 232 581 224 615 230 658 L 305 658 C 303 638 307 623 315 612 C 323 601 336 596 354 596 C 370 596 383 601 394 612 C 405 623 412 638 414 658 L 489 658 C 483 614 468 579 442 554 C 416 528 386 516 350 516 Z" unicode="à" />
<glyph horiz-adv-x="545" d="M 232 -10 C 184 -10 144 6 113 40 C 81 73 66 120 66 180 C 66 266 93 337 149 393 C 205 449 274 478 356 478 C 384 478 415 474 449 468 C 483 462 513 453 540 443 L 499 150 C 496 125 493 100 491 76 C 489 52 488 26 488 0 L 373 0 C 373 10 373 20 373 31 C 373 42 374 52 375 62 L 376 85 C 358 50 337 25 311 11 C 285 -2 259 -10 232 -10 Z M 266 91 C 296 91 323 106 349 137 C 375 167 393 218 404 290 L 414 366 C 402 370 390 374 378 376 C 366 378 353 379 339 379 C 296 379 259 360 227 324 C 195 287 180 244 180 194 C 180 160 187 134 203 117 C 219 99 240 91 266 91 Z M 284 524 L 408 669 L 542 669 L 403 524 L 284 524 Z" unicode="á" />
<glyph horiz-adv-x="545" d="M 232 -10 C 184 -10 144 6 113 40 C 81 73 66 120 66 180 C 66 266 93 337 149 393 C 205 449 274 478 356 478 C 384 478 415 474 449 468 C 483 462 513 453 540 443 L 499 150 C 496 125 493 100 491 76 C 489 52 488 26 488 0 L 373 0 C 373 10 373 20 373 31 C 373 42 374 52 375 62 L 376 85 C 358 50 337 25 311 11 C 285 -2 259 -10 232 -10 Z M 266 91 C 296 91 323 106 349 137 C 375 167 393 218 404 290 L 414 366 C 402 370 390 374 378 376 C 366 378 353 379 339 379 C 296 379 259 360 227 324 C 195 287 180 244 180 194 C 180 160 187 134 203 117 C 219 99 240 91 266 91 Z M 204 524 L 319 668 L 416 668 L 491 524 L 396 524 L 357 593 L 300 524 L 204 524 Z" unicode="â" />
<glyph horiz-adv-x="545" d="M 232 -10 C 184 -10 144 6 113 40 C 81 73 66 120 66 180 C 66 266 93 337 149 393 C 205 449 274 478 356 478 C 384 478 415 474 449 468 C 483 462 513 453 540 443 L 499 150 C 496 125 493 100 491 76 C 489 52 488 26 488 0 L 373 0 C 373 10 373 20 373 31 C 373 42 374 52 375 62 L 376 85 C 358 50 337 25 311 11 C 285 -2 259 -10 232 -10 Z M 266 91 C 296 91 323 106 349 137 C 375 167 393 218 404 290 L 414 366 C 402 370 390 374 378 376 C 366 378 353 379 339 379 C 296 379 259 360 227 324 C 195 287 180 244 180 194 C 180 160 187 134 203 117 C 219 99 240 91 266 91 Z M 263 524 L 193 524 C 199 565 211 596 229 617 C 247 638 271 649 301 649 C 313 649 325 647 337 643 C 348 639 359 632 371 624 C 380 617 388 612 394 609 C 400 605 407 604 414 604 C 423 604 431 607 438 614 C 444 621 449 631 452 644 L 521 644 C 514 602 502 571 484 550 C 466 529 442 519 413 519 C 398 519 385 520 375 524 C 364 528 353 534 343 543 C 334 550 326 555 320 559 C 313 562 306 564 300 564 C 290 564 282 560 276 553 C 269 546 265 536 263 524 Z" unicode="ã" />
<glyph horiz-adv-x="545" d="M 232 -10 C 184 -10 144 6 113 40 C 81 73 66 120 66 180 C 66 266 93 337 149 393 C 205 449 274 478 356 478 C 384 478 415 474 449 468 C 483 462 513 453 540 443 L 499 150 C 496 125 493 100 491 76 C 489 52 488 26 488 0 L 373 0 C 373 10 373 20 373 31 C 373 42 374 52 375 62 L 376 85 C 358 50 337 25 311 11 C 285 -2 259 -10 232 -10 Z M 266 91 C 296 91 323 106 349 137 C 375 167 393 218 404 290 L 414 366 C 402 370 390 374 378 376 C 366 378 353 379 339 379 C 296 379 259 360 227 324 C 195 287 180 244 180 194 C 180 160 187 134 203 117 C 219 99 240 91 266 91 Z M 206 527 L 221 635 L 328 635 L 314 527 L 206 527 Z M 383 527 L 398 635 L 505 635 L 490 527 L 383 527 Z" unicode="ä" />
<glyph horiz-adv-x="545" d="M 232 -10 C 184 -10 144 6 113 40 C 81 73 66 120 66 180 C 66 266 93 337 149 393 C 205 449 274 478 356 478 C 384 478 415 474 449 468 C 483 462 513 453 540 443 L 499 150 C 496 125 493 100 491 76 C 489 52 488 26 488 0 L 373 0 C 373 10 373 20 373 31 C 373 42 374 52 375 62 L 376 85 C 358 50 337 25 311 11 C 285 -2 259 -10 232 -10 Z M 266 91 C 296 91 323 106 349 137 C 375 167 393 218 404 290 L 414 366 C 402 370 390 374 378 376 C 366 378 353 379 339 379 C 296 379 259 360 227 324 C 195 287 180 244 180 194 C 180 160 187 134 203 117 C 219 99 240 91 266 91 Z M 337 418 C 310 418 288 426 270 444 C 252 462 243 484 243 511 C 243 542 253 568 275 589 C 296 610 323 621 356 621 C 382 621 405 612 423 594 C 441 576 450 553 450 527 C 450 496 439 470 419 449 C 399 428 371 418 337 418 Z M 343 480 C 355 480 366 484 374 492 C 382 500 386 510 386 522 C 386 532 382 541 376 548 C 369 555 360 559 350 559 C 338 559 327 554 319 546 C 311 538 307 528 307 516 C 307 505 310 496 317 490 C 324 483 333 480 343 480 Z" unicode="å" />
<glyph horiz-adv-x="817" d="M 246 -10 C 191 -10 147 6 115 40 C 82 73 66 121 66 183 C 66 267 93 338 148 394 C 203 450 270 478 350 478 C 378 478 405 474 431 468 C 456 462 481 452 506 439 C 524 451 545 460 569 467 C 593 474 619 478 648 478 C 697 478 738 465 770 440 C 802 414 818 382 818 343 C 818 292 798 254 758 228 C 718 202 655 187 567 183 L 513 180 C 516 151 528 129 548 113 C 568 97 595 89 628 89 C 660 89 689 93 715 102 C 741 110 767 123 793 140 L 776 29 C 751 16 724 6 695 0 C 666 -6 639 -10 614 -10 C 564 -10 522 0 490 22 C 458 43 434 70 419 103 C 402 68 378 40 348 20 C 318 0 284 -10 246 -10 Z M 641 382 C 611 382 584 371 562 349 C 539 327 525 299 520 265 L 578 268 C 620 270 651 277 671 289 C 691 301 701 317 701 339 C 701 352 695 362 684 370 C 673 378 659 382 641 382 Z M 180 198 C 180 164 188 137 204 119 C 220 100 242 91 269 91 C 303 91 330 105 351 134 C 371 162 388 208 401 272 L 405 293 C 407 303 410 314 414 325 C 418 335 423 346 429 357 C 415 364 401 369 387 373 C 372 377 357 379 342 379 C 298 379 260 361 228 325 C 196 289 180 247 180 198 Z" unicode="æ" />
<glyph horiz-adv-x="472" d="M 289 -10 C 223 -10 171 9 131 49 C 91 88 72 138 72 198 C 72 280 97 348 148 400 C 198 452 265 478 349 478 C 374 478 398 475 421 469 C 444 463 467 454 490 443 L 474 332 C 451 346 429 357 409 364 C 389 371 365 375 339 375 C 293 375 256 359 228 328 C 200 297 186 258 186 210 C 186 174 196 145 218 124 C 240 103 269 93 306 93 C 333 93 358 97 382 105 C 405 113 428 126 451 142 L 435 30 C 412 16 389 6 365 0 C 341 -6 315 -10 289 -10 Z M 229 -233 C 216 -233 204 -231 192 -229 C 180 -227 168 -223 158 -219 L 166 -153 C 174 -158 183 -162 193 -165 C 202 -167 212 -169 222 -169 C 232 -169 241 -166 248 -160 C 255 -154 259 -146 259 -136 C 259 -127 256 -120 250 -115 C 244 -109 236 -107 226 -107 L 220 -107 L 228 -45 L 234 -45 C 264 -45 289 -52 307 -68 C 325 -84 335 -105 335 -132 C 335 -161 324 -185 304 -204 C 283 -223 258 -233 229 -233 Z" unicode="ç" />
<glyph horiz-adv-x="492" d="M 267 524 L 165 669 L 298 669 L 386 524 L 267 524 Z M 292 -10 C 221 -10 166 9 128 49 C 90 88 71 139 71 201 C 71 280 95 346 145 399 C 194 451 255 478 329 478 C 377 478 416 465 447 439 C 477 413 493 381 493 342 C 493 292 473 254 434 229 C 394 204 331 189 243 185 L 187 182 C 189 152 201 129 222 113 C 243 97 271 89 306 89 C 334 89 362 93 389 102 C 416 110 442 123 468 140 L 451 29 C 426 16 400 6 374 0 C 348 -6 320 -10 292 -10 Z M 316 382 C 285 382 258 370 236 348 C 213 325 199 297 194 263 L 253 267 C 295 269 326 276 346 288 C 366 300 376 316 376 338 C 376 351 370 362 360 370 C 349 378 334 382 316 382 Z" unicode="è" />
<glyph horiz-adv-x="492" d="M 260 524 L 384 669 L 518 669 L 379 524 L 260 524 Z M 292 -10 C 221 -10 166 9 128 49 C 90 88 71 139 71 201 C 71 280 95 346 145 399 C 194 451 255 478 329 478 C 377 478 416 465 447 439 C 477 413 493 381 493 342 C 493 292 473 254 434 229 C 394 204 331 189 243 185 L 187 182 C 189 152 201 129 222 113 C 243 97 271 89 306 89 C 334 89 362 93 389 102 C 416 110 442 123 468 140 L 451 29 C 426 16 400 6 374 0 C 348 -6 320 -10 292 -10 Z M 316 382 C 285 382 258 370 236 348 C 213 325 199 297 194 263 L 253 267 C 295 269 326 276 346 288 C 366 300 376 316 376 338 C 376 351 370 362 360 370 C 349 378 334 382 316 382 Z" unicode="é" />
<glyph horiz-adv-x="492" d="M 180 524 L 295 668 L 392 668 L 467 524 L 372 524 L 333 593 L 276 524 L 180 524 Z M 292 -10 C 221 -10 166 9 128 49 C 90 88 71 139 71 201 C 71 280 95 346 145 399 C 194 451 255 478 329 478 C 377 478 416 465 447 439 C 477 413 493 381 493 342 C 493 292 473 254 434 229 C 394 204 331 189 243 185 L 187 182 C 189 152 201 129 222 113 C 243 97 271 89 306 89 C 334 89 362 93 389 102 C 416 110 442 123 468 140 L 451 29 C 426 16 400 6 374 0 C 348 -6 320 -10 292 -10 Z M 316 382 C 285 382 258 370 236 348 C 213 325 199 297 194 263 L 253 267 C 295 269 326 276 346 288 C 366 300 376 316 376 338 C 376 351 370 362 360 370 C 349 378 334 382 316 382 Z" unicode="ê" />
<glyph horiz-adv-x="492" d="M 292 -10 C 221 -10 166 9 128 49 C 90 88 71 139 71 201 C 71 280 95 346 145 399 C 194 451 255 478 329 478 C 377 478 416 465 447 439 C 477 413 493 381 493 342 C 493 292 473 254 434 229 C 394 204 331 189 243 185 L 187 182 C 189 152 201 129 222 113 C 243 97 271 89 306 89 C 334 89 362 93 389 102 C 416 110 442 123 468 140 L 451 29 C 426 16 400 6 374 0 C 348 -6 320 -10 292 -10 Z M 316 382 C 285 382 258 370 236 348 C 213 325 199 297 194 263 L 253 267 C 295 269 326 276 346 288 C 366 300 376 316 376 338 C 376 351 370 362 360 370 C 349 378 334 382 316 382 Z M 182 527 L 197 635 L 304 635 L 290 527 L 182 527 Z M 359 527 L 374 635 L 481 635 L 466 527 L 359 527 Z" unicode="ë" />
<glyph horiz-adv-x="243" d="M 136 524 L 34 669 L 167 669 L 255 524 L 136 524 Z M 70 0 C 70 21 70 43 72 65 C 74 87 76 109 79 132 L 126 468 L 241 468 L 194 132 C 191 111 189 89 187 66 C 185 42 184 20 185 0 L 70 0 Z" unicode="ì" />
<glyph horiz-adv-x="243" d="M 129 524 L 253 669 L 387 669 L 248 524 L 129 524 Z M 70 0 C 70 21 70 43 72 65 C 74 87 76 109 79 132 L 126 468 L 241 468 L 194 132 C 191 111 189 89 187 66 C 185 42 184 20 185 0 L 70 0 Z" unicode="í" />
<glyph horiz-adv-x="243" d="M 48 524 L 163 668 L 260 668 L 335 524 L 240 524 L 201 593 L 144 524 L 48 524 Z M 70 0 C 70 21 70 43 72 65 C 74 87 76 109 79 132 L 126 468 L 241 468 L 194 132 C 191 111 189 89 187 66 C 185 42 184 20 185 0 L 70 0 Z" unicode="î" />
<glyph horiz-adv-x="243" d="M 70 0 C 70 21 70 43 72 65 C 74 87 76 109 79 132 L 126 468 L 241 468 L 194 132 C 191 111 189 89 187 66 C 185 42 184 20 185 0 L 70 0 Z M 51 527 L 66 635 L 173 635 L 159 527 L 51 527 Z M 228 527 L 243 635 L 350 635 L 335 527 L 228 527 Z" unicode="ï" />
<glyph horiz-adv-x="571" d="M 299 -12 C 233 -12 178 8 136 48 C 94 88 73 142 73 208 C 73 285 96 350 144 402 C 192 454 251 480 323 480 C 355 480 384 475 408 465 C 432 455 451 440 466 421 C 460 445 451 470 439 494 C 427 518 413 542 396 565 L 285 532 L 270 622 L 327 640 C 315 650 301 661 287 671 C 273 681 258 692 243 702 L 364 748 C 379 737 393 726 407 714 C 421 702 434 689 447 676 L 553 709 L 568 617 L 504 598 C 526 560 543 519 555 475 C 567 430 573 384 573 336 C 573 230 548 146 498 83 C 448 19 382 -12 299 -12 Z M 303 95 C 345 95 380 110 407 142 C 433 173 447 212 447 259 C 445 294 434 322 412 343 C 390 364 363 375 331 375 C 291 375 257 359 230 329 C 202 299 189 261 189 216 C 189 181 199 152 220 129 C 241 106 269 95 303 95 Z" unicode="ð" />
<glyph horiz-adv-x="533" d="M 252 524 L 182 524 C 188 565 200 596 218 617 C 236 638 260 649 290 649 C 302 649 314 647 326 643 C 337 639 348 632 360 624 C 369 617 377 612 383 609 C 389 605 396 604 403 604 C 412 604 420 607 427 614 C 433 621 438 631 441 644 L 510 644 C 503 602 491 571 473 550 C 455 529 431 519 402 519 C 387 519 374 520 364 524 C 353 528 342 534 332 543 C 323 550 315 555 309 559 C 302 562 295 564 289 564 C 279 564 271 560 265 553 C 258 546 254 536 252 524 Z M 67 0 L 115 344 C 118 366 120 388 122 409 C 124 429 125 449 125 468 L 239 468 C 239 458 238 446 238 434 C 238 422 237 411 237 403 L 235 377 C 253 411 275 437 301 453 C 327 469 355 478 384 478 C 430 478 465 462 490 431 C 515 399 523 358 514 308 L 483 134 C 479 112 476 90 475 68 C 474 45 474 22 474 0 L 358 0 C 358 22 358 45 359 68 C 360 91 363 113 367 134 L 395 273 C 401 304 398 329 385 347 C 372 365 354 374 331 374 C 303 374 278 356 255 322 C 231 288 214 230 203 149 L 182 0 L 67 0 Z" unicode="ñ" />
<glyph horiz-adv-x="550" d="M 275 524 L 173 669 L 306 669 L 394 524 L 275 524 Z M 290 -12 C 223 -12 170 7 131 45 C 91 83 72 135 72 201 C 72 280 96 346 145 400 C 193 453 254 480 327 480 C 393 480 445 460 484 422 C 523 384 543 332 543 267 C 543 187 518 121 470 68 C 422 14 362 -12 290 -12 Z M 295 91 C 333 91 364 107 390 140 C 416 172 429 213 429 261 C 429 295 418 323 398 345 C 378 367 352 378 321 378 C 282 378 250 361 224 329 C 198 296 186 256 186 208 C 186 174 196 146 216 124 C 236 102 263 91 295 91 Z" unicode="ò" />
<glyph horiz-adv-x="550" d="M 268 524 L 392 669 L 526 669 L 387 524 L 268 524 Z M 290 -12 C 223 -12 170 7 131 45 C 91 83 72 135 72 201 C 72 280 96 346 145 400 C 193 453 254 480 327 480 C 393 480 445 460 484 422 C 523 384 543 332 543 267 C 543 187 518 121 470 68 C 422 14 362 -12 290 -12 Z M 295 91 C 333 91 364 107 390 140 C 416 172 429 213 429 261 C 429 295 418 323 398 345 C 378 367 352 378 321 378 C 282 378 250 361 224 329 C 198 296 186 256 186 208 C 186 174 196 146 216 124 C 236 102 263 91 295 91 Z" unicode="ó" />
<glyph horiz-adv-x="550" d="M 188 524 L 303 668 L 400 668 L 475 524 L 380 524 L 341 593 L 284 524 L 188 524 Z M 290 -12 C 223 -12 170 7 131 45 C 91 83 72 135 72 201 C 72 280 96 346 145 400 C 193 453 254 480 327 480 C 393 480 445 460 484 422 C 523 384 543 332 543 267 C 543 187 518 121 470 68 C 422 14 362 -12 290 -12 Z M 295 91 C 333 91 364 107 390 140 C 416 172 429 213 429 261 C 429 295 418 323 398 345 C 378 367 352 378 321 378 C 282 378 250 361 224 329 C 198 296 186 256 186 208 C 186 174 196 146 216 124 C 236 102 263 91 295 91 Z" unicode="ô" />
<glyph horiz-adv-x="550" d="M 247 524 L 177 524 C 183 565 195 596 213 617 C 231 638 255 649 285 649 C 297 649 309 647 321 643 C 332 639 343 632 355 624 C 364 617 372 612 378 609 C 384 605 391 604 398 604 C 407 604 415 607 422 614 C 428 621 433 631 436 644 L 505 644 C 498 602 486 571 468 550 C 450 529 426 519 397 519 C 382 519 369 520 359 524 C 348 528 337 534 327 543 C 318 550 310 555 304 559 C 297 562 290 564 284 564 C 274 564 266 560 260 553 C 253 546 249 536 247 524 Z M 290 -12 C 223 -12 170 7 131 45 C 91 83 72 135 72 201 C 72 280 96 346 145 400 C 193 453 254 480 327 480 C 393 480 445 460 484 422 C 523 384 543 332 543 267 C 543 187 518 121 470 68 C 422 14 362 -12 290 -12 Z M 295 91 C 333 91 364 107 390 140 C 416 172 429 213 429 261 C 429 295 418 323 398 345 C 378 367 352 378 321 378 C 282 378 250 361 224 329 C 198 296 186 256 186 208 C 186 174 196 146 216 124 C 236 102 263 91 295 91 Z" unicode="õ" />
<glyph horiz-adv-x="550" d="M 190 527 L 205 635 L 312 635 L 298 527 L 190 527 Z M 367 527 L 382 635 L 489 635 L 474 527 L 367 527 Z M 290 -12 C 223 -12 170 7 131 45 C 91 83 72 135 72 201 C 72 280 96 346 145 400 C 193 453 254 480 327 480 C 393 480 445 460 484 422 C 523 384 543 332 543 267 C 543 187 518 121 470 68 C 422 14 362 -12 290 -12 Z M 295 91 C 333 91 364 107 390 140 C 416 172 429 213 429 261 C 429 295 418 323 398 345 C 378 367 352 378 321 378 C 282 378 250 361 224 329 C 198 296 186 256 186 208 C 186 174 196 146 216 124 C 236 102 263 91 295 91 Z" unicode="ö" />
<glyph horiz-adv-x="520" d="M 263 423 L 278 526 L 380 526 L 365 423 L 263 423 Z M 77 243 L 91 342 L 522 342 L 508 243 L 77 243 Z M 215 60 L 229 162 L 332 162 L 317 60 L 215 60 Z" unicode="÷" />
<glyph horiz-adv-x="550" d="M 62 -63 L 162 76 L 184 113 L 380 408 L 409 448 L 469 532 L 565 532 L 474 405 L 446 367 L 247 63 L 225 34 L 158 -63 L 62 -63 Z M 290 -12 C 223 -12 170 7 131 45 C 91 83 72 135 72 201 C 72 280 96 346 145 400 C 193 453 254 480 327 480 C 393 480 445 460 484 422 C 523 384 543 332 543 267 C 543 187 518 121 470 68 C 422 14 362 -12 290 -12 Z M 295 91 C 333 91 364 107 390 140 C 416 172 429 213 429 261 C 429 295 418 323 398 345 C 378 367 352 378 321 378 C 282 378 250 361 224 329 C 198 296 186 256 186 208 C 186 174 196 146 216 124 C 236 102 263 91 295 91 Z" unicode="ø" />
<glyph horiz-adv-x="534" d="M 275 524 L 173 669 L 306 669 L 394 524 L 275 524 Z M 214 -10 C 168 -10 132 5 107 36 C 81 66 73 108 82 160 L 111 345 C 115 369 118 391 120 411 C 122 431 123 450 123 468 L 239 468 C 239 447 238 426 236 405 C 234 383 231 362 227 340 L 202 196 C 196 162 198 137 210 120 C 221 102 240 94 266 94 C 295 94 321 110 343 142 C 365 174 383 234 396 320 L 417 468 L 532 468 L 485 130 C 482 108 480 86 478 64 C 476 42 476 20 476 0 L 361 0 C 361 10 361 21 361 31 C 361 41 362 52 363 62 L 364 92 C 346 56 323 30 297 14 C 271 -1 243 -10 214 -10 Z" unicode="ù" />
<glyph horiz-adv-x="534" d="M 268 524 L 392 669 L 526 669 L 387 524 L 268 524 Z M 214 -10 C 168 -10 132 5 107 36 C 81 66 73 108 82 160 L 111 345 C 115 369 118 391 120 411 C 122 431 123 450 123 468 L 239 468 C 239 447 238 426 236 405 C 234 383 231 362 227 340 L 202 196 C 196 162 198 137 210 120 C 221 102 240 94 266 94 C 295 94 321 110 343 142 C 365 174 383 234 396 320 L 417 468 L 532 468 L 485 130 C 482 108 480 86 478 64 C 476 42 476 20 476 0 L 361 0 C 361 10 361 21 361 31 C 361 41 362 52 363 62 L 364 92 C 346 56 323 30 297 14 C 271 -1 243 -10 214 -10 Z" unicode="ú" />
<glyph horiz-adv-x="534" d="M 188 524 L 303 668 L 400 668 L 475 524 L 380 524 L 341 593 L 284 524 L 188 524 Z M 214 -10 C 168 -10 132 5 107 36 C 81 66 73 108 82 160 L 111 345 C 115 369 118 391 120 411 C 122 431 123 450 123 468 L 239 468 C 239 447 238 426 236 405 C 234 383 231 362 227 340 L 202 196 C 196 162 198 137 210 120 C 221 102 240 94 266 94 C 295 94 321 110 343 142 C 365 174 383 234 396 320 L 417 468 L 532 468 L 485 130 C 482 108 480 86 478 64 C 476 42 476 20 476 0 L 361 0 C 361 10 361 21 361 31 C 361 41 362 52 363 62 L 364 92 C 346 56 323 30 297 14 C 271 -1 243 -10 214 -10 Z" unicode="û" />
<glyph horiz-adv-x="534" d="M 214 -10 C 168 -10 132 5 107 36 C 81 66 73 108 82 160 L 111 345 C 115 369 118 391 120 411 C 122 431 123 450 123 468 L 239 468 C 239 447 238 426 236 405 C 234 383 231 362 227 340 L 202 196 C 196 162 198 137 210 120 C 221 102 240 94 266 94 C 295 94 321 110 343 142 C 365 174 383 234 396 320 L 417 468 L 532 468 L 485 130 C 482 108 480 86 478 64 C 476 42 476 20 476 0 L 361 0 C 361 10 361 21 361 31 C 361 41 362 52 363 62 L 364 92 C 346 56 323 30 297 14 C 271 -1 243 -10 214 -10 Z M 190 527 L 205 635 L 312 635 L 298 527 L 190 527 Z M 367 527 L 382 635 L 489 635 L 474 527 L 367 527 Z" unicode="ü" />
<glyph horiz-adv-x="512" d="M -9 -212 L -16 -212 L -2 -107 L 6 -107 C 44 -107 80 -98 114 -82 C 148 -66 179 -43 205 -14 L 93 468 L 220 468 L 273 205 L 291 84 C 315 130 339 185 362 247 C 385 309 408 383 432 468 L 550 468 C 480 228 400 55 309 -51 C 217 -158 111 -212 -9 -212 Z M 252 524 L 376 669 L 510 669 L 371 524 L 252 524 Z" unicode="ý" />
<glyph horiz-adv-x="543" d="M 31 -212 L 161 718 L 277 718 L 238 447 C 236 434 235 422 233 410 C 231 398 228 386 226 374 C 242 412 264 438 290 454 C 316 470 344 478 373 478 C 421 478 460 461 492 428 C 524 395 540 347 540 285 C 540 201 513 131 461 75 C 409 18 342 -10 262 -10 C 247 -10 232 -8 218 -6 C 203 -4 189 -1 177 3 L 146 -212 L 31 -212 Z M 271 87 C 316 87 353 105 382 141 C 410 177 425 220 425 268 C 425 303 417 330 401 348 C 385 366 363 375 337 375 C 313 375 287 363 260 341 C 233 319 214 264 202 177 L 192 100 C 203 95 215 92 229 90 C 242 88 256 87 271 87 Z" unicode="þ" />
<glyph horiz-adv-x="512" d="M -9 -212 L -16 -212 L -2 -107 L 6 -107 C 44 -107 80 -98 114 -82 C 148 -66 179 -43 205 -14 L 93 468 L 220 468 L 273 205 L 291 84 C 315 130 339 185 362 247 C 385 309 408 383 432 468 L 550 468 C 480 228 400 55 309 -51 C 217 -158 111 -212 -9 -212 Z M 174 527 L 189 635 L 296 635 L 282 527 L 174 527 Z M 351 527 L 366 635 L 473 635 L 458 527 L 351 527 Z" unicode="ÿ" />
<glyph horiz-adv-x="662" d="M 14 0 L 368 660 L 479 660 L 648 0 L 524 0 L 485 162 L 220 162 L 136 0 L 14 0 Z M 352 416 L 275 267 L 459 267 L 423 416 L 401 517 L 352 416 Z M 312 710 L 324 792 L 553 792 L 541 710 L 312 710 Z" unicode="Ā" />
<glyph horiz-adv-x="545" d="M 232 -10 C 184 -10 144 6 113 40 C 81 73 66 120 66 180 C 66 266 93 337 149 393 C 205 449 274 478 356 478 C 384 478 415 474 449 468 C 483 462 513 453 540 443 L 499 150 C 496 125 493 100 491 76 C 489 52 488 26 488 0 L 373 0 C 373 10 373 20 373 31 C 373 42 374 52 375 62 L 376 85 C 358 50 337 25 311 11 C 285 -2 259 -10 232 -10 Z M 266 91 C 296 91 323 106 349 137 C 375 167 393 218 404 290 L 414 366 C 402 370 390 374 378 376 C 366 378 353 379 339 379 C 296 379 259 360 227 324 C 195 287 180 244 180 194 C 180 160 187 134 203 117 C 219 99 240 91 266 91 Z M 224 532 L 237 623 L 487 623 L 474 532 L 224 532 Z" unicode="ā" />
<glyph horiz-adv-x="662" d="M 14 0 L 368 660 L 479 660 L 648 0 L 524 0 L 485 162 L 220 162 L 136 0 L 14 0 Z M 352 416 L 275 267 L 459 267 L 423 416 L 401 517 L 352 416 Z M 426 701 C 387 701 358 713 339 737 C 319 761 312 792 317 831 L 385 831 C 383 813 386 798 394 788 C 402 778 414 773 431 773 C 445 773 458 778 468 788 C 478 798 484 813 486 831 L 555 831 C 549 791 535 759 512 736 C 488 712 460 701 426 701 Z" unicode="Ă" />
<glyph horiz-adv-x="662" d="M 14 0 L 368 660 L 479 660 L 648 0 L 524 0 L 485 162 L 220 162 L 136 0 L 14 0 Z M 352 416 L 275 267 L 459 267 L 423 416 L 401 517 L 352 416 Z M 617 -220 C 569 -220 531 -209 503 -187 C 475 -165 462 -136 462 -100 C 462 -60 478 -26 511 1 C 543 29 584 43 633 44 L 640 0 C 617 0 598 -6 583 -20 C 568 -33 561 -49 561 -69 C 561 -87 567 -102 579 -112 C 591 -122 608 -128 630 -128 L 617 -220 Z" unicode="Ą" />
<glyph horiz-adv-x="545" d="M 232 -10 C 184 -10 144 6 113 40 C 81 73 66 120 66 180 C 66 266 93 337 149 393 C 205 449 274 478 356 478 C 384 478 415 474 449 468 C 483 462 513 453 540 443 L 499 150 C 496 125 493 100 491 76 C 489 52 488 26 488 0 L 373 0 C 373 10 373 20 373 31 C 373 42 374 52 375 62 L 376 85 C 358 50 337 25 311 11 C 285 -2 259 -10 232 -10 Z M 266 91 C 296 91 323 106 349 137 C 375 167 393 218 404 290 L 414 366 C 402 370 390 374 378 376 C 366 378 353 379 339 379 C 296 379 259 360 227 324 C 195 287 180 244 180 194 C 180 160 187 134 203 117 C 219 99 240 91 266 91 Z M 465 -212 C 416 -212 377 -203 348 -186 C 318 -168 304 -142 304 -107 C 304 -73 317 -44 345 -18 C 373 8 414 32 468 56 L 482 2 C 456 -4 438 -13 427 -25 C 415 -37 410 -50 410 -66 C 410 -80 415 -92 427 -102 C 438 -111 455 -116 478 -116 L 465 -212 Z" unicode="ą" />
<glyph horiz-adv-x="651" d="M 408 -15 C 308 -15 229 14 173 72 C 116 130 88 201 88 287 C 88 397 124 489 196 563 C 268 636 365 673 485 673 C 521 673 556 668 590 660 C 624 652 657 639 689 623 L 672 505 C 641 523 609 538 577 548 C 544 558 510 564 474 564 C 394 564 330 539 282 489 C 234 439 210 374 210 295 C 210 237 228 189 266 151 C 304 113 355 94 419 94 C 457 94 493 99 528 110 C 562 121 597 137 632 158 L 615 37 C 581 19 546 5 511 -2 C 476 -10 442 -15 408 -15 Z M 441 716 L 555 849 L 679 849 L 552 716 L 441 716 Z" unicode="Ć" />
<glyph horiz-adv-x="472" d="M 289 -10 C 223 -10 171 9 131 49 C 91 88 72 138 72 198 C 72 280 97 348 148 400 C 198 452 265 478 349 478 C 374 478 398 475 421 469 C 444 463 467 454 490 443 L 474 332 C 451 346 429 357 409 364 C 389 371 365 375 339 375 C 293 375 256 359 228 328 C 200 297 186 258 186 210 C 186 174 196 145 218 124 C 240 103 269 93 306 93 C 333 93 358 97 382 105 C 405 113 428 126 451 142 L 435 30 C 412 16 389 6 365 0 C 341 -6 315 -10 289 -10 Z M 269 537 L 393 682 L 527 682 L 388 537 L 269 537 Z" unicode="ć" />
<glyph horiz-adv-x="651" d="M 408 -15 C 308 -15 229 14 173 72 C 116 130 88 201 88 287 C 88 397 124 489 196 563 C 268 636 365 673 485 673 C 521 673 556 668 590 660 C 624 652 657 639 689 623 L 672 505 C 641 523 609 538 577 548 C 544 558 510 564 474 564 C 394 564 330 539 282 489 C 234 439 210 374 210 295 C 210 237 228 189 266 151 C 304 113 355 94 419 94 C 457 94 493 99 528 110 C 562 121 597 137 632 158 L 615 37 C 581 19 546 5 511 -2 C 476 -10 442 -15 408 -15 Z M 367 716 L 473 847 L 561 847 L 630 716 L 544 716 L 508 780 L 455 716 L 367 716 Z" unicode="Ĉ" />
<glyph horiz-adv-x="472" d="M 189 537 L 304 681 L 401 681 L 476 537 L 381 537 L 342 606 L 285 537 L 189 537 Z M 289 -10 C 223 -10 171 9 131 49 C 91 88 72 138 72 198 C 72 280 97 348 148 400 C 198 452 265 478 349 478 C 374 478 398 475 421 469 C 444 463 467 454 490 443 L 474 332 C 451 346 429 357 409 364 C 389 371 365 375 339 375 C 293 375 256 359 228 328 C 200 297 186 258 186 210 C 186 174 196 145 218 124 C 240 103 269 93 306 93 C 333 93 358 97 382 105 C 405 113 428 126 451 142 L 435 30 C 412 16 389 6 365 0 C 341 -6 315 -10 289 -10 Z" unicode="ĉ" />
<glyph horiz-adv-x="651" d="M 445 716 L 459 820 L 563 820 L 549 716 L 445 716 Z M 408 -15 C 308 -15 229 14 173 72 C 116 130 88 201 88 287 C 88 397 124 489 196 563 C 268 636 365 673 485 673 C 521 673 556 668 590 660 C 624 652 657 639 689 623 L 672 505 C 641 523 609 538 577 548 C 544 558 510 564 474 564 C 394 564 330 539 282 489 C 234 439 210 374 210 295 C 210 237 228 189 266 151 C 304 113 355 94 419 94 C 457 94 493 99 528 110 C 562 121 597 137 632 158 L 615 37 C 581 19 546 5 511 -2 C 476 -10 442 -15 408 -15 Z" unicode="Ċ" />
<glyph horiz-adv-x="472" d="M 289 -10 C 223 -10 171 9 131 49 C 91 88 72 138 72 198 C 72 280 97 348 148 400 C 198 452 265 478 349 478 C 374 478 398 475 421 469 C 444 463 467 454 490 443 L 474 332 C 451 346 429 357 409 364 C 389 371 365 375 339 375 C 293 375 256 359 228 328 C 200 297 186 258 186 210 C 186 174 196 145 218 124 C 240 103 269 93 306 93 C 333 93 358 97 382 105 C 405 113 428 126 451 142 L 435 30 C 412 16 389 6 365 0 C 341 -6 315 -10 289 -10 Z M 276 540 L 293 655 L 407 655 L 391 540 L 276 540 Z" unicode="ċ" />
<glyph horiz-adv-x="651" d="M 408 -15 C 308 -15 229 14 173 72 C 116 130 88 201 88 287 C 88 397 124 489 196 563 C 268 636 365 673 485 673 C 521 673 556 668 590 660 C 624 652 657 639 689 623 L 672 505 C 641 523 609 538 577 548 C 544 558 510 564 474 564 C 394 564 330 539 282 489 C 234 439 210 374 210 295 C 210 237 228 189 266 151 C 304 113 355 94 419 94 C 457 94 493 99 528 110 C 562 121 597 137 632 158 L 615 37 C 581 19 546 5 511 -2 C 476 -10 442 -15 408 -15 Z M 455 714 L 386 845 L 472 845 L 507 781 L 561 845 L 649 845 L 543 714 L 455 714 Z" unicode="Č" />
<glyph horiz-adv-x="472" d="M 285 537 L 209 681 L 304 681 L 342 611 L 400 681 L 497 681 L 381 537 L 285 537 Z M 289 -10 C 223 -10 171 9 131 49 C 91 88 72 138 72 198 C 72 280 97 348 148 400 C 198 452 265 478 349 478 C 374 478 398 475 421 469 C 444 463 467 454 490 443 L 474 332 C 451 346 429 357 409 364 C 389 371 365 375 339 375 C 293 375 256 359 228 328 C 200 297 186 258 186 210 C 186 174 196 145 218 124 C 240 103 269 93 306 93 C 333 93 358 97 382 105 C 405 113 428 126 451 142 L 435 30 C 412 16 389 6 365 0 C 341 -6 315 -10 289 -10 Z" unicode="č" />
<glyph horiz-adv-x="702" d="M 77 0 L 169 658 L 388 658 C 486 658 563 631 620 577 C 677 523 706 454 706 369 C 706 260 668 171 594 103 C 519 34 419 0 293 0 L 77 0 Z M 211 111 L 308 111 C 393 111 460 134 510 181 C 560 228 585 289 585 363 C 585 416 566 460 529 495 C 492 529 442 547 378 547 L 272 547 L 211 111 Z M 342 708 L 273 839 L 359 839 L 394 775 L 448 839 L 536 839 L 430 708 L 342 708 Z" unicode="Ď" />
<glyph horiz-adv-x="676" d="M 682 508 L 601 540 C 616 562 627 583 635 603 C 643 622 648 645 652 672 L 659 717 L 760 717 L 754 672 C 748 635 740 605 730 581 C 719 557 703 532 682 508 Z M 235 -10 C 187 -10 148 6 116 40 C 84 73 69 120 69 180 C 69 266 96 337 152 393 C 207 449 275 478 357 478 C 368 478 380 477 393 475 C 406 473 419 471 432 467 L 467 718 L 582 718 L 502 150 C 499 125 496 100 494 76 C 492 52 491 26 491 0 L 377 0 C 377 8 377 18 377 28 C 377 38 377 50 378 62 L 379 85 C 361 50 340 25 314 11 C 288 -2 262 -10 235 -10 Z M 269 91 C 299 91 326 106 352 137 C 378 167 396 218 407 290 L 417 362 C 406 367 394 371 380 374 C 366 377 353 379 340 379 C 298 379 261 360 230 324 C 198 288 183 244 183 194 C 183 160 190 134 206 117 C 222 99 243 91 269 91 Z" unicode="ď" />
<glyph horiz-adv-x="735" d="M 84 276 L 98 377 L 369 377 L 354 276 L 84 276 Z M 110 0 L 202 658 L 421 658 C 519 658 596 631 653 577 C 710 523 739 454 739 369 C 739 260 701 171 627 103 C 552 34 452 0 326 0 L 110 0 Z M 244 111 L 341 111 C 426 111 493 134 543 181 C 593 228 618 289 618 363 C 618 416 599 460 562 495 C 525 529 475 547 411 547 L 305 547 L 244 111 Z" unicode="Đ" />
<glyph horiz-adv-x="537" d="M 377 530 L 392 627 L 632 653 L 617 556 L 377 530 Z M 235 -10 C 187 -10 148 6 116 40 C 84 73 69 120 69 180 C 69 266 96 337 152 393 C 207 449 275 478 357 478 C 368 478 380 477 393 475 C 406 473 419 471 432 467 L 467 718 L 582 718 L 502 150 C 499 125 496 100 494 76 C 492 52 491 26 491 0 L 377 0 C 377 8 377 18 377 28 C 377 38 377 50 378 62 L 379 85 C 361 50 340 25 314 11 C 288 -2 262 -10 235 -10 Z M 269 91 C 299 91 326 106 352 137 C 378 167 396 218 407 290 L 417 362 C 406 367 394 371 380 374 C 366 377 353 379 340 379 C 298 379 261 360 230 324 C 198 288 183 244 183 194 C 183 160 190 134 206 117 C 222 99 243 91 269 91 Z" unicode="đ" />
<glyph horiz-adv-x="529" d="M 77 0 L 169 658 L 550 658 L 534 547 L 271 547 L 249 389 L 504 389 L 488 278 L 234 278 L 211 111 L 486 111 L 470 0 L 77 0 Z M 257 710 L 269 792 L 498 792 L 486 710 L 257 710 Z" unicode="Ē" />
<glyph horiz-adv-x="492" d="M 292 -10 C 221 -10 166 9 128 49 C 90 88 71 139 71 201 C 71 280 95 346 145 399 C 194 451 255 478 329 478 C 377 478 416 465 447 439 C 477 413 493 381 493 342 C 493 292 473 254 434 229 C 394 204 331 189 243 185 L 187 182 C 189 152 201 129 222 113 C 243 97 271 89 306 89 C 334 89 362 93 389 102 C 416 110 442 123 468 140 L 451 29 C 426 16 400 6 374 0 C 348 -6 320 -10 292 -10 Z M 316 382 C 285 382 258 370 236 348 C 213 325 199 297 194 263 L 253 267 C 295 269 326 276 346 288 C 366 300 376 316 376 338 C 376 351 370 362 360 370 C 349 378 334 382 316 382 Z M 200 532 L 213 623 L 463 623 L 450 532 L 200 532 Z" unicode="ē" />
<glyph horiz-adv-x="529" d="M 371 701 C 332 701 303 713 284 737 C 264 761 257 792 262 831 L 330 831 C 328 813 331 798 339 788 C 347 778 359 773 376 773 C 390 773 403 778 413 788 C 423 798 429 813 431 831 L 500 831 C 494 791 480 759 457 736 C 433 712 405 701 371 701 Z M 77 0 L 169 658 L 550 658 L 534 547 L 271 547 L 249 389 L 504 389 L 488 278 L 234 278 L 211 111 L 486 111 L 470 0 L 77 0 Z" unicode="Ĕ" />
<glyph horiz-adv-x="492" d="M 292 -10 C 221 -10 166 9 128 49 C 90 88 71 139 71 201 C 71 280 95 346 145 399 C 194 451 255 478 329 478 C 377 478 416 465 447 439 C 477 413 493 381 493 342 C 493 292 473 254 434 229 C 394 204 331 189 243 185 L 187 182 C 189 152 201 129 222 113 C 243 97 271 89 306 89 C 334 89 362 93 389 102 C 416 110 442 123 468 140 L 451 29 C 426 16 400 6 374 0 C 348 -6 320 -10 292 -10 Z M 316 382 C 285 382 258 370 236 348 C 213 325 199 297 194 263 L 253 267 C 295 269 326 276 346 288 C 366 300 376 316 376 338 C 376 351 370 362 360 370 C 349 378 334 382 316 382 Z M 326 516 C 283 516 251 529 230 555 C 208 581 200 615 206 658 L 281 658 C 279 638 283 623 291 612 C 299 601 312 596 330 596 C 346 596 359 601 370 612 C 381 623 388 638 390 658 L 465 658 C 459 614 444 579 418 554 C 392 528 362 516 326 516 Z" unicode="ĕ" />
<glyph horiz-adv-x="529" d="M 320 710 L 334 814 L 438 814 L 424 710 L 320 710 Z M 77 0 L 169 658 L 550 658 L 534 547 L 271 547 L 249 389 L 504 389 L 488 278 L 234 278 L 211 111 L 486 111 L 470 0 L 77 0 Z" unicode="Ė" />
<glyph horiz-adv-x="492" d="M 267 527 L 284 642 L 398 642 L 382 527 L 267 527 Z M 292 -10 C 221 -10 166 9 128 49 C 90 88 71 139 71 201 C 71 280 95 346 145 399 C 194 451 255 478 329 478 C 377 478 416 465 447 439 C 477 413 493 381 493 342 C 493 292 473 254 434 229 C 394 204 331 189 243 185 L 187 182 C 189 152 201 129 222 113 C 243 97 271 89 306 89 C 334 89 362 93 389 102 C 416 110 442 123 468 140 L 451 29 C 426 16 400 6 374 0 C 348 -6 320 -10 292 -10 Z M 316 382 C 285 382 258 370 236 348 C 213 325 199 297 194 263 L 253 267 C 295 269 326 276 346 288 C 366 300 376 316 376 338 C 376 351 370 362 360 370 C 349 378 334 382 316 382 Z" unicode="ė" />
<glyph horiz-adv-x="529" d="M 444 -220 C 396 -220 358 -209 330 -187 C 302 -165 289 -136 289 -100 C 289 -60 305 -26 338 1 C 370 29 411 43 460 44 L 467 0 C 444 0 425 -6 410 -20 C 395 -33 388 -49 388 -69 C 388 -87 394 -102 406 -112 C 418 -122 435 -128 457 -128 L 444 -220 Z M 77 0 L 169 658 L 550 658 L 534 547 L 271 547 L 249 389 L 504 389 L 488 278 L 234 278 L 211 111 L 486 111 L 470 0 L 77 0 Z" unicode="Ę" />
<glyph horiz-adv-x="492" d="M 416 -212 C 364 -212 324 -201 294 -179 C 264 -157 250 -127 250 -90 C 250 -53 263 -21 291 5 C 319 31 354 48 397 55 L 410 10 C 393 4 379 -5 369 -18 C 359 -31 354 -45 354 -61 C 354 -80 360 -95 374 -107 C 387 -118 405 -124 428 -124 L 416 -212 Z M 292 -10 C 221 -10 166 9 128 49 C 90 88 71 139 71 201 C 71 280 95 346 145 399 C 194 451 255 478 329 478 C 377 478 416 465 447 439 C 477 413 493 381 493 342 C 493 292 473 254 434 229 C 394 204 331 189 243 185 L 187 182 C 189 152 201 129 222 113 C 243 97 271 89 306 89 C 334 89 362 93 389 102 C 416 110 442 123 468 140 L 451 29 C 426 16 400 6 374 0 C 348 -6 320 -10 292 -10 Z M 316 382 C 285 382 258 370 236 348 C 213 325 199 297 194 263 L 253 267 C 295 269 326 276 346 288 C 366 300 376 316 376 338 C 376 351 370 362 360 370 C 349 378 334 382 316 382 Z" unicode="ę" />
<glyph horiz-adv-x="529" d="M 77 0 L 169 658 L 550 658 L 534 547 L 271 547 L 249 389 L 504 389 L 488 278 L 234 278 L 211 111 L 486 111 L 470 0 L 77 0 Z M 326 708 L 257 839 L 343 839 L 378 775 L 432 839 L 520 839 L 414 708 L 326 708 Z" unicode="Ě" />
<glyph horiz-adv-x="492" d="M 276 524 L 200 668 L 295 668 L 333 598 L 391 668 L 488 668 L 372 524 L 276 524 Z M 292 -10 C 221 -10 166 9 128 49 C 90 88 71 139 71 201 C 71 280 95 346 145 399 C 194 451 255 478 329 478 C 377 478 416 465 447 439 C 477 413 493 381 493 342 C 493 292 473 254 434 229 C 394 204 331 189 243 185 L 187 182 C 189 152 201 129 222 113 C 243 97 271 89 306 89 C 334 89 362 93 389 102 C 416 110 442 123 468 140 L 451 29 C 426 16 400 6 374 0 C 348 -6 320 -10 292 -10 Z M 316 382 C 285 382 258 370 236 348 C 213 325 199 297 194 263 L 253 267 C 295 269 326 276 346 288 C 366 300 376 316 376 338 C 376 351 370 362 360 370 C 349 378 334 382 316 382 Z" unicode="ě" />
<glyph horiz-adv-x="693" d="M 351 716 L 457 847 L 545 847 L 614 716 L 528 716 L 492 780 L 439 716 L 351 716 Z M 404 -15 C 305 -15 227 13 171 70 C 115 126 87 197 87 281 C 87 393 123 487 196 561 C 268 635 364 673 483 673 C 521 673 558 669 596 661 C 634 653 667 642 696 628 L 680 512 C 652 528 619 540 583 550 C 547 559 511 564 475 564 C 395 564 331 538 282 487 C 233 435 209 370 209 291 C 209 233 227 186 265 150 C 303 113 352 95 412 95 C 435 95 457 96 477 100 C 497 103 516 109 533 117 L 551 246 L 417 246 L 433 357 L 686 357 L 642 42 C 602 22 562 7 522 -1 C 481 -10 442 -15 404 -15 Z" unicode="Ĝ" />
<glyph horiz-adv-x="539" d="M 195 524 L 310 668 L 407 668 L 482 524 L 387 524 L 348 593 L 291 524 L 195 524 Z M 218 -222 C 191 -222 163 -219 133 -213 C 103 -207 76 -198 51 -188 L 66 -77 C 86 -89 111 -99 139 -107 C 167 -115 193 -119 217 -119 C 259 -119 293 -109 318 -90 C 343 -71 359 -40 365 4 L 376 85 C 359 50 338 25 312 11 C 286 -2 260 -10 234 -10 C 186 -10 146 6 114 39 C 82 72 67 119 67 180 C 67 265 95 336 151 393 C 207 449 276 478 358 478 C 386 478 417 474 451 468 C 485 462 515 453 542 443 L 482 20 C 470 -63 442 -124 399 -163 C 355 -202 295 -222 218 -222 Z M 268 91 C 298 91 325 106 351 137 C 376 167 394 218 405 290 L 416 366 C 405 370 393 373 380 375 C 367 377 354 379 341 379 C 298 379 261 360 229 324 C 197 287 182 243 182 193 C 182 159 189 133 205 116 C 220 99 241 91 268 91 Z" unicode="ĝ" />
<glyph horiz-adv-x="693" d="M 484 707 C 445 707 416 719 397 743 C 377 767 370 798 375 837 L 443 837 C 441 819 444 804 452 794 C 460 784 472 779 489 779 C 503 779 516 784 526 794 C 536 804 542 819 544 837 L 613 837 C 607 797 593 765 570 742 C 546 718 518 707 484 707 Z M 404 -15 C 305 -15 227 13 171 70 C 115 126 87 197 87 281 C 87 393 123 487 196 561 C 268 635 364 673 483 673 C 521 673 558 669 596 661 C 634 653 667 642 696 628 L 680 512 C 652 528 619 540 583 550 C 547 559 511 564 475 564 C 395 564 331 538 282 487 C 233 435 209 370 209 291 C 209 233 227 186 265 150 C 303 113 352 95 412 95 C 435 95 457 96 477 100 C 497 103 516 109 533 117 L 551 246 L 417 246 L 433 357 L 686 357 L 642 42 C 602 22 562 7 522 -1 C 481 -10 442 -15 404 -15 Z" unicode="Ğ" />
<glyph horiz-adv-x="539" d="M 341 516 C 298 516 266 529 245 555 C 223 581 215 615 221 658 L 296 658 C 294 638 298 623 306 612 C 314 601 327 596 345 596 C 361 596 374 601 385 612 C 396 623 403 638 405 658 L 480 658 C 474 614 459 579 433 554 C 407 528 377 516 341 516 Z M 218 -222 C 191 -222 163 -219 133 -213 C 103 -207 76 -198 51 -188 L 66 -77 C 86 -89 111 -99 139 -107 C 167 -115 193 -119 217 -119 C 259 -119 293 -109 318 -90 C 343 -71 359 -40 365 4 L 376 85 C 359 50 338 25 312 11 C 286 -2 260 -10 234 -10 C 186 -10 146 6 114 39 C 82 72 67 119 67 180 C 67 265 95 336 151 393 C 207 449 276 478 358 478 C 386 478 417 474 451 468 C 485 462 515 453 542 443 L 482 20 C 470 -63 442 -124 399 -163 C 355 -202 295 -222 218 -222 Z M 268 91 C 298 91 325 106 351 137 C 376 167 394 218 405 290 L 416 366 C 405 370 393 373 380 375 C 367 377 354 379 341 379 C 298 379 261 360 229 324 C 197 287 182 243 182 193 C 182 159 189 133 205 116 C 220 99 241 91 268 91 Z" unicode="ğ" />
<glyph horiz-adv-x="693" d="M 429 716 L 443 820 L 547 820 L 533 716 L 429 716 Z M 404 -15 C 305 -15 227 13 171 70 C 115 126 87 197 87 281 C 87 393 123 487 196 561 C 268 635 364 673 483 673 C 521 673 558 669 596 661 C 634 653 667 642 696 628 L 680 512 C 652 528 619 540 583 550 C 547 559 511 564 475 564 C 395 564 331 538 282 487 C 233 435 209 370 209 291 C 209 233 227 186 265 150 C 303 113 352 95 412 95 C 435 95 457 96 477 100 C 497 103 516 109 533 117 L 551 246 L 417 246 L 433 357 L 686 357 L 642 42 C 602 22 562 7 522 -1 C 481 -10 442 -15 404 -15 Z" unicode="Ġ" />
<glyph horiz-adv-x="539" d="M 282 527 L 299 642 L 413 642 L 397 527 L 282 527 Z M 218 -222 C 191 -222 163 -219 133 -213 C 103 -207 76 -198 51 -188 L 66 -77 C 86 -89 111 -99 139 -107 C 167 -115 193 -119 217 -119 C 259 -119 293 -109 318 -90 C 343 -71 359 -40 365 4 L 376 85 C 359 50 338 25 312 11 C 286 -2 260 -10 234 -10 C 186 -10 146 6 114 39 C 82 72 67 119 67 180 C 67 265 95 336 151 393 C 207 449 276 478 358 478 C 386 478 417 474 451 468 C 485 462 515 453 542 443 L 482 20 C 470 -63 442 -124 399 -163 C 355 -202 295 -222 218 -222 Z M 268 91 C 298 91 325 106 351 137 C 376 167 394 218 405 290 L 416 366 C 405 370 393 373 380 375 C 367 377 354 379 341 379 C 298 379 261 360 229 324 C 197 287 182 243 182 193 C 182 159 189 133 205 116 C 220 99 241 91 268 91 Z" unicode="ġ" />
<glyph horiz-adv-x="693" d="M 377 -248 L 304 -219 C 318 -198 328 -179 335 -161 C 342 -143 347 -122 350 -99 L 357 -56 L 449 -56 L 442 -99 C 437 -131 430 -159 420 -181 C 410 -203 396 -225 377 -248 Z M 404 -15 C 305 -15 227 13 171 70 C 115 126 87 197 87 281 C 87 393 123 487 196 561 C 268 635 364 673 483 673 C 521 673 558 669 596 661 C 634 653 667 642 696 628 L 680 512 C 652 528 619 540 583 550 C 547 559 511 564 475 564 C 395 564 331 538 282 487 C 233 435 209 370 209 291 C 209 233 227 186 265 150 C 303 113 352 95 412 95 C 435 95 457 96 477 100 C 497 103 516 109 533 117 L 551 246 L 417 246 L 433 357 L 686 357 L 642 42 C 602 22 562 7 522 -1 C 481 -10 442 -15 404 -15 Z" unicode="Ģ" />
<glyph horiz-adv-x="539" d="M 218 -222 C 191 -222 163 -219 133 -213 C 103 -207 76 -198 51 -188 L 66 -77 C 86 -89 111 -99 139 -107 C 167 -115 193 -119 217 -119 C 259 -119 293 -109 318 -90 C 343 -71 359 -40 365 4 L 376 85 C 359 50 338 25 312 11 C 286 -2 260 -10 234 -10 C 186 -10 146 6 114 39 C 82 72 67 119 67 180 C 67 265 95 336 151 393 C 207 449 276 478 358 478 C 386 478 417 474 451 468 C 485 462 515 453 542 443 L 482 20 C 470 -63 442 -124 399 -163 C 355 -202 295 -222 218 -222 Z M 268 91 C 298 91 325 106 351 137 C 376 167 394 218 405 290 L 416 366 C 405 370 393 373 380 375 C 367 377 354 379 341 379 C 298 379 261 360 229 324 C 197 287 182 243 182 193 C 182 159 189 133 205 116 C 220 99 241 91 268 91 Z M 365 731 L 447 698 C 431 675 419 654 412 635 C 404 615 399 593 395 567 L 389 521 L 287 521 L 294 567 C 298 603 306 633 317 657 C 327 681 343 706 365 731 Z" unicode="ģ" />
<glyph horiz-adv-x="707" d="M 77 0 L 169 658 L 288 658 L 250 390 L 566 390 L 604 658 L 723 658 L 631 0 L 512 0 L 551 279 L 235 279 L 196 0 L 77 0 Z M 318 710 L 424 841 L 512 841 L 581 710 L 495 710 L 459 774 L 406 710 L 318 710 Z" unicode="Ĥ" />
<glyph horiz-adv-x="528" d="M 60 0 L 161 718 L 277 718 L 241 467 C 239 452 236 437 233 421 C 230 405 227 389 225 375 C 243 410 265 436 293 453 C 321 469 349 478 379 478 C 425 478 460 462 486 432 C 511 401 519 360 510 308 L 478 134 C 474 112 471 90 470 68 C 469 45 469 22 469 0 L 354 0 C 354 22 354 45 355 68 C 356 91 359 113 363 134 L 391 273 C 397 305 394 329 381 347 C 367 365 349 374 326 374 C 302 374 278 360 254 332 C 229 304 210 243 196 149 L 175 0 L 60 0 Z M 80 743 L 195 887 L 292 887 L 367 743 L 272 743 L 233 812 L 176 743 L 80 743 Z" unicode="ĥ" />
<glyph horiz-adv-x="688" d="M 67 0 L 132 466 L 81 466 L 96 567 L 146 567 L 159 658 L 278 658 L 265 567 L 581 567 L 594 658 L 713 658 L 700 567 L 752 567 L 737 466 L 686 466 L 621 0 L 502 0 L 540 272 L 224 272 L 186 0 L 67 0 Z M 239 383 L 555 383 L 567 466 L 251 466 L 239 383 Z" unicode="Ħ" />
<glyph horiz-adv-x="528" d="M 92 540 L 106 635 L 335 635 L 321 540 L 92 540 Z M 60 0 L 161 718 L 277 718 L 241 467 C 239 452 236 437 233 421 C 230 405 227 389 225 375 C 243 410 265 436 293 453 C 321 469 349 478 379 478 C 425 478 460 462 486 432 C 511 401 519 360 510 308 L 478 134 C 474 112 471 90 470 68 C 469 45 469 22 469 0 L 354 0 C 354 22 354 45 355 68 C 356 91 359 113 363 134 L 391 273 C 397 305 394 329 381 347 C 367 365 349 374 326 374 C 302 374 278 360 254 332 C 229 304 210 243 196 149 L 175 0 L 60 0 Z" unicode="ħ" />
<glyph horiz-adv-x="272" d="M 77 0 L 169 658 L 288 658 L 196 0 L 77 0 Z M 157 710 L 94 710 C 100 748 111 776 128 795 C 144 813 166 823 194 823 C 205 823 216 821 226 818 C 236 814 247 808 258 800 C 266 794 274 789 280 786 C 286 782 291 781 297 781 C 305 781 313 784 320 791 C 326 797 331 807 333 819 L 396 819 C 389 781 377 752 361 733 C 345 714 323 705 297 705 C 283 705 272 706 262 710 C 252 714 242 719 233 727 C 224 733 217 738 211 742 C 205 745 199 747 193 747 C 184 747 176 743 170 737 C 164 730 159 721 157 710 Z" unicode="Ĩ" />
<glyph horiz-adv-x="243" d="M 70 0 C 70 21 70 43 72 65 C 74 87 76 109 79 132 L 126 468 L 241 468 L 194 132 C 191 111 189 89 187 66 C 185 42 184 20 185 0 L 70 0 Z M 108 524 L 38 524 C 44 565 56 596 74 617 C 92 638 116 649 146 649 C 158 649 170 647 182 643 C 193 639 204 632 216 624 C 225 617 233 612 239 609 C 245 605 252 604 259 604 C 268 604 276 607 283 614 C 289 621 294 631 297 644 L 366 644 C 359 602 347 571 329 550 C 311 529 287 519 258 519 C 243 519 230 520 220 524 C 209 528 198 534 188 543 C 179 550 171 555 165 559 C 158 562 151 564 145 564 C 135 564 127 560 121 553 C 114 546 110 536 108 524 Z" unicode="ĩ" />
<glyph horiz-adv-x="272" d="M 77 0 L 169 658 L 288 658 L 196 0 L 77 0 Z M 126 710 L 138 792 L 367 792 L 355 710 L 126 710 Z" unicode="Ī" />
<glyph horiz-adv-x="243" d="M 70 0 C 70 21 70 43 72 65 C 74 87 76 109 79 132 L 126 468 L 241 468 L 194 132 C 191 111 189 89 187 66 C 185 42 184 20 185 0 L 70 0 Z M 69 532 L 82 623 L 332 623 L 319 532 L 69 532 Z" unicode="ī" />
<glyph horiz-adv-x="272" d="M 77 0 L 169 658 L 288 658 L 196 0 L 77 0 Z M 240 701 C 201 701 172 713 153 737 C 133 761 126 792 131 831 L 199 831 C 197 813 200 798 208 788 C 216 778 228 773 245 773 C 259 773 272 778 282 788 C 292 798 298 813 300 831 L 369 831 C 363 791 349 759 326 736 C 302 712 274 701 240 701 Z" unicode="Ĭ" />
<glyph horiz-adv-x="243" d="M 70 0 C 70 21 70 43 72 65 C 74 87 76 109 79 132 L 126 468 L 241 468 L 194 132 C 191 111 189 89 187 66 C 185 42 184 20 185 0 L 70 0 Z M 195 516 C 152 516 120 529 99 555 C 77 581 69 615 75 658 L 150 658 C 148 638 152 623 160 612 C 168 601 181 596 199 596 C 215 596 228 601 239 612 C 250 623 257 638 259 658 L 334 658 C 328 614 313 579 287 554 C 261 528 231 516 195 516 Z" unicode="ĭ" />
<glyph horiz-adv-x="272" d="M 77 0 L 169 658 L 288 658 L 196 0 L 77 0 Z M 169 -212 C 120 -212 81 -203 52 -186 C 22 -168 8 -142 8 -107 C 8 -73 21 -44 49 -18 C 77 8 118 32 172 56 L 186 2 C 160 -4 142 -13 131 -25 C 119 -37 114 -50 114 -66 C 114 -80 119 -92 131 -102 C 142 -111 159 -116 182 -116 L 169 -212 Z" unicode="Į" />
<glyph horiz-adv-x="244" d="M 141 574 L 157 687 L 274 687 L 257 574 L 141 574 Z M 70 0 C 70 22 70 44 72 66 C 74 88 76 110 79 132 L 127 468 L 242 468 L 195 132 C 192 112 190 90 188 66 C 186 42 185 20 185 0 L 70 0 Z" unicode="į" />
<glyph horiz-adv-x="272" d="M 77 0 L 169 658 L 288 658 L 196 0 L 77 0 Z M 186 710 L 200 814 L 304 814 L 290 710 L 186 710 Z" unicode="İ" />
<glyph horiz-adv-x="243" d="M 70 0 C 70 21 70 43 72 65 C 74 87 76 109 79 132 L 126 468 L 241 468 L 194 132 C 191 111 189 89 187 66 C 185 42 184 20 185 0 L 70 0 Z" unicode="ı" />
<glyph horiz-adv-x="282" d="M 77 0 L 169 658 L 288 658 L 196 0 L 77 0 Z M -31 -212 L -39 -212 L -24 -103 L -16 -103 C 11 -103 33 -96 51 -83 C 68 -70 79 -47 84 -13 L 179 658 L 297 658 L 204 -12 C 194 -83 167 -134 124 -165 C 81 -196 29 -212 -31 -212 Z" unicode="Ĳ" />
<glyph horiz-adv-x="230" d="M 141 574 L 157 687 L 274 687 L 257 574 L 141 574 Z M 70 0 C 70 22 70 44 72 66 C 74 88 76 110 79 132 L 127 468 L 242 468 L 195 132 C 192 112 190 90 188 66 C 186 42 185 20 185 0 L 70 0 Z M 134 578 L 150 691 L 267 691 L 251 578 L 134 578 Z M -54 -212 L -62 -212 L -48 -107 L -40 -107 C -14 -107 6 -99 22 -85 C 38 -70 48 -49 52 -21 L 121 468 L 235 468 L 167 -21 C 158 -84 135 -132 97 -164 C 59 -196 9 -212 -54 -212 Z" unicode="ĳ" />
<glyph horiz-adv-x="282" d="M 117 710 L 223 841 L 311 841 L 380 710 L 294 710 L 258 774 L 205 710 L 117 710 Z M -31 -212 L -39 -212 L -24 -103 L -16 -103 C 11 -103 33 -96 51 -83 C 68 -70 79 -47 84 -13 L 179 658 L 297 658 L 204 -12 C 194 -83 167 -134 124 -165 C 81 -196 29 -212 -31 -212 Z" unicode="Ĵ" />
<glyph horiz-adv-x="229" d="M -54 -212 L -62 -212 L -48 -107 L -40 -107 C -14 -107 6 -99 22 -85 C 38 -70 48 -49 52 -21 L 121 468 L 235 468 L 167 -21 C 158 -83 135 -130 97 -163 C 59 -195 9 -212 -54 -212 Z M 42 524 L 157 668 L 254 668 L 329 524 L 234 524 L 195 593 L 138 524 L 42 524 Z" unicode="ĵ" />
<glyph horiz-adv-x="629" d="M 301 -240 L 228 -211 C 242 -190 252 -171 259 -153 C 266 -135 271 -114 274 -91 L 281 -48 L 373 -48 L 366 -91 C 361 -123 354 -151 344 -173 C 334 -195 320 -217 301 -240 Z M 77 0 L 169 658 L 288 658 L 246 361 L 546 658 L 692 658 L 364 335 L 613 0 L 466 0 L 239 314 L 195 0 L 77 0 Z" unicode="Ķ" />
<glyph horiz-adv-x="498" d="M 60 0 L 161 718 L 277 718 L 213 269 C 256 299 296 332 332 367 C 368 401 398 435 420 468 L 545 468 C 512 418 477 374 441 337 C 405 299 368 268 332 243 L 488 0 L 355 0 L 209 238 L 175 0 L 60 0 Z M 215 -267 L 133 -235 C 149 -212 160 -191 168 -172 C 175 -152 181 -129 185 -103 L 191 -58 L 293 -58 L 286 -103 C 281 -139 273 -170 263 -194 C 252 -218 236 -242 215 -267 Z" unicode="ķ" />
<glyph horiz-adv-x="479" d="M 77 0 L 169 658 L 288 658 L 212 111 L 475 111 L 459 0 L 77 0 Z M 186 710 L 300 843 L 424 843 L 297 710 L 186 710 Z" unicode="Ĺ" />
<glyph horiz-adv-x="238" d="M 159 773 L 283 918 L 417 918 L 278 773 L 159 773 Z M 72 0 C 71 22 71 44 73 68 C 75 91 77 113 80 135 L 162 718 L 278 718 L 195 134 C 192 112 190 89 188 67 C 186 45 186 22 188 0 L 72 0 Z" unicode="ĺ" />
<glyph horiz-adv-x="479" d="M 255 -240 L 182 -211 C 196 -190 206 -171 213 -153 C 220 -135 225 -114 228 -91 L 235 -48 L 327 -48 L 320 -91 C 315 -123 308 -151 298 -173 C 288 -195 274 -217 255 -240 Z M 77 0 L 169 658 L 288 658 L 212 111 L 475 111 L 459 0 L 77 0 Z" unicode="Ļ" />
<glyph horiz-adv-x="237" d="M 98 -251 L 16 -219 C 32 -196 43 -175 51 -156 C 58 -136 64 -113 68 -87 L 74 -42 L 176 -42 L 169 -87 C 164 -123 156 -154 146 -178 C 135 -202 119 -226 98 -251 Z M 71 0 C 70 22 70 44 72 68 C 74 91 76 113 79 135 L 161 718 L 277 718 L 194 134 C 191 112 189 89 187 67 C 185 45 185 22 187 0 L 71 0 Z" unicode="ļ" />
<glyph horiz-adv-x="479" d="M 417 466 L 343 496 C 357 516 368 535 375 553 C 382 571 387 592 390 616 L 396 658 L 488 658 L 483 616 C 478 582 471 555 461 533 C 451 511 437 488 417 466 Z M 77 0 L 169 658 L 288 658 L 212 111 L 475 111 L 459 0 L 77 0 Z" unicode="Ľ" />
<glyph horiz-adv-x="371" d="M 379 508 L 298 540 C 313 562 324 583 332 603 C 340 622 345 645 349 672 L 356 717 L 457 717 L 451 672 C 445 635 437 605 427 581 C 416 557 400 532 379 508 Z M 72 0 C 71 22 71 44 73 68 C 75 91 77 113 80 135 L 162 718 L 278 718 L 195 134 C 192 112 190 89 188 67 C 186 45 186 22 188 0 L 72 0 Z" unicode="ľ" />
<glyph horiz-adv-x="489" d="M 368 308 L 384 421 L 498 421 L 482 308 L 368 308 Z M 77 0 L 169 658 L 288 658 L 212 111 L 475 111 L 459 0 L 77 0 Z" unicode="Ŀ" />
<glyph horiz-adv-x="340" d="M 273 303 L 289 416 L 403 416 L 387 303 L 273 303 Z M 72 0 C 71 22 71 44 73 68 C 75 91 77 113 80 135 L 162 718 L 278 718 L 195 134 C 192 112 190 89 188 67 C 186 45 186 22 188 0 L 72 0 Z" unicode="ŀ" />
<glyph horiz-adv-x="474" d="M 47 276 L 61 381 L 329 452 L 315 347 L 47 276 Z M 75 0 L 167 658 L 286 658 L 210 111 L 473 111 L 457 0 L 75 0 Z" unicode="Ł" />
<glyph horiz-adv-x="270" d="M 63 286 L 77 388 L 314 449 L 300 347 L 63 286 Z M 91 0 C 90 22 90 44 92 68 C 94 91 96 113 99 135 L 181 718 L 297 718 L 214 134 C 211 112 209 89 207 67 C 205 45 205 22 207 0 L 91 0 Z" unicode="ł" />
<glyph horiz-adv-x="731" d="M 77 0 L 169 658 L 290 658 L 528 249 L 567 174 L 576 249 L 633 658 L 746 658 L 654 0 L 535 0 L 294 414 L 256 485 L 248 414 L 189 0 L 77 0 Z M 405 710 L 519 843 L 643 843 L 516 710 L 405 710 Z" unicode="Ń" />
<glyph horiz-adv-x="533" d="M 273 524 L 397 669 L 531 669 L 392 524 L 273 524 Z M 67 0 L 115 344 C 118 366 120 388 122 409 C 124 429 125 449 125 468 L 239 468 C 239 458 238 446 238 434 C 238 422 237 411 237 403 L 235 377 C 253 411 275 437 301 453 C 327 469 355 478 384 478 C 430 478 465 462 490 431 C 515 399 523 358 514 308 L 483 134 C 479 112 476 90 475 68 C 474 45 474 22 474 0 L 358 0 C 358 22 358 45 359 68 C 360 91 363 113 367 134 L 395 273 C 401 304 398 329 385 347 C 372 365 354 374 331 374 C 303 374 278 356 255 322 C 231 288 214 230 203 149 L 182 0 L 67 0 Z" unicode="ń" />
<glyph horiz-adv-x="731" d="M 355 -243 L 282 -214 C 296 -193 306 -174 313 -156 C 320 -138 325 -117 328 -94 L 335 -51 L 427 -51 L 420 -94 C 415 -126 408 -154 398 -176 C 388 -198 374 -220 355 -243 Z M 77 0 L 169 658 L 290 658 L 528 249 L 567 174 L 576 249 L 633 658 L 746 658 L 654 0 L 535 0 L 294 414 L 256 485 L 248 414 L 189 0 L 77 0 Z" unicode="Ņ" />
<glyph horiz-adv-x="533" d="M 241 -254 L 159 -222 C 175 -199 186 -178 194 -159 C 201 -139 207 -116 211 -90 L 217 -45 L 319 -45 L 312 -90 C 307 -126 299 -157 289 -181 C 278 -205 262 -229 241 -254 Z M 67 0 L 115 344 C 118 366 120 388 122 409 C 124 429 125 449 125 468 L 239 468 C 239 458 238 446 238 434 C 238 422 237 411 237 403 L 235 377 C 253 411 275 437 301 453 C 327 469 355 478 384 478 C 430 478 465 462 490 431 C 515 399 523 358 514 308 L 483 134 C 479 112 476 90 475 68 C 474 45 474 22 474 0 L 358 0 C 358 22 358 45 359 68 C 360 91 363 113 367 134 L 395 273 C 401 304 398 329 385 347 C 372 365 354 374 331 374 C 303 374 278 356 255 322 C 231 288 214 230 203 149 L 182 0 L 67 0 Z" unicode="ņ" />
<glyph horiz-adv-x="731" d="M 419 708 L 350 839 L 436 839 L 471 775 L 525 839 L 613 839 L 507 708 L 419 708 Z M 77 0 L 169 658 L 290 658 L 528 249 L 567 174 L 576 249 L 633 658 L 746 658 L 654 0 L 535 0 L 294 414 L 256 485 L 248 414 L 189 0 L 77 0 Z" unicode="Ň" />
<glyph horiz-adv-x="533" d="M 289 524 L 213 668 L 308 668 L 346 598 L 404 668 L 501 668 L 385 524 L 289 524 Z M 67 0 L 115 344 C 118 366 120 388 122 409 C 124 429 125 449 125 468 L 239 468 C 239 458 238 446 238 434 C 238 422 237 411 237 403 L 235 377 C 253 411 275 437 301 453 C 327 469 355 478 384 478 C 430 478 465 462 490 431 C 515 399 523 358 514 308 L 483 134 C 479 112 476 90 475 68 C 474 45 474 22 474 0 L 358 0 C 358 22 358 45 359 68 C 360 91 363 113 367 134 L 395 273 C 401 304 398 329 385 347 C 372 365 354 374 331 374 C 303 374 278 356 255 322 C 231 288 214 230 203 149 L 182 0 L 67 0 Z" unicode="ň" />
<glyph horiz-adv-x="734" d="M 543 0 L 294 414 L 256 485 L 248 414 L 189 0 L 77 0 L 169 658 L 289 658 L 532 249 L 568 180 L 576 249 L 633 658 L 746 658 L 652 -32 C 644 -91 620 -136 580 -166 C 540 -196 488 -212 422 -212 L 414 -212 L 429 -108 L 437 -108 C 464 -108 487 -101 505 -87 C 523 -73 534 -54 538 -32 L 543 0 Z" unicode="Ŋ" />
<glyph horiz-adv-x="533" d="M 248 -212 L 240 -212 L 254 -107 L 262 -107 C 286 -107 307 -99 324 -84 C 341 -68 351 -47 355 -21 L 397 274 C 401 304 396 328 384 345 C 372 362 354 371 332 371 C 308 371 284 357 260 330 C 235 302 216 242 203 149 L 182 0 L 67 0 L 115 344 C 118 366 120 388 122 409 C 124 429 125 449 125 468 L 239 468 C 239 458 238 448 238 436 C 238 424 237 413 237 403 L 235 377 C 253 411 275 437 302 453 C 329 469 357 478 386 478 C 431 478 466 462 490 432 C 514 401 523 360 517 310 L 470 -24 C 461 -84 438 -131 400 -163 C 362 -195 311 -212 248 -212 Z" unicode="ŋ" />
<glyph horiz-adv-x="766" d="M 401 -16 C 310 -16 235 11 176 67 C 117 122 88 195 88 287 C 88 397 122 489 190 563 C 258 637 347 674 455 674 C 546 674 621 646 681 590 C 740 534 770 461 770 369 C 770 258 735 166 666 93 C 597 20 509 -16 401 -16 Z M 404 95 C 476 95 534 120 580 170 C 625 220 648 285 648 364 C 648 420 630 467 595 505 C 560 543 513 563 453 563 C 381 563 322 538 277 488 C 232 438 210 373 210 294 C 210 238 227 190 262 152 C 296 114 344 95 404 95 Z M 352 716 L 364 798 L 593 798 L 581 716 L 352 716 Z" unicode="Ō" />
<glyph horiz-adv-x="550" d="M 207 532 L 220 623 L 470 623 L 457 532 L 207 532 Z M 290 -12 C 223 -12 170 7 131 45 C 91 83 72 135 72 201 C 72 280 96 346 145 400 C 193 453 254 480 327 480 C 393 480 445 460 484 422 C 523 384 543 332 543 267 C 543 187 518 121 470 68 C 422 14 362 -12 290 -12 Z M 295 91 C 333 91 364 107 390 140 C 416 172 429 213 429 261 C 429 295 418 323 398 345 C 378 367 352 378 321 378 C 282 378 250 361 224 329 C 198 296 186 256 186 208 C 186 174 196 146 216 124 C 236 102 263 91 295 91 Z" unicode="ō" />
<glyph horiz-adv-x="766" d="M 466 707 C 427 707 398 719 379 743 C 359 767 352 798 357 837 L 425 837 C 423 819 426 804 434 794 C 442 784 454 779 471 779 C 485 779 498 784 508 794 C 518 804 524 819 526 837 L 595 837 C 589 797 575 765 552 742 C 528 718 500 707 466 707 Z M 401 -16 C 310 -16 235 11 176 67 C 117 122 88 195 88 287 C 88 397 122 489 190 563 C 258 637 347 674 455 674 C 546 674 621 646 681 590 C 740 534 770 461 770 369 C 770 258 735 166 666 93 C 597 20 509 -16 401 -16 Z M 404 95 C 476 95 534 120 580 170 C 625 220 648 285 648 364 C 648 420 630 467 595 505 C 560 543 513 563 453 563 C 381 563 322 538 277 488 C 232 438 210 373 210 294 C 210 238 227 190 262 152 C 296 114 344 95 404 95 Z" unicode="Ŏ" />
<glyph horiz-adv-x="550" d="M 334 516 C 291 516 259 529 238 555 C 216 581 208 615 214 658 L 289 658 C 287 638 291 623 299 612 C 307 601 320 596 338 596 C 354 596 367 601 378 612 C 389 623 396 638 398 658 L 473 658 C 467 614 452 579 426 554 C 400 528 370 516 334 516 Z M 290 -12 C 223 -12 170 7 131 45 C 91 83 72 135 72 201 C 72 280 96 346 145 400 C 193 453 254 480 327 480 C 393 480 445 460 484 422 C 523 384 543 332 543 267 C 543 187 518 121 470 68 C 422 14 362 -12 290 -12 Z M 295 91 C 333 91 364 107 390 140 C 416 172 429 213 429 261 C 429 295 418 323 398 345 C 378 367 352 378 321 378 C 282 378 250 361 224 329 C 198 296 186 256 186 208 C 186 174 196 146 216 124 C 236 102 263 91 295 91 Z" unicode="ŏ" />
<glyph horiz-adv-x="766" d="M 343 716 L 443 852 L 540 852 L 431 716 L 343 716 Z M 492 716 L 601 852 L 697 852 L 581 716 L 492 716 Z M 401 -16 C 310 -16 235 11 176 67 C 117 122 88 195 88 287 C 88 397 122 489 190 563 C 258 637 347 674 455 674 C 546 674 621 646 681 590 C 740 534 770 461 770 369 C 770 258 735 166 666 93 C 597 20 509 -16 401 -16 Z M 404 95 C 476 95 534 120 580 170 C 625 220 648 285 648 364 C 648 420 630 467 595 505 C 560 543 513 563 453 563 C 381 563 322 538 277 488 C 232 438 210 373 210 294 C 210 238 227 190 262 152 C 296 114 344 95 404 95 Z" unicode="Ő" />
<glyph horiz-adv-x="550" d="M 197 522 L 306 671 L 413 671 L 295 522 L 197 522 Z M 360 522 L 478 671 L 585 671 L 458 522 L 360 522 Z M 290 -12 C 223 -12 170 7 131 45 C 91 83 72 135 72 201 C 72 280 96 346 145 400 C 193 453 254 480 327 480 C 393 480 445 460 484 422 C 523 384 543 332 543 267 C 543 187 518 121 470 68 C 422 14 362 -12 290 -12 Z M 295 91 C 333 91 364 107 390 140 C 416 172 429 213 429 261 C 429 295 418 323 398 345 C 378 367 352 378 321 378 C 282 378 250 361 224 329 C 198 296 186 256 186 208 C 186 174 196 146 216 124 C 236 102 263 91 295 91 Z" unicode="ő" />
<glyph horiz-adv-x="902" d="M 407 0 C 304 0 225 28 171 85 C 116 142 89 213 89 297 C 89 406 125 493 199 559 C 272 625 373 658 502 658 L 924 658 L 908 547 L 644 547 L 622 389 L 877 389 L 861 278 L 606 278 L 583 111 L 859 111 L 843 0 L 407 0 Z M 411 111 L 465 111 L 526 547 L 471 547 C 391 547 327 524 280 480 C 233 436 210 377 210 304 C 210 246 228 200 264 164 C 300 128 349 111 411 111 Z" unicode="Œ" />
<glyph horiz-adv-x="868" d="M 668 -10 C 597 -10 542 9 504 49 C 466 88 447 139 447 201 C 447 280 471 346 521 399 C 570 451 631 478 705 478 C 753 478 792 465 823 439 C 853 413 869 381 869 342 C 869 292 849 254 810 229 C 770 204 707 189 619 185 L 563 182 C 565 152 577 129 598 113 C 619 97 647 89 682 89 C 710 89 738 93 765 102 C 792 110 818 123 844 140 L 827 29 C 802 16 776 6 750 0 C 724 -6 696 -10 668 -10 Z M 692 382 C 661 382 634 370 612 348 C 589 325 575 297 570 263 L 629 267 C 671 269 702 276 722 288 C 742 300 752 316 752 338 C 752 351 746 362 736 370 C 725 378 710 382 692 382 Z M 290 -12 C 223 -12 170 7 131 45 C 91 83 72 135 72 201 C 72 280 96 346 145 400 C 193 453 254 480 327 480 C 393 480 445 460 484 422 C 523 384 543 332 543 267 C 543 187 518 121 470 68 C 422 14 362 -12 290 -12 Z M 295 91 C 333 91 364 107 390 140 C 416 172 429 213 429 261 C 429 295 418 323 398 345 C 378 367 352 378 321 378 C 282 378 250 361 224 329 C 198 296 186 256 186 208 C 186 174 196 146 216 124 C 236 102 263 91 295 91 Z" unicode="œ" />
<glyph horiz-adv-x="565" d="M 77 0 L 170 658 L 358 658 C 420 658 467 644 501 616 C 535 588 552 551 552 503 C 552 453 538 412 510 378 C 482 344 445 322 398 312 C 422 305 442 294 457 278 C 471 262 482 241 488 217 L 541 0 L 419 0 L 373 193 C 367 217 357 236 343 249 C 328 261 310 268 288 268 L 233 268 L 196 0 L 77 0 Z M 248 368 L 317 368 C 347 368 373 378 393 398 C 413 418 423 444 423 474 C 423 497 415 516 401 530 C 386 544 366 552 342 552 L 273 552 L 248 368 Z M 297 710 L 411 843 L 535 843 L 408 710 L 297 710 Z" unicode="Ŕ" />
<glyph horiz-adv-x="353" d="M 207 524 L 331 669 L 465 669 L 326 524 L 207 524 Z M 67 0 L 115 344 C 118 366 120 388 122 409 C 124 429 125 449 125 468 L 239 468 C 239 458 239 448 239 436 C 239 424 238 413 238 402 L 236 377 C 250 411 267 436 287 453 C 307 469 330 478 355 478 C 363 478 372 477 382 475 C 392 473 402 471 411 468 L 393 341 C 383 346 373 350 361 353 C 349 356 339 358 329 358 C 302 358 277 344 255 318 C 233 292 215 235 203 149 L 182 0 L 67 0 Z" unicode="ŕ" />
<glyph horiz-adv-x="565" d="M 282 -240 L 209 -211 C 223 -190 233 -171 240 -153 C 247 -135 252 -114 255 -91 L 262 -48 L 354 -48 L 347 -91 C 342 -123 335 -151 325 -173 C 315 -195 301 -217 282 -240 Z M 77 0 L 170 658 L 358 658 C 420 658 467 644 501 616 C 535 588 552 551 552 503 C 552 453 538 412 510 378 C 482 344 445 322 398 312 C 422 305 442 294 457 278 C 471 262 482 241 488 217 L 541 0 L 419 0 L 373 193 C 367 217 357 236 343 249 C 328 261 310 268 288 268 L 233 268 L 196 0 L 77 0 Z M 248 368 L 317 368 C 347 368 373 378 393 398 C 413 418 423 444 423 474 C 423 497 415 516 401 530 C 386 544 366 552 342 552 L 273 552 L 248 368 Z" unicode="Ŗ" />
<glyph horiz-adv-x="353" d="M 67 0 L 115 344 C 118 366 120 388 122 409 C 124 429 125 449 125 468 L 239 468 C 239 458 239 448 239 436 C 239 424 238 413 238 402 L 236 377 C 250 411 267 436 287 453 C 307 469 330 478 355 478 C 363 478 372 477 382 475 C 392 473 402 471 411 468 L 393 341 C 383 346 373 350 361 353 C 349 356 339 358 329 358 C 302 358 277 344 255 318 C 233 292 215 235 203 149 L 182 0 L 67 0 Z M 146 -267 L 64 -235 C 80 -212 91 -191 99 -172 C 106 -152 112 -129 116 -103 L 122 -58 L 224 -58 L 217 -103 C 212 -139 204 -170 194 -194 C 183 -218 167 -242 146 -267 Z" unicode="ŗ" />
<glyph horiz-adv-x="565" d="M 77 0 L 170 658 L 358 658 C 420 658 467 644 501 616 C 535 588 552 551 552 503 C 552 453 538 412 510 378 C 482 344 445 322 398 312 C 422 305 442 294 457 278 C 471 262 482 241 488 217 L 541 0 L 419 0 L 373 193 C 367 217 357 236 343 249 C 328 261 310 268 288 268 L 233 268 L 196 0 L 77 0 Z M 248 368 L 317 368 C 347 368 373 378 393 398 C 413 418 423 444 423 474 C 423 497 415 516 401 530 C 386 544 366 552 342 552 L 273 552 L 248 368 Z M 311 708 L 242 839 L 328 839 L 363 775 L 417 839 L 505 839 L 399 708 L 311 708 Z" unicode="Ř" />
<glyph horiz-adv-x="353" d="M 223 524 L 147 668 L 242 668 L 280 598 L 338 668 L 435 668 L 319 524 L 223 524 Z M 67 0 L 115 344 C 118 366 120 388 122 409 C 124 429 125 449 125 468 L 239 468 C 239 458 239 448 239 436 C 239 424 238 413 238 402 L 236 377 C 250 411 267 436 287 453 C 307 469 330 478 355 478 C 363 478 372 477 382 475 C 392 473 402 471 411 468 L 393 341 C 383 346 373 350 361 353 C 349 356 339 358 329 358 C 302 358 277 344 255 318 C 233 292 215 235 203 149 L 182 0 L 67 0 Z" unicode="ř" />
<glyph horiz-adv-x="524" d="M 251 -15 C 217 -15 184 -11 153 -4 C 122 3 93 14 67 30 L 84 153 C 108 134 135 120 165 110 C 194 100 225 95 258 95 C 292 95 319 103 340 119 C 361 135 372 157 372 186 C 372 206 364 224 350 240 C 335 256 311 270 278 283 L 265 288 C 217 306 181 330 157 360 C 133 389 122 423 122 463 C 122 522 143 572 186 612 C 228 652 283 672 350 672 C 381 672 412 668 442 662 C 472 655 500 644 528 630 L 511 506 C 485 525 458 539 431 549 C 404 558 376 563 348 563 C 316 563 292 555 274 540 C 256 524 247 504 247 479 C 247 460 254 443 270 429 C 286 414 311 400 345 386 L 358 381 C 404 362 439 338 462 309 C 485 279 497 245 497 205 C 497 141 473 89 426 47 C 379 5 321 -15 251 -15 Z M 300 716 L 414 849 L 538 849 L 411 716 L 300 716 Z" unicode="Ś" />
<glyph horiz-adv-x="414" d="M 197 -10 C 174 -10 149 -7 123 -1 C 97 4 73 11 51 20 L 66 121 C 84 109 106 99 131 92 C 156 85 180 82 203 83 C 224 83 242 87 256 95 C 270 103 277 115 277 132 C 277 144 271 155 261 163 C 250 171 233 178 211 186 L 198 191 C 161 202 133 219 115 242 C 97 265 88 294 88 330 C 88 374 104 409 138 437 C 171 464 216 478 272 478 C 292 478 315 475 342 471 C 369 467 393 460 414 452 L 400 353 C 382 363 361 371 337 377 C 313 383 290 386 270 386 C 250 386 234 382 222 374 C 210 366 204 355 204 341 C 204 329 208 318 217 310 C 226 302 241 294 262 287 L 276 283 C 315 269 344 252 364 230 C 383 208 393 181 393 149 C 393 101 375 63 340 34 C 305 4 257 -10 197 -10 Z M 215 524 L 339 669 L 473 669 L 334 524 L 215 524 Z" unicode="ś" />
<glyph horiz-adv-x="524" d="M 251 -15 C 217 -15 184 -11 153 -4 C 122 3 93 14 67 30 L 84 153 C 108 134 135 120 165 110 C 194 100 225 95 258 95 C 292 95 319 103 340 119 C 361 135 372 157 372 186 C 372 206 364 224 350 240 C 335 256 311 270 278 283 L 265 288 C 217 306 181 330 157 360 C 133 389 122 423 122 463 C 122 522 143 572 186 612 C 228 652 283 672 350 672 C 381 672 412 668 442 662 C 472 655 500 644 528 630 L 511 506 C 485 525 458 539 431 549 C 404 558 376 563 348 563 C 316 563 292 555 274 540 C 256 524 247 504 247 479 C 247 460 254 443 270 429 C 286 414 311 400 345 386 L 358 381 C 404 362 439 338 462 309 C 485 279 497 245 497 205 C 497 141 473 89 426 47 C 379 5 321 -15 251 -15 Z M 226 716 L 332 847 L 420 847 L 489 716 L 403 716 L 367 780 L 314 716 L 226 716 Z" unicode="Ŝ" />
<glyph horiz-adv-x="414" d="M 135 524 L 250 668 L 347 668 L 422 524 L 327 524 L 288 593 L 231 524 L 135 524 Z M 197 -10 C 174 -10 149 -7 123 -1 C 97 4 73 11 51 20 L 66 121 C 84 109 106 99 131 92 C 156 85 180 82 203 83 C 224 83 242 87 256 95 C 270 103 277 115 277 132 C 277 144 271 155 261 163 C 250 171 233 178 211 186 L 198 191 C 161 202 133 219 115 242 C 97 265 88 294 88 330 C 88 374 104 409 138 437 C 171 464 216 478 272 478 C 292 478 315 475 342 471 C 369 467 393 460 414 452 L 400 353 C 382 363 361 371 337 377 C 313 383 290 386 270 386 C 250 386 234 382 222 374 C 210 366 204 355 204 341 C 204 329 208 318 217 310 C 226 302 241 294 262 287 L 276 283 C 315 269 344 252 364 230 C 383 208 393 181 393 149 C 393 101 375 63 340 34 C 305 4 257 -10 197 -10 Z" unicode="ŝ" />
<glyph horiz-adv-x="524" d="M 251 -15 C 217 -15 184 -11 153 -4 C 122 3 93 14 67 30 L 84 153 C 108 134 135 120 165 110 C 194 100 225 95 258 95 C 292 95 319 103 340 119 C 361 135 372 157 372 186 C 372 206 364 224 350 240 C 335 256 311 270 278 283 L 265 288 C 217 306 181 330 157 360 C 133 389 122 423 122 463 C 122 522 143 572 186 612 C 228 652 283 672 350 672 C 381 672 412 668 442 662 C 472 655 500 644 528 630 L 511 506 C 485 525 458 539 431 549 C 404 558 376 563 348 563 C 316 563 292 555 274 540 C 256 524 247 504 247 479 C 247 460 254 443 270 429 C 286 414 311 400 345 386 L 358 381 C 404 362 439 338 462 309 C 485 279 497 245 497 205 C 497 141 473 89 426 47 C 379 5 321 -15 251 -15 Z M 259 -220 C 247 -220 236 -219 225 -217 C 213 -215 203 -211 194 -207 L 202 -147 C 210 -151 218 -155 226 -158 C 234 -160 243 -162 252 -162 C 262 -162 271 -159 278 -153 C 284 -147 288 -140 288 -131 C 288 -123 285 -116 279 -111 C 273 -106 265 -104 256 -104 L 246 -104 L 254 -48 L 264 -48 C 292 -48 314 -55 331 -69 C 347 -83 356 -103 356 -127 C 356 -153 346 -175 327 -193 C 308 -211 285 -220 259 -220 Z" unicode="Ş" />
<glyph horiz-adv-x="414" d="M 197 -10 C 174 -10 149 -7 123 -1 C 97 4 73 11 51 20 L 66 121 C 84 109 106 99 131 92 C 156 85 180 82 203 83 C 224 83 242 87 256 95 C 270 103 277 115 277 132 C 277 144 271 155 261 163 C 250 171 233 178 211 186 L 198 191 C 161 202 133 219 115 242 C 97 265 88 294 88 330 C 88 374 104 409 138 437 C 171 464 216 478 272 478 C 292 478 315 475 342 471 C 369 467 393 460 414 452 L 400 353 C 382 363 361 371 337 377 C 313 383 290 386 270 386 C 250 386 234 382 222 374 C 210 366 204 355 204 341 C 204 329 208 318 217 310 C 226 302 241 294 262 287 L 276 283 C 315 269 344 252 364 230 C 383 208 393 181 393 149 C 393 101 375 63 340 34 C 305 4 257 -10 197 -10 Z M 191 -246 C 178 -246 166 -244 154 -242 C 142 -240 130 -236 120 -232 L 128 -166 C 136 -171 145 -175 155 -178 C 164 -180 174 -182 184 -182 C 194 -182 203 -179 210 -173 C 217 -167 221 -159 221 -149 C 221 -140 218 -133 212 -128 C 206 -122 198 -120 188 -120 L 182 -120 L 190 -58 L 196 -58 C 226 -58 251 -65 269 -81 C 287 -97 297 -118 297 -145 C 297 -174 286 -198 266 -217 C 245 -236 220 -246 191 -246 Z" unicode="ş" />
<glyph horiz-adv-x="524" d="M 251 -15 C 217 -15 184 -11 153 -4 C 122 3 93 14 67 30 L 84 153 C 108 134 135 120 165 110 C 194 100 225 95 258 95 C 292 95 319 103 340 119 C 361 135 372 157 372 186 C 372 206 364 224 350 240 C 335 256 311 270 278 283 L 265 288 C 217 306 181 330 157 360 C 133 389 122 423 122 463 C 122 522 143 572 186 612 C 228 652 283 672 350 672 C 381 672 412 668 442 662 C 472 655 500 644 528 630 L 511 506 C 485 525 458 539 431 549 C 404 558 376 563 348 563 C 316 563 292 555 274 540 C 256 524 247 504 247 479 C 247 460 254 443 270 429 C 286 414 311 400 345 386 L 358 381 C 404 362 439 338 462 309 C 485 279 497 245 497 205 C 497 141 473 89 426 47 C 379 5 321 -15 251 -15 Z M 314 714 L 245 845 L 331 845 L 366 781 L 420 845 L 508 845 L 402 714 L 314 714 Z" unicode="Š" />
<glyph horiz-adv-x="414" d="M 231 524 L 155 668 L 250 668 L 288 598 L 346 668 L 443 668 L 327 524 L 231 524 Z M 197 -10 C 174 -10 149 -7 123 -1 C 97 4 73 11 51 20 L 66 121 C 84 109 106 99 131 92 C 156 85 180 82 203 83 C 224 83 242 87 256 95 C 270 103 277 115 277 132 C 277 144 271 155 261 163 C 250 171 233 178 211 186 L 198 191 C 161 202 133 219 115 242 C 97 265 88 294 88 330 C 88 374 104 409 138 437 C 171 464 216 478 272 478 C 292 478 315 475 342 471 C 369 467 393 460 414 452 L 400 353 C 382 363 361 371 337 377 C 313 383 290 386 270 386 C 250 386 234 382 222 374 C 210 366 204 355 204 341 C 204 329 208 318 217 310 C 226 302 241 294 262 287 L 276 283 C 315 269 344 252 364 230 C 383 208 393 181 393 149 C 393 101 375 63 340 34 C 305 4 257 -10 197 -10 Z" unicode="š" />
<glyph horiz-adv-x="559" d="M 220 0 L 297 547 L 97 547 L 113 658 L 631 658 L 615 547 L 415 547 L 338 0 L 220 0 Z M 271 -214 C 259 -214 248 -213 237 -211 C 225 -209 215 -205 206 -201 L 214 -141 C 222 -145 230 -149 238 -152 C 246 -154 255 -156 264 -156 C 274 -156 283 -153 290 -147 C 296 -141 300 -134 300 -125 C 300 -117 297 -110 291 -105 C 285 -100 277 -98 268 -98 L 258 -98 L 266 -42 L 276 -42 C 304 -42 326 -49 343 -63 C 359 -77 368 -97 368 -121 C 368 -147 358 -169 339 -187 C 320 -205 297 -214 271 -214 Z" unicode="Ţ" />
<glyph horiz-adv-x="326" d="M 205 -10 C 165 -10 136 2 117 27 C 97 52 91 87 98 131 L 131 365 L 67 365 L 82 468 L 145 468 L 163 599 L 279 599 L 260 468 L 354 468 L 339 365 L 246 365 L 215 146 C 212 128 214 115 220 107 C 226 99 235 95 249 95 C 258 95 267 96 276 98 C 285 100 294 103 303 108 L 288 6 C 275 1 261 -2 247 -5 C 233 -8 219 -10 205 -10 Z M 188 -236 C 175 -236 163 -234 151 -232 C 139 -230 127 -226 117 -222 L 125 -156 C 133 -161 142 -165 152 -168 C 161 -170 171 -172 181 -172 C 191 -172 200 -169 207 -163 C 214 -157 218 -149 218 -139 C 218 -130 215 -123 209 -118 C 203 -112 195 -110 185 -110 L 179 -110 L 187 -48 L 193 -48 C 223 -48 248 -55 266 -71 C 284 -87 294 -108 294 -135 C 294 -164 283 -188 263 -207 C 242 -226 217 -236 188 -236 Z" unicode="ţ" />
<glyph horiz-adv-x="559" d="M 220 0 L 297 547 L 97 547 L 113 658 L 631 658 L 615 547 L 415 547 L 338 0 L 220 0 Z M 332 708 L 263 839 L 349 839 L 384 775 L 438 839 L 526 839 L 420 708 L 332 708 Z" unicode="Ť" />
<glyph horiz-adv-x="404" d="M 410 509 L 329 541 C 344 563 355 584 363 604 C 371 623 376 646 380 673 L 387 718 L 488 718 L 482 673 C 476 636 468 606 458 582 C 447 558 431 533 410 509 Z M 205 -10 C 165 -10 136 2 117 27 C 97 52 91 87 98 131 L 131 365 L 67 365 L 82 468 L 145 468 L 163 599 L 279 599 L 260 468 L 354 468 L 339 365 L 246 365 L 215 146 C 212 128 214 115 220 107 C 226 99 235 95 249 95 C 258 95 267 96 276 98 C 285 100 294 103 303 108 L 288 6 C 275 1 261 -2 247 -5 C 233 -8 219 -10 205 -10 Z" unicode="ť" />
<glyph horiz-adv-x="559" d="M 155 282 L 170 384 L 505 384 L 491 282 L 155 282 Z M 220 0 L 297 547 L 97 547 L 113 658 L 631 658 L 615 547 L 415 547 L 338 0 L 220 0 Z" unicode="Ŧ" />
<glyph horiz-adv-x="326" d="M 64 206 L 78 300 L 298 300 L 284 206 L 64 206 Z M 205 -10 C 165 -10 136 2 117 27 C 97 52 91 87 98 131 L 131 365 L 67 365 L 82 468 L 145 468 L 163 599 L 279 599 L 260 468 L 354 468 L 339 365 L 246 365 L 215 146 C 212 128 214 115 220 107 C 226 99 235 95 249 95 C 258 95 267 96 276 98 C 285 100 294 103 303 108 L 288 6 C 275 1 261 -2 247 -5 C 233 -8 219 -10 205 -10 Z" unicode="ŧ" />
<glyph horiz-adv-x="690" d="M 363 710 L 300 710 C 306 748 317 776 334 795 C 350 813 372 823 400 823 C 411 823 422 821 432 818 C 442 814 453 808 464 800 C 472 794 480 789 486 786 C 492 782 497 781 503 781 C 511 781 519 784 526 791 C 532 797 537 807 539 819 L 602 819 C 595 781 583 752 567 733 C 551 714 529 705 503 705 C 489 705 478 706 468 710 C 458 714 448 719 439 727 C 430 733 423 738 417 742 C 411 745 405 747 399 747 C 390 747 382 743 376 737 C 370 730 365 721 363 710 Z M 351 -12 C 264 -12 198 12 154 61 C 110 109 94 175 106 258 L 162 658 L 280 658 L 224 255 C 217 207 225 169 249 141 C 272 113 308 99 357 99 C 407 99 449 113 483 141 C 517 169 538 206 545 254 L 602 658 L 713 658 L 656 251 C 643 165 609 100 555 55 C 500 10 432 -12 351 -12 Z" unicode="Ũ" />
<glyph horiz-adv-x="534" d="M 214 -10 C 168 -10 132 5 107 36 C 81 66 73 108 82 160 L 111 345 C 115 369 118 391 120 411 C 122 431 123 450 123 468 L 239 468 C 239 447 238 426 236 405 C 234 383 231 362 227 340 L 202 196 C 196 162 198 137 210 120 C 221 102 240 94 266 94 C 295 94 321 110 343 142 C 365 174 383 234 396 320 L 417 468 L 532 468 L 485 130 C 482 108 480 86 478 64 C 476 42 476 20 476 0 L 361 0 C 361 10 361 21 361 31 C 361 41 362 52 363 62 L 364 92 C 346 56 323 30 297 14 C 271 -1 243 -10 214 -10 Z M 247 524 L 177 524 C 183 565 195 596 213 617 C 231 638 255 649 285 649 C 297 649 309 647 321 643 C 332 639 343 632 355 624 C 364 617 372 612 378 609 C 384 605 391 604 398 604 C 407 604 415 607 422 614 C 428 621 433 631 436 644 L 505 644 C 498 602 486 571 468 550 C 450 529 426 519 397 519 C 382 519 369 520 359 524 C 348 528 337 534 327 543 C 318 550 310 555 304 559 C 297 562 290 564 284 564 C 274 564 266 560 260 553 C 253 546 249 536 247 524 Z" unicode="ũ" />
<glyph horiz-adv-x="690" d="M 351 -12 C 264 -12 198 12 154 61 C 110 109 94 175 106 258 L 162 658 L 280 658 L 224 255 C 217 207 225 169 249 141 C 272 113 308 99 357 99 C 407 99 449 113 483 141 C 517 169 538 206 545 254 L 602 658 L 713 658 L 656 251 C 643 165 609 100 555 55 C 500 10 432 -12 351 -12 Z M 332 710 L 344 792 L 573 792 L 561 710 L 332 710 Z" unicode="Ū" />
<glyph horiz-adv-x="534" d="M 214 -10 C 168 -10 132 5 107 36 C 81 66 73 108 82 160 L 111 345 C 115 369 118 391 120 411 C 122 431 123 450 123 468 L 239 468 C 239 447 238 426 236 405 C 234 383 231 362 227 340 L 202 196 C 196 162 198 137 210 120 C 221 102 240 94 266 94 C 295 94 321 110 343 142 C 365 174 383 234 396 320 L 417 468 L 532 468 L 485 130 C 482 108 480 86 478 64 C 476 42 476 20 476 0 L 361 0 C 361 10 361 21 361 31 C 361 41 362 52 363 62 L 364 92 C 346 56 323 30 297 14 C 271 -1 243 -10 214 -10 Z M 208 532 L 221 623 L 471 623 L 458 532 L 208 532 Z" unicode="ū" />
<glyph horiz-adv-x="690" d="M 446 701 C 407 701 378 713 359 737 C 339 761 332 792 337 831 L 405 831 C 403 813 406 798 414 788 C 422 778 434 773 451 773 C 465 773 478 778 488 788 C 498 798 504 813 506 831 L 575 831 C 569 791 555 759 532 736 C 508 712 480 701 446 701 Z M 351 -12 C 264 -12 198 12 154 61 C 110 109 94 175 106 258 L 162 658 L 280 658 L 224 255 C 217 207 225 169 249 141 C 272 113 308 99 357 99 C 407 99 449 113 483 141 C 517 169 538 206 545 254 L 602 658 L 713 658 L 656 251 C 643 165 609 100 555 55 C 500 10 432 -12 351 -12 Z" unicode="Ŭ" />
<glyph horiz-adv-x="534" d="M 214 -10 C 168 -10 132 5 107 36 C 81 66 73 108 82 160 L 111 345 C 115 369 118 391 120 411 C 122 431 123 450 123 468 L 239 468 C 239 447 238 426 236 405 C 234 383 231 362 227 340 L 202 196 C 196 162 198 137 210 120 C 221 102 240 94 266 94 C 295 94 321 110 343 142 C 365 174 383 234 396 320 L 417 468 L 532 468 L 485 130 C 482 108 480 86 478 64 C 476 42 476 20 476 0 L 361 0 C 361 10 361 21 361 31 C 361 41 362 52 363 62 L 364 92 C 346 56 323 30 297 14 C 271 -1 243 -10 214 -10 Z M 334 516 C 291 516 259 529 238 555 C 216 581 208 615 214 658 L 289 658 C 287 638 291 623 299 612 C 307 601 320 596 338 596 C 354 596 367 601 378 612 C 389 623 396 638 398 658 L 473 658 C 467 614 452 579 426 554 C 400 528 370 516 334 516 Z" unicode="ŭ" />
<glyph horiz-adv-x="690" d="M 351 -12 C 264 -12 198 12 154 61 C 110 109 94 175 106 258 L 162 658 L 280 658 L 224 255 C 217 207 225 169 249 141 C 272 113 308 99 357 99 C 407 99 449 113 483 141 C 517 169 538 206 545 254 L 602 658 L 713 658 L 656 251 C 643 165 609 100 555 55 C 500 10 432 -12 351 -12 Z M 438 640 C 411 640 389 648 373 664 C 357 680 349 701 349 726 C 349 754 358 778 378 797 C 397 816 421 826 449 826 C 475 826 497 817 513 801 C 529 785 538 765 538 741 C 538 713 529 689 511 669 C 493 649 468 640 438 640 Z M 440 696 C 452 696 461 699 469 707 C 476 715 480 724 480 736 C 480 746 476 754 470 760 C 463 766 455 770 446 770 C 435 770 426 766 418 758 C 410 750 406 740 406 730 C 406 720 409 712 416 706 C 422 699 430 696 440 696 Z" unicode="Ů" />
<glyph horiz-adv-x="534" d="M 214 -10 C 168 -10 132 5 107 36 C 81 66 73 108 82 160 L 111 345 C 115 369 118 391 120 411 C 122 431 123 450 123 468 L 239 468 C 239 447 238 426 236 405 C 234 383 231 362 227 340 L 202 196 C 196 162 198 137 210 120 C 221 102 240 94 266 94 C 295 94 321 110 343 142 C 365 174 383 234 396 320 L 417 468 L 532 468 L 485 130 C 482 108 480 86 478 64 C 476 42 476 20 476 0 L 361 0 C 361 10 361 21 361 31 C 361 41 362 52 363 62 L 364 92 C 346 56 323 30 297 14 C 271 -1 243 -10 214 -10 Z M 326 473 C 299 473 277 481 259 499 C 241 517 232 539 232 566 C 232 597 242 623 264 644 C 285 665 312 676 345 676 C 371 676 394 667 412 649 C 430 631 439 608 439 582 C 439 551 428 525 408 504 C 388 483 360 473 326 473 Z M 332 535 C 344 535 355 539 363 547 C 371 555 375 565 375 577 C 375 587 371 596 365 603 C 358 610 349 614 339 614 C 327 614 316 609 308 601 C 300 593 296 583 296 571 C 296 560 299 551 306 545 C 313 538 322 535 332 535 Z" unicode="ů" />
<glyph horiz-adv-x="690" d="M 323 710 L 423 846 L 520 846 L 411 710 L 323 710 Z M 472 710 L 581 846 L 677 846 L 561 710 L 472 710 Z M 351 -12 C 264 -12 198 12 154 61 C 110 109 94 175 106 258 L 162 658 L 280 658 L 224 255 C 217 207 225 169 249 141 C 272 113 308 99 357 99 C 407 99 449 113 483 141 C 517 169 538 206 545 254 L 602 658 L 713 658 L 656 251 C 643 165 609 100 555 55 C 500 10 432 -12 351 -12 Z" unicode="Ű" />
<glyph horiz-adv-x="534" d="M 198 522 L 307 671 L 414 671 L 296 522 L 198 522 Z M 361 522 L 479 671 L 586 671 L 459 522 L 361 522 Z M 214 -10 C 168 -10 132 5 107 36 C 81 66 73 108 82 160 L 111 345 C 115 369 118 391 120 411 C 122 431 123 450 123 468 L 239 468 C 239 447 238 426 236 405 C 234 383 231 362 227 340 L 202 196 C 196 162 198 137 210 120 C 221 102 240 94 266 94 C 295 94 321 110 343 142 C 365 174 383 234 396 320 L 417 468 L 532 468 L 485 130 C 482 108 480 86 478 64 C 476 42 476 20 476 0 L 361 0 C 361 10 361 21 361 31 C 361 41 362 52 363 62 L 364 92 C 346 56 323 30 297 14 C 271 -1 243 -10 214 -10 Z" unicode="ű" />
<glyph horiz-adv-x="690" d="M 475 -220 C 424 -220 384 -208 354 -186 C 324 -163 310 -132 310 -94 C 310 -58 323 -26 350 1 C 376 28 410 45 452 53 L 467 7 C 450 2 437 -6 427 -19 C 417 -32 412 -47 412 -63 C 412 -83 418 -99 431 -111 C 444 -122 463 -128 487 -128 L 475 -220 Z M 351 -12 C 264 -12 198 12 154 61 C 110 109 94 175 106 258 L 162 658 L 280 658 L 224 255 C 217 207 225 169 249 141 C 272 113 308 99 357 99 C 407 99 449 113 483 141 C 517 169 538 206 545 254 L 602 658 L 713 658 L 656 251 C 643 165 609 100 555 55 C 500 10 432 -12 351 -12 Z" unicode="Ų" />
<glyph horiz-adv-x="534" d="M 214 -10 C 168 -10 132 5 107 36 C 81 66 73 108 82 160 L 111 345 C 115 369 118 391 120 411 C 122 431 123 450 123 468 L 239 468 C 239 447 238 426 236 405 C 234 383 231 362 227 340 L 202 196 C 196 162 198 137 210 120 C 221 102 240 94 266 94 C 295 94 321 110 343 142 C 365 174 383 234 396 320 L 417 468 L 532 468 L 485 130 C 482 108 480 86 478 64 C 476 42 476 20 476 0 L 361 0 C 361 10 361 21 361 31 C 361 41 362 52 363 62 L 364 92 C 346 56 323 30 297 14 C 271 -1 243 -10 214 -10 Z M 454 -212 C 405 -212 366 -203 337 -186 C 307 -168 293 -142 293 -107 C 293 -73 306 -44 334 -18 C 362 8 403 32 457 56 L 471 2 C 445 -4 427 -13 416 -25 C 404 -37 399 -50 399 -66 C 399 -80 404 -92 416 -102 C 427 -111 444 -116 467 -116 L 454 -212 Z" unicode="ų" />
<glyph horiz-adv-x="952" d="M 433 710 L 539 841 L 627 841 L 696 710 L 610 710 L 574 774 L 521 710 L 433 710 Z M 211 0 L 100 658 L 222 658 L 283 244 L 293 147 L 330 244 L 508 658 L 632 658 L 694 244 L 703 148 L 738 244 L 915 658 L 1036 658 L 741 0 L 618 0 L 557 414 L 548 506 L 513 414 L 335 0 L 211 0 Z" unicode="Ŵ" />
<glyph horiz-adv-x="744" d="M 293 524 L 408 668 L 505 668 L 580 524 L 485 524 L 446 593 L 389 524 L 293 524 Z M 155 0 L 80 468 L 195 468 L 235 204 L 242 122 C 266 176 291 231 315 289 C 339 347 362 406 384 468 L 491 468 L 536 204 L 547 122 C 573 178 598 236 622 294 C 645 352 666 410 685 468 L 795 468 C 769 388 738 308 704 229 C 669 150 631 74 589 0 L 465 0 L 428 231 L 419 312 C 398 260 376 207 352 155 C 328 102 303 50 278 0 L 155 0 Z" unicode="ŵ" />
<glyph horiz-adv-x="623" d="M 253 0 L 291 265 L 104 658 L 237 658 L 336 444 L 364 372 L 413 444 L 570 658 L 703 658 L 408 266 L 371 0 L 253 0 Z M 271 710 L 377 841 L 465 841 L 534 710 L 448 710 L 412 774 L 359 710 L 271 710 Z" unicode="Ŷ" />
<glyph horiz-adv-x="512" d="M -9 -212 L -16 -212 L -2 -107 L 6 -107 C 44 -107 80 -98 114 -82 C 148 -66 179 -43 205 -14 L 93 468 L 220 468 L 273 205 L 291 84 C 315 130 339 185 362 247 C 385 309 408 383 432 468 L 550 468 C 480 228 400 55 309 -51 C 217 -158 111 -212 -9 -212 Z M 172 524 L 287 668 L 384 668 L 459 524 L 364 524 L 325 593 L 268 524 L 172 524 Z" unicode="ŷ" />
<glyph horiz-adv-x="623" d="M 253 0 L 291 265 L 104 658 L 237 658 L 336 444 L 364 372 L 413 444 L 570 658 L 703 658 L 408 266 L 371 0 L 253 0 Z M 273 710 L 287 807 L 385 807 L 371 710 L 273 710 Z M 435 710 L 449 807 L 546 807 L 532 710 L 435 710 Z" unicode="Ÿ" />
<glyph horiz-adv-x="590" d="M 46 0 L 55 66 L 398 493 L 443 547 L 130 547 L 146 658 L 636 658 L 628 593 L 284 165 L 240 111 L 560 111 L 544 0 L 46 0 Z M 320 710 L 434 843 L 558 843 L 431 710 L 320 710 Z" unicode="Ź" />
<glyph horiz-adv-x="449" d="M 223 524 L 347 669 L 481 669 L 342 524 L 223 524 Z M 39 0 L 51 83 L 258 318 L 302 365 L 95 365 L 109 468 L 470 468 L 459 385 L 251 150 L 207 103 L 424 103 L 409 0 L 39 0 Z" unicode="ź" />
<glyph horiz-adv-x="590" d="M 328 710 L 342 814 L 446 814 L 432 710 L 328 710 Z M 46 0 L 55 66 L 398 493 L 443 547 L 130 547 L 146 658 L 636 658 L 628 593 L 284 165 L 240 111 L 560 111 L 544 0 L 46 0 Z" unicode="Ż" />
<glyph horiz-adv-x="449" d="M 230 527 L 247 642 L 361 642 L 345 527 L 230 527 Z M 39 0 L 51 83 L 258 318 L 302 365 L 95 365 L 109 468 L 470 468 L 459 385 L 251 150 L 207 103 L 424 103 L 409 0 L 39 0 Z" unicode="ż" />
<glyph horiz-adv-x="590" d="M 46 0 L 55 66 L 398 493 L 443 547 L 130 547 L 146 658 L 636 658 L 628 593 L 284 165 L 240 111 L 560 111 L 544 0 L 46 0 Z M 334 708 L 265 839 L 351 839 L 386 775 L 440 839 L 528 839 L 422 708 L 334 708 Z" unicode="Ž" />
<glyph horiz-adv-x="449" d="M 239 524 L 163 668 L 258 668 L 296 598 L 354 668 L 451 668 L 335 524 L 239 524 Z M 39 0 L 51 83 L 258 318 L 302 365 L 95 365 L 109 468 L 470 468 L 459 385 L 251 150 L 207 103 L 424 103 L 409 0 L 39 0 Z" unicode="ž" />
<glyph horiz-adv-x="487" d="M 66 -220 C 52 -220 39 -218 27 -216 C 14 -213 2 -209 -10 -205 L -10 -101 C 2 -105 14 -109 27 -111 C 40 -113 54 -115 70 -115 C 90 -115 106 -108 118 -96 C 130 -83 138 -65 141 -41 L 198 365 L 118 365 L 131 469 L 213 469 L 223 540 C 231 600 251 645 284 675 C 316 705 357 720 405 720 C 419 720 432 719 446 717 C 459 715 472 712 486 709 L 486 600 C 473 604 460 608 447 611 C 434 613 421 615 408 615 C 386 615 369 608 357 596 C 345 584 337 565 335 541 L 325 469 L 418 469 L 404 365 L 311 365 L 254 -42 C 245 -102 224 -146 192 -176 C 160 -205 118 -220 66 -220 Z" unicode="ƒ" />
<glyph horiz-adv-x="693" d="M 404 -15 C 305 -15 227 13 171 70 C 115 126 87 197 87 281 C 87 393 123 487 196 561 C 268 635 364 673 483 673 C 521 673 558 669 596 661 C 634 653 667 642 696 628 L 680 512 C 652 528 619 540 583 550 C 547 559 511 564 475 564 C 395 564 331 538 282 487 C 233 435 209 370 209 291 C 209 233 227 186 265 150 C 303 113 352 95 412 95 C 435 95 457 96 477 100 C 497 103 516 109 533 117 L 551 246 L 417 246 L 433 357 L 686 357 L 642 42 C 602 22 562 7 522 -1 C 481 -10 442 -15 404 -15 Z M 440 714 L 371 845 L 457 845 L 492 781 L 546 845 L 634 845 L 528 714 L 440 714 Z" unicode="Ǧ" />
<glyph horiz-adv-x="539" d="M 291 524 L 215 668 L 310 668 L 348 598 L 406 668 L 503 668 L 387 524 L 291 524 Z M 218 -222 C 191 -222 163 -219 133 -213 C 103 -207 76 -198 51 -188 L 66 -77 C 86 -89 111 -99 139 -107 C 167 -115 193 -119 217 -119 C 259 -119 293 -109 318 -90 C 343 -71 359 -40 365 4 L 376 85 C 359 50 338 25 312 11 C 286 -2 260 -10 234 -10 C 186 -10 146 6 114 39 C 82 72 67 119 67 180 C 67 265 95 336 151 393 C 207 449 276 478 358 478 C 386 478 417 474 451 468 C 485 462 515 453 542 443 L 482 20 C 470 -63 442 -124 399 -163 C 355 -202 295 -222 218 -222 Z M 268 91 C 298 91 325 106 351 137 C 376 167 394 218 405 290 L 416 366 C 405 370 393 373 380 375 C 367 377 354 379 341 379 C 298 379 261 360 229 324 C 197 287 182 243 182 193 C 182 159 189 133 205 116 C 220 99 241 91 268 91 Z" unicode="ǧ" />
<glyph horiz-adv-x="662" d="M 14 0 L 368 660 L 479 660 L 648 0 L 524 0 L 485 162 L 220 162 L 136 0 L 14 0 Z M 352 416 L 275 267 L 459 267 L 423 416 L 401 517 L 352 416 Z M 397 811 L 466 891 L 546 891 L 474 811 L 397 811 Z M 415 604 C 390 604 370 612 354 628 C 338 644 330 664 330 688 C 330 716 340 740 360 760 C 380 779 404 789 434 789 C 458 789 479 780 495 764 C 511 748 519 728 519 704 C 519 675 509 651 489 632 C 469 613 444 604 415 604 Z M 420 660 C 431 660 440 664 448 672 C 456 680 460 689 460 700 C 460 709 456 717 450 723 C 444 729 436 733 428 733 C 417 733 408 729 400 721 C 392 713 389 703 389 693 C 389 683 392 675 398 669 C 404 663 411 660 420 660 Z" unicode="Ǻ" />
<glyph horiz-adv-x="545" d="M 232 -10 C 184 -10 144 6 113 40 C 81 73 66 120 66 180 C 66 266 93 337 149 393 C 205 449 274 478 356 478 C 384 478 415 474 449 468 C 483 462 513 453 540 443 L 499 150 C 496 125 493 100 491 76 C 489 52 488 26 488 0 L 373 0 C 373 10 373 20 373 31 C 373 42 374 52 375 62 L 376 85 C 358 50 337 25 311 11 C 285 -2 259 -10 232 -10 Z M 266 91 C 296 91 323 106 349 137 C 375 167 393 218 404 290 L 414 366 C 402 370 390 374 378 376 C 366 378 353 379 339 379 C 296 379 259 360 227 324 C 195 287 180 244 180 194 C 180 160 187 134 203 117 C 219 99 240 91 266 91 Z M 317 643 L 393 730 L 481 730 L 402 643 L 317 643 Z M 337 418 C 310 418 288 426 270 444 C 252 461 244 483 244 510 C 244 541 254 567 276 588 C 298 608 325 619 358 619 C 384 619 406 610 424 593 C 441 575 450 553 450 527 C 450 496 439 470 418 449 C 396 428 369 418 337 418 Z M 343 480 C 355 480 365 484 373 492 C 381 500 386 510 386 522 C 386 532 382 541 376 547 C 369 553 361 557 351 557 C 339 557 328 553 320 545 C 312 537 308 527 308 515 C 308 505 311 496 318 490 C 324 483 333 480 343 480 Z" unicode="ǻ" />
<glyph horiz-adv-x="870" d="M 8 0 L 439 658 L 891 658 L 875 547 L 612 547 L 590 389 L 844 389 L 828 278 L 575 278 L 551 111 L 826 111 L 810 0 L 418 0 L 443 177 L 254 177 L 138 0 L 8 0 Z M 432 447 L 327 288 L 458 288 L 495 548 L 432 447 Z M 550 710 L 664 843 L 788 843 L 661 710 L 550 710 Z" unicode="Ǽ" />
<glyph horiz-adv-x="817" d="M 445 524 L 569 669 L 703 669 L 564 524 L 445 524 Z M 246 -10 C 191 -10 147 6 115 40 C 82 73 66 121 66 183 C 66 267 93 338 148 394 C 203 450 270 478 350 478 C 378 478 405 474 431 468 C 456 462 481 452 506 439 C 524 451 545 460 569 467 C 593 474 619 478 648 478 C 697 478 738 465 770 440 C 802 414 818 382 818 343 C 818 292 798 254 758 228 C 718 202 655 187 567 183 L 513 180 C 516 151 528 129 548 113 C 568 97 595 89 628 89 C 660 89 689 93 715 102 C 741 110 767 123 793 140 L 776 29 C 751 16 724 6 695 0 C 666 -6 639 -10 614 -10 C 564 -10 522 0 490 22 C 458 43 434 70 419 103 C 402 68 378 40 348 20 C 318 0 284 -10 246 -10 Z M 641 382 C 611 382 584 371 562 349 C 539 327 525 299 520 265 L 578 268 C 620 270 651 277 671 289 C 691 301 701 317 701 339 C 701 352 695 362 684 370 C 673 378 659 382 641 382 Z M 180 198 C 180 164 188 137 204 119 C 220 100 242 91 269 91 C 303 91 330 105 351 134 C 371 162 388 208 401 272 L 405 293 C 407 303 410 314 414 325 C 418 335 423 346 429 357 C 415 364 401 369 387 373 C 372 377 357 379 342 379 C 298 379 260 361 228 325 C 196 289 180 247 180 198 Z" unicode="ǽ" />
<glyph horiz-adv-x="765" d="M 120 -65 L 212 76 L 242 117 L 543 593 L 566 633 L 627 729 L 746 729 L 656 588 L 626 547 L 325 71 L 301 31 L 239 -65 L 120 -65 Z M 401 -16 C 310 -16 235 11 176 67 C 117 122 88 195 88 287 C 88 397 122 489 190 563 C 258 637 347 674 455 674 C 546 674 621 646 681 590 C 740 534 770 461 770 369 C 770 258 735 166 666 93 C 597 20 509 -16 401 -16 Z M 404 95 C 476 95 534 120 580 170 C 625 220 648 285 648 364 C 648 420 630 467 595 505 C 560 543 513 563 453 563 C 381 563 322 538 277 488 C 232 438 210 373 210 294 C 210 238 227 190 262 152 C 296 114 344 95 404 95 Z M 430 723 L 544 856 L 668 856 L 541 723 L 430 723 Z" unicode="Ǿ" />
<glyph horiz-adv-x="550" d="M 62 -63 L 162 76 L 184 113 L 380 408 L 409 448 L 469 532 L 565 532 L 474 405 L 446 367 L 247 63 L 225 34 L 158 -63 L 62 -63 Z M 290 -12 C 223 -12 170 7 131 45 C 91 83 72 135 72 201 C 72 280 96 346 145 400 C 193 453 254 480 327 480 C 393 480 445 460 484 422 C 523 384 543 332 543 267 C 543 187 518 121 470 68 C 422 14 362 -12 290 -12 Z M 295 91 C 333 91 364 107 390 140 C 416 172 429 213 429 261 C 429 295 418 323 398 345 C 378 367 352 378 321 378 C 282 378 250 361 224 329 C 198 296 186 256 186 208 C 186 174 196 146 216 124 C 236 102 263 91 295 91 Z M 290 527 L 414 672 L 548 672 L 409 527 L 290 527 Z" unicode="ǿ" />
<glyph horiz-adv-x="524" d="M 237 -246 L 164 -217 C 178 -196 188 -177 195 -159 C 202 -141 207 -120 210 -97 L 217 -54 L 309 -54 L 302 -97 C 297 -129 290 -157 280 -179 C 270 -201 256 -223 237 -246 Z M 251 -15 C 217 -15 184 -11 153 -4 C 122 3 93 14 67 30 L 84 153 C 108 134 135 120 165 110 C 194 100 225 95 258 95 C 292 95 319 103 340 119 C 361 135 372 157 372 186 C 372 206 364 224 350 240 C 335 256 311 270 278 283 L 265 288 C 217 306 181 330 157 360 C 133 389 122 423 122 463 C 122 522 143 572 186 612 C 228 652 283 672 350 672 C 381 672 412 668 442 662 C 472 655 500 644 528 630 L 511 506 C 485 525 458 539 431 549 C 404 558 376 563 348 563 C 316 563 292 555 274 540 C 256 524 247 504 247 479 C 247 460 254 443 270 429 C 286 414 311 400 345 386 L 358 381 C 404 362 439 338 462 309 C 485 279 497 245 497 205 C 497 141 473 89 426 47 C 379 5 321 -15 251 -15 Z" unicode="Ș" />
<glyph horiz-adv-x="414" d="M 197 -10 C 174 -10 149 -7 123 -1 C 97 4 73 11 51 20 L 66 121 C 84 109 106 99 131 92 C 156 85 180 82 203 83 C 224 83 242 87 256 95 C 270 103 277 115 277 132 C 277 144 271 155 261 163 C 250 171 233 178 211 186 L 198 191 C 161 202 133 219 115 242 C 97 265 88 294 88 330 C 88 374 104 409 138 437 C 171 464 216 478 272 478 C 292 478 315 475 342 471 C 369 467 393 460 414 452 L 400 353 C 382 363 361 371 337 377 C 313 383 290 386 270 386 C 250 386 234 382 222 374 C 210 366 204 355 204 341 C 204 329 208 318 217 310 C 226 302 241 294 262 287 L 276 283 C 315 269 344 252 364 230 C 383 208 393 181 393 149 C 393 101 375 63 340 34 C 305 4 257 -10 197 -10 Z M 171 -267 L 89 -235 C 105 -212 116 -191 124 -172 C 131 -152 137 -129 141 -103 L 147 -58 L 249 -58 L 242 -103 C 237 -139 229 -170 219 -194 C 208 -218 192 -242 171 -267 Z" unicode="ș" />
<glyph horiz-adv-x="559" d="M 249 -240 L 176 -211 C 190 -190 200 -171 207 -153 C 214 -135 219 -114 222 -91 L 229 -48 L 321 -48 L 314 -91 C 309 -123 302 -151 292 -173 C 282 -195 268 -217 249 -240 Z M 220 0 L 297 547 L 97 547 L 113 658 L 631 658 L 615 547 L 415 547 L 338 0 L 220 0 Z" unicode="Ț" />
<glyph horiz-adv-x="326" d="M 168 -257 L 86 -225 C 102 -202 113 -181 121 -162 C 128 -142 134 -119 138 -93 L 144 -48 L 246 -48 L 239 -93 C 234 -129 226 -160 216 -184 C 205 -208 189 -232 168 -257 Z M 205 -10 C 165 -10 136 2 117 27 C 97 52 91 87 98 131 L 131 365 L 67 365 L 82 468 L 145 468 L 163 599 L 279 599 L 260 468 L 354 468 L 339 365 L 246 365 L 215 146 C 212 128 214 115 220 107 C 226 99 235 95 249 95 C 258 95 267 96 276 98 C 285 100 294 103 303 108 L 288 6 C 275 1 261 -2 247 -5 C 233 -8 219 -10 205 -10 Z" unicode="ț" />
<glyph horiz-adv-x="229" d="M -54 -212 L -62 -212 L -48 -107 L -40 -107 C -14 -107 6 -99 22 -85 C 38 -70 48 -49 52 -21 L 121 468 L 235 468 L 167 -21 C 158 -83 135 -130 97 -163 C 59 -195 9 -212 -54 -212 Z" unicode="ȷ" />
<glyph horiz-adv-x="491" d="M 233 -10 C 183 -10 143 3 111 29 C 79 55 63 87 63 127 C 63 177 82 214 122 239 C 161 263 225 278 313 283 L 368 286 C 365 315 354 338 334 354 C 314 370 287 379 254 379 C 222 379 192 374 166 366 C 139 358 113 345 89 329 L 105 440 C 133 454 162 463 192 469 C 221 475 246 478 267 478 C 336 478 390 458 428 419 C 466 379 485 329 485 268 C 485 187 462 120 418 68 C 373 16 311 -10 233 -10 Z M 180 130 C 180 116 185 106 196 98 C 206 90 221 86 240 86 C 270 86 297 97 319 119 C 341 141 355 169 361 203 L 303 200 C 261 198 230 191 210 179 C 190 167 180 151 180 130 Z" unicode="ə" />
<glyph horiz-adv-x="318" d="M 97 580 L 212 724 L 309 724 L 384 580 L 289 580 L 250 649 L 193 580 L 97 580 Z" unicode="ˆ" />
<glyph horiz-adv-x="318" d="M 185 524 L 109 668 L 204 668 L 242 598 L 300 668 L 397 668 L 281 524 L 185 524 Z" unicode="ˇ" />
<glyph horiz-adv-x="358" d="M 255 516 C 212 516 180 529 159 555 C 137 581 129 615 135 658 L 210 658 C 208 638 212 623 220 612 C 228 601 241 596 259 596 C 275 596 288 601 299 612 C 310 623 317 638 319 658 L 394 658 C 388 614 373 579 347 554 C 321 528 291 516 255 516 Z" unicode="˘" />
<glyph horiz-adv-x="180" d="M 107 527 L 124 642 L 238 642 L 222 527 L 107 527 Z" unicode="˙" />
<glyph horiz-adv-x="222" d="M 182 472 C 155 472 133 480 115 498 C 97 516 88 538 88 565 C 88 596 98 622 120 643 C 141 664 168 675 201 675 C 227 675 250 666 268 648 C 286 630 295 607 295 581 C 295 550 284 524 264 503 C 244 482 216 472 182 472 Z M 188 534 C 200 534 211 538 219 546 C 227 554 231 564 231 576 C 231 586 227 595 221 602 C 214 609 205 613 195 613 C 183 613 172 608 164 600 C 156 592 152 582 152 570 C 152 559 155 550 162 544 C 169 537 178 534 188 534 Z" unicode="˚" />
<glyph horiz-adv-x="240" d="M 196 -212 C 148 -212 110 -201 82 -181 C 54 -160 41 -132 41 -97 C 41 -58 57 -25 90 1 C 122 28 163 42 212 42 L 219 0 C 196 0 177 -6 162 -19 C 147 -31 140 -47 140 -66 C 140 -84 146 -99 158 -109 C 170 -119 186 -124 208 -124 L 196 -212 Z" unicode="˛" />
<glyph horiz-adv-x="327" d="M 160 580 L 90 580 C 96 621 108 652 126 673 C 144 694 168 705 198 705 C 210 705 222 703 234 699 C 245 695 256 688 268 680 C 277 673 285 668 291 665 C 297 661 304 660 311 660 C 320 660 328 663 335 670 C 341 677 346 687 349 700 L 418 700 C 411 658 399 627 381 606 C 363 585 339 575 310 575 C 295 575 282 576 272 580 C 261 584 250 590 240 599 C 231 606 223 611 217 615 C 210 618 203 620 197 620 C 187 620 179 616 173 609 C 166 602 162 592 160 580 Z" unicode="˜" />
<glyph horiz-adv-x="402" d="M 118 578 L 227 727 L 334 727 L 216 578 L 118 578 Z M 281 578 L 399 727 L 506 727 L 379 578 L 281 578 Z" unicode="˝" />
<glyph horiz-adv-x="0" d="M 17 524 L -85 669 L 48 669 L 136 524 L 17 524 Z" unicode="̀" />
<glyph horiz-adv-x="0" d="M 10 524 L 134 669 L 268 669 L 129 524 L 10 524 Z" unicode="́" />
<glyph horiz-adv-x="0" d="M -70 524 L 45 668 L 142 668 L 217 524 L 122 524 L 83 593 L 26 524 L -70 524 Z" unicode="̂" />
<glyph horiz-adv-x="0" d="M -11 524 L -81 524 C -75 565 -63 596 -45 617 C -27 638 -3 649 27 649 C 39 649 51 647 63 643 C 74 639 85 632 97 624 C 106 617 114 612 120 609 C 126 605 133 604 140 604 C 149 604 157 607 164 614 C 170 621 175 631 178 644 L 247 644 C 240 602 228 571 210 550 C 192 529 168 519 139 519 C 124 519 111 520 101 524 C 90 528 79 534 69 543 C 60 550 52 555 46 559 C 39 562 32 564 26 564 C 16 564 8 560 2 553 C -4 546 -9 536 -11 524 Z" unicode="̃" />
<glyph horiz-adv-x="0" d="M -50 532 L -37 623 L 213 623 L 200 532 L -50 532 Z" unicode="̄" />
<glyph horiz-adv-x="0" d="M 75 516 C 32 516 0 529 -21 555 C -42 581 -50 615 -45 658 L 30 658 C 28 638 32 623 40 612 C 48 601 61 596 79 596 C 95 596 108 601 119 612 C 130 623 137 638 139 658 L 214 658 C 208 614 193 579 167 554 C 141 528 111 516 75 516 Z" unicode="̆" />
<glyph horiz-adv-x="0" d="M 17 527 L 34 642 L 148 642 L 132 527 L 17 527 Z" unicode="̇" />
<glyph horiz-adv-x="0" d="M -68 527 L -53 635 L 54 635 L 40 527 L -68 527 Z M 109 527 L 124 635 L 231 635 L 216 527 L 109 527 Z" unicode="̈" />
<glyph horiz-adv-x="0" d="M 63 418 C 36 418 14 426 -4 444 C -22 462 -31 484 -31 511 C -31 542 -20 568 1 589 C 22 610 49 621 82 621 C 108 621 131 612 149 594 C 167 576 176 553 176 527 C 176 496 165 470 145 449 C 125 428 97 418 63 418 Z M 69 480 C 81 480 92 484 100 492 C 108 500 112 510 112 522 C 112 532 108 541 102 548 C 95 555 86 559 76 559 C 64 559 53 554 45 546 C 37 538 33 528 33 516 C 33 505 36 496 43 490 C 50 483 59 480 69 480 Z" unicode="̊" />
<glyph horiz-adv-x="0" d="M -60 522 L 49 671 L 156 671 L 38 522 L -60 522 Z M 103 522 L 221 671 L 328 671 L 201 522 L 103 522 Z" unicode="̋" />
<glyph horiz-adv-x="0" d="M 26 524 L -50 668 L 45 668 L 83 598 L 141 668 L 238 668 L 122 524 L 26 524 Z" unicode="̌" />
<glyph horiz-adv-x="0" d="M 100 731 L 182 698 C 166 675 154 654 147 635 C 139 615 134 593 130 567 L 124 521 L 22 521 L 29 567 C 33 603 41 633 52 657 C 62 681 78 706 100 731 Z" unicode="̒" />
<glyph horiz-adv-x="0" d="M -32 -250 L -114 -217 C -98 -194 -86 -173 -79 -154 C -71 -134 -66 -112 -62 -86 L -56 -40 L 46 -40 L 39 -86 C 34 -122 26 -152 16 -176 C 5 -200 -10 -225 -32 -250 Z" unicode="̦" />
<glyph horiz-adv-x="0" d="M -14 -230 C -26 -230 -39 -228 -51 -226 C -63 -224 -74 -220 -85 -216 L -77 -150 C -68 -155 -59 -159 -50 -162 C -40 -164 -31 -166 -21 -166 C -10 -166 -1 -163 5 -157 C 12 -151 16 -143 16 -133 C 16 -124 13 -117 7 -112 C 1 -106 -7 -104 -17 -104 L -23 -104 L -15 -42 L -9 -42 C 21 -42 46 -49 64 -65 C 82 -81 92 -102 92 -129 C 92 -158 81 -182 61 -201 C 40 -220 15 -230 -14 -230 Z" unicode="̧" />
<glyph horiz-adv-x="0" d="M -23 -212 C -71 -212 -108 -201 -136 -181 C -164 -160 -178 -132 -178 -97 C -178 -58 -161 -25 -129 1 C -96 28 -55 42 -7 42 L 0 0 C -22 0 -41 -6 -56 -19 C -71 -31 -79 -47 -79 -66 C -79 -84 -73 -99 -61 -109 C -49 -119 -32 -124 -11 -124 L -23 -212 Z" unicode="̨" />
<glyph horiz-adv-x="657" d="M 23 0 L 353 663 L 497 663 L 635 0 L 23 0 Z M 187 107 L 488 107 L 400 533 L 187 107 Z" unicode="Δ" />
<glyph horiz-adv-x="538" d="M 99 0 L 151 364 L 85 364 L 99 468 L 570 468 L 555 364 L 490 364 L 463 172 C 458 139 455 109 454 81 C 452 53 452 26 452 0 L 336 0 C 336 28 336 55 338 81 C 339 106 342 136 347 172 L 374 364 L 266 364 L 215 0 L 99 0 Z" unicode="π" />
<glyph horiz-adv-x="952" d="M 517 710 L 423 843 L 541 843 L 622 710 L 517 710 Z M 211 0 L 100 658 L 222 658 L 283 244 L 293 147 L 330 244 L 508 658 L 632 658 L 694 244 L 703 148 L 738 244 L 915 658 L 1036 658 L 741 0 L 618 0 L 557 414 L 548 506 L 513 414 L 335 0 L 211 0 Z" unicode="Ẁ" />
<glyph horiz-adv-x="744" d="M 380 524 L 278 669 L 411 669 L 499 524 L 380 524 Z M 155 0 L 80 468 L 195 468 L 235 204 L 242 122 C 266 176 291 231 315 289 C 339 347 362 406 384 468 L 491 468 L 536 204 L 547 122 C 573 178 598 236 622 294 C 645 352 666 410 685 468 L 795 468 C 769 388 738 308 704 229 C 669 150 631 74 589 0 L 465 0 L 428 231 L 419 312 C 398 260 376 207 352 155 C 328 102 303 50 278 0 L 155 0 Z" unicode="ẁ" />
<glyph horiz-adv-x="952" d="M 211 0 L 100 658 L 222 658 L 283 244 L 293 147 L 330 244 L 508 658 L 632 658 L 694 244 L 703 148 L 738 244 L 915 658 L 1036 658 L 741 0 L 618 0 L 557 414 L 548 506 L 513 414 L 335 0 L 211 0 Z M 507 710 L 621 843 L 745 843 L 618 710 L 507 710 Z" unicode="Ẃ" />
<glyph horiz-adv-x="744" d="M 373 524 L 497 669 L 631 669 L 492 524 L 373 524 Z M 155 0 L 80 468 L 195 468 L 235 204 L 242 122 C 266 176 291 231 315 289 C 339 347 362 406 384 468 L 491 468 L 536 204 L 547 122 C 573 178 598 236 622 294 C 645 352 666 410 685 468 L 795 468 C 769 388 738 308 704 229 C 669 150 631 74 589 0 L 465 0 L 428 231 L 419 312 C 398 260 376 207 352 155 C 328 102 303 50 278 0 L 155 0 Z" unicode="ẃ" />
<glyph horiz-adv-x="952" d="M 211 0 L 100 658 L 222 658 L 283 244 L 293 147 L 330 244 L 508 658 L 632 658 L 694 244 L 703 148 L 738 244 L 915 658 L 1036 658 L 741 0 L 618 0 L 557 414 L 548 506 L 513 414 L 335 0 L 211 0 Z M 435 710 L 449 807 L 547 807 L 533 710 L 435 710 Z M 597 710 L 611 807 L 708 807 L 694 710 L 597 710 Z" unicode="Ẅ" />
<glyph horiz-adv-x="744" d="M 295 527 L 310 635 L 417 635 L 403 527 L 295 527 Z M 472 527 L 487 635 L 594 635 L 579 527 L 472 527 Z M 155 0 L 80 468 L 195 468 L 235 204 L 242 122 C 266 176 291 231 315 289 C 339 347 362 406 384 468 L 491 468 L 536 204 L 547 122 C 573 178 598 236 622 294 C 645 352 666 410 685 468 L 795 468 C 769 388 738 308 704 229 C 669 150 631 74 589 0 L 465 0 L 428 231 L 419 312 C 398 260 376 207 352 155 C 328 102 303 50 278 0 L 155 0 Z" unicode="ẅ" />
<glyph horiz-adv-x="623" d="M 253 0 L 291 265 L 104 658 L 237 658 L 336 444 L 364 372 L 413 444 L 570 658 L 703 658 L 408 266 L 371 0 L 253 0 Z M 355 710 L 261 843 L 379 843 L 460 710 L 355 710 Z" unicode="Ỳ" />
<glyph horiz-adv-x="512" d="M -9 -212 L -16 -212 L -2 -107 L 6 -107 C 44 -107 80 -98 114 -82 C 148 -66 179 -43 205 -14 L 93 468 L 220 468 L 273 205 L 291 84 C 315 130 339 185 362 247 C 385 309 408 383 432 468 L 550 468 C 480 228 400 55 309 -51 C 217 -158 111 -212 -9 -212 Z M 259 524 L 157 669 L 290 669 L 378 524 L 259 524 Z" unicode="ỳ" />
<glyph horiz-adv-x="500" d="" unicode=" " />
<glyph horiz-adv-x="1000" d="" unicode=" " />
<glyph horiz-adv-x="650" d="" unicode=" " />
<glyph horiz-adv-x="200" d="" unicode=" " />
<glyph horiz-adv-x="650" d="M 147 193 L 161 293 L 571 293 L 557 193 L 147 193 Z" unicode="‒" />
<glyph horiz-adv-x="500" d="M 72 193 L 86 293 L 496 293 L 482 193 L 72 193 Z" unicode="–" />
<glyph horiz-adv-x="1000" d="M 72 193 L 86 293 L 996 293 L 982 193 L 72 193 Z" unicode="—" />
<glyph horiz-adv-x="360" d="M 74 193 L 88 293 L 368 293 L 354 193 L 74 193 Z" unicode="―" />
<glyph horiz-adv-x="231" d="M 123 442 L 136 531 C 141 573 154 612 176 648 C 197 684 220 713 244 734 L 318 704 C 301 679 286 654 274 629 C 261 604 252 574 248 538 L 235 442 L 123 442 Z" unicode="‘" />
<glyph horiz-adv-x="222" d="M 145 425 L 71 455 C 87 479 102 504 115 530 C 127 555 136 586 142 622 L 155 718 L 267 718 L 254 629 C 247 587 233 547 212 511 C 191 474 169 445 145 425 Z" unicode="’" />
<glyph horiz-adv-x="222" d="M 60 -175 L -13 -145 C 3 -120 18 -95 31 -70 C 43 -44 52 -14 58 22 L 71 118 L 182 118 L 170 29 C 163 -13 149 -53 128 -89 C 106 -125 84 -154 60 -175 Z" unicode="‚" />
<glyph horiz-adv-x="400" d="M 123 444 L 136 531 C 141 573 154 613 176 649 C 197 685 220 714 244 735 L 318 705 C 301 680 286 655 274 630 C 261 605 252 575 248 539 L 235 444 L 123 444 Z M 293 444 L 305 531 C 311 573 324 613 345 649 C 366 685 389 714 413 735 L 487 705 C 470 680 455 655 443 630 C 431 605 422 575 418 539 L 404 444 L 293 444 Z" unicode="“" />
<glyph horiz-adv-x="387" d="M 145 425 L 71 455 C 87 479 102 504 115 530 C 127 555 136 586 142 622 L 155 718 L 267 718 L 254 629 C 247 587 233 547 212 511 C 191 474 169 445 145 425 Z M 310 425 L 237 455 C 253 479 268 504 280 530 C 292 555 301 586 307 622 L 321 718 L 432 718 L 419 629 C 413 587 399 547 378 511 C 356 474 334 445 310 425 Z" unicode="”" />
<glyph horiz-adv-x="382" d="M 60 -175 L -13 -145 C 3 -120 18 -95 31 -70 C 43 -44 52 -14 58 22 L 71 118 L 182 118 L 170 29 C 163 -13 149 -53 128 -89 C 106 -125 84 -154 60 -175 Z M 221 -175 L 147 -145 C 164 -120 179 -95 191 -70 C 203 -44 212 -14 218 22 L 232 118 L 343 118 L 330 29 C 324 -13 310 -53 289 -89 C 267 -125 245 -154 221 -175 Z" unicode="„" />
<glyph horiz-adv-x="455" d="M 169 0 L 238 450 L 95 443 L 109 548 L 251 541 L 269 718 L 387 718 L 356 541 L 500 548 L 486 443 L 343 450 L 287 0 L 169 0 Z" unicode="†" />
<glyph horiz-adv-x="455" d="M 169 0 L 201 183 L 57 176 L 71 281 L 214 275 L 238 450 L 95 443 L 109 548 L 251 541 L 269 718 L 387 718 L 356 541 L 500 548 L 486 443 L 343 450 L 318 275 L 462 281 L 448 176 L 306 183 L 287 0 L 169 0 Z" unicode="‡" />
<glyph horiz-adv-x="307" d="M 86 155 L 111 333 L 289 333 L 265 155 L 86 155 Z" unicode="•" />
<glyph horiz-adv-x="622" d="M 47 0 L 63 113 L 177 113 L 161 0 L 47 0 Z M 253 0 L 269 113 L 383 113 L 367 0 L 253 0 Z M 460 0 L 476 113 L 590 113 L 574 0 L 460 0 Z" unicode="…" />
<glyph horiz-adv-x="1226" d="M 669 -8 C 622 -8 585 6 558 35 C 530 64 517 103 517 152 C 517 218 534 270 568 309 C 602 348 646 368 699 368 C 747 368 784 353 811 324 C 837 295 851 257 851 209 C 851 143 833 90 799 51 C 765 11 721 -8 669 -8 Z M 674 78 C 698 78 717 89 731 111 C 745 133 752 164 752 203 C 752 227 746 247 736 261 C 726 275 712 282 694 282 C 670 282 651 270 637 248 C 623 226 616 196 616 158 C 616 131 621 111 632 98 C 642 84 656 78 674 78 Z M 1042 -8 C 995 -8 958 6 931 35 C 903 64 890 103 890 152 C 890 218 907 270 941 309 C 975 348 1019 368 1072 368 C 1120 368 1157 353 1184 324 C 1210 295 1224 257 1224 209 C 1224 143 1206 90 1172 51 C 1138 11 1094 -8 1042 -8 Z M 1047 78 C 1071 78 1090 89 1104 111 C 1118 133 1125 164 1125 203 C 1125 227 1119 247 1109 261 C 1099 275 1085 282 1067 282 C 1043 282 1024 270 1010 248 C 996 226 989 196 989 158 C 989 131 994 111 1005 98 C 1015 84 1029 78 1047 78 Z M 237 0 L 631 718 L 721 718 L 326 0 L 237 0 Z M 255 350 C 208 350 171 364 144 393 C 116 422 103 461 103 510 C 103 576 120 628 154 667 C 188 706 232 726 285 726 C 333 726 370 711 397 682 C 423 653 437 615 437 567 C 437 501 419 448 385 409 C 351 369 307 350 255 350 Z M 260 436 C 284 436 303 447 317 469 C 331 491 338 522 338 561 C 338 585 332 605 322 619 C 312 633 298 640 280 640 C 256 640 237 628 223 606 C 209 584 202 554 202 516 C 202 489 207 469 218 456 C 228 442 242 436 260 436 Z" unicode="‰" />
<glyph horiz-adv-x="211" d="M 121 487 L 155 729 L 260 729 L 226 487 L 121 487 Z" unicode="′" />
<glyph horiz-adv-x="350" d="M 121 488 L 155 729 L 251 729 L 217 488 L 121 488 Z M 270 488 L 304 729 L 400 729 L 365 488 L 270 488 Z" unicode="″" />
<glyph horiz-adv-x="365" d="M 202 65 L 75 226 L 246 388 L 375 388 L 205 226 L 331 65 L 202 65 Z" unicode="‹" />
<glyph horiz-adv-x="365" d="M 52 65 L 221 226 L 96 388 L 225 388 L 352 226 L 181 65 L 52 65 Z" unicode="›" />
<glyph horiz-adv-x="151" d="M -116 0 L 278 718 L 368 718 L -27 0 L -116 0 Z" unicode="⁄" />
<glyph horiz-adv-x="388" d="M 266 432 C 219 432 182 446 155 475 C 127 504 114 543 114 592 C 114 658 131 710 165 749 C 199 788 243 808 296 808 C 344 808 381 793 408 764 C 434 735 448 697 448 649 C 448 583 430 530 396 491 C 362 451 318 432 266 432 Z M 271 518 C 295 518 314 529 328 551 C 342 573 349 604 349 643 C 349 667 343 687 333 701 C 323 715 309 722 291 722 C 267 722 248 710 234 688 C 220 666 213 636 213 598 C 213 571 218 551 229 538 C 239 524 253 518 271 518 Z" unicode="⁰" />
<glyph horiz-adv-x="348" d="M 247 440 L 258 514 L 94 514 L 102 579 L 260 800 L 391 800 L 361 592 L 410 592 L 399 514 L 350 514 L 340 440 L 247 440 Z M 269 592 L 287 726 L 192 592 L 269 592 Z" unicode="⁴" />
<glyph horiz-adv-x="309" d="M 205 432 C 184 432 164 434 146 438 C 127 442 108 448 90 456 L 102 542 C 116 532 132 524 148 519 C 164 514 181 512 199 512 C 218 512 233 515 245 523 C 256 531 262 541 262 555 C 262 567 256 576 246 583 C 235 589 220 593 201 593 C 186 593 171 592 155 590 C 139 588 124 585 110 583 L 153 800 L 375 800 L 363 716 L 206 716 L 196 661 C 204 662 212 663 219 664 C 226 664 233 665 240 665 C 280 665 310 655 330 637 C 350 619 361 594 361 564 C 361 527 346 496 317 470 C 288 444 251 432 205 432 Z" unicode="⁵" />
<glyph horiz-adv-x="352" d="M 252 432 C 208 432 173 445 148 472 C 122 499 110 536 110 582 C 110 644 129 697 167 741 C 205 785 254 808 315 808 C 331 808 346 806 362 804 C 377 801 392 797 408 793 L 396 709 C 382 714 368 718 354 722 C 340 725 325 727 310 727 C 283 727 261 718 243 702 C 225 685 213 662 207 632 C 217 645 230 655 246 663 C 261 670 278 674 297 674 C 330 674 356 664 376 646 C 395 628 405 603 405 573 C 405 529 390 495 360 470 C 330 444 294 432 252 432 Z M 254 511 C 270 511 284 516 295 526 C 305 536 311 549 311 566 C 311 578 307 588 299 596 C 291 603 280 607 267 607 C 254 607 242 603 231 597 C 219 590 211 581 205 570 C 203 553 206 539 215 528 C 223 516 236 511 254 511 Z" unicode="⁶" />
<glyph horiz-adv-x="320" d="M 126 440 L 292 716 L 127 716 L 139 800 L 406 800 L 396 727 L 231 440 L 126 440 Z" unicode="⁷" />
<glyph horiz-adv-x="326" d="M 229 432 C 187 432 155 440 133 456 C 111 472 100 494 100 522 C 100 540 106 558 120 574 C 133 590 151 604 175 616 C 159 626 146 637 138 650 C 130 663 126 678 126 695 C 126 727 139 754 166 776 C 193 797 227 808 267 808 C 305 808 336 799 359 783 C 381 767 393 745 393 719 C 393 700 387 683 377 669 C 366 655 349 642 325 630 C 341 620 354 608 363 594 C 371 580 376 564 376 548 C 376 512 362 484 334 463 C 306 442 271 432 229 432 Z M 258 656 L 262 655 C 273 660 282 668 290 678 C 297 688 301 698 301 708 C 301 718 297 726 291 732 C 285 738 276 742 265 742 C 251 742 240 737 232 729 C 224 720 220 710 220 700 C 220 689 223 680 229 673 C 235 665 245 660 258 656 Z M 193 534 C 193 522 196 513 204 507 C 212 501 221 498 232 498 C 246 498 258 502 268 511 C 278 520 283 531 283 544 C 283 556 279 565 271 571 C 263 577 254 583 242 588 L 237 590 C 224 584 213 576 205 566 C 197 555 193 544 193 534 Z" unicode="⁸" />
<glyph horiz-adv-x="351" d="M 211 432 C 194 432 178 433 163 436 C 147 438 132 442 117 447 L 129 531 C 143 525 158 521 172 518 C 186 514 200 513 215 513 C 243 513 266 521 284 537 C 302 553 314 576 320 605 C 309 591 295 581 279 573 C 263 565 245 561 225 561 C 192 561 166 570 148 589 C 130 608 121 634 121 667 C 121 710 135 744 165 770 C 195 795 231 808 275 808 C 317 808 351 794 377 767 C 402 740 415 704 415 658 C 415 596 396 542 358 498 C 320 454 271 432 211 432 Z M 259 628 C 271 628 283 631 295 638 C 306 644 315 653 321 665 C 323 683 319 699 310 711 C 301 723 288 729 270 729 C 253 729 240 724 230 714 C 220 704 215 690 215 674 C 215 659 219 648 227 640 C 235 632 245 628 259 628 Z" unicode="⁹" />
<glyph horiz-adv-x="401" d="M 104 440 L 140 697 C 142 713 144 731 145 749 C 146 767 147 784 147 800 L 238 800 C 238 792 237 783 237 772 C 236 761 236 752 236 744 L 235 729 C 248 755 266 775 288 788 C 310 801 332 808 355 808 C 391 808 419 796 439 772 C 459 748 465 716 459 676 L 436 545 C 433 528 431 511 430 493 C 428 475 428 458 428 440 L 336 440 C 336 457 336 475 337 493 C 337 511 339 529 343 545 L 363 646 C 367 670 365 689 355 703 C 345 716 330 723 312 723 C 290 723 271 710 253 686 C 235 661 222 615 212 548 L 197 440 L 104 440 Z" unicode="ⁿ" />
<glyph horiz-adv-x="388" d="M 180 -178 C 133 -178 96 -163 69 -134 C 41 -105 28 -66 28 -18 C 28 48 45 100 79 139 C 113 178 157 198 210 198 C 258 198 295 183 322 154 C 348 125 362 87 362 39 C 362 -27 344 -79 310 -119 C 276 -158 232 -178 180 -178 Z M 185 -92 C 209 -92 228 -80 242 -58 C 256 -36 263 -5 263 33 C 263 57 257 77 247 91 C 237 105 223 112 205 112 C 181 112 162 100 148 78 C 134 56 127 26 127 -12 C 127 -38 132 -58 143 -72 C 153 -85 167 -92 185 -92 Z" unicode="₀" />
<glyph horiz-adv-x="298" d="M 7 -170 L 18 -89 L 92 -89 L 120 106 L 35 97 L 47 178 L 231 200 L 190 -89 L 264 -89 L 253 -170 L 7 -170 Z" unicode="₁" />
<glyph horiz-adv-x="312" d="M 2 -170 L 16 -67 C 77 -40 122 -15 152 6 C 181 28 196 50 196 71 C 196 85 190 96 180 103 C 169 110 155 114 138 114 C 123 114 108 111 92 106 C 76 101 59 94 43 85 L 56 178 C 74 184 93 189 111 193 C 129 196 148 198 170 198 C 210 198 241 189 264 171 C 286 153 298 128 298 94 C 298 56 280 21 246 -8 C 212 -38 163 -64 101 -86 L 274 -86 L 262 -170 L 2 -170 Z" unicode="₂" />
<glyph horiz-adv-x="308" d="M 123 -178 C 102 -178 82 -176 63 -173 C 43 -169 24 -163 4 -155 L 16 -68 C 32 -77 48 -84 64 -89 C 80 -93 98 -96 117 -96 C 135 -96 149 -92 159 -86 C 169 -79 175 -71 175 -61 C 175 -50 169 -42 159 -36 C 148 -30 131 -27 108 -27 L 84 -27 L 94 49 L 115 49 C 137 49 155 52 168 60 C 181 68 188 77 188 88 C 188 96 184 103 176 108 C 168 113 157 116 141 116 C 125 116 109 114 94 110 C 78 106 63 101 48 93 L 60 177 C 78 183 97 188 115 192 C 133 196 150 198 168 198 C 206 198 236 189 258 173 C 279 156 290 134 290 108 C 290 85 282 65 267 48 C 251 31 230 19 203 13 C 225 8 242 0 254 -14 C 266 -28 272 -44 272 -62 C 272 -97 258 -125 232 -146 C 206 -167 169 -178 123 -178 Z" unicode="₃" />
<glyph horiz-adv-x="347" d="M 161 -170 L 172 -96 L 8 -96 L 16 -31 L 174 190 L 305 190 L 275 -18 L 324 -18 L 313 -96 L 264 -96 L 254 -170 L 161 -170 Z M 183 -18 L 201 116 L 106 -18 L 183 -18 Z" unicode="₄" />
<glyph horiz-adv-x="308" d="M 119 -178 C 98 -178 78 -176 60 -172 C 41 -168 22 -162 4 -154 L 16 -68 C 30 -78 46 -85 62 -90 C 78 -95 95 -98 113 -98 C 132 -98 147 -94 159 -86 C 170 -78 176 -68 176 -55 C 176 -43 170 -33 160 -27 C 149 -20 134 -17 115 -17 C 100 -17 85 -18 69 -20 C 53 -22 38 -24 24 -27 L 67 190 L 289 190 L 277 106 L 120 106 L 110 51 C 118 52 126 53 133 54 C 140 54 147 55 154 55 C 194 55 224 45 244 27 C 264 9 275 -15 275 -46 C 275 -82 260 -113 231 -139 C 202 -165 165 -178 119 -178 Z" unicode="₅" />
<glyph horiz-adv-x="351" d="M 166 -178 C 122 -178 87 -164 62 -137 C 36 -110 24 -74 24 -28 C 24 34 43 87 81 131 C 119 175 168 198 229 198 C 245 198 260 196 276 194 C 291 191 306 187 322 183 L 310 99 C 296 104 282 108 268 112 C 254 115 239 117 224 117 C 197 117 175 108 157 92 C 139 75 127 52 121 22 C 131 35 144 45 160 53 C 175 60 192 64 211 64 C 244 64 270 54 290 36 C 309 18 319 -6 319 -37 C 319 -80 304 -114 274 -140 C 244 -165 208 -178 166 -178 Z M 168 -99 C 184 -99 198 -94 209 -84 C 219 -74 225 -60 225 -44 C 225 -31 221 -21 213 -14 C 205 -6 194 -3 181 -3 C 168 -3 156 -6 145 -13 C 133 -19 125 -28 119 -40 C 117 -56 120 -70 129 -82 C 137 -93 150 -99 168 -99 Z" unicode="₆" />
<glyph horiz-adv-x="319" d="M 40 -170 L 206 106 L 41 106 L 53 190 L 320 190 L 310 117 L 145 -170 L 40 -170 Z" unicode="₇" />
<glyph horiz-adv-x="326" d="M 143 -178 C 101 -178 69 -169 47 -153 C 25 -137 14 -115 14 -88 C 14 -69 20 -52 34 -36 C 47 -20 65 -6 89 6 C 73 16 60 27 52 40 C 44 53 40 68 40 85 C 40 117 53 144 80 166 C 107 187 141 198 181 198 C 219 198 250 189 273 173 C 295 157 307 135 307 109 C 307 90 301 73 291 59 C 280 45 263 32 239 20 C 255 10 268 -2 277 -16 C 285 -30 290 -45 290 -62 C 290 -97 276 -125 248 -146 C 220 -167 185 -178 143 -178 Z M 172 46 L 176 45 C 187 50 196 58 204 68 C 211 78 215 88 215 98 C 215 108 211 116 205 122 C 199 128 190 132 179 132 C 165 132 154 127 146 119 C 138 110 134 100 134 90 C 134 79 137 70 143 63 C 149 55 159 50 172 46 Z M 107 -76 C 107 -87 110 -96 118 -102 C 126 -108 135 -112 146 -112 C 160 -112 172 -107 182 -98 C 192 -89 197 -78 197 -66 C 197 -54 193 -44 185 -38 C 177 -32 168 -26 156 -22 L 151 -20 C 138 -25 127 -33 119 -44 C 111 -54 107 -65 107 -76 Z" unicode="₈" />
<glyph horiz-adv-x="351" d="M 125 -178 C 108 -178 92 -176 77 -174 C 61 -171 46 -167 31 -163 L 43 -79 C 57 -84 72 -88 86 -92 C 100 -95 114 -97 129 -97 C 157 -97 180 -88 198 -72 C 216 -56 228 -33 234 -5 C 223 -18 209 -29 193 -37 C 177 -45 159 -49 139 -49 C 106 -49 80 -39 62 -20 C 44 -1 35 24 35 57 C 35 100 49 134 79 160 C 109 185 145 198 189 198 C 231 198 265 184 291 157 C 316 130 329 94 329 48 C 329 -14 310 -67 272 -111 C 234 -155 185 -178 125 -178 Z M 173 18 C 185 18 197 21 209 28 C 220 34 229 43 235 55 C 237 73 233 89 224 101 C 215 113 202 119 184 119 C 167 119 154 114 144 104 C 134 94 129 80 129 64 C 129 49 133 38 141 30 C 149 22 159 18 173 18 Z" unicode="₉" />
<glyph horiz-adv-x="675" d="M 71 354 L 83 433 L 409 433 L 398 354 L 71 354 Z M 52 223 L 63 303 L 391 303 L 380 223 L 52 223 Z M 440 -15 C 340 -15 261 14 205 72 C 148 130 120 201 120 287 C 120 397 156 489 228 563 C 300 636 397 673 517 673 C 553 673 588 668 622 660 C 656 652 689 639 721 623 L 704 505 C 673 523 641 538 609 548 C 576 558 542 564 506 564 C 426 564 362 539 314 489 C 266 439 242 374 242 295 C 242 237 260 189 298 151 C 336 113 387 94 451 94 C 489 94 525 99 560 110 C 594 121 629 137 664 158 L 647 37 C 613 19 578 5 543 -2 C 508 -10 474 -15 440 -15 Z" unicode="€" />
<glyph horiz-adv-x="692" d="M 370 91 C 290 91 224 117 171 170 C 117 222 91 288 91 367 C 91 465 125 547 193 614 C 261 680 342 714 435 714 C 514 714 580 687 634 635 C 687 583 714 517 714 439 C 714 334 681 250 616 186 C 550 122 468 91 370 91 Z M 372 153 C 455 153 522 179 573 233 C 623 286 649 353 649 435 C 649 497 628 548 586 590 C 544 631 493 652 433 652 C 355 652 289 623 235 567 C 181 511 155 445 155 369 C 155 307 176 256 218 215 C 260 173 312 153 372 153 Z M 268 223 L 318 583 L 428 583 C 458 583 484 573 506 555 C 528 536 539 512 539 484 C 539 442 524 407 496 381 C 467 355 432 342 392 342 L 352 342 L 336 223 L 268 223 Z M 362 406 L 399 406 C 421 406 438 412 450 426 C 462 439 468 454 468 471 C 468 483 463 495 454 505 C 444 515 431 520 415 520 L 378 520 L 362 406 Z" unicode="℗" />
<glyph horiz-adv-x="646" d="M 170 455 L 199 656 L 127 656 L 136 718 L 352 718 L 343 656 L 272 656 L 244 455 L 170 455 Z M 344 455 L 381 718 L 489 718 L 523 604 L 590 718 L 695 718 L 658 455 L 584 455 L 611 644 L 522 495 L 481 495 L 432 645 L 405 455 L 344 455 Z" unicode="™" />
<glyph horiz-adv-x="569" d="M 296 -12 C 228 -12 174 7 133 46 C 92 85 72 139 72 207 C 72 279 95 339 141 389 C 187 438 242 463 306 463 C 336 463 363 457 386 445 C 409 433 428 417 442 397 C 432 457 403 503 356 535 C 308 567 243 584 160 584 L 178 705 C 306 705 403 669 469 599 C 535 528 569 437 569 327 C 569 225 543 143 493 81 C 443 19 377 -12 296 -12 Z M 303 96 C 344 96 376 110 400 140 C 424 169 437 207 439 253 C 439 281 429 305 410 325 C 390 345 364 355 330 355 C 292 355 260 341 235 313 C 210 285 198 252 198 212 C 198 178 207 150 227 128 C 247 106 272 96 303 96 Z" unicode="∂" />
<glyph horiz-adv-x="577" d="M 64 0 L 158 658 L 605 658 L 511 0 L 393 0 L 471 547 L 260 547 L 182 0 L 64 0 Z" unicode="∏" />
<glyph horiz-adv-x="523" d="M 46 0 L 62 112 L 306 340 L 124 547 L 140 658 L 571 658 L 555 547 L 288 547 L 461 346 L 225 119 L 496 119 L 479 0 L 46 0 Z" unicode="∑" />
<glyph horiz-adv-x="521" d="M 75 243 L 90 342 L 521 342 L 507 243 L 75 243 Z" unicode="−" />
<glyph horiz-adv-x="575" d="M 181 -2 L 72 507 L 191 507 L 269 127 L 551 706 L 662 706 L 314 -2 L 181 -2 Z" unicode="√" />
<glyph horiz-adv-x="845" d="M 227 22 C 179 22 139 39 108 73 C 77 107 62 153 62 211 C 62 281 83 338 127 381 C 171 423 225 445 291 445 C 332 445 367 434 397 414 C 426 394 451 364 473 326 C 501 365 532 394 566 414 C 599 434 636 444 676 444 C 726 444 767 427 800 394 C 832 360 849 315 849 257 C 849 185 827 128 783 86 C 739 43 685 22 619 22 C 577 22 541 32 512 52 C 483 72 458 101 437 141 C 408 101 376 71 341 51 C 306 31 268 22 227 22 Z M 653 340 C 628 340 605 332 583 316 C 561 300 538 275 515 240 C 535 200 554 171 572 153 C 589 135 609 126 632 126 C 663 126 688 137 707 160 C 726 182 736 210 736 244 C 736 272 728 295 714 313 C 699 331 679 340 653 340 Z M 175 223 C 175 194 182 171 197 153 C 211 135 231 126 257 126 C 281 126 305 134 328 150 C 351 166 373 192 395 226 C 374 266 355 295 338 313 C 320 331 300 340 278 340 C 246 340 221 328 203 306 C 184 284 175 256 175 223 Z" unicode="∞" />
<glyph horiz-adv-x="404" d="M 60 -220 C 47 -220 34 -218 22 -216 C 9 -213 -3 -209 -16 -205 L -16 -101 C -4 -105 8 -109 22 -111 C 35 -113 49 -115 65 -115 C 85 -115 101 -108 113 -96 C 125 -83 133 -65 136 -41 L 201 540 C 207 600 227 645 261 675 C 295 705 336 720 384 720 C 397 720 410 719 424 717 C 438 715 451 712 465 709 L 465 600 C 452 604 439 608 426 611 C 412 613 399 615 386 615 C 365 615 348 608 336 596 C 323 584 315 565 313 541 L 248 -42 C 241 -102 221 -146 188 -176 C 154 -205 112 -220 60 -220 Z" unicode="∫" />
<glyph horiz-adv-x="398" d="M 103 308 L 101 399 C 109 411 122 420 138 428 C 154 435 171 439 187 439 C 199 439 212 437 224 433 C 236 429 248 424 258 420 C 268 416 279 411 291 407 C 302 402 314 400 328 400 C 340 400 352 402 364 407 C 375 412 385 418 395 426 L 398 335 C 388 323 376 313 360 306 C 344 299 328 296 312 296 C 299 296 287 297 275 301 C 263 305 252 309 242 314 C 232 318 222 323 210 327 C 198 331 185 334 172 334 C 160 334 147 331 135 327 C 123 323 112 316 103 308 Z M 78 127 L 75 218 C 83 230 96 239 112 246 C 128 253 145 257 161 257 C 173 257 186 255 198 251 C 210 247 222 243 233 239 C 243 234 253 229 265 225 C 276 221 288 219 302 219 C 314 219 326 221 338 226 C 349 230 360 237 370 245 L 372 154 C 363 142 350 132 334 125 C 318 117 302 114 287 114 C 274 114 262 116 250 120 C 238 124 227 128 217 133 C 207 137 196 141 184 146 C 172 150 159 153 147 153 C 134 153 122 150 110 146 C 98 142 87 135 78 127 Z" unicode="≈" />
<glyph horiz-adv-x="524" d="M 79 31 L 382 544 L 485 544 L 182 31 L 79 31 Z M 95 337 L 110 437 L 541 437 L 526 337 L 95 337 Z M 68 148 L 83 248 L 514 248 L 500 148 L 68 148 Z" unicode="≠" />
<glyph horiz-adv-x="510" d="M 300 85 L 105 296 L 361 509 L 518 509 L 261 296 L 457 85 L 300 85 Z M 58 -100 L 72 0 L 437 0 L 422 -100 L 58 -100 Z" unicode="≤" />
<glyph horiz-adv-x="510" d="M 76 85 L 332 296 L 137 509 L 292 509 L 487 296 L 233 85 L 76 85 Z M 58 -101 L 72 0 L 438 0 L 423 -101 L 58 -101 Z" unicode="≥" />
<glyph horiz-adv-x="612" d="M 304 -36 L 93 300 L 399 636 L 603 300 L 304 -36 Z M 321 126 L 480 304 L 376 474 L 217 295 L 321 126 Z" unicode="◊" />
<glyph horiz-adv-x="575" d="M 181 -2 L 75 507 L 193 507 L 269 129 L 552 719 L 663 719 L 314 -2 L 181 -2 Z" unicode="✓" />
<glyph horiz-adv-x="685" d="M 54 0 L 70 112 L 241 112 L 246 145 C 202 158 165 185 136 226 C 106 266 92 315 92 371 C 92 458 121 530 180 587 C 238 644 316 673 414 673 C 497 673 566 649 621 603 C 675 556 703 493 703 414 C 703 346 681 287 638 237 C 594 187 541 155 478 141 L 474 112 L 644 112 L 628 0 L 371 0 L 403 224 C 459 228 503 247 535 281 C 567 315 584 357 584 407 C 584 451 568 488 537 518 C 506 548 464 563 410 563 C 352 563 304 545 267 510 C 229 474 211 430 211 376 C 211 336 223 302 247 274 C 271 246 304 229 344 225 L 313 0 L 54 0 Z" unicode="Ꞷ" />
<glyph horiz-adv-x="145" d="M 39 -250 L -43 -217 C -27 -194 -15 -173 -8 -154 C 0 -134 5 -112 9 -86 L 15 -40 L 117 -40 L 110 -86 C 105 -122 97 -152 87 -176 C 76 -200 60 -225 39 -250 Z" unicode="" />
<glyph horiz-adv-x="765" d="M 51 0 L 143 658 L 806 658 L 714 0 L 51 0 Z M 240 78 L 323 78 L 384 512 L 456 512 L 395 78 L 479 78 L 511 309 L 534 309 C 588 309 631 322 664 350 C 697 377 714 418 714 472 C 714 500 703 526 682 548 C 660 570 622 582 567 582 L 210 582 L 201 512 L 300 512 L 240 78 Z" unicode="" />
<glyph horiz-adv-x="562" d="M 86 0 L 138 366 L 71 366 L 85 468 L 152 468 L 160 528 C 168 589 191 638 228 674 C 265 710 311 728 367 728 C 385 728 406 726 428 722 C 450 718 470 712 488 704 L 472 596 C 457 604 441 611 423 616 C 405 620 387 623 371 623 C 343 623 321 614 305 598 C 289 581 278 557 274 527 L 266 468 L 343 468 L 329 366 L 252 366 L 200 0 L 86 0 Z M 349 0 C 349 21 349 43 351 65 C 353 87 355 109 358 132 L 405 468 L 520 468 L 473 132 C 470 111 468 89 466 66 C 464 42 463 20 464 0 L 349 0 Z" unicode="ﬁ" />
<glyph horiz-adv-x="575" d="M 86 0 L 138 366 L 71 366 L 85 468 L 152 468 L 160 528 C 168 589 191 638 228 674 C 265 710 311 728 367 728 C 385 728 406 726 428 722 C 450 718 470 712 488 704 L 472 596 C 457 604 441 611 423 616 C 405 620 387 623 371 623 C 343 623 321 614 305 598 C 289 581 278 557 274 527 L 266 468 L 343 468 L 329 366 L 252 366 L 200 0 L 86 0 Z M 357 0 C 356 22 356 44 358 68 C 360 91 362 113 365 135 L 447 718 L 563 718 L 480 134 C 477 112 475 89 473 67 C 471 45 471 22 473 0 L 357 0 Z" unicode="ﬂ" />
</font>
</defs>
</svg>
