<?xml version="1.0" encoding="utf-8" ?><svg version="1.1" xmlns = 'http://www.w3.org/2000/svg'><defs><font id='web' horiz-adv-x="1000">
<font-face font-family="web" descent="-252" cap-height="658" units-per-em="1000" bbox="-146,-324,1166,1000" x-height="464" ascent="748" />
<missing-glyph horiz-adv-x="500" d="M 50 -252 L 450 -252 L 450 748 L 50 748 L 50 -252 Z M 100 -202 L 100 698 L 400 698 L 400 -202 L 100 -202 Z" /><glyph horiz-adv-x="200" d="" unicode=" " />
<glyph horiz-adv-x="190" d="M 68 177 L 68 712 L 122 712 L 122 177 L 68 177 Z M 64 0 L 64 61 L 125 61 L 125 0 L 64 0 Z" unicode="!" />
<glyph horiz-adv-x="288" d="M 63 536 L 63 722 L 113 722 L 113 536 L 63 536 Z M 175 536 L 175 722 L 225 722 L 225 536 L 175 536 Z" unicode="&#x22;" />
<glyph horiz-adv-x="540" d="M 40 120 L 40 172 L 153 172 L 170 306 L 56 306 L 56 358 L 176 358 L 195 509 L 244 509 L 225 358 L 340 358 L 359 509 L 408 509 L 389 358 L 491 358 L 491 306 L 383 306 L 366 172 L 476 172 L 476 120 L 359 120 L 340 -33 L 292 -33 L 311 120 L 195 120 L 176 -33 L 127 -33 L 146 120 L 40 120 Z M 202 172 L 317 172 L 334 306 L 219 306 L 202 172 Z" unicode="#" />
<glyph horiz-adv-x="497" d="M 224 343 L 224 739 L 275 739 L 275 343 L 224 343 Z M 224 -87 L 224 335 L 275 335 L 275 -87 L 224 -87 Z M 244 -16 C 210 -16 177 -11 146 -2 C 115 7 86 21 60 39 L 60 103 C 86 81 115 64 146 53 C 177 42 209 37 242 37 C 284 37 319 48 345 71 C 371 93 384 124 384 162 C 384 197 373 226 352 248 C 330 270 296 290 249 309 L 231 315 C 175 337 134 362 108 390 C 82 418 69 456 69 502 C 69 553 86 594 120 626 C 154 658 201 674 259 674 C 289 674 317 669 345 661 C 372 653 398 641 423 625 L 423 558 C 400 578 375 594 348 605 C 321 615 292 621 261 621 C 219 621 185 610 161 589 C 137 567 125 539 125 503 C 125 470 135 444 156 424 C 176 404 209 386 253 369 L 271 362 C 330 338 373 312 400 282 C 427 252 441 214 441 167 C 441 112 423 68 387 34 C 351 0 303 -16 244 -16 Z" unicode="$" />
<glyph horiz-adv-x="828" d="M 637 -8 C 587 -8 547 9 519 43 C 491 77 477 122 477 180 C 477 237 491 283 519 317 C 547 351 587 368 637 368 C 687 368 726 351 754 317 C 782 283 797 238 797 182 C 797 124 782 77 754 43 C 726 9 687 -8 637 -8 Z M 637 37 C 671 37 697 50 717 76 C 737 102 747 136 747 180 C 747 223 737 258 717 284 C 697 310 671 323 637 323 C 603 323 576 310 557 284 C 537 258 528 224 528 182 C 528 138 537 102 557 76 C 576 50 603 37 637 37 Z M 251 0 L 520 722 L 569 722 L 299 0 L 251 0 Z M 191 352 C 141 352 101 369 73 403 C 45 437 31 482 31 540 C 31 597 45 643 73 677 C 101 711 141 728 191 728 C 241 728 280 711 308 677 C 336 643 351 598 351 542 C 351 484 336 437 308 403 C 280 369 241 352 191 352 Z M 191 397 C 225 397 251 410 271 436 C 291 462 301 496 301 540 C 301 583 291 618 271 644 C 251 670 225 683 191 683 C 157 683 130 670 111 644 C 91 618 82 584 82 542 C 82 498 91 462 111 436 C 130 410 157 397 191 397 Z" unicode="%" />
<glyph horiz-adv-x="579" d="M 227 -14 C 163 -14 112 3 76 38 C 39 73 21 119 21 177 C 21 220 32 259 54 293 C 76 327 107 354 147 374 C 130 396 118 418 110 441 C 102 464 98 487 98 510 C 98 558 114 597 147 627 C 179 657 223 672 277 672 C 308 672 337 666 365 654 C 393 642 416 625 436 605 L 428 549 C 410 573 388 591 362 603 C 336 615 309 621 281 621 C 243 621 213 610 190 589 C 167 567 156 540 156 506 C 156 486 160 465 170 445 C 179 424 193 403 211 383 L 408 153 C 420 177 430 207 438 243 C 446 278 450 318 450 364 L 501 364 C 501 313 496 266 486 223 C 476 179 461 142 442 112 L 538 0 L 463 0 L 408 64 C 387 40 361 21 330 7 C 299 -7 265 -14 227 -14 Z M 79 178 C 79 135 92 101 120 75 C 148 49 185 37 231 37 C 261 37 288 43 313 55 C 337 67 358 83 375 104 L 177 336 C 144 318 119 296 103 269 C 87 242 79 212 79 178 Z" unicode="&#x26;" />
<glyph horiz-adv-x="176" d="M 63 535 L 63 722 L 113 722 L 113 535 L 63 535 Z" unicode="'" />
<glyph horiz-adv-x="344" d="M 248 -218 C 196 -154 155 -80 125 2 C 95 85 80 168 80 252 C 80 336 95 419 125 502 C 155 585 196 658 248 722 L 313 722 C 259 655 216 580 184 497 C 152 414 136 332 136 252 C 136 170 152 88 184 6 C 216 -76 259 -151 313 -218 L 248 -218 Z" unicode="(" />
<glyph horiz-adv-x="344" d="M 31 -218 C 85 -151 128 -76 160 6 C 192 88 208 170 208 252 C 208 332 192 414 160 497 C 128 580 85 655 31 722 L 96 722 C 147 658 188 585 218 502 C 248 419 264 336 264 252 C 264 168 248 85 218 2 C 188 -80 147 -154 96 -218 L 31 -218 Z" unicode=")" />
<glyph horiz-adv-x="548" d="M 157 56 L 108 92 L 239 259 L 39 315 L 58 373 L 252 300 L 243 508 L 304 508 L 296 300 L 490 373 L 509 315 L 309 259 L 440 92 L 391 56 L 274 234 L 157 56 Z" unicode="*" />
<glyph horiz-adv-x="506" d="M 228 71 L 228 264 L 42 264 L 42 313 L 228 313 L 228 506 L 278 506 L 278 313 L 464 313 L 464 264 L 278 264 L 278 71 L 228 71 Z" unicode="+" />
<glyph horiz-adv-x="188" d="M 137 77 L 137 12 C 137 -14 132 -40 123 -65 C 114 -90 100 -113 82 -134 L 45 -114 C 58 -93 68 -73 74 -54 C 80 -35 83 -14 83 10 L 83 77 L 137 77 Z" unicode="," />
<glyph horiz-adv-x="343" d="M 38 206 L 38 255 L 305 255 L 305 206 L 38 206 Z" unicode="-" />
<glyph horiz-adv-x="165" d="M 51 0 L 51 63 L 114 63 L 114 0 L 51 0 Z" unicode="." />
<glyph horiz-adv-x="381" d="M 18 0 L 309 722 L 363 722 L 71 0 L 18 0 Z" unicode="/" />
<glyph horiz-adv-x="561" d="M 280 -13 C 202 -13 145 17 107 78 C 69 138 50 221 50 327 C 50 433 69 517 107 579 C 145 640 202 671 280 671 C 357 671 415 640 453 580 C 491 519 511 435 511 329 C 511 223 491 139 453 78 C 415 17 357 -13 280 -13 Z M 280 39 C 334 39 376 62 407 110 C 437 158 453 230 453 327 C 453 425 437 498 407 546 C 376 594 334 619 280 619 C 226 619 184 595 154 547 C 123 499 108 426 108 329 C 108 231 123 159 154 111 C 184 63 226 39 280 39 Z" unicode="0" />
<glyph horiz-adv-x="350" d="M 156 0 L 156 611 L 31 588 L 31 644 L 213 676 L 213 0 L 156 0 Z" unicode="1" />
<glyph horiz-adv-x="475" d="M 55 0 L 55 78 L 162 171 C 226 222 278 270 316 316 C 354 361 374 413 374 471 C 374 514 360 549 333 576 C 306 603 271 617 227 617 C 193 617 163 611 135 601 C 107 591 80 575 56 553 L 56 617 C 82 635 109 648 137 657 C 165 665 196 670 228 670 C 290 670 340 652 376 616 C 412 580 431 533 431 475 C 431 407 411 348 371 298 C 331 248 278 197 212 143 L 102 57 L 433 57 L 433 0 L 55 0 Z" unicode="2" />
<glyph horiz-adv-x="468" d="M 223 -12 C 187 -12 153 -6 121 4 C 88 14 58 31 30 53 L 30 117 C 55 92 84 73 118 60 C 151 46 185 40 219 40 C 264 40 300 51 327 75 C 354 99 368 131 368 172 C 368 217 352 251 318 275 C 284 298 237 310 177 310 L 146 310 L 146 363 L 173 363 C 229 363 274 375 307 399 C 339 423 356 457 356 501 C 356 538 343 567 317 587 C 291 607 259 618 222 618 C 191 618 162 612 134 602 C 106 592 81 576 59 556 L 59 617 C 83 635 108 648 136 657 C 164 665 192 670 222 670 C 282 670 329 654 363 623 C 397 592 414 554 414 508 C 414 464 401 428 376 398 C 351 368 315 349 269 339 C 315 332 353 314 382 285 C 411 255 426 217 426 169 C 426 113 407 69 371 37 C 334 4 285 -12 223 -12 Z" unicode="3" />
<glyph horiz-adv-x="532" d="M 347 0 L 347 183 L 49 183 L 49 226 L 344 670 L 404 670 L 404 234 L 503 234 L 503 183 L 404 183 L 404 0 L 347 0 Z M 347 234 L 347 588 L 114 234 L 347 234 Z" unicode="4" />
<glyph horiz-adv-x="479" d="M 217 -12 C 181 -12 148 -6 118 4 C 88 15 61 32 36 55 L 36 119 C 60 93 87 74 117 61 C 146 47 179 41 215 41 C 258 41 295 53 326 79 C 357 105 373 142 373 191 C 373 237 357 273 326 299 C 294 325 252 338 199 338 C 176 338 153 337 131 335 C 108 333 83 330 57 326 L 84 658 L 410 658 L 410 603 L 134 603 L 115 387 C 131 389 146 390 162 391 C 177 392 192 393 207 393 C 275 393 330 375 370 340 C 410 304 431 256 431 194 C 431 133 411 83 372 45 C 332 7 281 -12 217 -12 Z" unicode="5" />
<glyph horiz-adv-x="507" d="M 258 -12 C 198 -12 148 9 108 53 C 68 97 48 163 48 252 C 48 395 71 500 118 568 C 165 636 230 670 314 670 C 336 670 360 667 384 662 C 408 657 429 651 448 643 L 448 585 C 430 593 410 601 386 608 C 362 614 339 618 317 618 C 254 618 205 594 170 546 C 135 498 114 425 108 329 C 124 359 147 382 177 398 C 207 413 238 421 272 421 C 329 421 377 401 416 363 C 454 324 474 274 474 212 C 474 141 453 86 411 47 C 369 7 318 -12 258 -12 Z M 258 39 C 305 39 343 55 372 87 C 401 119 416 160 416 210 C 416 253 402 291 374 323 C 346 355 310 371 265 371 C 223 371 186 358 155 332 C 124 306 108 274 106 237 C 106 178 120 130 147 94 C 173 57 210 39 258 39 Z" unicode="6" />
<glyph horiz-adv-x="461" d="M 131 0 L 353 603 L 36 603 L 36 658 L 419 658 L 419 620 L 191 0 L 131 0 Z" unicode="7" />
<glyph horiz-adv-x="505" d="M 252 -13 C 187 -13 138 3 105 36 C 71 68 55 109 55 157 C 55 197 66 232 88 262 C 110 292 143 317 185 336 C 146 354 117 376 97 404 C 77 431 67 464 67 502 C 67 550 83 590 115 622 C 147 654 192 671 252 671 C 311 671 357 655 389 624 C 421 593 438 555 438 509 C 438 472 428 439 408 411 C 388 383 359 360 320 343 C 364 323 396 298 418 268 C 439 238 450 202 450 162 C 450 112 433 70 400 37 C 367 3 318 -13 252 -13 Z M 243 370 L 260 364 C 298 376 328 395 349 419 C 369 443 380 471 380 504 C 380 537 368 565 345 587 C 322 609 291 620 252 620 C 213 620 182 609 159 587 C 136 565 125 537 125 503 C 125 471 135 444 155 422 C 175 400 205 382 243 370 Z M 113 161 C 113 127 125 98 149 74 C 173 50 208 38 252 38 C 298 38 332 49 356 73 C 379 97 391 126 391 161 C 391 195 380 224 358 249 C 336 273 304 293 262 308 L 244 314 C 202 300 169 280 147 254 C 124 228 113 197 113 161 Z" unicode="8" />
<glyph horiz-adv-x="527" d="M 208 -12 C 185 -12 162 -9 138 -4 C 114 0 93 6 75 14 L 75 74 C 91 65 111 57 135 50 C 159 43 182 40 205 40 C 267 40 316 64 352 112 C 388 160 409 233 415 331 C 398 300 375 277 345 261 C 315 245 284 237 250 237 C 192 237 144 256 106 295 C 67 334 48 385 48 447 C 48 517 69 571 111 611 C 153 650 203 670 263 670 C 323 670 373 648 413 606 C 453 563 474 496 474 406 C 474 262 450 157 403 89 C 356 21 291 -12 208 -12 Z M 257 287 C 299 287 335 300 366 326 C 397 352 414 384 416 422 C 415 480 401 528 374 565 C 347 601 310 620 263 620 C 216 620 178 603 149 571 C 120 539 106 498 106 449 C 106 405 119 367 147 335 C 175 303 211 287 257 287 Z" unicode="9" />
<glyph horiz-adv-x="165" d="M 51 309 L 51 372 L 114 372 L 114 309 L 51 309 Z M 51 0 L 51 63 L 114 63 L 114 0 L 51 0 Z" unicode=":" />
<glyph horiz-adv-x="194" d="M 137 77 L 137 12 C 137 -14 132 -40 123 -65 C 114 -90 100 -113 82 -134 L 45 -114 C 58 -93 68 -73 74 -54 C 80 -35 83 -14 83 10 L 83 77 L 137 77 Z M 80 309 L 80 372 L 143 372 L 143 309 L 80 309 Z" unicode=";" />
<glyph horiz-adv-x="443" d="M 299 80 L 64 282 L 299 484 L 379 484 L 144 282 L 379 80 L 299 80 Z" unicode="&#x3C;" />
<glyph horiz-adv-x="508" d="M 43 334 L 43 383 L 465 383 L 465 334 L 43 334 Z M 43 189 L 43 237 L 465 237 L 465 189 L 43 189 Z" unicode="=" />
<glyph horiz-adv-x="427" d="M 55 80 L 290 282 L 55 484 L 134 484 L 369 282 L 134 80 L 55 80 Z" unicode="&#x3E;" />
<glyph horiz-adv-x="445" d="M 177 177 C 177 215 184 250 199 283 C 213 315 239 349 275 383 C 301 407 321 430 333 454 C 345 478 351 504 351 532 C 351 577 337 613 309 640 C 281 666 243 680 195 680 C 166 680 138 674 110 663 C 82 651 60 636 42 617 L 42 678 C 62 694 87 706 115 716 C 143 726 172 731 201 731 C 265 731 316 713 353 677 C 390 641 409 594 409 536 C 409 502 402 470 388 442 C 374 413 350 383 316 353 C 287 327 266 300 252 272 C 238 244 232 213 232 177 L 177 177 Z M 174 0 L 174 61 L 235 61 L 235 0 L 174 0 Z" unicode="?" />
<glyph horiz-adv-x="786" d="M 384 -70 C 292 -70 213 -38 145 25 C 77 89 43 172 43 275 C 43 379 77 463 147 528 C 216 592 298 625 392 625 C 486 625 568 595 638 537 C 708 479 743 403 743 309 C 743 249 729 200 703 163 C 677 125 641 107 597 107 C 569 107 543 115 521 132 C 499 148 484 175 478 212 C 464 172 444 144 419 129 C 393 114 369 107 346 107 C 308 107 277 119 254 144 C 230 169 219 204 219 248 C 219 311 239 362 281 400 C 323 438 374 458 436 458 C 450 458 467 456 485 454 C 503 452 520 449 537 445 L 515 275 C 510 235 515 203 530 181 C 545 158 568 147 598 147 C 630 147 655 161 673 190 C 691 219 700 258 700 308 C 700 382 671 446 614 501 C 557 556 483 584 392 584 C 300 584 226 553 170 492 C 114 430 86 358 86 276 C 86 193 113 121 168 61 C 223 1 295 -29 384 -29 C 414 -29 445 -25 475 -17 C 505 -9 534 1 562 16 L 562 -30 C 533 -42 504 -52 474 -59 C 444 -66 414 -70 384 -70 Z M 353 148 C 374 148 397 158 423 180 C 449 201 468 260 481 358 L 488 412 C 479 414 470 415 462 416 C 453 417 443 418 433 418 C 386 418 346 402 313 372 C 280 341 264 300 264 250 C 264 219 272 194 288 176 C 304 157 325 148 353 148 Z" unicode="@" />
<glyph horiz-adv-x="621" d="M 21 0 L 282 667 L 337 667 L 599 0 L 538 0 L 451 224 L 165 224 L 78 0 L 21 0 Z M 289 545 L 184 275 L 432 275 L 327 545 L 308 597 L 289 545 Z" unicode="A" />
<glyph horiz-adv-x="520" d="M 79 0 L 79 658 L 237 658 C 305 658 355 643 389 615 C 423 586 440 546 440 495 C 440 459 431 427 413 398 C 395 368 366 348 324 338 C 374 328 410 308 432 279 C 453 249 464 215 464 176 C 464 121 447 78 413 47 C 379 15 326 0 254 0 L 79 0 Z M 136 359 L 234 359 C 278 359 314 369 342 391 C 369 413 383 445 383 488 C 383 529 369 559 343 579 C 316 598 281 608 237 608 L 136 608 L 136 359 Z M 136 50 L 255 50 C 303 50 340 60 366 82 C 392 103 406 136 406 180 C 406 223 392 255 364 277 C 336 299 295 310 243 310 L 136 310 L 136 50 Z" unicode="B" />
<glyph horiz-adv-x="657" d="M 400 -13 C 296 -13 212 17 148 79 C 84 141 52 224 52 328 C 52 431 83 514 146 577 C 209 639 294 671 400 671 C 438 671 474 667 507 659 C 540 651 572 638 604 622 L 604 563 C 573 582 541 596 508 605 C 475 614 439 619 400 619 C 312 619 241 592 189 539 C 137 485 111 415 111 328 C 111 240 137 169 191 117 C 245 65 314 39 400 39 C 440 39 477 44 511 55 C 545 66 578 83 611 105 L 611 44 C 578 24 544 9 510 0 C 475 -8 438 -13 400 -13 Z" unicode="C" />
<glyph horiz-adv-x="685" d="M 79 0 L 79 658 L 270 658 C 380 658 468 628 534 570 C 600 511 633 433 633 337 C 633 235 599 154 532 92 C 464 30 374 0 262 0 L 79 0 Z M 136 53 L 264 53 C 359 53 435 78 491 130 C 547 182 575 251 575 337 C 575 418 547 483 493 532 C 438 580 364 605 272 605 L 136 605 L 136 53 Z" unicode="D" />
<glyph horiz-adv-x="489" d="M 79 0 L 79 658 L 421 658 L 421 605 L 136 605 L 136 360 L 407 360 L 407 307 L 136 307 L 136 53 L 432 53 L 432 0 L 79 0 Z" unicode="E" />
<glyph horiz-adv-x="442" d="M 79 0 L 79 658 L 407 658 L 407 605 L 136 605 L 136 360 L 379 360 L 379 307 L 136 307 L 136 0 L 79 0 Z" unicode="F" />
<glyph horiz-adv-x="689" d="M 388 -13 C 286 -13 204 18 143 81 C 82 143 52 227 52 331 C 52 434 82 516 144 578 C 206 640 288 671 391 671 C 427 671 462 667 498 660 C 533 652 567 641 599 627 L 599 569 C 567 585 535 598 501 606 C 467 614 430 619 392 619 C 306 619 238 592 187 540 C 136 488 111 418 111 331 C 111 242 136 171 186 118 C 236 65 302 39 386 39 C 418 39 449 42 481 48 C 513 54 542 64 570 76 L 570 268 L 428 268 L 428 321 L 627 321 L 627 40 C 591 23 553 10 511 1 C 469 -8 428 -13 388 -13 Z" unicode="G" />
<glyph horiz-adv-x="684" d="M 79 0 L 79 658 L 136 658 L 136 364 L 548 364 L 548 658 L 605 658 L 605 0 L 548 0 L 548 312 L 136 312 L 136 0 L 79 0 Z" unicode="H" />
<glyph horiz-adv-x="215" d="M 79 0 L 79 658 L 136 658 L 136 0 L 79 0 Z" unicode="I" />
<glyph horiz-adv-x="217" d="M -13 -218 L -21 -218 L -21 -165 L -13 -165 C 15 -165 38 -156 55 -138 C 72 -120 81 -95 81 -63 L 81 658 L 138 658 L 138 -63 C 138 -110 124 -148 97 -176 C 69 -204 33 -218 -13 -218 Z" unicode="J" />
<glyph horiz-adv-x="558" d="M 79 0 L 79 658 L 136 658 L 136 351 L 439 658 L 511 658 L 193 339 L 527 0 L 449 0 L 136 319 L 136 0 L 79 0 Z" unicode="K" />
<glyph horiz-adv-x="458" d="M 79 0 L 79 658 L 136 658 L 136 53 L 438 53 L 438 0 L 79 0 Z" unicode="L" />
<glyph horiz-adv-x="764" d="M 79 0 L 79 658 L 162 658 L 360 246 L 383 192 L 406 246 L 604 658 L 685 658 L 685 0 L 628 0 L 628 537 L 629 592 L 605 537 L 407 125 L 355 125 L 156 537 L 132 592 L 132 537 L 132 0 L 79 0 Z" unicode="M" />
<glyph horiz-adv-x="711" d="M 79 0 L 79 658 L 142 658 L 546 123 L 578 78 L 578 123 L 578 658 L 631 658 L 631 0 L 569 0 L 164 536 L 132 581 L 132 537 L 132 0 L 79 0 Z" unicode="N" />
<glyph horiz-adv-x="777" d="M 388 -14 C 289 -14 208 17 146 81 C 83 145 52 227 52 329 C 52 431 83 513 147 577 C 210 640 290 672 388 672 C 486 672 566 640 629 577 C 692 514 724 431 724 329 C 724 226 692 143 630 80 C 568 17 487 -14 388 -14 Z M 388 38 C 469 38 536 64 588 118 C 640 172 666 242 666 329 C 666 415 640 485 588 539 C 536 593 469 620 388 620 C 307 620 241 593 189 539 C 137 485 111 415 111 329 C 111 242 137 172 189 118 C 241 64 307 38 388 38 Z" unicode="O" />
<glyph horiz-adv-x="472" d="M 79 0 L 79 658 L 195 658 C 272 658 331 639 372 602 C 412 564 433 515 433 453 C 433 391 412 341 372 304 C 331 266 272 248 195 248 L 136 248 L 136 0 L 79 0 Z M 136 300 L 196 300 C 250 300 293 313 326 339 C 358 365 375 403 375 453 C 375 503 358 541 325 567 C 292 593 249 606 195 606 L 136 606 L 136 300 Z" unicode="P" />
<glyph horiz-adv-x="777" d="M 679 -135 C 625 -126 574 -109 528 -83 C 481 -57 443 -27 414 8 L 482 25 C 506 -3 536 -27 570 -45 C 604 -63 645 -74 691 -80 L 679 -135 Z M 388 -14 C 289 -14 208 17 146 81 C 83 145 52 227 52 329 C 52 431 83 513 147 577 C 210 640 290 672 388 672 C 486 672 566 640 629 577 C 692 514 724 431 724 329 C 724 226 692 143 630 80 C 568 17 487 -14 388 -14 Z M 388 38 C 469 38 536 64 588 118 C 640 172 666 242 666 329 C 666 415 640 485 588 539 C 536 593 469 620 388 620 C 307 620 241 593 189 539 C 137 485 111 415 111 329 C 111 242 137 172 189 118 C 241 64 307 38 388 38 Z" unicode="Q" />
<glyph horiz-adv-x="516" d="M 424 0 L 342 217 C 330 247 315 269 295 283 C 275 296 251 303 223 303 L 136 303 L 136 0 L 79 0 L 79 658 L 236 658 C 296 658 343 642 378 612 C 413 581 431 540 431 488 C 431 448 420 414 399 384 C 378 354 348 334 310 324 C 330 317 347 306 361 291 C 375 275 387 256 397 232 L 486 0 L 424 0 Z M 136 353 L 240 353 C 281 353 313 364 337 387 C 361 410 373 442 373 482 C 373 520 360 550 335 573 C 309 595 276 607 235 607 L 136 607 L 136 353 Z" unicode="R" />
<glyph horiz-adv-x="505" d="M 247 -16 C 213 -16 180 -11 149 -2 C 118 7 89 21 63 39 L 63 103 C 89 81 118 64 149 53 C 180 42 212 37 245 37 C 287 37 322 48 348 71 C 374 93 387 124 387 162 C 387 197 376 226 355 248 C 333 270 299 290 252 309 L 234 315 C 178 337 137 362 111 390 C 85 418 72 456 72 502 C 72 553 89 594 123 626 C 157 658 204 674 262 674 C 292 674 320 669 348 661 C 375 653 401 641 426 625 L 426 558 C 403 578 378 594 351 605 C 324 615 295 621 264 621 C 222 621 188 610 164 589 C 140 567 128 539 128 503 C 128 470 138 444 159 424 C 179 404 212 386 256 369 L 274 362 C 333 338 376 312 403 282 C 430 252 444 214 444 167 C 444 112 426 68 390 34 C 354 0 306 -16 247 -16 Z" unicode="S" />
<glyph horiz-adv-x="546" d="M 245 0 L 245 605 L 20 605 L 20 658 L 526 658 L 526 605 L 302 605 L 302 0 L 245 0 Z" unicode="T" />
<glyph horiz-adv-x="669" d="M 334 -12 C 256 -12 193 13 145 63 C 97 113 74 178 74 260 L 74 658 L 131 658 L 131 260 C 131 194 149 142 187 102 C 224 62 273 42 334 42 C 396 42 446 62 484 102 C 522 142 542 194 542 260 L 542 658 L 594 658 L 594 260 C 594 178 570 113 523 63 C 475 13 412 -12 334 -12 Z" unicode="U" />
<glyph horiz-adv-x="623" d="M 284 0 L 20 658 L 82 658 L 295 121 L 314 71 L 333 121 L 545 658 L 603 658 L 339 0 L 284 0 Z" unicode="V" />
<glyph horiz-adv-x="919" d="M 221 0 L 14 658 L 74 658 L 241 121 L 253 76 L 265 121 L 433 658 L 491 658 L 658 121 L 671 75 L 683 121 L 850 658 L 905 658 L 698 0 L 638 0 L 472 538 L 460 584 L 447 538 L 281 0 L 221 0 Z" unicode="W" />
<glyph horiz-adv-x="594" d="M 31 0 L 262 336 L 44 658 L 113 658 L 271 423 L 296 385 L 322 423 L 481 658 L 544 658 L 327 341 L 563 0 L 494 0 L 318 256 L 292 294 L 267 256 L 95 0 L 31 0 Z" unicode="X" />
<glyph horiz-adv-x="554" d="M 248 0 L 248 293 L 9 658 L 76 658 L 253 390 L 280 346 L 307 390 L 483 658 L 545 658 L 305 293 L 305 0 L 248 0 Z" unicode="Y" />
<glyph horiz-adv-x="595" d="M 59 0 L 59 32 L 425 567 L 451 605 L 64 605 L 64 658 L 536 658 L 536 628 L 168 91 L 142 53 L 536 53 L 536 0 L 59 0 Z" unicode="Z" />
<glyph horiz-adv-x="334" d="M 96 -218 L 96 722 L 290 722 L 290 674 L 151 674 L 151 -169 L 290 -169 L 290 -218 L 96 -218 Z" unicode="[" />
<glyph horiz-adv-x="381" d="M 310 0 L 18 722 L 71 722 L 363 0 L 310 0 Z" unicode="\" />
<glyph horiz-adv-x="334" d="M 45 -218 L 45 -169 L 183 -169 L 183 674 L 45 674 L 45 722 L 238 722 L 238 -218 L 45 -218 Z" unicode="]" />
<glyph horiz-adv-x="377" d="M 118 524 L 64 524 L 166 650 L 210 650 L 312 524 L 258 524 L 188 606 L 118 524 Z" unicode="^" />
<glyph horiz-adv-x="385" d="M 0 -218 L 0 -168 L 385 -168 L 385 -218 L 0 -218 Z" unicode="_" />
<glyph horiz-adv-x="238" d="M 138 524 L 33 655 L 98 655 L 196 524 L 138 524 Z" unicode="`" />
<glyph horiz-adv-x="437" d="M 180 -10 C 136 -10 101 2 75 26 C 49 50 37 82 37 122 C 37 162 52 196 82 224 C 112 252 156 269 212 276 L 318 289 L 318 324 C 318 358 308 383 288 399 C 268 415 240 424 205 424 C 177 424 152 420 128 412 C 104 404 81 393 58 377 L 58 435 C 82 447 107 457 132 464 C 157 471 183 475 210 475 C 261 475 301 462 330 437 C 359 411 374 374 374 325 L 374 0 L 323 0 L 318 64 C 303 40 284 21 260 9 C 236 -3 209 -10 180 -10 Z M 191 37 C 220 37 246 44 268 59 C 290 74 307 94 318 118 L 318 245 L 219 233 C 178 228 147 216 125 197 C 103 178 93 154 93 126 C 93 99 101 77 119 61 C 136 45 160 37 191 37 Z" unicode="a" />
<glyph horiz-adv-x="509" d="M 235 -10 C 206 -10 178 -7 151 -3 C 124 1 97 9 71 20 L 71 722 L 127 722 L 127 420 C 143 436 164 449 188 459 C 212 469 236 474 261 474 C 321 474 370 452 407 410 C 444 368 463 311 463 239 C 463 162 442 101 400 57 C 358 12 303 -10 235 -10 Z M 237 39 C 287 39 328 56 360 92 C 391 127 407 175 407 235 C 407 293 393 340 365 374 C 337 408 299 425 252 425 C 227 425 204 420 184 412 C 164 403 145 389 127 371 L 127 56 C 145 50 163 45 181 43 C 199 40 217 39 237 39 Z" unicode="b" />
<glyph horiz-adv-x="467" d="M 280 -10 C 209 -10 152 11 110 55 C 67 98 46 156 46 230 C 46 306 66 365 108 409 C 150 452 206 474 276 474 C 301 474 326 470 350 464 C 374 457 399 447 423 435 L 423 376 C 398 392 374 403 352 411 C 329 418 304 422 278 422 C 224 422 181 405 149 372 C 117 339 102 292 102 231 C 102 172 118 126 151 92 C 184 58 228 41 282 41 C 308 41 332 45 356 54 C 379 62 401 75 421 91 L 421 32 C 400 18 378 7 354 0 C 330 -6 305 -10 280 -10 Z" unicode="c" />
<glyph horiz-adv-x="513" d="M 251 -10 C 191 -10 141 10 103 51 C 65 91 46 151 46 230 C 46 308 66 369 106 411 C 146 453 197 474 259 474 C 282 474 305 470 327 463 C 349 455 370 445 390 432 L 390 722 L 445 722 L 445 0 L 395 0 L 390 64 C 374 40 354 21 330 9 C 305 -3 279 -10 251 -10 Z M 259 39 C 288 39 314 46 337 61 C 359 75 377 95 390 120 L 390 378 C 371 393 351 405 330 413 C 309 421 287 425 264 425 C 214 425 174 407 145 372 C 116 336 102 290 102 232 C 102 173 115 126 143 91 C 171 56 209 39 259 39 Z" unicode="d" />
<glyph horiz-adv-x="502" d="M 274 -10 C 200 -10 144 11 105 55 C 65 98 46 157 46 233 C 46 304 65 362 103 407 C 141 451 192 474 256 474 C 318 474 366 454 402 415 C 438 376 456 322 456 252 L 456 222 L 102 222 C 102 165 118 120 148 88 C 178 55 222 39 278 39 C 306 39 335 44 363 54 C 391 64 418 79 445 100 L 445 45 C 417 26 388 12 360 3 C 331 -5 302 -10 274 -10 Z M 255 427 C 212 427 176 412 148 383 C 120 353 104 315 102 267 L 400 267 C 400 316 387 355 361 384 C 335 412 300 427 255 427 Z" unicode="e" />
<glyph horiz-adv-x="249" d="M 93 0 L 93 413 L 17 413 L 17 464 L 93 464 L 93 563 C 93 613 106 654 132 685 C 158 716 195 732 243 732 C 259 732 276 730 292 726 C 308 722 324 717 340 711 L 340 654 C 326 662 311 669 295 673 C 279 677 262 680 246 680 C 216 680 192 670 174 650 C 156 630 148 602 148 564 L 148 464 L 233 464 L 233 413 L 148 413 L 148 0 L 93 0 Z" unicode="f" />
<glyph horiz-adv-x="517" d="M 245 -226 C 215 -226 185 -222 153 -214 C 121 -206 92 -195 66 -181 L 66 -122 C 90 -137 118 -150 148 -160 C 178 -170 209 -175 240 -175 C 286 -175 323 -160 351 -131 C 379 -102 394 -63 394 -14 L 394 57 C 377 35 356 18 332 7 C 308 -4 282 -10 256 -10 C 194 -10 143 10 104 51 C 65 92 46 152 46 231 C 46 308 66 368 107 410 C 148 452 200 474 262 474 C 287 474 313 469 340 459 C 366 449 388 435 405 419 L 419 464 L 449 464 L 449 -11 C 449 -75 430 -127 393 -167 C 356 -206 307 -226 245 -226 Z M 263 39 C 292 39 318 46 341 61 C 363 75 381 94 394 118 L 394 371 C 380 387 361 400 337 410 C 313 420 289 425 266 425 C 216 425 176 407 146 371 C 116 335 102 288 102 232 C 102 174 116 127 144 92 C 172 56 211 39 263 39 Z" unicode="g" />
<glyph horiz-adv-x="498" d="M 71 0 L 71 722 L 127 722 L 127 400 C 143 422 164 440 189 454 C 214 467 241 474 269 474 C 321 474 360 458 388 428 C 415 398 429 357 429 306 L 429 0 L 374 0 L 374 297 C 374 339 363 370 342 392 C 321 413 293 424 258 424 C 231 424 206 416 183 402 C 159 388 141 369 127 347 L 127 0 L 71 0 Z" unicode="h" />
<glyph horiz-adv-x="203" d="M 71 624 L 71 684 L 132 684 L 132 624 L 71 624 Z M 74 0 L 74 464 L 130 464 L 130 0 L 74 0 Z" unicode="i" />
<glyph horiz-adv-x="179" d="M 59 641 L 59 701 L 120 701 L 120 641 L 59 641 Z M -33 -218 L -41 -218 L -41 -167 L -33 -167 C -4 -167 18 -156 36 -136 C 53 -116 62 -89 62 -56 L 62 464 L 117 464 L 117 -56 C 117 -105 103 -144 76 -174 C 48 -203 12 -218 -33 -218 Z" unicode="j" />
<glyph horiz-adv-x="442" d="M 71 0 L 71 722 L 127 722 L 127 254 L 338 464 L 406 464 L 183 244 L 431 0 L 358 0 L 127 226 L 127 0 L 71 0 Z" unicode="k" />
<glyph horiz-adv-x="198" d="M 71 0 L 71 722 L 127 722 L 127 0 L 71 0 Z" unicode="l" />
<glyph horiz-adv-x="794" d="M 71 0 L 71 464 L 127 464 L 127 400 C 143 422 164 440 188 454 C 212 467 238 474 267 474 C 301 474 330 466 355 452 C 379 437 398 416 410 390 C 428 417 451 438 479 452 C 506 466 535 474 565 474 C 613 474 651 459 681 429 C 710 399 725 359 725 308 L 725 0 L 669 0 L 669 298 C 669 336 658 367 638 390 C 617 412 589 424 554 424 C 529 424 505 417 482 405 C 458 393 438 375 422 353 C 423 346 424 339 425 332 C 425 325 426 318 426 312 L 426 0 L 370 0 L 370 298 C 370 336 359 367 339 390 C 319 412 291 424 255 424 C 229 424 204 417 182 403 C 160 389 141 370 127 347 L 127 0 L 71 0 Z" unicode="m" />
<glyph horiz-adv-x="498" d="M 71 0 L 71 464 L 127 464 L 127 400 C 143 422 164 440 189 454 C 214 467 241 474 269 474 C 321 474 360 458 388 428 C 415 398 429 357 429 306 L 429 0 L 374 0 L 374 297 C 374 339 363 370 342 392 C 321 413 293 424 258 424 C 231 424 206 416 183 402 C 159 388 141 369 127 347 L 127 0 L 71 0 Z" unicode="n" />
<glyph horiz-adv-x="557" d="M 279 -10 C 209 -10 153 12 110 56 C 67 100 46 159 46 231 C 46 303 67 362 110 407 C 153 451 209 474 279 474 C 348 474 404 451 447 407 C 489 363 511 304 511 232 C 511 159 489 100 447 56 C 404 12 348 -10 279 -10 Z M 279 40 C 331 40 373 57 406 92 C 438 127 455 173 455 231 C 455 288 438 334 406 370 C 373 406 331 424 279 424 C 226 424 183 406 151 371 C 118 335 102 289 102 232 C 102 174 118 128 151 93 C 183 57 226 40 279 40 Z" unicode="o" />
<glyph horiz-adv-x="509" d="M 71 -218 L 71 464 L 127 464 L 127 407 C 141 427 160 444 185 456 C 210 468 236 474 264 474 C 324 474 372 452 409 410 C 445 367 464 310 464 239 C 464 162 443 101 403 57 C 362 12 310 -10 247 -10 C 225 -10 203 -7 183 -1 C 162 5 143 13 127 24 L 127 -218 L 71 -218 Z M 244 39 C 291 39 330 56 361 92 C 391 127 407 175 407 235 C 407 293 393 340 365 374 C 337 408 299 425 252 425 C 228 425 204 419 181 407 C 157 395 139 378 127 358 L 127 75 C 143 63 161 54 181 48 C 200 42 221 39 244 39 Z" unicode="p" />
<glyph horiz-adv-x="512" d="M 389 -218 L 389 57 C 372 35 351 18 327 7 C 302 -4 276 -10 249 -10 C 189 -10 140 10 102 52 C 64 93 46 152 46 230 C 46 309 66 369 106 411 C 146 453 196 474 257 474 C 282 474 308 469 335 459 C 361 449 383 435 400 419 L 410 464 L 444 464 L 444 -218 L 389 -218 Z M 257 40 C 287 40 313 47 336 61 C 358 75 376 93 389 116 L 389 371 C 375 387 356 400 332 410 C 308 420 284 425 262 425 C 212 425 173 407 145 372 C 116 336 102 290 102 232 C 102 174 115 127 142 92 C 168 57 207 40 257 40 Z" unicode="q" />
<glyph horiz-adv-x="303" d="M 71 0 L 71 464 L 127 464 L 127 397 C 135 421 150 439 171 453 C 191 467 213 474 236 474 C 246 474 256 473 266 471 C 276 469 285 467 295 464 L 295 401 C 284 405 273 409 262 412 C 251 414 240 416 229 416 C 205 416 184 409 166 395 C 148 381 135 364 127 344 L 127 0 L 71 0 Z" unicode="r" />
<glyph horiz-adv-x="387" d="M 188 -10 C 163 -10 139 -6 115 0 C 91 6 68 16 47 28 L 47 83 C 67 68 89 57 113 49 C 137 41 161 38 187 38 C 217 38 241 45 259 59 C 276 73 285 94 285 120 C 285 142 276 160 260 175 C 243 190 218 203 186 214 L 171 219 C 129 232 98 249 78 269 C 58 289 49 316 49 349 C 49 387 61 418 87 441 C 112 463 148 475 194 475 C 216 475 239 472 262 467 C 284 461 306 454 327 444 L 327 389 C 307 401 286 411 264 417 C 242 423 219 427 196 427 C 167 427 145 420 129 407 C 113 393 105 375 105 353 C 105 334 111 318 125 304 C 138 290 160 279 190 270 L 206 265 C 252 249 286 231 308 209 C 330 187 341 159 341 125 C 341 83 327 50 300 26 C 273 2 236 -10 188 -10 Z" unicode="s" />
<glyph horiz-adv-x="298" d="M 184 -9 C 154 -9 131 0 114 17 C 96 35 88 59 88 89 L 88 413 L 16 413 L 16 464 L 88 464 L 88 617 L 144 617 L 144 464 L 264 464 L 264 413 L 144 413 L 144 99 C 144 81 148 68 158 58 C 168 48 181 43 197 43 C 209 43 221 44 232 48 C 242 51 253 57 264 65 L 264 12 C 252 4 239 0 226 -4 C 212 -7 198 -9 184 -9 Z" unicode="t" />
<glyph horiz-adv-x="496" d="M 228 -10 C 176 -10 136 5 109 37 C 82 69 69 110 69 161 L 69 464 L 124 464 L 124 167 C 124 126 134 95 155 73 C 175 51 204 40 240 40 C 270 40 297 47 319 63 C 341 78 357 97 369 121 L 369 464 L 424 464 L 424 0 L 375 0 L 369 64 C 353 40 333 21 310 9 C 286 -3 259 -10 228 -10 Z" unicode="u" />
<glyph horiz-adv-x="458" d="M 201 0 L 18 464 L 78 464 L 216 110 L 231 68 L 245 110 L 384 464 L 440 464 L 257 0 L 201 0 Z" unicode="v" />
<glyph horiz-adv-x="724" d="M 173 0 L 18 464 L 76 464 L 194 110 L 207 66 L 219 110 L 336 464 L 393 464 L 511 110 L 523 66 L 535 110 L 653 464 L 706 464 L 551 0 L 491 0 L 376 345 L 363 392 L 350 345 L 233 0 L 173 0 Z" unicode="w" />
<glyph horiz-adv-x="426" d="M 17 0 L 183 238 L 28 464 L 94 464 L 189 321 L 215 282 L 240 321 L 337 464 L 401 464 L 247 240 L 415 0 L 350 0 L 238 162 L 214 198 L 190 162 L 78 0 L 17 0 Z" unicode="x" />
<glyph horiz-adv-x="449" d="M 2 -218 L -6 -218 L -6 -167 L 2 -167 C 44 -167 80 -155 110 -131 C 140 -107 170 -64 198 -2 L 190 19 L 15 464 L 75 464 L 214 110 L 228 68 L 242 110 L 381 464 L 437 464 L 258 10 C 224 -76 187 -135 147 -168 C 107 -201 58 -218 2 -218 Z" unicode="y" />
<glyph horiz-adv-x="428" d="M 43 0 L 43 38 L 283 383 L 306 413 L 47 413 L 47 464 L 381 464 L 381 426 L 140 80 L 118 51 L 386 51 L 386 0 L 43 0 Z" unicode="z" />
<glyph horiz-adv-x="445" d="M 374 -218 C 308 -218 257 -202 223 -171 C 188 -139 173 -92 177 -28 L 185 90 C 187 128 177 159 155 181 C 133 203 100 218 57 225 L 57 281 C 100 287 133 302 155 324 C 177 346 187 376 185 415 L 177 533 C 173 597 188 644 223 676 C 257 707 308 723 374 723 L 402 723 L 402 674 L 373 674 C 325 674 290 662 266 638 C 242 614 231 577 234 528 L 242 415 C 245 371 236 335 215 309 C 193 282 164 264 126 254 L 126 253 C 164 240 193 220 214 193 C 235 166 244 132 242 90 L 234 -23 C 231 -72 242 -109 266 -133 C 290 -157 325 -169 373 -169 L 402 -169 L 402 -218 L 374 -218 Z" unicode="{" />
<glyph horiz-adv-x="210" d="M 80 -218 L 80 722 L 130 722 L 130 -218 L 80 -218 Z" unicode="|" />
<glyph horiz-adv-x="445" d="M 44 -218 L 44 -169 L 72 -169 C 119 -169 155 -157 179 -133 C 203 -109 214 -72 211 -23 L 203 90 C 200 132 209 167 230 194 C 251 221 281 240 319 252 L 319 253 C 281 263 251 282 230 309 C 209 335 200 371 203 415 L 211 527 C 214 576 203 613 179 637 C 155 661 119 673 72 673 L 44 673 L 44 722 L 71 722 C 137 722 188 706 223 675 C 257 643 272 596 268 532 L 260 415 C 257 376 267 345 289 323 C 311 301 344 286 388 280 L 388 225 C 344 218 311 203 289 181 C 267 159 257 128 260 90 L 268 -28 C 272 -92 257 -139 223 -171 C 188 -202 137 -218 71 -218 L 44 -218 Z" unicode="}" />
<glyph horiz-adv-x="385" d="M 85 146 L 46 146 C 48 178 57 202 73 218 C 88 234 107 242 130 242 C 141 242 152 239 164 233 C 175 227 188 219 203 209 C 212 201 221 195 229 190 C 237 185 245 183 255 183 C 266 183 276 187 284 196 C 292 204 297 217 299 234 L 338 234 C 335 201 326 177 310 161 C 294 145 275 138 254 138 C 240 138 228 140 217 146 C 205 152 193 160 181 171 C 171 179 162 186 154 190 C 146 194 137 197 129 197 C 117 197 107 192 99 184 C 91 175 86 162 85 146 Z" unicode="~" />
<glyph horiz-adv-x="188" d="M 63 449 L 63 510 L 125 510 L 125 449 L 63 449 Z M 67 -207 L 67 333 L 121 333 L 121 -207 L 67 -207 Z" unicode="¡" />
<glyph horiz-adv-x="488" d="M 240 456 L 240 567 L 289 567 L 289 456 L 240 456 Z M 240 -102 L 240 443 L 289 443 L 289 -102 L 240 -102 Z M 280 -10 C 209 -10 152 11 110 55 C 67 98 46 156 46 230 C 46 306 66 365 108 409 C 150 452 206 474 276 474 C 301 474 326 470 350 464 C 374 457 399 447 423 435 L 423 376 C 398 392 374 403 352 411 C 329 418 304 422 278 422 C 224 422 181 405 149 372 C 117 339 102 292 102 231 C 102 172 118 126 151 92 C 184 58 228 41 282 41 C 308 41 332 45 356 54 C 379 62 401 75 421 91 L 421 32 C 400 18 378 7 354 0 C 330 -6 305 -10 280 -10 Z" unicode="¢" />
<glyph horiz-adv-x="516" d="M 59 0 L 59 54 C 97 78 125 110 143 151 C 160 192 162 244 148 306 L 147 311 L 51 311 L 51 362 L 135 362 L 125 409 C 107 488 115 552 147 600 C 179 648 231 672 305 672 C 333 672 360 669 388 663 C 416 657 442 648 468 637 L 468 579 C 443 593 417 604 391 611 C 364 617 336 621 308 621 C 256 621 219 602 196 564 C 172 526 168 476 182 412 L 193 362 L 369 362 L 369 311 L 205 311 L 205 309 C 216 255 216 207 204 164 C 192 120 169 84 133 55 L 456 55 L 456 0 L 59 0 Z" unicode="£" />
<glyph horiz-adv-x="624" d="M 84 43 L 47 82 L 164 190 C 154 204 147 219 142 237 C 136 254 134 272 134 292 C 134 314 137 334 144 354 C 151 374 161 391 174 407 L 84 506 L 125 544 L 215 444 C 229 452 244 459 260 464 C 276 469 294 472 312 472 C 333 472 353 468 373 461 C 392 454 409 444 425 432 L 542 538 L 579 499 L 461 392 C 469 377 476 361 482 345 C 487 328 490 310 490 292 C 490 269 486 248 479 228 C 471 208 461 190 449 175 L 538 75 L 498 37 L 407 138 C 393 129 378 122 362 118 C 346 113 329 111 312 111 C 291 111 271 114 252 121 C 232 127 215 137 201 150 L 84 43 Z M 312 161 C 348 161 378 173 402 199 C 426 225 439 256 439 292 C 439 327 426 357 402 383 C 378 408 348 421 312 421 C 276 421 245 408 221 383 C 197 357 185 327 185 292 C 185 256 197 225 221 199 C 245 173 276 161 312 161 Z" unicode="¤" />
<glyph horiz-adv-x="551" d="M 138 238 L 138 282 L 413 282 L 413 238 L 138 238 Z M 138 135 L 138 178 L 413 178 L 413 135 L 138 135 Z M 248 0 L 248 293 L 9 658 L 76 658 L 253 390 L 280 346 L 307 390 L 483 658 L 545 658 L 305 293 L 305 0 L 248 0 Z" unicode="¥" />
<glyph horiz-adv-x="208" d="M 80 314 L 80 722 L 130 722 L 130 314 L 80 314 Z M 80 -218 L 80 190 L 128 190 L 128 -218 L 80 -218 Z" unicode="¦" />
<glyph horiz-adv-x="389" d="M 182 -10 C 157 -10 133 -6 110 0 C 87 5 65 15 45 28 L 45 85 C 65 69 86 57 109 49 C 131 41 155 37 180 37 C 206 37 229 44 247 59 C 265 73 274 93 274 119 C 274 141 267 161 253 177 C 239 193 215 206 183 217 L 168 222 C 128 233 99 250 81 272 C 62 294 53 321 53 352 C 53 373 58 392 69 409 C 80 425 94 439 111 450 C 97 462 86 475 80 491 C 73 506 70 523 70 541 C 70 576 82 606 106 631 C 130 655 165 668 209 668 C 231 668 252 665 274 660 C 296 655 317 647 338 637 L 338 582 C 319 594 299 604 278 611 C 256 617 235 621 213 621 C 187 621 166 614 149 600 C 132 586 124 566 124 542 C 124 523 129 507 141 494 C 153 480 173 469 202 461 L 217 456 C 261 442 293 424 314 401 C 335 377 346 350 346 320 C 346 293 340 272 330 257 C 320 241 306 229 290 219 C 302 206 312 191 318 175 C 324 158 328 140 328 121 C 328 85 315 54 289 28 C 263 2 228 -10 182 -10 Z M 204 266 C 214 263 223 260 232 256 C 240 252 248 248 256 244 C 268 250 278 259 284 270 C 290 280 293 294 293 312 C 293 334 284 352 268 368 C 252 384 227 397 195 408 L 180 413 C 173 415 167 417 161 419 C 155 421 150 424 146 427 C 134 420 124 411 117 399 C 109 387 106 374 106 360 C 106 339 112 321 126 307 C 140 292 161 280 189 271 L 204 266 Z" unicode="§" />
<glyph horiz-adv-x="262" d="M 28 538 L 28 599 L 89 599 L 89 538 L 28 538 Z M 173 538 L 173 599 L 234 599 L 234 538 L 173 538 Z" unicode="¨" />
<glyph horiz-adv-x="661" d="M 330 120 C 250 120 183 147 129 203 C 74 259 47 325 47 402 C 47 479 74 546 129 602 C 183 658 250 687 330 687 C 408 687 475 659 531 603 C 586 547 614 480 614 403 C 614 325 586 259 531 203 C 475 147 408 120 330 120 Z M 330 158 C 396 158 453 181 502 229 C 550 276 575 334 575 402 C 575 471 550 529 502 577 C 453 625 396 649 330 649 C 262 649 205 625 157 578 C 109 530 86 472 86 403 C 86 334 109 276 157 229 C 205 181 262 158 330 158 Z M 333 229 C 287 229 248 245 215 277 C 182 309 166 351 166 404 C 166 457 182 500 215 532 C 248 564 287 581 333 581 C 347 581 364 578 384 573 C 404 567 421 560 436 552 L 436 507 C 423 517 407 525 388 532 C 368 538 350 542 333 542 C 295 542 264 528 242 501 C 220 473 209 441 209 405 C 209 368 220 336 243 309 C 265 282 295 269 333 269 C 350 269 369 272 389 278 C 409 284 426 292 441 301 L 441 259 C 425 249 406 242 386 237 C 366 231 348 229 333 229 Z" unicode="©" />
<glyph horiz-adv-x="362" d="M 55 245 L 55 291 L 313 291 L 313 245 L 55 245 Z M 165 354 C 131 354 104 363 84 382 C 64 400 54 425 54 457 C 54 489 65 515 89 536 C 112 556 145 570 189 577 L 269 588 L 269 615 C 269 640 261 659 246 671 C 231 683 210 689 184 689 C 163 689 143 686 125 680 C 107 674 89 666 71 654 L 71 702 C 90 711 110 718 130 724 C 150 729 170 732 192 732 C 231 732 262 721 285 701 C 308 681 320 652 320 614 L 320 363 L 274 363 L 269 411 C 258 392 244 378 226 368 C 208 358 187 354 165 354 Z M 178 396 C 199 396 218 401 234 412 C 250 423 261 437 269 455 L 269 550 L 197 540 C 168 536 146 528 130 514 C 114 500 107 482 107 462 C 107 442 113 426 125 414 C 137 402 155 396 178 396 Z" unicode="ª" />
<glyph horiz-adv-x="473" d="M 204 69 L 49 226 L 204 384 L 271 384 L 117 226 L 271 69 L 204 69 Z M 365 69 L 210 226 L 365 384 L 432 384 L 278 226 L 432 69 L 365 69 Z" unicode="«" />
<glyph horiz-adv-x="419" d="M 316 174 L 316 268 L 43 268 L 43 317 L 364 317 L 364 174 L 316 174 Z" unicode="¬" />
<glyph horiz-adv-x="343" d="M 38 206 L 38 255 L 305 255 L 305 206 L 38 206 Z" unicode="­" />
<glyph horiz-adv-x="661" d="M 330 120 C 250 120 183 147 129 203 C 74 259 47 325 47 402 C 47 479 74 546 129 602 C 183 658 250 687 330 687 C 408 687 475 659 531 603 C 586 547 614 480 614 403 C 614 325 586 259 531 203 C 475 147 408 120 330 120 Z M 330 158 C 396 158 453 181 502 229 C 550 276 575 334 575 402 C 575 471 550 529 502 577 C 453 625 396 649 330 649 C 262 649 205 625 157 578 C 109 530 86 472 86 403 C 86 334 109 276 157 229 C 205 181 262 158 330 158 Z M 238 232 L 238 578 L 324 578 C 356 578 381 569 401 553 C 421 537 431 515 431 489 C 431 466 424 446 410 430 C 396 413 377 403 352 400 C 362 396 372 391 381 383 C 389 375 397 365 404 353 L 470 232 L 423 232 L 363 341 C 355 356 346 367 336 375 C 326 382 313 386 299 386 L 280 386 L 280 232 L 238 232 Z M 280 422 L 323 422 C 343 422 359 427 371 438 C 383 449 389 464 389 483 C 389 501 383 515 371 526 C 359 536 343 542 323 542 L 280 542 L 280 422 Z" unicode="®" />
<glyph horiz-adv-x="382" d="M 86 532 L 86 578 L 296 578 L 296 532 L 86 532 Z" unicode="¯" />
<glyph horiz-adv-x="333" d="M 167 485 C 131 485 102 497 80 521 C 58 545 48 573 48 607 C 48 639 58 668 80 692 C 102 716 131 728 167 728 C 202 728 230 716 252 692 C 274 668 285 639 285 607 C 285 573 274 545 252 521 C 230 497 202 485 167 485 Z M 167 526 C 187 526 205 533 221 548 C 236 562 244 582 244 607 C 244 631 236 650 221 665 C 205 680 187 688 167 688 C 146 688 128 680 113 665 C 97 650 90 631 90 607 C 90 582 97 562 113 548 C 128 533 146 526 167 526 Z" unicode="°" />
<glyph horiz-adv-x="506" d="M 42 -49 L 42 0 L 464 0 L 464 -49 L 42 -49 Z M 242 71 L 242 264 L 56 264 L 56 313 L 242 313 L 242 506 L 292 506 L 292 313 L 478 313 L 478 264 L 292 264 L 292 71 L 242 71 Z" unicode="±" />
<glyph horiz-adv-x="301" d="M 30 360 L 30 422 C 92 458 138 491 170 519 C 202 547 218 577 218 608 C 218 630 210 648 194 662 C 178 676 158 683 134 683 C 117 683 100 680 83 674 C 65 668 49 660 35 650 L 35 701 C 50 709 66 716 84 721 C 102 725 121 728 142 728 C 180 728 210 717 233 696 C 256 675 268 648 268 615 C 268 577 251 541 218 509 C 184 476 136 442 72 407 L 271 407 L 271 360 L 30 360 Z" unicode="²" />
<glyph horiz-adv-x="297" d="M 144 432 C 123 432 103 434 85 440 C 66 446 48 455 30 467 L 30 519 C 46 505 63 494 81 487 C 99 480 118 477 139 477 C 162 477 181 482 195 493 C 209 504 216 519 216 538 C 216 558 208 574 192 586 C 176 598 152 604 121 604 L 103 604 L 103 647 L 119 647 C 148 647 170 652 186 664 C 201 675 209 691 209 711 C 209 727 202 740 190 749 C 177 758 160 763 140 763 C 122 763 105 760 90 755 C 74 749 60 741 47 730 L 47 779 C 62 788 78 795 94 800 C 110 805 128 808 146 808 C 181 808 209 800 229 784 C 249 768 260 745 260 717 C 260 695 253 676 240 660 C 227 644 208 632 183 626 C 209 621 230 611 245 595 C 259 579 267 559 267 536 C 267 504 256 479 234 460 C 212 441 182 432 144 432 Z" unicode="³" />
<glyph horiz-adv-x="238" d="M 100 524 L 42 524 L 140 655 L 205 655 L 100 524 Z" unicode="´" />
<glyph horiz-adv-x="411" d="M 130 0 L 130 471 C 99 471 75 479 57 496 C 39 512 31 535 31 564 C 31 592 40 615 60 632 C 80 649 106 658 139 658 L 330 658 L 330 0 L 276 0 L 276 608 L 183 608 L 183 0 L 130 0 Z" unicode="¶" />
<glyph horiz-adv-x="163" d="M 51 191 L 51 252 L 113 252 L 113 191 L 51 191 Z" unicode="·" />
<glyph horiz-adv-x="227" d="M 124 -197 C 113 -197 102 -195 92 -193 C 81 -190 71 -186 63 -182 L 63 -142 C 71 -148 79 -152 89 -155 C 99 -158 108 -160 118 -160 C 129 -160 138 -156 145 -149 C 152 -142 156 -133 156 -122 C 156 -110 151 -100 143 -93 C 135 -86 124 -83 111 -83 L 104 -83 L 104 -46 L 112 -46 C 138 -46 160 -52 176 -66 C 192 -80 200 -98 200 -121 C 200 -143 193 -162 179 -176 C 165 -190 146 -197 124 -197 Z" unicode="¸" />
<glyph horiz-adv-x="279" d="M 35 360 L 35 404 L 119 404 L 119 679 L 26 663 L 26 709 L 169 735 L 169 404 L 253 404 L 253 360 L 35 360 Z" unicode="¹" />
<glyph horiz-adv-x="460" d="M 57 245 L 57 291 L 405 291 L 405 245 L 57 245 Z M 231 355 C 176 355 132 372 98 406 C 64 440 48 486 48 543 C 48 600 64 646 98 681 C 132 715 176 733 231 733 C 285 733 329 715 363 681 C 396 647 413 601 413 544 C 413 486 396 440 363 406 C 329 372 285 355 231 355 Z M 231 401 C 269 401 300 414 324 440 C 348 466 360 500 360 543 C 360 587 348 622 324 648 C 300 674 269 687 231 687 C 191 687 160 674 136 648 C 112 622 100 587 100 544 C 100 500 112 466 136 440 C 160 414 191 401 231 401 Z" unicode="º" />
<glyph horiz-adv-x="473" d="M 49 69 L 203 226 L 49 384 L 116 384 L 271 226 L 116 69 L 49 69 Z M 210 69 L 364 226 L 210 384 L 277 384 L 432 226 L 277 69 L 210 69 Z" unicode="»" />
<glyph horiz-adv-x="661" d="M 542 0 L 542 92 L 376 92 L 376 126 L 526 360 L 590 360 L 590 135 L 646 135 L 646 92 L 590 92 L 590 0 L 542 0 Z M 542 135 L 542 309 L 430 135 L 542 135 Z M 35 360 L 35 404 L 119 404 L 119 679 L 26 663 L 26 709 L 169 735 L 169 404 L 253 404 L 253 360 L 35 360 Z M 187 0 L 456 722 L 505 722 L 235 0 L 187 0 Z" unicode="¼" />
<glyph horiz-adv-x="689" d="M 418 0 L 418 62 C 480 98 526 131 558 159 C 590 187 606 217 606 248 C 606 270 598 288 582 302 C 566 316 546 323 522 323 C 505 323 488 320 471 314 C 453 308 437 300 423 290 L 423 341 C 438 349 454 356 472 361 C 490 365 509 368 530 368 C 568 368 598 357 621 336 C 644 315 656 288 656 255 C 656 217 639 181 606 149 C 572 116 524 82 460 47 L 659 47 L 659 0 L 418 0 Z M 35 360 L 35 404 L 119 404 L 119 679 L 26 663 L 26 709 L 169 735 L 169 404 L 253 404 L 253 360 L 35 360 Z M 188 0 L 457 722 L 506 722 L 236 0 L 188 0 Z" unicode="½" />
<glyph horiz-adv-x="664" d="M 546 0 L 546 92 L 380 92 L 380 126 L 530 360 L 594 360 L 594 135 L 650 135 L 650 92 L 594 92 L 594 0 L 546 0 Z M 546 135 L 546 309 L 434 135 L 546 135 Z M 144 352 C 123 352 103 354 85 360 C 66 366 48 375 30 387 L 30 439 C 46 425 63 414 81 407 C 99 400 118 397 139 397 C 162 397 181 402 195 413 C 209 424 216 439 216 458 C 216 478 208 494 192 506 C 176 518 152 524 121 524 L 103 524 L 103 567 L 119 567 C 148 567 170 572 186 584 C 201 595 209 611 209 631 C 209 647 202 660 190 669 C 177 678 160 683 140 683 C 122 683 105 680 90 675 C 74 669 60 661 47 650 L 47 699 C 62 708 78 715 94 720 C 110 725 128 728 146 728 C 181 728 209 720 229 704 C 249 688 260 665 260 637 C 260 615 253 596 240 580 C 227 564 208 552 183 546 C 209 541 230 531 245 515 C 259 499 267 479 267 456 C 267 424 256 399 234 380 C 212 361 182 352 144 352 Z M 187 0 L 456 722 L 505 722 L 235 0 L 187 0 Z" unicode="¾" />
<glyph horiz-adv-x="445" d="M 216 450 L 216 510 L 275 510 L 275 450 L 216 450 Z M 249 -215 C 184 -215 133 -197 97 -161 C 60 -125 42 -79 42 -21 C 42 13 48 44 62 73 C 76 101 100 131 134 162 C 162 188 184 214 198 241 C 212 268 219 300 219 336 L 273 336 C 273 298 265 262 251 230 C 236 198 211 165 175 132 C 148 107 129 83 117 60 C 105 36 99 11 99 -17 C 99 -61 113 -97 141 -124 C 169 -150 208 -164 256 -164 C 284 -164 312 -158 340 -147 C 367 -135 390 -120 409 -101 L 409 -162 C 387 -178 362 -190 334 -200 C 306 -210 277 -215 249 -215 Z" unicode="¿" />
<glyph horiz-adv-x="621" d="M 21 0 L 282 667 L 337 667 L 599 0 L 538 0 L 451 224 L 165 224 L 78 0 L 21 0 Z M 289 545 L 184 275 L 432 275 L 327 545 L 308 597 L 289 545 Z M 295 720 L 193 847 L 254 847 L 350 720 L 295 720 Z" unicode="À" />
<glyph horiz-adv-x="621" d="M 21 0 L 282 667 L 337 667 L 599 0 L 538 0 L 451 224 L 165 224 L 78 0 L 21 0 Z M 289 545 L 184 275 L 432 275 L 327 545 L 308 597 L 289 545 Z M 323 720 L 268 720 L 364 847 L 425 847 L 323 720 Z" unicode="Á" />
<glyph horiz-adv-x="621" d="M 21 0 L 282 667 L 337 667 L 599 0 L 538 0 L 451 224 L 165 224 L 78 0 L 21 0 Z M 289 545 L 184 275 L 432 275 L 327 545 L 308 597 L 289 545 Z M 240 720 L 188 720 L 289 843 L 329 843 L 430 720 L 378 720 L 309 801 L 240 720 Z" unicode="Â" />
<glyph horiz-adv-x="621" d="M 21 0 L 282 667 L 337 667 L 599 0 L 538 0 L 451 224 L 165 224 L 78 0 L 21 0 Z M 289 545 L 184 275 L 432 275 L 327 545 L 308 597 L 289 545 Z M 203 720 L 167 720 C 169 750 178 773 192 789 C 206 804 225 812 248 812 C 259 812 270 809 281 804 C 292 798 305 790 320 780 C 328 773 337 767 345 762 C 353 756 361 754 370 754 C 382 754 392 758 400 767 C 408 775 413 788 415 805 L 451 805 C 448 772 439 748 424 734 C 408 719 390 712 370 712 C 357 712 345 714 334 720 C 322 726 310 734 298 745 C 288 753 280 759 272 763 C 264 767 256 770 248 770 C 235 770 225 765 217 757 C 209 749 204 736 203 720 Z" unicode="Ã" />
<glyph horiz-adv-x="621" d="M 21 0 L 282 667 L 337 667 L 599 0 L 538 0 L 451 224 L 165 224 L 78 0 L 21 0 Z M 289 545 L 184 275 L 432 275 L 327 545 L 308 597 L 289 545 Z M 209 720 L 209 778 L 267 778 L 267 720 L 209 720 Z M 351 720 L 351 778 L 409 778 L 409 720 L 351 720 Z" unicode="Ä" />
<glyph horiz-adv-x="621" d="M 21 0 L 282 667 L 337 667 L 599 0 L 538 0 L 451 224 L 165 224 L 78 0 L 21 0 Z M 289 545 L 184 275 L 432 275 L 327 545 L 308 597 L 289 545 Z M 309 632 C 285 632 265 639 251 655 C 237 671 230 690 230 712 C 230 734 237 752 251 768 C 265 784 285 792 309 792 C 333 792 352 784 366 768 C 380 752 388 734 388 712 C 388 690 380 671 366 655 C 352 639 333 632 309 632 Z M 309 667 C 320 667 330 671 338 679 C 346 687 351 698 351 712 C 351 725 346 736 338 744 C 330 752 320 757 309 757 C 297 757 287 752 279 744 C 271 736 267 725 267 712 C 267 698 271 687 279 679 C 287 671 297 667 309 667 Z" unicode="Å" />
<glyph horiz-adv-x="817" d="M 8 0 L 378 658 L 749 658 L 749 605 L 464 605 L 464 360 L 735 360 L 735 307 L 464 307 L 464 53 L 760 53 L 760 0 L 407 0 L 407 222 L 194 222 L 68 0 L 8 0 Z M 383 554 L 224 275 L 407 275 L 407 601 L 383 554 Z" unicode="Æ" />
<glyph horiz-adv-x="657" d="M 400 -13 C 296 -13 212 17 148 79 C 84 141 52 224 52 328 C 52 431 83 514 146 577 C 209 639 294 671 400 671 C 438 671 474 667 507 659 C 540 651 572 638 604 622 L 604 563 C 573 582 541 596 508 605 C 475 614 439 619 400 619 C 312 619 241 592 189 539 C 137 485 111 415 111 328 C 111 240 137 169 191 117 C 245 65 314 39 400 39 C 440 39 477 44 511 55 C 545 66 578 83 611 105 L 611 44 C 578 24 544 9 510 0 C 475 -8 438 -13 400 -13 Z M 402 -195 C 392 -195 381 -193 371 -191 C 360 -188 350 -184 342 -180 L 342 -142 C 350 -147 358 -151 368 -154 C 378 -157 387 -159 396 -159 C 407 -159 416 -155 423 -149 C 430 -142 434 -133 434 -122 C 434 -110 430 -100 422 -94 C 414 -87 403 -84 390 -84 L 383 -84 L 383 -48 L 390 -48 C 416 -48 436 -54 452 -68 C 467 -81 475 -99 475 -121 C 475 -143 468 -161 455 -175 C 441 -188 424 -195 402 -195 Z" unicode="Ç" />
<glyph horiz-adv-x="489" d="M 243 720 L 141 847 L 202 847 L 298 720 L 243 720 Z M 79 0 L 79 658 L 421 658 L 421 605 L 136 605 L 136 360 L 407 360 L 407 307 L 136 307 L 136 53 L 432 53 L 432 0 L 79 0 Z" unicode="È" />
<glyph horiz-adv-x="489" d="M 79 0 L 79 658 L 421 658 L 421 605 L 136 605 L 136 360 L 407 360 L 407 307 L 136 307 L 136 53 L 432 53 L 432 0 L 79 0 Z M 271 720 L 216 720 L 312 847 L 373 847 L 271 720 Z" unicode="É" />
<glyph horiz-adv-x="489" d="M 188 720 L 136 720 L 237 843 L 277 843 L 378 720 L 326 720 L 257 801 L 188 720 Z M 79 0 L 79 658 L 421 658 L 421 605 L 136 605 L 136 360 L 407 360 L 407 307 L 136 307 L 136 53 L 432 53 L 432 0 L 79 0 Z" unicode="Ê" />
<glyph horiz-adv-x="489" d="M 79 0 L 79 658 L 421 658 L 421 605 L 136 605 L 136 360 L 407 360 L 407 307 L 136 307 L 136 53 L 432 53 L 432 0 L 79 0 Z M 157 720 L 157 778 L 215 778 L 215 720 L 157 720 Z M 299 720 L 299 778 L 357 778 L 357 720 L 299 720 Z" unicode="Ë" />
<glyph horiz-adv-x="215" d="M 79 0 L 79 658 L 136 658 L 136 0 L 79 0 Z M 94 720 L -8 847 L 53 847 L 149 720 L 94 720 Z" unicode="Ì" />
<glyph horiz-adv-x="215" d="M 79 0 L 79 658 L 136 658 L 136 0 L 79 0 Z M 122 720 L 67 720 L 163 847 L 224 847 L 122 720 Z" unicode="Í" />
<glyph horiz-adv-x="215" d="M 79 0 L 79 658 L 136 658 L 136 0 L 79 0 Z M 39 720 L -13 720 L 88 843 L 128 843 L 229 720 L 177 720 L 108 801 L 39 720 Z" unicode="Î" />
<glyph horiz-adv-x="215" d="M 79 0 L 79 658 L 136 658 L 136 0 L 79 0 Z M 8 720 L 8 778 L 66 778 L 66 720 L 8 720 Z M 150 720 L 150 778 L 208 778 L 208 720 L 150 720 Z" unicode="Ï" />
<glyph horiz-adv-x="692" d="M 12 307 L 12 357 L 261 357 L 261 307 L 12 307 Z M 86 0 L 86 658 L 277 658 C 387 658 475 628 541 570 C 607 511 640 433 640 337 C 640 235 606 154 539 92 C 471 30 381 0 269 0 L 86 0 Z M 143 53 L 271 53 C 366 53 442 78 498 130 C 554 182 582 251 582 337 C 582 418 554 483 500 532 C 445 580 371 605 279 605 L 143 605 L 143 53 Z" unicode="Ð" />
<glyph horiz-adv-x="711" d="M 249 720 L 213 720 C 215 750 224 773 238 789 C 252 804 271 812 294 812 C 305 812 316 809 327 804 C 338 798 351 790 366 780 C 374 773 383 767 391 762 C 399 756 407 754 416 754 C 428 754 438 758 446 767 C 454 775 459 788 461 805 L 497 805 C 494 772 485 748 470 734 C 454 719 436 712 416 712 C 403 712 391 714 380 720 C 368 726 356 734 344 745 C 334 753 326 759 318 763 C 310 767 302 770 294 770 C 281 770 271 765 263 757 C 255 749 250 736 249 720 Z M 79 0 L 79 658 L 142 658 L 546 123 L 578 78 L 578 123 L 578 658 L 631 658 L 631 0 L 569 0 L 164 536 L 132 581 L 132 537 L 132 0 L 79 0 Z" unicode="Ñ" />
<glyph horiz-adv-x="777" d="M 375 728 L 273 855 L 334 855 L 430 728 L 375 728 Z M 388 -14 C 289 -14 208 17 146 81 C 83 145 52 227 52 329 C 52 431 83 513 147 577 C 210 640 290 672 388 672 C 486 672 566 640 629 577 C 692 514 724 431 724 329 C 724 226 692 143 630 80 C 568 17 487 -14 388 -14 Z M 388 38 C 469 38 536 64 588 118 C 640 172 666 242 666 329 C 666 415 640 485 588 539 C 536 593 469 620 388 620 C 307 620 241 593 189 539 C 137 485 111 415 111 329 C 111 242 137 172 189 118 C 241 64 307 38 388 38 Z" unicode="Ò" />
<glyph horiz-adv-x="777" d="M 388 -14 C 289 -14 208 17 146 81 C 83 145 52 227 52 329 C 52 431 83 513 147 577 C 210 640 290 672 388 672 C 486 672 566 640 629 577 C 692 514 724 431 724 329 C 724 226 692 143 630 80 C 568 17 487 -14 388 -14 Z M 388 38 C 469 38 536 64 588 118 C 640 172 666 242 666 329 C 666 415 640 485 588 539 C 536 593 469 620 388 620 C 307 620 241 593 189 539 C 137 485 111 415 111 329 C 111 242 137 172 189 118 C 241 64 307 38 388 38 Z M 403 728 L 348 728 L 444 855 L 505 855 L 403 728 Z" unicode="Ó" />
<glyph horiz-adv-x="777" d="M 320 728 L 268 728 L 369 851 L 409 851 L 510 728 L 458 728 L 389 809 L 320 728 Z M 388 -14 C 289 -14 208 17 146 81 C 83 145 52 227 52 329 C 52 431 83 513 147 577 C 210 640 290 672 388 672 C 486 672 566 640 629 577 C 692 514 724 431 724 329 C 724 226 692 143 630 80 C 568 17 487 -14 388 -14 Z M 388 38 C 469 38 536 64 588 118 C 640 172 666 242 666 329 C 666 415 640 485 588 539 C 536 593 469 620 388 620 C 307 620 241 593 189 539 C 137 485 111 415 111 329 C 111 242 137 172 189 118 C 241 64 307 38 388 38 Z" unicode="Ô" />
<glyph horiz-adv-x="777" d="M 283 728 L 247 728 C 249 758 258 781 272 797 C 286 812 305 820 328 820 C 339 820 350 817 361 812 C 372 806 385 798 400 788 C 408 781 417 775 425 770 C 433 764 441 762 450 762 C 462 762 472 766 480 775 C 488 783 493 796 495 813 L 531 813 C 528 780 519 756 504 742 C 488 727 470 720 450 720 C 437 720 425 722 414 728 C 402 734 390 742 378 753 C 368 761 360 767 352 771 C 344 775 336 778 328 778 C 315 778 305 773 297 765 C 289 757 284 744 283 728 Z M 388 -14 C 289 -14 208 17 146 81 C 83 145 52 227 52 329 C 52 431 83 513 147 577 C 210 640 290 672 388 672 C 486 672 566 640 629 577 C 692 514 724 431 724 329 C 724 226 692 143 630 80 C 568 17 487 -14 388 -14 Z M 388 38 C 469 38 536 64 588 118 C 640 172 666 242 666 329 C 666 415 640 485 588 539 C 536 593 469 620 388 620 C 307 620 241 593 189 539 C 137 485 111 415 111 329 C 111 242 137 172 189 118 C 241 64 307 38 388 38 Z" unicode="Õ" />
<glyph horiz-adv-x="777" d="M 388 -14 C 289 -14 208 17 146 81 C 83 145 52 227 52 329 C 52 431 83 513 147 577 C 210 640 290 672 388 672 C 486 672 566 640 629 577 C 692 514 724 431 724 329 C 724 226 692 143 630 80 C 568 17 487 -14 388 -14 Z M 388 38 C 469 38 536 64 588 118 C 640 172 666 242 666 329 C 666 415 640 485 588 539 C 536 593 469 620 388 620 C 307 620 241 593 189 539 C 137 485 111 415 111 329 C 111 242 137 172 189 118 C 241 64 307 38 388 38 Z M 289 728 L 289 786 L 347 786 L 347 728 L 289 728 Z M 431 728 L 431 786 L 489 786 L 489 728 L 431 728 Z" unicode="Ö" />
<glyph horiz-adv-x="487" d="M 98 105 L 62 141 L 208 286 L 58 436 L 94 472 L 244 322 L 389 468 L 425 431 L 280 286 L 429 136 L 394 101 L 244 250 L 98 105 Z" unicode="×" />
<glyph horiz-adv-x="777" d="M 185 -75 L 232 33 L 243 56 L 480 627 L 490 647 L 522 725 L 575 725 L 532 625 L 523 605 L 286 36 L 274 13 L 238 -75 L 185 -75 Z M 388 -14 C 289 -14 208 17 146 81 C 83 145 52 227 52 329 C 52 431 83 513 147 577 C 210 640 290 672 388 672 C 486 672 566 640 629 577 C 692 514 724 431 724 329 C 724 226 692 143 630 80 C 568 17 487 -14 388 -14 Z M 388 38 C 469 38 536 64 588 118 C 640 172 666 242 666 329 C 666 415 640 485 588 539 C 536 593 469 620 388 620 C 307 620 241 593 189 539 C 137 485 111 415 111 329 C 111 242 137 172 189 118 C 241 64 307 38 388 38 Z" unicode="Ø" />
<glyph horiz-adv-x="669" d="M 322 720 L 220 847 L 281 847 L 377 720 L 322 720 Z M 334 -12 C 256 -12 193 13 145 63 C 97 113 74 178 74 260 L 74 658 L 131 658 L 131 260 C 131 194 149 142 187 102 C 224 62 273 42 334 42 C 396 42 446 62 484 102 C 522 142 542 194 542 260 L 542 658 L 594 658 L 594 260 C 594 178 570 113 523 63 C 475 13 412 -12 334 -12 Z" unicode="Ù" />
<glyph horiz-adv-x="669" d="M 334 -12 C 256 -12 193 13 145 63 C 97 113 74 178 74 260 L 74 658 L 131 658 L 131 260 C 131 194 149 142 187 102 C 224 62 273 42 334 42 C 396 42 446 62 484 102 C 522 142 542 194 542 260 L 542 658 L 594 658 L 594 260 C 594 178 570 113 523 63 C 475 13 412 -12 334 -12 Z M 350 720 L 295 720 L 391 847 L 452 847 L 350 720 Z" unicode="Ú" />
<glyph horiz-adv-x="669" d="M 267 720 L 215 720 L 316 843 L 356 843 L 457 720 L 405 720 L 336 801 L 267 720 Z M 334 -12 C 256 -12 193 13 145 63 C 97 113 74 178 74 260 L 74 658 L 131 658 L 131 260 C 131 194 149 142 187 102 C 224 62 273 42 334 42 C 396 42 446 62 484 102 C 522 142 542 194 542 260 L 542 658 L 594 658 L 594 260 C 594 178 570 113 523 63 C 475 13 412 -12 334 -12 Z" unicode="Û" />
<glyph horiz-adv-x="669" d="M 334 -12 C 256 -12 193 13 145 63 C 97 113 74 178 74 260 L 74 658 L 131 658 L 131 260 C 131 194 149 142 187 102 C 224 62 273 42 334 42 C 396 42 446 62 484 102 C 522 142 542 194 542 260 L 542 658 L 594 658 L 594 260 C 594 178 570 113 523 63 C 475 13 412 -12 334 -12 Z M 236 720 L 236 778 L 294 778 L 294 720 L 236 720 Z M 378 720 L 378 778 L 436 778 L 436 720 L 378 720 Z" unicode="Ü" />
<glyph horiz-adv-x="554" d="M 248 0 L 248 293 L 9 658 L 76 658 L 253 390 L 280 346 L 307 390 L 483 658 L 545 658 L 305 293 L 305 0 L 248 0 Z M 291 720 L 236 720 L 332 847 L 393 847 L 291 720 Z" unicode="Ý" />
<glyph horiz-adv-x="477" d="M 79 0 L 79 658 L 136 658 L 136 536 L 206 536 C 272 536 326 518 368 482 C 410 446 431 397 431 335 C 431 273 410 223 368 187 C 326 151 272 133 206 133 L 136 133 L 136 0 L 79 0 Z M 136 185 L 206 185 C 255 185 295 198 326 225 C 356 252 372 289 372 335 C 372 380 356 416 325 443 C 294 470 254 484 205 484 L 136 484 L 136 185 Z" unicode="Þ" />
<glyph horiz-adv-x="534" d="M 65 0 L 65 510 C 65 580 83 634 121 674 C 159 714 208 734 269 734 C 330 734 380 714 419 675 C 458 635 478 580 478 509 C 478 492 477 474 475 454 C 473 434 470 416 468 401 C 458 403 442 408 420 415 C 398 422 376 426 355 426 C 324 426 300 419 284 406 C 268 393 260 375 260 353 C 260 333 267 316 281 302 C 295 288 316 277 344 269 L 358 265 C 401 251 434 233 456 209 C 478 185 489 155 489 121 C 489 81 475 49 449 25 C 423 1 388 -10 345 -10 C 320 -10 296 -7 274 -1 C 252 5 230 14 208 26 L 208 82 C 228 66 250 55 272 48 C 294 41 317 38 343 38 C 371 38 393 45 410 59 C 426 73 435 92 435 116 C 435 138 427 158 411 174 C 395 190 370 203 338 213 L 325 218 C 285 230 256 246 236 268 C 216 290 207 317 207 350 C 207 388 219 418 243 440 C 267 462 300 473 342 473 C 356 473 369 472 382 470 C 395 468 409 464 424 460 C 432 524 424 578 398 621 C 372 663 329 685 270 685 C 225 685 189 669 162 638 C 134 606 121 564 121 512 L 121 0 L 65 0 Z" unicode="ß" />
<glyph horiz-adv-x="437" d="M 180 -10 C 136 -10 101 2 75 26 C 49 50 37 82 37 122 C 37 162 52 196 82 224 C 112 252 156 269 212 276 L 318 289 L 318 324 C 318 358 308 383 288 399 C 268 415 240 424 205 424 C 177 424 152 420 128 412 C 104 404 81 393 58 377 L 58 435 C 82 447 107 457 132 464 C 157 471 183 475 210 475 C 261 475 301 462 330 437 C 359 411 374 374 374 325 L 374 0 L 323 0 L 318 64 C 303 40 284 21 260 9 C 236 -3 209 -10 180 -10 Z M 191 37 C 220 37 246 44 268 59 C 290 74 307 94 318 118 L 318 245 L 219 233 C 178 228 147 216 125 197 C 103 178 93 154 93 126 C 93 99 101 77 119 61 C 136 45 160 37 191 37 Z M 196 524 L 91 655 L 156 655 L 254 524 L 196 524 Z" unicode="à" />
<glyph horiz-adv-x="437" d="M 180 -10 C 136 -10 101 2 75 26 C 49 50 37 82 37 122 C 37 162 52 196 82 224 C 112 252 156 269 212 276 L 318 289 L 318 324 C 318 358 308 383 288 399 C 268 415 240 424 205 424 C 177 424 152 420 128 412 C 104 404 81 393 58 377 L 58 435 C 82 447 107 457 132 464 C 157 471 183 475 210 475 C 261 475 301 462 330 437 C 359 411 374 374 374 325 L 374 0 L 323 0 L 318 64 C 303 40 284 21 260 9 C 236 -3 209 -10 180 -10 Z M 191 37 C 220 37 246 44 268 59 C 290 74 307 94 318 118 L 318 245 L 219 233 C 178 228 147 216 125 197 C 103 178 93 154 93 126 C 93 99 101 77 119 61 C 136 45 160 37 191 37 Z M 222 524 L 164 524 L 262 655 L 327 655 L 222 524 Z" unicode="á" />
<glyph horiz-adv-x="437" d="M 180 -10 C 136 -10 101 2 75 26 C 49 50 37 82 37 122 C 37 162 52 196 82 224 C 112 252 156 269 212 276 L 318 289 L 318 324 C 318 358 308 383 288 399 C 268 415 240 424 205 424 C 177 424 152 420 128 412 C 104 404 81 393 58 377 L 58 435 C 82 447 107 457 132 464 C 157 471 183 475 210 475 C 261 475 301 462 330 437 C 359 411 374 374 374 325 L 374 0 L 323 0 L 318 64 C 303 40 284 21 260 9 C 236 -3 209 -10 180 -10 Z M 191 37 C 220 37 246 44 268 59 C 290 74 307 94 318 118 L 318 245 L 219 233 C 178 228 147 216 125 197 C 103 178 93 154 93 126 C 93 99 101 77 119 61 C 136 45 160 37 191 37 Z M 139 524 L 85 524 L 187 650 L 231 650 L 333 524 L 279 524 L 209 606 L 139 524 Z" unicode="â" />
<glyph horiz-adv-x="437" d="M 180 -10 C 136 -10 101 2 75 26 C 49 50 37 82 37 122 C 37 162 52 196 82 224 C 112 252 156 269 212 276 L 318 289 L 318 324 C 318 358 308 383 288 399 C 268 415 240 424 205 424 C 177 424 152 420 128 412 C 104 404 81 393 58 377 L 58 435 C 82 447 107 457 132 464 C 157 471 183 475 210 475 C 261 475 301 462 330 437 C 359 411 374 374 374 325 L 374 0 L 323 0 L 318 64 C 303 40 284 21 260 9 C 236 -3 209 -10 180 -10 Z M 191 37 C 220 37 246 44 268 59 C 290 74 307 94 318 118 L 318 245 L 219 233 C 178 228 147 216 125 197 C 103 178 93 154 93 126 C 93 99 101 77 119 61 C 136 45 160 37 191 37 Z M 102 524 L 63 524 C 65 556 74 580 90 596 C 105 612 124 620 147 620 C 158 620 169 617 181 611 C 192 605 205 597 220 587 C 229 579 238 573 246 568 C 254 563 262 561 272 561 C 283 561 293 565 301 574 C 309 582 314 595 316 612 L 355 612 C 352 579 343 555 327 539 C 311 523 292 516 271 516 C 257 516 245 518 234 524 C 222 530 210 538 198 549 C 188 557 179 564 171 568 C 163 572 154 575 146 575 C 134 575 124 570 116 562 C 108 553 103 540 102 524 Z" unicode="ã" />
<glyph horiz-adv-x="437" d="M 180 -10 C 136 -10 101 2 75 26 C 49 50 37 82 37 122 C 37 162 52 196 82 224 C 112 252 156 269 212 276 L 318 289 L 318 324 C 318 358 308 383 288 399 C 268 415 240 424 205 424 C 177 424 152 420 128 412 C 104 404 81 393 58 377 L 58 435 C 82 447 107 457 132 464 C 157 471 183 475 210 475 C 261 475 301 462 330 437 C 359 411 374 374 374 325 L 374 0 L 323 0 L 318 64 C 303 40 284 21 260 9 C 236 -3 209 -10 180 -10 Z M 191 37 C 220 37 246 44 268 59 C 290 74 307 94 318 118 L 318 245 L 219 233 C 178 228 147 216 125 197 C 103 178 93 154 93 126 C 93 99 101 77 119 61 C 136 45 160 37 191 37 Z M 106 537 L 106 598 L 167 598 L 167 537 L 106 537 Z M 251 537 L 251 598 L 312 598 L 312 537 L 251 537 Z" unicode="ä" />
<glyph horiz-adv-x="437" d="M 180 -10 C 136 -10 101 2 75 26 C 49 50 37 82 37 122 C 37 162 52 196 82 224 C 112 252 156 269 212 276 L 318 289 L 318 324 C 318 358 308 383 288 399 C 268 415 240 424 205 424 C 177 424 152 420 128 412 C 104 404 81 393 58 377 L 58 435 C 82 447 107 457 132 464 C 157 471 183 475 210 475 C 261 475 301 462 330 437 C 359 411 374 374 374 325 L 374 0 L 323 0 L 318 64 C 303 40 284 21 260 9 C 236 -3 209 -10 180 -10 Z M 191 37 C 220 37 246 44 268 59 C 290 74 307 94 318 118 L 318 245 L 219 233 C 178 228 147 216 125 197 C 103 178 93 154 93 126 C 93 99 101 77 119 61 C 136 45 160 37 191 37 Z M 209 439 C 184 439 164 447 150 463 C 135 479 128 498 128 521 C 128 543 135 563 150 579 C 164 595 184 603 209 603 C 233 603 253 595 268 579 C 282 563 290 543 290 521 C 290 498 282 479 268 463 C 253 447 233 439 209 439 Z M 209 475 C 221 475 231 479 239 487 C 247 495 252 507 252 521 C 252 534 247 545 239 553 C 231 561 221 566 209 566 C 197 566 186 561 178 553 C 170 545 166 534 166 521 C 166 507 170 495 178 487 C 186 479 197 475 209 475 Z" unicode="å" />
<glyph horiz-adv-x="763" d="M 183 -10 C 137 -10 102 2 76 26 C 50 50 37 82 37 122 C 37 162 52 196 82 223 C 112 250 154 268 210 276 L 315 290 L 315 322 C 315 358 304 384 283 400 C 261 416 234 425 202 425 C 174 425 148 421 124 414 C 99 407 75 396 53 380 L 53 435 C 77 447 102 457 128 464 C 154 470 181 474 209 474 C 247 474 279 465 305 449 C 331 433 348 411 356 383 C 373 411 395 434 423 450 C 450 466 482 474 518 474 C 579 474 628 454 664 416 C 700 377 718 323 718 253 L 718 224 L 372 224 C 372 167 386 122 414 89 C 442 56 484 40 540 40 C 568 40 597 45 625 55 C 653 65 680 80 707 100 L 707 45 C 679 26 650 12 621 3 C 592 -5 563 -10 535 -10 C 487 -10 447 0 416 21 C 384 41 360 70 344 106 C 330 67 309 38 281 19 C 253 0 220 -10 183 -10 Z M 517 426 C 475 426 441 411 415 383 C 389 355 374 317 372 269 L 662 269 C 662 318 649 356 623 384 C 597 412 561 426 517 426 Z M 191 37 C 225 37 253 48 275 70 C 297 92 310 119 315 149 L 315 245 L 217 232 C 177 226 146 215 125 197 C 103 179 93 155 93 127 C 93 99 101 77 119 61 C 136 45 160 37 191 37 Z" unicode="æ" />
<glyph horiz-adv-x="467" d="M 280 -10 C 209 -10 152 11 110 55 C 67 98 46 156 46 230 C 46 306 66 365 108 409 C 150 452 206 474 276 474 C 301 474 326 470 350 464 C 374 457 399 447 423 435 L 423 376 C 398 392 374 403 352 411 C 329 418 304 422 278 422 C 224 422 181 405 149 372 C 117 339 102 292 102 231 C 102 172 118 126 151 92 C 184 58 228 41 282 41 C 308 41 332 45 356 54 C 379 62 401 75 421 91 L 421 32 C 400 18 378 7 354 0 C 330 -6 305 -10 280 -10 Z M 247 -209 C 236 -209 225 -207 215 -205 C 204 -202 194 -198 186 -194 L 186 -154 C 194 -160 202 -164 212 -167 C 222 -170 231 -172 241 -172 C 252 -172 261 -168 268 -161 C 275 -154 279 -145 279 -134 C 279 -122 274 -112 266 -105 C 258 -98 247 -95 234 -95 L 227 -95 L 227 -58 L 235 -58 C 261 -58 283 -64 299 -78 C 315 -92 323 -110 323 -133 C 323 -155 316 -174 302 -188 C 288 -202 269 -209 247 -209 Z" unicode="ç" />
<glyph horiz-adv-x="502" d="M 243 524 L 138 655 L 203 655 L 301 524 L 243 524 Z M 274 -10 C 200 -10 144 11 105 55 C 65 98 46 157 46 233 C 46 304 65 362 103 407 C 141 451 192 474 256 474 C 318 474 366 454 402 415 C 438 376 456 322 456 252 L 456 222 L 102 222 C 102 165 118 120 148 88 C 178 55 222 39 278 39 C 306 39 335 44 363 54 C 391 64 418 79 445 100 L 445 45 C 417 26 388 12 360 3 C 331 -5 302 -10 274 -10 Z M 255 427 C 212 427 176 412 148 383 C 120 353 104 315 102 267 L 400 267 C 400 316 387 355 361 384 C 335 412 300 427 255 427 Z" unicode="è" />
<glyph horiz-adv-x="502" d="M 269 524 L 211 524 L 309 655 L 374 655 L 269 524 Z M 274 -10 C 200 -10 144 11 105 55 C 65 98 46 157 46 233 C 46 304 65 362 103 407 C 141 451 192 474 256 474 C 318 474 366 454 402 415 C 438 376 456 322 456 252 L 456 222 L 102 222 C 102 165 118 120 148 88 C 178 55 222 39 278 39 C 306 39 335 44 363 54 C 391 64 418 79 445 100 L 445 45 C 417 26 388 12 360 3 C 331 -5 302 -10 274 -10 Z M 255 427 C 212 427 176 412 148 383 C 120 353 104 315 102 267 L 400 267 C 400 316 387 355 361 384 C 335 412 300 427 255 427 Z" unicode="é" />
<glyph horiz-adv-x="502" d="M 186 524 L 132 524 L 234 650 L 278 650 L 380 524 L 326 524 L 256 606 L 186 524 Z M 274 -10 C 200 -10 144 11 105 55 C 65 98 46 157 46 233 C 46 304 65 362 103 407 C 141 451 192 474 256 474 C 318 474 366 454 402 415 C 438 376 456 322 456 252 L 456 222 L 102 222 C 102 165 118 120 148 88 C 178 55 222 39 278 39 C 306 39 335 44 363 54 C 391 64 418 79 445 100 L 445 45 C 417 26 388 12 360 3 C 331 -5 302 -10 274 -10 Z M 255 427 C 212 427 176 412 148 383 C 120 353 104 315 102 267 L 400 267 C 400 316 387 355 361 384 C 335 412 300 427 255 427 Z" unicode="ê" />
<glyph horiz-adv-x="502" d="M 274 -10 C 200 -10 144 11 105 55 C 65 98 46 157 46 233 C 46 304 65 362 103 407 C 141 451 192 474 256 474 C 318 474 366 454 402 415 C 438 376 456 322 456 252 L 456 222 L 102 222 C 102 165 118 120 148 88 C 178 55 222 39 278 39 C 306 39 335 44 363 54 C 391 64 418 79 445 100 L 445 45 C 417 26 388 12 360 3 C 331 -5 302 -10 274 -10 Z M 255 427 C 212 427 176 412 148 383 C 120 353 104 315 102 267 L 400 267 C 400 316 387 355 361 384 C 335 412 300 427 255 427 Z M 153 537 L 153 598 L 214 598 L 214 537 L 153 537 Z M 298 537 L 298 598 L 359 598 L 359 537 L 298 537 Z" unicode="ë" />
<glyph horiz-adv-x="198" d="M 90 524 L -15 655 L 50 655 L 148 524 L 90 524 Z M 71 0 L 71 464 L 127 464 L 127 0 L 71 0 Z" unicode="ì" />
<glyph horiz-adv-x="198" d="M 116 524 L 58 524 L 156 655 L 221 655 L 116 524 Z M 71 0 L 71 464 L 127 464 L 127 0 L 71 0 Z" unicode="í" />
<glyph horiz-adv-x="198" d="M 33 524 L -21 524 L 81 650 L 125 650 L 227 524 L 173 524 L 103 606 L 33 524 Z M 71 0 L 71 464 L 127 464 L 127 0 L 71 0 Z" unicode="î" />
<glyph horiz-adv-x="198" d="M 71 0 L 71 464 L 127 464 L 127 0 L 71 0 Z M 0 537 L 0 598 L 61 598 L 61 537 L 0 537 Z M 145 537 L 145 598 L 206 598 L 206 537 L 145 537 Z" unicode="ï" />
<glyph horiz-adv-x="554" d="M 277 -10 C 211 -10 156 12 112 56 C 68 100 46 159 46 235 C 46 308 68 366 112 409 C 156 452 210 474 274 474 C 317 474 354 464 385 444 C 416 424 439 397 455 363 C 447 407 434 450 415 493 C 395 535 369 576 337 614 L 242 583 L 234 631 L 300 652 C 286 665 271 678 255 691 C 239 703 223 715 205 726 L 262 746 C 278 735 294 723 310 710 C 325 697 340 683 354 669 L 447 699 L 455 652 L 387 630 C 425 581 455 526 477 465 C 499 403 510 340 510 275 C 510 185 487 115 443 65 C 399 15 343 -10 277 -10 Z M 277 41 C 331 41 373 60 405 99 C 437 138 453 187 453 245 C 445 301 426 344 394 376 C 362 407 323 423 276 423 C 223 423 181 405 149 369 C 117 333 102 288 102 235 C 102 180 117 134 149 97 C 181 59 223 41 277 41 Z" unicode="ð" />
<glyph horiz-adv-x="498" d="M 144 524 L 105 524 C 107 556 116 580 132 596 C 147 612 166 620 189 620 C 200 620 211 617 223 611 C 234 605 247 597 262 587 C 271 579 280 573 288 568 C 296 563 304 561 314 561 C 325 561 335 565 343 574 C 351 582 356 595 358 612 L 397 612 C 394 579 385 555 369 539 C 353 523 334 516 313 516 C 299 516 287 518 276 524 C 264 530 252 538 240 549 C 230 557 221 564 213 568 C 205 572 196 575 188 575 C 176 575 166 570 158 562 C 150 553 145 540 144 524 Z M 71 0 L 71 464 L 127 464 L 127 400 C 143 422 164 440 189 454 C 214 467 241 474 269 474 C 321 474 360 458 388 428 C 415 398 429 357 429 306 L 429 0 L 374 0 L 374 297 C 374 339 363 370 342 392 C 321 413 293 424 258 424 C 231 424 206 416 183 402 C 159 388 141 369 127 347 L 127 0 L 71 0 Z" unicode="ñ" />
<glyph horiz-adv-x="557" d="M 266 524 L 161 655 L 226 655 L 324 524 L 266 524 Z M 279 -10 C 209 -10 153 12 110 56 C 67 100 46 159 46 231 C 46 303 67 362 110 407 C 153 451 209 474 279 474 C 348 474 404 451 447 407 C 489 363 511 304 511 232 C 511 159 489 100 447 56 C 404 12 348 -10 279 -10 Z M 279 40 C 331 40 373 57 406 92 C 438 127 455 173 455 231 C 455 288 438 334 406 370 C 373 406 331 424 279 424 C 226 424 183 406 151 371 C 118 335 102 289 102 232 C 102 174 118 128 151 93 C 183 57 226 40 279 40 Z" unicode="ò" />
<glyph horiz-adv-x="557" d="M 292 524 L 234 524 L 332 655 L 397 655 L 292 524 Z M 279 -10 C 209 -10 153 12 110 56 C 67 100 46 159 46 231 C 46 303 67 362 110 407 C 153 451 209 474 279 474 C 348 474 404 451 447 407 C 489 363 511 304 511 232 C 511 159 489 100 447 56 C 404 12 348 -10 279 -10 Z M 279 40 C 331 40 373 57 406 92 C 438 127 455 173 455 231 C 455 288 438 334 406 370 C 373 406 331 424 279 424 C 226 424 183 406 151 371 C 118 335 102 289 102 232 C 102 174 118 128 151 93 C 183 57 226 40 279 40 Z" unicode="ó" />
<glyph horiz-adv-x="557" d="M 209 524 L 155 524 L 257 650 L 301 650 L 403 524 L 349 524 L 279 606 L 209 524 Z M 279 -10 C 209 -10 153 12 110 56 C 67 100 46 159 46 231 C 46 303 67 362 110 407 C 153 451 209 474 279 474 C 348 474 404 451 447 407 C 489 363 511 304 511 232 C 511 159 489 100 447 56 C 404 12 348 -10 279 -10 Z M 279 40 C 331 40 373 57 406 92 C 438 127 455 173 455 231 C 455 288 438 334 406 370 C 373 406 331 424 279 424 C 226 424 183 406 151 371 C 118 335 102 289 102 232 C 102 174 118 128 151 93 C 183 57 226 40 279 40 Z" unicode="ô" />
<glyph horiz-adv-x="557" d="M 172 524 L 133 524 C 135 556 144 580 160 596 C 175 612 194 620 217 620 C 228 620 239 617 251 611 C 262 605 275 597 290 587 C 299 579 308 573 316 568 C 324 563 332 561 342 561 C 353 561 363 565 371 574 C 379 582 384 595 386 612 L 425 612 C 422 579 413 555 397 539 C 381 523 362 516 341 516 C 327 516 315 518 304 524 C 292 530 280 538 268 549 C 258 557 249 564 241 568 C 233 572 224 575 216 575 C 204 575 194 570 186 562 C 178 553 173 540 172 524 Z M 279 -10 C 209 -10 153 12 110 56 C 67 100 46 159 46 231 C 46 303 67 362 110 407 C 153 451 209 474 279 474 C 348 474 404 451 447 407 C 489 363 511 304 511 232 C 511 159 489 100 447 56 C 404 12 348 -10 279 -10 Z M 279 40 C 331 40 373 57 406 92 C 438 127 455 173 455 231 C 455 288 438 334 406 370 C 373 406 331 424 279 424 C 226 424 183 406 151 371 C 118 335 102 289 102 232 C 102 174 118 128 151 93 C 183 57 226 40 279 40 Z" unicode="õ" />
<glyph horiz-adv-x="557" d="M 176 537 L 176 598 L 237 598 L 237 537 L 176 537 Z M 321 537 L 321 598 L 382 598 L 382 537 L 321 537 Z M 279 -10 C 209 -10 153 12 110 56 C 67 100 46 159 46 231 C 46 303 67 362 110 407 C 153 451 209 474 279 474 C 348 474 404 451 447 407 C 489 363 511 304 511 232 C 511 159 489 100 447 56 C 404 12 348 -10 279 -10 Z M 279 40 C 331 40 373 57 406 92 C 438 127 455 173 455 231 C 455 288 438 334 406 370 C 373 406 331 424 279 424 C 226 424 183 406 151 371 C 118 335 102 289 102 232 C 102 174 118 128 151 93 C 183 57 226 40 279 40 Z" unicode="ö" />
<glyph horiz-adv-x="506" d="M 224 427 L 224 485 L 282 485 L 282 427 L 224 427 Z M 42 264 L 42 313 L 464 313 L 464 264 L 42 264 Z M 224 92 L 224 150 L 282 150 L 282 92 L 224 92 Z" unicode="÷" />
<glyph horiz-adv-x="557" d="M 129 -79 L 172 27 L 180 45 L 337 433 L 342 450 L 374 533 L 423 533 L 386 437 L 377 420 L 220 29 L 215 12 L 179 -79 L 129 -79 Z M 279 -10 C 209 -10 153 12 110 56 C 67 100 46 159 46 231 C 46 303 67 362 110 407 C 153 451 209 474 279 474 C 348 474 404 451 447 407 C 489 363 511 304 511 232 C 511 159 489 100 447 56 C 404 12 348 -10 279 -10 Z M 279 40 C 331 40 373 57 406 92 C 438 127 455 173 455 231 C 455 288 438 334 406 370 C 373 406 331 424 279 424 C 226 424 183 406 151 371 C 118 335 102 289 102 232 C 102 174 118 128 151 93 C 183 57 226 40 279 40 Z" unicode="ø" />
<glyph horiz-adv-x="496" d="M 234 524 L 129 655 L 194 655 L 292 524 L 234 524 Z M 228 -10 C 176 -10 136 5 109 37 C 82 69 69 110 69 161 L 69 464 L 124 464 L 124 167 C 124 126 134 95 155 73 C 175 51 204 40 240 40 C 270 40 297 47 319 63 C 341 78 357 97 369 121 L 369 464 L 424 464 L 424 0 L 375 0 L 369 64 C 353 40 333 21 310 9 C 286 -3 259 -10 228 -10 Z" unicode="ù" />
<glyph horiz-adv-x="496" d="M 260 524 L 202 524 L 300 655 L 365 655 L 260 524 Z M 228 -10 C 176 -10 136 5 109 37 C 82 69 69 110 69 161 L 69 464 L 124 464 L 124 167 C 124 126 134 95 155 73 C 175 51 204 40 240 40 C 270 40 297 47 319 63 C 341 78 357 97 369 121 L 369 464 L 424 464 L 424 0 L 375 0 L 369 64 C 353 40 333 21 310 9 C 286 -3 259 -10 228 -10 Z" unicode="ú" />
<glyph horiz-adv-x="496" d="M 177 524 L 123 524 L 225 650 L 269 650 L 371 524 L 317 524 L 247 606 L 177 524 Z M 228 -10 C 176 -10 136 5 109 37 C 82 69 69 110 69 161 L 69 464 L 124 464 L 124 167 C 124 126 134 95 155 73 C 175 51 204 40 240 40 C 270 40 297 47 319 63 C 341 78 357 97 369 121 L 369 464 L 424 464 L 424 0 L 375 0 L 369 64 C 353 40 333 21 310 9 C 286 -3 259 -10 228 -10 Z" unicode="û" />
<glyph horiz-adv-x="496" d="M 228 -10 C 176 -10 136 5 109 37 C 82 69 69 110 69 161 L 69 464 L 124 464 L 124 167 C 124 126 134 95 155 73 C 175 51 204 40 240 40 C 270 40 297 47 319 63 C 341 78 357 97 369 121 L 369 464 L 424 464 L 424 0 L 375 0 L 369 64 C 353 40 333 21 310 9 C 286 -3 259 -10 228 -10 Z M 144 537 L 144 598 L 205 598 L 205 537 L 144 537 Z M 289 537 L 289 598 L 350 598 L 350 537 L 289 537 Z" unicode="ü" />
<glyph horiz-adv-x="449" d="M 2 -218 L -6 -218 L -6 -167 L 2 -167 C 44 -167 80 -155 110 -131 C 140 -107 170 -64 198 -2 L 190 19 L 15 464 L 75 464 L 214 110 L 228 68 L 242 110 L 381 464 L 437 464 L 258 10 C 224 -76 187 -135 147 -168 C 107 -201 58 -218 2 -218 Z M 240 524 L 182 524 L 280 655 L 345 655 L 240 524 Z" unicode="ý" />
<glyph horiz-adv-x="509" d="M 71 -218 L 71 722 L 127 722 L 127 415 C 143 433 163 448 187 458 C 211 468 236 474 263 474 C 323 474 371 452 408 409 C 445 365 464 308 464 237 C 464 161 443 100 402 56 C 361 12 308 -10 244 -10 C 223 -10 202 -7 182 -1 C 162 5 143 13 127 24 L 127 -218 L 71 -218 Z M 241 39 C 289 39 329 56 360 91 C 391 125 407 173 407 234 C 407 292 392 338 364 372 C 335 406 297 424 251 424 C 226 424 203 419 183 410 C 162 401 143 387 127 369 L 127 75 C 143 63 161 54 181 48 C 200 42 220 39 241 39 Z" unicode="þ" />
<glyph horiz-adv-x="449" d="M 2 -218 L -6 -218 L -6 -167 L 2 -167 C 44 -167 80 -155 110 -131 C 140 -107 170 -64 198 -2 L 190 19 L 15 464 L 75 464 L 214 110 L 228 68 L 242 110 L 381 464 L 437 464 L 258 10 C 224 -76 187 -135 147 -168 C 107 -201 58 -218 2 -218 Z M 124 537 L 124 598 L 185 598 L 185 537 L 124 537 Z M 269 537 L 269 598 L 330 598 L 330 537 L 269 537 Z" unicode="ÿ" />
<glyph horiz-adv-x="621" d="M 21 0 L 282 667 L 337 667 L 599 0 L 538 0 L 451 224 L 165 224 L 78 0 L 21 0 Z M 289 545 L 184 275 L 432 275 L 327 545 L 308 597 L 289 545 Z M 207 720 L 207 764 L 411 764 L 411 720 L 207 720 Z" unicode="Ā" />
<glyph horiz-adv-x="437" d="M 180 -10 C 136 -10 101 2 75 26 C 49 50 37 82 37 122 C 37 162 52 196 82 224 C 112 252 156 269 212 276 L 318 289 L 318 324 C 318 358 308 383 288 399 C 268 415 240 424 205 424 C 177 424 152 420 128 412 C 104 404 81 393 58 377 L 58 435 C 82 447 107 457 132 464 C 157 471 183 475 210 475 C 261 475 301 462 330 437 C 359 411 374 374 374 325 L 374 0 L 323 0 L 318 64 C 303 40 284 21 260 9 C 236 -3 209 -10 180 -10 Z M 191 37 C 220 37 246 44 268 59 C 290 74 307 94 318 118 L 318 245 L 219 233 C 178 228 147 216 125 197 C 103 178 93 154 93 126 C 93 99 101 77 119 61 C 136 45 160 37 191 37 Z M 104 532 L 104 578 L 314 578 L 314 532 L 104 532 Z" unicode="ā" />
<glyph horiz-adv-x="621" d="M 21 0 L 282 667 L 337 667 L 599 0 L 538 0 L 451 224 L 165 224 L 78 0 L 21 0 Z M 289 545 L 184 275 L 432 275 L 327 545 L 308 597 L 289 545 Z M 309 710 C 276 710 250 721 230 743 C 210 765 200 796 200 834 L 240 834 C 240 808 246 787 259 772 C 271 757 288 750 309 750 C 329 750 346 757 359 772 C 371 787 378 808 378 834 L 418 834 C 418 796 408 765 388 743 C 368 721 342 710 309 710 Z" unicode="Ă" />
<glyph horiz-adv-x="437" d="M 180 -10 C 136 -10 101 2 75 26 C 49 50 37 82 37 122 C 37 162 52 196 82 224 C 112 252 156 269 212 276 L 318 289 L 318 324 C 318 358 308 383 288 399 C 268 415 240 424 205 424 C 177 424 152 420 128 412 C 104 404 81 393 58 377 L 58 435 C 82 447 107 457 132 464 C 157 471 183 475 210 475 C 261 475 301 462 330 437 C 359 411 374 374 374 325 L 374 0 L 323 0 L 318 64 C 303 40 284 21 260 9 C 236 -3 209 -10 180 -10 Z M 191 37 C 220 37 246 44 268 59 C 290 74 307 94 318 118 L 318 245 L 219 233 C 178 228 147 216 125 197 C 103 178 93 154 93 126 C 93 99 101 77 119 61 C 136 45 160 37 191 37 Z M 209 516 C 175 516 147 527 127 550 C 107 572 97 603 97 643 L 139 643 C 139 617 145 596 158 581 C 170 565 187 558 209 558 C 230 558 247 565 260 581 C 273 596 280 617 280 643 L 321 643 C 321 603 310 572 290 550 C 270 527 243 516 209 516 Z" unicode="ă" />
<glyph horiz-adv-x="621" d="M 21 0 L 282 667 L 337 667 L 599 0 L 538 0 L 451 224 L 165 224 L 78 0 L 21 0 Z M 289 545 L 184 275 L 432 275 L 327 545 L 308 597 L 289 545 Z M 611 -220 C 565 -220 528 -208 500 -184 C 472 -160 459 -130 459 -94 C 459 -56 471 -25 497 -3 C 523 18 553 30 587 30 L 596 0 C 570 0 549 -7 533 -23 C 516 -38 508 -59 508 -86 C 508 -112 517 -133 535 -149 C 553 -165 579 -173 611 -173 L 611 -220 Z" unicode="Ą" />
<glyph horiz-adv-x="437" d="M 180 -10 C 136 -10 101 2 75 26 C 49 50 37 82 37 122 C 37 162 52 196 82 224 C 112 252 156 269 212 276 L 318 289 L 318 324 C 318 358 308 383 288 399 C 268 415 240 424 205 424 C 177 424 152 420 128 412 C 104 404 81 393 58 377 L 58 435 C 82 447 107 457 132 464 C 157 471 183 475 210 475 C 261 475 301 462 330 437 C 359 411 374 374 374 325 L 374 0 L 323 0 L 318 64 C 303 40 284 21 260 9 C 236 -3 209 -10 180 -10 Z M 191 37 C 220 37 246 44 268 59 C 290 74 307 94 318 118 L 318 245 L 219 233 C 178 228 147 216 125 197 C 103 178 93 154 93 126 C 93 99 101 77 119 61 C 136 45 160 37 191 37 Z M 373 -220 C 331 -220 299 -212 277 -197 C 255 -181 244 -158 244 -127 C 244 -99 253 -73 272 -47 C 291 -21 320 4 358 29 L 374 0 C 346 -17 326 -36 312 -56 C 298 -76 292 -96 292 -117 C 292 -135 298 -149 312 -159 C 326 -168 346 -173 373 -173 L 373 -220 Z" unicode="ą" />
<glyph horiz-adv-x="657" d="M 400 -13 C 296 -13 212 17 148 79 C 84 141 52 224 52 328 C 52 431 83 514 146 577 C 209 639 294 671 400 671 C 438 671 474 667 507 659 C 540 651 572 638 604 622 L 604 563 C 573 582 541 596 508 605 C 475 614 439 619 400 619 C 312 619 241 592 189 539 C 137 485 111 415 111 328 C 111 240 137 169 191 117 C 245 65 314 39 400 39 C 440 39 477 44 511 55 C 545 66 578 83 611 105 L 611 44 C 578 24 544 9 510 0 C 475 -8 438 -13 400 -13 Z M 409 728 L 354 728 L 450 855 L 511 855 L 409 728 Z" unicode="Ć" />
<glyph horiz-adv-x="467" d="M 280 -10 C 209 -10 152 11 110 55 C 67 98 46 156 46 230 C 46 306 66 365 108 409 C 150 452 206 474 276 474 C 301 474 326 470 350 464 C 374 457 399 447 423 435 L 423 376 C 398 392 374 403 352 411 C 329 418 304 422 278 422 C 224 422 181 405 149 372 C 117 339 102 292 102 231 C 102 172 118 126 151 92 C 184 58 228 41 282 41 C 308 41 332 45 356 54 C 379 62 401 75 421 91 L 421 32 C 400 18 378 7 354 0 C 330 -6 305 -10 280 -10 Z M 286 524 L 228 524 L 326 655 L 391 655 L 286 524 Z" unicode="ć" />
<glyph horiz-adv-x="657" d="M 400 -13 C 296 -13 212 17 148 79 C 84 141 52 224 52 328 C 52 431 83 514 146 577 C 209 639 294 671 400 671 C 438 671 474 667 507 659 C 540 651 572 638 604 622 L 604 563 C 573 582 541 596 508 605 C 475 614 439 619 400 619 C 312 619 241 592 189 539 C 137 485 111 415 111 328 C 111 240 137 169 191 117 C 245 65 314 39 400 39 C 440 39 477 44 511 55 C 545 66 578 83 611 105 L 611 44 C 578 24 544 9 510 0 C 475 -8 438 -13 400 -13 Z M 326 728 L 274 728 L 375 851 L 415 851 L 516 728 L 464 728 L 395 809 L 326 728 Z" unicode="Ĉ" />
<glyph horiz-adv-x="467" d="M 203 524 L 149 524 L 251 650 L 295 650 L 397 524 L 343 524 L 273 606 L 203 524 Z M 280 -10 C 209 -10 152 11 110 55 C 67 98 46 156 46 230 C 46 306 66 365 108 409 C 150 452 206 474 276 474 C 301 474 326 470 350 464 C 374 457 399 447 423 435 L 423 376 C 398 392 374 403 352 411 C 329 418 304 422 278 422 C 224 422 181 405 149 372 C 117 339 102 292 102 231 C 102 172 118 126 151 92 C 184 58 228 41 282 41 C 308 41 332 45 356 54 C 379 62 401 75 421 91 L 421 32 C 400 18 378 7 354 0 C 330 -6 305 -10 280 -10 Z" unicode="ĉ" />
<glyph horiz-adv-x="657" d="M 364 728 L 364 791 L 426 791 L 426 728 L 364 728 Z M 400 -13 C 296 -13 212 17 148 79 C 84 141 52 224 52 328 C 52 431 83 514 146 577 C 209 639 294 671 400 671 C 438 671 474 667 507 659 C 540 651 572 638 604 622 L 604 563 C 573 582 541 596 508 605 C 475 614 439 619 400 619 C 312 619 241 592 189 539 C 137 485 111 415 111 328 C 111 240 137 169 191 117 C 245 65 314 39 400 39 C 440 39 477 44 511 55 C 545 66 578 83 611 105 L 611 44 C 578 24 544 9 510 0 C 475 -8 438 -13 400 -13 Z" unicode="Ċ" />
<glyph horiz-adv-x="467" d="M 280 -10 C 209 -10 152 11 110 55 C 67 98 46 156 46 230 C 46 306 66 365 108 409 C 150 452 206 474 276 474 C 301 474 326 470 350 464 C 374 457 399 447 423 435 L 423 376 C 398 392 374 403 352 411 C 329 418 304 422 278 422 C 224 422 181 405 149 372 C 117 339 102 292 102 231 C 102 172 118 126 151 92 C 184 58 228 41 282 41 C 308 41 332 45 356 54 C 379 62 401 75 421 91 L 421 32 C 400 18 378 7 354 0 C 330 -6 305 -10 280 -10 Z M 240 536 L 240 602 L 306 602 L 306 536 L 240 536 Z" unicode="ċ" />
<glyph horiz-adv-x="657" d="M 400 -13 C 296 -13 212 17 148 79 C 84 141 52 224 52 328 C 52 431 83 514 146 577 C 209 639 294 671 400 671 C 438 671 474 667 507 659 C 540 651 572 638 604 622 L 604 563 C 573 582 541 596 508 605 C 475 614 439 619 400 619 C 312 619 241 592 189 539 C 137 485 111 415 111 328 C 111 240 137 169 191 117 C 245 65 314 39 400 39 C 440 39 477 44 511 55 C 545 66 578 83 611 105 L 611 44 C 578 24 544 9 510 0 C 475 -8 438 -13 400 -13 Z M 375 720 L 274 843 L 326 843 L 395 761 L 464 843 L 516 843 L 415 720 L 375 720 Z" unicode="Č" />
<glyph horiz-adv-x="467" d="M 251 524 L 149 650 L 203 650 L 273 567 L 343 650 L 397 650 L 295 524 L 251 524 Z M 280 -10 C 209 -10 152 11 110 55 C 67 98 46 156 46 230 C 46 306 66 365 108 409 C 150 452 206 474 276 474 C 301 474 326 470 350 464 C 374 457 399 447 423 435 L 423 376 C 398 392 374 403 352 411 C 329 418 304 422 278 422 C 224 422 181 405 149 372 C 117 339 102 292 102 231 C 102 172 118 126 151 92 C 184 58 228 41 282 41 C 308 41 332 45 356 54 C 379 62 401 75 421 91 L 421 32 C 400 18 378 7 354 0 C 330 -6 305 -10 280 -10 Z" unicode="č" />
<glyph horiz-adv-x="685" d="M 79 0 L 79 658 L 270 658 C 380 658 468 628 534 570 C 600 511 633 433 633 337 C 633 235 599 154 532 92 C 464 30 374 0 262 0 L 79 0 Z M 136 53 L 264 53 C 359 53 435 78 491 130 C 547 182 575 251 575 337 C 575 418 547 483 493 532 C 438 580 364 605 272 605 L 136 605 L 136 53 Z M 249 712 L 148 835 L 200 835 L 269 753 L 338 835 L 390 835 L 289 712 L 249 712 Z" unicode="Ď" />
<glyph horiz-adv-x="598" d="M 535 546 L 497 567 C 510 586 519 605 525 623 C 530 641 533 661 533 682 L 533 722 L 584 722 L 584 682 C 584 659 580 636 572 613 C 564 589 552 567 535 546 Z M 251 -10 C 191 -10 141 10 103 51 C 65 91 46 151 46 230 C 46 308 66 369 106 411 C 146 453 197 474 259 474 C 282 474 305 470 327 463 C 349 455 370 445 390 432 L 390 722 L 445 722 L 445 0 L 395 0 L 390 64 C 374 40 354 21 330 9 C 305 -3 279 -10 251 -10 Z M 259 39 C 288 39 314 46 337 61 C 359 75 377 95 390 120 L 390 378 C 371 393 351 405 330 413 C 309 421 287 425 264 425 C 214 425 174 407 145 372 C 116 336 102 290 102 232 C 102 173 115 126 143 91 C 171 56 209 39 259 39 Z" unicode="ď" />
<glyph horiz-adv-x="692" d="M 12 307 L 12 357 L 261 357 L 261 307 L 12 307 Z M 86 0 L 86 658 L 277 658 C 387 658 475 628 541 570 C 607 511 640 433 640 337 C 640 235 606 154 539 92 C 471 30 381 0 269 0 L 86 0 Z M 143 53 L 271 53 C 366 53 442 78 498 130 C 554 182 582 251 582 337 C 582 418 554 483 500 532 C 445 580 371 605 279 605 L 143 605 L 143 53 Z" unicode="Đ" />
<glyph horiz-adv-x="502" d="M 300 548 L 300 592 L 502 644 L 502 600 L 300 548 Z M 251 -10 C 191 -10 141 10 103 51 C 65 91 46 151 46 230 C 46 308 66 369 106 411 C 146 453 197 474 259 474 C 282 474 305 470 327 463 C 349 455 370 445 390 432 L 390 722 L 445 722 L 445 0 L 395 0 L 390 64 C 374 40 354 21 330 9 C 305 -3 279 -10 251 -10 Z M 259 39 C 288 39 314 46 337 61 C 359 75 377 95 390 120 L 390 378 C 371 393 351 405 330 413 C 309 421 287 425 264 425 C 214 425 174 407 145 372 C 116 336 102 290 102 232 C 102 173 115 126 143 91 C 171 56 209 39 259 39 Z" unicode="đ" />
<glyph horiz-adv-x="489" d="M 79 0 L 79 658 L 421 658 L 421 605 L 136 605 L 136 360 L 407 360 L 407 307 L 136 307 L 136 53 L 432 53 L 432 0 L 79 0 Z M 155 720 L 155 764 L 359 764 L 359 720 L 155 720 Z" unicode="Ē" />
<glyph horiz-adv-x="502" d="M 274 -10 C 200 -10 144 11 105 55 C 65 98 46 157 46 233 C 46 304 65 362 103 407 C 141 451 192 474 256 474 C 318 474 366 454 402 415 C 438 376 456 322 456 252 L 456 222 L 102 222 C 102 165 118 120 148 88 C 178 55 222 39 278 39 C 306 39 335 44 363 54 C 391 64 418 79 445 100 L 445 45 C 417 26 388 12 360 3 C 331 -5 302 -10 274 -10 Z M 255 427 C 212 427 176 412 148 383 C 120 353 104 315 102 267 L 400 267 C 400 316 387 355 361 384 C 335 412 300 427 255 427 Z M 151 532 L 151 578 L 361 578 L 361 532 L 151 532 Z" unicode="ē" />
<glyph horiz-adv-x="489" d="M 257 710 C 224 710 198 721 178 743 C 158 765 148 796 148 834 L 188 834 C 188 808 194 787 207 772 C 219 757 236 750 257 750 C 277 750 294 757 307 772 C 319 787 326 808 326 834 L 366 834 C 366 796 356 765 336 743 C 316 721 290 710 257 710 Z M 79 0 L 79 658 L 421 658 L 421 605 L 136 605 L 136 360 L 407 360 L 407 307 L 136 307 L 136 53 L 432 53 L 432 0 L 79 0 Z" unicode="Ĕ" />
<glyph horiz-adv-x="502" d="M 274 -10 C 200 -10 144 11 105 55 C 65 98 46 157 46 233 C 46 304 65 362 103 407 C 141 451 192 474 256 474 C 318 474 366 454 402 415 C 438 376 456 322 456 252 L 456 222 L 102 222 C 102 165 118 120 148 88 C 178 55 222 39 278 39 C 306 39 335 44 363 54 C 391 64 418 79 445 100 L 445 45 C 417 26 388 12 360 3 C 331 -5 302 -10 274 -10 Z M 255 427 C 212 427 176 412 148 383 C 120 353 104 315 102 267 L 400 267 C 400 316 387 355 361 384 C 335 412 300 427 255 427 Z M 256 516 C 222 516 194 527 174 550 C 154 572 144 603 144 643 L 186 643 C 186 617 192 596 205 581 C 217 565 234 558 256 558 C 277 558 294 565 307 581 C 320 596 327 617 327 643 L 368 643 C 368 603 357 572 337 550 C 317 527 290 516 256 516 Z" unicode="ĕ" />
<glyph horiz-adv-x="489" d="M 226 720 L 226 783 L 288 783 L 288 720 L 226 720 Z M 79 0 L 79 658 L 421 658 L 421 605 L 136 605 L 136 360 L 407 360 L 407 307 L 136 307 L 136 53 L 432 53 L 432 0 L 79 0 Z" unicode="Ė" />
<glyph horiz-adv-x="502" d="M 223 536 L 223 602 L 289 602 L 289 536 L 223 536 Z M 274 -10 C 200 -10 144 11 105 55 C 65 98 46 157 46 233 C 46 304 65 362 103 407 C 141 451 192 474 256 474 C 318 474 366 454 402 415 C 438 376 456 322 456 252 L 456 222 L 102 222 C 102 165 118 120 148 88 C 178 55 222 39 278 39 C 306 39 335 44 363 54 C 391 64 418 79 445 100 L 445 45 C 417 26 388 12 360 3 C 331 -5 302 -10 274 -10 Z M 255 427 C 212 427 176 412 148 383 C 120 353 104 315 102 267 L 400 267 C 400 316 387 355 361 384 C 335 412 300 427 255 427 Z" unicode="ė" />
<glyph horiz-adv-x="489" d="M 444 -220 C 398 -220 361 -208 333 -184 C 305 -160 292 -130 292 -94 C 292 -56 304 -25 330 -3 C 356 18 386 30 420 30 L 429 0 C 403 0 382 -7 366 -23 C 349 -38 341 -59 341 -86 C 341 -112 350 -133 368 -149 C 386 -165 412 -173 444 -173 L 444 -220 Z M 79 0 L 79 658 L 421 658 L 421 605 L 136 605 L 136 360 L 407 360 L 407 307 L 136 307 L 136 53 L 432 53 L 432 0 L 79 0 Z" unicode="Ę" />
<glyph horiz-adv-x="502" d="M 434 -218 C 382 -218 341 -205 311 -180 C 281 -154 266 -122 266 -84 C 266 -52 275 -25 294 -4 C 312 16 336 30 364 38 L 374 8 C 356 1 342 -9 332 -24 C 321 -38 316 -56 316 -77 C 316 -104 326 -127 348 -145 C 369 -163 398 -172 434 -172 L 434 -218 Z M 274 -10 C 200 -10 144 11 105 55 C 65 98 46 157 46 233 C 46 304 65 362 103 407 C 141 451 192 474 256 474 C 318 474 366 454 402 415 C 438 376 456 322 456 252 L 456 222 L 102 222 C 102 165 118 120 148 88 C 178 55 222 39 278 39 C 306 39 335 44 363 54 C 391 64 418 79 445 100 L 445 45 C 417 26 388 12 360 3 C 331 -5 302 -10 274 -10 Z M 255 427 C 212 427 176 412 148 383 C 120 353 104 315 102 267 L 400 267 C 400 316 387 355 361 384 C 335 412 300 427 255 427 Z" unicode="ę" />
<glyph horiz-adv-x="489" d="M 79 0 L 79 658 L 421 658 L 421 605 L 136 605 L 136 360 L 407 360 L 407 307 L 136 307 L 136 53 L 432 53 L 432 0 L 79 0 Z M 237 712 L 136 835 L 188 835 L 257 753 L 326 835 L 378 835 L 277 712 L 237 712 Z" unicode="Ě" />
<glyph horiz-adv-x="502" d="M 234 524 L 132 650 L 186 650 L 256 567 L 326 650 L 380 650 L 278 524 L 234 524 Z M 274 -10 C 200 -10 144 11 105 55 C 65 98 46 157 46 233 C 46 304 65 362 103 407 C 141 451 192 474 256 474 C 318 474 366 454 402 415 C 438 376 456 322 456 252 L 456 222 L 102 222 C 102 165 118 120 148 88 C 178 55 222 39 278 39 C 306 39 335 44 363 54 C 391 64 418 79 445 100 L 445 45 C 417 26 388 12 360 3 C 331 -5 302 -10 274 -10 Z M 255 427 C 212 427 176 412 148 383 C 120 353 104 315 102 267 L 400 267 C 400 316 387 355 361 384 C 335 412 300 427 255 427 Z" unicode="ě" />
<glyph horiz-adv-x="689" d="M 318 728 L 266 728 L 367 851 L 407 851 L 508 728 L 456 728 L 387 809 L 318 728 Z M 388 -13 C 286 -13 204 18 143 81 C 82 143 52 227 52 331 C 52 434 82 516 144 578 C 206 640 288 671 391 671 C 427 671 462 667 498 660 C 533 652 567 641 599 627 L 599 569 C 567 585 535 598 501 606 C 467 614 430 619 392 619 C 306 619 238 592 187 540 C 136 488 111 418 111 331 C 111 242 136 171 186 118 C 236 65 302 39 386 39 C 418 39 449 42 481 48 C 513 54 542 64 570 76 L 570 268 L 428 268 L 428 321 L 627 321 L 627 40 C 591 23 553 10 511 1 C 469 -8 428 -13 388 -13 Z" unicode="Ĝ" />
<glyph horiz-adv-x="517" d="M 190 524 L 136 524 L 238 650 L 282 650 L 384 524 L 330 524 L 260 606 L 190 524 Z M 245 -226 C 215 -226 185 -222 153 -214 C 121 -206 92 -195 66 -181 L 66 -122 C 90 -137 118 -150 148 -160 C 178 -170 209 -175 240 -175 C 286 -175 323 -160 351 -131 C 379 -102 394 -63 394 -14 L 394 57 C 377 35 356 18 332 7 C 308 -4 282 -10 256 -10 C 194 -10 143 10 104 51 C 65 92 46 152 46 231 C 46 308 66 368 107 410 C 148 452 200 474 262 474 C 287 474 313 469 340 459 C 366 449 388 435 405 419 L 419 464 L 449 464 L 449 -11 C 449 -75 430 -127 393 -167 C 356 -206 307 -226 245 -226 Z M 263 39 C 292 39 318 46 341 61 C 363 75 381 94 394 118 L 394 371 C 380 387 361 400 337 410 C 313 420 289 425 266 425 C 216 425 176 407 146 371 C 116 335 102 288 102 232 C 102 174 116 127 144 92 C 172 56 211 39 263 39 Z" unicode="ĝ" />
<glyph horiz-adv-x="689" d="M 387 718 C 354 718 328 729 308 751 C 288 773 278 804 278 842 L 318 842 C 318 816 324 795 337 780 C 349 765 366 758 387 758 C 407 758 424 765 437 780 C 449 795 456 816 456 842 L 496 842 C 496 804 486 773 466 751 C 446 729 420 718 387 718 Z M 388 -13 C 286 -13 204 18 143 81 C 82 143 52 227 52 331 C 52 434 82 516 144 578 C 206 640 288 671 391 671 C 427 671 462 667 498 660 C 533 652 567 641 599 627 L 599 569 C 567 585 535 598 501 606 C 467 614 430 619 392 619 C 306 619 238 592 187 540 C 136 488 111 418 111 331 C 111 242 136 171 186 118 C 236 65 302 39 386 39 C 418 39 449 42 481 48 C 513 54 542 64 570 76 L 570 268 L 428 268 L 428 321 L 627 321 L 627 40 C 591 23 553 10 511 1 C 469 -8 428 -13 388 -13 Z" unicode="Ğ" />
<glyph horiz-adv-x="517" d="M 260 516 C 226 516 198 527 178 550 C 158 572 148 603 148 643 L 190 643 C 190 617 196 596 209 581 C 221 565 238 558 260 558 C 281 558 298 565 311 581 C 324 596 331 617 331 643 L 372 643 C 372 603 361 572 341 550 C 321 527 294 516 260 516 Z M 245 -226 C 215 -226 185 -222 153 -214 C 121 -206 92 -195 66 -181 L 66 -122 C 90 -137 118 -150 148 -160 C 178 -170 209 -175 240 -175 C 286 -175 323 -160 351 -131 C 379 -102 394 -63 394 -14 L 394 57 C 377 35 356 18 332 7 C 308 -4 282 -10 256 -10 C 194 -10 143 10 104 51 C 65 92 46 152 46 231 C 46 308 66 368 107 410 C 148 452 200 474 262 474 C 287 474 313 469 340 459 C 366 449 388 435 405 419 L 419 464 L 449 464 L 449 -11 C 449 -75 430 -127 393 -167 C 356 -206 307 -226 245 -226 Z M 263 39 C 292 39 318 46 341 61 C 363 75 381 94 394 118 L 394 371 C 380 387 361 400 337 410 C 313 420 289 425 266 425 C 216 425 176 407 146 371 C 116 335 102 288 102 232 C 102 174 116 127 144 92 C 172 56 211 39 263 39 Z" unicode="ğ" />
<glyph horiz-adv-x="689" d="M 356 728 L 356 791 L 418 791 L 418 728 L 356 728 Z M 388 -13 C 286 -13 204 18 143 81 C 82 143 52 227 52 331 C 52 434 82 516 144 578 C 206 640 288 671 391 671 C 427 671 462 667 498 660 C 533 652 567 641 599 627 L 599 569 C 567 585 535 598 501 606 C 467 614 430 619 392 619 C 306 619 238 592 187 540 C 136 488 111 418 111 331 C 111 242 136 171 186 118 C 236 65 302 39 386 39 C 418 39 449 42 481 48 C 513 54 542 64 570 76 L 570 268 L 428 268 L 428 321 L 627 321 L 627 40 C 591 23 553 10 511 1 C 469 -8 428 -13 388 -13 Z" unicode="Ġ" />
<glyph horiz-adv-x="517" d="M 227 536 L 227 602 L 293 602 L 293 536 L 227 536 Z M 245 -226 C 215 -226 185 -222 153 -214 C 121 -206 92 -195 66 -181 L 66 -122 C 90 -137 118 -150 148 -160 C 178 -170 209 -175 240 -175 C 286 -175 323 -160 351 -131 C 379 -102 394 -63 394 -14 L 394 57 C 377 35 356 18 332 7 C 308 -4 282 -10 256 -10 C 194 -10 143 10 104 51 C 65 92 46 152 46 231 C 46 308 66 368 107 410 C 148 452 200 474 262 474 C 287 474 313 469 340 459 C 366 449 388 435 405 419 L 419 464 L 449 464 L 449 -11 C 449 -75 430 -127 393 -167 C 356 -206 307 -226 245 -226 Z M 263 39 C 292 39 318 46 341 61 C 363 75 381 94 394 118 L 394 371 C 380 387 361 400 337 410 C 313 420 289 425 266 425 C 216 425 176 407 146 371 C 116 335 102 288 102 232 C 102 174 116 127 144 92 C 172 56 211 39 263 39 Z" unicode="ġ" />
<glyph horiz-adv-x="689" d="M 362 -227 L 326 -207 C 339 -187 348 -169 353 -151 C 358 -133 361 -115 361 -95 L 361 -56 L 409 -56 L 409 -95 C 409 -117 405 -139 398 -162 C 390 -184 378 -206 362 -227 Z M 388 -13 C 286 -13 204 18 143 81 C 82 143 52 227 52 331 C 52 434 82 516 144 578 C 206 640 288 671 391 671 C 427 671 462 667 498 660 C 533 652 567 641 599 627 L 599 569 C 567 585 535 598 501 606 C 467 614 430 619 392 619 C 306 619 238 592 187 540 C 136 488 111 418 111 331 C 111 242 136 171 186 118 C 236 65 302 39 386 39 C 418 39 449 42 481 48 C 513 54 542 64 570 76 L 570 268 L 428 268 L 428 321 L 627 321 L 627 40 C 591 23 553 10 511 1 C 469 -8 428 -13 388 -13 Z" unicode="Ģ" />
<glyph horiz-adv-x="517" d="M 245 -226 C 215 -226 185 -222 153 -214 C 121 -206 92 -195 66 -181 L 66 -122 C 90 -137 118 -150 148 -160 C 178 -170 209 -175 240 -175 C 286 -175 323 -160 351 -131 C 379 -102 394 -63 394 -14 L 394 57 C 377 35 356 18 332 7 C 308 -4 282 -10 256 -10 C 194 -10 143 10 104 51 C 65 92 46 152 46 231 C 46 308 66 368 107 410 C 148 452 200 474 262 474 C 287 474 313 469 340 459 C 366 449 388 435 405 419 L 419 464 L 449 464 L 449 -11 C 449 -75 430 -127 393 -167 C 356 -206 307 -226 245 -226 Z M 263 39 C 292 39 318 46 341 61 C 363 75 381 94 394 118 L 394 371 C 380 387 361 400 337 410 C 313 420 289 425 266 425 C 216 425 176 407 146 371 C 116 335 102 288 102 232 C 102 174 116 127 144 92 C 172 56 211 39 263 39 Z M 282 719 L 320 698 C 306 678 297 658 292 640 C 286 622 284 602 284 582 L 284 543 L 233 543 L 233 582 C 233 604 236 627 244 651 C 252 675 264 697 282 719 Z" unicode="ģ" />
<glyph horiz-adv-x="684" d="M 79 0 L 79 658 L 136 658 L 136 364 L 548 364 L 548 658 L 605 658 L 605 0 L 548 0 L 548 312 L 136 312 L 136 0 L 79 0 Z M 278 720 L 226 720 L 327 843 L 367 843 L 468 720 L 416 720 L 347 801 L 278 720 Z" unicode="Ĥ" />
<glyph horiz-adv-x="498" d="M 71 0 L 71 722 L 127 722 L 127 400 C 143 422 164 440 189 454 C 214 467 241 474 269 474 C 321 474 360 458 388 428 C 415 398 429 357 429 306 L 429 0 L 374 0 L 374 297 C 374 339 363 370 342 392 C 321 413 293 424 258 424 C 231 424 206 416 183 402 C 159 388 141 369 127 347 L 127 0 L 71 0 Z M 29 730 L -25 730 L 77 856 L 121 856 L 223 730 L 169 730 L 99 812 L 29 730 Z" unicode="ĥ" />
<glyph horiz-adv-x="690" d="M 82 0 L 82 480 L 28 480 L 28 530 L 82 530 L 82 658 L 139 658 L 139 530 L 551 530 L 551 658 L 608 658 L 608 530 L 662 530 L 662 480 L 608 480 L 608 0 L 551 0 L 551 310 L 139 310 L 139 0 L 82 0 Z M 139 363 L 551 363 L 551 480 L 139 480 L 139 363 Z" unicode="Ħ" />
<glyph horiz-adv-x="498" d="M 12 577 L 12 626 L 211 626 L 211 577 L 12 577 Z M 71 0 L 71 722 L 127 722 L 127 400 C 143 422 164 440 189 454 C 214 467 241 474 269 474 C 321 474 360 458 388 428 C 415 398 429 357 429 306 L 429 0 L 374 0 L 374 297 C 374 339 363 370 342 392 C 321 413 293 424 258 424 C 231 424 206 416 183 402 C 159 388 141 369 127 347 L 127 0 L 71 0 Z" unicode="ħ" />
<glyph horiz-adv-x="215" d="M 79 0 L 79 658 L 136 658 L 136 0 L 79 0 Z M 2 720 L -34 720 C -31 750 -22 773 -8 789 C 5 804 24 812 47 812 C 58 812 69 809 80 804 C 91 798 104 790 119 780 C 127 773 136 767 144 762 C 152 756 160 754 169 754 C 181 754 191 758 199 767 C 207 775 212 788 214 805 L 250 805 C 247 772 238 748 223 734 C 207 719 189 712 169 712 C 156 712 144 714 133 720 C 121 726 109 734 97 745 C 87 753 79 759 71 763 C 63 767 55 770 47 770 C 34 770 24 765 16 757 C 8 749 3 736 2 720 Z" unicode="Ĩ" />
<glyph horiz-adv-x="198" d="M 71 0 L 71 464 L 127 464 L 127 0 L 71 0 Z M -4 524 L -43 524 C -40 556 -31 580 -16 596 C 0 612 18 620 41 620 C 52 620 63 617 75 611 C 86 605 99 597 114 587 C 123 579 132 573 140 568 C 148 563 156 561 166 561 C 177 561 187 565 195 574 C 203 582 208 595 210 612 L 249 612 C 246 579 237 555 221 539 C 205 523 186 516 165 516 C 151 516 139 518 128 524 C 116 530 104 538 92 549 C 82 557 73 564 65 568 C 57 572 48 575 40 575 C 28 575 18 570 10 562 C 2 553 -2 540 -4 524 Z" unicode="ĩ" />
<glyph horiz-adv-x="215" d="M 79 0 L 79 658 L 136 658 L 136 0 L 79 0 Z M 6 720 L 6 764 L 210 764 L 210 720 L 6 720 Z" unicode="Ī" />
<glyph horiz-adv-x="198" d="M 71 0 L 71 464 L 127 464 L 127 0 L 71 0 Z M -2 532 L -2 578 L 208 578 L 208 532 L -2 532 Z" unicode="ī" />
<glyph horiz-adv-x="215" d="M 79 0 L 79 658 L 136 658 L 136 0 L 79 0 Z M 108 710 C 75 710 49 721 29 743 C 9 765 -1 796 -1 834 L 39 834 C 39 808 45 787 58 772 C 70 757 87 750 108 750 C 128 750 145 757 158 772 C 170 787 177 808 177 834 L 217 834 C 217 796 207 765 187 743 C 167 721 141 710 108 710 Z" unicode="Ĭ" />
<glyph horiz-adv-x="198" d="M 71 0 L 71 464 L 127 464 L 127 0 L 71 0 Z M 103 516 C 69 516 41 527 21 550 C 1 572 -9 603 -9 643 L 33 643 C 33 617 39 596 52 581 C 64 565 81 558 103 558 C 124 558 141 565 154 581 C 167 596 174 617 174 643 L 215 643 C 215 603 204 572 184 550 C 164 527 137 516 103 516 Z" unicode="ĭ" />
<glyph horiz-adv-x="215" d="M 79 0 L 79 658 L 136 658 L 136 0 L 79 0 Z M 131 -220 C 89 -220 57 -212 35 -197 C 13 -181 2 -158 2 -127 C 2 -99 11 -73 30 -47 C 49 -21 78 4 116 29 L 132 0 C 104 -17 84 -36 70 -56 C 56 -76 50 -96 50 -117 C 50 -135 56 -149 70 -159 C 84 -168 104 -173 131 -173 L 131 -220 Z" unicode="Į" />
<glyph horiz-adv-x="203" d="M 71 624 L 71 684 L 132 684 L 132 624 L 71 624 Z M 74 0 L 74 464 L 130 464 L 130 0 L 74 0 Z M 125 -220 C 83 -220 51 -212 29 -197 C 7 -181 -4 -158 -4 -127 C -4 -99 5 -73 24 -47 C 43 -21 72 4 110 29 L 126 0 C 98 -17 78 -36 64 -56 C 50 -76 44 -96 44 -117 C 44 -135 50 -149 64 -159 C 78 -168 98 -173 125 -173 L 125 -220 Z" unicode="į" />
<glyph horiz-adv-x="215" d="M 79 0 L 79 658 L 136 658 L 136 0 L 79 0 Z M 77 720 L 77 783 L 139 783 L 139 720 L 77 720 Z" unicode="İ" />
<glyph horiz-adv-x="198" d="M 71 0 L 71 464 L 127 464 L 127 0 L 71 0 Z" unicode="ı" />
<glyph horiz-adv-x="217" d="M 79 0 L 79 658 L 136 658 L 136 0 L 79 0 Z M -13 -218 L -21 -218 L -21 -165 L -13 -165 C 15 -165 38 -156 55 -138 C 72 -120 81 -95 81 -63 L 81 658 L 138 658 L 138 -63 C 138 -110 124 -148 97 -176 C 69 -204 33 -218 -13 -218 Z" unicode="Ĳ" />
<glyph horiz-adv-x="179" d="M 71 624 L 71 684 L 132 684 L 132 624 L 71 624 Z M 74 0 L 74 464 L 130 464 L 130 0 L 74 0 Z M 59 641 L 59 701 L 120 701 L 120 641 L 59 641 Z M -33 -218 L -41 -218 L -41 -167 L -33 -167 C -4 -167 18 -156 36 -136 C 53 -116 62 -89 62 -56 L 62 464 L 117 464 L 117 -56 C 117 -105 103 -144 76 -174 C 48 -203 12 -218 -33 -218 Z" unicode="ĳ" />
<glyph horiz-adv-x="217" d="M 42 720 L -10 720 L 91 843 L 131 843 L 232 720 L 180 720 L 111 801 L 42 720 Z M -13 -218 L -21 -218 L -21 -165 L -13 -165 C 15 -165 38 -156 55 -138 C 72 -120 81 -95 81 -63 L 81 658 L 138 658 L 138 -63 C 138 -110 124 -148 97 -176 C 69 -204 33 -218 -13 -218 Z" unicode="Ĵ" />
<glyph horiz-adv-x="177" d="M -33 -218 L -41 -218 L -41 -167 L -33 -167 C -4 -167 18 -157 36 -137 C 54 -117 63 -90 63 -56 L 63 464 L 118 464 L 118 -56 C 118 -105 104 -144 76 -174 C 48 -203 12 -218 -33 -218 Z M 24 524 L -30 524 L 72 650 L 116 650 L 218 524 L 164 524 L 94 606 L 24 524 Z" unicode="ĵ" />
<glyph horiz-adv-x="558" d="M 268 -219 L 232 -199 C 245 -179 254 -161 259 -143 C 264 -125 267 -107 267 -87 L 267 -48 L 315 -48 L 315 -87 C 315 -109 311 -131 304 -154 C 296 -176 284 -198 268 -219 Z M 79 0 L 79 658 L 136 658 L 136 351 L 439 658 L 511 658 L 193 339 L 527 0 L 449 0 L 136 319 L 136 0 L 79 0 Z" unicode="Ķ" />
<glyph horiz-adv-x="442" d="M 71 0 L 71 722 L 127 722 L 127 254 L 338 464 L 406 464 L 183 244 L 431 0 L 358 0 L 127 226 L 127 0 L 71 0 Z M 224 -223 L 185 -201 C 199 -181 208 -162 214 -144 C 219 -126 222 -106 222 -86 L 222 -46 L 272 -46 L 272 -86 C 272 -108 268 -131 261 -155 C 253 -178 241 -201 224 -223 Z" unicode="ķ" />
<glyph horiz-adv-x="457" d="M 79 0 L 79 658 L 136 658 L 136 53 L 438 53 L 438 0 L 79 0 Z M 133 720 L 78 720 L 174 847 L 235 847 L 133 720 Z" unicode="Ĺ" />
<glyph horiz-adv-x="198" d="M 115 782 L 57 782 L 155 913 L 220 913 L 115 782 Z M 71 0 L 71 722 L 127 722 L 127 0 L 71 0 Z" unicode="ĺ" />
<glyph horiz-adv-x="458" d="M 245 -219 L 209 -199 C 222 -179 231 -161 236 -143 C 241 -125 244 -107 244 -87 L 244 -48 L 292 -48 L 292 -87 C 292 -109 288 -131 281 -154 C 273 -176 261 -198 245 -219 Z M 79 0 L 79 658 L 136 658 L 136 53 L 438 53 L 438 0 L 79 0 Z" unicode="Ļ" />
<glyph horiz-adv-x="195" d="M 76 -223 L 37 -201 C 51 -181 60 -162 66 -144 C 71 -126 74 -106 74 -86 L 74 -46 L 124 -46 L 124 -86 C 124 -108 120 -131 113 -155 C 105 -178 93 -201 76 -223 Z M 71 0 L 71 722 L 127 722 L 127 0 L 71 0 Z" unicode="ļ" />
<glyph horiz-adv-x="457" d="M 298 482 L 260 503 C 273 523 282 542 288 560 C 293 578 296 597 296 618 L 296 658 L 347 658 L 347 618 C 347 595 343 572 335 549 C 327 525 315 503 298 482 Z M 79 0 L 79 658 L 136 658 L 136 53 L 438 53 L 438 0 L 79 0 Z" unicode="Ľ" />
<glyph horiz-adv-x="285" d="M 223 546 L 185 567 C 198 586 207 605 213 623 C 218 641 221 661 221 682 L 221 722 L 272 722 L 272 682 C 272 659 268 636 260 613 C 252 589 240 567 223 546 Z M 71 0 L 71 722 L 127 722 L 127 0 L 71 0 Z" unicode="ľ" />
<glyph horiz-adv-x="458" d="M 304 321 L 304 382 L 366 382 L 366 321 L 304 321 Z M 79 0 L 79 658 L 136 658 L 136 53 L 438 53 L 438 0 L 79 0 Z" unicode="Ŀ" />
<glyph horiz-adv-x="231" d="M 183 324 L 183 385 L 245 385 L 245 324 L 183 324 Z M 71 0 L 71 722 L 127 722 L 127 0 L 71 0 Z" unicode="ŀ" />
<glyph horiz-adv-x="457" d="M 6 278 L 6 330 L 235 415 L 235 363 L 6 278 Z M 79 0 L 79 658 L 136 658 L 136 53 L 438 53 L 438 0 L 79 0 Z" unicode="Ł" />
<glyph horiz-adv-x="190" d="M 4 317 L 4 366 L 188 418 L 188 369 L 4 317 Z M 77 0 L 77 722 L 133 722 L 133 0 L 77 0 Z" unicode="ł" />
<glyph horiz-adv-x="711" d="M 79 0 L 79 658 L 142 658 L 546 123 L 578 78 L 578 123 L 578 658 L 631 658 L 631 0 L 569 0 L 164 536 L 132 581 L 132 537 L 132 0 L 79 0 Z M 369 720 L 314 720 L 410 847 L 471 847 L 369 720 Z" unicode="Ń" />
<glyph horiz-adv-x="498" d="M 264 524 L 206 524 L 304 655 L 369 655 L 264 524 Z M 71 0 L 71 464 L 127 464 L 127 400 C 143 422 164 440 189 454 C 214 467 241 474 269 474 C 321 474 360 458 388 428 C 415 398 429 357 429 306 L 429 0 L 374 0 L 374 297 C 374 339 363 370 342 392 C 321 413 293 424 258 424 C 231 424 206 416 183 402 C 159 388 141 369 127 347 L 127 0 L 71 0 Z" unicode="ń" />
<glyph horiz-adv-x="711" d="M 334 -219 L 298 -199 C 311 -179 320 -161 325 -143 C 330 -125 333 -107 333 -87 L 333 -48 L 381 -48 L 381 -87 C 381 -109 377 -131 370 -154 C 362 -176 350 -198 334 -219 Z M 79 0 L 79 658 L 142 658 L 546 123 L 578 78 L 578 123 L 578 658 L 631 658 L 631 0 L 569 0 L 164 536 L 132 581 L 132 537 L 132 0 L 79 0 Z" unicode="Ņ" />
<glyph horiz-adv-x="498" d="M 226 -223 L 187 -201 C 201 -181 210 -162 216 -144 C 221 -126 224 -106 224 -86 L 224 -46 L 274 -46 L 274 -86 C 274 -108 270 -131 263 -155 C 255 -178 243 -201 226 -223 Z M 71 0 L 71 464 L 127 464 L 127 400 C 143 422 164 440 189 454 C 214 467 241 474 269 474 C 321 474 360 458 388 428 C 415 398 429 357 429 306 L 429 0 L 374 0 L 374 297 C 374 339 363 370 342 392 C 321 413 293 424 258 424 C 231 424 206 416 183 402 C 159 388 141 369 127 347 L 127 0 L 71 0 Z" unicode="ņ" />
<glyph horiz-adv-x="711" d="M 335 712 L 234 835 L 286 835 L 355 753 L 424 835 L 476 835 L 375 712 L 335 712 Z M 79 0 L 79 658 L 142 658 L 546 123 L 578 78 L 578 123 L 578 658 L 631 658 L 631 0 L 569 0 L 164 536 L 132 581 L 132 537 L 132 0 L 79 0 Z" unicode="Ň" />
<glyph horiz-adv-x="498" d="M 229 524 L 127 650 L 181 650 L 251 567 L 321 650 L 375 650 L 273 524 L 229 524 Z M 71 0 L 71 464 L 127 464 L 127 400 C 143 422 164 440 189 454 C 214 467 241 474 269 474 C 321 474 360 458 388 428 C 415 398 429 357 429 306 L 429 0 L 374 0 L 374 297 C 374 339 363 370 342 392 C 321 413 293 424 258 424 C 231 424 206 416 183 402 C 159 388 141 369 127 347 L 127 0 L 71 0 Z" unicode="ň" />
<glyph horiz-adv-x="711" d="M 79 0 L 79 658 L 138 658 L 553 128 L 578 92 L 578 128 L 578 658 L 631 658 L 631 -68 C 631 -114 617 -150 591 -177 C 565 -204 529 -218 483 -218 L 475 -218 L 475 -167 L 483 -167 C 511 -167 535 -158 553 -141 C 571 -123 580 -99 580 -68 L 580 0 L 162 536 L 132 580 L 132 536 L 132 0 L 79 0 Z" unicode="Ŋ" />
<glyph horiz-adv-x="498" d="M 286 -218 L 278 -218 L 278 -167 L 286 -167 C 312 -167 334 -157 350 -139 C 366 -120 374 -94 374 -62 L 374 296 C 374 337 363 368 341 390 C 319 411 291 422 255 422 C 228 422 203 415 181 401 C 158 387 140 369 127 347 L 127 0 L 71 0 L 71 464 L 127 464 L 127 400 C 143 422 164 440 189 454 C 213 467 240 474 269 474 C 321 474 360 458 388 428 C 415 398 429 357 429 306 L 429 -62 C 429 -109 416 -147 390 -175 C 364 -203 329 -218 286 -218 Z" unicode="ŋ" />
<glyph horiz-adv-x="777" d="M 388 -14 C 289 -14 208 17 146 81 C 83 145 52 227 52 329 C 52 431 83 513 147 577 C 210 640 290 672 388 672 C 486 672 566 640 629 577 C 692 514 724 431 724 329 C 724 226 692 143 630 80 C 568 17 487 -14 388 -14 Z M 388 38 C 469 38 536 64 588 118 C 640 172 666 242 666 329 C 666 415 640 485 588 539 C 536 593 469 620 388 620 C 307 620 241 593 189 539 C 137 485 111 415 111 329 C 111 242 137 172 189 118 C 241 64 307 38 388 38 Z M 287 728 L 287 772 L 491 772 L 491 728 L 287 728 Z" unicode="Ō" />
<glyph horiz-adv-x="557" d="M 174 532 L 174 578 L 384 578 L 384 532 L 174 532 Z M 279 -10 C 209 -10 153 12 110 56 C 67 100 46 159 46 231 C 46 303 67 362 110 407 C 153 451 209 474 279 474 C 348 474 404 451 447 407 C 489 363 511 304 511 232 C 511 159 489 100 447 56 C 404 12 348 -10 279 -10 Z M 279 40 C 331 40 373 57 406 92 C 438 127 455 173 455 231 C 455 288 438 334 406 370 C 373 406 331 424 279 424 C 226 424 183 406 151 371 C 118 335 102 289 102 232 C 102 174 118 128 151 93 C 183 57 226 40 279 40 Z" unicode="ō" />
<glyph horiz-adv-x="777" d="M 389 718 C 356 718 330 729 310 751 C 290 773 280 804 280 842 L 320 842 C 320 816 326 795 339 780 C 351 765 368 758 389 758 C 409 758 426 765 439 780 C 451 795 458 816 458 842 L 498 842 C 498 804 488 773 468 751 C 448 729 422 718 389 718 Z M 388 -14 C 289 -14 208 17 146 81 C 83 145 52 227 52 329 C 52 431 83 513 147 577 C 210 640 290 672 388 672 C 486 672 566 640 629 577 C 692 514 724 431 724 329 C 724 226 692 143 630 80 C 568 17 487 -14 388 -14 Z M 388 38 C 469 38 536 64 588 118 C 640 172 666 242 666 329 C 666 415 640 485 588 539 C 536 593 469 620 388 620 C 307 620 241 593 189 539 C 137 485 111 415 111 329 C 111 242 137 172 189 118 C 241 64 307 38 388 38 Z" unicode="Ŏ" />
<glyph horiz-adv-x="557" d="M 279 516 C 245 516 217 527 197 550 C 177 572 167 603 167 643 L 209 643 C 209 617 215 596 228 581 C 240 565 257 558 279 558 C 300 558 317 565 330 581 C 343 596 350 617 350 643 L 391 643 C 391 603 380 572 360 550 C 340 527 313 516 279 516 Z M 279 -10 C 209 -10 153 12 110 56 C 67 100 46 159 46 231 C 46 303 67 362 110 407 C 153 451 209 474 279 474 C 348 474 404 451 447 407 C 489 363 511 304 511 232 C 511 159 489 100 447 56 C 404 12 348 -10 279 -10 Z M 279 40 C 331 40 373 57 406 92 C 438 127 455 173 455 231 C 455 288 438 334 406 370 C 373 406 331 424 279 424 C 226 424 183 406 151 371 C 118 335 102 289 102 232 C 102 174 118 128 151 93 C 183 57 226 40 279 40 Z" unicode="ŏ" />
<glyph horiz-adv-x="777" d="M 302 728 L 393 850 L 449 850 L 352 728 L 302 728 Z M 424 728 L 518 850 L 574 850 L 475 728 L 424 728 Z M 388 -14 C 289 -14 208 17 146 81 C 83 145 52 227 52 329 C 52 431 83 513 147 577 C 210 640 290 672 388 672 C 486 672 566 640 629 577 C 692 514 724 431 724 329 C 724 226 692 143 630 80 C 568 17 487 -14 388 -14 Z M 388 38 C 469 38 536 64 588 118 C 640 172 666 242 666 329 C 666 415 640 485 588 539 C 536 593 469 620 388 620 C 307 620 241 593 189 539 C 137 485 111 415 111 329 C 111 242 137 172 189 118 C 241 64 307 38 388 38 Z" unicode="Ő" />
<glyph horiz-adv-x="557" d="M 186 524 L 279 650 L 338 650 L 239 524 L 186 524 Z M 313 524 L 408 650 L 467 650 L 366 524 L 313 524 Z M 279 -10 C 209 -10 153 12 110 56 C 67 100 46 159 46 231 C 46 303 67 362 110 407 C 153 451 209 474 279 474 C 348 474 404 451 447 407 C 489 363 511 304 511 232 C 511 159 489 100 447 56 C 404 12 348 -10 279 -10 Z M 279 40 C 331 40 373 57 406 92 C 438 127 455 173 455 231 C 455 288 438 334 406 370 C 373 406 331 424 279 424 C 226 424 183 406 151 371 C 118 335 102 289 102 232 C 102 174 118 128 151 93 C 183 57 226 40 279 40 Z" unicode="ő" />
<glyph horiz-adv-x="886" d="M 395 0 C 290 0 207 30 145 90 C 83 150 52 231 52 332 C 52 431 83 510 145 569 C 207 628 292 658 398 658 L 818 658 L 818 605 L 533 605 L 533 360 L 804 360 L 804 307 L 533 307 L 533 53 L 829 53 L 829 0 L 395 0 Z M 393 53 L 476 53 L 476 605 L 396 605 C 308 605 239 580 188 531 C 136 481 111 415 111 332 C 111 246 136 178 187 128 C 238 78 307 53 393 53 Z" unicode="Œ" />
<glyph horiz-adv-x="913" d="M 685 -10 C 611 -10 555 11 516 55 C 476 98 457 157 457 233 C 457 304 476 362 514 407 C 552 451 603 474 667 474 C 729 474 777 454 813 415 C 849 376 867 322 867 252 L 867 222 L 513 222 C 513 165 529 120 559 88 C 589 55 633 39 689 39 C 717 39 746 44 774 54 C 802 64 829 79 856 100 L 856 45 C 828 26 799 12 771 3 C 742 -5 713 -10 685 -10 Z M 666 427 C 623 427 587 412 559 383 C 531 353 515 315 513 267 L 811 267 C 811 316 798 355 772 384 C 746 412 711 427 666 427 Z M 279 -10 C 209 -10 153 12 110 56 C 67 100 46 159 46 231 C 46 303 67 362 110 407 C 153 451 209 474 279 474 C 348 474 404 451 447 407 C 489 363 511 304 511 232 C 511 159 489 100 447 56 C 404 12 348 -10 279 -10 Z M 279 40 C 331 40 373 57 406 92 C 438 127 455 173 455 231 C 455 288 438 334 406 370 C 373 406 331 424 279 424 C 226 424 183 406 151 371 C 118 335 102 289 102 232 C 102 174 118 128 151 93 C 183 57 226 40 279 40 Z" unicode="œ" />
<glyph horiz-adv-x="516" d="M 424 0 L 342 217 C 330 247 315 269 295 283 C 275 296 251 303 223 303 L 136 303 L 136 0 L 79 0 L 79 658 L 236 658 C 296 658 343 642 378 612 C 413 581 431 540 431 488 C 431 448 420 414 399 384 C 378 354 348 334 310 324 C 330 317 347 306 361 291 C 375 275 387 256 397 232 L 486 0 L 424 0 Z M 136 353 L 240 353 C 281 353 313 364 337 387 C 361 410 373 442 373 482 C 373 520 360 550 335 573 C 309 595 276 607 235 607 L 136 607 L 136 353 Z M 249 720 L 194 720 L 290 847 L 351 847 L 249 720 Z" unicode="Ŕ" />
<glyph horiz-adv-x="303" d="M 195 524 L 137 524 L 235 655 L 300 655 L 195 524 Z M 71 0 L 71 464 L 127 464 L 127 397 C 135 421 150 439 171 453 C 191 467 213 474 236 474 C 246 474 256 473 266 471 C 276 469 285 467 295 464 L 295 401 C 284 405 273 409 262 412 C 251 414 240 416 229 416 C 205 416 184 409 166 395 C 148 381 135 364 127 344 L 127 0 L 71 0 Z" unicode="ŕ" />
<glyph horiz-adv-x="516" d="M 254 -219 L 218 -199 C 231 -179 240 -161 245 -143 C 250 -125 253 -107 253 -87 L 253 -48 L 301 -48 L 301 -87 C 301 -109 297 -131 290 -154 C 282 -176 270 -198 254 -219 Z M 424 0 L 342 217 C 330 247 315 269 295 283 C 275 296 251 303 223 303 L 136 303 L 136 0 L 79 0 L 79 658 L 236 658 C 296 658 343 642 378 612 C 413 581 431 540 431 488 C 431 448 420 414 399 384 C 378 354 348 334 310 324 C 330 317 347 306 361 291 C 375 275 387 256 397 232 L 486 0 L 424 0 Z M 136 353 L 240 353 C 281 353 313 364 337 387 C 361 410 373 442 373 482 C 373 520 360 550 335 573 C 309 595 276 607 235 607 L 136 607 L 136 353 Z" unicode="Ŗ" />
<glyph horiz-adv-x="303" d="M 71 0 L 71 464 L 127 464 L 127 397 C 135 421 150 439 171 453 C 191 467 213 474 236 474 C 246 474 256 473 266 471 C 276 469 285 467 295 464 L 295 401 C 284 405 273 409 262 412 C 251 414 240 416 229 416 C 205 416 184 409 166 395 C 148 381 135 364 127 344 L 127 0 L 71 0 Z M 77 -223 L 38 -201 C 52 -181 61 -162 67 -144 C 72 -126 75 -106 75 -86 L 75 -46 L 125 -46 L 125 -86 C 125 -108 121 -131 114 -155 C 106 -178 94 -201 77 -223 Z" unicode="ŗ" />
<glyph horiz-adv-x="516" d="M 424 0 L 342 217 C 330 247 315 269 295 283 C 275 296 251 303 223 303 L 136 303 L 136 0 L 79 0 L 79 658 L 236 658 C 296 658 343 642 378 612 C 413 581 431 540 431 488 C 431 448 420 414 399 384 C 378 354 348 334 310 324 C 330 317 347 306 361 291 C 375 275 387 256 397 232 L 486 0 L 424 0 Z M 136 353 L 240 353 C 281 353 313 364 337 387 C 361 410 373 442 373 482 C 373 520 360 550 335 573 C 309 595 276 607 235 607 L 136 607 L 136 353 Z M 215 712 L 114 835 L 166 835 L 235 753 L 304 835 L 356 835 L 255 712 L 215 712 Z" unicode="Ř" />
<glyph horiz-adv-x="303" d="M 160 524 L 58 650 L 112 650 L 182 567 L 252 650 L 306 650 L 204 524 L 160 524 Z M 71 0 L 71 464 L 127 464 L 127 397 C 135 421 150 439 171 453 C 191 467 213 474 236 474 C 246 474 256 473 266 471 C 276 469 285 467 295 464 L 295 401 C 284 405 273 409 262 412 C 251 414 240 416 229 416 C 205 416 184 409 166 395 C 148 381 135 364 127 344 L 127 0 L 71 0 Z" unicode="ř" />
<glyph horiz-adv-x="505" d="M 247 -16 C 213 -16 180 -11 149 -2 C 118 7 89 21 63 39 L 63 103 C 89 81 118 64 149 53 C 180 42 212 37 245 37 C 287 37 322 48 348 71 C 374 93 387 124 387 162 C 387 197 376 226 355 248 C 333 270 299 290 252 309 L 234 315 C 178 337 137 362 111 390 C 85 418 72 456 72 502 C 72 553 89 594 123 626 C 157 658 204 674 262 674 C 292 674 320 669 348 661 C 375 653 401 641 426 625 L 426 558 C 403 578 378 594 351 605 C 324 615 295 621 264 621 C 222 621 188 610 164 589 C 140 567 128 539 128 503 C 128 470 138 444 159 424 C 179 404 212 386 256 369 L 274 362 C 333 338 376 312 403 282 C 430 252 444 214 444 167 C 444 112 426 68 390 34 C 354 0 306 -16 247 -16 Z M 274 722 L 219 722 L 315 849 L 376 849 L 274 722 Z" unicode="Ś" />
<glyph horiz-adv-x="387" d="M 188 -10 C 163 -10 139 -6 115 0 C 91 6 68 16 47 28 L 47 83 C 67 68 89 57 113 49 C 137 41 161 38 187 38 C 217 38 241 45 259 59 C 276 73 285 94 285 120 C 285 142 276 160 260 175 C 243 190 218 203 186 214 L 171 219 C 129 232 98 249 78 269 C 58 289 49 316 49 349 C 49 387 61 418 87 441 C 112 463 148 475 194 475 C 216 475 239 472 262 467 C 284 461 306 454 327 444 L 327 389 C 307 401 286 411 264 417 C 242 423 219 427 196 427 C 167 427 145 420 129 407 C 113 393 105 375 105 353 C 105 334 111 318 125 304 C 138 290 160 279 190 270 L 206 265 C 252 249 286 231 308 209 C 330 187 341 159 341 125 C 341 83 327 50 300 26 C 273 2 236 -10 188 -10 Z M 206 524 L 148 524 L 246 655 L 311 655 L 206 524 Z" unicode="ś" />
<glyph horiz-adv-x="505" d="M 247 -16 C 213 -16 180 -11 149 -2 C 118 7 89 21 63 39 L 63 103 C 89 81 118 64 149 53 C 180 42 212 37 245 37 C 287 37 322 48 348 71 C 374 93 387 124 387 162 C 387 197 376 226 355 248 C 333 270 299 290 252 309 L 234 315 C 178 337 137 362 111 390 C 85 418 72 456 72 502 C 72 553 89 594 123 626 C 157 658 204 674 262 674 C 292 674 320 669 348 661 C 375 653 401 641 426 625 L 426 558 C 403 578 378 594 351 605 C 324 615 295 621 264 621 C 222 621 188 610 164 589 C 140 567 128 539 128 503 C 128 470 138 444 159 424 C 179 404 212 386 256 369 L 274 362 C 333 338 376 312 403 282 C 430 252 444 214 444 167 C 444 112 426 68 390 34 C 354 0 306 -16 247 -16 Z M 191 722 L 139 722 L 240 845 L 280 845 L 381 722 L 329 722 L 260 803 L 191 722 Z" unicode="Ŝ" />
<glyph horiz-adv-x="387" d="M 123 524 L 69 524 L 171 650 L 215 650 L 317 524 L 263 524 L 193 606 L 123 524 Z M 188 -10 C 163 -10 139 -6 115 0 C 91 6 68 16 47 28 L 47 83 C 67 68 89 57 113 49 C 137 41 161 38 187 38 C 217 38 241 45 259 59 C 276 73 285 94 285 120 C 285 142 276 160 260 175 C 243 190 218 203 186 214 L 171 219 C 129 232 98 249 78 269 C 58 289 49 316 49 349 C 49 387 61 418 87 441 C 112 463 148 475 194 475 C 216 475 239 472 262 467 C 284 461 306 454 327 444 L 327 389 C 307 401 286 411 264 417 C 242 423 219 427 196 427 C 167 427 145 420 129 407 C 113 393 105 375 105 353 C 105 334 111 318 125 304 C 138 290 160 279 190 270 L 206 265 C 252 249 286 231 308 209 C 330 187 341 159 341 125 C 341 83 327 50 300 26 C 273 2 236 -10 188 -10 Z" unicode="ŝ" />
<glyph horiz-adv-x="505" d="M 247 -16 C 213 -16 180 -11 149 -2 C 118 7 89 21 63 39 L 63 103 C 89 81 118 64 149 53 C 180 42 212 37 245 37 C 287 37 322 48 348 71 C 374 93 387 124 387 162 C 387 197 376 226 355 248 C 333 270 299 290 252 309 L 234 315 C 178 337 137 362 111 390 C 85 418 72 456 72 502 C 72 553 89 594 123 626 C 157 658 204 674 262 674 C 292 674 320 669 348 661 C 375 653 401 641 426 625 L 426 558 C 403 578 378 594 351 605 C 324 615 295 621 264 621 C 222 621 188 610 164 589 C 140 567 128 539 128 503 C 128 470 138 444 159 424 C 179 404 212 386 256 369 L 274 362 C 333 338 376 312 403 282 C 430 252 444 214 444 167 C 444 112 426 68 390 34 C 354 0 306 -16 247 -16 Z M 261 -195 C 251 -195 240 -193 230 -191 C 219 -188 209 -184 201 -180 L 201 -142 C 209 -147 217 -151 227 -154 C 237 -157 246 -159 255 -159 C 266 -159 275 -155 282 -149 C 289 -142 293 -133 293 -122 C 293 -110 289 -100 281 -94 C 273 -87 262 -84 249 -84 L 242 -84 L 242 -48 L 249 -48 C 275 -48 295 -54 311 -68 C 326 -81 334 -99 334 -121 C 334 -143 327 -161 314 -175 C 300 -188 283 -195 261 -195 Z" unicode="Ş" />
<glyph horiz-adv-x="387" d="M 188 -10 C 163 -10 139 -6 115 0 C 91 6 68 16 47 28 L 47 83 C 67 68 89 57 113 49 C 137 41 161 38 187 38 C 217 38 241 45 259 59 C 276 73 285 94 285 120 C 285 142 276 160 260 175 C 243 190 218 203 186 214 L 171 219 C 129 232 98 249 78 269 C 58 289 49 316 49 349 C 49 387 61 418 87 441 C 112 463 148 475 194 475 C 216 475 239 472 262 467 C 284 461 306 454 327 444 L 327 389 C 307 401 286 411 264 417 C 242 423 219 427 196 427 C 167 427 145 420 129 407 C 113 393 105 375 105 353 C 105 334 111 318 125 304 C 138 290 160 279 190 270 L 206 265 C 252 249 286 231 308 209 C 330 187 341 159 341 125 C 341 83 327 50 300 26 C 273 2 236 -10 188 -10 Z M 204 -197 C 193 -197 182 -195 172 -193 C 161 -190 151 -186 143 -182 L 143 -142 C 151 -148 159 -152 169 -155 C 179 -158 188 -160 198 -160 C 209 -160 218 -156 225 -149 C 232 -142 236 -133 236 -122 C 236 -110 231 -100 223 -93 C 215 -86 204 -83 191 -83 L 184 -83 L 184 -46 L 192 -46 C 218 -46 240 -52 256 -66 C 272 -80 280 -98 280 -121 C 280 -143 273 -162 259 -176 C 245 -190 226 -197 204 -197 Z" unicode="ş" />
<glyph horiz-adv-x="505" d="M 247 -16 C 213 -16 180 -11 149 -2 C 118 7 89 21 63 39 L 63 103 C 89 81 118 64 149 53 C 180 42 212 37 245 37 C 287 37 322 48 348 71 C 374 93 387 124 387 162 C 387 197 376 226 355 248 C 333 270 299 290 252 309 L 234 315 C 178 337 137 362 111 390 C 85 418 72 456 72 502 C 72 553 89 594 123 626 C 157 658 204 674 262 674 C 292 674 320 669 348 661 C 375 653 401 641 426 625 L 426 558 C 403 578 378 594 351 605 C 324 615 295 621 264 621 C 222 621 188 610 164 589 C 140 567 128 539 128 503 C 128 470 138 444 159 424 C 179 404 212 386 256 369 L 274 362 C 333 338 376 312 403 282 C 430 252 444 214 444 167 C 444 112 426 68 390 34 C 354 0 306 -16 247 -16 Z M 240 714 L 139 837 L 191 837 L 260 755 L 329 837 L 381 837 L 280 714 L 240 714 Z" unicode="Š" />
<glyph horiz-adv-x="387" d="M 171 524 L 69 650 L 123 650 L 193 567 L 263 650 L 317 650 L 215 524 L 171 524 Z M 188 -10 C 163 -10 139 -6 115 0 C 91 6 68 16 47 28 L 47 83 C 67 68 89 57 113 49 C 137 41 161 38 187 38 C 217 38 241 45 259 59 C 276 73 285 94 285 120 C 285 142 276 160 260 175 C 243 190 218 203 186 214 L 171 219 C 129 232 98 249 78 269 C 58 289 49 316 49 349 C 49 387 61 418 87 441 C 112 463 148 475 194 475 C 216 475 239 472 262 467 C 284 461 306 454 327 444 L 327 389 C 307 401 286 411 264 417 C 242 423 219 427 196 427 C 167 427 145 420 129 407 C 113 393 105 375 105 353 C 105 334 111 318 125 304 C 138 290 160 279 190 270 L 206 265 C 252 249 286 231 308 209 C 330 187 341 159 341 125 C 341 83 327 50 300 26 C 273 2 236 -10 188 -10 Z" unicode="š" />
<glyph horiz-adv-x="546" d="M 245 0 L 245 605 L 20 605 L 20 658 L 526 658 L 526 605 L 302 605 L 302 0 L 245 0 Z M 282 -193 C 272 -193 261 -191 251 -189 C 240 -186 230 -182 222 -178 L 222 -140 C 230 -145 238 -149 248 -152 C 258 -155 267 -157 276 -157 C 287 -157 296 -153 303 -147 C 310 -140 314 -131 314 -120 C 314 -108 310 -98 302 -92 C 294 -85 283 -82 270 -82 L 263 -82 L 263 -46 L 270 -46 C 296 -46 316 -52 332 -66 C 347 -79 355 -97 355 -119 C 355 -141 348 -159 335 -173 C 321 -186 304 -193 282 -193 Z" unicode="Ţ" />
<glyph horiz-adv-x="298" d="M 184 -9 C 154 -9 131 0 114 17 C 96 35 88 59 88 89 L 88 413 L 16 413 L 16 464 L 88 464 L 88 617 L 144 617 L 144 464 L 264 464 L 264 413 L 144 413 L 144 99 C 144 81 148 68 158 58 C 168 48 181 43 197 43 C 209 43 221 44 232 48 C 242 51 253 57 264 65 L 264 12 C 252 4 239 0 226 -4 C 212 -7 198 -9 184 -9 Z M 193 -199 C 182 -199 171 -197 161 -195 C 150 -192 140 -188 132 -184 L 132 -144 C 140 -150 148 -154 158 -157 C 168 -160 177 -162 187 -162 C 198 -162 207 -158 214 -151 C 221 -144 225 -135 225 -124 C 225 -112 220 -102 212 -95 C 204 -88 193 -85 180 -85 L 173 -85 L 173 -48 L 181 -48 C 207 -48 229 -54 245 -68 C 261 -82 269 -100 269 -123 C 269 -145 262 -164 248 -178 C 234 -192 215 -199 193 -199 Z" unicode="ţ" />
<glyph horiz-adv-x="546" d="M 245 0 L 245 605 L 20 605 L 20 658 L 526 658 L 526 605 L 302 605 L 302 0 L 245 0 Z M 253 712 L 152 835 L 204 835 L 273 753 L 342 835 L 394 835 L 293 712 L 253 712 Z" unicode="Ť" />
<glyph horiz-adv-x="324" d="M 252 546 L 214 567 C 227 586 236 605 242 623 C 247 641 250 661 250 682 L 250 722 L 301 722 L 301 682 C 301 659 297 636 289 613 C 281 589 269 567 252 546 Z M 184 -9 C 154 -9 131 0 114 17 C 96 35 88 59 88 89 L 88 413 L 16 413 L 16 464 L 88 464 L 88 617 L 144 617 L 144 464 L 264 464 L 264 413 L 144 413 L 144 99 C 144 81 148 68 158 58 C 168 48 181 43 197 43 C 209 43 221 44 232 48 C 242 51 253 57 264 65 L 264 12 C 252 4 239 0 226 -4 C 212 -7 198 -9 184 -9 Z" unicode="ť" />
<glyph horiz-adv-x="546" d="M 115 332 L 115 382 L 433 382 L 433 332 L 115 332 Z M 245 0 L 245 605 L 20 605 L 20 658 L 526 658 L 526 605 L 302 605 L 302 0 L 245 0 Z" unicode="Ŧ" />
<glyph horiz-adv-x="298" d="M 33 263 L 33 310 L 229 310 L 229 263 L 33 263 Z M 184 -9 C 154 -9 131 0 114 17 C 96 35 88 59 88 89 L 88 413 L 16 413 L 16 464 L 88 464 L 88 617 L 144 617 L 144 464 L 264 464 L 264 413 L 144 413 L 144 99 C 144 81 148 68 158 58 C 168 48 181 43 197 43 C 209 43 221 44 232 48 C 242 51 253 57 264 65 L 264 12 C 252 4 239 0 226 -4 C 212 -7 198 -9 184 -9 Z" unicode="ŧ" />
<glyph horiz-adv-x="669" d="M 230 720 L 194 720 C 196 750 205 773 219 789 C 233 804 252 812 275 812 C 286 812 297 809 308 804 C 319 798 332 790 347 780 C 355 773 364 767 372 762 C 380 756 388 754 397 754 C 409 754 419 758 427 767 C 435 775 440 788 442 805 L 478 805 C 475 772 466 748 451 734 C 435 719 417 712 397 712 C 384 712 372 714 361 720 C 349 726 337 734 325 745 C 315 753 307 759 299 763 C 291 767 283 770 275 770 C 262 770 252 765 244 757 C 236 749 231 736 230 720 Z M 334 -12 C 256 -12 193 13 145 63 C 97 113 74 178 74 260 L 74 658 L 131 658 L 131 260 C 131 194 149 142 187 102 C 224 62 273 42 334 42 C 396 42 446 62 484 102 C 522 142 542 194 542 260 L 542 658 L 594 658 L 594 260 C 594 178 570 113 523 63 C 475 13 412 -12 334 -12 Z" unicode="Ũ" />
<glyph horiz-adv-x="496" d="M 228 -10 C 176 -10 136 5 109 37 C 82 69 69 110 69 161 L 69 464 L 124 464 L 124 167 C 124 126 134 95 155 73 C 175 51 204 40 240 40 C 270 40 297 47 319 63 C 341 78 357 97 369 121 L 369 464 L 424 464 L 424 0 L 375 0 L 369 64 C 353 40 333 21 310 9 C 286 -3 259 -10 228 -10 Z M 140 524 L 101 524 C 103 556 112 580 128 596 C 143 612 162 620 185 620 C 196 620 207 617 219 611 C 230 605 243 597 258 587 C 267 579 276 573 284 568 C 292 563 300 561 310 561 C 321 561 331 565 339 574 C 347 582 352 595 354 612 L 393 612 C 390 579 381 555 365 539 C 349 523 330 516 309 516 C 295 516 283 518 272 524 C 260 530 248 538 236 549 C 226 557 217 564 209 568 C 201 572 192 575 184 575 C 172 575 162 570 154 562 C 146 553 141 540 140 524 Z" unicode="ũ" />
<glyph horiz-adv-x="669" d="M 334 -12 C 256 -12 193 13 145 63 C 97 113 74 178 74 260 L 74 658 L 131 658 L 131 260 C 131 194 149 142 187 102 C 224 62 273 42 334 42 C 396 42 446 62 484 102 C 522 142 542 194 542 260 L 542 658 L 594 658 L 594 260 C 594 178 570 113 523 63 C 475 13 412 -12 334 -12 Z M 234 720 L 234 764 L 438 764 L 438 720 L 234 720 Z" unicode="Ū" />
<glyph horiz-adv-x="496" d="M 228 -10 C 176 -10 136 5 109 37 C 82 69 69 110 69 161 L 69 464 L 124 464 L 124 167 C 124 126 134 95 155 73 C 175 51 204 40 240 40 C 270 40 297 47 319 63 C 341 78 357 97 369 121 L 369 464 L 424 464 L 424 0 L 375 0 L 369 64 C 353 40 333 21 310 9 C 286 -3 259 -10 228 -10 Z M 142 532 L 142 578 L 352 578 L 352 532 L 142 532 Z" unicode="ū" />
<glyph horiz-adv-x="669" d="M 336 710 C 303 710 277 721 257 743 C 237 765 227 796 227 834 L 267 834 C 267 808 273 787 286 772 C 298 757 315 750 336 750 C 356 750 373 757 386 772 C 398 787 405 808 405 834 L 445 834 C 445 796 435 765 415 743 C 395 721 369 710 336 710 Z M 334 -12 C 256 -12 193 13 145 63 C 97 113 74 178 74 260 L 74 658 L 131 658 L 131 260 C 131 194 149 142 187 102 C 224 62 273 42 334 42 C 396 42 446 62 484 102 C 522 142 542 194 542 260 L 542 658 L 594 658 L 594 260 C 594 178 570 113 523 63 C 475 13 412 -12 334 -12 Z" unicode="Ŭ" />
<glyph horiz-adv-x="496" d="M 228 -10 C 176 -10 136 5 109 37 C 82 69 69 110 69 161 L 69 464 L 124 464 L 124 167 C 124 126 134 95 155 73 C 175 51 204 40 240 40 C 270 40 297 47 319 63 C 341 78 357 97 369 121 L 369 464 L 424 464 L 424 0 L 375 0 L 369 64 C 353 40 333 21 310 9 C 286 -3 259 -10 228 -10 Z M 247 516 C 213 516 185 527 165 550 C 145 572 135 603 135 643 L 177 643 C 177 617 183 596 196 581 C 208 565 225 558 247 558 C 268 558 285 565 298 581 C 311 596 318 617 318 643 L 359 643 C 359 603 348 572 328 550 C 308 527 281 516 247 516 Z" unicode="ŭ" />
<glyph horiz-adv-x="669" d="M 334 -12 C 256 -12 193 13 145 63 C 97 113 74 178 74 260 L 74 658 L 131 658 L 131 260 C 131 194 149 142 187 102 C 224 62 273 42 334 42 C 396 42 446 62 484 102 C 522 142 542 194 542 260 L 542 658 L 594 658 L 594 260 C 594 178 570 113 523 63 C 475 13 412 -12 334 -12 Z M 336 634 C 312 634 292 641 278 657 C 264 673 257 692 257 714 C 257 736 264 754 278 770 C 292 786 312 794 336 794 C 360 794 379 786 393 770 C 407 754 415 736 415 714 C 415 692 407 673 393 657 C 379 641 360 634 336 634 Z M 336 669 C 347 669 357 673 365 681 C 373 689 378 700 378 714 C 378 727 373 738 365 746 C 357 754 347 759 336 759 C 324 759 314 754 306 746 C 298 738 294 727 294 714 C 294 700 298 689 306 681 C 314 673 324 669 336 669 Z" unicode="Ů" />
<glyph horiz-adv-x="496" d="M 228 -10 C 176 -10 136 5 109 37 C 82 69 69 110 69 161 L 69 464 L 124 464 L 124 167 C 124 126 134 95 155 73 C 175 51 204 40 240 40 C 270 40 297 47 319 63 C 341 78 357 97 369 121 L 369 464 L 424 464 L 424 0 L 375 0 L 369 64 C 353 40 333 21 310 9 C 286 -3 259 -10 228 -10 Z M 247 454 C 222 454 202 462 188 478 C 173 494 166 513 166 536 C 166 558 173 578 188 594 C 202 610 222 618 247 618 C 271 618 291 610 306 594 C 320 578 328 558 328 536 C 328 513 320 494 306 478 C 291 462 271 454 247 454 Z M 247 490 C 259 490 269 494 277 502 C 285 510 290 522 290 536 C 290 549 285 560 277 568 C 269 576 259 581 247 581 C 235 581 224 576 216 568 C 208 560 204 549 204 536 C 204 522 208 510 216 502 C 224 494 235 490 247 490 Z" unicode="ů" />
<glyph horiz-adv-x="669" d="M 249 720 L 340 842 L 396 842 L 299 720 L 249 720 Z M 371 720 L 465 842 L 521 842 L 422 720 L 371 720 Z M 334 -12 C 256 -12 193 13 145 63 C 97 113 74 178 74 260 L 74 658 L 131 658 L 131 260 C 131 194 149 142 187 102 C 224 62 273 42 334 42 C 396 42 446 62 484 102 C 522 142 542 194 542 260 L 542 658 L 594 658 L 594 260 C 594 178 570 113 523 63 C 475 13 412 -12 334 -12 Z" unicode="Ű" />
<glyph horiz-adv-x="496" d="M 154 524 L 247 650 L 306 650 L 207 524 L 154 524 Z M 281 524 L 376 650 L 435 650 L 334 524 L 281 524 Z M 228 -10 C 176 -10 136 5 109 37 C 82 69 69 110 69 161 L 69 464 L 124 464 L 124 167 C 124 126 134 95 155 73 C 175 51 204 40 240 40 C 270 40 297 47 319 63 C 341 78 357 97 369 121 L 369 464 L 424 464 L 424 0 L 375 0 L 369 64 C 353 40 333 21 310 9 C 286 -3 259 -10 228 -10 Z" unicode="ű" />
<glyph horiz-adv-x="669" d="M 515 -220 C 464 -220 424 -206 394 -180 C 364 -154 349 -121 349 -81 C 349 -50 357 -24 374 -3 C 391 17 413 32 439 41 L 451 12 C 435 5 422 -5 412 -20 C 402 -35 398 -53 398 -74 C 398 -102 408 -126 430 -145 C 451 -163 479 -173 515 -173 L 515 -220 Z M 334 -12 C 256 -12 193 13 145 63 C 97 113 74 178 74 260 L 74 658 L 131 658 L 131 260 C 131 194 149 142 187 102 C 224 62 273 42 334 42 C 396 42 446 62 484 102 C 522 142 542 194 542 260 L 542 658 L 594 658 L 594 260 C 594 178 570 113 523 63 C 475 13 412 -12 334 -12 Z" unicode="Ų" />
<glyph horiz-adv-x="496" d="M 228 -10 C 176 -10 136 5 109 37 C 82 69 69 110 69 161 L 69 464 L 124 464 L 124 167 C 124 126 134 95 155 73 C 175 51 204 40 240 40 C 270 40 297 47 319 63 C 341 78 357 97 369 121 L 369 464 L 424 464 L 424 0 L 375 0 L 369 64 C 353 40 333 21 310 9 C 286 -3 259 -10 228 -10 Z M 422 -220 C 380 -220 348 -212 326 -197 C 304 -181 293 -158 293 -127 C 293 -99 302 -73 321 -47 C 340 -21 369 4 407 29 L 423 0 C 395 -17 375 -36 361 -56 C 347 -76 341 -96 341 -117 C 341 -135 347 -149 361 -159 C 375 -168 395 -173 422 -173 L 422 -220 Z" unicode="ų" />
<glyph horiz-adv-x="919" d="M 392 720 L 340 720 L 441 843 L 481 843 L 582 720 L 530 720 L 461 801 L 392 720 Z M 221 0 L 14 658 L 74 658 L 241 121 L 253 76 L 265 121 L 433 658 L 491 658 L 658 121 L 671 75 L 683 121 L 850 658 L 905 658 L 698 0 L 638 0 L 472 538 L 460 584 L 447 538 L 281 0 L 221 0 Z" unicode="Ŵ" />
<glyph horiz-adv-x="724" d="M 294 520 L 240 520 L 342 646 L 386 646 L 488 520 L 434 520 L 364 602 L 294 520 Z M 173 0 L 18 464 L 76 464 L 194 110 L 207 66 L 219 110 L 336 464 L 393 464 L 511 110 L 523 66 L 535 110 L 653 464 L 706 464 L 551 0 L 491 0 L 376 345 L 363 392 L 350 345 L 233 0 L 173 0 Z" unicode="ŵ" />
<glyph horiz-adv-x="554" d="M 248 0 L 248 293 L 9 658 L 76 658 L 253 390 L 280 346 L 307 390 L 483 658 L 545 658 L 305 293 L 305 0 L 248 0 Z M 208 720 L 156 720 L 257 843 L 297 843 L 398 720 L 346 720 L 277 801 L 208 720 Z" unicode="Ŷ" />
<glyph horiz-adv-x="449" d="M 2 -218 L -6 -218 L -6 -167 L 2 -167 C 44 -167 80 -155 110 -131 C 140 -107 170 -64 198 -2 L 190 19 L 15 464 L 75 464 L 214 110 L 228 68 L 242 110 L 381 464 L 437 464 L 258 10 C 224 -76 187 -135 147 -168 C 107 -201 58 -218 2 -218 Z M 157 524 L 103 524 L 205 650 L 249 650 L 351 524 L 297 524 L 227 606 L 157 524 Z" unicode="ŷ" />
<glyph horiz-adv-x="554" d="M 248 0 L 248 293 L 9 658 L 76 658 L 253 390 L 280 346 L 307 390 L 483 658 L 545 658 L 305 293 L 305 0 L 248 0 Z M 177 720 L 177 778 L 235 778 L 235 720 L 177 720 Z M 319 720 L 319 778 L 377 778 L 377 720 L 319 720 Z" unicode="Ÿ" />
<glyph horiz-adv-x="595" d="M 59 0 L 59 32 L 425 567 L 451 605 L 64 605 L 64 658 L 536 658 L 536 628 L 168 91 L 142 53 L 536 53 L 536 0 L 59 0 Z M 315 720 L 260 720 L 356 847 L 417 847 L 315 720 Z" unicode="Ź" />
<glyph horiz-adv-x="428" d="M 225 524 L 167 524 L 265 655 L 330 655 L 225 524 Z M 43 0 L 43 38 L 283 383 L 306 413 L 47 413 L 47 464 L 381 464 L 381 426 L 140 80 L 118 51 L 386 51 L 386 0 L 43 0 Z" unicode="ź" />
<glyph horiz-adv-x="595" d="M 270 720 L 270 783 L 332 783 L 332 720 L 270 720 Z M 59 0 L 59 32 L 425 567 L 451 605 L 64 605 L 64 658 L 536 658 L 536 628 L 168 91 L 142 53 L 536 53 L 536 0 L 59 0 Z" unicode="Ż" />
<glyph horiz-adv-x="428" d="M 179 536 L 179 602 L 245 602 L 245 536 L 179 536 Z M 43 0 L 43 38 L 283 383 L 306 413 L 47 413 L 47 464 L 381 464 L 381 426 L 140 80 L 118 51 L 386 51 L 386 0 L 43 0 Z" unicode="ż" />
<glyph horiz-adv-x="595" d="M 59 0 L 59 32 L 425 567 L 451 605 L 64 605 L 64 658 L 536 658 L 536 628 L 168 91 L 142 53 L 536 53 L 536 0 L 59 0 Z M 281 712 L 180 835 L 232 835 L 301 753 L 370 835 L 422 835 L 321 712 L 281 712 Z" unicode="Ž" />
<glyph horiz-adv-x="428" d="M 190 524 L 88 650 L 142 650 L 212 567 L 282 650 L 336 650 L 234 524 L 190 524 Z M 43 0 L 43 38 L 283 383 L 306 413 L 47 413 L 47 464 L 381 464 L 381 426 L 140 80 L 118 51 L 386 51 L 386 0 L 43 0 Z" unicode="ž" />
<glyph horiz-adv-x="499" d="M 53 -218 C 38 -218 23 -216 9 -212 C -4 -208 -18 -203 -32 -195 L -32 -141 C -19 -149 -5 -156 9 -160 C 23 -164 39 -166 56 -166 C 84 -166 107 -155 124 -134 C 141 -112 152 -84 157 -48 L 218 413 L 108 413 L 108 464 L 224 464 L 237 560 C 244 618 262 661 292 689 C 321 717 357 732 399 732 C 415 732 430 730 446 726 C 462 722 477 717 492 711 L 492 655 C 477 663 462 670 446 674 C 430 678 415 680 399 680 C 368 680 344 669 326 648 C 308 627 296 598 292 560 L 279 464 L 417 464 L 417 413 L 273 413 L 212 -48 C 205 -105 187 -148 159 -176 C 130 -204 95 -218 53 -218 Z" unicode="ƒ" />
<glyph horiz-adv-x="689" d="M 388 -13 C 286 -13 204 18 143 81 C 82 143 52 227 52 331 C 52 434 82 516 144 578 C 206 640 288 671 391 671 C 427 671 462 667 498 660 C 533 652 567 641 599 627 L 599 569 C 567 585 535 598 501 606 C 467 614 430 619 392 619 C 306 619 238 592 187 540 C 136 488 111 418 111 331 C 111 242 136 171 186 118 C 236 65 302 39 386 39 C 418 39 449 42 481 48 C 513 54 542 64 570 76 L 570 268 L 428 268 L 428 321 L 627 321 L 627 40 C 591 23 553 10 511 1 C 469 -8 428 -13 388 -13 Z M 367 720 L 266 843 L 318 843 L 387 761 L 456 843 L 508 843 L 407 720 L 367 720 Z" unicode="Ǧ" />
<glyph horiz-adv-x="517" d="M 238 524 L 136 650 L 190 650 L 260 567 L 330 650 L 384 650 L 282 524 L 238 524 Z M 245 -226 C 215 -226 185 -222 153 -214 C 121 -206 92 -195 66 -181 L 66 -122 C 90 -137 118 -150 148 -160 C 178 -170 209 -175 240 -175 C 286 -175 323 -160 351 -131 C 379 -102 394 -63 394 -14 L 394 57 C 377 35 356 18 332 7 C 308 -4 282 -10 256 -10 C 194 -10 143 10 104 51 C 65 92 46 152 46 231 C 46 308 66 368 107 410 C 148 452 200 474 262 474 C 287 474 313 469 340 459 C 366 449 388 435 405 419 L 419 464 L 449 464 L 449 -11 C 449 -75 430 -127 393 -167 C 356 -206 307 -226 245 -226 Z M 263 39 C 292 39 318 46 341 61 C 363 75 381 94 394 118 L 394 371 C 380 387 361 400 337 410 C 313 420 289 425 266 425 C 216 425 176 407 146 371 C 116 335 102 288 102 232 C 102 174 116 127 144 92 C 172 56 211 39 263 39 Z" unicode="ǧ" />
<glyph horiz-adv-x="621" d="M 21 0 L 282 667 L 337 667 L 599 0 L 538 0 L 451 224 L 165 224 L 78 0 L 21 0 Z M 289 545 L 184 275 L 432 275 L 327 545 L 308 597 L 289 545 Z M 287 809 L 344 889 L 393 889 L 333 809 L 287 809 Z M 309 632 C 286 632 267 639 253 654 C 238 668 231 687 231 709 C 231 731 238 749 253 763 C 267 777 286 785 309 785 C 331 785 350 777 365 763 C 379 749 387 731 387 709 C 387 687 379 668 365 654 C 350 639 331 632 309 632 Z M 309 667 C 321 667 330 670 338 678 C 346 686 350 696 350 709 C 350 721 346 731 338 739 C 330 747 321 751 309 751 C 297 751 287 747 279 739 C 271 731 268 721 268 709 C 268 696 271 686 279 678 C 287 670 297 667 309 667 Z" unicode="Ǻ" />
<glyph horiz-adv-x="437" d="M 180 -10 C 136 -10 101 2 75 26 C 49 50 37 82 37 122 C 37 162 52 196 82 224 C 112 252 156 269 212 276 L 318 289 L 318 324 C 318 358 308 383 288 399 C 268 415 240 424 205 424 C 177 424 152 420 128 412 C 104 404 81 393 58 377 L 58 435 C 82 447 107 457 132 464 C 157 471 183 475 210 475 C 261 475 301 462 330 437 C 359 411 374 374 374 325 L 374 0 L 323 0 L 318 64 C 303 40 284 21 260 9 C 236 -3 209 -10 180 -10 Z M 191 37 C 220 37 246 44 268 59 C 290 74 307 94 318 118 L 318 245 L 219 233 C 178 228 147 216 125 197 C 103 178 93 154 93 126 C 93 99 101 77 119 61 C 136 45 160 37 191 37 Z M 185 621 L 244 703 L 295 703 L 234 621 L 185 621 Z M 209 439 C 185 439 166 446 151 461 C 135 476 128 495 128 518 C 128 540 135 559 151 574 C 166 589 185 597 209 597 C 232 597 251 589 267 574 C 282 559 290 540 290 518 C 290 495 282 476 267 461 C 251 446 232 439 209 439 Z M 209 475 C 221 475 231 479 239 487 C 247 495 251 505 251 518 C 251 530 247 540 239 548 C 231 556 221 560 209 560 C 196 560 186 556 178 548 C 170 540 167 530 167 518 C 167 505 170 495 178 487 C 186 479 196 475 209 475 Z" unicode="ǻ" />
<glyph horiz-adv-x="817" d="M 8 0 L 378 658 L 749 658 L 749 605 L 464 605 L 464 360 L 735 360 L 735 307 L 464 307 L 464 53 L 760 53 L 760 0 L 407 0 L 407 222 L 194 222 L 68 0 L 8 0 Z M 383 554 L 224 275 L 407 275 L 407 601 L 383 554 Z M 517 720 L 462 720 L 558 847 L 619 847 L 517 720 Z" unicode="Ǽ" />
<glyph horiz-adv-x="763" d="M 390 524 L 332 524 L 430 655 L 495 655 L 390 524 Z M 183 -10 C 137 -10 102 2 76 26 C 50 50 37 82 37 122 C 37 162 52 196 82 223 C 112 250 154 268 210 276 L 315 290 L 315 322 C 315 358 304 384 283 400 C 261 416 234 425 202 425 C 174 425 148 421 124 414 C 99 407 75 396 53 380 L 53 435 C 77 447 102 457 128 464 C 154 470 181 474 209 474 C 247 474 279 465 305 449 C 331 433 348 411 356 383 C 373 411 395 434 423 450 C 450 466 482 474 518 474 C 579 474 628 454 664 416 C 700 377 718 323 718 253 L 718 224 L 372 224 C 372 167 386 122 414 89 C 442 56 484 40 540 40 C 568 40 597 45 625 55 C 653 65 680 80 707 100 L 707 45 C 679 26 650 12 621 3 C 592 -5 563 -10 535 -10 C 487 -10 447 0 416 21 C 384 41 360 70 344 106 C 330 67 309 38 281 19 C 253 0 220 -10 183 -10 Z M 517 426 C 475 426 441 411 415 383 C 389 355 374 317 372 269 L 662 269 C 662 318 649 356 623 384 C 597 412 561 426 517 426 Z M 191 37 C 225 37 253 48 275 70 C 297 92 310 119 315 149 L 315 245 L 217 232 C 177 226 146 215 125 197 C 103 179 93 155 93 127 C 93 99 101 77 119 61 C 136 45 160 37 191 37 Z" unicode="ǽ" />
<glyph horiz-adv-x="777" d="M 185 -75 L 232 33 L 243 56 L 480 627 L 490 647 L 522 725 L 575 725 L 532 625 L 523 605 L 286 36 L 274 13 L 238 -75 L 185 -75 Z M 388 -14 C 289 -14 208 17 146 81 C 83 145 52 227 52 329 C 52 431 83 513 147 577 C 210 640 290 672 388 672 C 486 672 566 640 629 577 C 692 514 724 431 724 329 C 724 226 692 143 630 80 C 568 17 487 -14 388 -14 Z M 388 38 C 469 38 536 64 588 118 C 640 172 666 242 666 329 C 666 415 640 485 588 539 C 536 593 469 620 388 620 C 307 620 241 593 189 539 C 137 485 111 415 111 329 C 111 242 137 172 189 118 C 241 64 307 38 388 38 Z M 406 724 L 351 724 L 447 851 L 508 851 L 406 724 Z" unicode="Ǿ" />
<glyph horiz-adv-x="557" d="M 129 -79 L 172 27 L 180 45 L 337 433 L 342 450 L 374 533 L 423 533 L 386 437 L 377 420 L 220 29 L 215 12 L 179 -79 L 129 -79 Z M 279 -10 C 209 -10 153 12 110 56 C 67 100 46 159 46 231 C 46 303 67 362 110 407 C 153 451 209 474 279 474 C 348 474 404 451 447 407 C 489 363 511 304 511 232 C 511 159 489 100 447 56 C 404 12 348 -10 279 -10 Z M 279 40 C 331 40 373 57 406 92 C 438 127 455 173 455 231 C 455 288 438 334 406 370 C 373 406 331 424 279 424 C 226 424 183 406 151 371 C 118 335 102 289 102 232 C 102 174 118 128 151 93 C 183 57 226 40 279 40 Z M 292 544 L 234 544 L 332 675 L 397 675 L 292 544 Z" unicode="ǿ" />
<glyph horiz-adv-x="505" d="M 228 -221 L 192 -201 C 205 -181 214 -163 219 -145 C 224 -127 227 -109 227 -89 L 227 -50 L 275 -50 L 275 -89 C 275 -111 271 -133 264 -156 C 256 -178 244 -200 228 -221 Z M 247 -16 C 213 -16 180 -11 149 -2 C 118 7 89 21 63 39 L 63 103 C 89 81 118 64 149 53 C 180 42 212 37 245 37 C 287 37 322 48 348 71 C 374 93 387 124 387 162 C 387 197 376 226 355 248 C 333 270 299 290 252 309 L 234 315 C 178 337 137 362 111 390 C 85 418 72 456 72 502 C 72 553 89 594 123 626 C 157 658 204 674 262 674 C 292 674 320 669 348 661 C 375 653 401 641 426 625 L 426 558 C 403 578 378 594 351 605 C 324 615 295 621 264 621 C 222 621 188 610 164 589 C 140 567 128 539 128 503 C 128 470 138 444 159 424 C 179 404 212 386 256 369 L 274 362 C 333 338 376 312 403 282 C 430 252 444 214 444 167 C 444 112 426 68 390 34 C 354 0 306 -16 247 -16 Z" unicode="Ș" />
<glyph horiz-adv-x="387" d="M 188 -10 C 163 -10 139 -6 115 0 C 91 6 68 16 47 28 L 47 83 C 67 68 89 57 113 49 C 137 41 161 38 187 38 C 217 38 241 45 259 59 C 276 73 285 94 285 120 C 285 142 276 160 260 175 C 243 190 218 203 186 214 L 171 219 C 129 232 98 249 78 269 C 58 289 49 316 49 349 C 49 387 61 418 87 441 C 112 463 148 475 194 475 C 216 475 239 472 262 467 C 284 461 306 454 327 444 L 327 389 C 307 401 286 411 264 417 C 242 423 219 427 196 427 C 167 427 145 420 129 407 C 113 393 105 375 105 353 C 105 334 111 318 125 304 C 138 290 160 279 190 270 L 206 265 C 252 249 286 231 308 209 C 330 187 341 159 341 125 C 341 83 327 50 300 26 C 273 2 236 -10 188 -10 Z M 170 -223 L 131 -201 C 145 -181 154 -162 160 -144 C 165 -126 168 -106 168 -86 L 168 -46 L 218 -46 L 218 -86 C 218 -108 214 -131 207 -155 C 199 -178 187 -201 170 -223 Z" unicode="ș" />
<glyph horiz-adv-x="546" d="M 249 -219 L 213 -199 C 226 -179 235 -161 240 -143 C 245 -125 248 -107 248 -87 L 248 -48 L 296 -48 L 296 -87 C 296 -109 292 -131 285 -154 C 277 -176 265 -198 249 -219 Z M 245 0 L 245 605 L 20 605 L 20 658 L 526 658 L 526 605 L 302 605 L 302 0 L 245 0 Z" unicode="Ț" />
<glyph horiz-adv-x="298" d="M 159 -225 L 120 -203 C 134 -183 143 -164 149 -146 C 154 -128 157 -108 157 -88 L 157 -48 L 207 -48 L 207 -88 C 207 -110 203 -133 196 -157 C 188 -180 176 -203 159 -225 Z M 184 -9 C 154 -9 131 0 114 17 C 96 35 88 59 88 89 L 88 413 L 16 413 L 16 464 L 88 464 L 88 617 L 144 617 L 144 464 L 264 464 L 264 413 L 144 413 L 144 99 C 144 81 148 68 158 58 C 168 48 181 43 197 43 C 209 43 221 44 232 48 C 242 51 253 57 264 65 L 264 12 C 252 4 239 0 226 -4 C 212 -7 198 -9 184 -9 Z" unicode="ț" />
<glyph horiz-adv-x="177" d="M -33 -218 L -41 -218 L -41 -167 L -33 -167 C -4 -167 18 -157 36 -137 C 54 -117 63 -90 63 -56 L 63 464 L 118 464 L 118 -56 C 118 -105 104 -144 76 -174 C 48 -203 12 -218 -33 -218 Z" unicode="ȷ" />
<glyph horiz-adv-x="503" d="M 247 -10 C 183 -10 133 10 97 50 C 60 90 42 144 42 214 L 42 248 L 403 248 C 402 302 386 345 355 377 C 324 409 280 425 224 425 C 194 425 165 420 136 410 C 107 400 79 385 53 366 L 53 420 C 81 437 110 450 140 460 C 170 469 199 474 228 474 C 302 474 360 452 400 409 C 440 365 460 306 460 232 C 460 157 440 98 401 55 C 362 11 311 -10 247 -10 Z M 248 38 C 292 38 328 52 356 81 C 384 110 400 150 403 202 L 98 202 C 98 150 111 109 138 81 C 164 52 201 38 248 38 Z" unicode="ə" />
<glyph horiz-adv-x="318" d="M 89 524 L 35 524 L 137 650 L 181 650 L 283 524 L 229 524 L 159 606 L 89 524 Z" unicode="ˆ" />
<glyph horiz-adv-x="318" d="M 137 524 L 35 650 L 89 650 L 159 567 L 229 650 L 283 650 L 181 524 L 137 524 Z" unicode="ˇ" />
<glyph horiz-adv-x="358" d="M 179 516 C 145 516 117 527 97 550 C 77 572 67 603 67 643 L 109 643 C 109 617 115 596 128 581 C 140 565 157 558 179 558 C 200 558 217 565 230 581 C 243 596 250 617 250 643 L 291 643 C 291 603 280 572 260 550 C 240 527 213 516 179 516 Z" unicode="˘" />
<glyph horiz-adv-x="147" d="M 41 536 L 41 602 L 107 602 L 107 536 L 41 536 Z" unicode="˙" />
<glyph horiz-adv-x="222" d="M 111 437 C 86 437 66 445 52 461 C 37 477 30 496 30 519 C 30 541 37 561 52 577 C 66 593 86 601 111 601 C 135 601 155 593 170 577 C 184 561 192 541 192 519 C 192 496 184 477 170 461 C 155 445 135 437 111 437 Z M 111 473 C 123 473 133 477 141 485 C 149 493 154 505 154 519 C 154 532 149 543 141 551 C 133 559 123 564 111 564 C 99 564 88 559 80 551 C 72 543 68 532 68 519 C 68 505 72 493 80 485 C 88 477 99 473 111 473 Z" unicode="˚" />
<glyph horiz-adv-x="240" d="M 205 -220 C 159 -220 122 -208 94 -184 C 66 -160 53 -130 53 -94 C 53 -56 65 -25 91 -3 C 117 18 147 30 181 30 L 190 0 C 164 0 143 -7 127 -23 C 110 -38 102 -59 102 -86 C 102 -112 111 -133 129 -149 C 147 -165 173 -173 205 -173 L 205 -220 Z" unicode="˛" />
<glyph horiz-adv-x="327" d="M 56 524 L 17 524 C 19 556 28 580 44 596 C 59 612 78 620 101 620 C 112 620 123 617 135 611 C 146 605 159 597 174 587 C 183 579 192 573 200 568 C 208 563 216 561 226 561 C 237 561 247 565 255 574 C 263 582 268 595 270 612 L 309 612 C 306 579 297 555 281 539 C 265 523 246 516 225 516 C 211 516 199 518 188 524 C 176 530 164 538 152 549 C 142 557 133 564 125 568 C 117 572 108 575 100 575 C 88 575 78 570 70 562 C 62 553 57 540 56 524 Z" unicode="˜" />
<glyph horiz-adv-x="392" d="M 64 524 L 157 650 L 216 650 L 117 524 L 64 524 Z M 191 524 L 286 650 L 345 650 L 244 524 L 191 524 Z" unicode="˝" />
<glyph horiz-adv-x="0" d="M -13 524 L -118 655 L -53 655 L 45 524 L -13 524 Z" unicode="̀" />
<glyph horiz-adv-x="0" d="M 13 524 L -45 524 L 53 655 L 118 655 L 13 524 Z" unicode="́" />
<glyph horiz-adv-x="0" d="M -70 524 L -124 524 L -22 650 L 22 650 L 124 524 L 70 524 L 0 606 L -70 524 Z" unicode="̂" />
<glyph horiz-adv-x="0" d="M -107 524 L -146 524 C -143 556 -134 580 -119 596 C -103 612 -84 620 -62 620 C -50 620 -39 617 -28 611 C -16 605 -3 597 11 587 C 20 579 29 573 37 568 C 45 563 53 561 63 561 C 74 561 84 565 92 574 C 100 582 105 595 107 612 L 146 612 C 143 579 134 555 118 539 C 102 523 83 516 62 516 C 48 516 36 518 25 524 C 13 530 1 538 -11 549 C -21 557 -30 564 -38 568 C -46 572 -54 575 -63 575 C -75 575 -85 570 -93 562 C -101 553 -105 540 -107 524 Z" unicode="̃" />
<glyph horiz-adv-x="0" d="M -105 532 L -105 578 L 105 578 L 105 532 L -105 532 Z" unicode="̄" />
<glyph horiz-adv-x="0" d="M 0 516 C -34 516 -61 527 -81 550 C -101 572 -112 603 -112 643 L -70 643 C -70 617 -63 596 -51 581 C -38 565 -21 558 0 558 C 21 558 38 565 51 581 C 64 596 71 617 71 643 L 112 643 C 112 603 101 572 81 550 C 61 527 34 516 0 516 Z" unicode="̆" />
<glyph horiz-adv-x="0" d="M -31 720 L -31 783 L 31 783 L 31 720 L -31 720 Z" unicode="̇" />
<glyph horiz-adv-x="0" d="M -103 537 L -103 598 L -42 598 L -42 537 L -103 537 Z M 42 537 L 42 598 L 103 598 L 103 537 L 42 537 Z" unicode="̈" />
<glyph horiz-adv-x="0" d="M 0 439 C -24 439 -44 447 -59 463 C -73 479 -81 498 -81 521 C -81 543 -73 563 -59 579 C -44 595 -24 603 0 603 C 24 603 44 595 59 579 C 73 563 81 543 81 521 C 81 498 73 479 59 463 C 44 447 24 439 0 439 Z M 0 475 C 12 475 22 479 30 487 C 38 495 43 507 43 521 C 43 534 38 545 30 553 C 22 561 12 566 0 566 C -12 566 -22 561 -30 553 C -38 545 -43 534 -43 521 C -43 507 -38 495 -30 487 C -22 479 -12 475 0 475 Z" unicode="̊" />
<glyph horiz-adv-x="0" d="M -93 524 L 0 650 L 59 650 L -40 524 L -93 524 Z M 34 524 L 129 650 L 188 650 L 87 524 L 34 524 Z" unicode="̋" />
<glyph horiz-adv-x="0" d="M -22 524 L -124 650 L -70 650 L 0 567 L 70 650 L 124 650 L 22 524 L -22 524 Z" unicode="̌" />
<glyph horiz-adv-x="0" d="M 23 694 L 61 673 C 47 653 38 633 33 615 C 27 597 25 577 25 557 L 25 518 L -26 518 L -26 557 C -26 579 -22 602 -14 626 C -6 650 5 672 23 694 Z" unicode="̒" />
<glyph horiz-adv-x="0" d="M -23 -223 L -62 -201 C -48 -181 -38 -162 -33 -144 C -27 -126 -25 -106 -25 -86 L -25 -46 L 25 -46 L 25 -86 C 25 -108 21 -131 14 -155 C 6 -178 -5 -201 -23 -223 Z" unicode="̦" />
<glyph horiz-adv-x="0" d="M 11 -197 C 0 -197 -10 -195 -21 -193 C -31 -190 -41 -186 -50 -182 L -50 -142 C -42 -148 -33 -152 -23 -155 C -13 -158 -4 -160 5 -160 C 16 -160 25 -156 32 -149 C 39 -142 43 -133 43 -122 C 43 -110 38 -100 30 -93 C 22 -86 11 -83 -2 -83 L -9 -83 L -9 -46 L -1 -46 C 25 -46 47 -52 63 -66 C 79 -80 87 -98 87 -121 C 87 -143 80 -162 66 -176 C 52 -190 33 -197 11 -197 Z" unicode="̧" />
<glyph horiz-adv-x="0" d="M 15 -220 C -31 -220 -67 -208 -95 -184 C -123 -160 -137 -130 -137 -94 C -137 -56 -124 -25 -98 -3 C -72 18 -43 30 -9 30 L 0 0 C -25 0 -46 -7 -63 -23 C -79 -38 -88 -59 -88 -86 C -88 -112 -78 -133 -60 -149 C -42 -165 -17 -173 15 -173 L 15 -220 Z" unicode="̨" />
<glyph horiz-adv-x="575" d="M 26 0 L 256 676 L 313 676 L 542 0 L 26 0 Z M 96 52 L 464 52 L 281 594 L 96 52 Z" unicode="Δ" />
<glyph horiz-adv-x="496" d="M 68 -216 L 68 196 L 102 196 L 121 -216 L 68 -216 Z M 228 -10 C 176 -10 136 5 109 37 C 82 69 69 110 69 161 L 69 464 L 124 464 L 124 167 C 124 126 134 95 155 73 C 175 51 204 40 240 40 C 270 40 297 47 319 63 C 341 78 357 97 369 121 L 369 464 L 424 464 L 424 0 L 375 0 L 369 64 C 353 40 333 21 310 9 C 286 -3 259 -10 228 -10 Z" unicode="μ" />
<glyph horiz-adv-x="512" d="M 108 0 L 108 412 L 38 412 L 38 464 L 474 464 L 474 412 L 404 412 L 404 0 L 351 0 L 351 412 L 161 412 L 161 0 L 108 0 Z" unicode="π" />
<glyph horiz-adv-x="919" d="M 447 720 L 345 847 L 406 847 L 502 720 L 447 720 Z M 221 0 L 14 658 L 74 658 L 241 121 L 253 76 L 265 121 L 433 658 L 491 658 L 658 121 L 671 75 L 683 121 L 850 658 L 905 658 L 698 0 L 638 0 L 472 538 L 460 584 L 447 538 L 281 0 L 221 0 Z" unicode="Ẁ" />
<glyph horiz-adv-x="724" d="M 351 520 L 246 651 L 311 651 L 409 520 L 351 520 Z M 173 0 L 18 464 L 76 464 L 194 110 L 207 66 L 219 110 L 336 464 L 393 464 L 511 110 L 523 66 L 535 110 L 653 464 L 706 464 L 551 0 L 491 0 L 376 345 L 363 392 L 350 345 L 233 0 L 173 0 Z" unicode="ẁ" />
<glyph horiz-adv-x="919" d="M 221 0 L 14 658 L 74 658 L 241 121 L 253 76 L 265 121 L 433 658 L 491 658 L 658 121 L 671 75 L 683 121 L 850 658 L 905 658 L 698 0 L 638 0 L 472 538 L 460 584 L 447 538 L 281 0 L 221 0 Z M 475 720 L 420 720 L 516 847 L 577 847 L 475 720 Z" unicode="Ẃ" />
<glyph horiz-adv-x="724" d="M 377 520 L 319 520 L 417 651 L 482 651 L 377 520 Z M 173 0 L 18 464 L 76 464 L 194 110 L 207 66 L 219 110 L 336 464 L 393 464 L 511 110 L 523 66 L 535 110 L 653 464 L 706 464 L 551 0 L 491 0 L 376 345 L 363 392 L 350 345 L 233 0 L 173 0 Z" unicode="ẃ" />
<glyph horiz-adv-x="919" d="M 221 0 L 14 658 L 74 658 L 241 121 L 253 76 L 265 121 L 433 658 L 491 658 L 658 121 L 671 75 L 683 121 L 850 658 L 905 658 L 698 0 L 638 0 L 472 538 L 460 584 L 447 538 L 281 0 L 221 0 Z M 361 720 L 361 778 L 419 778 L 419 720 L 361 720 Z M 503 720 L 503 778 L 561 778 L 561 720 L 503 720 Z" unicode="Ẅ" />
<glyph horiz-adv-x="724" d="M 261 533 L 261 594 L 322 594 L 322 533 L 261 533 Z M 406 533 L 406 594 L 467 594 L 467 533 L 406 533 Z M 173 0 L 18 464 L 76 464 L 194 110 L 207 66 L 219 110 L 336 464 L 393 464 L 511 110 L 523 66 L 535 110 L 653 464 L 706 464 L 551 0 L 491 0 L 376 345 L 363 392 L 350 345 L 233 0 L 173 0 Z" unicode="ẅ" />
<glyph horiz-adv-x="554" d="M 248 0 L 248 293 L 9 658 L 76 658 L 253 390 L 280 346 L 307 390 L 483 658 L 545 658 L 305 293 L 305 0 L 248 0 Z M 263 720 L 161 847 L 222 847 L 318 720 L 263 720 Z" unicode="Ỳ" />
<glyph horiz-adv-x="449" d="M 2 -218 L -6 -218 L -6 -167 L 2 -167 C 44 -167 80 -155 110 -131 C 140 -107 170 -64 198 -2 L 190 19 L 15 464 L 75 464 L 214 110 L 228 68 L 242 110 L 381 464 L 437 464 L 258 10 C 224 -76 187 -135 147 -168 C 107 -201 58 -218 2 -218 Z M 214 524 L 109 655 L 174 655 L 272 524 L 214 524 Z" unicode="ỳ" />
<glyph horiz-adv-x="500" d="" unicode=" " />
<glyph horiz-adv-x="1000" d="" unicode=" " />
<glyph horiz-adv-x="650" d="" unicode=" " />
<glyph horiz-adv-x="200" d="" unicode=" " />
<glyph horiz-adv-x="650" d="M 113 206 L 113 255 L 541 255 L 541 206 L 113 206 Z" unicode="‒" />
<glyph horiz-adv-x="504" d="M 38 206 L 38 255 L 466 255 L 466 206 L 38 206 Z" unicode="–" />
<glyph horiz-adv-x="1004" d="M 38 206 L 38 255 L 966 255 L 966 206 L 38 206 Z" unicode="—" />
<glyph horiz-adv-x="360" d="M 38 206 L 38 255 L 305 255 L 305 206 L 38 206 Z" unicode="―" />
<glyph horiz-adv-x="180" d="M 63 523 L 63 588 C 63 614 67 640 76 665 C 85 690 99 713 118 734 L 157 714 C 143 693 134 673 128 654 C 122 635 119 614 119 590 L 119 523 L 63 523 Z" unicode="‘" />
<glyph horiz-adv-x="179" d="M 119 722 L 119 657 C 119 630 114 604 105 579 C 95 553 82 530 64 510 L 27 531 C 39 551 49 570 55 590 C 61 609 64 631 64 655 L 64 722 L 119 722 Z" unicode="’" />
<glyph horiz-adv-x="179" d="M 119 77 L 119 12 C 119 -14 114 -40 105 -65 C 95 -90 82 -113 64 -134 L 27 -114 C 39 -93 49 -73 55 -54 C 61 -35 64 -14 64 10 L 64 77 L 119 77 Z" unicode="‚" />
<glyph horiz-adv-x="295" d="M 63 526 L 63 589 C 63 615 67 641 76 666 C 85 691 99 714 118 735 L 157 715 C 143 695 134 675 128 656 C 122 636 119 615 119 591 L 119 526 L 63 526 Z M 178 526 L 178 589 C 178 615 182 641 192 666 C 201 691 215 714 233 735 L 272 715 C 258 695 249 675 243 656 C 237 636 234 615 234 591 L 234 526 L 178 526 Z" unicode="“" />
<glyph horiz-adv-x="292" d="M 119 722 L 119 657 C 119 630 114 604 105 579 C 95 553 82 530 64 510 L 27 531 C 39 551 49 570 55 590 C 61 609 64 631 64 655 L 64 722 L 119 722 Z M 231 722 L 231 657 C 231 630 226 604 217 579 C 208 553 195 530 177 510 L 139 531 C 152 551 162 570 168 590 C 174 609 177 631 177 655 L 177 722 L 231 722 Z" unicode="”" />
<glyph horiz-adv-x="289" d="M 119 77 L 119 12 C 119 -14 114 -40 105 -65 C 95 -90 82 -113 64 -134 L 27 -114 C 39 -93 49 -73 55 -54 C 61 -35 64 -14 64 10 L 64 77 L 119 77 Z M 229 77 L 229 12 C 229 -14 224 -40 215 -65 C 206 -90 192 -113 174 -134 L 137 -114 C 149 -93 159 -73 165 -54 C 171 -35 175 -14 175 10 L 175 77 L 229 77 Z" unicode="„" />
<glyph horiz-adv-x="464" d="M 204 0 L 206 470 L 55 469 L 55 520 L 206 518 L 204 722 L 260 722 L 258 518 L 410 520 L 410 469 L 258 470 L 260 0 L 204 0 Z" unicode="†" />
<glyph horiz-adv-x="464" d="M 204 0 L 206 212 L 55 210 L 55 261 L 206 259 L 206 470 L 55 469 L 55 520 L 206 518 L 204 722 L 260 722 L 258 518 L 410 520 L 410 469 L 258 470 L 258 259 L 410 261 L 410 210 L 258 212 L 260 0 L 204 0 Z" unicode="‡" />
<glyph horiz-adv-x="252" d="M 61 183 L 61 311 L 195 311 L 195 183 L 61 183 Z" unicode="•" />
<glyph horiz-adv-x="513" d="M 51 0 L 51 61 L 113 61 L 113 0 L 51 0 Z M 226 0 L 226 61 L 288 61 L 288 0 L 226 0 Z M 401 0 L 401 61 L 463 61 L 463 0 L 401 0 Z" unicode="…" />
<glyph horiz-adv-x="1198" d="M 1006 -8 C 956 -8 916 9 888 43 C 860 77 846 122 846 180 C 846 237 860 283 888 317 C 916 351 956 368 1006 368 C 1056 368 1095 351 1123 317 C 1151 283 1166 238 1166 182 C 1166 124 1151 77 1123 43 C 1095 9 1056 -8 1006 -8 Z M 1006 37 C 1040 37 1066 50 1086 76 C 1106 102 1116 136 1116 180 C 1116 223 1106 258 1086 284 C 1066 310 1040 323 1006 323 C 972 323 945 310 926 284 C 906 258 897 224 897 182 C 897 138 906 102 926 76 C 945 50 972 37 1006 37 Z M 636 -8 C 586 -8 546 9 518 43 C 490 77 476 122 476 180 C 476 237 490 283 518 317 C 546 351 586 368 636 368 C 686 368 725 351 753 317 C 781 283 796 238 796 182 C 796 124 781 77 753 43 C 725 9 686 -8 636 -8 Z M 636 37 C 670 37 696 50 716 76 C 736 102 746 136 746 180 C 746 223 736 258 716 284 C 696 310 670 323 636 323 C 602 323 575 310 556 284 C 536 258 527 224 527 182 C 527 138 536 102 556 76 C 575 50 602 37 636 37 Z M 251 1 L 520 723 L 569 723 L 299 1 L 251 1 Z M 191 352 C 141 352 101 369 73 403 C 45 437 31 482 31 540 C 31 597 45 643 73 677 C 101 711 141 728 191 728 C 241 728 280 711 308 677 C 336 643 351 598 351 542 C 351 484 336 437 308 403 C 280 369 241 352 191 352 Z M 191 397 C 225 397 251 410 271 436 C 291 462 301 496 301 540 C 301 583 291 618 271 644 C 251 670 225 683 191 683 C 157 683 130 670 111 644 C 91 618 82 584 82 542 C 82 498 91 462 111 436 C 130 410 157 397 191 397 Z" unicode="‰" />
<glyph horiz-adv-x="137" d="M 44 533 L 44 720 L 93 720 L 93 533 L 44 533 Z" unicode="′" />
<glyph horiz-adv-x="242" d="M 44 533 L 44 720 L 93 720 L 93 533 L 44 533 Z M 155 533 L 155 720 L 205 720 L 205 533 L 155 533 Z" unicode="″" />
<glyph horiz-adv-x="312" d="M 204 69 L 49 226 L 204 384 L 271 384 L 117 226 L 271 69 L 204 69 Z" unicode="‹" />
<glyph horiz-adv-x="312" d="M 49 69 L 203 226 L 49 384 L 116 384 L 271 226 L 116 69 L 49 69 Z" unicode="›" />
<glyph horiz-adv-x="114" d="M -102 0 L 167 722 L 216 722 L -54 0 L -102 0 Z" unicode="⁄" />
<glyph horiz-adv-x="382" d="M 191 432 C 141 432 101 449 73 483 C 45 517 31 562 31 620 C 31 677 45 723 73 757 C 101 791 141 808 191 808 C 241 808 280 791 308 757 C 336 723 351 678 351 622 C 351 564 336 517 308 483 C 280 449 241 432 191 432 Z M 191 477 C 225 477 251 490 271 516 C 291 542 301 576 301 620 C 301 663 291 698 271 724 C 251 750 225 763 191 763 C 157 763 130 750 111 724 C 91 698 82 664 82 622 C 82 578 91 542 111 516 C 130 490 157 477 191 477 Z" unicode="⁰" />
<glyph horiz-adv-x="317" d="M 189 440 L 189 532 L 23 532 L 23 566 L 173 800 L 237 800 L 237 575 L 293 575 L 293 532 L 237 532 L 237 440 L 189 440 Z M 189 575 L 189 749 L 77 575 L 189 575 Z" unicode="⁴" />
<glyph horiz-adv-x="294" d="M 140 432 C 119 432 100 434 82 440 C 64 446 46 454 30 466 L 30 518 C 45 504 61 493 79 486 C 96 479 115 476 135 476 C 158 476 177 482 192 495 C 206 508 214 526 214 549 C 214 569 206 586 190 599 C 174 612 153 619 128 619 C 113 619 97 617 81 615 C 65 612 50 609 37 607 L 51 800 L 244 800 L 244 753 L 89 753 L 81 655 C 90 657 99 658 109 659 C 119 660 128 661 137 661 C 177 661 209 650 231 630 C 253 610 264 583 264 550 C 264 514 252 485 230 464 C 208 442 178 432 140 432 Z" unicode="⁵" />
<glyph horiz-adv-x="322" d="M 162 432 C 128 432 97 445 70 473 C 43 500 30 538 30 587 C 30 663 44 718 74 754 C 103 790 143 808 193 808 C 206 808 220 806 235 804 C 249 801 262 797 274 793 L 274 746 C 263 750 251 755 237 759 C 223 763 209 765 195 765 C 157 765 128 753 110 729 C 92 705 81 671 79 628 C 87 644 100 657 116 665 C 132 673 151 678 172 678 C 209 678 238 666 260 643 C 281 620 292 593 292 561 C 292 523 279 492 253 468 C 227 444 197 432 162 432 Z M 162 475 C 188 475 208 483 222 499 C 236 515 243 535 243 559 C 243 579 236 598 222 614 C 208 630 189 638 165 638 C 142 638 123 632 108 621 C 92 610 83 596 80 580 C 80 549 87 524 101 504 C 115 484 136 475 162 475 Z" unicode="⁶" />
<glyph horiz-adv-x="301" d="M 78 440 L 217 753 L 30 753 L 30 800 L 271 800 L 271 759 L 134 440 L 78 440 Z" unicode="⁷" />
<glyph horiz-adv-x="299" d="M 149 432 C 113 432 84 441 62 459 C 40 477 30 500 30 529 C 30 549 35 568 47 584 C 58 600 74 613 95 623 C 75 632 60 644 50 660 C 40 675 35 692 35 712 C 35 740 45 763 66 781 C 87 799 115 808 149 808 C 183 808 210 799 231 782 C 252 765 263 743 263 715 C 263 698 257 682 247 668 C 237 653 222 640 202 630 C 222 620 239 607 251 591 C 263 575 269 556 269 534 C 269 503 258 478 236 460 C 214 441 185 432 149 432 Z M 147 647 L 153 646 C 171 650 186 659 197 672 C 208 684 214 698 214 714 C 214 730 208 743 196 753 C 184 763 168 769 149 769 C 129 769 114 763 102 753 C 90 742 84 728 84 712 C 84 696 89 683 101 671 C 112 659 127 651 147 647 Z M 80 532 C 80 513 86 498 99 487 C 111 476 128 471 149 471 C 170 471 187 476 200 488 C 212 499 219 514 219 533 C 219 551 213 566 201 578 C 189 590 173 599 151 604 L 144 606 C 123 600 107 590 96 577 C 85 564 80 549 80 532 Z" unicode="⁸" />
<glyph horiz-adv-x="322" d="M 135 432 C 118 432 102 433 87 436 C 72 438 59 442 47 447 L 47 494 C 58 489 71 485 86 481 C 100 477 116 475 133 475 C 168 475 195 486 213 510 C 231 534 241 567 244 610 C 235 593 222 581 206 573 C 189 565 170 561 150 561 C 112 561 83 572 62 596 C 40 619 30 647 30 679 C 30 720 42 752 68 774 C 94 796 124 808 160 808 C 194 808 224 794 251 768 C 278 742 292 703 292 653 C 292 577 277 521 249 485 C 220 449 182 432 135 432 Z M 157 600 C 179 600 198 605 214 616 C 230 627 239 641 243 658 C 243 689 235 715 221 735 C 206 755 186 765 160 765 C 133 765 113 757 99 741 C 85 725 78 705 78 681 C 78 660 85 641 99 625 C 113 608 132 600 157 600 Z" unicode="⁹" />
<glyph horiz-adv-x="370" d="M 45 440 L 45 800 L 96 800 L 96 753 C 109 770 125 784 145 794 C 164 804 184 809 205 809 C 245 809 275 797 297 773 C 318 749 329 718 329 679 L 329 440 L 278 440 L 278 669 C 278 699 270 722 254 738 C 238 753 216 761 190 761 C 170 761 152 756 136 746 C 120 736 106 723 96 707 L 96 440 L 45 440 Z" unicode="ⁿ" />
<glyph horiz-adv-x="382" d="M 191 -178 C 141 -178 101 -161 73 -127 C 45 -93 31 -47 31 10 C 31 67 45 113 73 147 C 101 181 141 198 191 198 C 241 198 280 181 308 147 C 336 113 351 68 351 12 C 351 -46 336 -92 308 -126 C 280 -160 241 -178 191 -178 Z M 191 -133 C 225 -133 251 -120 271 -94 C 291 -68 301 -33 301 10 C 301 53 291 88 271 114 C 251 140 225 153 191 153 C 157 153 130 140 111 114 C 91 88 82 54 82 12 C 82 -32 91 -67 111 -93 C 130 -119 157 -133 191 -133 Z" unicode="₀" />
<glyph horiz-adv-x="279" d="M 35 -170 L 35 -126 L 119 -126 L 119 149 L 26 133 L 26 179 L 169 205 L 169 -126 L 253 -126 L 253 -170 L 35 -170 Z" unicode="₁" />
<glyph horiz-adv-x="301" d="M 30 -170 L 30 -108 C 92 -71 138 -38 170 -10 C 202 17 218 47 218 78 C 218 100 210 118 194 132 C 178 146 158 153 134 153 C 117 153 100 150 83 144 C 65 138 49 130 35 120 L 35 171 C 50 179 66 186 84 191 C 102 195 121 198 142 198 C 180 198 210 187 233 166 C 256 145 268 118 268 85 C 268 47 251 11 218 -21 C 184 -53 136 -87 72 -123 L 271 -123 L 271 -170 L 30 -170 Z" unicode="₂" />
<glyph horiz-adv-x="297" d="M 144 -178 C 123 -178 103 -175 85 -169 C 66 -163 48 -155 30 -143 L 30 -91 C 46 -105 63 -115 81 -122 C 99 -129 118 -133 139 -133 C 162 -133 181 -127 195 -116 C 209 -105 216 -90 216 -72 C 216 -52 208 -36 192 -24 C 176 -12 152 -6 121 -6 L 103 -6 L 103 37 L 119 37 C 148 37 170 42 186 54 C 201 65 209 81 209 101 C 209 117 202 130 190 139 C 177 148 160 153 140 153 C 122 153 105 150 90 145 C 74 139 60 131 47 120 L 47 169 C 62 178 78 185 94 190 C 110 195 128 198 146 198 C 181 198 209 190 229 174 C 249 158 260 135 260 107 C 260 85 253 66 240 50 C 227 34 208 22 183 16 C 209 11 230 1 245 -15 C 259 -31 267 -50 267 -74 C 267 -105 256 -130 234 -149 C 212 -168 182 -178 144 -178 Z" unicode="₃" />
<glyph horiz-adv-x="317" d="M 189 -170 L 189 -78 L 23 -78 L 23 -44 L 173 190 L 237 190 L 237 -35 L 293 -35 L 293 -78 L 237 -78 L 237 -170 L 189 -170 Z M 189 -35 L 189 139 L 77 -35 L 189 -35 Z" unicode="₄" />
<glyph horiz-adv-x="294" d="M 140 -178 C 119 -178 100 -175 82 -169 C 64 -163 46 -155 30 -144 L 30 -92 C 45 -106 61 -116 79 -123 C 96 -130 115 -134 135 -134 C 158 -134 177 -127 192 -114 C 206 -101 214 -83 214 -61 C 214 -40 206 -23 190 -10 C 174 2 153 9 128 9 C 113 9 97 7 81 5 C 65 2 50 0 37 -3 L 51 190 L 244 190 L 244 143 L 89 143 L 81 45 C 90 47 99 48 109 49 C 119 50 128 51 137 51 C 177 51 209 40 231 20 C 253 0 264 -26 264 -60 C 264 -96 252 -124 230 -146 C 208 -167 178 -178 140 -178 Z" unicode="₅" />
<glyph horiz-adv-x="322" d="M 162 -178 C 128 -178 97 -164 70 -137 C 43 -109 30 -71 30 -23 C 30 53 44 108 74 144 C 103 180 143 198 193 198 C 206 198 220 196 235 194 C 249 191 262 187 274 183 L 274 136 C 263 140 251 145 237 149 C 223 153 209 155 195 155 C 157 155 128 143 110 119 C 92 95 81 61 79 18 C 87 34 100 47 116 55 C 132 63 151 68 172 68 C 209 68 238 56 260 33 C 281 10 292 -17 292 -49 C 292 -87 279 -118 253 -142 C 227 -166 197 -178 162 -178 Z M 162 -135 C 188 -135 208 -127 222 -111 C 236 -95 243 -75 243 -51 C 243 -30 236 -12 222 4 C 208 20 189 28 165 28 C 142 28 123 22 108 11 C 92 0 83 -13 80 -30 C 80 -60 87 -85 101 -105 C 115 -125 136 -135 162 -135 Z" unicode="₆" />
<glyph horiz-adv-x="301" d="M 78 -170 L 217 143 L 30 143 L 30 190 L 271 190 L 271 149 L 134 -170 L 78 -170 Z" unicode="₇" />
<glyph horiz-adv-x="299" d="M 149 -178 C 113 -178 84 -169 62 -151 C 40 -133 30 -109 30 -81 C 30 -60 35 -42 47 -26 C 58 -10 74 3 95 13 C 75 22 60 34 50 50 C 40 65 35 82 35 102 C 35 130 45 153 66 171 C 87 189 115 198 149 198 C 183 198 210 189 231 172 C 252 155 263 133 263 105 C 263 88 257 72 247 58 C 237 43 222 30 202 20 C 222 10 239 -3 251 -19 C 263 -35 269 -54 269 -76 C 269 -106 258 -131 236 -150 C 214 -168 185 -178 149 -178 Z M 147 37 L 153 36 C 171 40 186 49 197 62 C 208 74 214 88 214 104 C 214 120 208 133 196 143 C 184 153 168 159 149 159 C 129 159 114 153 102 143 C 90 132 84 118 84 102 C 84 86 89 73 101 61 C 112 49 127 41 147 37 Z M 80 -78 C 80 -96 86 -111 99 -122 C 111 -133 128 -139 149 -139 C 170 -139 187 -133 200 -122 C 212 -110 219 -95 219 -77 C 219 -59 213 -43 201 -31 C 189 -19 173 -10 151 -6 L 144 -4 C 123 -10 107 -19 96 -32 C 85 -45 80 -60 80 -78 Z" unicode="₈" />
<glyph horiz-adv-x="322" d="M 135 -178 C 118 -178 102 -176 87 -174 C 72 -171 59 -167 47 -163 L 47 -116 C 58 -120 71 -125 86 -129 C 100 -133 116 -135 133 -135 C 168 -135 195 -123 213 -99 C 231 -75 241 -42 244 0 C 235 -16 222 -29 206 -37 C 189 -45 170 -49 150 -49 C 112 -49 83 -37 62 -14 C 40 9 30 37 30 69 C 30 110 42 142 68 164 C 94 186 124 198 160 198 C 194 198 224 184 251 158 C 278 132 292 93 292 43 C 292 -33 277 -88 249 -124 C 220 -160 182 -178 135 -178 Z M 157 -10 C 179 -10 198 -4 214 6 C 230 17 239 31 243 48 C 243 79 235 105 221 125 C 206 145 186 155 160 155 C 133 155 113 147 99 131 C 85 115 78 95 78 71 C 78 50 85 31 99 15 C 113 -1 132 -10 157 -10 Z" unicode="₉" />
<glyph horiz-adv-x="705" d="M 23 361 L 23 405 L 326 405 L 326 361 L 23 361 Z M 23 258 L 23 301 L 328 301 L 328 258 L 23 258 Z M 440 -13 C 336 -13 252 17 188 79 C 124 141 92 224 92 328 C 92 431 123 514 186 577 C 249 639 334 671 440 671 C 478 671 514 667 547 659 C 580 651 612 638 644 622 L 644 563 C 613 582 581 596 548 605 C 515 614 479 619 440 619 C 352 619 281 592 229 539 C 177 485 151 415 151 328 C 151 240 177 169 231 117 C 285 65 354 39 440 39 C 480 39 517 44 551 55 C 585 66 618 83 651 105 L 651 44 C 618 24 584 9 550 0 C 515 -8 478 -13 440 -13 Z" unicode="€" />
<glyph horiz-adv-x="661" d="M 330 120 C 250 120 183 147 129 203 C 74 259 47 325 47 402 C 47 479 74 546 129 602 C 183 658 250 687 330 687 C 408 687 475 659 531 603 C 586 547 614 480 614 403 C 614 325 586 259 531 203 C 475 147 408 120 330 120 Z M 330 158 C 396 158 453 181 502 229 C 550 276 575 334 575 402 C 575 471 550 529 502 577 C 453 625 396 649 330 649 C 262 649 205 625 157 578 C 109 530 86 472 86 403 C 86 334 109 276 157 229 C 205 181 262 158 330 158 Z M 250 232 L 250 578 L 332 578 C 368 578 398 568 421 549 C 444 530 456 504 456 472 C 456 438 444 411 421 391 C 398 371 368 362 331 362 L 292 362 L 292 232 L 250 232 Z M 292 399 L 329 399 C 355 399 375 405 391 418 C 406 431 414 449 414 471 C 414 491 406 508 391 521 C 375 534 355 541 329 541 L 292 541 L 292 399 Z" unicode="℗" />
<glyph horiz-adv-x="570" d="M 102 460 L 102 684 L 22 684 L 22 722 L 225 722 L 225 684 L 144 684 L 144 460 L 102 460 Z M 254 460 L 254 722 L 321 722 L 392 566 L 462 722 L 526 722 L 526 460 L 483 460 L 483 680 L 404 508 L 372 508 L 292 681 L 292 460 L 254 460 Z" unicode="™" />
<glyph horiz-adv-x="511" d="M 254 -10 C 192 -10 140 9 100 49 C 60 88 40 142 40 212 C 40 279 59 332 99 372 C 139 412 187 432 243 432 C 275 432 306 424 336 408 C 366 392 389 370 407 340 C 397 406 369 469 323 530 C 277 591 194 622 74 622 L 74 677 C 243 677 351 625 399 523 C 446 421 470 337 470 272 C 470 171 448 99 406 55 C 363 11 312 -10 254 -10 Z M 253 42 C 300 42 338 59 368 95 C 397 131 412 179 412 241 C 406 280 389 313 360 340 C 331 367 295 381 252 381 C 206 381 168 364 140 332 C 112 299 98 260 98 214 C 98 166 111 125 138 92 C 164 58 203 42 253 42 Z" unicode="∂" />
<glyph horiz-adv-x="511" d="M 76 0 L 76 658 L 435 658 L 435 0 L 378 0 L 378 606 L 133 606 L 133 0 L 76 0 Z" unicode="∏" />
<glyph horiz-adv-x="475" d="M 42 0 L 42 48 L 290 333 L 42 610 L 42 658 L 431 658 L 431 606 L 121 606 L 362 337 L 115 55 L 434 55 L 434 0 L 42 0 Z" unicode="∑" />
<glyph horiz-adv-x="506" d="M 42 264 L 42 313 L 464 313 L 464 264 L 42 264 Z" unicode="−" />
<glyph horiz-adv-x="564" d="M 210 -8 L 13 483 L 72 483 L 236 72 L 496 723 L 550 723 L 259 -8 L 210 -8 Z" unicode="√" />
<glyph horiz-adv-x="804" d="M 215 47 C 163 47 121 63 90 95 C 59 127 44 171 44 225 C 44 279 59 323 91 355 C 123 387 164 404 215 404 C 253 404 288 393 319 371 C 350 349 379 317 406 273 C 436 317 466 349 497 371 C 527 392 559 403 593 403 C 643 403 683 387 714 355 C 744 323 760 280 760 226 C 760 171 744 127 712 95 C 680 63 639 47 587 47 C 551 47 517 58 486 80 C 454 102 425 136 397 181 C 367 135 338 102 309 80 C 279 58 248 47 215 47 Z M 98 227 C 98 187 109 155 132 132 C 154 108 184 97 220 97 C 244 97 269 106 294 126 C 318 146 344 179 372 225 L 370 229 C 342 276 317 309 293 327 C 269 345 245 354 220 354 C 184 354 154 342 132 319 C 109 296 98 265 98 227 Z M 432 228 C 459 181 485 147 510 127 C 534 107 560 97 587 97 C 621 97 650 108 672 132 C 694 155 706 186 706 225 C 706 263 694 294 672 318 C 650 341 621 353 586 353 C 560 353 535 343 511 324 C 486 304 459 273 431 229 L 432 228 Z" unicode="∞" />
<glyph horiz-adv-x="494" d="M 49 -226 C 34 -226 19 -224 5 -220 C -8 -216 -22 -211 -35 -203 L -35 -149 C -22 -157 -8 -164 5 -168 C 19 -172 35 -174 52 -174 C 80 -174 103 -163 121 -142 C 138 -120 149 -92 154 -56 L 234 560 C 242 618 260 661 290 689 C 319 717 355 732 397 732 C 413 732 428 730 444 726 C 459 722 474 717 490 711 L 490 655 C 475 663 460 670 444 674 C 428 678 412 680 396 680 C 365 680 341 669 323 648 C 305 627 294 598 290 560 L 209 -56 C 201 -113 183 -156 155 -184 C 126 -212 91 -226 49 -226 Z" unicode="∫" />
<glyph horiz-adv-x="357" d="M 56 294 L 43 334 C 50 348 61 358 75 366 C 89 374 103 378 117 378 C 128 378 139 376 150 373 C 161 370 171 365 181 359 C 190 352 200 347 210 343 C 220 339 231 337 243 337 C 255 337 265 340 275 346 C 285 352 294 360 302 370 L 315 330 C 306 316 295 305 281 297 C 267 289 254 286 240 286 C 229 286 218 287 207 290 C 196 293 186 298 177 305 C 166 312 156 317 147 321 C 138 325 127 327 115 327 C 103 327 93 324 83 318 C 73 312 64 304 56 294 Z M 56 138 L 43 179 C 50 192 61 202 75 210 C 89 218 103 222 117 222 C 128 222 139 220 150 218 C 161 215 171 210 181 204 C 190 196 200 191 210 187 C 220 183 231 181 243 181 C 255 181 265 184 275 191 C 285 197 294 205 302 215 L 315 174 C 306 160 295 149 281 141 C 267 133 254 130 240 130 C 229 130 218 131 207 134 C 196 137 186 142 177 149 C 166 156 156 161 147 165 C 138 169 127 171 115 171 C 103 171 93 168 83 162 C 73 156 64 148 56 138 Z" unicode="≈" />
<glyph horiz-adv-x="508" d="M 141 65 L 304 506 L 353 506 L 190 65 L 141 65 Z M 43 334 L 43 383 L 465 383 L 465 334 L 43 334 Z M 43 189 L 43 237 L 465 237 L 465 189 L 43 189 Z" unicode="≠" />
<glyph horiz-adv-x="443" d="M 299 80 L 64 282 L 299 484 L 379 484 L 144 282 L 379 80 L 299 80 Z M 72 -49 L 72 0 L 371 0 L 371 -49 L 72 -49 Z" unicode="≤" />
<glyph horiz-adv-x="443" d="M 64 80 L 299 282 L 64 484 L 144 484 L 379 282 L 144 80 L 64 80 Z M 71 -49 L 71 0 L 371 0 L 371 -49 L 71 -49 Z" unicode="≥" />
<glyph horiz-adv-x="610" d="M 306 -18 L 47 327 L 306 672 L 564 327 L 306 -18 Z M 307 64 L 503 327 L 306 590 L 110 327 L 307 64 Z" unicode="◊" />
<glyph horiz-adv-x="567" d="M 207 -8 L 14 472 L 73 472 L 233 70 L 492 726 L 546 726 L 256 -8 L 207 -8 Z" unicode="✓" />
<glyph horiz-adv-x="681" d="M 60 0 L 60 55 L 256 55 L 256 89 C 194 101 143 132 101 182 C 59 232 39 293 39 367 C 39 463 68 537 126 591 C 184 645 255 672 340 672 C 425 672 497 645 555 592 C 613 538 642 464 642 369 C 642 295 620 232 576 182 C 532 132 479 100 415 88 L 415 55 L 611 55 L 611 0 L 369 0 L 369 128 C 435 135 487 162 526 208 C 564 254 584 307 584 367 C 584 439 562 499 518 547 C 474 594 415 618 340 618 C 266 618 207 594 163 547 C 119 500 97 440 97 368 C 97 308 115 255 153 209 C 190 163 240 136 302 128 L 302 0 L 60 0 Z" unicode="Ꞷ" />
<glyph horiz-adv-x="145" d="M 48 -216 L 9 -195 C 23 -175 32 -156 38 -138 C 43 -120 46 -100 46 -80 L 46 -40 L 96 -40 L 96 -80 C 96 -102 92 -125 85 -149 C 77 -172 65 -194 48 -216 Z" unicode="" />
<glyph horiz-adv-x="693" d="M 15 0 L 15 658 L 679 658 L 679 0 L 15 0 Z M 221 77 L 267 77 L 267 541 L 362 541 L 362 77 L 408 77 L 408 309 L 433 309 C 479 309 515 321 542 347 C 568 372 582 405 582 446 C 582 486 568 519 542 544 C 515 569 479 582 433 582 L 114 582 L 114 541 L 221 541 L 221 77 Z" unicode="" />
<glyph horiz-adv-x="438" d="M 93 0 L 93 413 L 17 413 L 17 464 L 93 464 L 93 563 C 93 613 106 654 132 685 C 158 716 195 732 243 732 C 259 732 276 730 292 726 C 308 722 324 717 340 711 L 340 654 C 326 662 311 669 295 673 C 279 677 262 680 246 680 C 216 680 192 670 174 650 C 156 630 148 602 148 564 L 148 464 L 233 464 L 233 413 L 148 413 L 148 0 L 93 0 Z M 304 0 L 304 464 L 360 464 L 360 0 L 304 0 Z" unicode="ﬁ" />
<glyph horiz-adv-x="459" d="M 93 0 L 93 413 L 17 413 L 17 464 L 93 464 L 93 563 C 93 613 106 654 132 685 C 158 716 195 732 243 732 C 259 732 276 730 292 726 C 308 722 324 717 340 711 L 340 654 C 326 662 311 669 295 673 C 279 677 262 680 246 680 C 216 680 192 670 174 650 C 156 630 148 602 148 564 L 148 464 L 233 464 L 233 413 L 148 413 L 148 0 L 93 0 Z M 310 0 L 310 722 L 366 722 L 366 0 L 310 0 Z" unicode="ﬂ" />
</font>
</defs>
</svg>
