<?xml version="1.0" encoding="utf-8" ?><svg version="1.1" xmlns = 'http://www.w3.org/2000/svg'><defs><font id='web' horiz-adv-x="1000">
<font-face font-family="web" descent="-252" cap-height="658" units-per-em="1000" bbox="-195,-339,1278,991" x-height="472" ascent="748" />
<missing-glyph horiz-adv-x="500" d="M 50 -252 L 450 -252 L 450 748 L 50 748 L 50 -252 Z M 100 -202 L 100 698 L 400 698 L 400 -202 L 100 -202 Z" /><glyph horiz-adv-x="200" d="" unicode=" " />
<glyph horiz-adv-x="273" d="M 97 219 L 164 705 L 306 705 L 238 219 L 97 219 Z M 66 0 L 86 141 L 227 141 L 207 0 L 66 0 Z" unicode="!" />
<glyph horiz-adv-x="420" d="M 122 445 L 160 716 L 285 716 L 247 445 L 122 445 Z M 299 445 L 337 716 L 462 716 L 424 445 L 299 445 Z" unicode="&#x22;" />
<glyph horiz-adv-x="607" d="M 62 77 L 80 208 L 161 208 L 190 312 L 110 312 L 128 443 L 226 443 L 255 547 L 377 547 L 348 443 L 432 443 L 461 547 L 583 547 L 554 443 L 618 443 L 599 312 L 517 312 L 488 208 L 571 208 L 552 77 L 451 77 L 422 -28 L 300 -28 L 329 77 L 246 77 L 217 -28 L 95 -28 L 124 77 L 62 77 Z M 283 208 L 366 208 L 395 312 L 312 312 L 283 208 Z" unicode="#" />
<glyph horiz-adv-x="531" d="M 273 616 L 294 762 L 427 762 L 407 616 L 273 616 Z M 173 -102 L 193 46 L 326 46 L 306 -102 L 173 -102 Z M 247 -14 C 214 -14 182 -10 150 -4 C 118 2 87 13 59 27 L 81 181 C 107 164 135 151 165 143 C 195 134 225 130 256 130 C 284 130 306 135 322 147 C 337 158 345 173 345 192 C 345 207 339 220 327 231 C 315 242 297 253 271 263 L 255 269 C 207 286 170 310 144 341 C 118 371 106 407 106 449 C 106 512 129 565 175 607 C 221 649 283 671 361 671 C 392 671 423 668 455 662 C 486 656 516 646 545 634 L 522 478 C 495 494 468 507 440 516 C 412 524 384 529 357 529 C 332 529 313 523 300 513 C 286 503 280 489 280 471 C 280 457 286 444 298 434 C 310 424 330 413 358 403 L 374 397 C 420 380 455 356 480 326 C 505 296 518 259 518 217 C 518 151 493 96 444 52 C 395 8 329 -14 247 -14 Z" unicode="$" />
<glyph horiz-adv-x="889" d="M 701 -9 C 652 -9 613 5 584 35 C 555 65 541 104 541 153 C 541 218 558 270 593 310 C 628 349 673 369 727 369 C 777 369 816 354 844 324 C 872 294 887 255 887 207 C 887 142 869 90 834 50 C 799 10 755 -9 701 -9 Z M 707 100 C 724 100 738 108 748 126 C 758 143 764 167 764 198 C 764 217 760 232 752 243 C 744 254 733 260 721 260 C 703 260 689 251 679 233 C 669 215 664 192 664 162 C 664 141 668 125 676 115 C 684 105 694 100 707 100 Z M 238 0 L 648 716 L 761 716 L 352 0 L 238 0 Z M 262 351 C 213 351 174 365 145 395 C 116 425 102 464 102 513 C 102 578 119 630 154 670 C 189 709 234 729 288 729 C 338 729 377 714 405 684 C 433 654 448 615 448 567 C 448 502 430 450 395 410 C 360 370 316 351 262 351 Z M 268 460 C 285 460 299 468 309 486 C 319 503 325 527 325 558 C 325 577 321 592 313 603 C 305 614 294 620 282 620 C 264 620 250 611 240 593 C 230 575 225 552 225 522 C 225 501 229 485 237 475 C 245 465 255 460 268 460 Z" unicode="%" />
<glyph horiz-adv-x="656" d="M 496 -84 C 460 -84 431 -75 408 -57 C 384 -39 375 -13 380 20 L 383 40 L 396 90 C 375 52 351 25 323 10 C 295 -5 266 -13 235 -13 C 194 -13 156 0 122 26 C 88 52 71 93 71 151 C 71 186 82 221 105 255 C 127 289 165 314 217 329 C 179 343 152 363 135 389 C 118 414 110 444 110 480 C 110 538 131 584 175 620 C 218 656 280 674 362 674 C 390 674 419 671 449 665 C 479 659 507 651 533 641 L 515 509 L 601 509 L 586 399 L 672 399 L 653 265 L 567 265 L 544 104 C 542 88 544 77 551 69 C 557 61 567 57 579 57 C 586 57 593 58 601 60 C 609 62 617 65 625 69 L 607 -63 C 589 -69 571 -74 552 -78 C 533 -82 514 -84 496 -84 Z M 370 399 L 429 399 L 445 509 L 491 509 C 472 517 452 524 430 530 C 408 535 387 538 369 538 C 336 538 312 531 297 518 C 281 504 274 486 274 464 C 274 446 282 431 298 418 C 314 405 338 399 370 399 Z M 311 131 C 328 131 347 138 368 153 C 389 167 402 195 407 235 L 411 265 L 356 265 C 318 265 291 258 273 245 C 255 232 246 214 246 191 C 246 174 251 160 262 148 C 272 136 289 131 311 131 Z" unicode="&#x26;" />
<glyph horiz-adv-x="251" d="M 122 445 L 160 716 L 293 716 L 255 445 L 122 445 Z" unicode="'" />
<glyph horiz-adv-x="416" d="M 218 -210 C 181 -140 153 -72 135 -4 C 116 63 107 132 107 202 C 107 298 126 390 164 476 C 202 562 260 642 340 716 L 504 716 C 424 639 364 558 324 472 C 284 386 264 297 264 204 C 264 138 273 72 292 4 C 310 -64 341 -135 383 -210 L 218 -210 Z" unicode="(" />
<glyph horiz-adv-x="415" d="M -18 -210 C 62 -133 123 -52 163 33 C 203 119 223 208 223 302 C 223 367 213 434 194 502 C 175 570 145 641 104 716 L 268 716 C 304 646 332 578 351 510 C 370 442 380 374 380 304 C 380 207 360 115 322 29 C 284 -56 225 -136 146 -210 L -18 -210 Z" unicode=")" />
<glyph horiz-adv-x="587" d="M 216 -21 L 92 81 L 233 200 L 65 221 L 141 384 L 280 302 L 271 472 L 443 472 L 387 300 L 551 384 L 582 220 L 408 199 L 517 81 L 363 -20 L 312 136 L 216 -21 Z" unicode="*" />
<glyph horiz-adv-x="498" d="M 193 81 L 214 229 L 74 229 L 92 355 L 234 355 L 255 503 L 386 503 L 365 355 L 504 355 L 486 229 L 345 229 L 324 81 L 193 81 Z" unicode="+" />
<glyph horiz-adv-x="268" d="M 92 -187 L -14 -154 C 5 -124 21 -94 35 -65 C 48 -36 58 0 64 44 L 79 148 L 230 148 L 216 50 C 208 -6 191 -54 166 -95 C 141 -135 116 -166 92 -187 Z" unicode="," />
<glyph horiz-adv-x="371" d="M 71 181 L 89 307 L 369 307 L 351 181 L 71 181 Z" unicode="-" />
<glyph horiz-adv-x="250" d="M 51 0 L 72 148 L 220 148 L 199 0 L 51 0 Z" unicode="." />
<glyph horiz-adv-x="507" d="M 26 0 L 428 716 L 583 716 L 181 0 L 26 0 Z" unicode="/" />
<glyph horiz-adv-x="646" d="M 344 -16 C 264 -16 201 9 155 59 C 109 109 86 177 86 264 C 86 384 114 483 172 560 C 230 636 304 675 396 675 C 476 675 539 648 585 596 C 631 544 654 477 654 395 C 654 274 625 175 567 99 C 509 22 435 -16 344 -16 Z M 345 132 C 386 132 420 155 447 202 C 473 248 487 309 487 385 C 487 429 478 463 462 488 C 445 513 423 526 395 526 C 351 526 317 501 291 452 C 265 403 253 343 253 271 C 253 227 261 193 277 169 C 293 144 316 132 345 132 Z" unicode="0" />
<glyph horiz-adv-x="401" d="M 145 0 L 216 504 L 94 489 L 115 645 L 401 675 L 306 0 L 145 0 Z" unicode="1" />
<glyph horiz-adv-x="544" d="M 49 0 L 78 207 L 134 225 C 214 251 277 284 324 324 C 371 364 395 405 395 448 C 395 471 387 489 371 503 C 355 517 334 524 308 524 C 277 524 247 519 217 510 C 187 500 159 486 131 468 L 153 630 C 181 644 211 654 244 662 C 277 670 309 674 341 674 C 411 674 466 656 505 621 C 543 586 563 539 563 479 C 563 415 538 355 488 299 C 438 243 372 200 290 170 L 243 154 L 515 154 L 493 0 L 49 0 Z" unicode="2" />
<glyph horiz-adv-x="526" d="M 251 -13 C 211 -13 175 -9 143 -2 C 111 4 79 15 49 30 L 70 183 C 95 167 122 155 151 147 C 180 139 210 135 242 135 C 274 135 299 140 316 151 C 333 162 342 178 342 199 C 342 218 333 233 315 245 C 297 256 271 262 237 262 L 192 262 L 211 398 L 248 398 C 288 398 318 404 339 418 C 359 431 370 449 370 473 C 370 490 363 503 350 512 C 336 521 317 526 291 526 C 264 526 237 522 210 514 C 183 506 156 495 128 479 L 149 632 C 181 645 212 655 242 662 C 272 668 303 672 337 672 C 395 672 444 659 482 633 C 520 607 540 565 540 509 C 540 470 526 434 500 401 C 474 367 438 345 393 333 C 428 322 455 304 475 279 C 494 254 504 223 504 187 C 504 123 481 73 437 39 C 393 4 331 -13 251 -13 Z" unicode="3" />
<glyph horiz-adv-x="619" d="M 338 0 L 358 141 L 67 141 L 83 258 L 373 660 L 589 660 L 536 279 L 616 279 L 597 140 L 516 140 L 496 0 L 338 0 Z M 377 279 L 407 492 L 254 279 L 377 279 Z" unicode="4" />
<glyph horiz-adv-x="542" d="M 230 -12 C 197 -12 166 -8 136 -1 C 106 5 78 15 53 28 L 73 176 C 97 160 123 149 151 142 C 179 135 208 132 239 132 C 277 132 305 138 325 151 C 344 163 354 182 354 207 C 354 229 345 245 327 256 C 309 267 283 273 249 273 C 222 273 194 271 166 268 C 138 265 111 261 86 257 L 163 660 L 561 660 L 539 509 L 279 509 L 261 414 C 269 414 277 415 287 415 C 297 415 306 416 316 416 C 381 416 432 399 470 366 C 508 332 527 288 527 232 C 527 156 500 96 447 53 C 393 9 321 -12 230 -12 Z" unicode="5" />
<glyph horiz-adv-x="595" d="M 323 -12 C 250 -12 192 10 150 55 C 107 99 86 163 86 247 C 86 374 121 477 193 556 C 264 635 350 675 451 675 C 477 675 503 672 527 668 C 551 663 575 656 599 647 L 578 501 C 558 511 536 519 513 525 C 489 531 467 534 447 534 C 407 534 370 521 337 497 C 303 473 279 436 264 386 C 280 404 299 419 322 429 C 344 439 370 445 399 445 C 455 445 499 427 532 392 C 565 357 582 310 582 250 C 582 171 557 108 507 60 C 457 12 396 -12 323 -12 Z M 325 127 C 353 127 376 136 393 156 C 410 176 419 200 419 230 C 419 256 412 277 398 292 C 384 306 367 314 347 314 C 325 314 304 307 286 293 C 268 279 254 261 245 239 C 241 207 246 180 260 159 C 274 137 296 127 325 127 Z" unicode="6" />
<glyph horiz-adv-x="538" d="M 113 0 L 388 508 L 114 508 L 136 660 L 588 660 L 571 543 L 284 0 L 113 0 Z" unicode="7" />
<glyph horiz-adv-x="590" d="M 304 -16 C 236 -16 180 0 136 31 C 92 62 70 105 70 159 C 70 197 81 230 104 260 C 127 290 159 314 200 332 C 177 349 159 370 146 394 C 132 418 126 445 126 474 C 126 535 149 584 196 621 C 243 658 303 677 376 677 C 440 677 492 662 534 633 C 575 603 596 564 596 514 C 596 482 586 453 566 427 C 546 401 518 379 482 363 C 511 343 533 320 549 294 C 565 268 573 240 573 211 C 573 141 547 86 497 45 C 446 4 382 -16 304 -16 Z M 356 413 L 367 410 C 388 418 404 430 416 444 C 428 458 434 474 434 490 C 434 506 428 519 416 530 C 404 540 387 546 367 546 C 342 546 323 540 309 528 C 295 516 288 501 288 483 C 288 466 294 451 306 439 C 318 427 335 418 356 413 Z M 236 185 C 236 165 243 149 257 137 C 271 125 291 119 316 119 C 344 119 367 126 383 141 C 399 156 408 175 408 199 C 408 216 400 232 386 247 C 371 261 350 272 324 279 L 314 282 C 289 272 270 258 256 240 C 242 222 236 203 236 185 Z" unicode="8" />
<glyph horiz-adv-x="594" d="M 242 -12 C 216 -12 190 -9 165 -5 C 140 0 116 6 94 16 L 115 162 C 135 151 157 143 179 137 C 201 131 222 129 244 129 C 283 129 319 141 353 165 C 386 189 411 226 428 276 C 412 257 392 243 370 233 C 348 223 322 218 294 218 C 238 218 193 235 160 269 C 126 303 110 350 110 410 C 110 485 135 548 185 599 C 235 649 297 675 373 675 C 444 675 501 653 543 609 C 585 565 606 501 606 416 C 606 288 570 185 499 106 C 428 27 342 -12 242 -12 Z M 346 349 C 368 349 388 355 406 369 C 424 383 438 401 448 424 C 452 456 446 482 432 504 C 418 525 396 536 368 536 C 340 536 318 526 300 506 C 282 486 274 460 274 430 C 274 404 280 384 294 370 C 308 356 325 349 346 349 Z" unicode="9" />
<glyph horiz-adv-x="250" d="M 51 0 L 72 148 L 220 148 L 199 0 L 51 0 Z M 91 284 L 112 432 L 260 432 L 239 284 L 91 284 Z" unicode=":" />
<glyph horiz-adv-x="269" d="M 93 -187 L -13 -154 C 6 -124 22 -94 36 -65 C 49 -36 59 0 65 44 L 80 148 L 231 148 L 217 50 C 209 -6 192 -54 167 -95 C 142 -135 117 -166 93 -187 Z M 100 285 L 121 433 L 269 433 L 248 285 L 100 285 Z" unicode=";" />
<glyph horiz-adv-x="537" d="M 292 81 L 103 296 L 355 513 L 548 513 L 296 296 L 487 81 L 292 81 Z" unicode="&#x3C;" />
<glyph horiz-adv-x="540" d="M 101 335 L 118 457 L 550 457 L 533 335 L 101 335 Z M 72 130 L 89 252 L 521 252 L 504 130 L 72 130 Z" unicode="=" />
<glyph horiz-adv-x="529" d="M 70 81 L 321 296 L 131 513 L 323 513 L 513 296 L 264 81 L 70 81 Z" unicode="&#x3E;" />
<glyph horiz-adv-x="483" d="M 183 219 C 187 257 198 291 215 321 C 232 351 257 380 290 409 C 315 431 332 450 342 465 C 351 479 356 494 356 509 C 356 529 347 544 330 556 C 313 567 290 573 262 573 C 237 573 211 569 185 563 C 158 556 133 547 111 535 L 132 679 C 158 689 188 696 221 702 C 254 708 286 711 318 711 C 381 711 431 696 468 667 C 504 637 523 598 523 548 C 523 516 513 484 495 454 C 477 424 449 392 412 360 C 384 336 364 313 351 291 C 338 269 330 245 326 219 L 183 219 Z M 150 0 L 170 142 L 321 142 L 301 0 L 150 0 Z" unicode="?" />
<glyph horiz-adv-x="812" d="M 399 -77 C 309 -77 235 -48 175 7 C 115 63 85 140 85 238 C 85 358 123 454 201 525 C 279 595 376 631 492 631 C 582 631 658 605 718 555 C 778 505 809 437 809 351 C 809 275 792 216 758 172 C 724 128 681 106 630 106 C 607 106 585 110 563 120 C 541 130 523 147 510 173 C 497 149 480 131 458 121 C 436 111 414 106 392 106 C 357 106 328 118 305 143 C 281 167 270 201 270 244 C 270 306 288 355 326 391 C 363 427 410 446 466 446 C 485 446 507 443 532 438 C 557 433 580 427 601 419 L 581 273 C 577 249 580 230 590 214 C 600 198 615 191 635 191 C 659 191 679 206 693 236 C 707 266 714 303 714 348 C 714 402 694 448 654 485 C 614 522 560 541 492 541 C 396 541 320 512 264 454 C 208 396 180 325 180 240 C 180 174 199 120 239 78 C 278 36 331 15 399 15 C 426 15 456 19 490 27 C 524 35 552 46 576 59 L 576 -41 C 550 -51 521 -60 487 -67 C 453 -73 424 -77 399 -77 Z M 419 201 C 433 201 447 208 459 224 C 471 240 480 259 485 283 L 495 348 C 489 350 483 351 475 353 C 467 354 458 355 450 355 C 426 355 407 345 393 327 C 379 309 372 286 372 258 C 372 241 376 227 384 217 C 392 206 404 201 419 201 Z" unicode="@" />
<glyph horiz-adv-x="701" d="M 12 0 L 366 658 L 519 658 L 689 0 L 521 0 L 491 127 L 241 127 L 176 0 L 12 0 Z M 355 348 L 307 255 L 460 255 L 438 348 L 414 468 L 355 348 Z" unicode="A" />
<glyph horiz-adv-x="592" d="M 71 0 L 163 658 L 382 658 C 450 658 501 644 536 617 C 570 590 588 553 588 505 C 588 465 576 429 554 398 C 532 367 499 345 457 333 C 493 324 520 308 540 285 C 560 261 570 232 570 198 C 570 136 547 88 502 53 C 457 17 390 0 302 0 L 71 0 Z M 287 391 L 341 391 C 368 391 388 397 402 411 C 416 425 423 444 423 469 C 423 488 417 503 407 514 C 396 524 379 530 357 530 L 307 530 L 287 391 Z M 252 131 L 314 131 C 344 131 367 138 383 152 C 399 166 407 185 407 211 C 407 230 400 245 387 256 C 374 267 355 273 330 273 L 271 273 L 252 131 Z" unicode="B" />
<glyph horiz-adv-x="648" d="M 410 -15 C 309 -15 230 13 172 69 C 114 125 85 198 85 288 C 85 400 121 493 195 565 C 269 637 366 673 487 673 C 523 673 557 669 591 661 C 625 653 657 642 687 626 L 665 470 C 635 488 605 502 574 512 C 543 522 510 527 476 527 C 406 527 352 505 312 463 C 272 421 252 366 252 299 C 252 250 267 210 299 179 C 331 147 374 132 428 132 C 464 132 499 137 533 147 C 566 157 600 172 634 193 L 612 35 C 578 18 545 5 511 -2 C 477 -10 444 -15 410 -15 Z" unicode="C" />
<glyph horiz-adv-x="710" d="M 71 0 L 163 658 L 398 658 C 497 658 575 631 632 577 C 689 523 718 454 718 369 C 718 260 680 171 606 103 C 531 34 430 0 304 0 L 71 0 Z M 253 148 L 324 148 C 394 148 449 167 489 207 C 529 246 550 297 550 359 C 550 403 535 439 505 467 C 475 495 433 510 381 510 L 304 510 L 253 148 Z" unicode="D" />
<glyph horiz-adv-x="541" d="M 71 0 L 164 658 L 569 658 L 548 511 L 305 511 L 289 401 L 523 401 L 504 264 L 270 264 L 254 147 L 507 147 L 486 0 L 71 0 Z" unicode="E" />
<glyph horiz-adv-x="491" d="M 71 0 L 164 658 L 545 658 L 524 511 L 304 511 L 288 392 L 491 392 L 471 248 L 267 248 L 232 0 L 71 0 Z" unicode="F" />
<glyph horiz-adv-x="704" d="M 413 -15 C 310 -15 229 12 171 68 C 113 123 84 194 84 282 C 84 396 121 489 195 563 C 269 636 367 673 488 673 C 526 673 565 669 603 662 C 641 654 675 644 705 632 L 684 479 C 655 493 623 505 587 514 C 551 522 515 527 481 527 C 411 527 355 505 314 461 C 272 417 252 361 252 295 C 252 247 267 208 297 177 C 327 146 368 131 418 131 C 436 131 453 132 468 134 C 482 136 496 139 509 144 L 522 241 L 403 241 L 423 378 L 706 378 L 659 42 C 617 23 576 9 535 0 C 494 -10 453 -15 413 -15 Z" unicode="G" />
<glyph horiz-adv-x="721" d="M 71 0 L 163 658 L 325 658 L 290 405 L 545 405 L 580 658 L 741 658 L 649 0 L 488 0 L 524 258 L 270 258 L 233 0 L 71 0 Z" unicode="H" />
<glyph horiz-adv-x="304" d="M 71 0 L 163 658 L 325 658 L 233 0 L 71 0 Z" unicode="I" />
<glyph horiz-adv-x="308" d="M -33 -213 L -46 -213 L -26 -70 L -18 -70 C 8 -70 29 -64 46 -53 C 62 -41 73 -19 78 15 L 169 658 L 331 658 L 241 16 C 229 -65 199 -123 150 -159 C 100 -195 39 -213 -33 -213 Z" unicode="J" />
<glyph horiz-adv-x="684" d="M 71 0 L 164 658 L 326 658 L 284 365 L 558 658 L 751 658 L 446 334 L 665 0 L 472 0 L 277 308 L 233 0 L 71 0 Z" unicode="K" />
<glyph horiz-adv-x="500" d="M 71 0 L 163 658 L 325 658 L 254 148 L 501 148 L 480 0 L 71 0 Z" unicode="L" />
<glyph horiz-adv-x="874" d="M 71 0 L 163 658 L 392 658 L 449 433 L 476 301 L 538 433 L 657 658 L 895 658 L 803 0 L 643 0 L 693 353 L 718 494 L 645 353 L 510 106 L 383 106 L 316 353 L 284 487 L 271 353 L 221 0 L 71 0 Z" unicode="M" />
<glyph horiz-adv-x="750" d="M 71 0 L 163 658 L 335 658 L 521 317 L 563 229 L 573 317 L 621 658 L 770 658 L 678 0 L 510 0 L 321 346 L 279 432 L 270 346 L 221 0 L 71 0 Z" unicode="N" />
<glyph horiz-adv-x="776" d="M 408 -16 C 314 -16 236 11 176 67 C 115 123 85 196 85 288 C 85 398 120 490 190 564 C 260 637 350 674 458 674 C 550 674 628 646 690 591 C 752 536 783 462 783 368 C 783 257 747 165 677 93 C 606 20 516 -16 408 -16 Z M 415 131 C 474 131 522 152 560 195 C 597 237 616 292 616 359 C 616 407 601 447 571 479 C 541 511 502 527 452 527 C 392 527 344 505 307 463 C 269 421 251 366 251 300 C 251 252 265 211 295 179 C 325 147 365 131 415 131 Z" unicode="O" />
<glyph horiz-adv-x="565" d="M 71 0 L 163 658 L 367 658 C 435 658 489 639 531 601 C 573 563 594 514 594 454 C 594 382 567 322 515 273 C 462 223 393 199 307 199 L 261 199 L 233 0 L 71 0 Z M 280 338 L 316 338 C 349 338 376 347 398 365 C 420 383 431 408 431 439 C 431 463 423 481 407 495 C 391 509 369 516 343 516 L 305 516 L 280 338 Z" unicode="P" />
<glyph horiz-adv-x="776" d="M 659 -163 C 607 -147 556 -123 506 -90 C 456 -57 414 -19 382 24 L 512 128 C 537 94 569 63 608 35 C 646 7 687 -12 729 -24 L 659 -163 Z M 408 -16 C 314 -16 236 11 176 67 C 115 123 85 196 85 288 C 85 398 120 490 190 564 C 260 637 350 674 458 674 C 550 674 628 646 690 591 C 752 536 783 462 783 368 C 783 257 747 165 677 93 C 606 20 516 -16 408 -16 Z M 415 131 C 474 131 522 152 560 195 C 597 237 616 292 616 359 C 616 407 601 447 571 479 C 541 511 502 527 452 527 C 392 527 344 505 307 463 C 269 421 251 366 251 300 C 251 252 265 211 295 179 C 325 147 365 131 415 131 Z" unicode="Q" />
<glyph horiz-adv-x="611" d="M 71 0 L 164 658 L 397 658 C 461 658 510 643 545 615 C 579 587 597 548 597 499 C 597 451 583 411 556 379 C 529 346 492 323 445 311 C 472 303 494 291 512 273 C 529 255 541 233 547 207 L 590 0 L 424 0 L 389 184 C 384 208 375 226 362 237 C 348 248 331 254 311 254 L 269 254 L 233 0 L 71 0 Z M 286 377 L 341 377 C 365 377 385 385 401 401 C 417 417 425 438 425 463 C 425 481 419 496 408 508 C 396 520 381 526 361 526 L 307 526 L 286 377 Z" unicode="R" />
<glyph horiz-adv-x="536" d="M 250 -14 C 217 -14 185 -10 153 -4 C 121 2 90 13 62 27 L 84 181 C 110 164 138 151 168 143 C 198 134 228 130 259 130 C 287 130 309 135 325 147 C 340 158 348 173 348 192 C 348 207 342 220 330 231 C 318 242 300 253 274 263 L 258 269 C 210 286 173 310 147 341 C 121 371 109 407 109 449 C 109 512 132 565 178 607 C 224 649 286 671 364 671 C 395 671 426 668 458 662 C 489 656 519 646 548 634 L 525 478 C 498 494 471 507 443 516 C 415 524 387 529 360 529 C 335 529 316 523 303 513 C 289 503 283 489 283 471 C 283 457 289 444 301 434 C 313 424 333 413 361 403 L 377 397 C 423 380 458 356 483 326 C 508 296 521 259 521 217 C 521 151 496 96 447 52 C 398 8 332 -14 250 -14 Z" unicode="S" />
<glyph horiz-adv-x="570" d="M 205 0 L 276 510 L 92 510 L 113 658 L 643 658 L 622 510 L 437 510 L 366 0 L 205 0 Z" unicode="T" />
<glyph horiz-adv-x="694" d="M 355 -12 C 266 -12 198 12 151 62 C 104 112 87 178 99 262 L 154 658 L 319 658 L 264 264 C 258 226 265 196 283 174 C 301 152 329 141 367 141 C 407 141 442 152 470 174 C 498 196 514 226 520 264 L 575 658 L 727 658 L 670 256 C 658 170 623 104 566 58 C 509 11 439 -12 355 -12 Z" unicode="U" />
<glyph horiz-adv-x="690" d="M 272 0 L 101 658 L 273 658 L 354 310 L 376 199 L 429 310 L 609 658 L 773 658 L 418 0 L 272 0 Z" unicode="V" />
<glyph horiz-adv-x="1008" d="M 209 0 L 102 658 L 270 658 L 317 310 L 328 195 L 371 310 L 517 658 L 685 658 L 732 310 L 743 196 L 785 310 L 929 658 L 1090 658 L 798 0 L 623 0 L 578 332 L 567 450 L 522 332 L 383 0 L 209 0 Z" unicode="W" />
<glyph horiz-adv-x="686" d="M 17 0 L 297 338 L 120 658 L 309 658 L 382 518 L 410 458 L 454 518 L 569 658 L 756 658 L 485 335 L 670 0 L 481 0 L 399 157 L 372 212 L 328 156 L 203 0 L 17 0 Z" unicode="X" />
<glyph horiz-adv-x="669" d="M 255 0 L 290 253 L 103 658 L 284 658 L 361 479 L 391 400 L 443 479 L 569 658 L 750 658 L 451 252 L 416 0 L 255 0 Z" unicode="Y" />
<glyph horiz-adv-x="616" d="M 45 0 L 58 90 L 350 448 L 404 510 L 125 510 L 146 658 L 663 658 L 651 568 L 359 210 L 305 148 L 592 148 L 571 0 L 45 0 Z" unicode="Z" />
<glyph horiz-adv-x="383" d="M 47 -210 L 177 716 L 431 716 L 413 591 L 307 591 L 212 -85 L 318 -85 L 301 -210 L 47 -210 Z" unicode="[" />
<glyph horiz-adv-x="495" d="M 333 0 L 117 716 L 262 716 L 478 0 L 333 0 Z" unicode="\" />
<glyph horiz-adv-x="383" d="M 22 -210 L 39 -85 L 145 -85 L 240 591 L 134 591 L 152 716 L 405 716 L 275 -210 L 22 -210 Z" unicode="]" />
<glyph horiz-adv-x="377" d="M 99 524 L 212 681 L 355 681 L 425 524 L 302 524 L 271 591 L 222 524 L 99 524 Z" unicode="^" />
<glyph horiz-adv-x="470" d="M -30 -210 L -12 -88 L 457 -88 L 440 -210 L -30 -210 Z" unicode="_" />
<glyph horiz-adv-x="238" d="M 148 524 L 42 676 L 216 676 L 302 524 L 148 524 Z" unicode="`" />
<glyph horiz-adv-x="563" d="M 227 -11 C 180 -11 141 5 110 38 C 78 71 63 119 63 181 C 63 267 91 339 148 396 C 205 453 277 482 365 482 C 395 482 428 478 464 472 C 500 465 534 457 564 447 L 525 166 C 521 139 518 112 516 84 C 514 56 513 28 513 0 L 365 0 L 365 75 C 347 44 327 22 303 9 C 279 -4 254 -11 227 -11 Z M 283 125 C 307 125 328 137 346 162 C 364 187 376 225 384 275 L 394 343 C 385 346 376 348 366 350 C 356 352 347 353 337 353 C 306 353 279 338 255 309 C 231 279 219 245 219 205 C 219 179 224 159 235 145 C 246 131 262 125 283 125 Z" unicode="a" />
<glyph horiz-adv-x="555" d="M 264 -11 C 232 -11 197 -8 159 -3 C 121 1 86 7 55 14 L 154 716 L 310 716 L 276 471 L 266 411 C 281 435 300 453 323 465 C 345 477 371 483 400 483 C 445 483 482 465 512 431 C 542 397 557 349 557 288 C 557 204 529 133 474 75 C 419 17 349 -11 264 -11 Z M 285 121 C 319 121 347 134 369 160 C 391 186 403 221 403 263 C 403 290 397 311 386 326 C 375 341 359 349 339 349 C 313 349 292 337 274 313 C 256 289 244 250 237 198 L 226 127 C 233 125 242 123 254 122 C 266 121 276 121 285 121 Z" unicode="b" />
<glyph horiz-adv-x="467" d="M 290 -11 C 224 -11 170 9 129 49 C 88 89 68 141 68 203 C 68 285 93 351 145 403 C 197 455 266 481 353 481 C 376 481 399 478 422 473 C 444 468 467 461 489 451 L 470 308 C 448 320 428 330 410 336 C 392 342 371 345 347 345 C 310 345 281 333 259 309 C 237 285 226 255 226 219 C 226 190 234 167 252 151 C 269 134 292 126 322 126 C 347 126 370 129 391 137 C 412 145 433 156 454 171 L 435 28 C 412 15 389 5 365 -1 C 341 -7 316 -11 290 -11 Z" unicode="c" />
<glyph horiz-adv-x="564" d="M 228 -11 C 181 -11 142 5 111 37 C 79 69 64 117 64 179 C 64 266 91 338 146 396 C 201 453 270 482 352 482 C 360 482 370 481 380 480 C 390 479 401 478 411 476 L 445 716 L 603 716 L 526 166 C 522 139 519 112 517 84 C 515 56 514 28 514 0 L 366 0 L 366 75 C 348 44 328 22 304 9 C 280 -4 255 -11 228 -11 Z M 284 125 C 308 125 329 137 347 162 C 365 187 377 225 385 275 L 395 343 C 386 346 377 348 367 350 C 357 352 348 353 338 353 C 307 353 280 338 256 309 C 232 280 220 245 220 205 C 220 179 225 159 236 145 C 247 131 263 125 284 125 Z" unicode="d" />
<glyph horiz-adv-x="510" d="M 301 -12 C 225 -12 167 8 127 48 C 87 88 67 140 67 204 C 67 283 92 349 143 403 C 194 457 260 484 341 484 C 391 484 434 470 468 442 C 502 414 519 380 519 339 C 519 291 500 253 464 225 C 427 197 362 182 270 178 L 226 176 C 230 155 241 139 259 129 C 276 118 300 113 331 113 C 359 113 386 117 414 125 C 442 133 468 144 493 160 L 473 24 C 445 12 417 3 388 -2 C 358 -8 329 -12 301 -12 Z M 323 369 C 301 369 282 360 266 344 C 250 327 239 304 234 276 L 279 278 C 307 278 328 284 344 294 C 359 304 367 317 367 334 C 367 344 363 353 355 359 C 347 365 336 369 323 369 Z" unicode="e" />
<glyph horiz-adv-x="339" d="M 84 0 L 131 338 L 69 338 L 87 472 L 150 472 L 157 524 C 165 586 189 635 227 672 C 265 708 314 727 372 727 C 392 727 413 724 433 720 C 453 716 473 710 492 703 L 472 564 C 458 570 444 576 430 580 C 416 584 402 587 388 587 C 365 587 347 580 334 568 C 321 555 313 536 311 512 L 305 472 L 385 472 L 366 338 L 286 338 L 239 0 L 84 0 Z" unicode="f" />
<glyph horiz-adv-x="554" d="M 225 -220 C 198 -220 169 -217 137 -212 C 105 -206 74 -199 46 -190 L 66 -48 C 86 -60 110 -71 138 -79 C 166 -87 191 -91 214 -91 C 252 -91 283 -83 305 -67 C 327 -51 341 -28 346 4 L 353 60 C 336 33 317 14 296 3 C 274 -7 251 -13 227 -13 C 180 -13 141 3 110 36 C 79 68 64 116 64 180 C 64 265 92 337 149 395 C 205 453 277 482 365 482 C 395 482 428 478 465 472 C 501 465 535 457 565 447 L 503 14 C 491 -67 462 -126 416 -164 C 370 -201 306 -220 225 -220 Z M 283 124 C 307 124 328 136 346 161 C 364 186 376 224 384 274 L 394 342 C 385 345 376 347 366 349 C 356 351 347 352 337 352 C 306 352 279 337 255 308 C 231 278 219 243 219 203 C 219 177 224 157 235 144 C 246 130 262 124 283 124 Z" unicode="g" />
<glyph horiz-adv-x="546" d="M 53 0 L 154 716 L 310 716 L 275 471 C 273 459 271 446 269 432 C 267 418 264 404 262 392 C 278 422 299 444 325 460 C 351 475 378 483 407 483 C 451 483 486 468 512 438 C 537 408 545 368 537 318 L 504 134 C 500 113 497 91 496 68 C 494 44 494 22 494 0 L 338 0 C 338 22 338 44 340 68 C 341 91 344 113 348 134 L 375 271 C 379 294 377 312 368 324 C 359 336 347 343 331 343 C 312 343 294 332 276 310 C 258 288 244 243 234 175 L 209 0 L 53 0 Z" unicode="h" />
<glyph horiz-adv-x="269" d="M 130 553 L 151 698 L 307 698 L 287 553 L 130 553 Z M 62 0 C 62 20 63 42 65 65 C 67 87 69 110 72 133 L 119 472 L 276 472 L 228 133 C 225 112 223 90 221 66 C 219 42 218 20 219 0 L 62 0 Z" unicode="i" />
<glyph horiz-adv-x="254" d="M 124 553 L 144 698 L 301 698 L 280 553 L 124 553 Z M -64 -213 L -72 -213 L -53 -77 L -45 -77 C -19 -77 2 -69 18 -55 C 34 -40 44 -19 48 9 L 113 472 L 269 472 L 204 9 C 194 -60 166 -114 120 -154 C 74 -193 12 -213 -64 -213 Z" unicode="j" />
<glyph horiz-adv-x="538" d="M 53 0 L 154 716 L 310 716 L 247 273 C 285 303 320 336 351 371 C 382 405 406 439 424 472 L 592 472 C 564 424 533 380 500 341 C 467 301 434 269 401 244 L 530 0 L 353 0 L 240 223 L 209 0 L 53 0 Z" unicode="k" />
<glyph horiz-adv-x="268" d="M 67 0 C 65 22 65 44 67 68 C 68 91 70 113 73 134 L 155 716 L 311 716 L 229 134 C 226 113 224 91 223 68 C 221 45 222 22 224 0 L 67 0 Z" unicode="l" />
<glyph horiz-adv-x="833" d="M 59 0 L 108 343 C 110 365 113 387 115 409 C 117 430 118 451 118 472 L 273 472 C 273 463 273 453 273 443 C 273 433 272 424 272 416 L 271 393 C 287 423 308 445 332 460 C 356 475 383 483 412 483 C 439 483 465 475 490 461 C 515 447 532 423 542 389 C 563 427 588 453 617 465 C 645 477 671 483 695 483 C 741 483 776 468 802 438 C 827 408 835 368 827 318 L 793 134 C 789 111 786 88 784 66 C 782 43 782 21 782 0 L 625 0 C 625 20 625 42 627 66 C 629 89 632 112 637 135 L 664 271 C 668 293 666 311 657 324 C 648 336 635 343 619 343 C 596 343 576 329 560 301 C 544 273 531 231 523 175 L 499 0 L 342 0 L 381 271 C 383 294 380 312 372 324 C 364 336 352 343 336 343 C 313 343 293 329 277 301 C 261 273 249 231 241 175 L 216 0 L 59 0 Z" unicode="m" />
<glyph horiz-adv-x="553" d="M 60 0 L 109 343 C 111 365 113 387 115 409 C 117 431 118 452 118 472 L 273 472 L 273 415 L 272 393 C 288 423 309 445 334 460 C 359 475 386 483 414 483 C 459 483 494 468 520 438 C 545 408 553 368 544 318 L 512 134 C 508 113 505 91 504 68 C 502 44 502 22 502 0 L 345 0 C 345 22 345 44 347 68 C 348 91 351 113 355 134 L 382 271 C 386 294 384 312 375 324 C 366 336 354 343 339 343 C 316 343 296 329 279 301 C 262 273 249 231 241 175 L 217 0 L 60 0 Z" unicode="n" />
<glyph horiz-adv-x="558" d="M 292 -13 C 225 -13 171 6 130 45 C 88 83 68 136 68 202 C 68 283 93 351 143 405 C 193 459 256 486 334 486 C 400 486 453 466 495 428 C 536 389 557 337 557 271 C 557 188 531 120 480 67 C 429 13 366 -13 292 -13 Z M 301 123 C 329 123 353 136 373 162 C 392 188 402 221 402 261 C 402 286 394 307 379 324 C 363 340 345 349 323 349 C 294 349 270 336 251 310 C 232 284 223 251 223 211 C 223 185 230 164 245 148 C 260 131 279 123 301 123 Z" unicode="o" />
<glyph horiz-adv-x="564" d="M 32 -210 L 110 343 C 112 367 114 389 116 409 C 117 429 118 450 118 472 L 263 472 L 263 391 C 279 422 300 445 325 460 C 349 475 376 483 405 483 C 451 483 490 466 520 433 C 550 400 566 352 566 288 C 566 204 539 134 487 76 C 434 18 368 -11 289 -11 C 277 -11 265 -10 253 -8 C 240 -6 228 -3 218 -1 L 188 -210 L 32 -210 Z M 300 115 C 332 115 359 129 381 157 C 402 185 413 220 413 260 C 413 288 407 309 396 324 C 385 339 369 347 349 347 C 330 347 310 338 290 320 C 270 302 255 260 247 196 L 237 124 C 245 121 255 119 266 117 C 277 115 288 115 300 115 Z" unicode="p" />
<glyph horiz-adv-x="559" d="M 317 -210 L 355 62 C 340 37 321 19 299 7 C 277 -5 253 -11 228 -11 C 182 -11 143 5 112 38 C 80 70 65 118 65 181 C 65 266 93 337 150 395 C 206 453 278 482 366 482 C 396 482 429 478 466 472 C 502 465 536 457 566 447 L 473 -210 L 317 -210 Z M 284 125 C 308 125 330 137 348 162 C 366 187 378 225 386 275 L 395 343 C 386 346 377 348 368 350 C 358 352 349 353 339 353 C 307 353 279 338 256 309 C 232 280 221 245 221 205 C 221 179 226 159 237 145 C 247 131 263 125 284 125 Z" unicode="q" />
<glyph horiz-adv-x="385" d="M 59 0 L 108 345 C 110 367 113 389 115 411 C 117 432 118 452 118 472 L 273 472 C 273 463 272 454 272 444 C 272 434 272 424 272 414 L 272 392 C 286 424 303 447 323 461 C 342 475 363 483 387 483 C 395 483 405 482 415 480 C 425 478 435 475 444 472 L 421 308 C 409 314 397 319 385 323 C 372 326 360 328 348 328 C 323 328 301 317 281 295 C 261 273 247 230 239 166 L 216 0 L 59 0 Z" unicode="r" />
<glyph horiz-adv-x="440" d="M 210 -12 C 184 -12 157 -9 129 -5 C 101 0 75 6 50 15 L 68 141 C 89 129 112 120 138 114 C 163 108 188 105 213 105 C 228 105 241 108 251 113 C 261 118 266 126 266 137 C 266 145 261 152 253 158 C 245 163 233 168 217 173 L 195 178 C 159 188 131 205 112 229 C 92 253 83 283 83 320 C 83 368 100 408 136 438 C 171 468 221 484 285 484 C 308 484 334 481 362 477 C 390 473 416 467 441 459 L 424 337 C 404 347 383 354 359 360 C 335 366 311 369 289 369 C 274 369 262 366 254 362 C 246 357 242 350 242 340 C 242 331 245 324 252 318 C 258 312 269 307 284 303 L 306 297 C 344 286 373 269 393 245 C 413 221 424 193 424 159 C 424 108 405 67 368 35 C 331 3 278 -12 210 -12 Z" unicode="s" />
<glyph horiz-adv-x="361" d="M 223 -11 C 179 -11 146 3 124 31 C 102 59 95 98 102 146 L 129 338 L 66 338 L 85 472 L 147 472 L 165 600 L 322 600 L 304 472 L 390 472 L 371 338 L 285 338 L 262 176 C 260 160 261 149 267 141 C 272 133 281 129 293 129 C 301 129 310 130 318 132 C 326 134 335 137 343 141 L 324 7 C 307 1 290 -3 273 -6 C 256 -9 239 -11 223 -11 Z" unicode="t" />
<glyph horiz-adv-x="553" d="M 204 -11 C 158 -11 123 4 98 34 C 73 64 65 105 73 155 L 104 347 C 108 370 111 392 113 414 C 115 435 116 454 116 472 L 273 472 C 273 451 272 430 270 408 C 268 386 265 365 261 343 L 236 201 C 231 176 232 158 240 146 C 248 134 261 129 279 129 C 303 129 323 142 339 168 C 355 194 368 237 377 298 L 401 472 L 558 472 L 510 134 C 507 113 505 91 504 67 C 503 43 503 21 503 0 L 346 0 L 346 79 C 329 49 308 26 284 11 C 259 -3 232 -11 204 -11 Z" unicode="u" />
<glyph horiz-adv-x="498" d="M 155 0 L 78 472 L 238 472 L 267 262 L 277 148 C 301 196 323 248 344 302 C 364 356 384 412 402 472 L 552 472 C 521 382 488 297 452 219 C 416 140 379 67 339 0 L 155 0 Z" unicode="v" />
<glyph horiz-adv-x="772" d="M 139 0 L 78 472 L 233 472 L 256 262 L 262 157 C 284 207 305 259 325 312 C 345 364 363 418 381 472 L 523 472 L 554 262 L 567 154 C 590 208 611 261 631 314 C 651 367 668 420 684 472 L 826 472 C 802 392 773 312 739 232 C 704 151 666 74 625 0 L 459 0 L 435 174 L 426 268 C 409 222 391 177 372 132 C 352 87 332 43 312 0 L 139 0 Z" unicode="w" />
<glyph horiz-adv-x="516" d="M 8 0 L 205 240 L 81 472 L 254 472 L 293 392 L 308 354 L 334 391 L 395 472 L 564 472 L 377 244 L 508 0 L 332 0 L 289 86 L 273 124 L 245 86 L 179 0 L 8 0 Z" unicode="x" />
<glyph horiz-adv-x="535" d="M 185 -12 L 87 472 L 254 472 L 288 263 L 306 122 C 326 164 346 213 364 269 C 382 325 402 392 423 472 L 575 472 C 513 236 435 63 339 -47 C 243 -157 129 -213 -3 -213 L -13 -213 L 6 -74 L 17 -74 C 48 -74 78 -68 107 -57 C 136 -46 162 -31 186 -12 L 185 -12 Z" unicode="y" />
<glyph horiz-adv-x="477" d="M 37 0 L 51 99 L 218 282 L 270 338 L 89 338 L 107 472 L 500 472 L 486 374 L 318 190 L 266 135 L 459 135 L 440 0 L 37 0 Z" unicode="z" />
<glyph horiz-adv-x="486" d="M 380 -210 C 299 -210 240 -193 203 -159 C 166 -125 154 -77 168 -13 L 190 92 C 196 119 189 141 169 157 C 149 173 119 185 79 192 L 96 314 C 138 320 172 332 196 348 C 220 364 233 387 235 415 L 242 519 C 246 583 271 631 317 665 C 363 699 426 716 508 716 L 536 716 L 518 590 L 502 590 C 466 590 439 581 420 565 C 401 548 391 523 390 489 L 386 410 C 384 368 370 335 343 309 C 316 283 282 264 241 254 L 241 253 C 279 240 307 221 326 195 C 345 169 350 136 342 96 L 324 17 C 316 -17 320 -42 335 -59 C 349 -75 374 -84 410 -84 L 426 -84 L 408 -210 L 380 -210 Z" unicode="{" />
<glyph horiz-adv-x="250" d="M 30 -213 L 161 716 L 289 716 L 158 -213 L 30 -213 Z" unicode="|" />
<glyph horiz-adv-x="486" d="M 21 -210 L 39 -84 L 55 -84 C 90 -84 117 -75 136 -59 C 155 -42 165 -17 167 17 L 171 96 C 173 136 187 170 214 196 C 240 222 274 241 315 252 L 316 253 C 278 265 249 284 230 310 C 211 336 206 370 215 410 L 232 489 C 240 523 236 548 221 565 C 206 581 181 590 147 590 L 131 590 L 149 716 L 177 716 C 257 716 316 699 353 665 C 390 631 402 583 389 519 L 367 415 C 361 387 367 364 387 348 C 407 332 437 320 478 314 L 461 192 C 418 185 384 173 360 157 C 336 141 323 119 322 92 L 315 -13 C 311 -77 286 -125 240 -159 C 194 -193 130 -210 49 -210 L 21 -210 Z" unicode="}" />
<glyph horiz-adv-x="406" d="M 147 146 L 61 146 C 67 192 80 227 100 251 C 120 275 146 287 180 287 C 194 287 207 285 219 282 C 230 278 241 272 252 264 C 260 258 267 254 272 251 C 277 248 282 247 288 247 C 296 247 302 250 308 256 C 313 262 317 271 319 282 L 405 282 C 398 236 385 201 365 177 C 345 153 318 141 286 141 C 270 141 257 142 246 146 C 235 150 224 156 214 164 C 206 170 199 174 194 177 C 188 179 183 181 179 181 C 170 181 163 177 157 171 C 151 165 148 156 147 146 Z" unicode="~" />
<glyph horiz-adv-x="267" d="M 116 377 L 136 518 L 277 518 L 257 377 L 116 377 Z M 35 -200 L 105 299 L 246 299 L 176 -200 L 35 -200 Z" unicode="¡" />
<glyph horiz-adv-x="461" d="M 262 408 L 286 579 L 411 579 L 387 408 L 262 408 Z M 189 -108 L 214 63 L 338 63 L 314 -108 L 189 -108 Z M 286 -11 C 220 -11 166 9 125 49 C 84 89 64 141 64 203 C 64 285 89 351 141 403 C 193 455 262 481 349 481 C 372 481 395 478 418 473 C 440 468 463 461 485 451 L 466 308 C 444 320 424 330 406 336 C 388 342 367 345 343 345 C 306 345 277 333 255 309 C 233 285 222 255 222 219 C 222 190 230 167 248 151 C 265 134 288 126 318 126 C 343 126 366 129 387 137 C 408 145 429 156 450 171 L 431 28 C 408 15 385 5 361 -1 C 337 -7 312 -11 286 -11 Z" unicode="¢" />
<glyph horiz-adv-x="550" d="M 58 0 L 77 135 C 102 149 123 167 139 189 C 155 211 165 238 169 269 L 88 269 L 107 403 L 162 403 C 156 485 175 551 219 600 C 262 649 332 674 430 674 C 460 674 489 670 517 664 C 545 657 572 647 599 633 L 578 486 C 556 502 532 515 507 523 C 482 531 455 536 426 536 C 388 536 358 525 338 503 C 318 481 309 447 313 403 L 431 403 L 412 269 L 320 269 C 318 246 312 224 303 204 C 294 184 282 165 266 149 L 531 149 L 510 0 L 58 0 Z" unicode="£" />
<glyph horiz-adv-x="724" d="M 170 7 L 65 130 L 201 250 C 199 257 197 264 196 272 C 195 280 195 288 195 297 C 195 315 197 334 201 352 C 205 370 210 386 218 402 L 113 523 L 253 646 L 356 526 C 368 530 382 534 396 536 C 410 538 424 540 439 540 C 452 540 465 538 478 536 C 491 533 503 529 515 525 L 654 646 L 758 523 L 619 401 C 620 394 621 387 622 381 C 622 375 623 368 623 362 C 623 340 620 320 615 300 C 610 280 603 262 595 246 L 696 128 L 557 6 L 451 130 C 440 126 429 124 417 122 C 405 120 392 120 380 120 C 368 120 356 121 345 123 C 333 125 322 128 312 132 L 170 7 Z M 398 250 C 426 250 448 259 465 277 C 481 295 490 316 490 340 C 490 358 483 373 470 387 C 457 401 440 408 420 408 C 392 408 369 398 353 380 C 337 362 329 341 329 318 C 329 300 335 284 348 270 C 360 256 377 250 398 250 Z" unicode="¤" />
<glyph horiz-adv-x="690" d="M 192 236 L 206 330 L 578 330 L 564 236 L 192 236 Z M 172 93 L 185 187 L 557 187 L 544 93 L 172 93 Z M 255 0 L 290 253 L 103 658 L 284 658 L 361 479 L 391 400 L 443 479 L 569 658 L 750 658 L 451 252 L 416 0 L 255 0 Z" unicode="¥" />
<glyph horiz-adv-x="250" d="M 103 308 L 160 716 L 288 716 L 231 308 L 103 308 Z M 30 -213 L 88 195 L 215 195 L 158 -213 L 30 -213 Z" unicode="¦" />
<glyph horiz-adv-x="455" d="M 217 -12 C 186 -12 157 -9 131 -5 C 104 0 78 6 52 15 L 69 134 C 91 123 114 115 138 109 C 161 103 186 100 213 100 C 233 100 248 103 258 109 C 268 115 274 124 274 137 C 274 145 269 152 261 158 C 253 164 240 169 222 174 L 201 179 C 165 188 137 202 116 221 C 95 240 85 267 85 301 C 85 323 91 345 104 366 C 116 387 134 405 158 419 C 143 431 132 445 125 462 C 117 479 114 498 114 518 C 114 565 132 603 168 633 C 204 663 254 678 320 678 C 346 678 373 676 400 672 C 426 668 452 661 478 653 L 462 537 C 440 547 419 555 397 560 C 375 565 352 568 329 568 C 311 568 297 565 288 559 C 279 553 275 544 275 534 C 275 526 278 520 285 514 C 292 508 303 504 319 500 L 340 495 C 378 484 408 468 431 448 C 454 428 466 401 466 369 C 466 345 460 323 448 302 C 436 281 418 263 396 249 C 409 237 419 223 426 207 C 432 191 436 175 436 157 C 436 107 416 66 378 35 C 340 3 286 -12 217 -12 Z M 288 293 L 290 293 C 298 297 305 304 309 312 C 313 320 315 328 315 337 C 315 347 310 355 302 362 C 293 369 280 375 263 379 C 254 374 247 367 242 359 C 237 350 235 342 235 334 C 235 324 239 315 247 309 C 255 303 269 297 288 293 Z" unicode="§" />
<glyph horiz-adv-x="299" d="M 64 524 L 82 653 L 211 653 L 193 524 L 64 524 Z M 254 524 L 272 653 L 401 653 L 383 524 L 254 524 Z" unicode="¨" />
<glyph horiz-adv-x="728" d="M 390 82 C 305 82 235 109 179 163 C 123 217 96 286 96 369 C 96 470 131 554 203 622 C 275 690 357 724 451 724 C 536 724 606 697 662 643 C 718 589 746 521 746 439 C 746 331 711 245 642 180 C 573 114 489 82 390 82 Z M 391 162 C 473 162 538 187 588 239 C 638 291 663 355 663 432 C 663 494 642 544 602 584 C 561 624 510 644 450 644 C 372 644 308 617 256 563 C 204 509 178 445 178 373 C 178 311 198 261 239 221 C 280 181 331 162 391 162 Z M 416 225 C 369 225 330 239 299 269 C 268 299 253 337 253 383 C 253 441 272 488 312 526 C 351 563 400 582 460 582 C 477 582 494 579 512 575 C 530 571 545 564 559 556 L 546 469 C 533 477 518 484 502 489 C 486 494 469 497 453 497 C 419 497 393 487 374 468 C 355 448 346 422 346 390 C 346 367 353 348 368 333 C 382 317 402 310 427 310 C 444 310 462 312 481 318 C 499 324 517 331 533 340 L 520 252 C 503 244 485 237 467 232 C 449 227 432 225 416 225 Z" unicode="©" />
<glyph horiz-adv-x="444" d="M 79 210 L 94 320 L 432 320 L 417 210 L 79 210 Z M 225 365 C 192 365 164 377 142 401 C 120 425 109 461 109 508 C 109 574 131 630 177 674 C 222 718 278 741 346 741 C 368 741 392 738 419 734 C 446 730 470 724 491 716 L 461 504 C 458 483 456 461 454 439 C 452 417 451 395 451 373 L 334 373 L 334 433 C 320 409 304 391 286 381 C 267 370 247 365 225 365 Z M 271 473 C 285 473 300 480 314 494 C 328 508 340 539 348 589 L 355 633 C 349 635 344 637 338 638 C 332 639 326 640 320 640 C 296 640 276 629 259 607 C 241 585 233 559 233 529 C 233 510 236 496 242 487 C 248 477 258 473 271 473 Z" unicode="ª" />
<glyph horiz-adv-x="634" d="M 439 61 L 314 226 L 484 392 L 648 392 L 479 226 L 602 61 L 439 61 Z M 196 61 L 72 226 L 242 392 L 405 392 L 237 226 L 360 61 L 196 61 Z" unicode="«" />
<glyph horiz-adv-x="500" d="M 351 114 L 367 227 L 78 227 L 96 349 L 498 349 L 465 114 L 351 114 Z" unicode="¬" />
<glyph horiz-adv-x="371" d="M 71 181 L 89 307 L 369 307 L 351 181 L 71 181 Z" unicode="­" />
<glyph horiz-adv-x="711" d="M 382 82 C 296 82 226 109 170 163 C 114 217 87 286 87 369 C 87 470 123 554 195 622 C 267 690 349 724 443 724 C 528 724 598 697 654 643 C 709 589 737 521 737 439 C 737 331 702 245 634 180 C 565 114 481 82 382 82 Z M 383 162 C 465 162 530 187 580 239 C 630 291 655 355 655 432 C 655 494 634 544 593 584 C 552 624 502 644 442 644 C 364 644 300 617 248 563 C 196 509 170 445 170 373 C 170 311 190 261 231 221 C 271 181 322 162 383 162 Z M 265 229 L 316 581 L 432 581 C 468 581 495 573 515 559 C 535 544 545 525 545 503 C 545 474 536 450 520 432 C 503 413 481 403 455 401 C 470 399 483 394 494 386 C 504 378 512 367 516 355 L 553 229 L 461 229 L 434 324 C 430 336 423 346 415 353 C 407 359 398 363 389 363 L 370 363 L 351 229 L 265 229 Z M 380 437 L 410 437 C 424 437 436 440 444 448 C 452 455 456 465 456 478 C 456 486 452 494 446 500 C 440 506 431 509 421 509 L 391 509 L 380 437 Z" unicode="®" />
<glyph horiz-adv-x="361" d="M 126 530 L 141 639 L 401 639 L 386 530 L 126 530 Z" unicode="¯" />
<glyph horiz-adv-x="354" d="M 248 445 C 206 445 172 457 148 482 C 124 507 112 537 112 573 C 112 620 127 658 158 688 C 188 718 226 733 272 733 C 313 733 346 720 371 695 C 395 670 408 640 408 604 C 408 556 392 518 361 489 C 330 459 292 445 248 445 Z M 255 538 C 271 538 284 543 295 553 C 305 563 311 577 311 593 C 311 606 306 617 297 626 C 288 635 277 640 264 640 C 248 640 234 634 224 624 C 213 614 208 601 208 585 C 208 571 212 560 221 551 C 230 542 241 538 255 538 Z" unicode="°" />
<glyph horiz-adv-x="511" d="M 18 -124 L 36 3 L 467 3 L 449 -124 L 18 -124 Z M 193 81 L 214 229 L 74 229 L 92 355 L 234 355 L 255 503 L 386 503 L 365 355 L 504 355 L 486 229 L 345 229 L 324 81 L 193 81 Z" unicode="±" />
<glyph horiz-adv-x="321" d="M 76 361 L 93 484 C 147 502 188 521 216 539 C 244 557 258 575 258 593 C 258 605 253 613 244 619 C 234 624 222 627 207 627 C 192 627 177 624 162 619 C 146 614 131 607 115 599 L 130 710 C 150 716 169 720 188 724 C 207 727 227 729 249 729 C 291 729 325 720 349 702 C 373 684 386 659 386 626 C 386 590 370 557 340 529 C 310 501 268 478 215 462 L 363 462 L 348 361 L 76 361 Z" unicode="²" />
<glyph horiz-adv-x="323" d="M 202 352 C 182 352 162 353 142 356 C 121 359 99 364 77 371 L 91 474 C 107 466 124 461 140 457 C 156 453 173 451 191 451 C 205 451 216 453 225 458 C 233 462 238 468 238 475 C 238 482 233 487 224 491 C 215 495 201 497 182 497 L 155 497 L 167 582 L 189 582 C 207 582 222 584 233 589 C 243 593 249 600 249 609 C 249 615 245 620 239 624 C 232 627 222 629 208 629 C 192 629 177 627 163 624 C 148 620 133 615 117 609 L 132 711 C 152 716 172 720 191 723 C 210 726 229 728 248 728 C 288 728 320 719 344 703 C 368 686 380 664 380 638 C 380 613 371 592 355 576 C 339 559 317 548 291 542 C 313 537 331 528 343 515 C 355 501 362 485 362 467 C 362 431 347 403 319 383 C 291 362 252 352 202 352 Z" unicode="³" />
<glyph horiz-adv-x="238" d="M 83 524 L 212 676 L 386 676 L 237 524 L 83 524 Z" unicode="´" />
<glyph horiz-adv-x="553" d="M 23 -201 L 85 201 L 175 201 L 168 -201 L 23 -201 Z M 204 -11 C 158 -11 123 4 98 34 C 73 64 65 105 73 155 L 104 347 C 108 370 111 392 113 414 C 115 435 116 454 116 472 L 273 472 C 273 451 272 430 270 408 C 268 386 265 365 261 343 L 236 201 C 231 176 232 158 240 146 C 248 134 261 129 279 129 C 303 129 323 142 339 168 C 355 194 368 237 377 298 L 401 472 L 558 472 L 510 134 C 507 113 505 91 504 67 C 503 43 503 21 503 0 L 346 0 L 346 79 C 329 49 308 26 284 11 C 259 -3 232 -11 204 -11 Z" unicode="µ" />
<glyph horiz-adv-x="541" d="M 143 0 L 201 413 C 168 413 141 423 121 443 C 100 463 90 488 90 518 C 90 558 104 591 132 618 C 160 644 198 658 244 658 L 572 658 L 480 0 L 347 0 L 423 541 L 352 541 L 276 0 L 143 0 Z" unicode="¶" />
<glyph horiz-adv-x="235" d="M 77 185 L 96 319 L 230 319 L 211 185 L 77 185 Z" unicode="·" />
<glyph horiz-adv-x="227" d="M 100 -242 C 87 -242 74 -240 62 -238 C 49 -236 37 -232 26 -228 L 37 -150 C 45 -154 54 -158 63 -161 C 72 -163 81 -165 91 -165 C 101 -165 109 -162 115 -156 C 121 -150 125 -143 125 -134 C 125 -126 122 -120 117 -116 C 111 -112 104 -110 96 -110 L 88 -110 L 98 -40 L 107 -40 C 139 -40 165 -48 185 -65 C 204 -82 214 -104 214 -132 C 214 -164 203 -191 181 -211 C 159 -231 132 -242 100 -242 Z" unicode="¸" />
<glyph horiz-adv-x="310" d="M 79 360 L 92 459 L 160 459 L 182 615 L 107 609 L 121 708 L 324 727 L 286 459 L 353 459 L 339 360 L 79 360 Z" unicode="¹" />
<glyph horiz-adv-x="457" d="M 85 207 L 101 320 L 451 320 L 436 207 L 85 207 Z M 284 361 C 234 361 193 376 163 407 C 133 437 118 477 118 525 C 118 589 137 641 175 682 C 213 722 263 743 325 743 C 375 743 415 727 445 697 C 475 667 491 628 491 580 C 491 516 472 463 434 422 C 396 381 346 361 284 361 Z M 296 469 C 316 469 333 478 346 496 C 359 514 366 537 366 567 C 366 585 361 601 351 615 C 341 628 329 635 313 635 C 291 635 273 625 261 607 C 249 588 243 565 243 537 C 243 516 247 499 257 487 C 266 475 279 469 296 469 Z" unicode="º" />
<glyph horiz-adv-x="635" d="M 50 61 L 219 226 L 95 392 L 259 392 L 383 226 L 214 61 L 50 61 Z M 294 61 L 462 226 L 339 392 L 502 392 L 627 226 L 457 61 L 294 61 Z" unicode="»" />
<glyph horiz-adv-x="800" d="M 620 0 L 629 65 L 470 65 L 482 149 L 630 360 L 786 360 L 757 157 L 800 157 L 788 65 L 744 65 L 735 0 L 620 0 Z M 642 157 L 657 265 L 580 157 L 642 157 Z M 79 360 L 92 459 L 160 459 L 182 615 L 107 609 L 121 708 L 324 727 L 286 459 L 353 459 L 339 360 L 79 360 Z M 198 0 L 608 716 L 721 716 L 312 0 L 198 0 Z" unicode="¼" />
<glyph horiz-adv-x="794" d="M 491 0 L 508 123 C 562 141 603 160 631 178 C 659 196 673 214 673 232 C 673 244 668 252 659 258 C 649 263 637 266 622 266 C 607 266 592 263 577 258 C 561 253 546 246 530 238 L 545 349 C 565 355 584 359 603 363 C 622 366 642 368 664 368 C 706 368 740 359 764 341 C 788 323 801 298 801 265 C 801 229 785 196 755 168 C 725 140 683 117 630 101 L 778 101 L 763 0 L 491 0 Z M 79 360 L 92 459 L 160 459 L 182 615 L 107 609 L 121 708 L 324 727 L 286 459 L 353 459 L 339 360 L 79 360 Z M 184 0 L 594 716 L 707 716 L 298 0 L 184 0 Z" unicode="½" />
<glyph horiz-adv-x="776" d="M 596 0 L 605 65 L 446 65 L 458 149 L 606 360 L 762 360 L 733 157 L 776 157 L 764 65 L 720 65 L 711 0 L 596 0 Z M 618 157 L 633 265 L 556 157 L 618 157 Z M 202 352 C 182 352 162 353 142 356 C 121 359 99 364 77 371 L 91 474 C 107 466 124 461 140 457 C 156 453 173 451 191 451 C 205 451 216 453 225 458 C 233 462 238 468 238 475 C 238 482 233 487 224 491 C 215 495 201 497 182 497 L 155 497 L 167 582 L 189 582 C 207 582 222 584 233 589 C 243 593 249 600 249 609 C 249 615 245 620 239 624 C 232 627 222 629 208 629 C 192 629 177 627 163 624 C 148 620 133 615 117 609 L 132 711 C 152 716 172 720 191 723 C 210 726 229 728 248 728 C 288 728 320 719 344 703 C 368 686 380 664 380 638 C 380 613 371 592 355 576 C 339 559 317 548 291 542 C 313 537 331 528 343 515 C 355 501 362 485 362 467 C 362 431 347 403 319 383 C 291 362 252 352 202 352 Z M 182 0 L 592 716 L 705 716 L 296 0 L 182 0 Z" unicode="¾" />
<glyph horiz-adv-x="480" d="M 234 377 L 253 518 L 404 518 L 384 377 L 234 377 Z M 236 -193 C 172 -193 122 -178 86 -148 C 49 -118 31 -79 31 -29 C 31 2 40 33 58 64 C 76 94 104 126 142 158 C 169 182 189 205 202 227 C 215 249 224 273 228 299 L 371 299 C 366 261 355 227 339 197 C 322 167 297 138 265 110 C 239 87 221 68 212 54 C 202 39 198 24 198 10 C 198 -10 206 -25 223 -37 C 240 -49 263 -55 292 -55 C 316 -55 342 -51 369 -44 C 395 -37 420 -28 443 -17 L 422 -161 C 395 -170 365 -178 332 -184 C 299 -190 267 -193 236 -193 Z" unicode="¿" />
<glyph horiz-adv-x="701" d="M 12 0 L 366 658 L 519 658 L 689 0 L 521 0 L 491 127 L 241 127 L 176 0 L 12 0 Z M 355 348 L 307 255 L 460 255 L 438 348 L 414 468 L 355 348 Z M 377 706 L 283 843 L 437 843 L 514 706 L 377 706 Z" unicode="À" />
<glyph horiz-adv-x="701" d="M 12 0 L 366 658 L 519 658 L 689 0 L 521 0 L 491 127 L 241 127 L 176 0 L 12 0 Z M 355 348 L 307 255 L 460 255 L 438 348 L 414 468 L 355 348 Z M 375 706 L 491 843 L 650 843 L 517 706 L 375 706 Z" unicode="Á" />
<glyph horiz-adv-x="701" d="M 12 0 L 366 658 L 519 658 L 689 0 L 521 0 L 491 127 L 241 127 L 176 0 L 12 0 Z M 355 348 L 307 255 L 460 255 L 438 348 L 414 468 L 355 348 Z M 303 706 L 404 847 L 524 847 L 586 706 L 481 706 L 453 767 L 410 706 L 303 706 Z" unicode="Â" />
<glyph horiz-adv-x="701" d="M 12 0 L 366 658 L 519 658 L 689 0 L 521 0 L 491 127 L 241 127 L 176 0 L 12 0 Z M 355 348 L 307 255 L 460 255 L 438 348 L 414 468 L 355 348 Z M 375 706 L 297 706 C 303 748 314 779 332 801 C 350 822 374 833 405 833 C 417 833 429 831 439 828 C 449 824 459 819 470 812 C 476 807 482 803 487 801 C 492 798 497 797 502 797 C 508 797 514 799 520 805 C 525 811 528 819 530 829 L 608 829 C 601 787 589 755 571 734 C 553 712 530 702 500 702 C 486 702 474 703 464 707 C 454 710 444 715 435 722 C 428 727 422 731 417 733 C 412 735 407 737 403 737 C 396 737 390 734 385 729 C 379 723 376 716 375 706 Z" unicode="Ã" />
<glyph horiz-adv-x="701" d="M 12 0 L 366 658 L 519 658 L 689 0 L 521 0 L 491 127 L 241 127 L 176 0 L 12 0 Z M 355 348 L 307 255 L 460 255 L 438 348 L 414 468 L 355 348 Z M 301 706 L 317 821 L 433 821 L 417 706 L 301 706 Z M 472 706 L 489 821 L 605 821 L 588 706 L 472 706 Z" unicode="Ä" />
<glyph horiz-adv-x="701" d="M 12 0 L 366 658 L 519 658 L 689 0 L 521 0 L 491 127 L 241 127 L 176 0 L 12 0 Z M 355 348 L 307 255 L 460 255 L 438 348 L 414 468 L 355 348 Z M 439 588 C 408 588 383 597 364 615 C 344 633 335 656 335 685 C 335 717 346 745 368 767 C 390 789 417 801 450 801 C 480 801 504 791 524 773 C 544 755 554 731 554 703 C 554 670 543 643 522 621 C 500 599 473 588 439 588 Z M 442 658 C 453 658 462 661 470 669 C 477 676 481 685 481 696 C 481 705 477 713 470 720 C 463 726 455 730 446 730 C 435 730 426 726 418 719 C 410 711 407 702 407 692 C 407 682 410 674 417 668 C 423 661 432 658 442 658 Z" unicode="Å" />
<glyph horiz-adv-x="908" d="M 8 0 L 438 658 L 935 658 L 914 510 L 671 510 L 656 402 L 888 402 L 868 261 L 636 261 L 620 148 L 874 148 L 853 0 L 438 0 L 459 150 L 277 150 L 179 0 L 8 0 Z M 437 396 L 367 288 L 478 288 L 510 511 L 437 396 Z" unicode="Æ" />
<glyph horiz-adv-x="648" d="M 410 -15 C 309 -15 230 13 172 69 C 114 125 85 198 85 288 C 85 400 121 493 195 565 C 269 637 366 673 487 673 C 523 673 557 669 591 661 C 625 653 657 642 687 626 L 665 470 C 635 488 605 502 574 512 C 543 522 510 527 476 527 C 406 527 352 505 312 463 C 272 421 252 366 252 299 C 252 250 267 210 299 179 C 331 147 374 132 428 132 C 464 132 499 137 533 147 C 566 157 600 172 634 193 L 612 35 C 578 18 545 5 511 -2 C 477 -10 444 -15 410 -15 Z M 373 -234 C 361 -234 350 -233 338 -231 C 326 -229 316 -225 306 -221 L 316 -150 C 324 -154 332 -158 340 -160 C 348 -162 356 -164 365 -164 C 374 -164 382 -161 388 -156 C 394 -151 397 -144 397 -136 C 397 -129 394 -124 389 -120 C 384 -116 378 -114 370 -114 L 359 -114 L 368 -50 L 381 -50 C 410 -50 433 -57 451 -73 C 468 -88 477 -108 477 -133 C 477 -163 467 -187 447 -206 C 427 -224 402 -234 373 -234 Z" unicode="Ç" />
<glyph horiz-adv-x="541" d="M 308 706 L 214 843 L 368 843 L 445 706 L 308 706 Z M 71 0 L 164 658 L 569 658 L 548 511 L 305 511 L 289 401 L 523 401 L 504 264 L 270 264 L 254 147 L 507 147 L 486 0 L 71 0 Z" unicode="È" />
<glyph horiz-adv-x="541" d="M 71 0 L 164 658 L 569 658 L 548 511 L 305 511 L 289 401 L 523 401 L 504 264 L 270 264 L 254 147 L 507 147 L 486 0 L 71 0 Z M 306 706 L 422 843 L 581 843 L 448 706 L 306 706 Z" unicode="É" />
<glyph horiz-adv-x="541" d="M 234 706 L 335 847 L 455 847 L 517 706 L 412 706 L 384 767 L 341 706 L 234 706 Z M 71 0 L 164 658 L 569 658 L 548 511 L 305 511 L 289 401 L 523 401 L 504 264 L 270 264 L 254 147 L 507 147 L 486 0 L 71 0 Z" unicode="Ê" />
<glyph horiz-adv-x="541" d="M 71 0 L 164 658 L 569 658 L 548 511 L 305 511 L 289 401 L 523 401 L 504 264 L 270 264 L 254 147 L 507 147 L 486 0 L 71 0 Z M 232 706 L 248 821 L 364 821 L 348 706 L 232 706 Z M 403 706 L 420 821 L 536 821 L 519 706 L 403 706 Z" unicode="Ë" />
<glyph horiz-adv-x="304" d="M 71 0 L 163 658 L 325 658 L 233 0 L 71 0 Z M 187 706 L 93 843 L 247 843 L 324 706 L 187 706 Z" unicode="Ì" />
<glyph horiz-adv-x="304" d="M 71 0 L 163 658 L 325 658 L 233 0 L 71 0 Z M 185 706 L 301 843 L 460 843 L 327 706 L 185 706 Z" unicode="Í" />
<glyph horiz-adv-x="304" d="M 71 0 L 163 658 L 325 658 L 233 0 L 71 0 Z M 113 706 L 214 847 L 334 847 L 396 706 L 291 706 L 263 767 L 220 706 L 113 706 Z" unicode="Î" />
<glyph horiz-adv-x="304" d="M 71 0 L 163 658 L 325 658 L 233 0 L 71 0 Z M 111 706 L 127 821 L 243 821 L 227 706 L 111 706 Z M 282 706 L 299 821 L 415 821 L 398 706 L 282 706 Z" unicode="Ï" />
<glyph horiz-adv-x="741" d="M 79 262 L 98 392 L 389 392 L 370 262 L 79 262 Z M 102 0 L 194 658 L 429 658 C 528 658 606 631 663 577 C 720 523 749 454 749 369 C 749 260 711 171 637 103 C 562 34 461 0 335 0 L 102 0 Z M 284 148 L 355 148 C 425 148 480 167 520 207 C 560 246 581 297 581 359 C 581 403 566 439 536 467 C 506 495 464 510 412 510 L 335 510 L 284 148 Z" unicode="Ð" />
<glyph horiz-adv-x="750" d="M 394 702 L 316 702 C 322 744 333 775 351 797 C 369 818 393 829 424 829 C 436 829 448 827 458 824 C 468 820 478 815 489 808 C 495 803 501 799 506 797 C 511 794 516 793 521 793 C 527 793 533 795 539 801 C 544 807 547 815 549 825 L 627 825 C 620 783 608 751 590 730 C 572 708 549 698 519 698 C 505 698 493 699 483 703 C 473 706 463 711 454 718 C 447 723 441 727 436 729 C 431 731 426 733 422 733 C 415 733 409 730 404 725 C 398 719 395 712 394 702 Z M 71 0 L 163 658 L 335 658 L 521 317 L 563 229 L 573 317 L 621 658 L 770 658 L 678 0 L 510 0 L 321 346 L 279 432 L 270 346 L 221 0 L 71 0 Z" unicode="Ñ" />
<glyph horiz-adv-x="776" d="M 402 716 L 308 853 L 462 853 L 539 716 L 402 716 Z M 408 -16 C 314 -16 236 11 176 67 C 115 123 85 196 85 288 C 85 398 120 490 190 564 C 260 637 350 674 458 674 C 550 674 628 646 690 591 C 752 536 783 462 783 368 C 783 257 747 165 677 93 C 606 20 516 -16 408 -16 Z M 415 131 C 474 131 522 152 560 195 C 597 237 616 292 616 359 C 616 407 601 447 571 479 C 541 511 502 527 452 527 C 392 527 344 505 307 463 C 269 421 251 366 251 300 C 251 252 265 211 295 179 C 325 147 365 131 415 131 Z" unicode="Ò" />
<glyph horiz-adv-x="776" d="M 408 -16 C 314 -16 236 11 176 67 C 115 123 85 196 85 288 C 85 398 120 490 190 564 C 260 637 350 674 458 674 C 550 674 628 646 690 591 C 752 536 783 462 783 368 C 783 257 747 165 677 93 C 606 20 516 -16 408 -16 Z M 415 131 C 474 131 522 152 560 195 C 597 237 616 292 616 359 C 616 407 601 447 571 479 C 541 511 502 527 452 527 C 392 527 344 505 307 463 C 269 421 251 366 251 300 C 251 252 265 211 295 179 C 325 147 365 131 415 131 Z M 400 716 L 516 853 L 675 853 L 542 716 L 400 716 Z" unicode="Ó" />
<glyph horiz-adv-x="776" d="M 328 716 L 429 857 L 549 857 L 611 716 L 506 716 L 478 777 L 435 716 L 328 716 Z M 408 -16 C 314 -16 236 11 176 67 C 115 123 85 196 85 288 C 85 398 120 490 190 564 C 260 637 350 674 458 674 C 550 674 628 646 690 591 C 752 536 783 462 783 368 C 783 257 747 165 677 93 C 606 20 516 -16 408 -16 Z M 415 131 C 474 131 522 152 560 195 C 597 237 616 292 616 359 C 616 407 601 447 571 479 C 541 511 502 527 452 527 C 392 527 344 505 307 463 C 269 421 251 366 251 300 C 251 252 265 211 295 179 C 325 147 365 131 415 131 Z" unicode="Ô" />
<glyph horiz-adv-x="776" d="M 400 716 L 322 716 C 328 758 339 789 357 811 C 375 832 399 843 430 843 C 442 843 454 841 464 838 C 474 834 484 829 495 822 C 501 817 507 813 512 811 C 517 808 522 807 527 807 C 533 807 539 809 545 815 C 550 821 553 829 555 839 L 633 839 C 626 797 614 765 596 744 C 578 722 555 712 525 712 C 511 712 499 713 489 717 C 479 720 469 725 460 732 C 453 737 447 741 442 743 C 437 745 432 747 428 747 C 421 747 415 744 410 739 C 404 733 401 726 400 716 Z M 408 -16 C 314 -16 236 11 176 67 C 115 123 85 196 85 288 C 85 398 120 490 190 564 C 260 637 350 674 458 674 C 550 674 628 646 690 591 C 752 536 783 462 783 368 C 783 257 747 165 677 93 C 606 20 516 -16 408 -16 Z M 415 131 C 474 131 522 152 560 195 C 597 237 616 292 616 359 C 616 407 601 447 571 479 C 541 511 502 527 452 527 C 392 527 344 505 307 463 C 269 421 251 366 251 300 C 251 252 265 211 295 179 C 325 147 365 131 415 131 Z" unicode="Õ" />
<glyph horiz-adv-x="776" d="M 408 -16 C 314 -16 236 11 176 67 C 115 123 85 196 85 288 C 85 398 120 490 190 564 C 260 637 350 674 458 674 C 550 674 628 646 690 591 C 752 536 783 462 783 368 C 783 257 747 165 677 93 C 606 20 516 -16 408 -16 Z M 415 131 C 474 131 522 152 560 195 C 597 237 616 292 616 359 C 616 407 601 447 571 479 C 541 511 502 527 452 527 C 392 527 344 505 307 463 C 269 421 251 366 251 300 C 251 252 265 211 295 179 C 325 147 365 131 415 131 Z M 326 716 L 342 831 L 458 831 L 442 716 L 326 716 Z M 497 716 L 514 831 L 630 831 L 613 716 L 497 716 Z" unicode="Ö" />
<glyph horiz-adv-x="506" d="M 160 75 L 72 175 L 199 287 L 95 406 L 199 497 L 302 378 L 436 494 L 524 394 L 390 277 L 487 164 L 382 72 L 287 186 L 160 75 Z" unicode="×" />
<glyph horiz-adv-x="776" d="M 102 -67 L 211 94 L 251 148 L 540 577 L 573 629 L 642 732 L 780 732 L 677 577 L 637 522 L 344 90 L 313 40 L 241 -67 L 102 -67 Z M 408 -16 C 314 -16 236 11 176 67 C 115 123 85 196 85 288 C 85 398 120 490 190 564 C 260 637 350 674 458 674 C 550 674 628 646 690 591 C 752 536 783 462 783 368 C 783 257 747 165 677 93 C 606 20 516 -16 408 -16 Z M 415 131 C 474 131 522 152 560 195 C 597 237 616 292 616 359 C 616 407 601 447 571 479 C 541 511 502 527 452 527 C 392 527 344 505 307 463 C 269 421 251 366 251 300 C 251 252 265 211 295 179 C 325 147 365 131 415 131 Z" unicode="Ø" />
<glyph horiz-adv-x="694" d="M 383 706 L 289 843 L 443 843 L 520 706 L 383 706 Z M 355 -12 C 266 -12 198 12 151 62 C 104 112 87 178 99 262 L 154 658 L 319 658 L 264 264 C 258 226 265 196 283 174 C 301 152 329 141 367 141 C 407 141 442 152 470 174 C 498 196 514 226 520 264 L 575 658 L 727 658 L 670 256 C 658 170 623 104 566 58 C 509 11 439 -12 355 -12 Z" unicode="Ù" />
<glyph horiz-adv-x="694" d="M 355 -12 C 266 -12 198 12 151 62 C 104 112 87 178 99 262 L 154 658 L 319 658 L 264 264 C 258 226 265 196 283 174 C 301 152 329 141 367 141 C 407 141 442 152 470 174 C 498 196 514 226 520 264 L 575 658 L 727 658 L 670 256 C 658 170 623 104 566 58 C 509 11 439 -12 355 -12 Z M 381 706 L 497 843 L 656 843 L 523 706 L 381 706 Z" unicode="Ú" />
<glyph horiz-adv-x="694" d="M 309 706 L 410 847 L 530 847 L 592 706 L 487 706 L 459 767 L 416 706 L 309 706 Z M 355 -12 C 266 -12 198 12 151 62 C 104 112 87 178 99 262 L 154 658 L 319 658 L 264 264 C 258 226 265 196 283 174 C 301 152 329 141 367 141 C 407 141 442 152 470 174 C 498 196 514 226 520 264 L 575 658 L 727 658 L 670 256 C 658 170 623 104 566 58 C 509 11 439 -12 355 -12 Z" unicode="Û" />
<glyph horiz-adv-x="694" d="M 355 -12 C 266 -12 198 12 151 62 C 104 112 87 178 99 262 L 154 658 L 319 658 L 264 264 C 258 226 265 196 283 174 C 301 152 329 141 367 141 C 407 141 442 152 470 174 C 498 196 514 226 520 264 L 575 658 L 727 658 L 670 256 C 658 170 623 104 566 58 C 509 11 439 -12 355 -12 Z M 307 706 L 323 821 L 439 821 L 423 706 L 307 706 Z M 478 706 L 495 821 L 611 821 L 594 706 L 478 706 Z" unicode="Ü" />
<glyph horiz-adv-x="668" d="M 255 0 L 290 253 L 103 658 L 284 658 L 361 479 L 391 400 L 443 479 L 569 658 L 750 658 L 451 252 L 416 0 L 255 0 Z M 359 706 L 475 843 L 634 843 L 501 706 L 359 706 Z" unicode="Ý" />
<glyph horiz-adv-x="561" d="M 71 0 L 163 658 L 325 658 L 312 562 L 352 562 C 421 562 476 543 517 505 C 557 467 578 420 578 366 C 578 293 552 231 501 180 C 449 128 380 103 292 103 L 247 103 L 233 0 L 71 0 Z M 268 247 L 302 247 C 334 247 360 255 382 273 C 403 290 414 313 414 342 C 414 364 406 383 390 397 C 374 411 353 418 327 418 L 292 418 L 268 247 Z" unicode="Þ" />
<glyph horiz-adv-x="660" d="M 54 0 L 116 436 C 130 535 164 609 218 657 C 272 705 341 729 425 729 C 496 729 553 708 596 666 C 638 624 660 565 660 489 C 660 463 657 438 653 412 C 648 386 642 363 635 345 C 617 351 598 357 580 362 C 562 366 545 369 529 369 C 507 369 492 365 482 359 C 472 353 467 344 467 334 C 467 326 469 320 475 315 C 481 309 489 305 501 303 L 524 297 C 562 287 591 270 613 246 C 634 222 645 194 645 162 C 645 108 626 66 588 35 C 550 4 497 -11 430 -11 C 403 -11 376 -9 348 -5 C 320 -1 295 4 271 11 L 288 135 C 308 125 330 118 355 113 C 379 107 404 105 429 105 C 447 105 461 107 469 113 C 477 118 482 126 482 136 C 482 144 478 151 470 157 C 462 163 450 168 436 172 L 414 178 C 378 187 350 203 332 226 C 313 248 304 276 304 309 C 304 361 320 402 354 434 C 387 466 430 482 484 482 C 490 482 498 481 506 481 C 514 480 521 479 529 478 C 535 516 528 545 508 567 C 488 588 459 599 421 599 C 377 599 343 584 319 555 C 294 525 278 484 271 431 L 211 0 L 54 0 Z" unicode="ß" />
<glyph horiz-adv-x="563" d="M 227 -11 C 180 -11 141 5 110 38 C 78 71 63 119 63 181 C 63 267 91 339 148 396 C 205 453 277 482 365 482 C 395 482 428 478 464 472 C 500 465 534 457 564 447 L 525 166 C 521 139 518 112 516 84 C 514 56 513 28 513 0 L 365 0 L 365 75 C 347 44 327 22 303 9 C 279 -4 254 -11 227 -11 Z M 283 125 C 307 125 328 137 346 162 C 364 187 376 225 384 275 L 394 343 C 385 346 376 348 366 350 C 356 352 347 353 337 353 C 306 353 279 338 255 309 C 231 279 219 245 219 205 C 219 179 224 159 235 145 C 246 131 262 125 283 125 Z M 358 518 C 312 518 277 531 255 558 C 233 585 225 622 232 668 L 324 668 C 322 652 324 639 331 630 C 338 620 349 616 364 616 C 378 616 389 620 399 630 C 409 639 415 652 417 668 L 509 668 C 502 622 485 585 458 558 C 430 531 397 518 358 518 Z" unicode="à" />
<glyph horiz-adv-x="563" d="M 227 -11 C 180 -11 141 5 110 38 C 78 71 63 119 63 181 C 63 267 91 339 148 396 C 205 453 277 482 365 482 C 395 482 428 478 464 472 C 500 465 534 457 564 447 L 525 166 C 521 139 518 112 516 84 C 514 56 513 28 513 0 L 365 0 L 365 75 C 347 44 327 22 303 9 C 279 -4 254 -11 227 -11 Z M 283 125 C 307 125 328 137 346 162 C 364 187 376 225 384 275 L 394 343 C 385 346 376 348 366 350 C 356 352 347 353 337 353 C 306 353 279 338 255 309 C 231 279 219 245 219 205 C 219 179 224 159 235 145 C 246 131 262 125 283 125 Z M 277 526 L 406 678 L 580 678 L 431 526 L 277 526 Z" unicode="á" />
<glyph horiz-adv-x="563" d="M 227 -11 C 180 -11 141 5 110 38 C 78 71 63 119 63 181 C 63 267 91 339 148 396 C 205 453 277 482 365 482 C 395 482 428 478 464 472 C 500 465 534 457 564 447 L 525 166 C 521 139 518 112 516 84 C 514 56 513 28 513 0 L 365 0 L 365 75 C 347 44 327 22 303 9 C 279 -4 254 -11 227 -11 Z M 283 125 C 307 125 328 137 346 162 C 364 187 376 225 384 275 L 394 343 C 385 346 376 348 366 350 C 356 352 347 353 337 353 C 306 353 279 338 255 309 C 231 279 219 245 219 205 C 219 179 224 159 235 145 C 246 131 262 125 283 125 Z M 192 526 L 305 683 L 448 683 L 518 526 L 395 526 L 364 593 L 315 526 L 192 526 Z" unicode="â" />
<glyph horiz-adv-x="563" d="M 227 -11 C 180 -11 141 5 110 38 C 78 71 63 119 63 181 C 63 267 91 339 148 396 C 205 453 277 482 365 482 C 395 482 428 478 464 472 C 500 465 534 457 564 447 L 525 166 C 521 139 518 112 516 84 C 514 56 513 28 513 0 L 365 0 L 365 75 C 347 44 327 22 303 9 C 279 -4 254 -11 227 -11 Z M 283 125 C 307 125 328 137 346 162 C 364 187 376 225 384 275 L 394 343 C 385 346 376 348 366 350 C 356 352 347 353 337 353 C 306 353 279 338 255 309 C 231 279 219 245 219 205 C 219 179 224 159 235 145 C 246 131 262 125 283 125 Z M 279 526 L 193 526 C 199 572 212 607 232 631 C 252 655 278 667 312 667 C 326 667 339 665 351 662 C 362 658 373 652 384 644 C 392 638 399 634 404 631 C 409 628 414 627 420 627 C 428 627 434 630 440 636 C 445 642 449 651 451 662 L 537 662 C 530 616 517 581 497 557 C 477 533 450 521 418 521 C 402 521 389 522 378 526 C 367 530 356 536 346 544 C 338 550 331 554 326 557 C 320 559 315 561 311 561 C 302 561 295 557 289 551 C 283 545 280 536 279 526 Z" unicode="ã" />
<glyph horiz-adv-x="563" d="M 227 -11 C 180 -11 141 5 110 38 C 78 71 63 119 63 181 C 63 267 91 339 148 396 C 205 453 277 482 365 482 C 395 482 428 478 464 472 C 500 465 534 457 564 447 L 525 166 C 521 139 518 112 516 84 C 514 56 513 28 513 0 L 365 0 L 365 75 C 347 44 327 22 303 9 C 279 -4 254 -11 227 -11 Z M 283 125 C 307 125 328 137 346 162 C 364 187 376 225 384 275 L 394 343 C 385 346 376 348 366 350 C 356 352 347 353 337 353 C 306 353 279 338 255 309 C 231 279 219 245 219 205 C 219 179 224 159 235 145 C 246 131 262 125 283 125 Z M 195 526 L 213 655 L 342 655 L 324 526 L 195 526 Z M 385 526 L 403 655 L 532 655 L 514 526 L 385 526 Z" unicode="ä" />
<glyph horiz-adv-x="563" d="M 227 -11 C 180 -11 141 5 110 38 C 78 71 63 119 63 181 C 63 267 91 339 148 396 C 205 453 277 482 365 482 C 395 482 428 478 464 472 C 500 465 534 457 564 447 L 525 166 C 521 139 518 112 516 84 C 514 56 513 28 513 0 L 365 0 L 365 75 C 347 44 327 22 303 9 C 279 -4 254 -11 227 -11 Z M 283 125 C 307 125 328 137 346 162 C 364 187 376 225 384 275 L 394 343 C 385 346 376 348 366 350 C 356 352 347 353 337 353 C 306 353 279 338 255 309 C 231 279 219 245 219 205 C 219 179 224 159 235 145 C 246 131 262 125 283 125 Z M 344 405 C 312 405 285 415 264 435 C 242 455 232 482 232 514 C 232 550 244 580 269 604 C 294 628 325 641 363 641 C 395 641 421 630 443 610 C 464 590 475 564 475 533 C 475 497 463 466 439 442 C 415 417 384 405 344 405 Z M 351 484 C 363 484 374 487 382 495 C 390 503 395 513 395 526 C 395 536 391 545 383 552 C 375 559 366 563 356 563 C 344 563 333 559 325 551 C 317 543 313 533 313 521 C 313 510 316 501 324 494 C 331 487 340 484 351 484 Z" unicode="å" />
<glyph horiz-adv-x="814" d="M 236 -10 C 182 -10 140 6 109 39 C 78 71 63 120 63 184 C 63 269 90 340 146 397 C 202 453 272 482 358 482 C 384 482 409 479 433 474 C 456 469 480 461 504 451 C 522 461 543 469 566 475 C 589 481 614 484 642 484 C 694 484 737 470 772 442 C 806 414 824 380 824 339 C 824 290 805 252 768 224 C 730 196 665 181 573 177 L 532 175 C 536 155 547 139 564 129 C 580 118 603 113 631 113 C 661 113 690 117 718 125 C 746 133 772 144 797 160 L 777 24 C 750 12 721 3 689 -2 C 657 -8 628 -12 603 -12 C 551 -12 509 -2 475 18 C 441 38 416 64 400 97 C 383 63 360 36 331 18 C 302 0 270 -10 236 -10 Z M 627 369 C 606 369 587 360 571 344 C 555 328 544 305 539 277 L 583 279 C 611 280 632 285 648 295 C 663 304 671 317 671 334 C 671 345 666 354 658 360 C 650 366 639 369 627 369 Z M 215 209 C 215 182 220 161 232 147 C 243 133 259 126 280 126 C 306 126 327 137 342 159 C 356 181 369 217 379 267 L 384 299 C 385 305 387 313 390 321 C 392 329 396 336 400 344 C 390 346 380 348 370 350 C 360 352 349 353 339 353 C 305 353 275 338 251 309 C 227 280 215 247 215 209 Z" unicode="æ" />
<glyph horiz-adv-x="467" d="M 290 -11 C 224 -11 170 9 129 49 C 88 89 68 141 68 203 C 68 285 93 351 145 403 C 197 455 266 481 353 481 C 376 481 399 478 422 473 C 444 468 467 461 489 451 L 470 308 C 448 320 428 330 410 336 C 392 342 371 345 347 345 C 310 345 281 333 259 309 C 237 285 226 255 226 219 C 226 190 234 167 252 151 C 269 134 292 126 322 126 C 347 126 370 129 391 137 C 412 145 433 156 454 171 L 435 28 C 412 15 389 5 365 -1 C 341 -7 316 -11 290 -11 Z M 225 -247 C 212 -247 199 -245 187 -243 C 174 -241 162 -237 151 -233 L 162 -155 C 170 -159 179 -163 188 -166 C 197 -168 206 -170 216 -170 C 226 -170 234 -167 240 -161 C 246 -155 250 -148 250 -139 C 250 -131 247 -125 242 -121 C 236 -117 229 -115 221 -115 L 213 -115 L 223 -45 L 232 -45 C 264 -45 290 -53 310 -70 C 329 -87 339 -109 339 -137 C 339 -169 328 -196 306 -216 C 284 -236 257 -247 225 -247 Z" unicode="ç" />
<glyph horiz-adv-x="510" d="M 256 526 L 150 678 L 324 678 L 410 526 L 256 526 Z M 301 -12 C 225 -12 167 8 127 48 C 87 88 67 140 67 204 C 67 283 92 349 143 403 C 194 457 260 484 341 484 C 391 484 434 470 468 442 C 502 414 519 380 519 339 C 519 291 500 253 464 225 C 427 197 362 182 270 178 L 226 176 C 230 155 241 139 259 129 C 276 118 300 113 331 113 C 359 113 386 117 414 125 C 442 133 468 144 493 160 L 473 24 C 445 12 417 3 388 -2 C 358 -8 329 -12 301 -12 Z M 323 369 C 301 369 282 360 266 344 C 250 327 239 304 234 276 L 279 278 C 307 278 328 284 344 294 C 359 304 367 317 367 334 C 367 344 363 353 355 359 C 347 365 336 369 323 369 Z" unicode="è" />
<glyph horiz-adv-x="510" d="M 255 526 L 384 678 L 558 678 L 409 526 L 255 526 Z M 301 -12 C 225 -12 167 8 127 48 C 87 88 67 140 67 204 C 67 283 92 349 143 403 C 194 457 260 484 341 484 C 391 484 434 470 468 442 C 502 414 519 380 519 339 C 519 291 500 253 464 225 C 427 197 362 182 270 178 L 226 176 C 230 155 241 139 259 129 C 276 118 300 113 331 113 C 359 113 386 117 414 125 C 442 133 468 144 493 160 L 473 24 C 445 12 417 3 388 -2 C 358 -8 329 -12 301 -12 Z M 323 369 C 301 369 282 360 266 344 C 250 327 239 304 234 276 L 279 278 C 307 278 328 284 344 294 C 359 304 367 317 367 334 C 367 344 363 353 355 359 C 347 365 336 369 323 369 Z" unicode="é" />
<glyph horiz-adv-x="510" d="M 170 526 L 283 683 L 426 683 L 496 526 L 373 526 L 342 593 L 293 526 L 170 526 Z M 301 -12 C 225 -12 167 8 127 48 C 87 88 67 140 67 204 C 67 283 92 349 143 403 C 194 457 260 484 341 484 C 391 484 434 470 468 442 C 502 414 519 380 519 339 C 519 291 500 253 464 225 C 427 197 362 182 270 178 L 226 176 C 230 155 241 139 259 129 C 276 118 300 113 331 113 C 359 113 386 117 414 125 C 442 133 468 144 493 160 L 473 24 C 445 12 417 3 388 -2 C 358 -8 329 -12 301 -12 Z M 323 369 C 301 369 282 360 266 344 C 250 327 239 304 234 276 L 279 278 C 307 278 328 284 344 294 C 359 304 367 317 367 334 C 367 344 363 353 355 359 C 347 365 336 369 323 369 Z" unicode="ê" />
<glyph horiz-adv-x="510" d="M 301 -12 C 225 -12 167 8 127 48 C 87 88 67 140 67 204 C 67 283 92 349 143 403 C 194 457 260 484 341 484 C 391 484 434 470 468 442 C 502 414 519 380 519 339 C 519 291 500 253 464 225 C 427 197 362 182 270 178 L 226 176 C 230 155 241 139 259 129 C 276 118 300 113 331 113 C 359 113 386 117 414 125 C 442 133 468 144 493 160 L 473 24 C 445 12 417 3 388 -2 C 358 -8 329 -12 301 -12 Z M 323 369 C 301 369 282 360 266 344 C 250 327 239 304 234 276 L 279 278 C 307 278 328 284 344 294 C 359 304 367 317 367 334 C 367 344 363 353 355 359 C 347 365 336 369 323 369 Z M 173 526 L 191 655 L 320 655 L 302 526 L 173 526 Z M 363 526 L 381 655 L 510 655 L 492 526 L 363 526 Z" unicode="ë" />
<glyph horiz-adv-x="269" d="M 129 524 L 23 676 L 197 676 L 283 524 L 129 524 Z M 62 0 C 62 20 63 42 65 65 C 67 87 69 110 72 133 L 119 472 L 276 472 L 228 133 C 225 112 223 90 221 66 C 219 42 218 20 219 0 L 62 0 Z" unicode="ì" />
<glyph horiz-adv-x="269" d="M 128 524 L 257 676 L 431 676 L 282 524 L 128 524 Z M 62 0 C 62 20 63 42 65 65 C 67 87 69 110 72 133 L 119 472 L 276 472 L 228 133 C 225 112 223 90 221 66 C 219 42 218 20 219 0 L 62 0 Z" unicode="í" />
<glyph horiz-adv-x="269" d="M 43 524 L 156 681 L 299 681 L 369 524 L 246 524 L 215 591 L 166 524 L 43 524 Z M 62 0 C 62 20 63 42 65 65 C 67 87 69 110 72 133 L 119 472 L 276 472 L 228 133 C 225 112 223 90 221 66 C 219 42 218 20 219 0 L 62 0 Z" unicode="î" />
<glyph horiz-adv-x="269" d="M 62 0 C 62 20 63 42 65 65 C 67 87 69 110 72 133 L 119 472 L 276 472 L 228 133 C 225 112 223 90 221 66 C 219 42 218 20 219 0 L 62 0 Z M 46 524 L 64 653 L 193 653 L 175 524 L 46 524 Z M 236 524 L 254 653 L 383 653 L 365 524 L 236 524 Z" unicode="ï" />
<glyph horiz-adv-x="582" d="M 303 -13 C 235 -13 179 6 135 46 C 91 85 69 139 69 209 C 69 289 92 354 140 406 C 187 458 246 484 317 484 C 345 484 371 480 394 472 C 416 464 435 451 450 435 C 444 454 436 473 427 492 C 418 510 407 529 395 547 L 283 513 L 263 615 L 317 631 C 305 641 292 650 279 660 C 265 670 251 679 237 688 L 391 748 C 405 738 418 728 432 716 C 445 704 457 691 469 678 L 580 712 L 600 609 L 532 588 C 550 554 565 516 575 476 C 585 435 591 393 591 349 C 591 237 564 149 512 84 C 459 19 389 -13 303 -13 Z M 312 129 C 344 129 370 141 390 165 C 409 189 419 219 419 255 C 419 280 410 301 394 318 C 378 335 357 344 332 344 C 302 344 278 332 258 308 C 238 284 228 255 228 219 C 228 193 235 171 250 154 C 265 137 286 129 312 129 Z" unicode="ð" />
<glyph horiz-adv-x="553" d="M 260 524 L 174 524 C 180 570 193 605 213 629 C 233 653 259 665 293 665 C 307 665 320 663 332 660 C 343 656 354 650 365 642 C 373 636 380 632 385 629 C 390 626 395 625 401 625 C 409 625 415 628 421 634 C 426 640 430 649 432 660 L 518 660 C 511 614 498 579 478 555 C 458 531 431 519 399 519 C 383 519 370 520 359 524 C 348 528 337 534 327 542 C 319 548 312 552 307 555 C 301 557 296 559 292 559 C 283 559 276 555 270 549 C 264 543 261 534 260 524 Z M 60 0 L 109 343 C 111 365 113 387 115 409 C 117 431 118 452 118 472 L 273 472 L 273 415 L 272 393 C 288 423 309 445 334 460 C 359 475 386 483 414 483 C 459 483 494 468 520 438 C 545 408 553 368 544 318 L 512 134 C 508 113 505 91 504 68 C 502 44 502 22 502 0 L 345 0 C 345 22 345 44 347 68 C 348 91 351 113 355 134 L 382 271 C 386 294 384 312 375 324 C 366 336 354 343 339 343 C 316 343 296 329 279 301 C 262 273 249 231 241 175 L 217 0 L 60 0 Z" unicode="ñ" />
<glyph horiz-adv-x="558" d="M 262 526 L 156 678 L 330 678 L 416 526 L 262 526 Z M 292 -13 C 225 -13 171 6 130 45 C 88 83 68 136 68 202 C 68 283 93 351 143 405 C 193 459 256 486 334 486 C 400 486 453 466 495 428 C 536 389 557 337 557 271 C 557 188 531 120 480 67 C 429 13 366 -13 292 -13 Z M 301 123 C 329 123 353 136 373 162 C 392 188 402 221 402 261 C 402 286 394 307 379 324 C 363 340 345 349 323 349 C 294 349 270 336 251 310 C 232 284 223 251 223 211 C 223 185 230 164 245 148 C 260 131 279 123 301 123 Z" unicode="ò" />
<glyph horiz-adv-x="558" d="M 261 526 L 390 678 L 564 678 L 415 526 L 261 526 Z M 292 -13 C 225 -13 171 6 130 45 C 88 83 68 136 68 202 C 68 283 93 351 143 405 C 193 459 256 486 334 486 C 400 486 453 466 495 428 C 536 389 557 337 557 271 C 557 188 531 120 480 67 C 429 13 366 -13 292 -13 Z M 301 123 C 329 123 353 136 373 162 C 392 188 402 221 402 261 C 402 286 394 307 379 324 C 363 340 345 349 323 349 C 294 349 270 336 251 310 C 232 284 223 251 223 211 C 223 185 230 164 245 148 C 260 131 279 123 301 123 Z" unicode="ó" />
<glyph horiz-adv-x="558" d="M 176 526 L 289 683 L 432 683 L 502 526 L 379 526 L 348 593 L 299 526 L 176 526 Z M 292 -13 C 225 -13 171 6 130 45 C 88 83 68 136 68 202 C 68 283 93 351 143 405 C 193 459 256 486 334 486 C 400 486 453 466 495 428 C 536 389 557 337 557 271 C 557 188 531 120 480 67 C 429 13 366 -13 292 -13 Z M 301 123 C 329 123 353 136 373 162 C 392 188 402 221 402 261 C 402 286 394 307 379 324 C 363 340 345 349 323 349 C 294 349 270 336 251 310 C 232 284 223 251 223 211 C 223 185 230 164 245 148 C 260 131 279 123 301 123 Z" unicode="ô" />
<glyph horiz-adv-x="558" d="M 263 526 L 177 526 C 183 572 196 607 216 631 C 236 655 262 667 296 667 C 310 667 323 665 335 662 C 346 658 357 652 368 644 C 376 638 383 634 388 631 C 393 628 398 627 404 627 C 412 627 418 630 424 636 C 429 642 433 651 435 662 L 521 662 C 514 616 501 581 481 557 C 461 533 434 521 402 521 C 386 521 373 522 362 526 C 351 530 340 536 330 544 C 322 550 315 554 310 557 C 304 559 299 561 295 561 C 286 561 279 557 273 551 C 267 545 264 536 263 526 Z M 292 -13 C 225 -13 171 6 130 45 C 88 83 68 136 68 202 C 68 283 93 351 143 405 C 193 459 256 486 334 486 C 400 486 453 466 495 428 C 536 389 557 337 557 271 C 557 188 531 120 480 67 C 429 13 366 -13 292 -13 Z M 301 123 C 329 123 353 136 373 162 C 392 188 402 221 402 261 C 402 286 394 307 379 324 C 363 340 345 349 323 349 C 294 349 270 336 251 310 C 232 284 223 251 223 211 C 223 185 230 164 245 148 C 260 131 279 123 301 123 Z" unicode="õ" />
<glyph horiz-adv-x="558" d="M 179 526 L 197 655 L 326 655 L 308 526 L 179 526 Z M 369 526 L 387 655 L 516 655 L 498 526 L 369 526 Z M 292 -13 C 225 -13 171 6 130 45 C 88 83 68 136 68 202 C 68 283 93 351 143 405 C 193 459 256 486 334 486 C 400 486 453 466 495 428 C 536 389 557 337 557 271 C 557 188 531 120 480 67 C 429 13 366 -13 292 -13 Z M 301 123 C 329 123 353 136 373 162 C 392 188 402 221 402 261 C 402 286 394 307 379 324 C 363 340 345 349 323 349 C 294 349 270 336 251 310 C 232 284 223 251 223 211 C 223 185 230 164 245 148 C 260 131 279 123 301 123 Z" unicode="ö" />
<glyph horiz-adv-x="517" d="M 255 419 L 273 544 L 397 544 L 380 419 L 255 419 Z M 73 228 L 91 355 L 523 355 L 505 228 L 73 228 Z M 201 39 L 219 163 L 344 163 L 326 39 L 201 39 Z" unicode="÷" />
<glyph horiz-adv-x="558" d="M 63 -71 L 163 85 L 174 128 L 344 403 L 383 440 L 446 545 L 573 545 L 478 392 L 408 364 L 235 79 L 256 36 L 190 -71 L 63 -71 Z M 292 -13 C 225 -13 171 6 130 45 C 88 83 68 136 68 202 C 68 283 93 351 143 405 C 193 459 256 486 334 486 C 400 486 453 466 495 428 C 536 389 557 337 557 271 C 557 188 531 120 480 67 C 429 13 366 -13 292 -13 Z M 301 123 C 329 123 353 136 373 162 C 392 188 402 221 402 261 C 402 286 394 307 379 324 C 363 340 345 349 323 349 C 294 349 270 336 251 310 C 232 284 223 251 223 211 C 223 185 230 164 245 148 C 260 131 279 123 301 123 Z" unicode="ø" />
<glyph horiz-adv-x="553" d="M 263 524 L 157 676 L 331 676 L 417 524 L 263 524 Z M 204 -11 C 158 -11 123 4 98 34 C 73 64 65 105 73 155 L 104 347 C 108 370 111 392 113 414 C 115 435 116 454 116 472 L 273 472 C 273 451 272 430 270 408 C 268 386 265 365 261 343 L 236 201 C 231 176 232 158 240 146 C 248 134 261 129 279 129 C 303 129 323 142 339 168 C 355 194 368 237 377 298 L 401 472 L 558 472 L 510 134 C 507 113 505 91 504 67 C 503 43 503 21 503 0 L 346 0 L 346 79 C 329 49 308 26 284 11 C 259 -3 232 -11 204 -11 Z" unicode="ù" />
<glyph horiz-adv-x="553" d="M 262 524 L 391 676 L 565 676 L 416 524 L 262 524 Z M 204 -11 C 158 -11 123 4 98 34 C 73 64 65 105 73 155 L 104 347 C 108 370 111 392 113 414 C 115 435 116 454 116 472 L 273 472 C 273 451 272 430 270 408 C 268 386 265 365 261 343 L 236 201 C 231 176 232 158 240 146 C 248 134 261 129 279 129 C 303 129 323 142 339 168 C 355 194 368 237 377 298 L 401 472 L 558 472 L 510 134 C 507 113 505 91 504 67 C 503 43 503 21 503 0 L 346 0 L 346 79 C 329 49 308 26 284 11 C 259 -3 232 -11 204 -11 Z" unicode="ú" />
<glyph horiz-adv-x="553" d="M 177 524 L 290 681 L 433 681 L 503 524 L 380 524 L 349 591 L 300 524 L 177 524 Z M 204 -11 C 158 -11 123 4 98 34 C 73 64 65 105 73 155 L 104 347 C 108 370 111 392 113 414 C 115 435 116 454 116 472 L 273 472 C 273 451 272 430 270 408 C 268 386 265 365 261 343 L 236 201 C 231 176 232 158 240 146 C 248 134 261 129 279 129 C 303 129 323 142 339 168 C 355 194 368 237 377 298 L 401 472 L 558 472 L 510 134 C 507 113 505 91 504 67 C 503 43 503 21 503 0 L 346 0 L 346 79 C 329 49 308 26 284 11 C 259 -3 232 -11 204 -11 Z" unicode="û" />
<glyph horiz-adv-x="553" d="M 204 -11 C 158 -11 123 4 98 34 C 73 64 65 105 73 155 L 104 347 C 108 370 111 392 113 414 C 115 435 116 454 116 472 L 273 472 C 273 451 272 430 270 408 C 268 386 265 365 261 343 L 236 201 C 231 176 232 158 240 146 C 248 134 261 129 279 129 C 303 129 323 142 339 168 C 355 194 368 237 377 298 L 401 472 L 558 472 L 510 134 C 507 113 505 91 504 67 C 503 43 503 21 503 0 L 346 0 L 346 79 C 329 49 308 26 284 11 C 259 -3 232 -11 204 -11 Z M 180 524 L 198 653 L 327 653 L 309 524 L 180 524 Z M 370 524 L 388 653 L 517 653 L 499 524 L 370 524 Z" unicode="ü" />
<glyph horiz-adv-x="535" d="M 185 -12 L 87 472 L 254 472 L 288 263 L 306 122 C 326 164 346 213 364 269 C 382 325 402 392 423 472 L 575 472 C 513 236 435 63 339 -47 C 243 -157 129 -213 -3 -213 L -13 -213 L 6 -74 L 17 -74 C 48 -74 78 -68 107 -57 C 136 -46 162 -31 186 -12 L 185 -12 Z M 253 524 L 382 676 L 556 676 L 407 524 L 253 524 Z" unicode="ý" />
<glyph horiz-adv-x="555" d="M 23 -210 L 153 716 L 304 716 L 269 473 C 267 459 264 446 262 432 C 259 418 256 404 253 391 C 269 422 290 445 315 460 C 340 475 367 483 396 483 C 442 483 481 466 511 433 C 541 400 557 352 557 288 C 557 204 530 134 478 76 C 425 18 359 -11 280 -11 C 268 -11 256 -10 244 -8 C 231 -6 219 -3 209 -1 L 180 -210 L 23 -210 Z M 291 115 C 324 115 351 129 372 157 C 393 185 404 220 404 260 C 404 287 398 308 387 323 C 376 338 360 346 339 346 C 320 346 301 337 281 319 C 261 301 246 260 238 196 L 228 124 C 236 121 246 119 257 117 C 268 115 279 115 291 115 Z" unicode="þ" />
<glyph horiz-adv-x="535" d="M 185 -12 L 87 472 L 254 472 L 288 263 L 306 122 C 326 164 346 213 364 269 C 382 325 402 392 423 472 L 575 472 C 513 236 435 63 339 -47 C 243 -157 129 -213 -3 -213 L -13 -213 L 6 -74 L 17 -74 C 48 -74 78 -68 107 -57 C 136 -46 162 -31 186 -12 L 185 -12 Z M 171 524 L 189 653 L 318 653 L 300 524 L 171 524 Z M 361 524 L 379 653 L 508 653 L 490 524 L 361 524 Z" unicode="ÿ" />
<glyph horiz-adv-x="701" d="M 12 0 L 366 658 L 519 658 L 689 0 L 521 0 L 491 127 L 241 127 L 176 0 L 12 0 Z M 355 348 L 307 255 L 460 255 L 438 348 L 414 468 L 355 348 Z M 329 706 L 343 804 L 577 804 L 563 706 L 329 706 Z" unicode="Ā" />
<glyph horiz-adv-x="563" d="M 227 -11 C 180 -11 141 5 110 38 C 78 71 63 119 63 181 C 63 267 91 339 148 396 C 205 453 277 482 365 482 C 395 482 428 478 464 472 C 500 465 534 457 564 447 L 525 166 C 521 139 518 112 516 84 C 514 56 513 28 513 0 L 365 0 L 365 75 C 347 44 327 22 303 9 C 279 -4 254 -11 227 -11 Z M 283 125 C 307 125 328 137 346 162 C 364 187 376 225 384 275 L 394 343 C 385 346 376 348 366 350 C 356 352 347 353 337 353 C 306 353 279 338 255 309 C 231 279 219 245 219 205 C 219 179 224 159 235 145 C 246 131 262 125 283 125 Z M 226 532 L 241 641 L 501 641 L 486 532 L 226 532 Z" unicode="ā" />
<glyph horiz-adv-x="701" d="M 12 0 L 366 658 L 519 658 L 689 0 L 521 0 L 491 127 L 241 127 L 176 0 L 12 0 Z M 355 348 L 307 255 L 460 255 L 438 348 L 414 468 L 355 348 Z M 446 700 C 405 700 374 712 354 736 C 334 760 327 793 333 835 L 415 835 C 413 820 415 808 422 800 C 429 792 439 788 453 788 C 465 788 475 792 484 800 C 492 808 497 820 499 835 L 583 835 C 577 793 561 760 537 736 C 512 712 482 700 446 700 Z" unicode="Ă" />
<glyph horiz-adv-x="701" d="M 12 0 L 366 658 L 519 658 L 689 0 L 521 0 L 491 127 L 241 127 L 176 0 L 12 0 Z M 355 348 L 307 255 L 460 255 L 438 348 L 414 468 L 355 348 Z M 657 -220 C 605 -220 563 -208 533 -186 C 502 -164 487 -133 487 -95 C 487 -56 504 -22 538 7 C 572 36 617 53 671 59 L 682 0 C 661 0 644 -5 632 -16 C 619 -27 613 -41 613 -57 C 613 -73 618 -85 629 -95 C 639 -104 654 -109 673 -109 L 657 -220 Z" unicode="Ą" />
<glyph horiz-adv-x="563" d="M 227 -11 C 180 -11 141 5 110 38 C 78 71 63 119 63 181 C 63 267 91 339 148 396 C 205 453 277 482 365 482 C 395 482 428 478 464 472 C 500 465 534 457 564 447 L 525 166 C 521 139 518 112 516 84 C 514 56 513 28 513 0 L 365 0 L 365 75 C 347 44 327 22 303 9 C 279 -4 254 -11 227 -11 Z M 283 125 C 307 125 328 137 346 162 C 364 187 376 225 384 275 L 394 343 C 385 346 376 348 366 350 C 356 352 347 353 337 353 C 306 353 279 338 255 309 C 231 279 219 245 219 205 C 219 179 224 159 235 145 C 246 131 262 125 283 125 Z M 486 -213 C 434 -213 392 -203 360 -183 C 328 -163 312 -135 312 -98 C 312 -62 327 -31 358 -3 C 389 24 433 48 489 69 L 506 1 C 486 1 470 -4 460 -14 C 449 -24 444 -36 444 -51 C 444 -63 449 -74 459 -84 C 469 -93 483 -98 502 -98 L 486 -213 Z" unicode="ą" />
<glyph horiz-adv-x="648" d="M 410 -15 C 309 -15 230 13 172 69 C 114 125 85 198 85 288 C 85 400 121 493 195 565 C 269 637 366 673 487 673 C 523 673 557 669 591 661 C 625 653 657 642 687 626 L 665 470 C 635 488 605 502 574 512 C 543 522 510 527 476 527 C 406 527 352 505 312 463 C 272 421 252 366 252 299 C 252 250 267 210 299 179 C 331 147 374 132 428 132 C 464 132 499 137 533 147 C 566 157 600 172 634 193 L 612 35 C 578 18 545 5 511 -2 C 477 -10 444 -15 410 -15 Z M 432 714 L 548 851 L 707 851 L 574 714 L 432 714 Z" unicode="Ć" />
<glyph horiz-adv-x="467" d="M 290 -11 C 224 -11 170 9 129 49 C 88 89 68 141 68 203 C 68 285 93 351 145 403 C 197 455 266 481 353 481 C 376 481 399 478 422 473 C 444 468 467 461 489 451 L 470 308 C 448 320 428 330 410 336 C 392 342 371 345 347 345 C 310 345 281 333 259 309 C 237 285 226 255 226 219 C 226 190 234 167 252 151 C 269 134 292 126 322 126 C 347 126 370 129 391 137 C 412 145 433 156 454 171 L 435 28 C 412 15 389 5 365 -1 C 341 -7 316 -11 290 -11 Z M 261 539 L 390 691 L 564 691 L 415 539 L 261 539 Z" unicode="ć" />
<glyph horiz-adv-x="648" d="M 410 -15 C 309 -15 230 13 172 69 C 114 125 85 198 85 288 C 85 400 121 493 195 565 C 269 637 366 673 487 673 C 523 673 557 669 591 661 C 625 653 657 642 687 626 L 665 470 C 635 488 605 502 574 512 C 543 522 510 527 476 527 C 406 527 352 505 312 463 C 272 421 252 366 252 299 C 252 250 267 210 299 179 C 331 147 374 132 428 132 C 464 132 499 137 533 147 C 566 157 600 172 634 193 L 612 35 C 578 18 545 5 511 -2 C 477 -10 444 -15 410 -15 Z M 360 714 L 461 855 L 581 855 L 643 714 L 538 714 L 510 775 L 467 714 L 360 714 Z" unicode="Ĉ" />
<glyph horiz-adv-x="467" d="M 176 539 L 289 696 L 432 696 L 502 539 L 379 539 L 348 606 L 299 539 L 176 539 Z M 290 -11 C 224 -11 170 9 129 49 C 88 89 68 141 68 203 C 68 285 93 351 145 403 C 197 455 266 481 353 481 C 376 481 399 478 422 473 C 444 468 467 461 489 451 L 470 308 C 448 320 428 330 410 336 C 392 342 371 345 347 345 C 310 345 281 333 259 309 C 237 285 226 255 226 219 C 226 190 234 167 252 151 C 269 134 292 126 322 126 C 347 126 370 129 391 137 C 412 145 433 156 454 171 L 435 28 C 412 15 389 5 365 -1 C 341 -7 316 -11 290 -11 Z" unicode="ĉ" />
<glyph horiz-adv-x="648" d="M 439 714 L 456 835 L 577 835 L 560 714 L 439 714 Z M 410 -15 C 309 -15 230 13 172 69 C 114 125 85 198 85 288 C 85 400 121 493 195 565 C 269 637 366 673 487 673 C 523 673 557 669 591 661 C 625 653 657 642 687 626 L 665 470 C 635 488 605 502 574 512 C 543 522 510 527 476 527 C 406 527 352 505 312 463 C 272 421 252 366 252 299 C 252 250 267 210 299 179 C 331 147 374 132 428 132 C 464 132 499 137 533 147 C 566 157 600 172 634 193 L 612 35 C 578 18 545 5 511 -2 C 477 -10 444 -15 410 -15 Z" unicode="Ċ" />
<glyph horiz-adv-x="467" d="M 290 -11 C 224 -11 170 9 129 49 C 88 89 68 141 68 203 C 68 285 93 351 145 403 C 197 455 266 481 353 481 C 376 481 399 478 422 473 C 444 468 467 461 489 451 L 470 308 C 448 320 428 330 410 336 C 392 342 371 345 347 345 C 310 345 281 333 259 309 C 237 285 226 255 226 219 C 226 190 234 167 252 151 C 269 134 292 126 322 126 C 347 126 370 129 391 137 C 412 145 433 156 454 171 L 435 28 C 412 15 389 5 365 -1 C 341 -7 316 -11 290 -11 Z M 272 539 L 291 673 L 425 673 L 406 539 L 272 539 Z" unicode="ċ" />
<glyph horiz-adv-x="648" d="M 410 -15 C 309 -15 230 13 172 69 C 114 125 85 198 85 288 C 85 400 121 493 195 565 C 269 637 366 673 487 673 C 523 673 557 669 591 661 C 625 653 657 642 687 626 L 665 470 C 635 488 605 502 574 512 C 543 522 510 527 476 527 C 406 527 352 505 312 463 C 272 421 252 366 252 299 C 252 250 267 210 299 179 C 331 147 374 132 428 132 C 464 132 499 137 533 147 C 566 157 600 172 634 193 L 612 35 C 578 18 545 5 511 -2 C 477 -10 444 -15 410 -15 Z M 437 714 L 375 855 L 486 855 L 513 795 L 557 855 L 668 855 L 566 714 L 437 714 Z" unicode="Č" />
<glyph horiz-adv-x="467" d="M 268 539 L 198 696 L 321 696 L 351 629 L 401 696 L 524 696 L 410 539 L 268 539 Z M 290 -11 C 224 -11 170 9 129 49 C 88 89 68 141 68 203 C 68 285 93 351 145 403 C 197 455 266 481 353 481 C 376 481 399 478 422 473 C 444 468 467 461 489 451 L 470 308 C 448 320 428 330 410 336 C 392 342 371 345 347 345 C 310 345 281 333 259 309 C 237 285 226 255 226 219 C 226 190 234 167 252 151 C 269 134 292 126 322 126 C 347 126 370 129 391 137 C 412 145 433 156 454 171 L 435 28 C 412 15 389 5 365 -1 C 341 -7 316 -11 290 -11 Z" unicode="č" />
<glyph horiz-adv-x="710" d="M 71 0 L 163 658 L 398 658 C 497 658 575 631 632 577 C 689 523 718 454 718 369 C 718 260 680 171 606 103 C 531 34 430 0 304 0 L 71 0 Z M 253 148 L 324 148 C 394 148 449 167 489 207 C 529 246 550 297 550 359 C 550 403 535 439 505 467 C 475 495 433 510 381 510 L 304 510 L 253 148 Z M 328 707 L 266 848 L 377 848 L 404 788 L 448 848 L 559 848 L 457 707 L 328 707 Z" unicode="Ď" />
<glyph horiz-adv-x="711" d="M 715 501 L 615 537 C 630 559 641 580 649 600 C 656 620 662 643 666 670 L 672 716 L 795 716 L 788 670 C 783 631 775 599 765 575 C 754 550 737 525 715 501 Z M 228 -11 C 181 -11 142 5 111 37 C 79 69 64 117 64 179 C 64 266 91 338 146 396 C 201 453 270 482 352 482 C 360 482 370 481 380 480 C 390 479 401 478 411 476 L 445 716 L 603 716 L 526 166 C 522 139 519 112 517 84 C 515 56 514 28 514 0 L 366 0 L 366 75 C 348 44 328 22 304 9 C 280 -4 255 -11 228 -11 Z M 284 125 C 308 125 329 137 347 162 C 365 187 377 225 385 275 L 395 343 C 386 346 377 348 367 350 C 357 352 348 353 338 353 C 307 353 280 338 256 309 C 232 280 220 245 220 205 C 220 179 225 159 236 145 C 247 131 263 125 284 125 Z" unicode="ď" />
<glyph horiz-adv-x="741" d="M 79 262 L 98 392 L 389 392 L 370 262 L 79 262 Z M 102 0 L 194 658 L 429 658 C 528 658 606 631 663 577 C 720 523 749 454 749 369 C 749 260 711 171 637 103 C 562 34 461 0 335 0 L 102 0 Z M 284 148 L 355 148 C 425 148 480 167 520 207 C 560 246 581 297 581 359 C 581 403 566 439 536 467 C 506 495 464 510 412 510 L 335 510 L 284 148 Z" unicode="Đ" />
<glyph horiz-adv-x="558" d="M 363 513 L 381 629 L 648 665 L 630 549 L 363 513 Z M 228 -11 C 181 -11 142 5 111 37 C 79 69 64 117 64 179 C 64 266 91 338 146 396 C 201 453 270 482 352 482 C 360 482 370 481 380 480 C 390 479 401 478 411 476 L 445 716 L 603 716 L 526 166 C 522 139 519 112 517 84 C 515 56 514 28 514 0 L 366 0 L 366 75 C 348 44 328 22 304 9 C 280 -4 255 -11 228 -11 Z M 284 125 C 308 125 329 137 347 162 C 365 187 377 225 385 275 L 395 343 C 386 346 377 348 367 350 C 357 352 348 353 338 353 C 307 353 280 338 256 309 C 232 280 220 245 220 205 C 220 179 225 159 236 145 C 247 131 263 125 284 125 Z" unicode="đ" />
<glyph horiz-adv-x="541" d="M 71 0 L 164 658 L 569 658 L 548 511 L 305 511 L 289 401 L 523 401 L 504 264 L 270 264 L 254 147 L 507 147 L 486 0 L 71 0 Z M 260 706 L 274 804 L 508 804 L 494 706 L 260 706 Z" unicode="Ē" />
<glyph horiz-adv-x="510" d="M 301 -12 C 225 -12 167 8 127 48 C 87 88 67 140 67 204 C 67 283 92 349 143 403 C 194 457 260 484 341 484 C 391 484 434 470 468 442 C 502 414 519 380 519 339 C 519 291 500 253 464 225 C 427 197 362 182 270 178 L 226 176 C 230 155 241 139 259 129 C 276 118 300 113 331 113 C 359 113 386 117 414 125 C 442 133 468 144 493 160 L 473 24 C 445 12 417 3 388 -2 C 358 -8 329 -12 301 -12 Z M 323 369 C 301 369 282 360 266 344 C 250 327 239 304 234 276 L 279 278 C 307 278 328 284 344 294 C 359 304 367 317 367 334 C 367 344 363 353 355 359 C 347 365 336 369 323 369 Z M 204 532 L 219 641 L 479 641 L 464 532 L 204 532 Z" unicode="ē" />
<glyph horiz-adv-x="541" d="M 377 700 C 336 700 305 712 285 736 C 265 760 258 793 264 835 L 346 835 C 344 820 346 808 353 800 C 360 792 370 788 384 788 C 396 788 406 792 415 800 C 423 808 428 820 430 835 L 514 835 C 508 793 492 760 468 736 C 443 712 413 700 377 700 Z M 71 0 L 164 658 L 569 658 L 548 511 L 305 511 L 289 401 L 523 401 L 504 264 L 270 264 L 254 147 L 507 147 L 486 0 L 71 0 Z" unicode="Ĕ" />
<glyph horiz-adv-x="510" d="M 301 -12 C 225 -12 167 8 127 48 C 87 88 67 140 67 204 C 67 283 92 349 143 403 C 194 457 260 484 341 484 C 391 484 434 470 468 442 C 502 414 519 380 519 339 C 519 291 500 253 464 225 C 427 197 362 182 270 178 L 226 176 C 230 155 241 139 259 129 C 276 118 300 113 331 113 C 359 113 386 117 414 125 C 442 133 468 144 493 160 L 473 24 C 445 12 417 3 388 -2 C 358 -8 329 -12 301 -12 Z M 323 369 C 301 369 282 360 266 344 C 250 327 239 304 234 276 L 279 278 C 307 278 328 284 344 294 C 359 304 367 317 367 334 C 367 344 363 353 355 359 C 347 365 336 369 323 369 Z M 336 518 C 290 518 255 531 233 558 C 211 585 203 622 210 668 L 302 668 C 300 652 302 639 309 630 C 316 620 327 616 342 616 C 356 616 367 620 377 630 C 387 639 393 652 395 668 L 487 668 C 480 622 463 585 436 558 C 408 531 375 518 336 518 Z" unicode="ĕ" />
<glyph horiz-adv-x="541" d="M 316 706 L 333 827 L 454 827 L 437 706 L 316 706 Z M 71 0 L 164 658 L 569 658 L 548 511 L 305 511 L 289 401 L 523 401 L 504 264 L 270 264 L 254 147 L 507 147 L 486 0 L 71 0 Z" unicode="Ė" />
<glyph horiz-adv-x="510" d="M 266 526 L 285 660 L 419 660 L 400 526 L 266 526 Z M 301 -12 C 225 -12 167 8 127 48 C 87 88 67 140 67 204 C 67 283 92 349 143 403 C 194 457 260 484 341 484 C 391 484 434 470 468 442 C 502 414 519 380 519 339 C 519 291 500 253 464 225 C 427 197 362 182 270 178 L 226 176 C 230 155 241 139 259 129 C 276 118 300 113 331 113 C 359 113 386 117 414 125 C 442 133 468 144 493 160 L 473 24 C 445 12 417 3 388 -2 C 358 -8 329 -12 301 -12 Z M 323 369 C 301 369 282 360 266 344 C 250 327 239 304 234 276 L 279 278 C 307 278 328 284 344 294 C 359 304 367 317 367 334 C 367 344 363 353 355 359 C 347 365 336 369 323 369 Z" unicode="ė" />
<glyph horiz-adv-x="541" d="M 459 -220 C 407 -220 365 -208 335 -186 C 304 -164 289 -133 289 -95 C 289 -56 306 -22 340 7 C 374 36 419 53 473 59 L 484 0 C 463 0 446 -5 434 -16 C 421 -27 415 -41 415 -57 C 415 -73 420 -85 431 -95 C 441 -104 456 -109 475 -109 L 459 -220 Z M 71 0 L 164 658 L 569 658 L 548 511 L 305 511 L 289 401 L 523 401 L 504 264 L 270 264 L 254 147 L 507 147 L 486 0 L 71 0 Z" unicode="Ę" />
<glyph horiz-adv-x="510" d="M 431 -213 C 376 -213 333 -201 301 -179 C 269 -156 253 -125 253 -86 C 253 -48 268 -16 298 12 C 328 40 368 59 417 69 L 433 9 C 418 4 406 -3 397 -14 C 387 -25 383 -38 383 -52 C 383 -68 388 -81 399 -91 C 410 -101 426 -106 446 -106 L 431 -213 Z M 301 -12 C 225 -12 167 8 127 48 C 87 88 67 140 67 204 C 67 283 92 349 143 403 C 194 457 260 484 341 484 C 391 484 434 470 468 442 C 502 414 519 380 519 339 C 519 291 500 253 464 225 C 427 197 362 182 270 178 L 226 176 C 230 155 241 139 259 129 C 276 118 300 113 331 113 C 359 113 386 117 414 125 C 442 133 468 144 493 160 L 473 24 C 445 12 417 3 388 -2 C 358 -8 329 -12 301 -12 Z M 323 369 C 301 369 282 360 266 344 C 250 327 239 304 234 276 L 279 278 C 307 278 328 284 344 294 C 359 304 367 317 367 334 C 367 344 363 353 355 359 C 347 365 336 369 323 369 Z" unicode="ę" />
<glyph horiz-adv-x="541" d="M 71 0 L 164 658 L 569 658 L 548 511 L 305 511 L 289 401 L 523 401 L 504 264 L 270 264 L 254 147 L 507 147 L 486 0 L 71 0 Z M 311 706 L 249 847 L 360 847 L 387 787 L 431 847 L 542 847 L 440 706 L 311 706 Z" unicode="Ě" />
<glyph horiz-adv-x="510" d="M 262 526 L 192 683 L 315 683 L 345 616 L 395 683 L 518 683 L 404 526 L 262 526 Z M 301 -12 C 225 -12 167 8 127 48 C 87 88 67 140 67 204 C 67 283 92 349 143 403 C 194 457 260 484 341 484 C 391 484 434 470 468 442 C 502 414 519 380 519 339 C 519 291 500 253 464 225 C 427 197 362 182 270 178 L 226 176 C 230 155 241 139 259 129 C 276 118 300 113 331 113 C 359 113 386 117 414 125 C 442 133 468 144 493 160 L 473 24 C 445 12 417 3 388 -2 C 358 -8 329 -12 301 -12 Z M 323 369 C 301 369 282 360 266 344 C 250 327 239 304 234 276 L 279 278 C 307 278 328 284 344 294 C 359 304 367 317 367 334 C 367 344 363 353 355 359 C 347 365 336 369 323 369 Z" unicode="ě" />
<glyph horiz-adv-x="704" d="M 345 714 L 446 855 L 566 855 L 628 714 L 523 714 L 495 775 L 452 714 L 345 714 Z M 413 -15 C 310 -15 229 12 171 68 C 113 123 84 194 84 282 C 84 396 121 489 195 563 C 269 636 367 673 488 673 C 526 673 565 669 603 662 C 641 654 675 644 705 632 L 684 479 C 655 493 623 505 587 514 C 551 522 515 527 481 527 C 411 527 355 505 314 461 C 272 417 252 361 252 295 C 252 247 267 208 297 177 C 327 146 368 131 418 131 C 436 131 453 132 468 134 C 482 136 496 139 509 144 L 522 241 L 403 241 L 423 378 L 706 378 L 659 42 C 617 23 576 9 535 0 C 494 -10 453 -15 413 -15 Z" unicode="Ĝ" />
<glyph horiz-adv-x="554" d="M 187 528 L 300 685 L 443 685 L 513 528 L 390 528 L 359 595 L 310 528 L 187 528 Z M 225 -220 C 198 -220 169 -217 137 -212 C 105 -206 74 -199 46 -190 L 66 -48 C 86 -60 110 -71 138 -79 C 166 -87 191 -91 214 -91 C 252 -91 283 -83 305 -67 C 327 -51 341 -28 346 4 L 353 60 C 336 33 317 14 296 3 C 274 -7 251 -13 227 -13 C 180 -13 141 3 110 36 C 79 68 64 116 64 180 C 64 265 92 337 149 395 C 205 453 277 482 365 482 C 395 482 428 478 465 472 C 501 465 535 457 565 447 L 503 14 C 491 -67 462 -126 416 -164 C 370 -201 306 -220 225 -220 Z M 283 124 C 307 124 328 136 346 161 C 364 186 376 224 384 274 L 394 342 C 385 345 376 347 366 349 C 356 351 347 352 337 352 C 306 352 279 337 255 308 C 231 278 219 243 219 203 C 219 177 224 157 235 144 C 246 130 262 124 283 124 Z" unicode="ĝ" />
<glyph horiz-adv-x="704" d="M 488 708 C 447 708 416 720 396 744 C 376 768 369 801 375 843 L 457 843 C 455 828 457 816 464 808 C 471 800 481 796 495 796 C 507 796 517 800 526 808 C 534 816 539 828 541 843 L 625 843 C 619 801 603 768 579 744 C 554 720 524 708 488 708 Z M 413 -15 C 310 -15 229 12 171 68 C 113 123 84 194 84 282 C 84 396 121 489 195 563 C 269 636 367 673 488 673 C 526 673 565 669 603 662 C 641 654 675 644 705 632 L 684 479 C 655 493 623 505 587 514 C 551 522 515 527 481 527 C 411 527 355 505 314 461 C 272 417 252 361 252 295 C 252 247 267 208 297 177 C 327 146 368 131 418 131 C 436 131 453 132 468 134 C 482 136 496 139 509 144 L 522 241 L 403 241 L 423 378 L 706 378 L 659 42 C 617 23 576 9 535 0 C 494 -10 453 -15 413 -15 Z" unicode="Ğ" />
<glyph horiz-adv-x="554" d="M 353 520 C 307 520 272 533 250 560 C 228 587 220 624 227 670 L 319 670 C 317 654 319 641 326 632 C 333 622 344 618 359 618 C 373 618 384 622 394 632 C 404 641 410 654 412 670 L 504 670 C 497 624 480 587 453 560 C 425 533 392 520 353 520 Z M 225 -220 C 198 -220 169 -217 137 -212 C 105 -206 74 -199 46 -190 L 66 -48 C 86 -60 110 -71 138 -79 C 166 -87 191 -91 214 -91 C 252 -91 283 -83 305 -67 C 327 -51 341 -28 346 4 L 353 60 C 336 33 317 14 296 3 C 274 -7 251 -13 227 -13 C 180 -13 141 3 110 36 C 79 68 64 116 64 180 C 64 265 92 337 149 395 C 205 453 277 482 365 482 C 395 482 428 478 465 472 C 501 465 535 457 565 447 L 503 14 C 491 -67 462 -126 416 -164 C 370 -201 306 -220 225 -220 Z M 283 124 C 307 124 328 136 346 161 C 364 186 376 224 384 274 L 394 342 C 385 345 376 347 366 349 C 356 351 347 352 337 352 C 306 352 279 337 255 308 C 231 278 219 243 219 203 C 219 177 224 157 235 144 C 246 130 262 124 283 124 Z" unicode="ğ" />
<glyph horiz-adv-x="704" d="M 425 714 L 442 835 L 563 835 L 546 714 L 425 714 Z M 413 -15 C 310 -15 229 12 171 68 C 113 123 84 194 84 282 C 84 396 121 489 195 563 C 269 636 367 673 488 673 C 526 673 565 669 603 662 C 641 654 675 644 705 632 L 684 479 C 655 493 623 505 587 514 C 551 522 515 527 481 527 C 411 527 355 505 314 461 C 272 417 252 361 252 295 C 252 247 267 208 297 177 C 327 146 368 131 418 131 C 436 131 453 132 468 134 C 482 136 496 139 509 144 L 522 241 L 403 241 L 423 378 L 706 378 L 659 42 C 617 23 576 9 535 0 C 494 -10 453 -15 413 -15 Z" unicode="Ġ" />
<glyph horiz-adv-x="554" d="M 283 528 L 302 662 L 436 662 L 417 528 L 283 528 Z M 225 -220 C 198 -220 169 -217 137 -212 C 105 -206 74 -199 46 -190 L 66 -48 C 86 -60 110 -71 138 -79 C 166 -87 191 -91 214 -91 C 252 -91 283 -83 305 -67 C 327 -51 341 -28 346 4 L 353 60 C 336 33 317 14 296 3 C 274 -7 251 -13 227 -13 C 180 -13 141 3 110 36 C 79 68 64 116 64 180 C 64 265 92 337 149 395 C 205 453 277 482 365 482 C 395 482 428 478 465 472 C 501 465 535 457 565 447 L 503 14 C 491 -67 462 -126 416 -164 C 370 -201 306 -220 225 -220 Z M 283 124 C 307 124 328 136 346 161 C 364 186 376 224 384 274 L 394 342 C 385 345 376 347 366 349 C 356 351 347 352 337 352 C 306 352 279 337 255 308 C 231 278 219 243 219 203 C 219 177 224 157 235 144 C 246 130 262 124 283 124 Z" unicode="ġ" />
<glyph horiz-adv-x="704" d="M 393 -256 L 300 -222 C 314 -201 325 -181 332 -163 C 338 -145 343 -124 347 -100 L 353 -56 L 468 -56 L 461 -100 C 456 -135 449 -164 439 -187 C 429 -209 413 -232 393 -256 Z M 413 -15 C 310 -15 229 12 171 68 C 113 123 84 194 84 282 C 84 396 121 489 195 563 C 269 636 367 673 488 673 C 526 673 565 669 603 662 C 641 654 675 644 705 632 L 684 479 C 655 493 623 505 587 514 C 551 522 515 527 481 527 C 411 527 355 505 314 461 C 272 417 252 361 252 295 C 252 247 267 208 297 177 C 327 146 368 131 418 131 C 436 131 453 132 468 134 C 482 136 496 139 509 144 L 522 241 L 403 241 L 423 378 L 706 378 L 659 42 C 617 23 576 9 535 0 C 494 -10 453 -15 413 -15 Z" unicode="Ģ" />
<glyph horiz-adv-x="554" d="M 225 -220 C 198 -220 169 -217 137 -212 C 105 -206 74 -199 46 -190 L 66 -48 C 86 -60 110 -71 138 -79 C 166 -87 191 -91 214 -91 C 252 -91 283 -83 305 -67 C 327 -51 341 -28 346 4 L 353 60 C 336 33 317 14 296 3 C 274 -7 251 -13 227 -13 C 180 -13 141 3 110 36 C 79 68 64 116 64 180 C 64 265 92 337 149 395 C 205 453 277 482 365 482 C 395 482 428 478 465 472 C 501 465 535 457 565 447 L 503 14 C 491 -67 462 -126 416 -164 C 370 -201 306 -220 225 -220 Z M 283 124 C 307 124 328 136 346 161 C 364 186 376 224 384 274 L 394 342 C 385 345 376 347 366 349 C 356 351 347 352 337 352 C 306 352 279 337 255 308 C 231 278 219 243 219 203 C 219 177 224 157 235 144 C 246 130 262 124 283 124 Z M 369 751 L 472 713 C 456 689 444 667 437 647 C 429 627 424 603 420 577 L 413 529 L 286 529 L 293 577 C 298 617 306 649 318 674 C 329 699 346 725 369 751 Z" unicode="ģ" />
<glyph horiz-adv-x="721" d="M 71 0 L 163 658 L 325 658 L 290 405 L 545 405 L 580 658 L 741 658 L 649 0 L 488 0 L 524 258 L 270 258 L 233 0 L 71 0 Z M 317 706 L 418 847 L 538 847 L 600 706 L 495 706 L 467 767 L 424 706 L 317 706 Z" unicode="Ĥ" />
<glyph horiz-adv-x="546" d="M 53 0 L 154 716 L 310 716 L 275 471 C 273 459 271 446 269 432 C 267 418 264 404 262 392 C 278 422 299 444 325 460 C 351 475 378 483 407 483 C 451 483 486 468 512 438 C 537 408 545 368 537 318 L 504 134 C 500 113 497 91 496 68 C 494 44 494 22 494 0 L 338 0 C 338 22 338 44 340 68 C 341 91 344 113 348 134 L 375 271 C 379 294 377 312 368 324 C 359 336 347 343 331 343 C 312 343 294 332 276 310 C 258 288 244 243 234 175 L 209 0 L 53 0 Z M 75 748 L 188 905 L 331 905 L 401 748 L 278 748 L 247 815 L 198 748 L 75 748 Z" unicode="ĥ" />
<glyph horiz-adv-x="704" d="M 63 0 L 128 463 L 77 463 L 94 586 L 145 586 L 155 658 L 317 658 L 307 586 L 561 586 L 571 658 L 733 658 L 723 586 L 775 586 L 757 463 L 706 463 L 641 0 L 479 0 L 514 248 L 259 248 L 225 0 L 63 0 Z M 279 397 L 534 397 L 543 463 L 289 463 L 279 397 Z" unicode="Ħ" />
<glyph horiz-adv-x="546" d="M 84 525 L 100 642 L 357 642 L 341 525 L 84 525 Z M 53 0 L 154 716 L 310 716 L 275 471 C 273 459 271 446 269 432 C 267 418 264 404 262 392 C 278 422 299 444 325 460 C 351 475 378 483 407 483 C 451 483 486 468 512 438 C 537 408 545 368 537 318 L 504 134 C 500 113 497 91 496 68 C 494 44 494 22 494 0 L 338 0 C 338 22 338 44 340 68 C 341 91 344 113 348 134 L 375 271 C 379 294 377 312 368 324 C 359 336 347 343 331 343 C 312 343 294 332 276 310 C 258 288 244 243 234 175 L 209 0 L 53 0 Z" unicode="ħ" />
<glyph horiz-adv-x="304" d="M 71 0 L 163 658 L 325 658 L 233 0 L 71 0 Z M 185 706 L 107 706 C 113 748 124 779 142 801 C 160 822 184 833 215 833 C 227 833 239 831 249 828 C 259 824 269 819 280 812 C 286 807 292 803 297 801 C 302 798 307 797 312 797 C 318 797 324 799 330 805 C 335 811 338 819 340 829 L 418 829 C 411 787 399 755 381 734 C 363 712 340 702 310 702 C 296 702 284 703 274 707 C 264 710 254 715 245 722 C 238 727 232 731 227 733 C 222 735 217 737 213 737 C 206 737 200 734 195 729 C 189 723 186 716 185 706 Z" unicode="Ĩ" />
<glyph horiz-adv-x="269" d="M 62 0 C 62 20 63 42 65 65 C 67 87 69 110 72 133 L 119 472 L 276 472 L 228 133 C 225 112 223 90 221 66 C 219 42 218 20 219 0 L 62 0 Z M 130 524 L 44 524 C 50 570 63 605 83 629 C 103 653 129 665 163 665 C 177 665 190 663 202 660 C 213 656 224 650 235 642 C 243 636 250 632 255 629 C 260 626 265 625 271 625 C 279 625 285 628 291 634 C 296 640 300 649 302 660 L 388 660 C 381 614 368 579 348 555 C 328 531 301 519 269 519 C 253 519 240 520 229 524 C 218 528 207 534 197 542 C 189 548 182 552 177 555 C 171 557 166 559 162 559 C 153 559 146 555 140 549 C 134 543 131 534 130 524 Z" unicode="ĩ" />
<glyph horiz-adv-x="304" d="M 71 0 L 163 658 L 325 658 L 233 0 L 71 0 Z M 139 706 L 153 804 L 387 804 L 373 706 L 139 706 Z" unicode="Ī" />
<glyph horiz-adv-x="269" d="M 62 0 C 62 20 63 42 65 65 C 67 87 69 110 72 133 L 119 472 L 276 472 L 228 133 C 225 112 223 90 221 66 C 219 42 218 20 219 0 L 62 0 Z M 77 530 L 92 639 L 352 639 L 337 530 L 77 530 Z" unicode="ī" />
<glyph horiz-adv-x="304" d="M 71 0 L 163 658 L 325 658 L 233 0 L 71 0 Z M 256 700 C 215 700 184 712 164 736 C 144 760 137 793 143 835 L 225 835 C 223 820 225 808 232 800 C 239 792 249 788 263 788 C 275 788 285 792 294 800 C 302 808 307 820 309 835 L 393 835 C 387 793 371 760 347 736 C 322 712 292 700 256 700 Z" unicode="Ĭ" />
<glyph horiz-adv-x="269" d="M 62 0 C 62 20 63 42 65 65 C 67 87 69 110 72 133 L 119 472 L 276 472 L 228 133 C 225 112 223 90 221 66 C 219 42 218 20 219 0 L 62 0 Z M 209 516 C 163 516 128 529 106 556 C 84 583 76 620 83 666 L 175 666 C 173 650 175 637 182 628 C 189 618 200 614 215 614 C 229 614 240 618 250 628 C 260 637 266 650 268 666 L 360 666 C 353 620 336 583 309 556 C 281 529 248 516 209 516 Z" unicode="ĭ" />
<glyph horiz-adv-x="304" d="M 71 0 L 163 658 L 325 658 L 233 0 L 71 0 Z M 204 -213 C 152 -213 110 -203 78 -183 C 46 -163 30 -135 30 -98 C 30 -62 45 -31 76 -3 C 107 24 151 48 207 69 L 224 1 C 204 1 188 -4 178 -14 C 167 -24 162 -36 162 -51 C 162 -63 167 -74 177 -84 C 187 -93 201 -98 220 -98 L 204 -213 Z" unicode="Į" />
<glyph horiz-adv-x="269" d="M 130 553 L 151 698 L 307 698 L 287 553 L 130 553 Z M 62 0 C 62 20 63 42 65 65 C 67 87 69 110 72 133 L 119 472 L 276 472 L 228 133 C 225 112 223 90 221 66 C 219 42 218 20 219 0 L 62 0 Z M 193 -213 C 141 -213 99 -203 67 -183 C 35 -163 19 -135 19 -98 C 19 -62 34 -31 65 -3 C 96 24 140 48 196 69 L 213 1 C 193 1 177 -4 167 -14 C 156 -24 151 -36 151 -51 C 151 -63 156 -74 166 -84 C 176 -93 190 -98 209 -98 L 193 -213 Z" unicode="į" />
<glyph horiz-adv-x="304" d="M 71 0 L 163 658 L 325 658 L 233 0 L 71 0 Z M 193 706 L 210 827 L 331 827 L 314 706 L 193 706 Z" unicode="İ" />
<glyph horiz-adv-x="269" d="M 62 0 C 62 20 63 42 65 65 C 67 87 69 110 72 133 L 119 472 L 276 472 L 228 133 C 225 112 223 90 221 66 C 219 42 218 20 219 0 L 62 0 Z" unicode="ı" />
<glyph horiz-adv-x="308" d="M 71 0 L 163 658 L 325 658 L 233 0 L 71 0 Z M -33 -213 L -46 -213 L -26 -70 L -18 -70 C 8 -70 29 -64 46 -53 C 62 -41 73 -19 78 15 L 169 658 L 331 658 L 241 16 C 229 -65 199 -123 150 -159 C 100 -195 39 -213 -33 -213 Z" unicode="Ĳ" />
<glyph horiz-adv-x="252" d="M 130 553 L 151 698 L 307 698 L 287 553 L 130 553 Z M 62 0 C 62 20 63 42 65 65 C 67 87 69 110 72 133 L 119 472 L 276 472 L 228 133 C 225 112 223 90 221 66 C 219 42 218 20 219 0 L 62 0 Z M 124 553 L 144 698 L 301 698 L 280 553 L 124 553 Z M -64 -213 L -72 -213 L -53 -77 L -45 -77 C -19 -77 2 -69 18 -55 C 34 -40 44 -19 48 9 L 113 472 L 269 472 L 204 9 C 194 -60 166 -114 120 -154 C 74 -193 12 -213 -64 -213 Z" unicode="ĳ" />
<glyph horiz-adv-x="308" d="M 118 706 L 219 847 L 339 847 L 401 706 L 296 706 L 268 767 L 225 706 L 118 706 Z M -33 -213 L -46 -213 L -26 -70 L -18 -70 C 8 -70 29 -64 46 -53 C 62 -41 73 -19 78 15 L 169 658 L 331 658 L 241 16 C 229 -65 199 -123 150 -159 C 100 -195 39 -213 -33 -213 Z" unicode="Ĵ" />
<glyph horiz-adv-x="254" d="M -64 -213 L -72 -213 L -53 -77 L -45 -77 C -19 -77 2 -69 18 -55 C 34 -40 44 -19 48 9 L 113 472 L 269 472 L 204 9 C 194 -60 166 -114 120 -154 C 74 -193 12 -213 -64 -213 Z M 37 524 L 150 681 L 293 681 L 363 524 L 240 524 L 209 591 L 160 524 L 37 524 Z" unicode="ĵ" />
<glyph horiz-adv-x="684" d="M 333 -248 L 240 -214 C 254 -193 265 -173 272 -155 C 278 -137 283 -116 287 -92 L 293 -48 L 408 -48 L 401 -92 C 396 -127 389 -156 379 -179 C 369 -201 353 -224 333 -248 Z M 71 0 L 164 658 L 326 658 L 284 365 L 558 658 L 751 658 L 446 334 L 665 0 L 472 0 L 277 308 L 233 0 L 71 0 Z" unicode="Ķ" />
<glyph horiz-adv-x="538" d="M 53 0 L 154 716 L 310 716 L 247 273 C 285 303 320 336 351 371 C 382 405 406 439 424 472 L 592 472 C 564 424 533 380 500 341 C 467 301 434 269 401 244 L 530 0 L 353 0 L 240 223 L 209 0 L 53 0 Z M 242 -278 L 139 -240 C 155 -216 166 -194 174 -174 C 181 -154 187 -130 191 -104 L 198 -56 L 325 -56 L 318 -104 C 312 -144 304 -176 293 -201 C 281 -226 264 -252 242 -278 Z" unicode="ķ" />
<glyph horiz-adv-x="500" d="M 71 0 L 163 658 L 325 658 L 254 148 L 501 148 L 480 0 L 71 0 Z M 186 706 L 302 843 L 461 843 L 328 706 L 186 706 Z" unicode="Ĺ" />
<glyph horiz-adv-x="258" d="M 155 768 L 284 920 L 458 920 L 309 768 L 155 768 Z M 67 0 C 65 22 65 44 67 68 C 68 91 70 113 73 134 L 155 716 L 311 716 L 229 134 C 226 113 224 91 223 68 C 221 45 222 22 224 0 L 67 0 Z" unicode="ĺ" />
<glyph horiz-adv-x="500" d="M 269 -248 L 176 -214 C 190 -193 201 -173 208 -155 C 214 -137 219 -116 223 -92 L 229 -48 L 344 -48 L 337 -92 C 332 -127 325 -156 315 -179 C 305 -201 289 -224 269 -248 Z M 71 0 L 163 658 L 325 658 L 254 148 L 501 148 L 480 0 L 71 0 Z" unicode="Ļ" />
<glyph horiz-adv-x="263" d="M 114 -267 L 11 -229 C 27 -205 38 -183 46 -163 C 53 -143 59 -119 63 -93 L 70 -45 L 197 -45 L 190 -93 C 184 -133 176 -165 165 -190 C 153 -215 136 -241 114 -267 Z M 66 0 C 64 22 64 44 66 68 C 67 91 69 113 72 134 L 154 716 L 310 716 L 228 134 C 225 113 223 91 222 68 C 220 45 221 22 223 0 L 66 0 Z" unicode="ļ" />
<glyph horiz-adv-x="500" d="M 463 458 L 371 492 C 385 512 396 532 403 550 C 409 568 414 590 418 615 L 424 658 L 538 658 L 532 615 C 527 579 519 549 509 526 C 499 503 483 480 463 458 Z M 71 0 L 163 658 L 325 658 L 254 148 L 501 148 L 480 0 L 71 0 Z" unicode="Ľ" />
<glyph horiz-adv-x="424" d="M 430 510 L 330 546 C 345 568 356 589 364 609 C 371 629 377 652 381 679 L 387 725 L 510 725 L 503 679 C 498 640 490 608 480 584 C 469 559 452 534 430 510 Z M 67 0 C 65 22 65 44 67 68 C 68 91 70 113 73 134 L 155 716 L 311 716 L 229 134 C 226 113 224 91 223 68 C 221 45 222 22 224 0 L 67 0 Z" unicode="ľ" />
<glyph horiz-adv-x="508" d="M 380 304 L 399 438 L 533 438 L 514 304 L 380 304 Z M 71 0 L 163 658 L 325 658 L 254 148 L 501 148 L 480 0 L 71 0 Z" unicode="Ŀ" />
<glyph horiz-adv-x="402" d="M 305 292 L 324 426 L 458 426 L 439 292 L 305 292 Z M 67 0 C 65 22 65 44 67 68 C 68 91 70 113 73 134 L 155 716 L 311 716 L 229 134 C 226 113 224 91 223 68 C 221 45 222 22 224 0 L 67 0 Z" unicode="ŀ" />
<glyph horiz-adv-x="494" d="M 46 267 L 65 406 L 365 473 L 346 335 L 46 267 Z M 70 0 L 162 658 L 324 658 L 253 148 L 500 148 L 479 0 L 70 0 Z" unicode="Ł" />
<glyph horiz-adv-x="294" d="M 52 269 L 71 404 L 347 470 L 328 334 L 52 269 Z M 84 0 C 82 22 82 44 84 68 C 85 91 87 113 90 134 L 172 716 L 328 716 L 246 134 C 243 113 241 91 240 68 C 238 45 239 22 241 0 L 84 0 Z" unicode="ł" />
<glyph horiz-adv-x="750" d="M 71 0 L 163 658 L 335 658 L 521 317 L 563 229 L 573 317 L 621 658 L 770 658 L 678 0 L 510 0 L 321 346 L 279 432 L 270 346 L 221 0 L 71 0 Z M 395 706 L 511 843 L 670 843 L 537 706 L 395 706 Z" unicode="Ń" />
<glyph horiz-adv-x="553" d="M 258 524 L 387 676 L 561 676 L 412 524 L 258 524 Z M 60 0 L 109 343 C 111 365 113 387 115 409 C 117 431 118 452 118 472 L 273 472 L 273 415 L 272 393 C 288 423 309 445 334 460 C 359 475 386 483 414 483 C 459 483 494 468 520 438 C 545 408 553 368 544 318 L 512 134 C 508 113 505 91 504 68 C 502 44 502 22 502 0 L 345 0 C 345 22 345 44 347 68 C 348 91 351 113 355 134 L 382 271 C 386 294 384 312 375 324 C 366 336 354 343 339 343 C 316 343 296 329 279 301 C 262 273 249 231 241 175 L 217 0 L 60 0 Z" unicode="ń" />
<glyph horiz-adv-x="750" d="M 371 -253 L 278 -219 C 292 -198 303 -178 310 -160 C 316 -142 321 -121 325 -97 L 331 -53 L 446 -53 L 439 -97 C 434 -132 427 -161 417 -184 C 407 -206 391 -229 371 -253 Z M 71 0 L 163 658 L 335 658 L 521 317 L 563 229 L 573 317 L 621 658 L 770 658 L 678 0 L 510 0 L 321 346 L 279 432 L 270 346 L 221 0 L 71 0 Z" unicode="Ņ" />
<glyph horiz-adv-x="553" d="M 253 -267 L 150 -229 C 166 -205 177 -183 185 -163 C 192 -143 198 -119 202 -93 L 209 -45 L 336 -45 L 329 -93 C 323 -133 315 -165 304 -190 C 292 -215 275 -241 253 -267 Z M 60 0 L 109 343 C 111 365 113 387 115 409 C 117 431 118 452 118 472 L 273 472 L 273 415 L 272 393 C 288 423 309 445 334 460 C 359 475 386 483 414 483 C 459 483 494 468 520 438 C 545 408 553 368 544 318 L 512 134 C 508 113 505 91 504 68 C 502 44 502 22 502 0 L 345 0 C 345 22 345 44 347 68 C 348 91 351 113 355 134 L 382 271 C 386 294 384 312 375 324 C 366 336 354 343 339 343 C 316 343 296 329 279 301 C 262 273 249 231 241 175 L 217 0 L 60 0 Z" unicode="ņ" />
<glyph horiz-adv-x="750" d="M 399 707 L 337 848 L 448 848 L 475 788 L 519 848 L 630 848 L 528 707 L 399 707 Z M 71 0 L 163 658 L 335 658 L 521 317 L 563 229 L 573 317 L 621 658 L 770 658 L 678 0 L 510 0 L 321 346 L 279 432 L 270 346 L 221 0 L 71 0 Z" unicode="Ň" />
<glyph horiz-adv-x="553" d="M 265 524 L 195 681 L 318 681 L 348 614 L 398 681 L 521 681 L 407 524 L 265 524 Z M 60 0 L 109 343 C 111 365 113 387 115 409 C 117 431 118 452 118 472 L 273 472 L 273 415 L 272 393 C 288 423 309 445 334 460 C 359 475 386 483 414 483 C 459 483 494 468 520 438 C 545 408 553 368 544 318 L 512 134 C 508 113 505 91 504 68 C 502 44 502 22 502 0 L 345 0 C 345 22 345 44 347 68 C 348 91 351 113 355 134 L 382 271 C 386 294 384 312 375 324 C 366 336 354 343 339 343 C 316 343 296 329 279 301 C 262 273 249 231 241 175 L 217 0 L 60 0 Z" unicode="ň" />
<glyph horiz-adv-x="753" d="M 537 0 L 518 0 L 475 83 L 290 421 L 281 446 L 258 262 L 166 0 L 98 192 L 235 658 L 375 575 L 555 241 L 562 220 L 585 400 L 676 658 L 744 466 C 741 444 722 348 687 178 C 651 8 622 -77 598 -77 C 592 -122 572 -156 540 -179 C 508 -201 466 -213 414 -213 L 415 -170 L 429 -82 C 436 -82 443 -80 449 -76 C 455 -72 459 -68 460 -63 C 478 -63 494 -58 506 -48 C 518 -38 526 -26 529 -13 L 537 0 Z" unicode="Ŋ" />
<glyph horiz-adv-x="550" d="M 237 -210 L 224 -210 L 242 -74 L 250 -74 C 274 -74 295 -66 312 -52 C 329 -38 339 -17 343 9 L 381 273 C 383 295 381 311 373 323 C 365 335 353 341 337 341 C 318 341 300 330 282 308 C 264 286 251 241 241 175 L 217 0 L 60 0 L 108 343 C 111 365 113 386 115 408 C 117 429 118 450 118 472 L 273 472 C 273 463 273 454 273 445 C 273 436 272 427 272 419 L 272 393 C 288 423 309 445 334 460 C 359 475 386 483 414 483 C 458 483 493 468 517 438 C 541 408 550 368 544 319 L 498 1 C 488 -67 461 -119 417 -155 C 372 -191 312 -210 237 -210 Z" unicode="ŋ" />
<glyph horiz-adv-x="776" d="M 408 -16 C 314 -16 236 11 176 67 C 115 123 85 196 85 288 C 85 398 120 490 190 564 C 260 637 350 674 458 674 C 550 674 628 646 690 591 C 752 536 783 462 783 368 C 783 257 747 165 677 93 C 606 20 516 -16 408 -16 Z M 415 131 C 474 131 522 152 560 195 C 597 237 616 292 616 359 C 616 407 601 447 571 479 C 541 511 502 527 452 527 C 392 527 344 505 307 463 C 269 421 251 366 251 300 C 251 252 265 211 295 179 C 325 147 365 131 415 131 Z M 354 716 L 368 814 L 602 814 L 588 716 L 354 716 Z" unicode="Ō" />
<glyph horiz-adv-x="558" d="M 211 532 L 226 641 L 486 641 L 471 532 L 211 532 Z M 292 -13 C 225 -13 171 6 130 45 C 88 83 68 136 68 202 C 68 283 93 351 143 405 C 193 459 256 486 334 486 C 400 486 453 466 495 428 C 536 389 557 337 557 271 C 557 188 531 120 480 67 C 429 13 366 -13 292 -13 Z M 301 123 C 329 123 353 136 373 162 C 392 188 402 221 402 261 C 402 286 394 307 379 324 C 363 340 345 349 323 349 C 294 349 270 336 251 310 C 232 284 223 251 223 211 C 223 185 230 164 245 148 C 260 131 279 123 301 123 Z" unicode="ō" />
<glyph horiz-adv-x="776" d="M 471 710 C 430 710 399 722 379 746 C 359 770 352 803 358 845 L 440 845 C 438 830 440 818 447 810 C 454 802 464 798 478 798 C 490 798 500 802 509 810 C 517 818 522 830 524 845 L 608 845 C 602 803 586 770 562 746 C 537 722 507 710 471 710 Z M 408 -16 C 314 -16 236 11 176 67 C 115 123 85 196 85 288 C 85 398 120 490 190 564 C 260 637 350 674 458 674 C 550 674 628 646 690 591 C 752 536 783 462 783 368 C 783 257 747 165 677 93 C 606 20 516 -16 408 -16 Z M 415 131 C 474 131 522 152 560 195 C 597 237 616 292 616 359 C 616 407 601 447 571 479 C 541 511 502 527 452 527 C 392 527 344 505 307 463 C 269 421 251 366 251 300 C 251 252 265 211 295 179 C 325 147 365 131 415 131 Z" unicode="Ŏ" />
<glyph horiz-adv-x="558" d="M 343 518 C 297 518 262 531 240 558 C 218 585 210 622 217 668 L 309 668 C 307 652 309 639 316 630 C 323 620 334 616 349 616 C 363 616 374 620 384 630 C 394 639 400 652 402 668 L 494 668 C 487 622 470 585 443 558 C 415 531 382 518 343 518 Z M 292 -13 C 225 -13 171 6 130 45 C 88 83 68 136 68 202 C 68 283 93 351 143 405 C 193 459 256 486 334 486 C 400 486 453 466 495 428 C 536 389 557 337 557 271 C 557 188 531 120 480 67 C 429 13 366 -13 292 -13 Z M 301 123 C 329 123 353 136 373 162 C 392 188 402 221 402 261 C 402 286 394 307 379 324 C 363 340 345 349 323 349 C 294 349 270 336 251 310 C 232 284 223 251 223 211 C 223 185 230 164 245 148 C 260 131 279 123 301 123 Z" unicode="ŏ" />
<glyph horiz-adv-x="776" d="M 330 716 L 430 857 L 549 857 L 439 716 L 330 716 Z M 495 716 L 605 857 L 723 857 L 604 716 L 495 716 Z M 408 -16 C 314 -16 236 11 176 67 C 115 123 85 196 85 288 C 85 398 120 490 190 564 C 260 637 350 674 458 674 C 550 674 628 646 690 591 C 752 536 783 462 783 368 C 783 257 747 165 677 93 C 606 20 516 -16 408 -16 Z M 415 131 C 474 131 522 152 560 195 C 597 237 616 292 616 359 C 616 407 601 447 571 479 C 541 511 502 527 452 527 C 392 527 344 505 307 463 C 269 421 251 366 251 300 C 251 252 265 211 295 179 C 325 147 365 131 415 131 Z" unicode="Ő" />
<glyph horiz-adv-x="558" d="M 185 527 L 295 684 L 427 684 L 305 527 L 185 527 Z M 367 527 L 489 684 L 621 684 L 488 527 L 367 527 Z M 292 -13 C 225 -13 171 6 130 45 C 88 83 68 136 68 202 C 68 283 93 351 143 405 C 193 459 256 486 334 486 C 400 486 453 466 495 428 C 536 389 557 337 557 271 C 557 188 531 120 480 67 C 429 13 366 -13 292 -13 Z M 301 123 C 329 123 353 136 373 162 C 392 188 402 221 402 261 C 402 286 394 307 379 324 C 363 340 345 349 323 349 C 294 349 270 336 251 310 C 232 284 223 251 223 211 C 223 185 230 164 245 148 C 260 131 279 123 301 123 Z" unicode="ő" />
<glyph horiz-adv-x="909" d="M 413 0 C 308 0 227 28 171 84 C 114 140 86 211 86 298 C 86 408 123 496 199 561 C 274 625 377 658 509 658 L 936 658 L 915 510 L 671 510 L 656 402 L 888 402 L 868 261 L 636 261 L 620 148 L 875 148 L 853 0 L 413 0 Z M 418 148 L 459 148 L 510 512 L 469 512 C 403 512 350 493 311 457 C 272 420 253 370 253 308 C 253 260 268 221 298 192 C 328 162 368 148 418 148 Z" unicode="Œ" />
<glyph horiz-adv-x="866" d="M 657 -12 C 581 -12 523 8 483 48 C 443 88 423 140 423 204 C 423 283 448 349 499 403 C 550 457 616 484 697 484 C 747 484 790 470 824 442 C 858 414 875 380 875 339 C 875 291 856 253 820 225 C 783 197 718 182 626 178 L 582 176 C 586 155 597 139 615 129 C 632 118 656 113 687 113 C 715 113 742 117 770 125 C 798 133 824 144 849 160 L 829 24 C 801 12 773 3 744 -2 C 714 -8 685 -12 657 -12 Z M 679 369 C 657 369 638 360 622 344 C 606 327 595 304 590 276 L 635 278 C 663 278 684 284 700 294 C 715 304 723 317 723 334 C 723 344 719 353 711 359 C 703 365 692 369 679 369 Z M 292 -13 C 225 -13 171 6 130 45 C 88 83 68 136 68 202 C 68 283 93 351 143 405 C 193 459 256 486 334 486 C 400 486 453 466 495 428 C 536 389 557 337 557 271 C 557 188 531 120 480 67 C 429 13 366 -13 292 -13 Z M 301 123 C 329 123 353 136 373 162 C 392 188 402 221 402 261 C 402 286 394 307 379 324 C 363 340 345 349 323 349 C 294 349 270 336 251 310 C 232 284 223 251 223 211 C 223 185 230 164 245 148 C 260 131 279 123 301 123 Z" unicode="œ" />
<glyph horiz-adv-x="611" d="M 71 0 L 164 658 L 397 658 C 461 658 510 643 545 615 C 579 587 597 548 597 499 C 597 451 583 411 556 379 C 529 346 492 323 445 311 C 472 303 494 291 512 273 C 529 255 541 233 547 207 L 590 0 L 424 0 L 389 184 C 384 208 375 226 362 237 C 348 248 331 254 311 254 L 269 254 L 233 0 L 71 0 Z M 286 377 L 341 377 C 365 377 385 385 401 401 C 417 417 425 438 425 463 C 425 481 419 496 408 508 C 396 520 381 526 361 526 L 307 526 L 286 377 Z M 302 706 L 418 843 L 577 843 L 444 706 L 302 706 Z" unicode="Ŕ" />
<glyph horiz-adv-x="385" d="M 203 524 L 332 676 L 506 676 L 357 524 L 203 524 Z M 59 0 L 108 345 C 110 367 113 389 115 411 C 117 432 118 452 118 472 L 273 472 C 273 463 272 454 272 444 C 272 434 272 424 272 414 L 272 392 C 286 424 303 447 323 461 C 342 475 363 483 387 483 C 395 483 405 482 415 480 C 425 478 435 475 444 472 L 421 308 C 409 314 397 319 385 323 C 372 326 360 328 348 328 C 323 328 301 317 281 295 C 261 273 247 230 239 166 L 216 0 L 59 0 Z" unicode="ŕ" />
<glyph horiz-adv-x="611" d="M 310 -248 L 217 -214 C 231 -193 242 -173 249 -155 C 255 -137 260 -116 264 -92 L 270 -48 L 385 -48 L 378 -92 C 373 -127 366 -156 356 -179 C 346 -201 330 -224 310 -248 Z M 71 0 L 164 658 L 397 658 C 461 658 510 643 545 615 C 579 587 597 548 597 499 C 597 451 583 411 556 379 C 529 346 492 323 445 311 C 472 303 494 291 512 273 C 529 255 541 233 547 207 L 590 0 L 424 0 L 389 184 C 384 208 375 226 362 237 C 348 248 331 254 311 254 L 269 254 L 233 0 L 71 0 Z M 286 377 L 341 377 C 365 377 385 385 401 401 C 417 417 425 438 425 463 C 425 481 419 496 408 508 C 396 520 381 526 361 526 L 307 526 L 286 377 Z" unicode="Ŗ" />
<glyph horiz-adv-x="385" d="M 59 0 L 108 345 C 110 367 113 389 115 411 C 117 432 118 452 118 472 L 273 472 C 273 463 272 454 272 444 C 272 434 272 424 272 414 L 272 392 C 286 424 303 447 323 461 C 342 475 363 483 387 483 C 395 483 405 482 415 480 C 425 478 435 475 444 472 L 421 308 C 409 314 397 319 385 323 C 372 326 360 328 348 328 C 323 328 301 317 281 295 C 261 273 247 230 239 166 L 216 0 L 59 0 Z M 165 -278 L 62 -240 C 78 -216 89 -194 97 -174 C 104 -154 110 -130 114 -104 L 121 -56 L 248 -56 L 241 -104 C 235 -144 227 -176 216 -201 C 204 -226 187 -252 165 -278 Z" unicode="ŗ" />
<glyph horiz-adv-x="611" d="M 71 0 L 164 658 L 397 658 C 461 658 510 643 545 615 C 579 587 597 548 597 499 C 597 451 583 411 556 379 C 529 346 492 323 445 311 C 472 303 494 291 512 273 C 529 255 541 233 547 207 L 590 0 L 424 0 L 389 184 C 384 208 375 226 362 237 C 348 248 331 254 311 254 L 269 254 L 233 0 L 71 0 Z M 286 377 L 341 377 C 365 377 385 385 401 401 C 417 417 425 438 425 463 C 425 481 419 496 408 508 C 396 520 381 526 361 526 L 307 526 L 286 377 Z M 307 706 L 245 847 L 356 847 L 383 787 L 427 847 L 538 847 L 436 706 L 307 706 Z" unicode="Ř" />
<glyph horiz-adv-x="385" d="M 210 524 L 140 681 L 263 681 L 293 614 L 343 681 L 466 681 L 352 524 L 210 524 Z M 59 0 L 108 345 C 110 367 113 389 115 411 C 117 432 118 452 118 472 L 273 472 C 273 463 272 454 272 444 C 272 434 272 424 272 414 L 272 392 C 286 424 303 447 323 461 C 342 475 363 483 387 483 C 395 483 405 482 415 480 C 425 478 435 475 444 472 L 421 308 C 409 314 397 319 385 323 C 372 326 360 328 348 328 C 323 328 301 317 281 295 C 261 273 247 230 239 166 L 216 0 L 59 0 Z" unicode="ř" />
<glyph horiz-adv-x="536" d="M 250 -14 C 217 -14 185 -10 153 -4 C 121 2 90 13 62 27 L 84 181 C 110 164 138 151 168 143 C 198 134 228 130 259 130 C 287 130 309 135 325 147 C 340 158 348 173 348 192 C 348 207 342 220 330 231 C 318 242 300 253 274 263 L 258 269 C 210 286 173 310 147 341 C 121 371 109 407 109 449 C 109 512 132 565 178 607 C 224 649 286 671 364 671 C 395 671 426 668 458 662 C 489 656 519 646 548 634 L 525 478 C 498 494 471 507 443 516 C 415 524 387 529 360 529 C 335 529 316 523 303 513 C 289 503 283 489 283 471 C 283 457 289 444 301 434 C 313 424 333 413 361 403 L 377 397 C 423 380 458 356 483 326 C 508 296 521 259 521 217 C 521 151 496 96 447 52 C 398 8 332 -14 250 -14 Z M 294 714 L 410 851 L 569 851 L 436 714 L 294 714 Z" unicode="Ś" />
<glyph horiz-adv-x="440" d="M 210 -12 C 184 -12 157 -9 129 -5 C 101 0 75 6 50 15 L 68 141 C 89 129 112 120 138 114 C 163 108 188 105 213 105 C 228 105 241 108 251 113 C 261 118 266 126 266 137 C 266 145 261 152 253 158 C 245 163 233 168 217 173 L 195 178 C 159 188 131 205 112 229 C 92 253 83 283 83 320 C 83 368 100 408 136 438 C 171 468 221 484 285 484 C 308 484 334 481 362 477 C 390 473 416 467 441 459 L 424 337 C 404 347 383 354 359 360 C 335 366 311 369 289 369 C 274 369 262 366 254 362 C 246 357 242 350 242 340 C 242 331 245 324 252 318 C 258 312 269 307 284 303 L 306 297 C 344 286 373 269 393 245 C 413 221 424 193 424 159 C 424 108 405 67 368 35 C 331 3 278 -12 210 -12 Z M 212 528 L 341 680 L 515 680 L 366 528 L 212 528 Z" unicode="ś" />
<glyph horiz-adv-x="536" d="M 250 -14 C 217 -14 185 -10 153 -4 C 121 2 90 13 62 27 L 84 181 C 110 164 138 151 168 143 C 198 134 228 130 259 130 C 287 130 309 135 325 147 C 340 158 348 173 348 192 C 348 207 342 220 330 231 C 318 242 300 253 274 263 L 258 269 C 210 286 173 310 147 341 C 121 371 109 407 109 449 C 109 512 132 565 178 607 C 224 649 286 671 364 671 C 395 671 426 668 458 662 C 489 656 519 646 548 634 L 525 478 C 498 494 471 507 443 516 C 415 524 387 529 360 529 C 335 529 316 523 303 513 C 289 503 283 489 283 471 C 283 457 289 444 301 434 C 313 424 333 413 361 403 L 377 397 C 423 380 458 356 483 326 C 508 296 521 259 521 217 C 521 151 496 96 447 52 C 398 8 332 -14 250 -14 Z M 222 714 L 323 855 L 443 855 L 505 714 L 400 714 L 372 775 L 329 714 L 222 714 Z" unicode="Ŝ" />
<glyph horiz-adv-x="440" d="M 127 528 L 240 685 L 383 685 L 453 528 L 330 528 L 299 595 L 250 528 L 127 528 Z M 210 -12 C 184 -12 157 -9 129 -5 C 101 0 75 6 50 15 L 68 141 C 89 129 112 120 138 114 C 163 108 188 105 213 105 C 228 105 241 108 251 113 C 261 118 266 126 266 137 C 266 145 261 152 253 158 C 245 163 233 168 217 173 L 195 178 C 159 188 131 205 112 229 C 92 253 83 283 83 320 C 83 368 100 408 136 438 C 171 468 221 484 285 484 C 308 484 334 481 362 477 C 390 473 416 467 441 459 L 424 337 C 404 347 383 354 359 360 C 335 366 311 369 289 369 C 274 369 262 366 254 362 C 246 357 242 350 242 340 C 242 331 245 324 252 318 C 258 312 269 307 284 303 L 306 297 C 344 286 373 269 393 245 C 413 221 424 193 424 159 C 424 108 405 67 368 35 C 331 3 278 -12 210 -12 Z" unicode="ŝ" />
<glyph horiz-adv-x="536" d="M 250 -14 C 217 -14 185 -10 153 -4 C 121 2 90 13 62 27 L 84 181 C 110 164 138 151 168 143 C 198 134 228 130 259 130 C 287 130 309 135 325 147 C 340 158 348 173 348 192 C 348 207 342 220 330 231 C 318 242 300 253 274 263 L 258 269 C 210 286 173 310 147 341 C 121 371 109 407 109 449 C 109 512 132 565 178 607 C 224 649 286 671 364 671 C 395 671 426 668 458 662 C 489 656 519 646 548 634 L 525 478 C 498 494 471 507 443 516 C 415 524 387 529 360 529 C 335 529 316 523 303 513 C 289 503 283 489 283 471 C 283 457 289 444 301 434 C 313 424 333 413 361 403 L 377 397 C 423 380 458 356 483 326 C 508 296 521 259 521 217 C 521 151 496 96 447 52 C 398 8 332 -14 250 -14 Z M 260 -232 C 248 -232 237 -231 225 -229 C 213 -227 203 -223 193 -219 L 203 -148 C 211 -152 219 -156 227 -158 C 235 -160 243 -162 252 -162 C 261 -162 269 -159 275 -154 C 281 -149 284 -142 284 -134 C 284 -127 281 -122 276 -118 C 271 -114 265 -112 257 -112 L 246 -112 L 255 -48 L 268 -48 C 297 -48 320 -55 338 -71 C 355 -86 364 -106 364 -131 C 364 -161 354 -185 334 -204 C 314 -222 289 -232 260 -232 Z" unicode="Ş" />
<glyph horiz-adv-x="440" d="M 210 -12 C 184 -12 157 -9 129 -5 C 101 0 75 6 50 15 L 68 141 C 89 129 112 120 138 114 C 163 108 188 105 213 105 C 228 105 241 108 251 113 C 261 118 266 126 266 137 C 266 145 261 152 253 158 C 245 163 233 168 217 173 L 195 178 C 159 188 131 205 112 229 C 92 253 83 283 83 320 C 83 368 100 408 136 438 C 171 468 221 484 285 484 C 308 484 334 481 362 477 C 390 473 416 467 441 459 L 424 337 C 404 347 383 354 359 360 C 335 366 311 369 289 369 C 274 369 262 366 254 362 C 246 357 242 350 242 340 C 242 331 245 324 252 318 C 258 312 269 307 284 303 L 306 297 C 344 286 373 269 393 245 C 413 221 424 193 424 159 C 424 108 405 67 368 35 C 331 3 278 -12 210 -12 Z M 205 -258 C 192 -258 179 -256 167 -254 C 154 -252 142 -248 131 -244 L 142 -166 C 150 -170 159 -174 168 -177 C 177 -179 186 -181 196 -181 C 206 -181 214 -178 220 -172 C 226 -166 230 -159 230 -150 C 230 -142 227 -136 222 -132 C 216 -128 209 -126 201 -126 L 193 -126 L 203 -56 L 212 -56 C 244 -56 270 -64 290 -81 C 309 -98 319 -120 319 -148 C 319 -180 308 -207 286 -227 C 264 -247 237 -258 205 -258 Z" unicode="ş" />
<glyph horiz-adv-x="536" d="M 250 -14 C 217 -14 185 -10 153 -4 C 121 2 90 13 62 27 L 84 181 C 110 164 138 151 168 143 C 198 134 228 130 259 130 C 287 130 309 135 325 147 C 340 158 348 173 348 192 C 348 207 342 220 330 231 C 318 242 300 253 274 263 L 258 269 C 210 286 173 310 147 341 C 121 371 109 407 109 449 C 109 512 132 565 178 607 C 224 649 286 671 364 671 C 395 671 426 668 458 662 C 489 656 519 646 548 634 L 525 478 C 498 494 471 507 443 516 C 415 524 387 529 360 529 C 335 529 316 523 303 513 C 289 503 283 489 283 471 C 283 457 289 444 301 434 C 313 424 333 413 361 403 L 377 397 C 423 380 458 356 483 326 C 508 296 521 259 521 217 C 521 151 496 96 447 52 C 398 8 332 -14 250 -14 Z M 299 714 L 237 855 L 348 855 L 375 795 L 419 855 L 530 855 L 428 714 L 299 714 Z" unicode="Š" />
<glyph horiz-adv-x="440" d="M 219 528 L 149 685 L 272 685 L 302 618 L 352 685 L 475 685 L 361 528 L 219 528 Z M 210 -12 C 184 -12 157 -9 129 -5 C 101 0 75 6 50 15 L 68 141 C 89 129 112 120 138 114 C 163 108 188 105 213 105 C 228 105 241 108 251 113 C 261 118 266 126 266 137 C 266 145 261 152 253 158 C 245 163 233 168 217 173 L 195 178 C 159 188 131 205 112 229 C 92 253 83 283 83 320 C 83 368 100 408 136 438 C 171 468 221 484 285 484 C 308 484 334 481 362 477 C 390 473 416 467 441 459 L 424 337 C 404 347 383 354 359 360 C 335 366 311 369 289 369 C 274 369 262 366 254 362 C 246 357 242 350 242 340 C 242 331 245 324 252 318 C 258 312 269 307 284 303 L 306 297 C 344 286 373 269 393 245 C 413 221 424 193 424 159 C 424 108 405 67 368 35 C 331 3 278 -12 210 -12 Z" unicode="š" />
<glyph horiz-adv-x="571" d="M 205 0 L 276 510 L 92 510 L 113 658 L 643 658 L 622 510 L 437 510 L 366 0 L 205 0 Z M 277 -224 C 265 -224 254 -223 242 -221 C 230 -219 220 -215 210 -211 L 220 -140 C 228 -144 236 -148 244 -150 C 252 -152 260 -154 269 -154 C 278 -154 286 -151 292 -146 C 298 -141 301 -134 301 -126 C 301 -119 298 -114 293 -110 C 288 -106 282 -104 274 -104 L 263 -104 L 272 -40 L 285 -40 C 314 -40 337 -47 355 -63 C 372 -78 381 -98 381 -123 C 381 -153 371 -177 351 -196 C 331 -214 306 -224 277 -224 Z" unicode="Ţ" />
<glyph horiz-adv-x="361" d="M 223 -11 C 179 -11 146 3 124 31 C 102 59 95 98 102 146 L 129 338 L 66 338 L 85 472 L 147 472 L 165 600 L 322 600 L 304 472 L 390 472 L 371 338 L 285 338 L 262 176 C 260 160 261 149 267 141 C 272 133 281 129 293 129 C 301 129 310 130 318 132 C 326 134 335 137 343 141 L 324 7 C 307 1 290 -3 273 -6 C 256 -9 239 -11 223 -11 Z M 207 -250 C 194 -250 181 -248 169 -246 C 156 -244 144 -240 133 -236 L 144 -158 C 152 -162 161 -166 170 -169 C 179 -171 188 -173 198 -173 C 208 -173 216 -170 222 -164 C 228 -158 232 -151 232 -142 C 232 -134 229 -128 224 -124 C 218 -120 211 -118 203 -118 L 195 -118 L 205 -48 L 214 -48 C 246 -48 272 -56 292 -73 C 311 -90 321 -112 321 -140 C 321 -172 310 -199 288 -219 C 266 -239 239 -250 207 -250 Z" unicode="ţ" />
<glyph horiz-adv-x="571" d="M 205 0 L 276 510 L 92 510 L 113 658 L 643 658 L 622 510 L 437 510 L 366 0 L 205 0 Z M 316 706 L 254 847 L 365 847 L 392 787 L 436 847 L 547 847 L 445 706 L 316 706 Z" unicode="Ť" />
<glyph horiz-adv-x="460" d="M 464 501 L 364 537 C 379 559 390 580 398 600 C 405 620 411 643 415 670 L 421 716 L 544 716 L 537 670 C 532 631 524 599 514 575 C 503 550 486 525 464 501 Z M 223 -11 C 179 -11 146 3 124 31 C 102 59 95 98 102 146 L 129 338 L 66 338 L 85 472 L 147 472 L 165 600 L 322 600 L 304 472 L 390 472 L 371 338 L 285 338 L 262 176 C 260 160 261 149 267 141 C 272 133 281 129 293 129 C 301 129 310 130 318 132 C 326 134 335 137 343 141 L 324 7 C 307 1 290 -3 273 -6 C 256 -9 239 -11 223 -11 Z" unicode="ť" />
<glyph horiz-adv-x="571" d="M 144 256 L 161 375 L 523 375 L 507 256 L 144 256 Z M 205 0 L 276 510 L 92 510 L 113 658 L 643 658 L 622 510 L 437 510 L 366 0 L 205 0 Z" unicode="Ŧ" />
<glyph horiz-adv-x="361" d="M 65 194 L 79 293 L 338 293 L 324 194 L 65 194 Z M 223 -11 C 179 -11 146 3 124 31 C 102 59 95 98 102 146 L 129 338 L 66 338 L 85 472 L 147 472 L 165 600 L 322 600 L 304 472 L 390 472 L 371 338 L 285 338 L 262 176 C 260 160 261 149 267 141 C 272 133 281 129 293 129 C 301 129 310 130 318 132 C 326 134 335 137 343 141 L 324 7 C 307 1 290 -3 273 -6 C 256 -9 239 -11 223 -11 Z" unicode="ŧ" />
<glyph horiz-adv-x="694" d="M 381 706 L 303 706 C 309 748 320 779 338 801 C 356 822 380 833 411 833 C 423 833 435 831 445 828 C 455 824 465 819 476 812 C 482 807 488 803 493 801 C 498 798 503 797 508 797 C 514 797 520 799 526 805 C 531 811 534 819 536 829 L 614 829 C 607 787 595 755 577 734 C 559 712 536 702 506 702 C 492 702 480 703 470 707 C 460 710 450 715 441 722 C 434 727 428 731 423 733 C 418 735 413 737 409 737 C 402 737 396 734 391 729 C 385 723 382 716 381 706 Z M 355 -12 C 266 -12 198 12 151 62 C 104 112 87 178 99 262 L 154 658 L 319 658 L 264 264 C 258 226 265 196 283 174 C 301 152 329 141 367 141 C 407 141 442 152 470 174 C 498 196 514 226 520 264 L 575 658 L 727 658 L 670 256 C 658 170 623 104 566 58 C 509 11 439 -12 355 -12 Z" unicode="Ũ" />
<glyph horiz-adv-x="553" d="M 204 -11 C 158 -11 123 4 98 34 C 73 64 65 105 73 155 L 104 347 C 108 370 111 392 113 414 C 115 435 116 454 116 472 L 273 472 C 273 451 272 430 270 408 C 268 386 265 365 261 343 L 236 201 C 231 176 232 158 240 146 C 248 134 261 129 279 129 C 303 129 323 142 339 168 C 355 194 368 237 377 298 L 401 472 L 558 472 L 510 134 C 507 113 505 91 504 67 C 503 43 503 21 503 0 L 346 0 L 346 79 C 329 49 308 26 284 11 C 259 -3 232 -11 204 -11 Z M 264 524 L 178 524 C 184 570 197 605 217 629 C 237 653 263 665 297 665 C 311 665 324 663 336 660 C 347 656 358 650 369 642 C 377 636 384 632 389 629 C 394 626 399 625 405 625 C 413 625 419 628 425 634 C 430 640 434 649 436 660 L 522 660 C 515 614 502 579 482 555 C 462 531 435 519 403 519 C 387 519 374 520 363 524 C 352 528 341 534 331 542 C 323 548 316 552 311 555 C 305 557 300 559 296 559 C 287 559 280 555 274 549 C 268 543 265 534 264 524 Z" unicode="ũ" />
<glyph horiz-adv-x="694" d="M 355 -12 C 266 -12 198 12 151 62 C 104 112 87 178 99 262 L 154 658 L 319 658 L 264 264 C 258 226 265 196 283 174 C 301 152 329 141 367 141 C 407 141 442 152 470 174 C 498 196 514 226 520 264 L 575 658 L 727 658 L 670 256 C 658 170 623 104 566 58 C 509 11 439 -12 355 -12 Z M 335 706 L 349 804 L 583 804 L 569 706 L 335 706 Z" unicode="Ū" />
<glyph horiz-adv-x="553" d="M 204 -11 C 158 -11 123 4 98 34 C 73 64 65 105 73 155 L 104 347 C 108 370 111 392 113 414 C 115 435 116 454 116 472 L 273 472 C 273 451 272 430 270 408 C 268 386 265 365 261 343 L 236 201 C 231 176 232 158 240 146 C 248 134 261 129 279 129 C 303 129 323 142 339 168 C 355 194 368 237 377 298 L 401 472 L 558 472 L 510 134 C 507 113 505 91 504 67 C 503 43 503 21 503 0 L 346 0 L 346 79 C 329 49 308 26 284 11 C 259 -3 232 -11 204 -11 Z M 211 530 L 226 639 L 486 639 L 471 530 L 211 530 Z" unicode="ū" />
<glyph horiz-adv-x="694" d="M 452 700 C 411 700 380 712 360 736 C 340 760 333 793 339 835 L 421 835 C 419 820 421 808 428 800 C 435 792 445 788 459 788 C 471 788 481 792 490 800 C 498 808 503 820 505 835 L 589 835 C 583 793 567 760 543 736 C 518 712 488 700 452 700 Z M 355 -12 C 266 -12 198 12 151 62 C 104 112 87 178 99 262 L 154 658 L 319 658 L 264 264 C 258 226 265 196 283 174 C 301 152 329 141 367 141 C 407 141 442 152 470 174 C 498 196 514 226 520 264 L 575 658 L 727 658 L 670 256 C 658 170 623 104 566 58 C 509 11 439 -12 355 -12 Z" unicode="Ŭ" />
<glyph horiz-adv-x="553" d="M 204 -11 C 158 -11 123 4 98 34 C 73 64 65 105 73 155 L 104 347 C 108 370 111 392 113 414 C 115 435 116 454 116 472 L 273 472 C 273 451 272 430 270 408 C 268 386 265 365 261 343 L 236 201 C 231 176 232 158 240 146 C 248 134 261 129 279 129 C 303 129 323 142 339 168 C 355 194 368 237 377 298 L 401 472 L 558 472 L 510 134 C 507 113 505 91 504 67 C 503 43 503 21 503 0 L 346 0 L 346 79 C 329 49 308 26 284 11 C 259 -3 232 -11 204 -11 Z M 343 516 C 297 516 262 529 240 556 C 218 583 210 620 217 666 L 309 666 C 307 650 309 637 316 628 C 323 618 334 614 349 614 C 363 614 374 618 384 628 C 394 637 400 650 402 666 L 494 666 C 487 620 470 583 443 556 C 415 529 382 516 343 516 Z" unicode="ŭ" />
<glyph horiz-adv-x="694" d="M 355 -12 C 266 -12 198 12 151 62 C 104 112 87 178 99 262 L 154 658 L 319 658 L 264 264 C 258 226 265 196 283 174 C 301 152 329 141 367 141 C 407 141 442 152 470 174 C 498 196 514 226 520 264 L 575 658 L 727 658 L 670 256 C 658 170 623 104 566 58 C 509 11 439 -12 355 -12 Z M 449 657 C 418 657 393 666 374 684 C 354 702 345 725 345 754 C 345 786 356 814 378 836 C 400 858 427 870 460 870 C 490 870 514 860 534 842 C 554 824 564 800 564 772 C 564 739 553 712 532 690 C 510 668 483 657 449 657 Z M 452 727 C 463 727 472 730 480 738 C 487 745 491 754 491 765 C 491 774 487 782 480 789 C 473 795 465 799 456 799 C 445 799 436 795 428 788 C 420 780 417 771 417 761 C 417 751 420 743 427 737 C 433 730 442 727 452 727 Z" unicode="Ů" />
<glyph horiz-adv-x="553" d="M 204 -11 C 158 -11 123 4 98 34 C 73 64 65 105 73 155 L 104 347 C 108 370 111 392 113 414 C 115 435 116 454 116 472 L 273 472 C 273 451 272 430 270 408 C 268 386 265 365 261 343 L 236 201 C 231 176 232 158 240 146 C 248 134 261 129 279 129 C 303 129 323 142 339 168 C 355 194 368 237 377 298 L 401 472 L 558 472 L 510 134 C 507 113 505 91 504 67 C 503 43 503 21 503 0 L 346 0 L 346 79 C 329 49 308 26 284 11 C 259 -3 232 -11 204 -11 Z M 340 482 C 308 482 281 492 260 512 C 238 532 228 559 228 591 C 228 627 240 657 265 681 C 290 705 321 718 359 718 C 391 718 417 707 439 687 C 460 667 471 641 471 610 C 471 574 459 543 435 519 C 411 494 380 482 340 482 Z M 347 561 C 359 561 370 564 378 572 C 386 580 391 590 391 603 C 391 613 387 622 379 629 C 371 636 362 640 352 640 C 340 640 329 636 321 628 C 313 620 309 610 309 598 C 309 587 312 578 320 571 C 327 564 336 561 347 561 Z" unicode="ů" />
<glyph horiz-adv-x="694" d="M 311 706 L 411 847 L 530 847 L 420 706 L 311 706 Z M 476 706 L 586 847 L 704 847 L 585 706 L 476 706 Z M 355 -12 C 266 -12 198 12 151 62 C 104 112 87 178 99 262 L 154 658 L 319 658 L 264 264 C 258 226 265 196 283 174 C 301 152 329 141 367 141 C 407 141 442 152 470 174 C 498 196 514 226 520 264 L 575 658 L 727 658 L 670 256 C 658 170 623 104 566 58 C 509 11 439 -12 355 -12 Z" unicode="Ű" />
<glyph horiz-adv-x="553" d="M 186 525 L 296 682 L 428 682 L 306 525 L 186 525 Z M 368 525 L 490 682 L 622 682 L 489 525 L 368 525 Z M 204 -11 C 158 -11 123 4 98 34 C 73 64 65 105 73 155 L 104 347 C 108 370 111 392 113 414 C 115 435 116 454 116 472 L 273 472 C 273 451 272 430 270 408 C 268 386 265 365 261 343 L 236 201 C 231 176 232 158 240 146 C 248 134 261 129 279 129 C 303 129 323 142 339 168 C 355 194 368 237 377 298 L 401 472 L 558 472 L 510 134 C 507 113 505 91 504 67 C 503 43 503 21 503 0 L 346 0 L 346 79 C 329 49 308 26 284 11 C 259 -3 232 -11 204 -11 Z" unicode="ű" />
<glyph horiz-adv-x="694" d="M 479 -220 C 423 -220 379 -208 347 -184 C 315 -160 299 -128 299 -88 C 299 -52 313 -19 342 9 C 371 37 409 57 456 68 L 475 8 C 461 3 450 -4 442 -15 C 434 -25 430 -37 430 -51 C 430 -69 435 -83 446 -93 C 457 -103 473 -109 494 -109 L 479 -220 Z M 355 -12 C 266 -12 198 12 151 62 C 104 112 87 178 99 262 L 154 658 L 319 658 L 264 264 C 258 226 265 196 283 174 C 301 152 329 141 367 141 C 407 141 442 152 470 174 C 498 196 514 226 520 264 L 575 658 L 727 658 L 670 256 C 658 170 623 104 566 58 C 509 11 439 -12 355 -12 Z" unicode="Ų" />
<glyph horiz-adv-x="553" d="M 204 -11 C 158 -11 123 4 98 34 C 73 64 65 105 73 155 L 104 347 C 108 370 111 392 113 414 C 115 435 116 454 116 472 L 273 472 C 273 451 272 430 270 408 C 268 386 265 365 261 343 L 236 201 C 231 176 232 158 240 146 C 248 134 261 129 279 129 C 303 129 323 142 339 168 C 355 194 368 237 377 298 L 401 472 L 558 472 L 510 134 C 507 113 505 91 504 67 C 503 43 503 21 503 0 L 346 0 L 346 79 C 329 49 308 26 284 11 C 259 -3 232 -11 204 -11 Z M 477 -213 C 425 -213 383 -203 351 -183 C 319 -163 303 -135 303 -98 C 303 -62 318 -31 349 -3 C 380 24 424 48 480 69 L 497 1 C 477 1 461 -4 451 -14 C 440 -24 435 -36 435 -51 C 435 -63 440 -74 450 -84 C 460 -93 474 -98 493 -98 L 477 -213 Z" unicode="ų" />
<glyph horiz-adv-x="1008" d="M 458 706 L 559 847 L 679 847 L 741 706 L 636 706 L 608 767 L 565 706 L 458 706 Z M 209 0 L 102 658 L 270 658 L 317 310 L 328 195 L 371 310 L 517 658 L 685 658 L 732 310 L 743 196 L 785 310 L 929 658 L 1090 658 L 798 0 L 623 0 L 578 332 L 567 450 L 522 332 L 383 0 L 209 0 Z" unicode="Ŵ" />
<glyph horiz-adv-x="772" d="M 289 524 L 402 681 L 545 681 L 615 524 L 492 524 L 461 591 L 412 524 L 289 524 Z M 139 0 L 78 472 L 233 472 L 256 262 L 262 157 C 284 207 305 259 325 312 C 345 364 363 418 381 472 L 523 472 L 554 262 L 567 154 C 590 208 611 261 631 314 C 651 367 668 420 684 472 L 826 472 C 802 392 773 312 739 232 C 704 151 666 74 625 0 L 459 0 L 435 174 L 426 268 C 409 222 391 177 372 132 C 352 87 332 43 312 0 L 139 0 Z" unicode="ŵ" />
<glyph horiz-adv-x="668" d="M 255 0 L 290 253 L 103 658 L 284 658 L 361 479 L 391 400 L 443 479 L 569 658 L 750 658 L 451 252 L 416 0 L 255 0 Z M 287 706 L 388 847 L 508 847 L 570 706 L 465 706 L 437 767 L 394 706 L 287 706 Z" unicode="Ŷ" />
<glyph horiz-adv-x="535" d="M 185 -12 L 87 472 L 254 472 L 288 263 L 306 122 C 326 164 346 213 364 269 C 382 325 402 392 423 472 L 575 472 C 513 236 435 63 339 -47 C 243 -157 129 -213 -3 -213 L -13 -213 L 6 -74 L 17 -74 C 48 -74 78 -68 107 -57 C 136 -46 162 -31 186 -12 L 185 -12 Z M 168 524 L 281 681 L 424 681 L 494 524 L 371 524 L 340 591 L 291 524 L 168 524 Z" unicode="ŷ" />
<glyph horiz-adv-x="668" d="M 255 0 L 290 253 L 103 658 L 284 658 L 361 479 L 391 400 L 443 479 L 569 658 L 750 658 L 451 252 L 416 0 L 255 0 Z M 285 706 L 301 821 L 417 821 L 401 706 L 285 706 Z M 456 706 L 473 821 L 589 821 L 572 706 L 456 706 Z" unicode="Ÿ" />
<glyph horiz-adv-x="616" d="M 45 0 L 58 90 L 350 448 L 404 510 L 125 510 L 146 658 L 663 658 L 651 568 L 359 210 L 305 148 L 592 148 L 571 0 L 45 0 Z M 325 706 L 441 843 L 600 843 L 467 706 L 325 706 Z" unicode="Ź" />
<glyph horiz-adv-x="477" d="M 226 524 L 355 676 L 529 676 L 380 524 L 226 524 Z M 37 0 L 51 99 L 218 282 L 270 338 L 89 338 L 107 472 L 500 472 L 486 374 L 318 190 L 266 135 L 459 135 L 440 0 L 37 0 Z" unicode="ź" />
<glyph horiz-adv-x="616" d="M 336 706 L 353 827 L 474 827 L 457 706 L 336 706 Z M 45 0 L 58 90 L 350 448 L 404 510 L 125 510 L 146 658 L 663 658 L 651 568 L 359 210 L 305 148 L 592 148 L 571 0 L 45 0 Z" unicode="Ż" />
<glyph horiz-adv-x="477" d="M 237 524 L 256 658 L 390 658 L 371 524 L 237 524 Z M 37 0 L 51 99 L 218 282 L 270 338 L 89 338 L 107 472 L 500 472 L 486 374 L 318 190 L 266 135 L 459 135 L 440 0 L 37 0 Z" unicode="ż" />
<glyph horiz-adv-x="616" d="M 45 0 L 58 90 L 350 448 L 404 510 L 125 510 L 146 658 L 663 658 L 651 568 L 359 210 L 305 148 L 592 148 L 571 0 L 45 0 Z M 330 706 L 268 847 L 379 847 L 406 787 L 450 847 L 561 847 L 459 706 L 330 706 Z" unicode="Ž" />
<glyph horiz-adv-x="477" d="M 233 524 L 163 681 L 286 681 L 316 614 L 366 681 L 489 681 L 375 524 L 233 524 Z M 37 0 L 51 99 L 218 282 L 270 338 L 89 338 L 107 472 L 500 472 L 486 374 L 318 190 L 266 135 L 459 135 L 440 0 L 37 0 Z" unicode="ž" />
<glyph horiz-adv-x="498" d="M 69 -216 C 55 -216 41 -215 27 -213 C 13 -211 0 -207 -13 -203 L -13 -67 C -1 -70 10 -72 22 -74 C 34 -76 47 -77 61 -77 C 77 -77 89 -72 99 -63 C 109 -54 115 -41 117 -24 L 168 335 L 101 335 L 113 471 L 188 471 L 197 537 C 205 599 227 645 262 675 C 296 705 340 720 392 720 C 406 720 420 719 434 717 C 448 715 462 712 477 709 L 477 569 C 465 572 453 575 441 577 C 429 579 418 580 406 580 C 389 580 376 575 367 566 C 357 557 351 544 349 527 L 341 471 L 418 471 L 406 335 L 322 335 L 270 -35 C 261 -94 239 -139 205 -170 C 170 -200 125 -216 69 -216 Z" unicode="ƒ" />
<glyph horiz-adv-x="704" d="M 413 -15 C 310 -15 229 12 171 68 C 113 123 84 194 84 282 C 84 396 121 489 195 563 C 269 636 367 673 488 673 C 526 673 565 669 603 662 C 641 654 675 644 705 632 L 684 479 C 655 493 623 505 587 514 C 551 522 515 527 481 527 C 411 527 355 505 314 461 C 272 417 252 361 252 295 C 252 247 267 208 297 177 C 327 146 368 131 418 131 C 436 131 453 132 468 134 C 482 136 496 139 509 144 L 522 241 L 403 241 L 423 378 L 706 378 L 659 42 C 617 23 576 9 535 0 C 494 -10 453 -15 413 -15 Z M 422 714 L 360 855 L 471 855 L 498 795 L 542 855 L 653 855 L 551 714 L 422 714 Z" unicode="Ǧ" />
<glyph horiz-adv-x="554" d="M 279 528 L 209 685 L 332 685 L 362 618 L 412 685 L 535 685 L 421 528 L 279 528 Z M 225 -220 C 198 -220 169 -217 137 -212 C 105 -206 74 -199 46 -190 L 66 -48 C 86 -60 110 -71 138 -79 C 166 -87 191 -91 214 -91 C 252 -91 283 -83 305 -67 C 327 -51 341 -28 346 4 L 353 60 C 336 33 317 14 296 3 C 274 -7 251 -13 227 -13 C 180 -13 141 3 110 36 C 79 68 64 116 64 180 C 64 265 92 337 149 395 C 205 453 277 482 365 482 C 395 482 428 478 465 472 C 501 465 535 457 565 447 L 503 14 C 491 -67 462 -126 416 -164 C 370 -201 306 -220 225 -220 Z M 283 124 C 307 124 328 136 346 161 C 364 186 376 224 384 274 L 394 342 C 385 345 376 347 366 349 C 356 351 347 352 337 352 C 306 352 279 337 255 308 C 231 278 219 243 219 203 C 219 177 224 157 235 144 C 246 130 262 124 283 124 Z" unicode="ǧ" />
<glyph horiz-adv-x="701" d="M 12 0 L 366 658 L 519 658 L 689 0 L 521 0 L 491 127 L 241 127 L 176 0 L 12 0 Z M 355 348 L 307 255 L 460 255 L 438 348 L 414 468 L 355 348 Z M 410 817 L 481 901 L 580 901 L 506 817 L 410 817 Z M 436 588 C 408 588 384 596 365 614 C 346 632 337 655 337 683 C 337 715 348 742 370 764 C 392 785 419 796 452 796 C 480 796 504 787 523 769 C 541 751 551 728 551 700 C 551 668 540 641 518 620 C 496 598 468 588 436 588 Z M 442 658 C 452 658 461 661 468 668 C 475 674 479 683 479 694 C 479 702 475 710 469 716 C 462 722 454 726 446 726 C 436 726 427 722 420 715 C 413 708 410 700 410 690 C 410 681 413 673 419 667 C 425 661 432 658 442 658 Z" unicode="Ǻ" />
<glyph horiz-adv-x="563" d="M 227 -11 C 180 -11 141 5 110 38 C 78 71 63 119 63 181 C 63 267 91 339 148 396 C 205 453 277 482 365 482 C 395 482 428 478 464 472 C 500 465 534 457 564 447 L 525 166 C 521 139 518 112 516 84 C 514 56 513 28 513 0 L 365 0 L 365 75 C 347 44 327 22 303 9 C 279 -4 254 -11 227 -11 Z M 283 125 C 307 125 328 137 346 162 C 364 187 376 225 384 275 L 394 343 C 385 346 376 348 366 350 C 356 352 347 353 337 353 C 306 353 279 338 255 309 C 231 279 219 245 219 205 C 219 179 224 159 235 145 C 246 131 262 125 283 125 Z M 317 661 L 396 753 L 506 753 L 423 661 L 317 661 Z M 345 406 C 314 406 288 415 267 435 C 245 455 235 480 235 512 C 235 547 247 577 272 601 C 296 625 327 637 363 637 C 394 637 420 627 441 607 C 462 587 473 561 473 530 C 473 494 460 465 436 441 C 411 417 381 406 345 406 Z M 352 484 C 363 484 373 487 381 495 C 389 502 393 511 393 523 C 393 533 389 542 382 549 C 375 555 367 559 357 559 C 345 559 336 555 328 547 C 320 539 316 529 316 519 C 316 509 319 500 326 494 C 332 487 341 484 352 484 Z" unicode="ǻ" />
<glyph horiz-adv-x="908" d="M 8 0 L 438 658 L 935 658 L 914 510 L 671 510 L 656 402 L 888 402 L 868 261 L 636 261 L 620 148 L 874 148 L 853 0 L 438 0 L 459 150 L 277 150 L 179 0 L 8 0 Z M 437 396 L 367 288 L 478 288 L 510 511 L 437 396 Z M 551 706 L 667 843 L 826 843 L 693 706 L 551 706 Z" unicode="Ǽ" />
<glyph horiz-adv-x="814" d="M 424 524 L 553 676 L 727 676 L 578 524 L 424 524 Z M 236 -10 C 182 -10 140 6 109 39 C 78 71 63 120 63 184 C 63 269 90 340 146 397 C 202 453 272 482 358 482 C 384 482 409 479 433 474 C 456 469 480 461 504 451 C 522 461 543 469 566 475 C 589 481 614 484 642 484 C 694 484 737 470 772 442 C 806 414 824 380 824 339 C 824 290 805 252 768 224 C 730 196 665 181 573 177 L 532 175 C 536 155 547 139 564 129 C 580 118 603 113 631 113 C 661 113 690 117 718 125 C 746 133 772 144 797 160 L 777 24 C 750 12 721 3 689 -2 C 657 -8 628 -12 603 -12 C 551 -12 509 -2 475 18 C 441 38 416 64 400 97 C 383 63 360 36 331 18 C 302 0 270 -10 236 -10 Z M 627 369 C 606 369 587 360 571 344 C 555 328 544 305 539 277 L 583 279 C 611 280 632 285 648 295 C 663 304 671 317 671 334 C 671 345 666 354 658 360 C 650 366 639 369 627 369 Z M 215 209 C 215 182 220 161 232 147 C 243 133 259 126 280 126 C 306 126 327 137 342 159 C 356 181 369 217 379 267 L 384 299 C 385 305 387 313 390 321 C 392 329 396 336 400 344 C 390 346 380 348 370 350 C 360 352 349 353 339 353 C 305 353 275 338 251 309 C 227 280 215 247 215 209 Z" unicode="ǽ" />
<glyph horiz-adv-x="776" d="M 102 -67 L 211 94 L 251 148 L 540 577 L 573 629 L 642 732 L 780 732 L 677 577 L 637 522 L 344 90 L 313 40 L 241 -67 L 102 -67 Z M 408 -16 C 314 -16 236 11 176 67 C 115 123 85 196 85 288 C 85 398 120 490 190 564 C 260 637 350 674 458 674 C 550 674 628 646 690 591 C 752 536 783 462 783 368 C 783 257 747 165 677 93 C 606 20 516 -16 408 -16 Z M 415 131 C 474 131 522 152 560 195 C 597 237 616 292 616 359 C 616 407 601 447 571 479 C 541 511 502 527 452 527 C 392 527 344 505 307 463 C 269 421 251 366 251 300 C 251 252 265 211 295 179 C 325 147 365 131 415 131 Z M 423 722 L 539 859 L 698 859 L 565 722 L 423 722 Z" unicode="Ǿ" />
<glyph horiz-adv-x="558" d="M 63 -71 L 163 85 L 174 128 L 344 403 L 383 440 L 446 545 L 573 545 L 478 392 L 408 364 L 235 79 L 256 36 L 190 -71 L 63 -71 Z M 292 -13 C 225 -13 171 6 130 45 C 88 83 68 136 68 202 C 68 283 93 351 143 405 C 193 459 256 486 334 486 C 400 486 453 466 495 428 C 536 389 557 337 557 271 C 557 188 531 120 480 67 C 429 13 366 -13 292 -13 Z M 301 123 C 329 123 353 136 373 162 C 392 188 402 221 402 261 C 402 286 394 307 379 324 C 363 340 345 349 323 349 C 294 349 270 336 251 310 C 232 284 223 251 223 211 C 223 185 230 164 245 148 C 260 131 279 123 301 123 Z M 275 529 L 404 681 L 578 681 L 429 529 L 275 529 Z" unicode="ǿ" />
<glyph horiz-adv-x="536" d="M 248 -256 L 155 -222 C 169 -201 180 -181 187 -163 C 193 -145 198 -124 202 -100 L 208 -56 L 323 -56 L 316 -100 C 311 -135 304 -164 294 -187 C 284 -209 268 -232 248 -256 Z M 250 -14 C 217 -14 185 -10 153 -4 C 121 2 90 13 62 27 L 84 181 C 110 164 138 151 168 143 C 198 134 228 130 259 130 C 287 130 309 135 325 147 C 340 158 348 173 348 192 C 348 207 342 220 330 231 C 318 242 300 253 274 263 L 258 269 C 210 286 173 310 147 341 C 121 371 109 407 109 449 C 109 512 132 565 178 607 C 224 649 286 671 364 671 C 395 671 426 668 458 662 C 489 656 519 646 548 634 L 525 478 C 498 494 471 507 443 516 C 415 524 387 529 360 529 C 335 529 316 523 303 513 C 289 503 283 489 283 471 C 283 457 289 444 301 434 C 313 424 333 413 361 403 L 377 397 C 423 380 458 356 483 326 C 508 296 521 259 521 217 C 521 151 496 96 447 52 C 398 8 332 -14 250 -14 Z" unicode="Ș" />
<glyph horiz-adv-x="440" d="M 210 -12 C 184 -12 157 -9 129 -5 C 101 0 75 6 50 15 L 68 141 C 89 129 112 120 138 114 C 163 108 188 105 213 105 C 228 105 241 108 251 113 C 261 118 266 126 266 137 C 266 145 261 152 253 158 C 245 163 233 168 217 173 L 195 178 C 159 188 131 205 112 229 C 92 253 83 283 83 320 C 83 368 100 408 136 438 C 171 468 221 484 285 484 C 308 484 334 481 362 477 C 390 473 416 467 441 459 L 424 337 C 404 347 383 354 359 360 C 335 366 311 369 289 369 C 274 369 262 366 254 362 C 246 357 242 350 242 340 C 242 331 245 324 252 318 C 258 312 269 307 284 303 L 306 297 C 344 286 373 269 393 245 C 413 221 424 193 424 159 C 424 108 405 67 368 35 C 331 3 278 -12 210 -12 Z M 192 -278 L 89 -240 C 105 -216 116 -194 124 -174 C 131 -154 137 -130 141 -104 L 148 -56 L 275 -56 L 268 -104 C 262 -144 254 -176 243 -201 C 231 -226 214 -252 192 -278 Z" unicode="ș" />
<glyph horiz-adv-x="571" d="M 264 -248 L 171 -214 C 185 -193 196 -173 203 -155 C 209 -137 214 -116 218 -92 L 224 -48 L 339 -48 L 332 -92 C 327 -127 320 -156 310 -179 C 300 -201 284 -224 264 -248 Z M 205 0 L 276 510 L 92 510 L 113 658 L 643 658 L 622 510 L 437 510 L 366 0 L 205 0 Z" unicode="Ț" />
<glyph horiz-adv-x="361" d="M 194 -270 L 91 -232 C 107 -208 118 -186 126 -166 C 133 -146 139 -122 143 -96 L 150 -48 L 277 -48 L 270 -96 C 264 -136 256 -168 245 -193 C 233 -218 216 -244 194 -270 Z M 223 -11 C 179 -11 146 3 124 31 C 102 59 95 98 102 146 L 129 338 L 66 338 L 85 472 L 147 472 L 165 600 L 322 600 L 304 472 L 390 472 L 371 338 L 285 338 L 262 176 C 260 160 261 149 267 141 C 272 133 281 129 293 129 C 301 129 310 130 318 132 C 326 134 335 137 343 141 L 324 7 C 307 1 290 -3 273 -6 C 256 -9 239 -11 223 -11 Z" unicode="ț" />
<glyph horiz-adv-x="254" d="M -64 -213 L -72 -213 L -53 -77 L -45 -77 C -19 -77 2 -69 18 -55 C 34 -40 44 -19 48 9 L 113 472 L 269 472 L 204 9 C 194 -60 166 -114 120 -154 C 74 -193 12 -213 -64 -213 Z" unicode="ȷ" />
<glyph horiz-adv-x="511" d="M 241 -11 C 189 -11 145 2 110 30 C 74 58 57 92 57 134 C 57 182 75 219 112 246 C 149 273 214 289 307 293 L 350 295 C 346 315 335 331 318 342 C 300 353 277 359 249 359 C 218 359 189 355 162 347 C 134 339 108 328 84 313 L 103 449 C 133 461 165 470 197 476 C 229 481 256 484 278 484 C 352 484 409 463 449 423 C 489 383 509 331 509 269 C 509 189 485 122 439 69 C 392 15 326 -11 241 -11 Z M 210 138 C 210 127 214 118 222 112 C 230 106 240 103 254 103 C 274 103 293 111 309 128 C 325 144 336 167 342 195 L 297 193 C 269 192 248 187 233 178 C 217 168 210 155 210 138 Z" unicode="ə" />
<glyph horiz-adv-x="348" d="M 85 524 L 198 681 L 341 681 L 411 524 L 288 524 L 257 591 L 208 524 L 85 524 Z" unicode="ˆ" />
<glyph horiz-adv-x="348" d="M 177 524 L 107 681 L 230 681 L 260 614 L 310 681 L 433 681 L 319 524 L 177 524 Z" unicode="ˇ" />
<glyph horiz-adv-x="356" d="M 256 516 C 210 516 175 529 153 556 C 131 583 123 620 130 666 L 222 666 C 220 650 222 637 229 628 C 236 618 247 614 262 614 C 276 614 287 618 297 628 C 307 637 313 650 315 666 L 407 666 C 400 620 383 583 356 556 C 328 529 295 516 256 516 Z" unicode="˘" />
<glyph horiz-adv-x="192" d="M 103 524 L 122 658 L 256 658 L 237 524 L 103 524 Z" unicode="˙" />
<glyph horiz-adv-x="248" d="M 187 403 C 155 403 128 413 107 433 C 85 453 75 480 75 512 C 75 548 87 578 112 602 C 137 626 168 639 206 639 C 238 639 264 628 286 608 C 307 588 318 562 318 531 C 318 495 306 464 282 440 C 258 415 227 403 187 403 Z M 194 482 C 206 482 217 485 225 493 C 233 501 238 511 238 524 C 238 534 234 543 226 550 C 218 557 209 561 199 561 C 187 561 176 557 168 549 C 160 541 156 531 156 519 C 156 508 159 499 167 492 C 174 485 183 482 194 482 Z" unicode="˚" />
<glyph horiz-adv-x="240" d="M 173 -213 C 121 -213 79 -202 49 -180 C 18 -158 3 -129 3 -93 C 3 -55 20 -21 54 6 C 88 34 133 51 187 57 L 198 0 C 177 0 160 -5 148 -16 C 135 -26 129 -39 129 -55 C 129 -70 134 -82 144 -92 C 154 -101 169 -106 188 -106 L 173 -213 Z" unicode="˛" />
<glyph horiz-adv-x="347" d="M 171 524 L 85 524 C 91 570 104 605 124 629 C 144 653 170 665 204 665 C 218 665 231 663 243 660 C 254 656 265 650 276 642 C 284 636 291 632 296 629 C 301 626 306 625 312 625 C 320 625 326 628 332 634 C 337 640 341 649 343 660 L 429 660 C 422 614 409 579 389 555 C 369 531 342 519 310 519 C 294 519 281 520 270 524 C 259 528 248 534 238 542 C 230 548 223 552 218 555 C 212 557 207 559 203 559 C 194 559 187 555 181 549 C 175 543 172 534 171 524 Z" unicode="˜" />
<glyph horiz-adv-x="401" d="M 77 525 L 187 682 L 319 682 L 197 525 L 77 525 Z M 259 525 L 381 682 L 513 682 L 380 525 L 259 525 Z" unicode="˝" />
<glyph horiz-adv-x="0" d="M -3 524 L -109 676 L 65 676 L 151 524 L -3 524 Z" unicode="̀" />
<glyph horiz-adv-x="0" d="M -4 524 L 125 676 L 299 676 L 150 524 L -4 524 Z" unicode="́" />
<glyph horiz-adv-x="0" d="M -89 524 L 24 681 L 167 681 L 237 524 L 114 524 L 83 591 L 34 524 L -89 524 Z" unicode="̂" />
<glyph horiz-adv-x="0" d="M -2 524 L -88 524 C -82 570 -69 605 -49 629 C -29 653 -2 665 31 665 C 45 665 58 663 70 660 C 81 656 92 650 103 642 C 111 636 118 632 123 629 C 128 626 133 625 139 625 C 147 625 153 628 159 634 C 164 640 168 649 170 660 L 256 660 C 249 614 236 579 216 555 C 196 531 169 519 137 519 C 121 519 108 520 97 524 C 86 528 75 534 65 542 C 57 548 50 552 45 555 C 39 557 34 559 30 559 C 21 559 14 555 8 549 C 2 543 0 534 -2 524 Z" unicode="̃" />
<glyph horiz-adv-x="0" d="M -55 530 L -40 639 L 220 639 L 205 530 L -55 530 Z" unicode="̄" />
<glyph horiz-adv-x="0" d="M 77 516 C 31 516 -3 529 -25 556 C -47 583 -55 620 -49 666 L 43 666 C 41 650 43 637 50 628 C 57 618 68 614 83 614 C 97 614 108 618 118 628 C 128 637 134 650 136 666 L 228 666 C 221 620 204 583 177 556 C 149 529 116 516 77 516 Z" unicode="̆" />
<glyph horiz-adv-x="0" d="M 7 524 L 26 658 L 160 658 L 141 524 L 7 524 Z" unicode="̇" />
<glyph horiz-adv-x="0" d="M -86 524 L -68 653 L 61 653 L 43 524 L -86 524 Z M 104 524 L 122 653 L 251 653 L 233 524 L 104 524 Z" unicode="̈" />
<glyph horiz-adv-x="0" d="M 63 403 C 31 403 4 413 -17 433 C -38 453 -49 480 -49 512 C -49 548 -36 578 -11 602 C 13 626 44 639 82 639 C 114 639 140 628 162 608 C 183 588 194 562 194 531 C 194 495 182 464 158 440 C 134 415 103 403 63 403 Z M 70 482 C 82 482 93 485 101 493 C 109 501 114 511 114 524 C 114 534 110 543 102 550 C 94 557 85 561 75 561 C 63 561 52 557 44 549 C 36 541 32 531 32 519 C 32 508 35 499 43 492 C 50 485 59 482 70 482 Z" unicode="̊" />
<glyph horiz-adv-x="0" d="M -80 525 L 30 682 L 162 682 L 40 525 L -80 525 Z M 102 525 L 224 682 L 356 682 L 223 525 L 102 525 Z" unicode="̋" />
<glyph horiz-adv-x="0" d="M 3 524 L -67 681 L 56 681 L 86 614 L 136 681 L 259 681 L 145 524 L 3 524 Z" unicode="̌" />
<glyph horiz-adv-x="0" d="M 93 747 L 196 709 C 180 685 168 663 161 643 C 153 623 148 599 144 573 L 137 525 L 10 525 L 17 573 C 22 613 30 645 42 670 C 53 695 70 721 93 747 Z" unicode="̒" />
<glyph horiz-adv-x="0" d="M -25 -262 L -128 -224 C -112 -200 -100 -178 -93 -158 C -85 -138 -80 -114 -76 -88 L -69 -40 L 58 -40 L 52 -88 C 46 -128 37 -160 26 -185 C 15 -210 -1 -236 -25 -262 Z" unicode="̦" />
<glyph horiz-adv-x="0" d="M -13 -242 C -25 -242 -38 -240 -51 -238 C -63 -236 -75 -232 -87 -228 L -76 -150 C -67 -154 -58 -158 -49 -161 C -40 -163 -31 -165 -22 -165 C -12 -165 -3 -162 2 -156 C 8 -150 12 -143 12 -134 C 12 -126 9 -120 4 -116 C -1 -112 -8 -110 -17 -110 L -25 -110 L -15 -40 L -6 -40 C 26 -40 52 -48 72 -65 C 91 -82 101 -104 101 -132 C 101 -164 90 -191 68 -211 C 46 -231 19 -242 -13 -242 Z" unicode="̧" />
<glyph horiz-adv-x="0" d="M -25 -213 C -77 -213 -118 -202 -149 -180 C -179 -158 -195 -129 -195 -93 C -195 -55 -177 -21 -143 6 C -109 34 -65 51 -11 57 L 0 0 C -20 0 -37 -5 -50 -16 C -62 -26 -69 -39 -69 -55 C -69 -70 -63 -82 -53 -92 C -43 -101 -28 -106 -10 -106 L -25 -213 Z" unicode="̨" />
<glyph horiz-adv-x="697" d="M 17 0 L 354 658 L 537 658 L 680 0 L 17 0 Z M 237 136 L 483 136 L 410 473 L 237 136 Z" unicode="Δ" />
<glyph horiz-adv-x="563" d="M 93 0 L 141 338 L 82 338 L 100 472 L 595 472 L 576 338 L 515 338 L 492 178 C 487 143 485 111 486 83 C 486 54 488 26 491 0 L 341 0 C 338 28 337 56 337 82 C 337 108 339 140 345 178 L 368 338 L 288 338 L 241 0 L 93 0 Z" unicode="π" />
<glyph horiz-adv-x="1008" d="M 532 706 L 438 843 L 592 843 L 669 706 L 532 706 Z M 209 0 L 102 658 L 270 658 L 317 310 L 328 195 L 371 310 L 517 658 L 685 658 L 732 310 L 743 196 L 785 310 L 929 658 L 1090 658 L 798 0 L 623 0 L 578 332 L 567 450 L 522 332 L 383 0 L 209 0 Z" unicode="Ẁ" />
<glyph horiz-adv-x="772" d="M 375 524 L 269 676 L 443 676 L 529 524 L 375 524 Z M 139 0 L 78 472 L 233 472 L 256 262 L 262 157 C 284 207 305 259 325 312 C 345 364 363 418 381 472 L 523 472 L 554 262 L 567 154 C 590 208 611 261 631 314 C 651 367 668 420 684 472 L 826 472 C 802 392 773 312 739 232 C 704 151 666 74 625 0 L 459 0 L 435 174 L 426 268 C 409 222 391 177 372 132 C 352 87 332 43 312 0 L 139 0 Z" unicode="ẁ" />
<glyph horiz-adv-x="1008" d="M 209 0 L 102 658 L 270 658 L 317 310 L 328 195 L 371 310 L 517 658 L 685 658 L 732 310 L 743 196 L 785 310 L 929 658 L 1090 658 L 798 0 L 623 0 L 578 332 L 567 450 L 522 332 L 383 0 L 209 0 Z M 530 706 L 646 843 L 805 843 L 672 706 L 530 706 Z" unicode="Ẃ" />
<glyph horiz-adv-x="772" d="M 374 524 L 503 676 L 677 676 L 528 524 L 374 524 Z M 139 0 L 78 472 L 233 472 L 256 262 L 262 157 C 284 207 305 259 325 312 C 345 364 363 418 381 472 L 523 472 L 554 262 L 567 154 C 590 208 611 261 631 314 C 651 367 668 420 684 472 L 826 472 C 802 392 773 312 739 232 C 704 151 666 74 625 0 L 459 0 L 435 174 L 426 268 C 409 222 391 177 372 132 C 352 87 332 43 312 0 L 139 0 Z" unicode="ẃ" />
<glyph horiz-adv-x="1008" d="M 209 0 L 102 658 L 270 658 L 317 310 L 328 195 L 371 310 L 517 658 L 685 658 L 732 310 L 743 196 L 785 310 L 929 658 L 1090 658 L 798 0 L 623 0 L 578 332 L 567 450 L 522 332 L 383 0 L 209 0 Z M 456 706 L 472 821 L 588 821 L 572 706 L 456 706 Z M 627 706 L 644 821 L 760 821 L 743 706 L 627 706 Z" unicode="Ẅ" />
<glyph horiz-adv-x="772" d="M 292 524 L 310 653 L 439 653 L 421 524 L 292 524 Z M 482 524 L 500 653 L 629 653 L 611 524 L 482 524 Z M 139 0 L 78 472 L 233 472 L 256 262 L 262 157 C 284 207 305 259 325 312 C 345 364 363 418 381 472 L 523 472 L 554 262 L 567 154 C 590 208 611 261 631 314 C 651 367 668 420 684 472 L 826 472 C 802 392 773 312 739 232 C 704 151 666 74 625 0 L 459 0 L 435 174 L 426 268 C 409 222 391 177 372 132 C 352 87 332 43 312 0 L 139 0 Z" unicode="ẅ" />
<glyph horiz-adv-x="668" d="M 255 0 L 290 253 L 103 658 L 284 658 L 361 479 L 391 400 L 443 479 L 569 658 L 750 658 L 451 252 L 416 0 L 255 0 Z M 361 706 L 267 843 L 421 843 L 498 706 L 361 706 Z" unicode="Ỳ" />
<glyph horiz-adv-x="535" d="M 185 -12 L 87 472 L 254 472 L 288 263 L 306 122 C 326 164 346 213 364 269 C 382 325 402 392 423 472 L 575 472 C 513 236 435 63 339 -47 C 243 -157 129 -213 -3 -213 L -13 -213 L 6 -74 L 17 -74 C 48 -74 78 -68 107 -57 C 136 -46 162 -31 186 -12 L 185 -12 Z M 254 524 L 148 676 L 322 676 L 408 524 L 254 524 Z" unicode="ỳ" />
<glyph horiz-adv-x="500" d="" unicode=" " />
<glyph horiz-adv-x="1000" d="" unicode=" " />
<glyph horiz-adv-x="650" d="" unicode=" " />
<glyph horiz-adv-x="200" d="" unicode=" " />
<glyph horiz-adv-x="650" d="M 141 180 L 159 307 L 577 307 L 559 180 L 141 180 Z" unicode="‒" />
<glyph horiz-adv-x="509" d="M 71 180 L 89 307 L 507 307 L 489 180 L 71 180 Z" unicode="–" />
<glyph horiz-adv-x="1006" d="M 71 180 L 89 307 L 1003 307 L 985 180 L 71 180 Z" unicode="—" />
<glyph horiz-adv-x="360" d="M 71 181 L 89 307 L 369 307 L 351 181 L 71 181 Z" unicode="―" />
<glyph horiz-adv-x="267" d="M 115 399 L 129 497 C 136 553 152 601 177 642 C 202 682 227 713 252 734 L 358 701 C 338 671 322 641 309 612 C 295 583 286 547 280 504 L 265 399 L 115 399 Z" unicode="‘" />
<glyph horiz-adv-x="268" d="M 172 381 L 66 414 C 84 443 100 472 114 502 C 127 531 137 567 144 611 L 159 716 L 310 716 L 295 618 C 287 562 270 513 246 473 C 221 432 196 401 172 381 Z" unicode="’" />
<glyph horiz-adv-x="268" d="M 92 -187 L -14 -154 C 5 -124 21 -94 35 -65 C 48 -36 58 0 64 44 L 79 148 L 230 148 L 216 50 C 208 -6 191 -54 166 -95 C 141 -135 116 -166 92 -187 Z" unicode="‚" />
<glyph horiz-adv-x="476" d="M 115 399 L 129 497 C 136 553 152 601 177 642 C 202 682 227 713 252 734 L 358 701 C 338 671 322 642 309 613 C 295 584 286 548 280 504 L 265 399 L 115 399 Z M 324 399 L 338 497 C 345 553 361 601 386 642 C 411 682 436 713 461 734 L 566 701 C 547 671 531 642 518 613 C 504 584 495 548 489 504 L 474 399 L 324 399 Z" unicode="“" />
<glyph horiz-adv-x="473" d="M 172 381 L 66 414 C 84 443 100 472 114 502 C 127 531 137 567 144 611 L 159 716 L 310 716 L 295 618 C 287 562 270 513 246 473 C 221 432 196 401 172 381 Z M 377 381 L 271 414 C 289 443 305 472 319 502 C 332 531 342 567 349 611 L 364 716 L 515 716 L 500 618 C 492 562 475 513 451 473 C 426 432 401 401 377 381 Z" unicode="”" />
<glyph horiz-adv-x="465" d="M 92 -187 L -14 -154 C 5 -124 21 -94 35 -65 C 48 -36 58 0 64 44 L 79 148 L 230 148 L 216 50 C 208 -6 191 -54 166 -95 C 141 -135 116 -166 92 -187 Z M 290 -187 L 184 -154 C 202 -124 218 -94 232 -65 C 245 -36 255 0 262 44 L 277 148 L 427 148 L 413 50 C 405 -6 388 -54 364 -95 C 339 -135 314 -166 290 -187 Z" unicode="„" />
<glyph horiz-adv-x="461" d="M 155 0 L 224 433 L 85 425 L 105 563 L 241 555 L 256 716 L 410 716 L 379 555 L 518 563 L 499 425 L 362 433 L 309 0 L 155 0 Z" unicode="†" />
<glyph horiz-adv-x="465" d="M 155 0 L 187 168 L 48 160 L 67 298 L 204 290 L 224 433 L 85 425 L 105 563 L 241 555 L 256 716 L 410 716 L 379 555 L 518 563 L 499 425 L 362 433 L 342 290 L 481 298 L 462 160 L 325 168 L 309 0 L 155 0 Z" unicode="‡" />
<glyph horiz-adv-x="341" d="M 83 141 L 113 355 L 327 355 L 298 141 L 83 141 Z" unicode="•" />
<glyph horiz-adv-x="683" d="M 51 0 L 70 134 L 204 134 L 185 0 L 51 0 Z M 274 0 L 293 134 L 427 134 L 408 0 L 274 0 Z M 498 0 L 517 134 L 651 134 L 632 0 L 498 0 Z" unicode="…" />
<glyph horiz-adv-x="1280" d="M 702 -9 C 653 -9 614 5 585 35 C 556 65 542 104 542 153 C 542 218 559 270 594 310 C 629 349 674 369 728 369 C 778 369 817 354 845 324 C 873 294 888 255 888 207 C 888 142 870 90 835 50 C 800 10 756 -9 702 -9 Z M 708 100 C 725 100 739 108 749 126 C 759 143 765 167 765 198 C 765 217 761 232 753 243 C 745 254 734 260 722 260 C 704 260 690 251 680 233 C 670 215 665 192 665 162 C 665 141 669 125 677 115 C 685 105 695 100 708 100 Z M 1092 -9 C 1043 -9 1004 5 975 35 C 946 65 932 104 932 153 C 932 218 949 270 984 310 C 1019 349 1064 369 1118 369 C 1168 369 1207 354 1235 324 C 1263 294 1278 255 1278 207 C 1278 142 1260 90 1225 50 C 1190 10 1146 -9 1092 -9 Z M 1098 100 C 1115 100 1129 108 1139 126 C 1149 143 1155 167 1155 198 C 1155 217 1151 232 1143 243 C 1135 254 1124 260 1112 260 C 1094 260 1080 251 1070 233 C 1060 215 1055 192 1055 162 C 1055 141 1059 125 1067 115 C 1075 105 1085 100 1098 100 Z M 237 0 L 647 716 L 760 716 L 351 0 L 237 0 Z M 262 351 C 213 351 174 365 145 395 C 116 425 102 464 102 513 C 102 578 119 630 154 670 C 189 709 234 729 288 729 C 338 729 377 714 405 684 C 433 654 448 615 448 567 C 448 502 430 450 395 410 C 360 370 316 351 262 351 Z M 268 460 C 285 460 299 468 309 486 C 319 503 325 527 325 558 C 325 577 321 592 313 603 C 305 614 294 620 282 620 C 264 620 250 611 240 593 C 230 575 225 552 225 522 C 225 501 229 485 237 475 C 245 465 255 460 268 460 Z" unicode="‰" />
<glyph horiz-adv-x="236" d="M 116 456 L 154 727 L 287 727 L 249 456 L 116 456 Z" unicode="′" />
<glyph horiz-adv-x="405" d="M 116 457 L 154 727 L 279 727 L 240 457 L 116 457 Z M 293 457 L 331 727 L 456 727 L 418 457 L 293 457 Z" unicode="″" />
<glyph horiz-adv-x="391" d="M 196 61 L 72 226 L 241 392 L 405 392 L 237 226 L 360 61 L 196 61 Z" unicode="‹" />
<glyph horiz-adv-x="391" d="M 50 61 L 219 226 L 95 392 L 259 392 L 383 226 L 214 61 L 50 61 Z" unicode="›" />
<glyph horiz-adv-x="165" d="M -129 0 L 281 716 L 394 716 L -15 0 L -129 0 Z" unicode="⁄" />
<glyph horiz-adv-x="398" d="M 273 431 C 224 431 185 445 156 475 C 127 505 113 544 113 593 C 113 658 130 710 165 750 C 200 789 245 809 299 809 C 349 809 388 794 416 764 C 444 734 459 695 459 647 C 459 582 441 530 406 490 C 371 450 327 431 273 431 Z M 279 540 C 296 540 310 548 320 566 C 330 583 336 607 336 638 C 336 657 332 672 324 683 C 316 694 305 700 293 700 C 275 700 261 691 251 673 C 241 655 236 632 236 602 C 236 581 240 565 248 555 C 256 545 266 540 279 540 Z" unicode="⁰" />
<glyph horiz-adv-x="359" d="M 241 440 L 250 505 L 91 505 L 103 589 L 251 800 L 407 800 L 378 597 L 421 597 L 409 505 L 365 505 L 356 440 L 241 440 Z M 263 597 L 278 705 L 201 597 L 263 597 Z" unicode="⁴" />
<glyph horiz-adv-x="323" d="M 211 432 C 191 432 171 433 151 437 C 131 440 110 445 88 451 L 102 553 C 118 544 134 537 150 533 C 166 529 183 527 201 527 C 216 527 228 529 237 534 C 245 539 250 546 250 555 C 250 563 245 570 236 575 C 227 579 214 582 197 582 C 182 582 166 581 150 579 C 134 577 119 575 105 573 L 150 800 L 391 800 L 376 699 L 219 699 L 212 662 C 219 662 226 663 233 663 C 239 663 246 664 252 664 C 292 664 323 655 345 638 C 366 620 377 596 377 564 C 377 525 361 493 330 469 C 299 444 259 432 211 432 Z" unicode="⁵" />
<glyph horiz-adv-x="362" d="M 259 432 C 213 432 176 445 149 473 C 122 500 109 537 109 585 C 109 646 128 698 168 742 C 208 786 259 808 321 808 C 338 808 354 806 370 804 C 386 801 402 797 419 792 L 405 693 C 390 699 376 703 362 707 C 348 710 333 712 318 712 C 295 712 276 706 262 694 C 247 682 236 664 229 642 C 238 652 249 660 263 666 C 277 671 292 674 309 674 C 343 674 369 665 389 647 C 408 629 418 605 418 575 C 418 531 402 497 372 471 C 342 445 304 432 259 432 Z M 261 526 C 273 526 283 529 291 537 C 298 544 302 554 302 567 C 302 576 299 583 293 589 C 287 595 279 598 269 598 C 260 598 252 595 244 591 C 236 587 229 581 224 575 C 222 560 224 548 231 539 C 238 530 248 526 261 526 Z" unicode="⁶" />
<glyph horiz-adv-x="334" d="M 115 440 L 271 695 L 122 695 L 137 800 L 422 800 L 411 716 L 251 440 L 115 440 Z" unicode="⁷" />
<glyph horiz-adv-x="342" d="M 236 432 C 192 432 158 440 134 456 C 110 472 98 495 98 523 C 98 541 104 557 117 573 C 129 589 147 602 170 613 C 154 622 143 633 135 646 C 127 658 123 673 123 690 C 123 724 137 752 166 774 C 195 796 231 808 274 808 C 316 808 349 799 374 783 C 398 766 411 744 411 717 C 411 698 405 681 395 667 C 385 653 368 640 346 630 C 362 620 374 608 382 595 C 390 581 394 566 394 550 C 394 514 379 485 349 464 C 319 442 282 432 236 432 Z M 267 660 L 272 659 C 280 663 286 670 291 678 C 296 686 299 695 299 703 C 299 711 296 717 291 722 C 286 727 279 730 270 730 C 260 730 251 726 245 720 C 239 713 236 705 236 696 C 236 687 238 679 244 673 C 249 667 257 662 267 660 Z M 212 539 C 212 530 214 523 220 518 C 225 513 232 511 241 511 C 252 511 261 514 269 521 C 277 528 281 537 281 548 C 281 557 277 564 271 570 C 265 575 257 579 248 582 L 243 583 C 234 579 227 573 221 565 C 215 557 212 548 212 539 Z" unicode="⁸" />
<glyph horiz-adv-x="362" d="M 217 432 C 199 432 182 433 166 436 C 149 438 133 442 117 448 L 131 547 C 145 541 160 536 174 533 C 188 529 203 528 219 528 C 241 528 260 533 275 545 C 290 556 301 573 308 595 C 298 584 287 576 273 570 C 259 564 243 561 225 561 C 192 561 166 570 147 589 C 128 607 119 633 119 665 C 119 708 134 743 164 769 C 194 795 233 808 279 808 C 325 808 361 794 388 767 C 414 739 428 702 428 655 C 428 591 408 538 370 496 C 331 453 280 432 217 432 Z M 268 637 C 276 637 285 639 293 643 C 301 647 307 653 313 660 C 315 676 312 689 305 699 C 297 709 287 714 275 714 C 263 714 253 710 246 703 C 238 695 235 685 235 673 C 235 662 238 653 244 647 C 250 640 258 637 268 637 Z" unicode="⁹" />
<glyph horiz-adv-x="418" d="M 100 440 L 135 693 C 137 709 139 727 140 746 C 141 765 142 783 143 800 L 264 800 C 264 793 263 785 263 776 C 263 766 263 758 263 750 L 263 738 C 275 761 292 778 313 790 C 334 802 356 808 379 808 C 413 808 440 796 460 772 C 480 748 486 717 480 679 L 457 546 C 454 529 452 511 451 493 C 449 474 449 456 449 440 L 325 440 C 325 456 325 474 326 493 C 326 511 328 529 332 546 L 352 642 C 356 659 354 672 347 682 C 340 692 330 697 316 697 C 301 697 287 688 273 671 C 259 653 248 618 241 565 L 223 440 L 100 440 Z" unicode="ⁿ" />
<glyph horiz-adv-x="398" d="M 187 -179 C 138 -179 99 -164 70 -134 C 41 -104 27 -65 27 -17 C 27 48 44 100 79 140 C 114 179 159 199 213 199 C 263 199 302 184 330 154 C 358 124 373 85 373 37 C 373 -27 355 -79 320 -119 C 285 -159 241 -179 187 -179 Z M 193 -70 C 210 -70 224 -61 234 -44 C 244 -26 250 -2 250 28 C 250 47 246 62 238 73 C 230 84 219 90 207 90 C 189 90 175 81 165 63 C 155 45 150 22 150 -8 C 150 -28 154 -44 162 -54 C 170 -64 180 -70 193 -70 Z" unicode="₀" />
<glyph horiz-adv-x="310" d="M 4 -170 L 17 -71 L 85 -71 L 107 85 L 32 79 L 46 178 L 249 197 L 211 -71 L 278 -71 L 264 -170 L 4 -170 Z" unicode="₁" />
<glyph horiz-adv-x="322" d="M 0 -170 L 17 -47 C 71 -28 112 -10 140 8 C 168 26 182 44 182 62 C 182 74 177 82 168 88 C 158 93 146 96 131 96 C 116 96 101 93 86 88 C 70 83 55 76 39 68 L 54 179 C 74 185 93 189 112 193 C 131 196 151 198 173 198 C 215 198 249 189 273 171 C 297 153 310 128 310 95 C 310 59 294 26 264 -1 C 234 -29 192 -52 139 -69 L 287 -69 L 272 -170 L 0 -170 Z" unicode="₂" />
<glyph horiz-adv-x="321" d="M 127 -178 C 107 -178 87 -176 67 -173 C 46 -170 24 -165 2 -159 L 16 -56 C 32 -63 49 -69 65 -73 C 81 -77 98 -79 116 -79 C 130 -79 141 -76 150 -72 C 158 -67 163 -61 163 -55 C 163 -47 158 -42 149 -38 C 140 -34 126 -33 107 -33 L 80 -33 L 92 52 L 114 52 C 132 52 147 54 158 59 C 168 63 174 70 174 79 C 174 85 170 90 164 94 C 157 97 147 99 133 99 C 117 99 102 97 88 94 C 73 90 58 85 42 79 L 57 181 C 77 186 97 190 116 193 C 135 196 154 198 173 198 C 213 198 245 189 269 173 C 293 156 305 134 305 108 C 305 83 296 62 280 46 C 264 29 242 18 216 12 C 238 7 256 -1 268 -15 C 280 -28 287 -44 287 -63 C 287 -98 272 -126 244 -147 C 216 -167 177 -178 127 -178 Z" unicode="₃" />
<glyph horiz-adv-x="359" d="M 155 -170 L 164 -105 L 5 -105 L 17 -21 L 165 190 L 321 190 L 292 -13 L 335 -13 L 323 -105 L 279 -105 L 270 -170 L 155 -170 Z M 177 -13 L 192 95 L 115 -13 L 177 -13 Z" unicode="₄" />
<glyph horiz-adv-x="323" d="M 125 -178 C 105 -178 85 -176 65 -173 C 45 -169 24 -165 2 -159 L 16 -57 C 32 -65 48 -72 64 -76 C 80 -80 97 -83 115 -83 C 130 -83 142 -80 151 -75 C 159 -70 164 -63 164 -55 C 164 -46 159 -39 150 -35 C 141 -30 128 -28 111 -28 C 96 -28 80 -28 64 -30 C 48 -32 33 -34 19 -37 L 64 190 L 305 190 L 290 89 L 133 89 L 126 52 C 133 52 140 53 147 53 C 153 53 160 54 166 54 C 206 54 237 45 259 28 C 280 10 291 -14 291 -46 C 291 -84 275 -116 244 -141 C 213 -165 173 -178 125 -178 Z" unicode="₅" />
<glyph horiz-adv-x="362" d="M 173 -178 C 127 -178 90 -164 63 -137 C 36 -109 23 -72 23 -25 C 23 36 42 88 82 132 C 122 176 173 198 235 198 C 252 198 268 196 284 194 C 300 191 316 187 333 182 L 319 83 C 304 89 290 93 276 97 C 262 100 247 102 232 102 C 209 102 190 96 176 84 C 161 72 150 54 143 32 C 152 42 163 50 177 56 C 191 61 206 64 223 64 C 257 64 283 55 303 37 C 322 19 332 -4 332 -35 C 332 -78 316 -113 286 -139 C 256 -165 218 -178 173 -178 Z M 175 -84 C 187 -84 197 -80 205 -73 C 212 -65 216 -55 216 -43 C 216 -33 213 -26 207 -20 C 201 -14 193 -12 183 -12 C 174 -12 166 -14 158 -18 C 150 -22 143 -28 138 -35 C 136 -49 138 -61 145 -70 C 152 -79 162 -84 175 -84 Z" unicode="₆" />
<glyph horiz-adv-x="334" d="M 29 -170 L 185 85 L 36 85 L 51 190 L 336 190 L 325 106 L 165 -170 L 29 -170 Z" unicode="₇" />
<glyph horiz-adv-x="341" d="M 150 -178 C 106 -178 72 -169 48 -153 C 24 -137 12 -115 12 -87 C 12 -69 18 -52 31 -36 C 43 -20 61 -7 84 3 C 68 12 57 23 49 36 C 41 48 37 63 37 80 C 37 114 51 142 80 164 C 109 186 145 198 188 198 C 230 198 263 189 288 173 C 312 156 325 134 325 107 C 325 88 319 71 309 57 C 299 43 282 30 260 20 C 276 10 288 -1 296 -15 C 304 -28 308 -43 308 -60 C 308 -96 293 -124 263 -146 C 233 -167 196 -178 150 -178 Z M 181 50 L 186 49 C 194 53 200 60 205 68 C 210 76 213 85 213 93 C 213 101 210 107 205 112 C 200 117 193 120 184 120 C 174 120 165 116 159 110 C 153 103 150 95 150 86 C 150 77 152 69 158 63 C 163 57 171 52 181 50 Z M 126 -71 C 126 -79 128 -86 134 -91 C 139 -96 146 -99 155 -99 C 166 -99 175 -95 183 -88 C 191 -81 195 -72 195 -62 C 195 -52 191 -45 185 -40 C 179 -34 171 -30 162 -28 L 157 -27 C 148 -31 141 -37 135 -45 C 129 -53 126 -61 126 -71 Z" unicode="₈" />
<glyph horiz-adv-x="362" d="M 131 -178 C 113 -178 96 -176 80 -174 C 63 -171 47 -167 31 -162 L 45 -63 C 59 -69 74 -73 88 -77 C 102 -80 117 -82 133 -82 C 155 -82 174 -76 189 -65 C 204 -53 215 -37 222 -15 C 212 -25 201 -34 187 -40 C 173 -46 157 -49 139 -49 C 106 -49 80 -39 61 -21 C 42 -2 33 23 33 55 C 33 98 48 133 78 159 C 108 185 147 198 193 198 C 239 198 275 184 302 157 C 328 129 342 92 342 45 C 342 -18 322 -71 284 -114 C 245 -156 194 -178 131 -178 Z M 182 27 C 190 27 199 29 207 33 C 215 37 221 43 227 50 C 229 66 226 79 219 89 C 211 99 201 104 189 104 C 177 104 167 100 160 93 C 152 85 149 75 149 63 C 149 52 152 43 158 37 C 164 30 172 27 182 27 Z" unicode="₉" />
<glyph horiz-adv-x="669" d="M 71 351 L 84 438 L 437 438 L 425 351 L 71 351 Z M 52 217 L 64 304 L 420 304 L 407 217 L 52 217 Z M 437 -15 C 336 -15 257 13 199 69 C 141 125 112 198 112 288 C 112 400 148 493 222 565 C 296 637 393 673 514 673 C 550 673 584 669 618 661 C 652 653 684 642 714 626 L 692 470 C 662 488 632 502 601 512 C 570 522 537 527 503 527 C 433 527 379 505 339 463 C 299 421 279 366 279 299 C 279 250 294 210 326 179 C 358 147 401 132 455 132 C 491 132 526 137 560 147 C 593 157 627 172 661 193 L 639 35 C 605 18 572 5 538 -2 C 504 -10 471 -15 437 -15 Z" unicode="€" />
<glyph horiz-adv-x="711" d="M 382 83 C 296 83 226 110 170 164 C 114 218 87 286 87 369 C 87 470 123 554 195 622 C 267 690 349 724 443 724 C 528 724 598 697 654 643 C 710 589 738 521 738 439 C 738 331 703 245 634 180 C 565 115 481 83 382 83 Z M 383 162 C 465 162 530 187 580 239 C 630 291 655 355 655 433 C 655 495 634 545 594 585 C 553 625 502 645 442 645 C 364 645 300 617 248 563 C 196 509 170 445 170 373 C 170 311 190 261 231 221 C 271 181 322 162 383 162 Z M 271 227 L 321 582 L 443 582 C 475 582 501 572 523 552 C 545 532 556 507 556 477 C 556 435 541 401 513 375 C 485 348 450 335 409 335 L 372 335 L 356 227 L 271 227 Z M 383 412 L 413 412 C 431 412 444 417 454 427 C 463 437 468 450 468 465 C 468 475 464 485 457 493 C 449 501 439 505 426 505 L 396 505 L 383 412 Z" unicode="℗" />
<glyph horiz-adv-x="698" d="M 170 438 L 199 640 L 127 640 L 138 716 L 371 716 L 360 640 L 289 640 L 261 438 L 170 438 Z M 361 438 L 401 716 L 534 716 L 561 613 L 618 716 L 748 716 L 709 438 L 617 438 L 643 623 L 561 474 L 505 474 L 463 624 L 437 438 L 361 438 Z" unicode="™" />
<glyph horiz-adv-x="596" d="M 310 -13 C 236 -13 178 7 135 47 C 92 87 71 142 71 212 C 71 285 94 347 140 398 C 186 449 242 475 308 475 C 330 475 351 472 369 466 C 387 460 403 451 416 439 C 399 478 369 508 326 530 C 283 551 229 562 163 562 L 185 721 C 323 721 426 682 495 606 C 564 530 599 438 599 330 C 599 226 572 143 518 81 C 464 18 395 -13 310 -13 Z M 321 129 C 354 129 379 140 397 164 C 414 187 423 217 423 253 C 423 276 416 296 402 312 C 388 328 368 336 342 336 C 312 336 288 324 269 302 C 250 280 241 252 241 220 C 241 193 248 171 264 154 C 279 137 298 129 321 129 Z" unicode="∂" />
<glyph horiz-adv-x="625" d="M 63 0 L 156 658 L 654 658 L 561 0 L 400 0 L 472 512 L 297 512 L 224 0 L 63 0 Z" unicode="∏" />
<glyph horiz-adv-x="567" d="M 52 0 L 71 134 L 300 341 L 127 524 L 146 658 L 610 658 L 589 512 L 360 512 L 511 349 L 300 155 L 540 155 L 519 0 L 52 0 Z" unicode="∑" />
<glyph horiz-adv-x="518" d="M 73 229 L 91 355 L 523 355 L 505 229 L 73 229 Z" unicode="−" />
<glyph horiz-adv-x="601" d="M 169 0 L 72 505 L 232 505 L 292 174 L 538 705 L 688 705 L 356 0 L 169 0 Z" unicode="√" />
<glyph horiz-adv-x="863" d="M 232 6 C 181 6 139 23 106 59 C 73 95 57 144 57 206 C 57 285 80 348 127 396 C 173 443 233 467 305 467 C 346 467 382 457 412 438 C 442 419 468 389 490 349 C 516 387 545 416 579 436 C 613 456 651 467 693 467 C 745 467 788 449 822 413 C 856 377 873 328 873 265 C 873 186 849 123 803 76 C 757 29 698 6 627 6 C 584 6 548 16 518 36 C 488 56 462 85 441 123 C 415 85 385 56 351 36 C 317 16 277 6 232 6 Z M 655 327 C 633 327 613 320 594 307 C 575 293 557 272 540 244 C 556 210 571 186 586 170 C 600 154 617 146 636 146 C 664 146 686 155 702 174 C 718 193 727 217 727 246 C 727 270 720 289 707 304 C 694 319 677 327 655 327 Z M 203 227 C 203 203 209 183 222 168 C 234 153 252 146 275 146 C 295 146 316 152 336 166 C 356 180 374 200 391 227 C 374 261 358 286 342 302 C 326 318 309 327 291 327 C 264 327 243 317 227 298 C 211 279 203 255 203 227 Z" unicode="∞" />
<glyph horiz-adv-x="397" d="M 78 -216 C 64 -216 51 -215 37 -213 C 23 -211 10 -207 -4 -203 L -4 -67 C 8 -70 20 -72 32 -74 C 44 -76 57 -77 71 -77 C 86 -77 99 -72 109 -63 C 119 -54 125 -41 127 -24 L 192 538 C 198 599 219 645 255 675 C 291 705 335 720 387 720 C 401 720 415 719 429 717 C 443 715 457 713 472 710 L 472 569 C 460 573 448 576 436 578 C 424 580 413 581 401 581 C 384 581 371 576 361 567 C 351 558 346 545 344 528 L 279 -35 C 272 -94 251 -139 215 -170 C 179 -200 134 -216 78 -216 Z" unicode="∫" />
<glyph horiz-adv-x="424" d="M 109 313 L 111 428 C 120 440 133 449 150 457 C 166 464 183 468 200 468 C 213 468 226 466 240 462 C 254 458 266 453 277 449 C 287 445 298 440 311 436 C 323 432 337 430 351 430 C 364 430 377 432 389 437 C 401 441 413 448 424 456 L 422 342 C 412 329 399 319 383 312 C 366 304 349 301 333 301 C 319 301 305 302 293 306 C 280 310 268 314 258 319 C 247 323 235 328 222 332 C 209 336 196 339 183 339 C 170 339 157 336 144 332 C 130 328 119 321 109 313 Z M 82 118 L 84 232 C 92 244 105 253 122 261 C 138 269 155 273 172 273 C 185 273 198 270 212 266 C 226 262 238 258 249 254 C 259 250 271 245 283 241 C 295 236 309 234 323 234 C 336 234 349 236 362 241 C 374 245 386 252 396 260 L 394 146 C 385 134 372 124 355 116 C 338 108 321 105 305 105 C 291 105 278 107 265 111 C 252 115 240 119 230 124 C 220 128 208 132 195 137 C 181 141 168 144 155 144 C 142 144 129 141 116 137 C 102 133 91 126 82 118 Z" unicode="≈" />
<glyph horiz-adv-x="539" d="M 77 18 L 386 565 L 516 565 L 206 18 L 77 18 Z M 104 335 L 121 457 L 553 457 L 536 335 L 104 335 Z M 75 130 L 92 252 L 524 252 L 507 130 L 75 130 Z" unicode="≠" />
<glyph horiz-adv-x="537" d="M 292 81 L 103 296 L 355 513 L 548 513 L 296 296 L 487 81 L 292 81 Z M 52 -122 L 70 0 L 466 0 L 449 -122 L 52 -122 Z" unicode="≤" />
<glyph horiz-adv-x="537" d="M 73 81 L 324 296 L 134 513 L 327 513 L 517 296 L 268 81 L 73 81 Z M 52 -124 L 70 0 L 467 0 L 450 -124 L 52 -124 Z" unicode="≥" />
<glyph horiz-adv-x="660" d="M 325 -53 L 89 287 L 421 627 L 652 287 L 325 -53 Z M 349 148 L 482 290 L 393 425 L 259 283 L 349 148 Z" unicode="◊" />
<glyph horiz-adv-x="598" d="M 169 0 L 72 507 L 232 507 L 292 168 L 538 707 L 684 707 L 356 0 L 169 0 Z" unicode="✓" />
<glyph horiz-adv-x="693" d="M 53 0 L 73 140 L 227 140 L 232 172 C 191 186 158 212 132 249 C 106 286 93 330 93 380 C 93 466 122 536 181 591 C 240 645 319 673 418 673 C 503 673 574 650 630 605 C 686 560 715 499 715 423 C 715 361 695 306 656 260 C 617 214 568 183 508 168 L 504 140 L 659 140 L 639 0 L 374 0 L 411 262 C 453 265 486 280 512 307 C 537 333 550 367 550 407 C 550 441 537 469 512 492 C 487 515 453 527 411 527 C 365 527 327 513 298 487 C 269 461 255 426 255 383 C 255 350 264 323 282 301 C 300 279 324 266 355 262 L 318 0 L 53 0 Z" unicode="Ꞷ" />
<glyph horiz-adv-x="166" d="M 59 -262 L -44 -224 C -28 -200 -16 -178 -9 -158 C -1 -138 4 -114 8 -88 L 15 -40 L 142 -40 L 136 -88 C 130 -128 121 -160 110 -185 C 99 -210 82 -236 59 -262 Z" unicode="" />
<glyph horiz-adv-x="755" d="M 45 0 L 137 658 L 801 658 L 709 0 L 45 0 Z M 227 73 L 327 73 L 387 502 L 448 502 L 388 73 L 488 73 L 522 315 L 536 315 C 587 315 629 328 661 356 C 693 384 710 424 710 476 C 710 504 699 529 678 552 C 657 575 619 587 563 587 L 201 587 L 189 502 L 287 502 L 227 73 Z" unicode="" />
<glyph horiz-adv-x="575" d="M 86 0 L 134 338 L 69 338 L 87 472 L 153 472 L 158 513 C 166 577 192 628 234 668 C 276 707 329 727 393 727 C 414 727 436 724 460 720 C 484 716 506 709 527 701 L 507 560 C 490 568 472 575 454 580 C 436 584 418 587 401 587 C 376 587 356 580 341 566 C 326 552 317 532 313 506 L 308 472 L 386 472 L 367 338 L 289 338 L 241 0 L 86 0 Z M 378 0 C 378 20 379 42 381 65 C 383 87 385 110 388 133 L 435 472 L 592 472 L 544 133 C 541 112 539 90 537 66 C 535 42 534 20 535 0 L 378 0 Z" unicode="ﬁ" />
<glyph horiz-adv-x="587" d="M 86 0 L 134 338 L 69 338 L 87 472 L 153 472 L 158 513 C 166 577 192 628 234 668 C 276 707 329 727 393 727 C 414 727 436 724 460 720 C 484 716 506 709 527 701 L 507 560 C 490 568 472 575 454 580 C 436 584 418 587 401 587 C 376 587 356 580 341 566 C 326 552 317 532 313 506 L 308 472 L 386 472 L 367 338 L 289 338 L 241 0 L 86 0 Z M 391 0 C 389 22 389 44 391 68 C 392 91 394 113 397 134 L 479 716 L 635 716 L 553 134 C 550 113 548 91 547 68 C 545 45 546 22 548 0 L 391 0 Z" unicode="ﬂ" />
</font>
</defs>
</svg>
